<svg width="22" height="22" viewBox="0 0 22 22" fill="none" xmlns="http://www.w3.org/2000/svg">
<path stroke="#111" stroke-width="0.5" fill-rule="evenodd" clip-rule="evenodd" d="M10.3121 2.06251C11.5211 2.06106 12.7177 2.3056 13.8293 2.78124C14.9409 3.25694 15.9441 3.95386 16.7779 4.82958L16.79 4.84223L17.7089 5.91123C17.9564 6.19917 17.9236 6.63323 17.6357 6.88074C17.3477 7.12825 16.9136 7.09547 16.6661 6.80753L15.7703 5.76533C15.0675 5.03051 14.2232 4.44543 13.2883 4.04536C12.3482 3.64305 11.336 3.43623 10.3134 3.43751L10.3129 3.43751H10.3125C6.13751 3.43751 2.75 6.82502 2.75 11C2.75 15.175 6.13748 18.5625 10.3125 18.5625M10.3121 2.06251C5.37788 2.06274 1.375 6.06577 1.375 11C1.375 15.9344 5.37812 19.9375 10.3125 19.9375H10.3125C12.161 19.9374 13.9639 19.3644 15.4733 18.2974C16.9826 17.2304 18.1242 15.7219 18.741 13.9794C18.8676 13.6215 18.6802 13.2286 18.3222 13.1019C17.9643 12.9752 17.5714 13.1627 17.4447 13.5206C16.9229 14.9952 15.9568 16.2717 14.6796 17.1746C13.4023 18.0775 11.8767 18.5624 10.3125 18.5625" fill="#111"/>
<path d="M19.9372 4.18562V8.9371C19.9372 9.11944 19.8648 9.29431 19.7359 9.42324C19.6069 9.55217 19.4321 9.6246 19.2497 9.6246H14.4982C13.8855 9.6246 13.5787 8.88425 14.0118 8.45113L18.7637 3.69921C19.1969 3.26523 19.9372 3.57288 19.9372 4.18562Z" fill="#111" />
</svg>
