<svg width="47" height="47" fill="none" xmlns="http://www.w3.org/2000/svg"><path d="M7.348 29.38l9.546-9.546m14.688 5.875l8.078-8.078-8.078 8.078zm-10.281-5.875l5.875 5.875-5.875-5.875zM41.868 17.632a2.204 2.204 0 100-4.407 2.204 2.204 0 000 4.407zM29.376 30.111a2.204 2.204 0 100-4.407 2.204 2.204 0 000 4.407zM19.102 19.83a2.204 2.204 0 100-4.407 2.204 2.204 0 000 4.407zM5.141 33.79a2.204 2.204 0 100-4.408 2.204 2.204 0 000 4.407z" stroke="#00ADE6" stroke-width="2.938" stroke-linecap="round" stroke-linejoin="round"/></svg>