<svg width="47" height="47" fill="none" xmlns="http://www.w3.org/2000/svg"><path d="M38.184 7.339H8.809a4.406 4.406 0 00-4.407 4.406v26.438a4.406 4.406 0 004.407 4.406h29.375a4.406 4.406 0 004.406-4.406V11.745a4.406 4.406 0 00-4.406-4.406z" stroke="#00ADE6" stroke-width="2.938" stroke-linejoin="round"/><path d="M29.326 21.3a2.158 2.158 0 11-4.315 0 2.158 2.158 0 014.315 0z" fill="#00ADE6" stroke="#00ADE6" stroke-width=".092"/><path d="M34.512 23.502a2.204 2.204 0 100-4.407 2.204 2.204 0 000 4.407zM27.169 30.841a2.204 2.204 0 100-4.407 2.204 2.204 0 000 4.407zM34.512 30.841a2.204 2.204 0 100-4.407 2.204 2.204 0 000 4.407zM12.485 30.841a2.204 2.204 0 100-4.407 2.204 2.204 0 000 4.407zM19.825 30.841a2.204 2.204 0 100-4.407 2.204 2.204 0 000 4.407zM12.485 38.19a2.204 2.204 0 100-4.407 2.204 2.204 0 000 4.408zM19.825 38.19a2.204 2.204 0 100-4.407 2.204 2.204 0 000 4.408zM27.169 38.19a2.204 2.204 0 100-4.407 2.204 2.204 0 000 4.408z" fill="#00ADE6"/><path d="M35.246 4.401V7.34M11.746 4.4V7.34 4.4z" stroke="#00ADE6" stroke-width="2.938" stroke-linecap="round" stroke-linejoin="round"/><path d="M42.59 14.688H4.402" stroke="#00ADE6" stroke-width="2.938" stroke-linejoin="round"/></svg>