<svg xmlns="http://www.w3.org/2000/svg" width="80.527" height="80.529"><g data-name="discount ribbon"><path data-name="Path 20752" d="M72.112 37.843a8.069 8.069 0 00.758-4.608 8.076 8.076 0 00-2.568-3.903 6.562 6.562 0 01-1.3-1.535 6.8 6.8 0 01-.24-2.096 7.846 7.846 0 00-1.04-4.464 7.905 7.905 0 00-3.839-2.6 6.731 6.731 0 01-1.821-.941 6.767 6.767 0 01-1.007-1.817 7.885 7.885 0 00-2.684-3.736 7.885 7.885 0 00-4.512-.93 6.788 6.788 0 01-2.072-.181 6.744 6.744 0 01-1.602-1.282 7.899 7.899 0 00-3.932-2.451 5.4 5.4 0 00-2.142.055 13.38 13.38 0 00-2.36.808 10.272 10.272 0 01-1.638.586 2.035 2.035 0 01-.37.048 6.711 6.711 0 01-1.931-.56 8.075 8.075 0 00-4.61-.758 8.075 8.075 0 00-3.903 2.568 6.692 6.692 0 01-1.535 1.3 2.047 2.047 0 01-.358.106 10.327 10.327 0 01-1.735.132 13.398 13.398 0 00-2.484.222 5.4 5.4 0 00-1.978.821 7.91 7.91 0 00-2.601 3.84 6.765 6.765 0 01-.941 1.822 6.743 6.743 0 01-1.817 1.006 7.881 7.881 0 00-3.74 2.687 7.883 7.883 0 00-.93 4.512 6.738 6.738 0 01-.183 2.062 6.684 6.684 0 01-1.28 1.601 7.906 7.906 0 00-2.45 3.94 7.838 7.838 0 00.866 4.502 6.816 6.816 0 01.632 2.012 6.615 6.615 0 01-.56 1.93 8.067 8.067 0 00-.758 4.608 8.07 8.07 0 002.567 3.901 6.624 6.624 0 011.3 1.538 6.81 6.81 0 01.241 2.095 7.843 7.843 0 001.04 4.463 7.908 7.908 0 003.841 2.6 6.705 6.705 0 011.821.941 6.762 6.762 0 011.007 1.815 7.881 7.881 0 002.683 3.74 7.892 7.892 0 004.514.928 6.724 6.724 0 012.066.18 6.7 6.7 0 011.602 1.282 7.899 7.899 0 003.934 2.45 5.418 5.418 0 002.142-.056 13.38 13.38 0 002.359-.808 10.31 10.31 0 011.64-.587 1.86 1.86 0 01.37-.046 6.623 6.623 0 011.932.56 8.066 8.066 0 004.61.758 8.066 8.066 0 003.902-2.568 6.6 6.6 0 011.538-1.299 1.85 1.85 0 01.356-.108 10.34 10.34 0 011.735-.131 13.298 13.298 0 002.484-.222 5.414 5.414 0 001.98-.82 7.907 7.907 0 002.595-3.837 6.73 6.73 0 01.94-1.823 6.747 6.747 0 011.816-1.005 7.889 7.889 0 003.746-2.687 7.876 7.876 0 00.927-4.513 6.772 6.772 0 01.18-2.068 6.693 6.693 0 011.282-1.602 7.899 7.899 0 002.45-3.934 7.846 7.846 0 00-.866-4.5 6.818 6.818 0 01-.633-2.013 6.645 6.645 0 01.564-1.93z" fill="#00353a" stroke="#57e1ed" stroke-width=".99987"/><text data-name="10% off!" transform="rotate(-12.04 193.673 -169.525)" fill="#57e1ed" font-size="19" font-family="Lato-Semibold, Lato" font-weight="600" letter-spacing=".04em"><tspan x="-19.484" y="0">7.5%</tspan><tspan x="-15.803" y="22">off!</tspan></text></g></svg>