<svg width="52" height="52" fill="none" xmlns="http://www.w3.org/2000/svg"><path opacity=".8" fill-rule="evenodd" clip-rule="evenodd" d="M25.774 0A25.676 25.676 0 11.098 25.676 25.688 25.688 0 0125.774 0zm-8.028 40.11V20.055H11.08v20.057h6.666zm24.03 0v-11.5c0-6.158-3.29-9.024-7.674-9.024a6.619 6.619 0 00-6.006 3.31v-2.842h-6.661c.089 1.882 0 20.052 0 20.052h6.664V28.908a4.556 4.556 0 01.22-1.627 3.646 3.646 0 013.42-2.438c2.41 0 3.375 1.84 3.375 4.534v10.734h6.661zM14.457 10.387a3.474 3.474 0 10-.088 6.929h.043a3.473 3.473 0 003.488-4.835 3.475 3.475 0 00-3.443-2.094z" fill="#00ADE6"/></svg>