<svg width="47" height="47" fill="none" xmlns="http://www.w3.org/2000/svg"><path d="M31.811 31.737h0c-2.33-1.495-5.282-2.32-8.313-2.32-3.032 0-5.984.825-8.313 2.32h0a11.359 11.359 0 00-2.958 2.704.413.413 0 01-.486.135l.017-.042-.017.042a.413.413 0 01-.148-.102m20.218-2.737l3.558 2.707m-3.558-2.707c1.139.72 2.14 1.635 2.958 2.705m-2.958-2.705l2.994 2.677m-23.212.06l.034-.031-.034.03s0 0 0 0zm0 0a16.14 16.14 0 01-4.297-10.701c-.15-8.958 7.2-16.456 16.162-16.478C32.42 7.273 39.7 14.55 39.7 23.497a16.14 16.14 0 01-4.297 10.978m0 0l-.034-.031m.034.03s0 0 0 0l-.034-.03m.034.03a.412.412 0 01-.634-.032m.6.002a.367.367 0 01-.564-.03m-.036.028s0 0 0 0l.036-.028m-.036.028s0 0 0 0l.036-.028M4.45 23.762C4.305 13.05 13.05 4.305 23.763 4.45c10.274.143 18.64 8.508 18.78 18.784.147 10.713-8.596 19.458-19.31 19.312-10.274-.143-18.64-8.509-18.783-18.783z" fill="#00ADE6" stroke="#00ADE6" stroke-width=".092"/><path d="M18.922 15.152c1.154-1.223 2.778-1.897 4.577-1.897 1.786 0 3.408.678 4.567 1.908 1.172 1.245 1.745 2.922 1.61 4.722-.27 3.583-3.041 6.497-6.177 6.497-3.136 0-5.912-2.914-6.177-6.498-.13-1.818.447-3.51 1.6-4.732z" fill="#00ADE6" stroke="#00ADE6" stroke-width=".092"/></svg>