<svg width="52" height="52" fill="none" xmlns="http://www.w3.org/2000/svg"><path opacity=".8" fill-rule="evenodd" clip-rule="evenodd" d="M24.598 51.35h.036-.042.006zm2.156 0h-.028.036-.008zm-2.259-.005h.039-.039zm2.338 0h-.01.039-.029zm-2.416-.005h.04-.04zm2.497 0h-.018.039-.02zm-2.57-.004h.04-.04zm2.653 0h-.029.04-.011zm.082 0h-.037.07-.033zm-2.805 0h.032-.07.038zm2.883-.005h-.016.04-.024zm-2.992 0h.04-.04zm-.072 0h.04-.04zm3.147 0h-.02.04-.02zm-3.217-.006h.037-.068.031zm3.299 0h-.034.069-.035zm.081-.005h-.006.039-.033zm-3.485 0h.039-.039zm-.072-.005h.038-.038zm3.64 0h-.021.038-.017zm-3.712-.006h.034-.034zm3.793 0h-.027.034-.007zm-3.89-.008h.03-.03zm3.971 0h-.007.03-.023zm.082-.006h-.015.03-.015zm-4.128 0h.03-.03zm-.073-.006h.026-.026zm4.282 0h-.019.026-.007zm.163-.015h-.008.018-.011zm-4.61 0h.017H23.363zm-1.7-.21a25.677 25.677 0 118.024 0V33.097h5.984l1.139-7.422h-7.12v-4.817c0-2.03.994-4.01 4.183-4.01h3.238V10.53a39.483 39.483 0 00-5.747-.502c-5.865 0-9.699 3.553-9.699 9.99v5.656H15.15v7.422h6.52l-.005 17.969z" fill="#504F4F"/></svg>