<svg width="52" height="52" fill="none" xmlns="http://www.w3.org/2000/svg"><path opacity=".8" fill-rule="evenodd" clip-rule="evenodd" d="M26.227 0A25.676 25.676 0 11.551 25.676 25.688 25.688 0 0126.227 0zm0 9.63c-4.358 0-4.905.019-6.617.094-1.331.027-2.648.28-3.895.748a8.208 8.208 0 00-4.693 4.693 11.78 11.78 0 00-.748 3.895c-.078 1.712-.094 2.258-.094 6.617 0 4.36.019 4.905.094 6.617a11.78 11.78 0 00.748 3.895 8.206 8.206 0 004.693 4.694 11.78 11.78 0 003.895.748c1.712.078 2.258.093 6.617.093s4.905-.018 6.617-.093a11.78 11.78 0 003.895-.748 8.207 8.207 0 004.694-4.694c.467-1.246.72-2.564.748-3.895.078-1.712.093-2.258.093-6.617s-.019-4.905-.093-6.617a11.783 11.783 0 00-.748-3.895 8.208 8.208 0 00-4.699-4.693 11.783 11.783 0 00-3.895-.748c-1.707-.077-2.254-.094-6.612-.094zm0 2.892c4.285 0 4.793.016 6.485.094 1.018.012 2.026.199 2.98.552a5.316 5.316 0 013.045 3.045c.354.955.54 1.963.553 2.98.077 1.692.093 2.2.093 6.485s-.016 4.793-.093 6.485a8.874 8.874 0 01-.553 2.98 5.314 5.314 0 01-3.045 3.045 8.874 8.874 0 01-2.98.553c-1.692.077-2.199.093-6.485.093-4.286 0-4.793-.016-6.485-.093a8.874 8.874 0 01-2.98-.553 5.313 5.313 0 01-3.045-3.045 8.882 8.882 0 01-.552-2.98c-.078-1.692-.094-2.2-.094-6.485s.016-4.793.094-6.485a8.882 8.882 0 01.552-2.98 5.316 5.316 0 013.045-3.045 8.884 8.884 0 012.98-.552c1.692-.08 2.2-.096 6.485-.096v.002zm0 4.915a8.24 8.24 0 100 16.48 8.24 8.24 0 000-16.48zm0 13.59a5.349 5.349 0 110-10.698 5.446 5.446 0 013.5 1.31 5.246 5.246 0 011.85 4.044 5.349 5.349 0 01-5.35 5.342v.002zM36.718 17.11a1.926 1.926 0 11-3.852 0 1.926 1.926 0 013.852 0z" fill="#504F4F"/></svg>