<svg width="53" height="52" fill="none" xmlns="http://www.w3.org/2000/svg"><path opacity=".8" fill-rule="evenodd" clip-rule="evenodd" d="M26.325 0A25.676 25.676 0 11.648 25.676 25.688 25.688 0 0126.325 0zM41.7 17.952a4.02 4.02 0 00-2.837-2.838c-2.503-.67-12.54-.67-12.54-.67s-10.036 0-12.54.67a4.02 4.02 0 00-2.837 2.838 41.781 41.781 0 00-.67 7.725c-.017 2.59.208 5.177.67 7.725a4.02 4.02 0 002.838 2.838c2.503.67 12.54.67 12.54.67s10.036 0 12.54-.67a4.02 4.02 0 002.837-2.838c.463-2.549.687-5.135.67-7.725a41.781 41.781 0 00-.67-7.725zM23.115 30.49v-9.63l8.338 4.814-8.338 4.817z" fill="#504F4F"/></svg>