<svg xmlns="http://www.w3.org/2000/svg" fill="none" viewBox="-35.46 -10.1 262.46 147.1" width="100%">
<mask id="mask0" mask-type="alpha" maskUnits="userSpaceOnUse" x="0" y="0" width="227" height="137">
<rect width="227" height="137" rx="16" fill="#0A3145"/>
<rect x="1" y="1" width="225" height="135" rx="15" stroke="url(#paint0_linear)" stroke-opacity="0.5" stroke-width="2"/>
</mask>
<g mask="url(#mask0)">
<g opacity="0.2" clip-path="url(#clip1)">
<path d="M66.7016 30.7178C65.6381 29.0994 63.715 28.2715 61.8045 28.6169L35.8488 33.2906L19.3817 12.611C18.1704 11.0967 16.1828 10.4479 14.3146 10.9623C12.4463 11.4768 11.071 13.0517 10.8068 14.9766L7.24624 41.1668L-17.4472 50.4403C-19.2607 51.1247 -20.486 52.8153 -20.5745 54.7509C-20.663 56.6865 -19.5929 58.4882 -17.847 59.3288L5.91641 70.8447L7.11862 97.2616C7.20901 99.2034 8.4389 100.898 10.2576 101.576C11.2351 101.941 12.2716 101.978 13.2335 101.713C14.0628 101.485 14.8239 101.035 15.4406 100.39L33.6888 81.32L59.1188 88.3621C60.9813 88.8834 62.9714 88.241 64.1827 86.7272C65.3973 85.2095 65.5857 83.124 64.6704 81.4137L52.1798 58.1052L66.699 36.0511C67.7676 34.4318 67.7694 32.3386 66.7016 30.7178V30.7178Z" fill="#FFC107"/>
</g>
<g opacity="0.2" clip-path="url(#clip2)">
<path d="M83.445 115.804C83.4573 115.301 83.1692 114.84 82.7102 114.631L76.4772 111.789L76.0209 104.938C75.9863 104.435 75.6579 104.003 75.183 103.836C74.708 103.67 74.1814 103.802 73.8402 104.174L69.2053 109.239L62.5613 107.566C62.0728 107.444 61.5611 107.623 61.2559 108.023C60.9506 108.424 60.9125 108.967 61.1609 109.404L64.5307 115.379L60.8792 121.197C60.6112 121.625 60.6232 122.168 60.911 122.582C61.0658 122.805 61.2816 122.966 61.5261 123.052C61.737 123.126 61.9661 123.142 62.1932 123.096L68.9105 121.724L73.298 126.99C73.6185 127.376 74.1384 127.534 74.621 127.39C75.1048 127.245 75.4536 126.828 75.5112 126.327L76.2928 119.503L82.6554 116.943C83.1231 116.755 83.4332 116.308 83.445 115.804V115.804Z" fill="#FFC107"/>
</g>
</g>
<defs>
<linearGradient id="paint0_linear" x1="246.569" y1="68.5" x2="-20.8735" y2="68.5005" gradientUnits="userSpaceOnUse">
<stop stop-color="#35E4E9"/>
<stop offset="1" stop-color="#00ADE6"/>
</linearGradient>
<clipPath id="clip0">
<rect width="21" height="21" fill="white" transform="translate(196.001 11)"/>
</clipPath>
<clipPath id="clip1">
<rect width="110.189" height="98.3683" fill="white" transform="translate(-35.4568 19.1499) rotate(-15.3959)"/>
</clipPath>
<clipPath id="clip2">
<rect width="23.6373" height="23.6373" fill="white" transform="translate(64.1979 99.4468) rotate(19.3237)"/>
</clipPath>
</defs>
</svg>