<svg width="602" height="414" viewBox="0 0 602 414" fill="none" xmlns="http://www.w3.org/2000/svg">
<path opacity="0.8" d="M597.522 50.7344L595.974 52.3212L593.762 51.9553L594.796 53.908L593.762 55.9032L595.974 55.5288L597.522 57.1156L597.854 54.9034L599.845 53.908L597.854 52.9337L597.522 50.7344Z" fill="#FFEBC9"/>
<path opacity="0.8" d="M525.408 24.2109L523.86 25.7978L521.703 25.4277L522.716 27.3505L521.703 29.3032L523.86 28.9331L525.408 30.5029L525.702 28.346L527.676 27.3505L525.702 26.3891L525.408 24.2109Z" fill="#FEE2BB"/>
<path opacity="0.8" d="M441.647 14.0703L439.465 16.2825L436.406 15.7677L437.844 18.4947L436.406 21.2428L439.465 20.7111L441.647 22.9403L442.069 19.8602L444.855 18.4947L442.069 17.1291L441.647 14.0703Z" fill="#FFEBC9"/>
<path opacity="0.8" d="M234.898 97.3472L234.018 96.4453L233.83 97.6961L232.703 98.2533L233.83 98.8064L234.018 100.078L234.898 99.1723L236.158 99.3977L235.566 98.2533L236.158 97.143L234.898 97.3472Z" fill="#FFEBC9"/>
<path opacity="0.8" d="M281.8 42.3203L283.315 40.7378L285.488 41.1079L284.455 39.168L285.488 37.2324L283.315 37.6025L281.8 36.0156L281.468 38.1938L279.516 39.168L281.468 40.1465L281.8 42.3203Z" fill="#FFEBC9"/>
<path opacity="0.8" d="M357.729 81.607L359.609 79.6713L362.268 80.1351L361.013 77.7357L362.268 75.3746L359.609 75.8171L357.729 73.8984L357.363 76.5573L354.93 77.7357L357.363 78.9354L357.729 81.607Z" fill="#FFEBC9"/>
<path opacity="0.8" d="M568.644 87.1875L567.495 88.3702L565.836 88.0894L566.614 89.5698L565.836 91.0248L567.495 90.7653L568.644 91.9479L568.882 90.2845L570.375 89.5698L568.882 88.8296L568.644 87.1875Z" fill="#FFEBC9"/>
<path opacity="0.8" d="M477.489 86.4123L476.089 84.9531L475.796 86.9824L473.949 87.8672L475.796 88.7904L476.089 90.7984L477.489 89.3435L479.518 89.6752L478.561 87.8672L479.518 86.0592L477.489 86.4123Z" fill="#FFEBC9"/>
<path opacity="0.8" d="M182.922 -9.61922L179.676 -12.9375L178.991 -8.32599L174.805 -6.26273L178.991 -4.19516L179.676 0.433387L182.922 -2.90618L187.529 -2.13189L185.355 -6.26273L187.529 -10.3935L182.922 -9.61922Z" fill="#FFEBC9"/>
<path opacity="0.8" d="M358.795 199.552L360.306 201.139L360.637 198.965L362.59 198.004L360.637 197.008L360.306 194.852L358.795 196.421L356.617 196.051L357.647 198.004L356.617 199.923L358.795 199.552Z" fill="#FFEBC9"/>
<path opacity="0.8" d="M63.2333 159.52L60.2086 156.406L59.5619 160.72L55.6523 162.634L59.5619 164.574L60.2086 168.888L63.2333 165.77L67.5513 166.51L65.522 162.634L67.5513 158.78L63.2333 159.52Z" fill="#35E4E9" fill-opacity="0.4"/>
<path opacity="0.8" d="M110.806 67.3922L116.966 68.4259L114.052 62.9295L116.966 57.3949L110.806 58.4626L106.475 54L105.569 60.1601L100 62.9295L105.569 65.6777L106.475 71.8335L110.806 67.3922Z" fill="#35E4E9" fill-opacity="0.4"/>
<path opacity="0.8" d="M283.49 91.0151L281.959 89.4453L281.648 91.6234L279.691 92.5849L281.648 93.5421L281.959 95.716L283.49 94.1504L285.647 94.5375L284.635 92.5849L285.647 90.6279L283.49 91.0151Z" fill="#FFEBC9"/>
<path opacity="0.8" d="M558.2 174.35L556.783 172.891L556.485 174.92L554.66 175.805L556.485 176.711L556.783 178.719L558.2 177.281L560.233 177.613L559.272 175.805L560.233 173.997L558.2 174.35Z" fill="#FFEBC9"/>
<path opacity="0.8" d="M200.429 145.32L197.162 141.984L196.482 146.596L192.312 148.659L196.482 150.727L197.162 155.355L200.429 152.016L205.037 152.79L202.863 148.659L205.037 144.528L200.429 145.32Z" fill="#35E4E9" fill-opacity="0.4"/>
<path opacity="0.8" d="M453.352 192.626L451.174 190.414L450.731 193.473L447.949 194.838L450.731 196.204L451.174 199.284L453.352 197.051L456.394 197.587L454.939 194.838L456.394 192.107L453.352 192.626Z" fill="#FFEBC9"/>
<path opacity="0.8" d="M21.1042 86.3047L19.5557 87.8745L17.3945 87.5043L18.4113 89.457L17.3945 91.3756L19.5557 91.0098L21.1042 92.5966L21.3977 90.4184L23.3887 89.457L21.3977 88.4615L21.1042 86.3047Z" fill="#FFEBC9"/>
<path opacity="0.8" d="M559.767 16.7797L557.666 14.6016L557.223 17.6093L554.492 18.9366L557.223 20.2809L557.666 23.2886L559.767 21.1105L562.758 21.6295L561.354 18.9366L562.758 16.2607L559.767 16.7797Z" fill="#FFEBC9"/>
<path opacity="0.8" d="M52.9657 353.541L51.6637 349.4L49.147 352.962L44.7941 352.915L47.4144 356.405L46.0529 360.549L50.1565 359.123L53.6809 361.726L53.6104 357.352L57.1556 354.821L52.9657 353.541Z" fill="#35E4E9" fill-opacity="0.4"/>
<path opacity="0.8" d="M531.648 379.82L536.686 383.513L536.553 377.293L541.644 373.659L535.662 371.844L533.799 365.911L530.221 371.006L524.002 370.976L527.741 375.935L525.783 381.841L531.648 379.82Z" fill="#35E4E9" fill-opacity="0.4"/>
<path opacity="0.8" d="M181.908 402.526L180.488 398.079L177.807 401.892L173.156 401.861L175.951 405.582L174.478 410.022L178.898 408.508L182.665 411.271L182.58 406.603L186.379 403.891L181.908 402.526Z" fill="#35E4E9" fill-opacity="0.4"/>
<path opacity="0.8" d="M489.253 126.82L494.291 130.513L494.159 124.293L499.25 120.659L493.267 118.844L491.405 112.911L487.826 118.006L481.607 117.976L485.346 122.935L483.388 128.841L489.253 126.82Z" fill="#35E4E9" fill-opacity="0.4"/>
</svg>
