<svg width="16" height="16" viewBox="0 0 16 16" fill="none" xmlns="http://www.w3.org/2000/svg">
<path fill-rule="evenodd" clip-rule="evenodd" d="M8.00133 3.41881C8.26807 3.15206 8.70054 3.15206 8.96728 3.41881L13.0655 7.51702C13.3322 7.78376 13.3322 8.21624 13.0655 8.48298L8.96728 12.5812C8.70054 12.8479 8.26807 12.8479 8.00133 12.5812C7.73458 12.3145 7.73458 11.882 8.00133 11.6152L11.6166 8L8.00133 4.38476C7.73458 4.11802 7.73458 3.68555 8.00133 3.41881Z" fill="white"/>
<path fill-rule="evenodd" clip-rule="evenodd" d="M3.02002 7.99944C3.02002 7.62221 3.32583 7.31641 3.70306 7.31641H12.0133C12.3906 7.31641 12.6964 7.62221 12.6964 7.99944C12.6964 8.37667 12.3906 8.68248 12.0133 8.68248H3.70306C3.32583 8.68248 3.02002 8.37667 3.02002 7.99944Z" fill="white"/>
</svg>
