<svg width="16" height="16" viewBox="0 0 16 16" fill="none" xmlns="http://www.w3.org/2000/svg">
<path fill-rule="evenodd" clip-rule="evenodd" d="M1.5 2.50001C3.52634 2.50928 4.93878 2.76402 5.88879 3.21791C6.81018 3.65813 7.30362 4.28714 7.51531 5.12279C7.57151 5.34463 7.77115 5.5 8 5.5C8.22885 5.5 8.42849 5.34463 8.48469 5.12279C8.69638 4.28714 9.18983 3.65813 10.1112 3.21791C11.0612 2.76402 12.4737 2.50927 14.5 2.5V11.5C10.891 11.5 9.11854 12.1469 7.99996 13.2528C6.88527 12.152 5.11044 11.5011 1.50936 11.5C1.5051 11.489 1.5 11.4695 1.5 11.4397V2.50001ZM1.1179 1.57526C1.23968 1.52509 1.37018 1.49951 1.50189 1.50001L1.50225 1.50001C3.58627 1.50935 5.17314 1.76772 6.31989 2.31561C7.06575 2.67197 7.62047 3.14907 8 3.74087C8.37954 3.14907 8.93426 2.67197 9.68012 2.31561C10.8269 1.76772 12.4137 1.50935 14.4978 1.50001L14.4981 1.50001C14.6298 1.49951 14.7603 1.52509 14.8821 1.57526C15.0039 1.62543 15.1145 1.69921 15.2077 1.79234C15.3008 1.88548 15.3746 1.99612 15.4247 2.1179C15.4748 2.2393 15.5003 2.36938 15.5 2.50069V11.5C15.5 11.7652 15.3946 12.0196 15.2071 12.2071C15.0196 12.3946 14.7652 12.5 14.5 12.5C10.5592 12.5 9.20449 13.2947 8.39045 14.3123C8.29554 14.431 8.15183 14.5 7.99989 14.5C7.84795 14.5 7.70428 14.4309 7.60942 14.3122C6.8009 13.3005 5.44051 12.5 1.5 12.5C1.19841 12.5 0.934482 12.3723 0.75352 12.1598C0.578866 11.9546 0.500004 11.6943 0.500004 11.4397V2.50079C0.499653 2.36945 0.525226 2.23934 0.575259 2.1179C0.625433 1.99612 0.699212 1.88548 0.792344 1.79234C0.885477 1.69921 0.996121 1.62543 1.1179 1.57526Z" fill="#9E9E9E"/>
<path fill-rule="evenodd" clip-rule="evenodd" d="M8 4.5C8.27614 4.5 8.5 4.72386 8.5 5V14C8.5 14.2761 8.27614 14.5 8 14.5C7.72386 14.5 7.5 14.2761 7.5 14V5C7.5 4.72386 7.72386 4.5 8 4.5Z" fill="#9E9E9E"/>
</svg>
