<svg width="24" height="24" viewBox="0 0 24 24" fill="none" xmlns="http://www.w3.org/2000/svg">
<path fill-rule="evenodd" clip-rule="evenodd" d="M8.06443 6.25613C8.33719 6.56786 8.30561 7.04168 7.99388 7.31444L2.63894 12L7.99388 16.6856C8.30561 16.9583 8.33719 17.4322 8.06443 17.7439C7.79167 18.0556 7.31785 18.0872 7.00612 17.8144L1.00612 12.5644C0.84336 12.422 0.75 12.2163 0.75 12C0.75 11.7837 0.84336 11.578 1.00612 11.4356L7.00612 6.18558C7.31785 5.91282 7.79167 5.9444 8.06443 6.25613Z" fill="#333333"/>
<path fill-rule="evenodd" clip-rule="evenodd" d="M15.9356 6.25613C16.2083 5.9444 16.6822 5.91282 16.9939 6.18558L22.9939 11.4356C23.1566 11.578 23.25 11.7837 23.25 12C23.25 12.2163 23.1566 12.422 22.9939 12.5644L16.9939 17.8144C16.6822 18.0872 16.2083 18.0556 15.9356 17.7439C15.6628 17.4322 15.6944 16.9583 16.0061 16.6856L21.3611 12L16.0061 7.31444C15.6944 7.04168 15.6628 6.56786 15.9356 6.25613Z" fill="#333333"/>
</svg>
