<svg width="18" height="19" viewBox="0 0 18 19" fill="none" xmlns="http://www.w3.org/2000/svg">
<path fill-rule="evenodd" clip-rule="evenodd" d="M1.6875 9.21875C1.6875 5.33586 4.83586 2.1875 8.71875 2.1875C12.6016 2.1875 15.75 5.33586 15.75 9.21875C15.75 13.1016 12.6016 16.25 8.71875 16.25C4.83586 16.25 1.6875 13.1016 1.6875 9.21875ZM8.71875 3.3125C5.45718 3.3125 2.8125 5.95718 2.8125 9.21875C2.8125 12.4803 5.45718 15.125 8.71875 15.125C11.9803 15.125 14.625 12.4803 14.625 9.21875C14.625 5.95718 11.9803 3.3125 8.71875 3.3125Z" fill="#333333"/>
<path fill-rule="evenodd" clip-rule="evenodd" d="M7.17188 8.23438C7.17188 7.92371 7.42371 7.67188 7.73438 7.67188H8.85938C9.17004 7.67188 9.42188 7.92371 9.42188 8.23438V12.3125C9.42188 12.6232 9.17004 12.875 8.85938 12.875C8.54871 12.875 8.29688 12.6232 8.29688 12.3125V8.79688H7.73438C7.42371 8.79688 7.17188 8.54504 7.17188 8.23438Z" fill="#333333"/>
<path fill-rule="evenodd" clip-rule="evenodd" d="M6.75 12.4531C6.75 12.1425 7.00184 11.8906 7.3125 11.8906H10.4062C10.7169 11.8906 10.9688 12.1425 10.9688 12.4531C10.9688 12.7638 10.7169 13.0156 10.4062 13.0156H7.3125C7.00184 13.0156 6.75 12.7638 6.75 12.4531Z" fill="#333333"/>
<path d="M8.71875 5.07031C8.53797 5.07031 8.36124 5.12392 8.21093 5.22436C8.06061 5.3248 7.94345 5.46756 7.87427 5.63458C7.80508 5.8016 7.78698 5.98539 7.82225 6.1627C7.85752 6.34001 7.94458 6.50289 8.07241 6.63072C8.20025 6.75855 8.36312 6.84561 8.54043 6.88088C8.71774 6.91615 8.90153 6.89805 9.06855 6.82886C9.23557 6.75968 9.37833 6.64252 9.47877 6.49221C9.57921 6.34189 9.63282 6.16516 9.63282 5.98438C9.63282 5.74195 9.53651 5.50946 9.36509 5.33804C9.19367 5.16662 8.96118 5.07031 8.71875 5.07031Z" fill="#504F4F"/>
</svg>
