<svg width="30" height="31" viewBox="0 0 30 31" fill="none" xmlns="http://www.w3.org/2000/svg">
<path fill-rule="evenodd" clip-rule="evenodd" d="M3.75 9.89062C3.75 9.11397 4.3796 8.48438 5.15625 8.48438H24.8438C25.6204 8.48438 26.25 9.11397 26.25 9.89062C26.25 10.6673 25.6204 11.2969 24.8438 11.2969H5.15625C4.3796 11.2969 3.75 10.6673 3.75 9.89062Z" fill="#8C61CB"/>
<path fill-rule="evenodd" clip-rule="evenodd" d="M3.75 15.9844C3.75 15.2077 4.3796 14.5781 5.15625 14.5781H24.8438C25.6204 14.5781 26.25 15.2077 26.25 15.9844C26.25 16.761 25.6204 17.3906 24.8438 17.3906H5.15625C4.3796 17.3906 3.75 16.761 3.75 15.9844Z" fill="#8C61CB"/>
<path fill-rule="evenodd" clip-rule="evenodd" d="M3.75 22.0781C3.75 21.3015 4.3796 20.6719 5.15625 20.6719H24.8438C25.6204 20.6719 26.25 21.3015 26.25 22.0781C26.25 22.8548 25.6204 23.4844 24.8438 23.4844H5.15625C4.3796 23.4844 3.75 22.8548 3.75 22.0781Z" fill="#8C61CB"/>
</svg>
