<svg width="64" height="64" viewBox="0 0 64 64" fill="none" xmlns="http://www.w3.org/2000/svg">
<rect width="64" height="64" rx="32" fill="#DCDCDC" fill-opacity="0.12"/>
<path fill-rule="evenodd" clip-rule="evenodd" d="M25.6837 20.3453C25.8442 18.8397 27.1185 17.667 28.6667 17.667H35.3333C36.8815 17.667 38.1558 18.8397 38.3163 20.3453C39.3338 20.366 40.2136 20.4186 40.9649 20.5566C41.9755 20.7422 42.8356 21.0959 43.5355 21.7958C44.3381 22.5984 44.6833 23.6089 44.8446 24.809C45.0001 25.965 45 27.4347 45 29.2582V37.4045C45 39.228 45.0001 40.6977 44.8446 41.8537C44.6833 43.0538 44.3381 44.0643 43.5355 44.8669C42.733 45.6694 41.7225 46.0146 40.5223 46.176C39.3664 46.3314 37.8966 46.3314 36.0732 46.3313H27.9268C26.1034 46.3314 24.6336 46.3314 23.4777 46.176C22.2775 46.0146 21.267 45.6694 20.4645 44.8669C19.6619 44.0643 19.3167 43.0538 19.1554 41.8537C19 40.6977 19 39.228 19 37.4045V29.2582C19 27.4347 19 25.965 19.1554 24.809C19.3167 23.6089 19.6619 22.5984 20.4645 21.7958C21.1644 21.0959 22.0245 20.7422 23.0351 20.5566C23.7864 20.4186 24.6662 20.366 25.6837 20.3453ZM25.6863 22.3458C24.7289 22.3663 23.9911 22.4145 23.3965 22.5237C22.6407 22.6625 22.2033 22.8854 21.8787 23.21C21.5097 23.579 21.2691 24.0971 21.1375 25.0755C21.0021 26.0826 21 27.4175 21 29.3313V37.3313C21 39.2452 21.0021 40.58 21.1375 41.5872C21.2691 42.5655 21.5097 43.0836 21.8787 43.4527C22.2477 43.8217 22.7658 44.0623 23.7442 44.1938C24.7513 44.3292 26.0861 44.3313 28 44.3313H36C37.9139 44.3313 39.2487 44.3292 40.2558 44.1938C41.2342 44.0623 41.7523 43.8217 42.1213 43.4527C42.4903 43.0836 42.7309 42.5655 42.8625 41.5872C42.9979 40.58 43 39.2452 43 37.3313V29.3313C43 27.4175 42.9979 26.0826 42.8625 25.0755C42.7309 24.0971 42.4903 23.579 42.1213 23.21C41.7967 22.8854 41.3593 22.6625 40.6035 22.5237C40.0089 22.4145 39.2711 22.3663 38.3137 22.3458C38.1423 23.84 36.8733 25.0003 35.3333 25.0003H28.6667C27.1267 25.0003 25.8577 23.84 25.6863 22.3458ZM28.6667 19.667C28.1144 19.667 27.6667 20.1147 27.6667 20.667V22.0003C27.6667 22.5526 28.1144 23.0003 28.6667 23.0003H35.3333C35.8856 23.0003 36.3333 22.5526 36.3333 22.0003V20.667C36.3333 20.1147 35.8856 19.667 35.3333 19.667H28.6667ZM27.9596 31.3741C27.569 30.9836 27.569 30.3504 27.9596 29.9599C28.3501 29.5694 28.9833 29.5694 29.3738 29.9599L32 32.5862L34.6262 29.9599C35.0168 29.5694 35.6499 29.5694 36.0404 29.9599C36.431 30.3505 36.431 30.9836 36.0404 31.3742L33.4142 34.0004L36.0404 36.6266C36.4309 37.0171 36.4309 37.6502 36.0404 38.0408C35.6499 38.4313 35.0167 38.4313 34.6262 38.0408L32 35.4146L29.3738 38.0408C28.9833 38.4313 28.3501 38.4313 27.9596 38.0408C27.5691 37.6503 27.5691 37.0171 27.9596 36.6266L30.5858 34.0004L27.9596 31.3741Z" fill="#858585"/>
</svg>
