<svg width="13" height="14" viewBox="0 0 13 14" fill="none" xmlns="http://www.w3.org/2000/svg">
<path d="M8.66 0.333496H6.06389C4.88773 0.333486 3.95612 0.333478 3.22703 0.431896C2.47668 0.533184 1.86935 0.746592 1.3904 1.22747C0.911444 1.70834 0.698889 2.31811 0.598007 3.07147C0.499982 3.8035 0.49999 4.73884 0.5 5.91973V9.81141C0.5 10.8168 1.1133 11.6784 1.98478 12.0396C1.93992 11.4333 1.93996 10.5826 1.94 9.87486L1.94 6.59856L1.94 6.5351C1.93995 5.68066 1.93991 4.94445 2.01886 4.3549C2.10346 3.72308 2.29426 3.11744 2.78353 2.6262C3.27281 2.13496 3.87603 1.9434 4.50532 1.85845C5.09251 1.77919 5.82578 1.77923 6.6768 1.77928L6.74 1.77928H8.66L8.7232 1.77928C9.57423 1.77923 10.3059 1.77919 10.8931 1.85845C10.5418 0.965355 9.6744 0.333496 8.66 0.333496Z" fill="white"/>
<path d="M2.9 6.59856C2.9 4.78109 2.9 3.87236 3.46236 3.30775C4.02471 2.74314 4.92981 2.74314 6.74 2.74314H8.66C10.4702 2.74314 11.3753 2.74314 11.9376 3.30775C12.5 3.87236 12.5 4.78109 12.5 6.59856V9.81141C12.5 11.6289 12.5 12.5376 11.9376 13.1022C11.3753 13.6668 10.4702 13.6668 8.66 13.6668H6.74C4.92981 13.6668 4.02471 13.6668 3.46236 13.1022C2.9 12.5376 2.9 11.6289 2.9 9.81141V6.59856Z" fill="white"/>
</svg>
