<svg width="19" height="20" viewBox="0 0 19 20" fill="none" xmlns="http://www.w3.org/2000/svg">
<path fill-rule="evenodd" clip-rule="evenodd" d="M18.8337 9.99984C18.8337 15.1545 14.655 19.3332 9.50033 19.3332C4.34567 19.3332 0.166992 15.1545 0.166992 9.99984C0.166992 4.84518 4.34567 0.666504 9.50033 0.666504C14.655 0.666504 18.8337 4.84518 18.8337 9.99984ZM9.50033 15.3665C9.88692 15.3665 10.2003 15.0531 10.2003 14.6665V9.0665C10.2003 8.6799 9.88692 8.3665 9.50033 8.3665C9.11373 8.3665 8.80033 8.6799 8.80033 9.0665V14.6665C8.80033 15.0531 9.11373 15.3665 9.50033 15.3665ZM9.50033 5.33317C10.0158 5.33317 10.4337 5.75104 10.4337 6.2665C10.4337 6.78197 10.0158 7.19984 9.50033 7.19984C8.98486 7.19984 8.56699 6.78197 8.56699 6.2665C8.56699 5.75104 8.98486 5.33317 9.50033 5.33317Z" fill="white"/>
</svg>
