<svg width="18" height="18" viewBox="0 0 20 21" fill="none" xmlns="http://www.w3.org/2000/svg">
<path fill-rule="evenodd" clip-rule="evenodd" d="M3.25 9.05461V7C3.25 3.27208 6.27208 0.25 10 0.25C13.7279 0.25 16.75 3.27208 16.75 7V9.05461C17.8648 9.13786 18.5907 9.34805 19.1213 9.87868C20 10.7574 20 12.1716 20 15C20 17.8284 20 19.2426 19.1213 20.1213C18.2426 21 16.8284 21 14 21H6C3.17157 21 1.75736 21 0.87868 20.1213C0 19.2426 0 17.8284 0 15C0 12.1716 0 10.7574 0.87868 9.87868C1.40931 9.34805 2.13525 9.13786 3.25 9.05461ZM4.75 7C4.75 4.10051 7.10051 1.75 10 1.75C12.8995 1.75 15.25 4.10051 15.25 7V9.00357C14.867 9 14.4515 9 14 9H6C5.54849 9 5.13301 9 4.75 9.00357V7Z" fill="white"/>
</svg>
