<svg width="18" height="18" viewBox="0 0 18 18" fill="none" xmlns="http://www.w3.org/2000/svg">
<path fill-rule="evenodd" clip-rule="evenodd" d="M3.7502 3.05001C3.56454 3.05001 3.3865 3.12376 3.25522 3.25504C3.12395 3.38631 3.0502 3.56436 3.0502 3.75001V14.25C3.0502 14.4357 3.12394 14.6137 3.25522 14.745C3.3865 14.8763 3.56454 14.95 3.7502 14.95H14.2502C14.4358 14.95 14.6139 14.8763 14.7452 14.745C14.8764 14.6137 14.9502 14.4357 14.9502 14.25V6.33138L11.6688 3.05001H3.7502ZM2.12385 2.12367C2.55518 1.69233 3.1402 1.45001 3.7502 1.45001H12.0002C12.2124 1.45001 12.4159 1.5343 12.5659 1.68433L16.3159 5.43433C16.4659 5.58436 16.5502 5.78784 16.5502 6.00001V14.25C16.5502 14.86 16.3079 15.445 15.8765 15.8764C15.4452 16.3077 14.8602 16.55 14.2502 16.55H3.7502C3.1402 16.55 2.55518 16.3077 2.12385 15.8764C1.69252 15.445 1.4502 14.86 1.4502 14.25V3.75001C1.4502 3.14001 1.69252 2.555 2.12385 2.12367Z" fill="white"/>
<path fill-rule="evenodd" clip-rule="evenodd" d="M4.4502 9.75001C4.4502 9.30818 4.80837 8.95001 5.2502 8.95001H12.7502C13.192 8.95001 13.5502 9.30818 13.5502 9.75001V15.75C13.5502 16.1918 13.192 16.55 12.7502 16.55C12.3084 16.55 11.9502 16.1918 11.9502 15.75V10.55H6.0502V15.75C6.0502 16.1918 5.69202 16.55 5.2502 16.55C4.80837 16.55 4.4502 16.1918 4.4502 15.75V9.75001Z" fill="white"/>
<path fill-rule="evenodd" clip-rule="evenodd" d="M5.2502 1.45001C5.69202 1.45001 6.0502 1.80818 6.0502 2.25001V5.20001H11.2502C11.692 5.20001 12.0502 5.55818 12.0502 6.00001C12.0502 6.44184 11.692 6.80001 11.2502 6.80001H5.2502C4.80837 6.80001 4.4502 6.44184 4.4502 6.00001V2.25001C4.4502 1.80818 4.80837 1.45001 5.2502 1.45001Z" fill="white"/>
</svg>
