<svg  viewBox="0 0 32 32" fill="none">
<path d="M15.8335 0.5625C7.32135 0.5625 0.395996 7.48785 0.395996 16C0.395996 24.5121 7.32135 31.4375 15.8335 31.4375C24.3456 31.4375 31.271 24.5121 31.271 16C31.271 7.48785 24.3456 0.5625 15.8335 0.5625ZM23.8677 10.8262L13.8927 22.7012C13.7833 22.8315 13.6471 22.9368 13.4934 23.0099C13.3398 23.0831 13.1722 23.1223 13.0021 23.125H12.982C12.8156 23.1249 12.651 23.0899 12.499 23.0221C12.3469 22.9544 12.2109 22.8554 12.0996 22.7316L7.82455 17.9816C7.71598 17.8665 7.63152 17.7308 7.57615 17.5825C7.52077 17.4343 7.49558 17.2764 7.50207 17.1183C7.50857 16.9602 7.5466 16.8049 7.61394 16.6617C7.68129 16.5185 7.77658 16.3902 7.89422 16.2843C8.01186 16.1784 8.14948 16.0972 8.29898 16.0452C8.44849 15.9933 8.60686 15.9718 8.7648 15.982C8.92274 15.9921 9.07705 16.0337 9.21867 16.1044C9.36029 16.175 9.48636 16.2733 9.58947 16.3934L12.9508 20.128L22.0493 9.29879C22.2534 9.06283 22.5422 8.91667 22.8531 8.89188C23.1641 8.8671 23.4724 8.9657 23.7113 9.16636C23.9501 9.36702 24.1005 9.65362 24.1297 9.96422C24.159 10.2748 24.0649 10.5845 23.8677 10.8262V10.8262Z" fill="#01AA93"/>
</svg>