<svg viewBox="0 0 22 20" fill="none">
<path d="M5.75 19.75C5.55109 19.75 5.36032 19.671 5.21967 19.5303C5.07902 19.3897 5 19.1989 5 19V16H3.875C2.9802 15.999 2.12233 15.6431 1.48961 15.0104C0.856891 14.3777 0.500993 13.5198 0.5 12.625V3.625C0.500993 2.7302 0.856891 1.87233 1.48961 1.23961C2.12233 0.606891 2.9802 0.250993 3.875 0.25H18.125C19.0198 0.250993 19.8777 0.606891 20.5104 1.23961C21.1431 1.87233 21.499 2.7302 21.5 3.625V12.625C21.499 13.5198 21.1431 14.3777 20.5104 15.0104C19.8777 15.6431 19.0198 15.999 18.125 16H10.5191L6.23047 19.5761C6.09551 19.6883 5.92554 19.7499 5.75 19.75Z" fill="#00ADE6"/>
</svg>
