<svg width="20" height="20"viewBox="0 0 44 45" fill="none">
<path d="M22.8461 35.839L32.5377 42.2364C33.7876 43.056 35.3259 41.8365 34.9606 40.3371L32.1531 28.8618C32.0772 28.5437 32.0892 28.2098 32.1879 27.8986C32.2866 27.5873 32.4678 27.3114 32.7107 27.1025L41.4024 19.5656C42.5369 18.586 41.96 16.6068 40.4794 16.5068L29.1341 15.7471C28.8245 15.7284 28.5269 15.6164 28.2776 15.4246C28.0283 15.2329 27.8382 14.9699 27.7303 14.6676L23.4999 3.5921C23.3879 3.27204 23.1839 2.99555 22.9156 2.80018C22.6472 2.6048 22.3276 2.5 22 2.5C21.6724 2.5 21.3528 2.6048 21.0844 2.80018C20.8161 2.99555 20.6121 3.27204 20.5001 3.5921L16.2697 14.6676C16.1618 14.9699 15.9717 15.2329 15.7224 15.4246C15.4731 15.6164 15.1755 15.7284 14.8659 15.7471L3.52061 16.5068C2.03995 16.6068 1.46307 18.586 2.5976 19.5656L11.2893 27.1025C11.5322 27.3114 11.7134 27.5873 11.8121 27.8986C11.9108 28.2098 11.9228 28.5437 11.8469 28.8618L9.25095 39.4975C8.80868 41.2967 10.6547 42.7561 12.1354 41.7765L21.1539 35.839C21.4068 35.6718 21.7003 35.583 22 35.583C22.2997 35.583 22.5932 35.6718 22.8461 35.839Z" stroke="#FFD028" stroke-width="3.76735" stroke-linecap="round" stroke-linejoin="round"/>
</svg>
