<svg width="24" height="25" viewBox="0 0 24 25" fill="none" xmlns="http://www.w3.org/2000/svg">
<path fill-rule="evenodd" clip-rule="evenodd" d="M4.87287 3.24756L4.875 3.24756H19.125V3.99756L19.1271 3.24756C20.0209 3.2501 20.8773 3.60627 21.5093 4.23826C22.1413 4.87024 22.4975 5.72667 22.5 6.62042L22.5 6.62256V15.6226L22.5 15.6247C22.4975 16.5184 22.1413 17.3749 21.5093 18.0069C20.8773 18.6388 20.0209 18.995 19.1271 18.9976L19.125 18.9976H11.5193L7.23028 22.5736C7.00674 22.76 6.69555 22.8002 6.43197 22.6768C6.16838 22.5534 6 22.2886 6 21.9976V18.9976H4.875L4.87287 18.9976C3.97911 18.995 3.12268 18.6388 2.4907 18.0069C1.85872 17.3749 1.50255 16.5184 1.5 15.6247L1.5 15.6226V6.62256L1.5 6.62042C1.50255 5.72667 1.85872 4.87024 2.4907 4.23826C3.12268 3.60627 3.97911 3.2501 4.87287 3.24756ZM11.6239 18.9104C11.6237 18.9105 11.6236 18.9107 11.6234 18.9108L11.6239 18.9104ZM19.1238 4.74756H4.87615C4.3791 4.74923 3.90285 4.94743 3.55136 5.29892C3.19987 5.65041 3.00167 6.12665 3 6.62371V15.6214C3.00167 16.1185 3.19987 16.5947 3.55136 16.9462C3.90287 17.2977 4.37913 17.4959 4.87621 17.4976H6.75C7.16421 17.4976 7.5 17.8333 7.5 18.2476V20.3958L10.6623 17.7591C10.6625 17.759 10.6627 17.7588 10.6628 17.7587C10.8651 17.59 11.1202 17.4975 11.3836 17.4976C11.3836 17.4976 11.3837 17.4976 11.3837 17.4976H19.1238C19.6209 17.4959 20.0971 17.2977 20.4486 16.9462C20.8001 16.5947 20.9983 16.1184 21 15.6214V6.62377C20.9983 6.12669 20.8001 5.65043 20.4486 5.29892C20.0971 4.94742 19.6209 4.74923 19.1238 4.74756Z" fill="#00ADE6"/>
<path d="M7.5 12.6226C8.32843 12.6226 9 11.951 9 11.1226C9 10.2941 8.32843 9.62256 7.5 9.62256C6.67157 9.62256 6 10.2941 6 11.1226C6 11.951 6.67157 12.6226 7.5 12.6226Z" fill="#00ADE6"/>
<path d="M12 12.6226C12.8284 12.6226 13.5 11.951 13.5 11.1226C13.5 10.2941 12.8284 9.62256 12 9.62256C11.1716 9.62256 10.5 10.2941 10.5 11.1226C10.5 11.951 11.1716 12.6226 12 12.6226Z" fill="#00ADE6"/>
<path d="M16.5 12.6226C17.3284 12.6226 18 11.951 18 11.1226C18 10.2941 17.3284 9.62256 16.5 9.62256C15.6716 9.62256 15 10.2941 15 11.1226C15 11.951 15.6716 12.6226 16.5 12.6226Z" fill="#00ADE6"/>
</svg>
