<svg width="24" height="25" viewBox="0 0 24 25" fill="none" xmlns="http://www.w3.org/2000/svg">
<path d="M15.319 12.3085C14.3527 12.3085 13.4188 11.8772 12.6897 11.0946C11.9789 10.3317 11.5453 9.31322 11.4687 8.22758C11.3865 7.07148 11.7393 6.00745 12.4614 5.2328C13.1773 4.46379 14.192 4.04053 15.319 4.04053C16.4384 4.04053 17.4513 4.46661 18.1709 5.23985C18.8972 6.02061 19.2519 7.08228 19.1692 8.22852C19.0908 9.31369 18.6572 10.3317 17.9473 11.0941C17.2183 11.8772 16.2848 12.3085 15.319 12.3085ZM15.319 5.54379C14.6143 5.54379 13.99 5.797 13.5611 6.25737C13.1205 6.73043 12.9152 7.37495 12.9682 8.12142C13.0209 8.86553 13.3126 9.55797 13.7899 10.07C14.2315 10.544 14.7745 10.8052 15.319 10.8052C15.863 10.8052 16.4056 10.544 16.8471 10.07C17.324 9.5575 17.6162 8.86506 17.6697 8.12048C17.7218 7.39515 17.509 6.73606 17.0703 6.26395C16.6381 5.79934 16.0161 5.54379 15.319 5.54379Z" fill="#00ADE6"/>
<path d="M21.513 20.5762H9.12757C8.71981 20.5762 8.34352 20.3935 8.09455 20.075C7.83382 19.7414 7.74175 19.2886 7.84792 18.8634C8.24346 17.2756 9.2234 15.9584 10.6816 15.055C11.9748 14.2531 13.6223 13.8115 15.3201 13.8115C17.0512 13.8115 18.6545 14.2348 19.9572 15.0357C21.4186 15.9344 22.3995 17.2587 22.7936 18.8662C22.8979 19.2914 22.8049 19.7442 22.5437 20.0773C22.2952 20.3944 21.9194 20.5762 21.513 20.5762ZM9.34695 19.0729H21.2937C20.5209 16.3027 17.6107 15.3148 15.3196 15.3148C13.037 15.3148 10.1319 16.3032 9.34695 19.0729Z" fill="#00ADE6"/>
<path d="M6.44057 12.4965C4.78792 12.4965 3.33493 10.9594 3.20104 9.07051C3.13246 8.10278 3.4317 7.20787 4.04334 6.5516C4.64887 5.90191 5.5001 5.54395 6.44057 5.54395C7.37542 5.54395 8.22476 5.90379 8.83311 6.55771C9.44851 7.21914 9.74916 8.11171 9.68011 9.07144C9.54387 10.9599 8.0904 12.4965 6.44057 12.4965ZM6.44057 7.04721C5.92195 7.04721 5.4611 7.23512 5.14307 7.57617C4.81423 7.92897 4.66109 8.40907 4.70055 8.96434C4.77806 10.0641 5.57526 10.9933 6.44057 10.9933C7.30448 10.9933 8.10121 10.0636 8.1806 8.9634C8.21959 8.42457 8.06034 7.93366 7.73244 7.58134C7.41159 7.23699 6.95309 7.04721 6.44057 7.04721Z" fill="#00ADE6"/>
<path d="M6.76985 19.073H1.49528C1.12322 19.073 0.779348 18.9062 0.55151 18.615C0.314746 18.3124 0.230187 17.9023 0.32555 17.5181C0.65157 16.2098 1.45769 15.126 2.65749 14.3828C3.71447 13.728 5.05848 13.3672 6.44101 13.3672C7.62624 13.3672 8.6353 13.5654 9.52552 13.9732C9.90274 14.1461 10.0686 14.5923 9.89569 14.9696C9.72282 15.3468 9.27654 15.5126 8.89931 15.3397C8.20969 15.0236 7.40545 14.87 6.44054 14.87C4.72541 14.87 2.55789 15.584 1.87579 17.5688H6.76985C7.18512 17.5688 7.52148 17.9052 7.52148 18.3204C7.52148 18.7357 7.18465 19.073 6.76985 19.073Z" fill="#00ADE6"/>
</svg>
