<svg width="16" height="16" viewBox="0 0 16 16" fill="none" xmlns="http://www.w3.org/2000/svg">
<path d="M13.2702 8.66461C13.6373 8.66461 13.9349 8.36702 13.9349 7.99993C13.9349 7.63283 13.6373 7.33525 13.2702 7.33524L8.6646 7.33524L8.6646 2.72962C8.6646 2.36253 8.36702 2.06494 7.99992 2.06494C7.63283 2.06494 7.33524 2.36253 7.33524 2.72962L7.33524 7.33524L2.72962 7.33524C2.36253 7.33524 2.06494 7.63283 2.06494 7.99992C2.06494 8.36702 2.36253 8.6646 2.72962 8.6646L7.33524 8.66461V13.2702C7.33524 13.6373 7.63283 13.9349 7.99992 13.9349C8.36702 13.9349 8.66461 13.6373 8.66461 13.2702L8.6646 8.66461L13.2702 8.66461Z" fill="white"/>
</svg>
