<svg width="16" height="16" viewBox="0 0 16 16" fill="none" xmlns="http://www.w3.org/2000/svg">
<path d="M8.00004 7.3335C8.8841 7.3335 9.73194 7.68469 10.3571 8.30981C10.9822 8.93493 11.3334 9.78277 11.3334 10.6668V14.6668H10V10.6668C10.0001 10.1567 9.80516 9.66582 9.45518 9.29466C9.10521 8.92349 8.62664 8.70009 8.11737 8.67016L8.00004 8.66683C7.4899 8.6668 6.99903 8.86171 6.62787 9.21169C6.2567 9.56166 6.0333 10.0402 6.00337 10.5495L6.00004 10.6668V14.6668H4.66671V10.6668C4.66671 9.78277 5.0179 8.93493 5.64302 8.30981C6.26814 7.68469 7.11599 7.3335 8.00004 7.3335ZM3.66671 9.3335C3.85271 9.3335 4.03337 9.3555 4.20671 9.39616C4.09272 9.7355 4.02522 10.0887 4.00604 10.4462L4.00004 10.6668V10.7242C3.92341 10.6967 3.8437 10.6788 3.76271 10.6708L3.66671 10.6668C3.41812 10.6668 3.17845 10.7594 2.99443 10.9266C2.81041 11.0937 2.69524 11.3234 2.67137 11.5708L2.66671 11.6668V14.6668H1.33337V11.6668C1.33337 11.048 1.57921 10.4545 2.01679 10.0169C2.45438 9.57933 3.04787 9.3335 3.66671 9.3335ZM12.3334 9.3335C12.9522 9.3335 13.5457 9.57933 13.9833 10.0169C14.4209 10.4545 14.6667 11.048 14.6667 11.6668V14.6668H13.3334V11.6668C13.3334 11.4182 13.2408 11.1786 13.0736 10.9946C12.9065 10.8105 12.6768 10.6954 12.4294 10.6715L12.3334 10.6668C12.2167 10.6668 12.1047 10.6868 12 10.7235V10.6668C12 10.2228 11.928 9.79616 11.794 9.3975C11.9667 9.3555 12.1474 9.3335 12.3334 9.3335ZM3.66671 5.3335C4.10873 5.3335 4.53266 5.50909 4.84522 5.82165C5.15778 6.13421 5.33337 6.55814 5.33337 7.00016C5.33337 7.44219 5.15778 7.86611 4.84522 8.17867C4.53266 8.49123 4.10873 8.66683 3.66671 8.66683C3.22468 8.66683 2.80076 8.49123 2.4882 8.17867C2.17564 7.86611 2.00004 7.44219 2.00004 7.00016C2.00004 6.55814 2.17564 6.13421 2.4882 5.82165C2.80076 5.50909 3.22468 5.3335 3.66671 5.3335ZM12.3334 5.3335C12.7754 5.3335 13.1993 5.50909 13.5119 5.82165C13.8244 6.13421 14 6.55814 14 7.00016C14 7.44219 13.8244 7.86611 13.5119 8.17867C13.1993 8.49123 12.7754 8.66683 12.3334 8.66683C11.8913 8.66683 11.4674 8.49123 11.1549 8.17867C10.8423 7.86611 10.6667 7.44219 10.6667 7.00016C10.6667 6.55814 10.8423 6.13421 11.1549 5.82165C11.4674 5.50909 11.8913 5.3335 12.3334 5.3335ZM3.66671 6.66683C3.5783 6.66683 3.49352 6.70195 3.43101 6.76446C3.36849 6.82697 3.33337 6.91176 3.33337 7.00016C3.33337 7.08857 3.36849 7.17335 3.43101 7.23587C3.49352 7.29838 3.5783 7.3335 3.66671 7.3335C3.75511 7.3335 3.8399 7.29838 3.90241 7.23587C3.96492 7.17335 4.00004 7.08857 4.00004 7.00016C4.00004 6.91176 3.96492 6.82697 3.90241 6.76446C3.8399 6.70195 3.75511 6.66683 3.66671 6.66683ZM12.3334 6.66683C12.245 6.66683 12.1602 6.70195 12.0977 6.76446C12.0352 6.82697 12 6.91176 12 7.00016C12 7.08857 12.0352 7.17335 12.0977 7.23587C12.1602 7.29838 12.245 7.3335 12.3334 7.3335C12.4218 7.3335 12.5066 7.29838 12.5691 7.23587C12.6316 7.17335 12.6667 7.08857 12.6667 7.00016C12.6667 6.91176 12.6316 6.82697 12.5691 6.76446C12.5066 6.70195 12.4218 6.66683 12.3334 6.66683ZM8.00004 1.3335C8.70728 1.3335 9.38556 1.61445 9.88566 2.11454C10.3858 2.61464 10.6667 3.29292 10.6667 4.00016C10.6667 4.70741 10.3858 5.38568 9.88566 5.88578C9.38556 6.38588 8.70728 6.66683 8.00004 6.66683C7.2928 6.66683 6.61452 6.38588 6.11442 5.88578C5.61433 5.38568 5.33337 4.70741 5.33337 4.00016C5.33337 3.29292 5.61433 2.61464 6.11442 2.11454C6.61452 1.61445 7.2928 1.3335 8.00004 1.3335ZM8.00004 2.66683C7.64642 2.66683 7.30728 2.80731 7.05723 3.05735C6.80718 3.3074 6.66671 3.64654 6.66671 4.00016C6.66671 4.35378 6.80718 4.69292 7.05723 4.94297C7.30728 5.19302 7.64642 5.3335 8.00004 5.3335C8.35366 5.3335 8.6928 5.19302 8.94285 4.94297C9.1929 4.69292 9.33337 4.35378 9.33337 4.00016C9.33337 3.64654 9.1929 3.3074 8.94285 3.05735C8.6928 2.80731 8.35366 2.66683 8.00004 2.66683Z" fill="#757575"/>
</svg>
