<svg width="16" height="16" viewBox="0 0 16 16" fill="none" xmlns="http://www.w3.org/2000/svg">
<path d="M11.3332 6.11281C11.2083 5.98864 11.0393 5.91895 10.8632 5.91895C10.6871 5.91895 10.5181 5.98864 10.3932 6.11281L7.99988 8.47281L5.63988 6.11281C5.51498 5.98864 5.34601 5.91895 5.16988 5.91895C4.99376 5.91895 4.82479 5.98864 4.69988 6.11281C4.6374 6.17478 4.5878 6.24852 4.55396 6.32976C4.52011 6.411 4.50269 6.49813 4.50269 6.58614C4.50269 6.67415 4.52011 6.76129 4.55396 6.84252C4.5878 6.92376 4.6374 6.9975 4.69988 7.05947L7.52655 9.88614C7.58853 9.94863 7.66226 9.99822 7.7435 10.0321C7.82474 10.0659 7.91188 10.0833 7.99988 10.0833C8.08789 10.0833 8.17503 10.0659 8.25627 10.0321C8.33751 9.99822 8.41124 9.94863 8.47322 9.88614L11.3332 7.05947C11.3957 6.9975 11.4453 6.92376 11.4791 6.84252C11.513 6.76129 11.5304 6.67415 11.5304 6.58614C11.5304 6.49813 11.513 6.411 11.4791 6.32976C11.4453 6.24852 11.3957 6.17478 11.3332 6.11281Z" fill="#757575"/>
</svg>
