<svg width="14" height="14" viewBox="0 0 14 14" fill="none" xmlns="http://www.w3.org/2000/svg">
<path d="M0.52002 1.81142C0.521205 1.64124 0.589289 1.47837 0.709564 1.35797C0.829838 1.23757 0.992648 1.16933 1.16282 1.16797H12.8369C13.192 1.16797 13.4797 1.45632 13.4797 1.81142V12.1883C13.4786 12.3584 13.4105 12.5213 13.2902 12.6417C13.1699 12.7621 13.0071 12.8304 12.8369 12.8317H1.16282C0.992281 12.8315 0.828783 12.7637 0.708253 12.643C0.587722 12.5224 0.520019 12.3588 0.52002 12.1883V1.81142ZM6.35189 2.46394H1.81599V11.5357H6.35189V2.46394ZM7.64787 2.46394V11.5357H12.1838V2.46394H7.64787ZM8.29585 3.75991H11.5358V5.05589H8.29585V3.75991ZM8.29585 5.70387H11.5358V6.99984H8.29585V5.70387Z" fill="#BDBDBD"/>
</svg>
