<svg width="16" height="16" viewBox="0 0 16 16" fill="none" xmlns="http://www.w3.org/2000/svg">
<path d="M9.06046 7.99935L12.0292 5.0306C12.1701 4.88995 12.2494 4.69909 12.2495 4.50001C12.2497 4.30093 12.1708 4.10993 12.0301 3.96904C11.8895 3.82814 11.6986 3.74889 11.4996 3.74871C11.3005 3.74853 11.1095 3.82745 10.9686 3.9681L7.99984 6.93685L5.03109 3.9681C4.89019 3.8272 4.69909 3.74805 4.49984 3.74805C4.30058 3.74805 4.10948 3.8272 3.96859 3.9681C3.82769 4.10899 3.74854 4.30009 3.74854 4.49935C3.74854 4.69861 3.82769 4.8897 3.96859 5.0306L6.93734 7.99935L3.96859 10.9681C3.82769 11.109 3.74854 11.3001 3.74854 11.4993C3.74854 11.6986 3.82769 11.8897 3.96859 12.0306C4.10948 12.1715 4.30058 12.2506 4.49984 12.2506C4.69909 12.2506 4.89019 12.1715 5.03109 12.0306L7.99984 9.06185L10.9686 12.0306C11.1095 12.1715 11.3006 12.2506 11.4998 12.2506C11.6991 12.2506 11.8902 12.1715 12.0311 12.0306C12.172 11.8897 12.2511 11.6986 12.2511 11.4993C12.2511 11.3001 12.172 11.109 12.0311 10.9681L9.06046 7.99935Z" fill="#8C61CB"/>
</svg>
