<svg width="36" height="36" viewBox="0 0 36 36" fill="none" xmlns="http://www.w3.org/2000/svg">
<path d="M0 8C0 3.58172 3.58172 0 8 0H28C32.4183 0 36 3.58172 36 8V28C36 32.4183 32.4183 36 28 36H8C3.58172 36 0 32.4183 0 28V8Z" fill="#FAF7FF"/>
<path d="M25.5 20.5C25.5 20.942 25.3244 21.366 25.0118 21.6785C24.6993 21.9911 24.2754 22.1667 23.8333 22.1667H13.8333L10.5 25.5V12.1667C10.5 11.7246 10.6756 11.3007 10.9882 10.9882C11.3007 10.6756 11.7246 10.5 12.1667 10.5H23.8333C24.2754 10.5 24.6993 10.6756 25.0118 10.9882C25.3244 11.3007 25.5 11.7246 25.5 12.1667V20.5Z" stroke="#8C61CB" stroke-width="2" stroke-linecap="round" stroke-linejoin="round"/>
<path d="M8 1H28V-1H8V1ZM35 8V28H37V8H35ZM28 35H8V37H28V35ZM1 28V8H-1V28H1ZM8 35C4.13401 35 1 31.866 1 28H-1C-1 32.9706 3.02944 37 8 37V35ZM35 28C35 31.866 31.866 35 28 35V37C32.9706 37 37 32.9706 37 28H35ZM28 1C31.866 1 35 4.13401 35 8H37C37 3.02944 32.9706 -1 28 -1V1ZM8 -1C3.02944 -1 -1 3.02944 -1 8H1C1 4.13401 4.13401 1 8 1V-1Z" fill="#EEEEEE"/>
</svg>
