<svg width="36" height="36" viewBox="0 0 36 36" fill="none" xmlns="http://www.w3.org/2000/svg">
<path d="M0 8C0 3.58172 3.58172 0 8 0H28C32.4183 0 36 3.58172 36 8V28C36 32.4183 32.4183 36 28 36H8C3.58172 36 0 32.4183 0 28V8Z" fill="#FAF7FF"/>
<path fill-rule="evenodd" clip-rule="evenodd" d="M13 16.75C12.3096 16.75 11.75 17.3096 11.75 18C11.75 18.6904 12.3096 19.25 13 19.25C13.6904 19.25 14.25 18.6904 14.25 18C14.25 17.3096 13.6904 16.75 13 16.75ZM10.5 18C10.5 16.6193 11.6193 15.5 13 15.5C14.3807 15.5 15.5 16.6193 15.5 18C15.5 19.3807 14.3807 20.5 13 20.5C11.6193 20.5 10.5 19.3807 10.5 18Z" fill="#8C61CB"/>
<path fill-rule="evenodd" clip-rule="evenodd" d="M23 11.125C22.3096 11.125 21.75 11.6846 21.75 12.375C21.75 13.0654 22.3096 13.625 23 13.625C23.6904 13.625 24.25 13.0654 24.25 12.375C24.25 11.6846 23.6904 11.125 23 11.125ZM20.5 12.375C20.5 10.9943 21.6193 9.875 23 9.875C24.3807 9.875 25.5 10.9943 25.5 12.375C25.5 13.7557 24.3807 14.875 23 14.875C21.6193 14.875 20.5 13.7557 20.5 12.375Z" fill="#8C61CB"/>
<path fill-rule="evenodd" clip-rule="evenodd" d="M23 22.375C22.3096 22.375 21.75 22.9346 21.75 23.625C21.75 24.3154 22.3096 24.875 23 24.875C23.6904 24.875 24.25 24.3154 24.25 23.625C24.25 22.9346 23.6904 22.375 23 22.375ZM20.5 23.625C20.5 22.2443 21.6193 21.125 23 21.125C24.3807 21.125 25.5 22.2443 25.5 23.625C25.5 25.0057 24.3807 26.125 23 26.125C21.6193 26.125 20.5 25.0057 20.5 23.625Z" fill="#8C61CB"/>
<path fill-rule="evenodd" clip-rule="evenodd" d="M14.0892 18.6126C14.2584 18.3118 14.6395 18.2051 14.9403 18.3743L21.6723 22.161C21.9732 22.3303 22.0799 22.7113 21.9107 23.0122C21.7414 23.313 21.3604 23.4197 21.0595 23.2505L14.3275 19.4638C14.0266 19.2946 13.9199 18.9135 14.0892 18.6126Z" fill="#8C61CB"/>
<path fill-rule="evenodd" clip-rule="evenodd" d="M21.9107 12.9876C22.0799 13.2885 21.9732 13.6696 21.6723 13.8388L14.9403 17.6255C14.6395 17.7947 14.2584 17.688 14.0892 17.3872C13.9199 17.0863 14.0266 16.7053 14.3275 16.536L21.0595 12.7493C21.3604 12.5801 21.7414 12.6868 21.9107 12.9876Z" fill="#8C61CB"/>
<path d="M8 1H28V-1H8V1ZM35 8V28H37V8H35ZM28 35H8V37H28V35ZM1 28V8H-1V28H1ZM8 35C4.13401 35 1 31.866 1 28H-1C-1 32.9706 3.02944 37 8 37V35ZM35 28C35 31.866 31.866 35 28 35V37C32.9706 37 37 32.9706 37 28H35ZM28 1C31.866 1 35 4.13401 35 8H37C37 3.02944 32.9706 -1 28 -1V1ZM8 -1C3.02944 -1 -1 3.02944 -1 8H1C1 4.13401 4.13401 1 8 1V-1Z" fill="#EEEEEE"/>
</svg>
