<svg width="16" height="17" viewBox="0 0 16 17" fill="none" xmlns="http://www.w3.org/2000/svg">
<path d="M4.3035 13.3405L1.3335 15.6738V3.34049C1.3335 3.16368 1.40373 2.99411 1.52876 2.86909C1.65378 2.74407 1.82335 2.67383 2.00016 2.67383H14.0002C14.177 2.67383 14.3465 2.74407 14.4716 2.86909C14.5966 2.99411 14.6668 3.16368 14.6668 3.34049V12.6738C14.6668 12.8506 14.5966 13.0202 14.4716 13.1452C14.3465 13.2703 14.177 13.3405 14.0002 13.3405H4.3035ZM3.84216 12.0072H13.3335V4.00716H2.66683V12.9305L3.84216 12.0072ZM7.3335 7.34049H8.66683V8.67383H7.3335V7.34049ZM4.66683 7.34049H6.00016V8.67383H4.66683V7.34049ZM10.0002 7.34049H11.3335V8.67383H10.0002V7.34049Z" fill="white"/>
</svg>
