<svg width="17" height="17" viewBox="0 0 17 17" fill="none" xmlns="http://www.w3.org/2000/svg">
<g clip-path="url(#clip0_433_15743)">
<path d="M10.0097 1.44434H4.67635C4.32273 1.44434 3.98359 1.58481 3.73354 1.83486C3.48349 2.08491 3.34302 2.42405 3.34302 2.77767V13.4443C3.34302 13.798 3.48349 14.1371 3.73354 14.3871C3.98359 14.6372 4.32273 14.7777 4.67635 14.7777H12.6764C13.03 14.7777 13.3691 14.6372 13.6192 14.3871C13.8692 14.1371 14.0097 13.798 14.0097 13.4443V5.44434L10.0097 1.44434Z" stroke="#BDBDBD" stroke-linecap="round" stroke-linejoin="round"/>
<path d="M10.0095 1.44434V5.44434H14.0095" stroke="#BDBDBD" stroke-linecap="round" stroke-linejoin="round"/>
<path d="M11.3429 8.77832H6.00952" stroke="#BDBDBD" stroke-linecap="round" stroke-linejoin="round"/>
<path d="M11.3429 11.4443H6.00952" stroke="#BDBDBD" stroke-linecap="round" stroke-linejoin="round"/>
<path d="M7.34285 6.11133H6.67619H6.00952" stroke="#BDBDBD" stroke-linecap="round" stroke-linejoin="round"/>
</g>
<defs>
<clipPath id="clip0_433_15743">
<rect width="16" height="16" fill="white" transform="translate(0.67627 0.111328)"/>
</clipPath>
</defs>
</svg>
