<svg width="16" height="17" viewBox="0 0 16 17" fill="none" xmlns="http://www.w3.org/2000/svg">
<path d="M4.66667 4.66178V2.66178C4.66667 2.48497 4.7369 2.3154 4.86193 2.19038C4.98695 2.06536 5.15652 1.99512 5.33333 1.99512H13.3333C13.5101 1.99512 13.6797 2.06536 13.8047 2.19038C13.9298 2.3154 14 2.48497 14 2.66178V11.9951C14 12.1719 13.9298 12.3415 13.8047 12.4665C13.6797 12.5915 13.5101 12.6618 13.3333 12.6618H11.3333V14.6618C11.3333 15.0298 11.0333 15.3285 10.662 15.3285H2.67133C2.58342 15.329 2.49626 15.3121 2.41488 15.2789C2.3335 15.2456 2.25949 15.1966 2.19711 15.1346C2.13472 15.0727 2.0852 14.999 2.05137 14.9179C2.01754 14.8367 2.00009 14.7497 2 14.6618L2.002 5.32845C2.002 4.96045 2.302 4.66178 2.67333 4.66178H4.66667ZM3.33533 5.99512L3.33333 13.9951H10V5.99512H3.33533ZM6 4.66178H11.3333V11.3285H12.6667V3.32845H6V4.66178Z" fill="#8C61CB"/>
</svg>
