<svg width="32" height="32" viewBox="0 0 32 32" fill="none" xmlns="http://www.w3.org/2000/svg">
<circle cx="16" cy="16" r="16" fill="#01AA93"/>
<path d="M21.4699 18.0187C21.4386 17.9062 21.5074 17.75 21.573 17.6375C21.5931 17.604 21.615 17.5717 21.6386 17.5406C22.2 16.7065 22.5002 15.7242 22.5011 14.7187C22.5105 11.8375 20.0792 9.5 17.073 9.5C14.4511 9.5 12.2636 11.2844 11.7511 13.6531C11.6745 14.0042 11.6357 14.3625 11.6355 14.7219C11.6355 17.6062 13.973 20.0062 16.9792 20.0062C17.4574 20.0062 18.1011 19.8625 18.4542 19.7656C18.8074 19.6687 19.1574 19.5406 19.248 19.5062C19.3409 19.4712 19.4393 19.4532 19.5386 19.4531C19.6469 19.4527 19.7543 19.474 19.8542 19.5156L21.6261 20.1437C21.665 20.1602 21.706 20.1707 21.748 20.175C21.8143 20.175 21.8779 20.1487 21.9248 20.1018C21.9717 20.0549 21.998 19.9913 21.998 19.925C21.9958 19.8964 21.9906 19.8681 21.9824 19.8406L21.4699 18.0187Z" stroke="white" stroke-miterlimit="10" stroke-linecap="round"/>
<path d="M10.0786 15.25C9.66874 15.9863 9.47047 16.8217 9.50571 17.6636C9.54095 18.5056 9.80833 19.3214 10.2783 20.0209C10.3505 20.13 10.3911 20.2144 10.3786 20.2709C10.3661 20.3275 10.0058 22.2044 10.0058 22.2044C9.99712 22.2483 10.0004 22.2937 10.0153 22.336C10.0302 22.3782 10.0562 22.4156 10.0905 22.4444C10.1363 22.4809 10.1932 22.5005 10.2517 22.5C10.283 22.5001 10.314 22.4937 10.3427 22.4812L12.0992 21.7937C12.2201 21.7461 12.355 21.7483 12.4742 21.8C13.0661 22.0306 13.7205 22.175 14.3752 22.175C15.2537 22.1759 16.1168 21.9442 16.8767 21.5034" stroke="white" stroke-miterlimit="10" stroke-linecap="round"/>
</svg>
