<svg width="32" height="32" viewBox="0 0 32 32" fill="none" xmlns="http://www.w3.org/2000/svg">
<circle cx="16" cy="16" r="16" fill="#01AA93"/>
<path d="M19.7127 16.6476L22.2974 18.4669C22.3735 18.5008 22.4569 18.5151 22.5399 18.5085C22.623 18.5019 22.7031 18.4747 22.7729 18.4293C22.8428 18.3839 22.9002 18.3218 22.9399 18.2486C22.9797 18.1754 23.0005 18.0934 23.0005 18.0101V11.9863C23.0005 11.903 22.9797 11.821 22.9399 11.7478C22.9002 11.6746 22.8428 11.6125 22.7729 11.5671C22.7031 11.5217 22.623 11.4945 22.5399 11.4879C22.4569 11.4813 22.3735 11.4956 22.2974 11.5294L19.7127 13.3488C19.6471 13.395 19.5936 13.4562 19.5567 13.5273C19.5198 13.5984 19.5005 13.6774 19.5005 13.7576V16.2388C19.5005 16.319 19.5198 16.3979 19.5567 16.4691C19.5936 16.5402 19.6471 16.6014 19.7127 16.6476V16.6476Z" stroke="white" stroke-linecap="round" stroke-linejoin="round"/>
<path d="M16.375 18.998H10.625C10.1944 18.9968 9.7818 18.8252 9.47732 18.5207C9.17284 18.2163 9.00124 17.8036 9 17.373V12.623C9.00124 12.1925 9.17284 11.7798 9.47732 11.4754C9.7818 11.1709 10.1944 10.9993 10.625 10.998H16.39C16.8166 10.9994 17.2253 11.1694 17.527 11.4711C17.8286 11.7727 17.9987 12.1815 18 12.608V17.373C17.9988 17.8036 17.8272 18.2163 17.5227 18.5207C17.2182 18.8252 16.8056 18.9968 16.375 18.998Z" stroke="white" stroke-miterlimit="10"/>
</svg>
