<svg width="219" height="110" viewBox="0 0 219 110" fill="none" xmlns="http://www.w3.org/2000/svg">
<path d="M110 55C110 85.3757 85.3757 110 55 110C24.6243 110 0 85.3757 0 55C0 24.6243 24.6243 0 55 0C85.3757 0 110 24.6243 110 55ZM11 55C11 79.3005 30.6995 99 55 99C79.3005 99 99 79.3005 99 55C99 30.6995 79.3005 11 55 11C30.6995 11 11 30.6995 11 55Z" fill="#EEEEEE"/>
<path d="M80.8789 12.8037C82.467 10.2143 85.8736 9.38147 88.2915 11.2201C96.2522 17.2735 102.441 25.4074 106.145 34.7716C110.525 45.8471 111.192 58.0452 108.045 69.5322C104.898 81.0192 98.1078 91.1742 88.6942 98.4707C79.2806 105.767 67.7529 109.811 55.844 109.994C43.9352 110.176 32.2888 106.488 22.6557 99.4843C13.0227 92.4801 5.92353 82.5382 2.42555 71.1532C-1.07243 59.7682 -0.78021 47.5554 3.25829 36.3507C6.67283 26.8772 12.6094 18.5573 20.3806 12.2624C22.7409 10.3504 26.1715 11.0783 27.8383 13.6177C29.5051 16.1572 28.7702 19.5426 26.4584 21.5129C20.6562 26.4583 16.213 32.8493 13.6066 40.0806C10.3758 49.0443 10.1421 58.8146 12.9404 67.9226C15.7388 77.0306 21.4181 84.9841 29.1246 90.5874C36.831 96.1907 46.1482 99.141 55.6752 98.9948C65.2023 98.8486 74.4245 95.6137 81.9553 89.7766C89.4862 83.9394 94.9188 75.8153 97.4363 66.6258C99.9539 57.4362 99.4204 47.6777 95.916 38.8173C93.089 31.6695 88.4517 25.4177 82.5005 20.6528C80.1293 18.7543 79.2909 15.393 80.8789 12.8037Z" fill="#FF5744"/>
<path d="M55 5.5C55 2.46243 57.4686 -0.0285107 60.491 0.274721C70.4418 1.27308 79.9702 4.97105 88.0231 11.0173C97.5476 18.1685 104.493 28.2182 107.816 39.6555C111.139 51.0928 110.659 63.2998 106.449 74.4411C102.239 85.5825 94.5266 95.0562 84.4705 101.438C74.4143 107.82 62.5583 110.765 50.6847 109.83C38.8112 108.896 27.5618 104.132 18.6278 96.2561C9.69383 88.3797 3.55799 77.8161 1.14274 66.1533C-0.899343 56.2924 -0.188384 46.0964 3.14515 36.6675C4.15765 33.8036 7.46259 32.6306 10.2111 33.9239C12.9595 35.2173 14.103 38.4873 13.1624 41.3756C10.8018 48.6247 10.3554 56.3957 11.9142 63.9226C13.8464 73.2529 18.7551 81.7038 25.9023 88.0049C33.0495 94.306 42.049 98.1168 51.5478 98.8644C61.0466 99.6119 70.5314 97.2559 78.5764 92.1504C86.6213 87.045 92.7916 79.466 96.1595 70.5529C99.5275 61.6398 99.9112 51.8743 97.2529 42.7244C94.5946 33.5745 89.038 25.5348 81.4185 19.8139C75.2716 15.1987 68.0502 12.2938 60.4859 11.3433C57.472 10.9646 55 8.53757 55 5.5Z" fill="#01AA93"/>
<g clip-path="url(#clip0_433_15744)">
<path d="M56.7113 42.3287V44.1807C55.937 43.8971 55.1082 43.8101 54.2947 43.927C53.4812 44.0439 52.7066 44.3613 52.0361 44.8525C51.3655 45.3437 50.8185 45.9944 50.4411 46.7499C50.0636 47.5054 49.8667 48.3436 49.8669 49.1943L48.1558 49.1934C48.1555 48.1113 48.3944 47.0436 48.8542 46.072C49.3139 45.1003 49.9823 44.2506 50.8082 43.5879C51.634 42.9252 52.5954 42.467 53.6186 42.2486C54.6418 42.0302 55.6998 42.0573 56.7113 42.3278V42.3287ZM55.0002 41.2193C52.164 41.2193 49.8669 38.8401 49.8669 35.9026C49.8669 32.9651 52.164 30.5859 55.0002 30.5859C57.8364 30.5859 60.1335 32.9651 60.1335 35.9026C60.1335 38.8401 57.8364 41.2193 55.0002 41.2193ZM55.0002 39.447C56.891 39.447 58.4224 37.8609 58.4224 35.9026C58.4224 33.9443 56.891 32.3582 55.0002 32.3582C53.1094 32.3582 51.578 33.9443 51.578 35.9026C51.578 37.8609 53.1094 39.447 55.0002 39.447ZM59.9564 47.3458L62.9808 44.2134L64.1914 45.4664L59.9564 49.8527L56.9312 46.7194L58.1418 45.4664L59.9556 47.3458H59.9564Z" fill="#9E9E9E"/>
</g>
<path d="M45.2559 72.1458C44.4816 72.1458 43.7941 72.0156 43.1934 71.7552C42.5962 71.4948 42.1275 71.1389 41.7872 70.6875C41.4504 70.2326 41.2837 69.717 41.2872 69.1406C41.2837 68.6927 41.3809 68.2812 41.5788 67.9062C41.7768 67.5312 42.0441 67.2187 42.3809 66.9687C42.7212 66.7153 43.0997 66.5538 43.5163 66.4844V66.4115C42.9677 66.2899 42.5233 66.0104 42.183 65.5729C41.8462 65.1319 41.6795 64.6233 41.683 64.0469C41.6795 63.4983 41.8323 63.0087 42.1413 62.5781C42.4504 62.1476 42.874 61.809 43.4122 61.5625C43.9504 61.3125 44.565 61.1875 45.2559 61.1875C45.94 61.1875 46.5493 61.3125 47.084 61.5625C47.6222 61.809 48.0459 62.1476 48.3549 62.5781C48.6674 63.0087 48.8236 63.4983 48.8236 64.0469C48.8236 64.6233 48.6518 65.1319 48.308 65.5729C47.9677 66.0104 47.5285 66.2899 46.9903 66.4115V66.4844C47.407 66.5538 47.782 66.7153 48.1153 66.9687C48.4521 67.2187 48.7195 67.5312 48.9174 67.9062C49.1188 68.2812 49.2195 68.6927 49.2195 69.1406C49.2195 69.717 49.0493 70.2326 48.709 70.6875C48.3688 71.1389 47.9 71.4948 47.3028 71.7552C46.709 72.0156 46.0268 72.1458 45.2559 72.1458ZM45.2559 70.6562C45.6552 70.6562 46.0025 70.5885 46.2976 70.4531C46.5927 70.3142 46.8219 70.1198 46.9851 69.8698C47.1483 69.6198 47.2316 69.3316 47.2351 69.0052C47.2316 68.6649 47.1431 68.3646 46.9695 68.1042C46.7993 67.8403 46.565 67.6337 46.2663 67.4844C45.9712 67.3351 45.6344 67.2604 45.2559 67.2604C44.874 67.2604 44.5337 67.3351 44.2351 67.4844C43.9365 67.6337 43.7004 67.8403 43.5268 68.1042C43.3566 68.3646 43.2733 68.6649 43.2768 69.0052C43.2733 69.3316 43.3531 69.6198 43.5163 69.8698C43.6795 70.1163 43.9087 70.309 44.2038 70.4479C44.5025 70.5868 44.8531 70.6562 45.2559 70.6562ZM45.2559 65.7969C45.5823 65.7969 45.8705 65.7309 46.1205 65.599C46.374 65.467 46.5736 65.283 46.7195 65.0469C46.8653 64.8108 46.94 64.5382 46.9434 64.2292C46.94 63.9236 46.867 63.6562 46.7247 63.4271C46.5823 63.1944 46.3844 63.0156 46.1309 62.8906C45.8775 62.7622 45.5858 62.6979 45.2559 62.6979C44.9191 62.6979 44.6222 62.7622 44.3653 62.8906C44.1118 63.0156 43.9139 63.1944 43.7715 63.4271C43.6327 63.6562 43.565 63.9236 43.5684 64.2292C43.565 64.5382 43.6344 64.8108 43.7768 65.0469C43.9226 65.2795 44.1222 65.4635 44.3757 65.599C44.6327 65.7309 44.9261 65.7969 45.2559 65.7969ZM54.8744 72.2031C54.0168 72.2031 53.2807 71.9861 52.6661 71.5521C52.055 71.1146 51.5845 70.4844 51.2546 69.6615C50.9282 68.8351 50.765 67.8403 50.765 66.6771C50.7685 65.5139 50.9334 64.5243 51.2598 63.7083C51.5897 62.8889 52.0602 62.2639 52.6713 61.8333C53.2859 61.4028 54.0202 61.1875 54.8744 61.1875C55.7286 61.1875 56.463 61.4028 57.0775 61.8333C57.6921 62.2639 58.1626 62.8889 58.489 63.7083C58.8189 64.5278 58.9838 65.5174 58.9838 66.6771C58.9838 67.8437 58.8189 68.8403 58.489 69.6667C58.1626 70.4896 57.6921 71.1181 57.0775 71.5521C56.4664 71.9861 55.7321 72.2031 54.8744 72.2031ZM54.8744 70.5729C55.5411 70.5729 56.0671 70.2448 56.4525 69.5885C56.8414 68.9288 57.0359 67.9583 57.0359 66.6771C57.0359 65.8299 56.9473 65.1181 56.7702 64.5417C56.5932 63.9653 56.3432 63.5312 56.0202 63.2396C55.6973 62.9444 55.3154 62.7969 54.8744 62.7969C54.2112 62.7969 53.6869 63.1267 53.3015 63.7865C52.9161 64.4427 52.7216 65.4062 52.7182 66.6771C52.7147 67.5278 52.7998 68.2431 52.9734 68.8229C53.1505 69.4028 53.4005 69.8403 53.7234 70.1354C54.0463 70.4271 54.43 70.5729 54.8744 70.5729ZM65.0413 70.4V69.95C65.0413 69.6278 65.108 69.3333 65.2413 69.0667C65.3775 68.7972 65.5747 68.5819 65.833 68.4208C66.0941 68.2569 66.4094 68.175 66.7788 68.175C67.1566 68.175 67.4733 68.2556 67.7288 68.4167C67.9844 68.5778 68.1775 68.7931 68.308 69.0625C68.4413 69.3319 68.508 69.6278 68.508 69.95V70.4C68.508 70.7222 68.4413 71.0181 68.308 71.2875C68.1747 71.5542 67.9788 71.7694 67.7205 71.9333C67.465 72.0944 67.1511 72.175 66.7788 72.175C66.4038 72.175 66.0872 72.0944 65.8288 71.9333C65.5705 71.7694 65.3747 71.5542 65.2413 71.2875C65.108 71.0181 65.0413 70.7222 65.0413 70.4ZM66.0122 69.95V70.4C66.0122 70.6389 66.0691 70.8556 66.183 71.05C66.2969 71.2444 66.4955 71.3417 66.7788 71.3417C67.0594 71.3417 67.2552 71.2444 67.3663 71.05C67.4775 70.8556 67.533 70.6389 67.533 70.4V69.95C67.533 69.7111 67.4788 69.4944 67.3705 69.3C67.265 69.1056 67.0677 69.0083 66.7788 69.0083C66.5011 69.0083 66.3038 69.1056 66.1872 69.3C66.0705 69.4944 66.0122 69.7111 66.0122 69.95ZM60.7497 65.5167V65.0667C60.7497 64.7444 60.8163 64.4486 60.9497 64.1792C61.0858 63.9097 61.283 63.6944 61.5413 63.5333C61.8025 63.3722 62.1177 63.2917 62.4872 63.2917C62.865 63.2917 63.1816 63.3722 63.4372 63.5333C63.6927 63.6944 63.8858 63.9097 64.0163 64.1792C64.1469 64.4486 64.2122 64.7444 64.2122 65.0667V65.5167C64.2122 65.8389 64.1455 66.1347 64.0122 66.4042C63.8816 66.6708 63.6872 66.8861 63.4288 67.05C63.1733 67.2111 62.8594 67.2917 62.4872 67.2917C62.1094 67.2917 61.7913 67.2111 61.533 67.05C61.2775 66.8861 61.083 66.6708 60.9497 66.4042C60.8163 66.1347 60.7497 65.8389 60.7497 65.5167ZM61.7247 65.0667V65.5167C61.7247 65.7556 61.7802 65.9722 61.8913 66.1667C62.0052 66.3611 62.2038 66.4583 62.4872 66.4583C62.765 66.4583 62.9594 66.3611 63.0705 66.1667C63.1844 65.9722 63.2413 65.7556 63.2413 65.5167V65.0667C63.2413 64.8278 63.1872 64.6111 63.0788 64.4167C62.9705 64.2222 62.7733 64.125 62.4872 64.125C62.2094 64.125 62.0122 64.2222 61.8955 64.4167C61.7816 64.6111 61.7247 64.8278 61.7247 65.0667ZM61.1455 72L67.0122 63.4667H68.008L62.1413 72H61.1455Z" fill="#424242"/>
<circle cx="142" cy="27" r="7" fill="#01AA93"/>
<path d="M162.733 26H161.852C161.8 25.7467 161.709 25.5241 161.579 25.3324C161.451 25.1406 161.295 24.9796 161.11 24.8494C160.928 24.7169 160.725 24.6174 160.503 24.5511C160.28 24.4848 160.048 24.4517 159.807 24.4517C159.366 24.4517 158.968 24.563 158.61 24.7855C158.255 25.008 157.972 25.3359 157.761 25.7692C157.553 26.2024 157.449 26.7339 157.449 27.3636C157.449 27.9934 157.553 28.5249 157.761 28.9581C157.972 29.3913 158.255 29.7192 158.61 29.9418C158.968 30.1643 159.366 30.2756 159.807 30.2756C160.048 30.2756 160.28 30.2424 160.503 30.1761C160.725 30.1098 160.928 30.0116 161.11 29.8814C161.295 29.7488 161.451 29.5866 161.579 29.3949C161.709 29.2008 161.8 28.9782 161.852 28.7273H162.733C162.667 29.099 162.546 29.4316 162.371 29.7251C162.196 30.0187 161.978 30.2685 161.717 30.4744C161.457 30.678 161.165 30.8331 160.84 30.9396C160.518 31.0462 160.174 31.0994 159.807 31.0994C159.187 31.0994 158.635 30.9479 158.152 30.6449C157.669 30.3419 157.289 29.911 157.012 29.3523C156.735 28.7936 156.597 28.1307 156.597 27.3636C156.597 26.5966 156.735 25.9337 157.012 25.375C157.289 24.8163 157.669 24.3854 158.152 24.0824C158.635 23.7794 159.187 23.6278 159.807 23.6278C160.174 23.6278 160.518 23.6811 160.84 23.7876C161.165 23.8942 161.457 24.0504 161.717 24.2564C161.978 24.46 162.196 24.7086 162.371 25.0021C162.546 25.2933 162.667 25.6259 162.733 26ZM166.258 31.1136C165.766 31.1136 165.334 30.9964 164.962 30.7621C164.593 30.5277 164.304 30.1998 164.096 29.7784C163.89 29.357 163.787 28.8646 163.787 28.3011C163.787 27.733 163.89 27.237 164.096 26.8132C164.304 26.3894 164.593 26.0604 164.962 25.826C165.334 25.5916 165.766 25.4744 166.258 25.4744C166.751 25.4744 167.182 25.5916 167.551 25.826C167.923 26.0604 168.211 26.3894 168.417 26.8132C168.626 27.237 168.73 27.733 168.73 28.3011C168.73 28.8646 168.626 29.357 168.417 29.7784C168.211 30.1998 167.923 30.5277 167.551 30.7621C167.182 30.9964 166.751 31.1136 166.258 31.1136ZM166.258 30.3608C166.632 30.3608 166.94 30.2649 167.182 30.0732C167.423 29.8814 167.602 29.6293 167.718 29.3168C167.834 29.0043 167.892 28.6657 167.892 28.3011C167.892 27.9366 167.834 27.5968 167.718 27.282C167.602 26.9671 167.423 26.7126 167.182 26.5185C166.94 26.3243 166.632 26.2273 166.258 26.2273C165.884 26.2273 165.577 26.3243 165.335 26.5185C165.094 26.7126 164.915 26.9671 164.799 27.282C164.683 27.5968 164.625 27.9366 164.625 28.3011C164.625 28.6657 164.683 29.0043 164.799 29.3168C164.915 29.6293 165.094 29.8814 165.335 30.0732C165.577 30.2649 165.884 30.3608 166.258 30.3608ZM170.009 31V25.5455H170.819V26.3977H170.89C171.004 26.1065 171.187 25.8804 171.44 25.7195C171.694 25.5561 171.998 25.4744 172.353 25.4744C172.713 25.4744 173.012 25.5561 173.251 25.7195C173.493 25.8804 173.681 26.1065 173.816 26.3977H173.873C174.013 26.116 174.222 25.8923 174.501 25.7266C174.781 25.5585 175.116 25.4744 175.506 25.4744C175.994 25.4744 176.393 25.6271 176.703 25.9325C177.013 26.2356 177.168 26.7079 177.168 27.3494V31H176.33V27.3494C176.33 26.947 176.22 26.6593 176 26.4865C175.78 26.3137 175.521 26.2273 175.222 26.2273C174.839 26.2273 174.542 26.3433 174.331 26.5753C174.12 26.8049 174.015 27.0961 174.015 27.4489V31H173.163V27.2642C173.163 26.9541 173.062 26.7043 172.861 26.5149C172.66 26.3232 172.4 26.2273 172.083 26.2273C171.865 26.2273 171.662 26.2853 171.472 26.4013C171.285 26.5173 171.134 26.6783 171.018 26.8842C170.904 27.0878 170.847 27.3234 170.847 27.5909V31H170.009ZM178.701 33.0455V25.5455H179.51V26.4119H179.61C179.671 26.3172 179.757 26.1965 179.865 26.0497C179.977 25.9006 180.135 25.768 180.341 25.652C180.55 25.5336 180.831 25.4744 181.186 25.4744C181.646 25.4744 182.051 25.5893 182.401 25.8189C182.751 26.0485 183.025 26.3741 183.221 26.7955C183.418 27.2169 183.516 27.714 183.516 28.2869C183.516 28.8646 183.418 29.3653 183.221 29.7891C183.025 30.2105 182.752 30.5372 182.404 30.7692C182.056 30.9988 181.655 31.1136 181.201 31.1136C180.85 31.1136 180.57 31.0556 180.359 30.9396C180.148 30.8213 179.986 30.6875 179.873 30.5384C179.759 30.3868 179.671 30.2614 179.61 30.1619H179.539V33.0455H178.701ZM179.525 28.2727C179.525 28.6847 179.585 29.0481 179.706 29.3629C179.826 29.6754 180.003 29.9205 180.235 30.098C180.467 30.2732 180.751 30.3608 181.087 30.3608C181.437 30.3608 181.73 30.2685 181.964 30.0838C182.201 29.8968 182.378 29.6458 182.497 29.331C182.618 29.0137 182.678 28.661 182.678 28.2727C182.678 27.8892 182.619 27.5436 182.5 27.2358C182.384 26.9257 182.208 26.6806 181.971 26.5007C181.737 26.3184 181.442 26.2273 181.087 26.2273C180.746 26.2273 180.46 26.3137 180.228 26.4865C179.996 26.657 179.82 26.8961 179.702 27.2038C179.584 27.5092 179.525 27.8655 179.525 28.2727ZM185.632 23.7273V31H184.794V23.7273H185.632ZM189.454 31.1136C188.929 31.1136 188.475 30.9976 188.094 30.7656C187.715 30.5312 187.423 30.2045 187.217 29.7855C187.014 29.3641 186.912 28.8741 186.912 28.3153C186.912 27.7566 187.014 27.2642 187.217 26.8381C187.423 26.4096 187.71 26.0758 188.077 25.8366C188.446 25.5952 188.877 25.4744 189.369 25.4744C189.653 25.4744 189.934 25.5218 190.211 25.6165C190.488 25.7112 190.74 25.8651 190.967 26.0781C191.194 26.2888 191.376 26.5682 191.51 26.9162C191.645 27.2642 191.713 27.6927 191.713 28.2017V28.5568H187.508V27.8324H190.861C190.861 27.5246 190.799 27.25 190.676 27.0085C190.555 26.767 190.382 26.5765 190.157 26.4368C189.935 26.2971 189.672 26.2273 189.369 26.2273C189.035 26.2273 188.747 26.3101 188.503 26.4759C188.261 26.6392 188.075 26.8523 187.945 27.1151C187.815 27.3778 187.75 27.6596 187.75 27.9602V28.4432C187.75 28.8551 187.821 29.2043 187.963 29.4908C188.107 29.7749 188.307 29.9915 188.563 30.1406C188.819 30.2874 189.116 30.3608 189.454 30.3608C189.675 30.3608 189.873 30.33 190.051 30.2685C190.231 30.2045 190.386 30.1098 190.516 29.9844C190.646 29.8565 190.747 29.6979 190.818 29.5085L191.628 29.7358C191.542 30.0104 191.399 30.2519 191.198 30.4602C190.997 30.6662 190.748 30.8272 190.452 30.9432C190.156 31.0568 189.824 31.1136 189.454 31.1136ZM195.36 25.5455V26.2557H192.533V25.5455H195.36ZM193.357 24.2386H194.195V29.4375C194.195 29.6742 194.229 29.8518 194.298 29.9702C194.369 30.0862 194.459 30.1643 194.568 30.2045C194.679 30.2424 194.796 30.2614 194.92 30.2614C195.012 30.2614 195.088 30.2566 195.147 30.2472C195.206 30.2353 195.253 30.2259 195.289 30.2188L195.459 30.9716C195.403 30.9929 195.323 31.0142 195.221 31.0355C195.12 31.0592 194.991 31.071 194.834 31.071C194.598 31.071 194.366 31.0201 194.138 30.9183C193.913 30.8165 193.726 30.6615 193.577 30.4531C193.43 30.2448 193.357 29.982 193.357 29.6648V24.2386ZM198.849 31.1136C198.323 31.1136 197.87 30.9976 197.489 30.7656C197.11 30.5312 196.818 30.2045 196.612 29.7855C196.408 29.3641 196.306 28.8741 196.306 28.3153C196.306 27.7566 196.408 27.2642 196.612 26.8381C196.818 26.4096 197.104 26.0758 197.471 25.8366C197.84 25.5952 198.271 25.4744 198.764 25.4744C199.048 25.4744 199.328 25.5218 199.605 25.6165C199.882 25.7112 200.134 25.8651 200.362 26.0781C200.589 26.2888 200.77 26.5682 200.905 26.9162C201.04 27.2642 201.107 27.6927 201.107 28.2017V28.5568H196.903V27.8324H200.255C200.255 27.5246 200.194 27.25 200.07 27.0085C199.95 26.767 199.777 26.5765 199.552 26.4368C199.329 26.2971 199.067 26.2273 198.764 26.2273C198.43 26.2273 198.141 26.3101 197.897 26.4759C197.656 26.6392 197.47 26.8523 197.34 27.1151C197.209 27.3778 197.144 27.6596 197.144 27.9602V28.4432C197.144 28.8551 197.215 29.2043 197.357 29.4908C197.502 29.7749 197.702 29.9915 197.958 30.1406C198.213 30.2874 198.51 30.3608 198.849 30.3608C199.069 30.3608 199.268 30.33 199.445 30.2685C199.625 30.2045 199.78 30.1098 199.911 29.9844C200.041 29.8565 200.142 29.6979 200.213 29.5085L201.022 29.7358C200.937 30.0104 200.794 30.2519 200.593 30.4602C200.391 30.6662 200.143 30.8272 199.847 30.9432C199.551 31.0568 199.218 31.1136 198.849 31.1136ZM204.442 31.1136C203.987 31.1136 203.586 30.9988 203.238 30.7692C202.89 30.5372 202.618 30.2105 202.421 29.7891C202.225 29.3653 202.127 28.8646 202.127 28.2869C202.127 27.714 202.225 27.2169 202.421 26.7955C202.618 26.3741 202.891 26.0485 203.242 25.8189C203.592 25.5893 203.997 25.4744 204.456 25.4744C204.811 25.4744 205.092 25.5336 205.298 25.652C205.506 25.768 205.665 25.9006 205.774 26.0497C205.885 26.1965 205.971 26.3172 206.033 26.4119H206.104V23.7273H206.942V31H206.132V30.1619H206.033C205.971 30.2614 205.884 30.3868 205.77 30.5384C205.656 30.6875 205.494 30.8213 205.284 30.9396C205.073 31.0556 204.792 31.1136 204.442 31.1136ZM204.556 30.3608C204.892 30.3608 205.176 30.2732 205.408 30.098C205.64 29.9205 205.816 29.6754 205.937 29.3629C206.058 29.0481 206.118 28.6847 206.118 28.2727C206.118 27.8655 206.059 27.5092 205.941 27.2038C205.822 26.8961 205.647 26.657 205.415 26.4865C205.183 26.3137 204.896 26.2273 204.556 26.2273C204.2 26.2273 203.905 26.3184 203.668 26.5007C203.433 26.6806 203.257 26.9257 203.139 27.2358C203.023 27.5436 202.965 27.8892 202.965 28.2727C202.965 28.661 203.024 29.0137 203.142 29.331C203.263 29.6458 203.441 29.8968 203.675 30.0838C203.912 30.2685 204.205 30.3608 204.556 30.3608Z" fill="#757575"/>
<path d="M157.179 60H156.256L158.926 52.7273H159.835L162.506 60H161.582L159.409 53.8778H159.352L157.179 60ZM157.52 57.1591H161.241V57.9403H157.52V57.1591ZM165.555 54.5455V55.2557H162.729V54.5455H165.555ZM163.552 53.2386H164.39V58.4375C164.39 58.6742 164.425 58.8518 164.493 58.9702C164.564 59.0862 164.654 59.1643 164.763 59.2045C164.875 59.2424 164.992 59.2614 165.115 59.2614C165.207 59.2614 165.283 59.2566 165.342 59.2472C165.401 59.2353 165.449 59.2259 165.484 59.2188L165.655 59.9716C165.598 59.9929 165.519 60.0142 165.417 60.0355C165.315 60.0592 165.186 60.071 165.03 60.071C164.793 60.071 164.561 60.0201 164.334 59.9183C164.109 59.8165 163.922 59.6615 163.773 59.4531C163.626 59.2448 163.552 58.982 163.552 58.6648V53.2386ZM169.188 54.5455V55.2557H166.361V54.5455H169.188ZM167.185 53.2386H168.023V58.4375C168.023 58.6742 168.058 58.8518 168.126 58.9702C168.197 59.0862 168.287 59.1643 168.396 59.2045C168.507 59.2424 168.625 59.2614 168.748 59.2614C168.84 59.2614 168.916 59.2566 168.975 59.2472C169.034 59.2353 169.081 59.2259 169.117 59.2188L169.287 59.9716C169.231 59.9929 169.151 60.0142 169.05 60.0355C168.948 60.0592 168.819 60.071 168.662 60.071C168.426 60.071 168.194 60.0201 167.966 59.9183C167.742 59.8165 167.555 59.6615 167.405 59.4531C167.259 59.2448 167.185 58.982 167.185 58.6648V53.2386ZM172.677 60.1136C172.151 60.1136 171.698 59.9976 171.317 59.7656C170.938 59.5312 170.646 59.2045 170.44 58.7855C170.236 58.3641 170.134 57.8741 170.134 57.3153C170.134 56.7566 170.236 56.2642 170.44 55.8381C170.646 55.4096 170.932 55.0758 171.299 54.8366C171.669 54.5952 172.099 54.4744 172.592 54.4744C172.876 54.4744 173.156 54.5218 173.433 54.6165C173.71 54.7112 173.963 54.8651 174.19 55.0781C174.417 55.2888 174.598 55.5682 174.733 55.9162C174.868 56.2642 174.936 56.6927 174.936 57.2017V57.5568H170.731V56.8324H174.083C174.083 56.5246 174.022 56.25 173.899 56.0085C173.778 55.767 173.605 55.5765 173.38 55.4368C173.158 55.2971 172.895 55.2273 172.592 55.2273C172.258 55.2273 171.969 55.3101 171.725 55.4759C171.484 55.6392 171.298 55.8523 171.168 56.1151C171.038 56.3778 170.972 56.6596 170.972 56.9602V57.4432C170.972 57.8551 171.044 58.2043 171.186 58.4908C171.33 58.7749 171.53 58.9915 171.786 59.1406C172.041 59.2874 172.338 59.3608 172.677 59.3608C172.897 59.3608 173.096 59.33 173.274 59.2685C173.454 59.2045 173.609 59.1098 173.739 58.9844C173.869 58.8565 173.97 58.6979 174.041 58.5085L174.85 58.7358C174.765 59.0104 174.622 59.2519 174.421 59.4602C174.219 59.6662 173.971 59.8272 173.675 59.9432C173.379 60.0568 173.046 60.1136 172.677 60.1136ZM176.21 60V54.5455H177.02V55.3977H177.091C177.205 55.1065 177.388 54.8804 177.642 54.7195C177.895 54.5561 178.199 54.4744 178.554 54.4744C178.914 54.4744 179.213 54.5561 179.453 54.7195C179.694 54.8804 179.882 55.1065 180.017 55.3977H180.074C180.214 55.116 180.423 54.8923 180.703 54.7266C180.982 54.5585 181.317 54.4744 181.708 54.4744C182.195 54.4744 182.594 54.6271 182.904 54.9325C183.214 55.2356 183.369 55.7079 183.369 56.3494V60H182.531V56.3494C182.531 55.947 182.421 55.6593 182.201 55.4865C181.981 55.3137 181.722 55.2273 181.423 55.2273C181.04 55.2273 180.743 55.3433 180.532 55.5753C180.321 55.8049 180.216 56.0961 180.216 56.4489V60H179.364V56.2642C179.364 55.9541 179.263 55.7043 179.062 55.5149C178.861 55.3232 178.602 55.2273 178.284 55.2273C178.066 55.2273 177.863 55.2853 177.673 55.4013C177.486 55.5173 177.335 55.6783 177.219 55.8842C177.105 56.0878 177.048 56.3234 177.048 56.5909V60H176.21ZM184.902 62.0455V54.5455H185.711V55.4119H185.811C185.872 55.3172 185.958 55.1965 186.067 55.0497C186.178 54.9006 186.336 54.768 186.542 54.652C186.751 54.5336 187.032 54.4744 187.388 54.4744C187.847 54.4744 188.252 54.5893 188.602 54.8189C188.952 55.0485 189.226 55.3741 189.422 55.7955C189.619 56.2169 189.717 56.714 189.717 57.2869C189.717 57.8646 189.619 58.3653 189.422 58.7891C189.226 59.2105 188.954 59.5372 188.606 59.7692C188.258 59.9988 187.856 60.1136 187.402 60.1136C187.051 60.1136 186.771 60.0556 186.56 59.9396C186.349 59.8213 186.187 59.6875 186.074 59.5384C185.96 59.3868 185.872 59.2614 185.811 59.1619H185.74V62.0455H184.902ZM185.726 57.2727C185.726 57.6847 185.786 58.0481 185.907 58.3629C186.028 58.6754 186.204 58.9205 186.436 59.098C186.668 59.2732 186.952 59.3608 187.288 59.3608C187.639 59.3608 187.931 59.2685 188.165 59.0838C188.402 58.8968 188.58 58.6458 188.698 58.331C188.819 58.0137 188.879 57.661 188.879 57.2727C188.879 56.8892 188.82 56.5436 188.702 56.2358C188.586 55.9257 188.409 55.6806 188.172 55.5007C187.938 55.3184 187.643 55.2273 187.288 55.2273C186.947 55.2273 186.661 55.3137 186.429 55.4865C186.197 55.657 186.022 55.8961 185.903 56.2038C185.785 56.5092 185.726 56.8655 185.726 57.2727ZM193.368 54.5455V55.2557H190.541V54.5455H193.368ZM191.365 53.2386H192.203V58.4375C192.203 58.6742 192.237 58.8518 192.306 58.9702C192.377 59.0862 192.467 59.1643 192.576 59.2045C192.687 59.2424 192.804 59.2614 192.927 59.2614C193.02 59.2614 193.095 59.2566 193.155 59.2472C193.214 59.2353 193.261 59.2259 193.297 59.2188L193.467 59.9716C193.41 59.9929 193.331 60.0142 193.229 60.0355C193.127 60.0592 192.998 60.071 192.842 60.071C192.605 60.071 192.373 60.0201 192.146 59.9183C191.921 59.8165 191.734 59.6615 191.585 59.4531C191.438 59.2448 191.365 58.982 191.365 58.6648V53.2386ZM196.857 60.1136C196.331 60.1136 195.878 59.9976 195.497 59.7656C195.118 59.5312 194.825 59.2045 194.619 58.7855C194.416 58.3641 194.314 57.8741 194.314 57.3153C194.314 56.7566 194.416 56.2642 194.619 55.8381C194.825 55.4096 195.112 55.0758 195.479 54.8366C195.848 54.5952 196.279 54.4744 196.771 54.4744C197.056 54.4744 197.336 54.5218 197.613 54.6165C197.89 54.7112 198.142 54.8651 198.369 55.0781C198.597 55.2888 198.778 55.5682 198.913 55.9162C199.048 56.2642 199.115 56.6927 199.115 57.2017V57.5568H194.911V56.8324H198.263C198.263 56.5246 198.201 56.25 198.078 56.0085C197.958 55.767 197.785 55.5765 197.56 55.4368C197.337 55.2971 197.075 55.2273 196.771 55.2273C196.438 55.2273 196.149 55.3101 195.905 55.4759C195.664 55.6392 195.478 55.8523 195.347 56.1151C195.217 56.3778 195.152 56.6596 195.152 56.9602V57.4432C195.152 57.8551 195.223 58.2043 195.365 58.4908C195.51 58.7749 195.71 58.9915 195.965 59.1406C196.221 59.2874 196.518 59.3608 196.857 59.3608C197.077 59.3608 197.276 59.33 197.453 59.2685C197.633 59.2045 197.788 59.1098 197.919 58.9844C198.049 58.8565 198.149 58.6979 198.22 58.5085L199.03 58.7358C198.945 59.0104 198.802 59.2519 198.6 59.4602C198.399 59.6662 198.151 59.8272 197.855 59.9432C197.559 60.0568 197.226 60.1136 196.857 60.1136ZM202.45 60.1136C201.995 60.1136 201.594 59.9988 201.246 59.7692C200.898 59.5372 200.626 59.2105 200.429 58.7891C200.233 58.3653 200.134 57.8646 200.134 57.2869C200.134 56.714 200.233 56.2169 200.429 55.7955C200.626 55.3741 200.899 55.0485 201.249 54.8189C201.6 54.5893 202.005 54.4744 202.464 54.4744C202.819 54.4744 203.1 54.5336 203.306 54.652C203.514 54.768 203.673 54.9006 203.781 55.0497C203.893 55.1965 203.979 55.3172 204.041 55.4119H204.112V52.7273H204.95V60H204.14V59.1619H204.041C203.979 59.2614 203.892 59.3868 203.778 59.5384C203.664 59.6875 203.502 59.8213 203.291 59.9396C203.081 60.0556 202.8 60.1136 202.45 60.1136ZM202.563 59.3608C202.9 59.3608 203.184 59.2732 203.416 59.098C203.648 58.9205 203.824 58.6754 203.945 58.3629C204.066 58.0481 204.126 57.6847 204.126 57.2727C204.126 56.8655 204.067 56.5092 203.948 56.2038C203.83 55.8961 203.655 55.657 203.423 55.4865C203.191 55.3137 202.904 55.2273 202.563 55.2273C202.208 55.2273 201.912 55.3184 201.676 55.5007C201.441 55.6806 201.265 55.9257 201.146 56.2358C201.03 56.5436 200.972 56.8892 200.972 57.2727C200.972 57.661 201.032 58.0137 201.15 58.331C201.271 58.6458 201.448 58.8968 201.683 59.0838C201.919 59.2685 202.213 59.3608 202.563 59.3608Z" fill="#757575"/>
<circle cx="142" cy="56" r="7" fill="#FF5744"/>
<path d="M161.653 81.7273H162.534V86.5426C162.534 87.0398 162.417 87.4837 162.183 87.8743C161.951 88.2625 161.623 88.5691 161.199 88.794C160.775 89.0166 160.278 89.1278 159.707 89.1278C159.137 89.1278 158.64 89.0166 158.216 88.794C157.792 88.5691 157.463 88.2625 157.229 87.8743C156.997 87.4837 156.881 87.0398 156.881 86.5426V81.7273H157.761V86.4716C157.761 86.8267 157.839 87.1428 157.996 87.4197C158.152 87.6944 158.375 87.911 158.663 88.0696C158.955 88.2259 159.303 88.304 159.707 88.304C160.112 88.304 160.46 88.2259 160.751 88.0696C161.043 87.911 161.265 87.6944 161.419 87.4197C161.575 87.1428 161.653 86.8267 161.653 86.4716V81.7273ZM165.017 85.7188V89H164.179V83.5455H164.989V84.3977H165.06C165.188 84.1207 165.382 83.8982 165.642 83.7301C165.903 83.5597 166.239 83.4744 166.651 83.4744C167.02 83.4744 167.343 83.5502 167.62 83.7017C167.897 83.8509 168.113 84.0781 168.267 84.3835C168.42 84.6866 168.497 85.0701 168.497 85.5341V89H167.659V85.5909C167.659 85.1624 167.548 84.8286 167.325 84.5895C167.103 84.348 166.798 84.2273 166.409 84.2273C166.142 84.2273 165.903 84.2853 165.692 84.4013C165.484 84.5173 165.319 84.6866 165.198 84.9091C165.078 85.1316 165.017 85.4015 165.017 85.7188ZM171.634 89.1278C171.288 89.1278 170.975 89.0627 170.693 88.9325C170.411 88.8 170.187 88.6094 170.022 88.3608C169.856 88.1098 169.773 87.8068 169.773 87.4517C169.773 87.1392 169.835 86.8859 169.958 86.6918C170.081 86.4953 170.245 86.3414 170.451 86.2301C170.657 86.1188 170.885 86.036 171.133 85.9815C171.384 85.9247 171.636 85.8797 171.89 85.8466C172.221 85.804 172.49 85.772 172.696 85.7507C172.904 85.727 173.056 85.688 173.15 85.6335C173.247 85.5791 173.296 85.4844 173.296 85.3494V85.321C173.296 84.9706 173.2 84.6984 173.008 84.5043C172.819 84.3101 172.531 84.2131 172.145 84.2131C171.745 84.2131 171.431 84.3007 171.204 84.4759C170.977 84.651 170.817 84.8381 170.725 85.0369L169.929 84.7528C170.071 84.4214 170.261 84.1634 170.498 83.9787C170.737 83.7917 170.997 83.6615 171.279 83.5881C171.563 83.5123 171.842 83.4744 172.117 83.4744C172.292 83.4744 172.493 83.4957 172.721 83.5384C172.95 83.5786 173.172 83.6626 173.385 83.7905C173.6 83.9183 173.779 84.1113 173.921 84.3693C174.063 84.6274 174.134 84.973 174.134 85.4062V89H173.296V88.2614H173.253C173.196 88.3797 173.102 88.5064 172.969 88.6413C172.837 88.7763 172.66 88.8911 172.44 88.9858C172.22 89.0805 171.951 89.1278 171.634 89.1278ZM171.762 88.375C172.093 88.375 172.373 88.3099 172.6 88.1797C172.829 88.0495 173.002 87.8814 173.118 87.6754C173.237 87.4695 173.296 87.2528 173.296 87.0256V86.2585C173.26 86.3011 173.182 86.3402 173.061 86.3757C172.943 86.4089 172.806 86.4384 172.65 86.4645C172.496 86.4882 172.345 86.5095 172.199 86.5284C172.054 86.545 171.937 86.5592 171.847 86.571C171.629 86.5994 171.426 86.6456 171.236 86.7095C171.049 86.7711 170.898 86.8646 170.782 86.9901C170.668 87.1132 170.611 87.2812 170.611 87.4943C170.611 87.7855 170.719 88.0057 170.934 88.1548C171.152 88.3016 171.428 88.375 171.762 88.375ZM178.036 83.5455V84.2557H175.209V83.5455H178.036ZM176.033 82.2386H176.871V87.4375C176.871 87.6742 176.905 87.8518 176.974 87.9702C177.045 88.0862 177.135 88.1643 177.244 88.2045C177.355 88.2424 177.472 88.2614 177.595 88.2614C177.688 88.2614 177.763 88.2566 177.823 88.2472C177.882 88.2353 177.929 88.2259 177.965 88.2188L178.135 88.9716C178.078 88.9929 177.999 89.0142 177.897 89.0355C177.795 89.0592 177.666 89.071 177.51 89.071C177.273 89.071 177.041 89.0201 176.814 88.9183C176.589 88.8165 176.402 88.6615 176.253 88.4531C176.106 88.2448 176.033 87.982 176.033 87.6648V82.2386ZM181.669 83.5455V84.2557H178.842V83.5455H181.669ZM179.666 82.2386H180.504V87.4375C180.504 87.6742 180.538 87.8518 180.607 87.9702C180.678 88.0862 180.768 88.1643 180.877 88.2045C180.988 88.2424 181.105 88.2614 181.228 88.2614C181.32 88.2614 181.396 88.2566 181.455 88.2472C181.515 88.2353 181.562 88.2259 181.597 88.2188L181.768 88.9716C181.711 88.9929 181.632 89.0142 181.53 89.0355C181.428 89.0592 181.299 89.071 181.143 89.071C180.906 89.071 180.674 89.0201 180.447 88.9183C180.222 88.8165 180.035 88.6615 179.886 88.4531C179.739 88.2448 179.666 87.982 179.666 87.6648V82.2386ZM185.157 89.1136C184.632 89.1136 184.179 88.9976 183.797 88.7656C183.419 88.5312 183.126 88.2045 182.92 87.7855C182.717 87.3641 182.615 86.8741 182.615 86.3153C182.615 85.7566 182.717 85.2642 182.92 84.8381C183.126 84.4096 183.413 84.0758 183.78 83.8366C184.149 83.5952 184.58 83.4744 185.072 83.4744C185.356 83.4744 185.637 83.5218 185.914 83.6165C186.191 83.7112 186.443 83.8651 186.67 84.0781C186.898 84.2888 187.079 84.5682 187.214 84.9162C187.349 85.2642 187.416 85.6927 187.416 86.2017V86.5568H183.211V85.8324H186.564C186.564 85.5246 186.502 85.25 186.379 85.0085C186.258 84.767 186.086 84.5765 185.861 84.4368C185.638 84.2971 185.375 84.2273 185.072 84.2273C184.738 84.2273 184.45 84.3101 184.206 84.4759C183.964 84.6392 183.778 84.8523 183.648 85.1151C183.518 85.3778 183.453 85.6596 183.453 85.9602V86.4432C183.453 86.8551 183.524 87.2043 183.666 87.4908C183.81 87.7749 184.01 87.9915 184.266 88.1406C184.522 88.2874 184.819 88.3608 185.157 88.3608C185.378 88.3608 185.577 88.33 185.754 88.2685C185.934 88.2045 186.089 88.1098 186.219 87.9844C186.349 87.8565 186.45 87.6979 186.521 87.5085L187.331 87.7358C187.246 88.0104 187.102 88.2519 186.901 88.4602C186.7 88.6662 186.451 88.8272 186.155 88.9432C185.859 89.0568 185.527 89.1136 185.157 89.1136ZM188.691 89V83.5455H189.501V84.3977H189.572C189.685 84.1065 189.869 83.8804 190.122 83.7195C190.375 83.5561 190.68 83.4744 191.035 83.4744C191.394 83.4744 191.694 83.5561 191.933 83.7195C192.175 83.8804 192.363 84.1065 192.498 84.3977H192.555C192.694 84.116 192.904 83.8923 193.183 83.7266C193.462 83.5585 193.797 83.4744 194.188 83.4744C194.676 83.4744 195.075 83.6271 195.385 83.9325C195.695 84.2356 195.85 84.7079 195.85 85.3494V89H195.012V85.3494C195.012 84.947 194.902 84.6593 194.682 84.4865C194.461 84.3137 194.202 84.2273 193.904 84.2273C193.52 84.2273 193.223 84.3433 193.013 84.5753C192.802 84.8049 192.697 85.0961 192.697 85.4489V89H191.844V85.2642C191.844 84.9541 191.744 84.7043 191.542 84.5149C191.341 84.3232 191.082 84.2273 190.765 84.2273C190.547 84.2273 190.343 84.2853 190.154 84.4013C189.967 84.5173 189.815 84.6783 189.699 84.8842C189.586 85.0878 189.529 85.3234 189.529 85.5909V89H188.691ZM197.382 91.0455V83.5455H198.192V84.4119H198.291C198.353 84.3172 198.438 84.1965 198.547 84.0497C198.658 83.9006 198.817 83.768 199.023 83.652C199.231 83.5336 199.513 83.4744 199.868 83.4744C200.327 83.4744 200.732 83.5893 201.083 83.8189C201.433 84.0485 201.706 84.3741 201.903 84.7955C202.099 85.2169 202.198 85.714 202.198 86.2869C202.198 86.8646 202.099 87.3653 201.903 87.7891C201.706 88.2105 201.434 88.5372 201.086 88.7692C200.738 88.9988 200.337 89.1136 199.882 89.1136C199.532 89.1136 199.251 89.0556 199.041 88.9396C198.83 88.8213 198.668 88.6875 198.554 88.5384C198.441 88.3868 198.353 88.2614 198.291 88.1619H198.22V91.0455H197.382ZM198.206 86.2727C198.206 86.6847 198.267 87.0481 198.387 87.3629C198.508 87.6754 198.684 87.9205 198.916 88.098C199.148 88.2732 199.432 88.3608 199.769 88.3608C200.119 88.3608 200.411 88.2685 200.646 88.0838C200.883 87.8968 201.06 87.6458 201.178 87.331C201.299 87.0137 201.36 86.661 201.36 86.2727C201.36 85.8892 201.3 85.5436 201.182 85.2358C201.066 84.9257 200.89 84.6806 200.653 84.5007C200.419 84.3184 200.124 84.2273 199.769 84.2273C199.428 84.2273 199.141 84.3137 198.909 84.4865C198.677 84.657 198.502 84.8961 198.384 85.2038C198.265 85.5092 198.206 85.8655 198.206 86.2727ZM205.848 83.5455V84.2557H203.021V83.5455H205.848ZM203.845 82.2386H204.683V87.4375C204.683 87.6742 204.718 87.8518 204.786 87.9702C204.857 88.0862 204.947 88.1643 205.056 88.2045C205.168 88.2424 205.285 88.2614 205.408 88.2614C205.5 88.2614 205.576 88.2566 205.635 88.2472C205.694 88.2353 205.742 88.2259 205.777 88.2188L205.948 88.9716C205.891 88.9929 205.811 89.0142 205.71 89.0355C205.608 89.0592 205.479 89.071 205.323 89.071C205.086 89.071 204.854 89.0201 204.627 88.9183C204.402 88.8165 204.215 88.6615 204.066 88.4531C203.919 88.2448 203.845 87.982 203.845 87.6648V82.2386ZM209.337 89.1136C208.812 89.1136 208.358 88.9976 207.977 88.7656C207.598 88.5312 207.306 88.2045 207.1 87.7855C206.896 87.3641 206.795 86.8741 206.795 86.3153C206.795 85.7566 206.896 85.2642 207.1 84.8381C207.306 84.4096 207.592 84.0758 207.959 83.8366C208.329 83.5952 208.76 83.4744 209.252 83.4744C209.536 83.4744 209.817 83.5218 210.094 83.6165C210.371 83.7112 210.623 83.8651 210.85 84.0781C211.077 84.2888 211.258 84.5682 211.393 84.9162C211.528 85.2642 211.596 85.6927 211.596 86.2017V86.5568H207.391V85.8324H210.743C210.743 85.5246 210.682 85.25 210.559 85.0085C210.438 84.767 210.265 84.5765 210.04 84.4368C209.818 84.2971 209.555 84.2273 209.252 84.2273C208.918 84.2273 208.629 84.3101 208.385 84.4759C208.144 84.6392 207.958 84.8523 207.828 85.1151C207.698 85.3778 207.633 85.6596 207.633 85.9602V86.4432C207.633 86.8551 207.704 87.2043 207.846 87.4908C207.99 87.7749 208.19 87.9915 208.446 88.1406C208.702 88.2874 208.999 88.3608 209.337 88.3608C209.557 88.3608 209.756 88.33 209.934 88.2685C210.114 88.2045 210.269 88.1098 210.399 87.9844C210.529 87.8565 210.63 87.6979 210.701 87.5085L211.51 87.7358C211.425 88.0104 211.282 88.2519 211.081 88.4602C210.88 88.6662 210.631 88.8272 210.335 88.9432C210.039 89.0568 209.706 89.1136 209.337 89.1136ZM214.93 89.1136C214.476 89.1136 214.074 88.9988 213.726 88.7692C213.378 88.5372 213.106 88.2105 212.91 87.7891C212.713 87.3653 212.615 86.8646 212.615 86.2869C212.615 85.714 212.713 85.2169 212.91 84.7955C213.106 84.3741 213.38 84.0485 213.73 83.8189C214.08 83.5893 214.485 83.4744 214.944 83.4744C215.3 83.4744 215.58 83.5336 215.786 83.652C215.994 83.768 216.153 83.9006 216.262 84.0497C216.373 84.1965 216.46 84.3172 216.521 84.4119H216.592V81.7273H217.43V89H216.621V88.1619H216.521C216.46 88.2614 216.372 88.3868 216.258 88.5384C216.145 88.6875 215.983 88.8213 215.772 88.9396C215.561 89.0556 215.281 89.1136 214.93 89.1136ZM215.044 88.3608C215.38 88.3608 215.664 88.2732 215.896 88.098C216.128 87.9205 216.305 87.6754 216.425 87.3629C216.546 87.0481 216.606 86.6847 216.606 86.2727C216.606 85.8655 216.547 85.5092 216.429 85.2038C216.31 84.8961 216.135 84.657 215.903 84.4865C215.671 84.3137 215.385 84.2273 215.044 84.2273C214.689 84.2273 214.393 84.3184 214.156 84.5007C213.922 84.6806 213.745 84.9257 213.627 85.2358C213.511 85.5436 213.453 85.8892 213.453 86.2727C213.453 86.661 213.512 87.0137 213.631 87.331C213.751 87.6458 213.929 87.8968 214.163 88.0838C214.4 88.2685 214.693 88.3608 215.044 88.3608Z" fill="#757575"/>
<circle cx="142" cy="85" r="7" fill="#EEEEEE"/>
<defs>
<clipPath id="clip0_433_15744">
<rect width="20.5333" height="21.2667" fill="white" transform="translate(44.7334 29.6992)"/>
</clipPath>
</defs>
</svg>
