<svg width="16" height="16" viewBox="0 0 16 16" fill="none" xmlns="http://www.w3.org/2000/svg">
<path d="M9.83401 2.66634H3.278V13.333H12.4564V5.33301H9.83401V2.66634ZM1.9668 1.99434C1.9668 1.62901 2.25985 1.33301 2.62174 1.33301H10.4896L13.7676 4.66634V13.995C13.7682 14.0826 13.7519 14.1694 13.7195 14.2505C13.6871 14.3316 13.6393 14.4054 13.5789 14.4678C13.5184 14.5301 13.4465 14.5797 13.3672 14.6138C13.2878 14.6479 13.2027 14.6657 13.1166 14.6663H2.61781C2.44563 14.6651 2.28084 14.5951 2.15903 14.4713C2.03722 14.3476 1.96817 14.1801 1.9668 14.005V1.99434ZM11.5759 7.99967L9.25774 10.357L8.33072 9.41367L9.72125 7.99967L8.33138 6.58567L9.25774 5.64234L11.5759 7.99967ZM4.15847 7.99967L6.47733 5.64234L7.40436 6.58567L6.01317 7.99967L7.40304 9.41367L6.47668 10.357L4.15847 7.99967Z" fill="#BDBDBD"/>
</svg>
