<svg width="16" height="16" viewBox="0 0 16 16" fill="none" xmlns="http://www.w3.org/2000/svg">
<path d="M12.6666 1.33301H3.33325C2.80282 1.33301 2.29411 1.54372 1.91904 1.91879C1.54397 2.29387 1.33325 2.80257 1.33325 3.33301V9.99968C1.33325 10.5301 1.54397 11.0388 1.91904 11.4139C2.29411 11.789 2.80282 11.9997 3.33325 11.9997H5.09325L4.70659 12.6663C4.58956 12.869 4.52795 13.099 4.52795 13.333C4.52795 13.5671 4.58956 13.797 4.70659 13.9997C4.82462 14.2041 4.99482 14.3736 5.1998 14.4907C5.40478 14.6079 5.63718 14.6685 5.87325 14.6663H10.1799C10.4137 14.6661 10.6434 14.6044 10.8458 14.4874C11.0482 14.3704 11.2163 14.2022 11.3333 13.9997C11.4503 13.797 11.5119 13.5671 11.5119 13.333C11.5119 13.099 11.4503 12.869 11.3333 12.6663L10.9399 11.9997H12.6666C13.197 11.9997 13.7057 11.789 14.0808 11.4139C14.4559 11.0388 14.6666 10.5301 14.6666 9.99968V3.33301C14.6666 2.80257 14.4559 2.29387 14.0808 1.91879C13.7057 1.54372 13.197 1.33301 12.6666 1.33301ZM5.84659 13.333L6.66659 11.9997H9.33325L10.1333 13.333H5.84659ZM13.3333 9.99968C13.3333 10.1765 13.263 10.3461 13.138 10.4711C13.013 10.5961 12.8434 10.6663 12.6666 10.6663H3.33325C3.15644 10.6663 2.98687 10.5961 2.86185 10.4711C2.73682 10.3461 2.66659 10.1765 2.66659 9.99968V9.33301H13.3333V9.99968ZM13.3333 7.99968H2.66659V3.33301C2.66659 3.1562 2.73682 2.98663 2.86185 2.8616C2.98687 2.73658 3.15644 2.66634 3.33325 2.66634H12.6666C12.8434 2.66634 13.013 2.73658 13.138 2.8616C13.263 2.98663 13.3333 3.1562 13.3333 3.33301V7.99968Z" fill="#757575"/>
</svg>
