<svg width="17" height="16" viewBox="0 0 17 16" fill="none" xmlns="http://www.w3.org/2000/svg">
<path d="M4.9904 4.00016V2.00016C4.9904 1.82335 5.06064 1.65378 5.18566 1.52876C5.31068 1.40373 5.48025 1.3335 5.65706 1.3335H13.6571C13.8339 1.3335 14.0034 1.40373 14.1285 1.52876C14.2535 1.65378 14.3237 1.82335 14.3237 2.00016V11.3335C14.3237 11.5103 14.2535 11.6799 14.1285 11.8049C14.0034 11.9299 13.8339 12.0002 13.6571 12.0002H11.6571V14.0002C11.6571 14.3682 11.3571 14.6668 10.9857 14.6668H2.99506C2.90715 14.6674 2.82 14.6505 2.73861 14.6172C2.65723 14.584 2.58322 14.535 2.52084 14.473C2.45845 14.4111 2.40893 14.3374 2.3751 14.2563C2.34127 14.1751 2.32382 14.0881 2.32373 14.0002L2.32573 4.66683C2.32573 4.29883 2.62573 4.00016 2.9964 4.00016H4.9904ZM3.6584 5.3335L3.65706 13.3335H10.3237V5.3335H3.6584ZM6.32373 4.00016H11.6571V10.6668H12.9904V2.66683H6.32373V4.00016ZM4.9904 7.3335H8.9904V8.66683H4.9904V7.3335ZM4.9904 10.0002H8.9904V11.3335H4.9904V10.0002Z" fill="#BDBDBD"/>
</svg>
