<svg width="36" height="36" viewBox="0 0 36 36" fill="none" xmlns="http://www.w3.org/2000/svg">
<path fill-rule="evenodd" clip-rule="evenodd" d="M3.375 18C3.375 9.92555 9.92555 3.375 18 3.375C26.0744 3.375 32.625 9.92555 32.625 18C32.625 26.0744 26.0744 32.625 18 32.625C9.92555 32.625 3.375 26.0744 3.375 18ZM18 5.625C11.1682 5.625 5.625 11.1682 5.625 18C5.625 24.8318 11.1682 30.375 18 30.375C24.8318 30.375 30.375 24.8318 30.375 18C30.375 11.1682 24.8318 5.625 18 5.625Z" fill="#8C61CB"/>
<path d="M15.2101 23.5154L23.2574 18.6539C23.3696 18.5856 23.4623 18.4896 23.5266 18.375C23.5909 18.2605 23.6247 18.1314 23.6247 18C23.6247 17.8687 23.5909 17.7395 23.5266 17.625C23.4623 17.5105 23.3696 17.4145 23.2574 17.3461L15.2101 12.4847C15.0948 12.4156 14.9631 12.3784 14.8287 12.377C14.6942 12.3756 14.5618 12.4099 14.445 12.4765C14.3282 12.5432 14.2312 12.6397 14.1641 12.7561C14.0969 12.8726 14.0619 13.0049 14.0626 13.1393V22.8607C14.0619 22.9952 14.0969 23.1275 14.1641 23.2439C14.2312 23.3604 14.3282 23.4569 14.445 23.5235C14.5618 23.5902 14.6942 23.6245 14.8287 23.6231C14.9631 23.6216 15.0948 23.5845 15.2101 23.5154Z" fill="#8C61CB"/>
</svg>
