<svg width="16" height="16" viewBox="0 0 16 16" fill="none" xmlns="http://www.w3.org/2000/svg">
<path fill-rule="evenodd" clip-rule="evenodd" d="M3.54757 2.43248C3.88251 2.21449 4.33004 2.1737 4.7251 2.4096L4.72531 2.40973L12.4723 7.04636C12.4723 7.04638 12.4724 7.0464 12.4724 7.04642C12.8365 7.26425 12.9997 7.64826 12.9997 8.00014C12.9997 8.35202 12.8365 8.73603 12.4724 8.95386C12.4724 8.95388 12.4723 8.9539 12.4723 8.95392L4.72553 13.5904L4.72531 13.5905L4.7251 13.5907C4.33004 13.8266 3.88251 13.7858 3.54757 13.5678C3.21686 13.3526 3 12.9713 3 12.5314V3.46889C3 3.029 3.21686 2.64772 3.54757 2.43248ZM4.09305 3.27061C4.04877 3.29943 4 3.36378 4 3.46889V12.5314C4 12.6365 4.04877 12.7008 4.09305 12.7297C4.11555 12.7443 4.13601 12.7496 4.15183 12.7502C4.16579 12.7507 4.18546 12.7482 4.2124 12.7321L11.959 8.09574C11.9736 8.08699 11.9997 8.05963 11.9997 8.00014C11.9997 7.94064 11.9736 7.91329 11.959 7.90454L4.2124 3.26818C4.21236 3.26815 4.21232 3.26813 4.21228 3.2681C4.1854 3.25208 4.16576 3.24958 4.15183 3.25011C4.13601 3.25071 4.11555 3.25597 4.09305 3.27061Z" fill="white"/>
</svg>
