<svg width="32" height="32" viewBox="0 0 32 32" fill="none" xmlns="http://www.w3.org/2000/svg">
<circle cx="16" cy="16" r="16" fill="#DCDCDC"/>
<path fill-rule="evenodd" clip-rule="evenodd" d="M17.1469 11.4313C16.9535 11.3372 16.5384 11.2439 16.0081 11.2503C15.4462 11.258 14.891 11.3825 14.4457 11.7495M17.1469 11.4313C17.6467 11.6762 18.375 12.1576 18.375 13.1254C18.375 14.1896 17.7589 14.6673 16.6974 15.3973C16.1217 15.7932 15.7169 16.2152 15.4617 16.6896C15.2042 17.1681 15.125 17.6519 15.125 18.1254C15.125 18.4705 15.4048 18.7504 15.75 18.7504C16.0952 18.7504 16.375 18.4705 16.375 18.1254C16.375 17.7976 16.4283 17.5312 16.5625 17.2817C16.6989 17.0281 16.9449 16.7441 17.4057 16.4272L17.4297 16.4107C18.4363 15.7186 19.625 14.9013 19.625 13.1254C19.625 11.381 18.2658 10.5874 17.6962 10.3084L17.6956 10.3082L17.6951 10.3079C17.2628 10.0972 16.6321 9.99256 15.9923 10.0004L15.9919 10.0004L15.9915 10.0004C15.2717 10.0102 14.3964 10.1702 13.6506 10.785L13.6506 10.785C13.0505 11.2797 12.7312 11.8414 12.5633 12.2852C12.4797 12.5062 12.4334 12.6983 12.4078 12.8397C12.3949 12.9105 12.3871 12.9692 12.3825 13.0129C12.3801 13.0349 12.3785 13.0531 12.3775 13.0674C12.3769 13.0746 12.3765 13.0807 12.3762 13.0858C12.3761 13.0884 12.376 13.0907 12.3759 13.0928L12.3757 13.0956L12.3757 13.0969L12.3756 13.0975C12.3756 13.0978 12.3756 13.0981 13 13.1254L12.3756 13.0981C12.3606 13.443 12.6279 13.7347 12.9728 13.7498C13.3154 13.7647 13.6056 13.5009 13.6241 13.1592C13.6242 13.1574 13.6246 13.1529 13.6254 13.1459C13.627 13.1301 13.6306 13.1017 13.6377 13.0629C13.6518 12.9851 13.6794 12.8677 13.7325 12.7275C13.8378 12.449 14.0427 12.0817 14.4457 11.7495" fill="white"/>
<path d="M15.75 21.5C16.3023 21.5 16.75 21.0523 16.75 20.5C16.75 19.9477 16.3023 19.5 15.75 19.5C15.1977 19.5 14.75 19.9477 14.75 20.5C14.75 21.0523 15.1977 21.5 15.75 21.5Z" fill="white"/>
</svg>
