<svg width="16" height="17" viewBox="0 0 16 17" fill="none" xmlns="http://www.w3.org/2000/svg">
<path d="M4.66683 6.67448C5.10886 6.67448 5.53278 6.49888 5.84534 6.18632C6.1579 5.87376 6.3335 5.44984 6.3335 5.00781C6.3335 4.56578 6.1579 4.14186 5.84534 3.8293C5.53278 3.51674 5.10886 3.34115 4.66683 3.34115C4.2248 3.34115 3.80088 3.51674 3.48832 3.8293C3.17576 4.14186 3.00016 4.56578 3.00016 5.00781C3.00016 5.44984 3.17576 5.87376 3.48832 6.18632C3.80088 6.49888 4.2248 6.67448 4.66683 6.67448ZM4.66683 8.00781C4.27286 8.00781 3.88276 7.93022 3.51878 7.77945C3.1548 7.62869 2.82408 7.40771 2.54551 7.12913C2.26693 6.85056 2.04595 6.51984 1.89519 6.15586C1.74443 5.79189 1.66683 5.40178 1.66683 5.00781C1.66683 4.61385 1.74443 4.22374 1.89519 3.85976C2.04595 3.49579 2.26693 3.16507 2.54551 2.88649C2.82408 2.60792 3.1548 2.38694 3.51878 2.23617C3.88276 2.08541 4.27286 2.00781 4.66683 2.00781C5.46248 2.00781 6.22554 2.32388 6.78815 2.88649C7.35076 3.4491 7.66683 4.21216 7.66683 5.00781C7.66683 5.80346 7.35076 6.56652 6.78815 7.12913C6.22554 7.69174 5.46248 8.00781 4.66683 8.00781ZM11.6668 9.34115C12.0205 9.34115 12.3596 9.20067 12.6096 8.95062C12.8597 8.70057 13.0002 8.36143 13.0002 8.00781C13.0002 7.65419 12.8597 7.31505 12.6096 7.065C12.3596 6.81495 12.0205 6.67448 11.6668 6.67448C11.3132 6.67448 10.9741 6.81495 10.724 7.065C10.474 7.31505 10.3335 7.65419 10.3335 8.00781C10.3335 8.36143 10.474 8.70057 10.724 8.95062C10.9741 9.20067 11.3132 9.34115 11.6668 9.34115ZM11.6668 10.6745C10.9596 10.6745 10.2813 10.3935 9.78121 9.89343C9.28111 9.39333 9.00016 8.71506 9.00016 8.00781C9.00016 7.30057 9.28111 6.62229 9.78121 6.12219C10.2813 5.6221 10.9596 5.34115 11.6668 5.34115C12.3741 5.34115 13.0523 5.6221 13.5524 6.12219C14.0525 6.62229 14.3335 7.30057 14.3335 8.00781C14.3335 8.71506 14.0525 9.39333 13.5524 9.89343C13.0523 10.3935 12.3741 10.6745 11.6668 10.6745ZM13.3335 14.6745V14.3411C13.3335 13.8991 13.1579 13.4752 12.8453 13.1626C12.5328 12.8501 12.1089 12.6745 11.6668 12.6745C11.2248 12.6745 10.8009 12.8501 10.4883 13.1626C10.1758 13.4752 10.0002 13.8991 10.0002 14.3411V14.6745H8.66683V14.3411C8.66683 13.9472 8.74443 13.5571 8.89519 13.1931C9.04595 12.8291 9.26693 12.4984 9.54551 12.2198C9.82408 11.9412 10.1548 11.7203 10.5188 11.5695C10.8828 11.4187 11.2729 11.3411 11.6668 11.3411C12.0608 11.3411 12.4509 11.4187 12.8149 11.5695C13.1789 11.7203 13.5096 11.9412 13.7881 12.2198C14.0667 12.4984 14.2877 12.8291 14.4385 13.1931C14.5892 13.5571 14.6668 13.9472 14.6668 14.3411V14.6745H13.3335ZM6.66683 14.6745V12.0078C6.66683 11.4774 6.45612 10.9687 6.08104 10.5936C5.70597 10.2185 5.19726 10.0078 4.66683 10.0078C4.1364 10.0078 3.62769 10.2185 3.25262 10.5936C2.87754 10.9687 2.66683 11.4774 2.66683 12.0078V14.6745H1.3335V12.0078C1.3335 11.1238 1.68469 10.2759 2.30981 9.65079C2.93493 9.02567 3.78277 8.67448 4.66683 8.67448C5.55088 8.67448 6.39873 9.02567 7.02385 9.65079C7.64897 10.2759 8.00016 11.1238 8.00016 12.0078V14.6745H6.66683Z" fill="#9E9E9E"/>
</svg>
