<svg width="16" height="17" viewBox="0 0 16 17" fill="none" xmlns="http://www.w3.org/2000/svg">
<path d="M0.594238 2.74514C0.595594 2.55065 0.673404 2.3645 0.81086 2.22691C0.948317 2.08931 1.13438 2.01132 1.32887 2.00977H14.6707C15.0765 2.00977 15.4053 2.33931 15.4053 2.74514V14.6044C15.404 14.7989 15.3262 14.985 15.1887 15.1226C15.0513 15.2602 14.8652 15.3382 14.6707 15.3398H1.32887C1.13397 15.3396 0.947111 15.262 0.809362 15.1241C0.671613 14.9862 0.594238 14.7993 0.594238 14.6044V2.74514ZM7.25924 3.49088H2.07535V13.8587H7.25924V3.49088ZM8.74035 3.49088V13.8587H13.9242V3.49088H8.74035ZM9.48091 4.97199H13.1837V6.4531H9.48091V4.97199ZM9.48091 7.19365H13.1837V8.67477H9.48091V7.19365Z" fill="#9E9E9E"/>
</svg>
