<svg width="10" height="10" viewBox="0 0 10 10" fill="none" xmlns="http://www.w3.org/2000/svg">
<path d="M4.99992 0.833008C7.29992 0.833008 9.16658 2.69967 9.16658 4.99967C9.16658 7.29967 7.29992 9.16634 4.99992 9.16634C2.69992 9.16634 0.833252 7.29967 0.833252 4.99967C0.833252 2.69967 2.69992 0.833008 4.99992 0.833008ZM4.99992 8.33301C6.84158 8.33301 8.33325 6.84134 8.33325 4.99967C8.33325 3.15801 6.84158 1.66634 4.99992 1.66634C3.15825 1.66634 1.66659 3.15801 1.66659 4.99967C1.66659 6.84134 3.15825 8.33301 4.99992 8.33301ZM6.47325 2.93717L7.06242 3.52634L4.99992 5.58884L4.41075 4.99967L6.47325 2.93717Z" fill="#7D3F3A"/>
</svg>
