<svg width="16" height="16" viewBox="0 0 16 16" fill="none" xmlns="http://www.w3.org/2000/svg">
<path d="M7.99992 1.33301C11.6799 1.33301 14.6666 4.31967 14.6666 7.99967C14.6666 11.6797 11.6799 14.6663 7.99992 14.6663C4.31992 14.6663 1.33325 11.6797 1.33325 7.99967C1.33325 4.31967 4.31992 1.33301 7.99992 1.33301ZM7.99992 13.333C10.9466 13.333 13.3333 10.9463 13.3333 7.99967C13.3333 5.05301 10.9466 2.66634 7.99992 2.66634C5.05325 2.66634 2.66659 5.05301 2.66659 7.99967C2.66659 10.9463 5.05325 13.333 7.99992 13.333ZM10.3573 4.69967L11.2999 5.64234L7.99992 8.94234L7.05725 7.99967L10.3573 4.69967Z" fill="#A8A7A7"/>
</svg>
