<svg width="18" height="18" viewBox="0 0 18 18" fill="none" xmlns="http://www.w3.org/2000/svg">
<rect width="18" height="18" fill="black"/>
<rect width="1280" height="1759" transform="translate(-580 -623)" fill="#F9F9F9"/>
<rect x="-320" y="-63" width="996" height="116" rx="16" fill="white"/>
<path d="M1 0H17C17.2652 0 17.5196 0.105357 17.7071 0.292893C17.8946 0.48043 18 0.734784 18 1V17C18 17.2652 17.8946 17.5196 17.7071 17.7071C17.5196 17.8946 17.2652 18 17 18H1C0.734784 18 0.48043 17.8946 0.292893 17.7071C0.105357 17.5196 0 17.2652 0 17V1C0 0.734784 0.105357 0.48043 0.292893 0.292893C0.48043 0.105357 0.734784 0 1 0V0ZM8.003 13L15.073 5.929L13.659 4.515L8.003 10.172L5.174 7.343L3.76 8.757L8.003 13Z" fill="#8C61CB"/>
</svg>
