<svg width="10" height="10" viewBox="0 0 10 10" fill="none" xmlns="http://www.w3.org/2000/svg">
<path d="M4.99992 9.16634C2.69867 9.16634 0.833252 7.30092 0.833252 4.99967C0.833252 2.69842 2.69867 0.833008 4.99992 0.833008C7.30117 0.833008 9.16659 2.69842 9.16659 4.99967C9.16659 7.30092 7.30117 9.16634 4.99992 9.16634ZM4.99992 8.33301C5.88397 8.33301 6.73182 7.98182 7.35694 7.3567C7.98206 6.73158 8.33325 5.88373 8.33325 4.99967C8.33325 4.11562 7.98206 3.26777 7.35694 2.64265C6.73182 2.01753 5.88397 1.66634 4.99992 1.66634C4.11586 1.66634 3.26802 2.01753 2.6429 2.64265C2.01777 3.26777 1.66659 4.11562 1.66659 4.99967C1.66659 5.88373 2.01777 6.73158 2.6429 7.3567C3.26802 7.98182 4.11586 8.33301 4.99992 8.33301ZM4.58325 6.24967H5.41659V7.08301H4.58325V6.24967ZM4.58325 2.91634H5.41659V5.41634H4.58325V2.91634Z" fill="#FF5744"/>
</svg>
