<svg width="37" height="37" viewBox="0 0 37 37" fill="none" xmlns="http://www.w3.org/2000/svg">
<g opacity="0.4">
<path fill-rule="evenodd" clip-rule="evenodd" d="M6.78378 6.9329C5.53505 6.9329 4.52275 7.9452 4.52275 9.19393V29.5432C4.52275 30.7919 5.53505 31.8042 6.78378 31.8042H29.3941C30.6428 31.8042 31.6551 30.7919 31.6551 29.5432V9.19393C31.6551 7.9452 30.6428 6.9329 29.3941 6.9329H6.78378ZM2.26172 9.19393C2.26172 6.69647 4.28631 4.67188 6.78378 4.67188H29.3941C31.8915 4.67188 33.9161 6.69647 33.9161 9.19393V29.5432C33.9161 32.0407 31.8915 34.0653 29.3941 34.0653H6.78378C4.28631 34.0653 2.26172 32.0407 2.26172 29.5432V9.19393Z" fill="#B7D7E9"/>
<path d="M20.9145 18.2353C21.8511 18.2353 22.6103 17.4761 22.6103 16.5395C22.6103 15.603 21.8511 14.8438 20.9145 14.8438C19.978 14.8438 19.2188 15.603 19.2188 16.5395C19.2188 17.4761 19.978 18.2353 20.9145 18.2353Z" fill="#B7D7E9"/>
<path d="M26.5669 18.2353C27.5034 18.2353 28.2626 17.4761 28.2626 16.5395C28.2626 15.603 27.5034 14.8438 26.5669 14.8438C25.6303 14.8438 24.8711 15.603 24.8711 16.5395C24.8711 17.4761 25.6303 18.2353 26.5669 18.2353Z" fill="#B7D7E9"/>
<path d="M20.9145 23.8915C21.8511 23.8915 22.6103 23.1323 22.6103 22.1958C22.6103 21.2592 21.8511 20.5 20.9145 20.5C19.978 20.5 19.2188 21.2592 19.2188 22.1958C19.2188 23.1323 19.978 23.8915 20.9145 23.8915Z" fill="#B7D7E9"/>
<path d="M26.5669 23.8915C27.5034 23.8915 28.2626 23.1323 28.2626 22.1958C28.2626 21.2592 27.5034 20.5 26.5669 20.5C25.6303 20.5 24.8711 21.2592 24.8711 22.1958C24.8711 23.1323 25.6303 23.8915 26.5669 23.8915Z" fill="#B7D7E9"/>
<path d="M9.60983 23.8915C10.5464 23.8915 11.3056 23.1323 11.3056 22.1958C11.3056 21.2592 10.5464 20.5 9.60983 20.5C8.67329 20.5 7.91406 21.2592 7.91406 22.1958C7.91406 23.1323 8.67329 23.8915 9.60983 23.8915Z" fill="#B7D7E9"/>
<path d="M15.2622 23.8915C16.1987 23.8915 16.958 23.1323 16.958 22.1958C16.958 21.2592 16.1987 20.5 15.2622 20.5C14.3256 20.5 13.5664 21.2592 13.5664 22.1958C13.5664 23.1323 14.3256 23.8915 15.2622 23.8915Z" fill="#B7D7E9"/>
<path d="M9.60983 29.54C10.5464 29.54 11.3056 28.7808 11.3056 27.8442C11.3056 26.9077 10.5464 26.1484 9.60983 26.1484C8.67329 26.1484 7.91406 26.9077 7.91406 27.8442C7.91406 28.7808 8.67329 29.54 9.60983 29.54Z" fill="#B7D7E9"/>
<path d="M15.2622 29.54C16.1987 29.54 16.958 28.7808 16.958 27.8442C16.958 26.9077 16.1987 26.1484 15.2622 26.1484C14.3256 26.1484 13.5664 26.9077 13.5664 27.8442C13.5664 28.7808 14.3256 29.54 15.2622 29.54Z" fill="#B7D7E9"/>
<path d="M20.9145 29.54C21.8511 29.54 22.6103 28.7808 22.6103 27.8442C22.6103 26.9077 21.8511 26.1484 20.9145 26.1484C19.978 26.1484 19.2188 26.9077 19.2188 27.8442C19.2188 28.7808 19.978 29.54 20.9145 29.54Z" fill="#B7D7E9"/>
<path fill-rule="evenodd" clip-rule="evenodd" d="M9.04458 2.40625C9.66894 2.40625 10.1751 2.9124 10.1751 3.53677V5.7978C10.1751 6.42216 9.66894 6.92831 9.04458 6.92831C8.42021 6.92831 7.91406 6.42216 7.91406 5.7978V3.53677C7.91406 2.9124 8.42021 2.40625 9.04458 2.40625Z" fill="#B7D7E9"/>
<path fill-rule="evenodd" clip-rule="evenodd" d="M27.1305 2.40625C27.7549 2.40625 28.261 2.9124 28.261 3.53677V5.7978C28.261 6.42216 27.7549 6.92831 27.1305 6.92831C26.5061 6.92831 26 6.42216 26 5.7978V3.53677C26 2.9124 26.5061 2.40625 27.1305 2.40625Z" fill="#B7D7E9"/>
<path fill-rule="evenodd" clip-rule="evenodd" d="M3.39062 10.3203H32.784V12.5813H3.39062V10.3203Z" fill="#B7D7E9"/>
</g>
</svg>
