<svg width="20" height="20" viewBox="0 0 20 20" fill="none" xmlns="http://www.w3.org/2000/svg">
<path d="M13.3359 6.66406C14.662 6.66406 15.9338 7.19085 16.8715 8.12853C17.8092 9.06621 18.3359 10.338 18.3359 11.6641V17.4974H15.0026V11.6641C15.0026 11.222 14.827 10.7981 14.5144 10.4856C14.2019 10.173 13.778 9.9974 13.3359 9.9974C12.8939 9.9974 12.47 10.173 12.1574 10.4856C11.8449 10.7981 11.6693 11.222 11.6693 11.6641V17.4974H8.33594V11.6641C8.33594 10.338 8.86272 9.06621 9.8004 8.12853C10.7381 7.19085 12.0099 6.66406 13.3359 6.66406V6.66406Z" stroke="#A8A7A7" stroke-width="2" stroke-linecap="round" stroke-linejoin="round"/>
<path d="M4.9974 7.5H1.66406V17.5H4.9974V7.5Z" stroke="#A8A7A7" stroke-width="2" stroke-linecap="round" stroke-linejoin="round"/>
<path d="M3.33073 4.9974C4.2512 4.9974 4.9974 4.2512 4.9974 3.33073C4.9974 2.41025 4.2512 1.66406 3.33073 1.66406C2.41025 1.66406 1.66406 2.41025 1.66406 3.33073C1.66406 4.2512 2.41025 4.9974 3.33073 4.9974Z" stroke="#A8A7A7" stroke-width="2" stroke-linecap="round" stroke-linejoin="round"/>
</svg>
