<svg width="130" height="26" viewBox="0 0 130 26" fill="none" xmlns="http://www.w3.org/2000/svg">
<path d="M27.7447 2.59213C25.6538 1.61385 23.4182 0.90288 21.0808 0.498047C20.7938 1.01703 20.4584 1.71507 20.2272 2.27036C17.7425 1.8967 15.2807 1.8967 12.8417 2.27036C12.6106 1.71507 12.2676 1.01703 11.978 0.498047C9.6381 0.90288 7.39985 1.61646 5.30896 2.59731C1.0916 8.97028 -0.0516494 15.185 0.519979 21.3114C3.31715 23.4002 6.02794 24.6692 8.69299 25.4995C9.351 24.5939 9.93786 23.6312 10.4434 22.6166C9.48056 22.2507 8.55834 21.7992 7.68695 21.2751C7.91812 21.1038 8.14425 20.9248 8.36272 20.7405C13.6776 23.2264 19.4523 23.2264 24.7037 20.7405C24.9247 20.9248 25.1508 21.1038 25.3794 21.2751C24.5055 21.8018 23.5807 22.2533 22.6179 22.6192C23.1234 23.6312 23.7078 24.5965 24.3683 25.5021C27.0359 24.6717 29.7492 23.4029 32.5464 21.3114C33.2171 14.2093 31.4006 8.05169 27.7447 2.59213ZM11.1675 17.5437C9.57204 17.5437 8.26362 16.0542 8.26362 14.2404C8.26362 12.4266 9.5441 10.9346 11.1675 10.9346C12.791 10.9346 14.0993 12.424 14.0714 14.2404C14.0739 16.0542 12.791 17.5437 11.1675 17.5437ZM21.8989 17.5437C20.3034 17.5437 18.995 16.0542 18.995 14.2404C18.995 12.4266 20.2754 10.9346 21.8989 10.9346C23.5223 10.9346 24.8307 12.424 24.8028 14.2404C24.8028 16.0542 23.5223 17.5437 21.8989 17.5437Z" fill="white"/>
<path d="M43.7891 6.87305H50.7246C52.3966 6.87305 53.809 7.14031 54.9678 7.67226C56.1234 8.20418 56.99 8.94632 57.5642 9.89604C58.1381 10.8458 58.4277 11.933 58.4277 13.1578C58.4277 14.3566 58.1279 15.4438 57.5284 16.4169C56.9289 17.3926 56.0167 18.1633 54.7898 18.7315C53.5628 19.2998 52.0432 19.5852 50.2269 19.5852H43.7891V6.87305ZM50.1557 16.3546C51.2812 16.3546 52.1477 16.0666 52.7521 15.4931C53.357 14.9171 53.6594 14.1334 53.6594 13.1396C53.6594 12.2184 53.3897 11.4841 52.8513 10.934C52.3129 10.3838 51.4973 10.1062 50.4072 10.1062H48.2375V16.3546H50.1557Z" fill="white"/>
<path d="M68.8152 19.5781C67.8548 19.3238 66.9883 18.9553 66.2188 18.4701V15.4549C66.8006 15.9141 67.5803 16.293 68.5584 16.5914C69.5365 16.8872 70.4818 17.0351 71.3962 17.0351C71.823 17.0351 72.1458 16.978 72.3641 16.8638C72.5828 16.7497 72.6922 16.6122 72.6922 16.4539C72.6922 16.2722 72.6337 16.1217 72.5142 15.9998C72.3946 15.8778 72.1635 15.7766 71.8208 15.691L69.6866 15.2005C68.4645 14.9099 67.598 14.5077 67.0826 13.9913C66.5668 13.4775 66.31 12.8029 66.31 11.9674C66.31 11.2641 66.5336 10.6544 66.9861 10.1328C67.4355 9.61124 68.0758 9.20902 68.9064 8.92617C69.7375 8.64075 70.7076 8.49805 71.823 8.49805C72.8188 8.49805 73.7309 8.60701 74.562 8.825C75.3927 9.04298 76.0786 9.3206 76.625 9.66052V12.5123C76.0657 12.1724 75.4255 11.9051 74.694 11.7027C73.9647 11.5029 73.2155 11.4043 72.4429 11.4043C71.3275 11.4043 70.7714 11.5989 70.7714 11.9855C70.7714 12.1672 70.8578 12.3021 71.0304 12.3929C71.2031 12.4837 71.5206 12.5772 71.9806 12.6758L73.7588 13.0027C74.9202 13.2077 75.7863 13.5684 76.3553 14.0822C76.9247 14.596 77.209 15.3563 77.209 16.3631C77.209 17.4658 76.7392 18.3403 75.7965 18.989C74.8538 19.6378 73.5175 19.9621 71.7849 19.9621C70.7661 19.9595 69.7756 19.8324 68.8152 19.5781Z" fill="white"/>
<path d="M81.4019 19.194C80.3835 18.6854 79.6135 17.9952 79.1003 17.1233C78.5872 16.2515 78.3281 15.2706 78.3281 14.1808C78.3281 13.091 78.5947 12.1153 79.1282 11.2564C79.6618 10.3975 80.4442 9.72282 81.4758 9.2324C82.5071 8.74197 83.7393 8.49805 85.1748 8.49805C86.953 8.49805 88.4293 8.8795 89.6031 9.64237V12.9664C89.1891 12.6758 88.706 12.4396 88.1547 12.258C87.6035 12.0764 87.0141 11.9855 86.3841 11.9855C85.2815 11.9855 84.4203 12.1905 83.7978 12.6031C83.1752 13.0157 82.8631 13.5528 82.8631 14.2197C82.8631 14.8736 83.1651 15.4082 83.7699 15.8285C84.3747 16.2463 85.251 16.4565 86.4018 16.4565C86.9938 16.4565 87.5782 16.3682 88.1547 16.1944C88.729 16.0179 89.2245 15.8026 89.6385 15.5482V18.7633C88.3354 19.5625 86.8237 19.9621 85.1035 19.9621C83.6556 19.9569 82.4207 19.7026 81.4019 19.194Z" fill="white"/>
<path d="M94.0407 19.1914C93.0144 18.6828 92.232 17.9874 91.6931 17.1026C91.1547 16.2177 90.8828 15.2317 90.8828 14.1418C90.8828 13.052 91.152 12.0789 91.6931 11.2252C92.2342 10.3715 93.0117 9.70203 94.0332 9.21679C95.0516 8.73155 96.2688 8.49023 97.6786 8.49023C99.0888 8.49023 100.306 8.73155 101.324 9.21679C102.343 9.70203 103.121 10.3663 103.654 11.2148C104.188 12.0634 104.454 13.0364 104.454 14.1393C104.454 15.2291 104.188 16.2151 103.654 17.0999C103.121 17.9848 102.341 18.6802 101.314 19.1888C100.288 19.6974 99.076 19.9517 97.6764 19.9517C96.2763 19.9517 95.0644 19.7 94.0407 19.1914ZM99.4444 15.9686C99.8765 15.5275 100.095 14.9437 100.095 14.2171C100.095 13.4905 99.8788 12.9119 99.4444 12.4837C99.0127 12.053 98.4229 11.8376 97.6764 11.8376C96.9166 11.8376 96.3219 12.053 95.8875 12.4837C95.4558 12.9145 95.2398 13.4905 95.2398 14.2171C95.2398 14.9437 95.4558 15.5275 95.8875 15.9686C96.3197 16.4097 96.9166 16.6329 97.6764 16.6329C98.4229 16.6303 99.0127 16.4097 99.4444 15.9686Z" fill="white"/>
<path d="M115.14 9.16834V13.0918C114.688 12.7882 114.104 12.6376 113.38 12.6376C112.432 12.6376 111.7 12.9309 111.192 13.5173C110.681 14.1038 110.427 15.0171 110.427 16.2523V19.5945H106.07V8.96856H110.339V12.3471C110.575 11.1119 110.959 10.2011 111.487 9.61205C112.013 9.02563 112.693 8.73242 113.522 8.73242C114.149 8.73242 114.688 8.87774 115.14 9.16834Z" fill="white"/>
<path d="M129.619 6.51367V19.5917H125.262V17.2123C124.893 18.1075 124.334 18.79 123.582 19.257C122.83 19.7215 121.9 19.955 120.798 19.955C119.812 19.955 118.954 19.7111 118.219 19.2207C117.485 18.7303 116.919 18.0582 116.52 17.2045C116.123 16.3508 115.922 15.3855 115.922 14.3061C115.91 13.1929 116.121 12.1938 116.555 11.309C116.987 10.4241 117.599 9.73392 118.387 9.23827C119.175 8.74267 120.074 8.49356 121.083 8.49356C123.158 8.49356 124.55 9.41472 125.262 11.2545V6.51367H129.619ZM124.611 15.8967C125.056 15.4556 125.277 14.8821 125.277 14.1815C125.277 13.5042 125.061 12.9515 124.629 12.5286C124.197 12.1056 123.605 11.8928 122.861 11.8928C122.127 11.8928 121.54 12.1082 121.1 12.5389C120.661 12.9697 120.442 13.5276 120.442 14.2178C120.442 14.9081 120.661 15.4711 121.1 15.9071C121.54 16.343 122.119 16.561 122.843 16.561C123.577 16.5584 124.167 16.3378 124.611 15.8967Z" fill="white"/>
<path d="M62.0942 10.0931C63.2936 10.0931 64.2664 9.20086 64.2664 8.10024C64.2664 6.99962 63.2936 6.10742 62.0942 6.10742C60.8942 6.10742 59.9219 6.99962 59.9219 8.10024C59.9219 9.20086 60.8942 10.0931 62.0942 10.0931Z" fill="white"/>
<path d="M59.9219 11.4668C61.2529 12.0532 62.9044 12.0792 64.266 11.4668V19.6458H59.9219V11.4668Z" fill="white"/>
</svg>
