<svg width="222" height="76" viewBox="0 0 242 76" fill="none" xmlns="http://www.w3.org/2000/svg">
<g filter="url(#filter0_d_1563_17014)">
<rect x="10" y="10" width="222" height="56" rx="28" fill="#4267B2"/>
<path fill-rule="evenodd" clip-rule="evenodd" d="M85.5 38.0859C85.5 30.3547 79.2313 24.0859 71.5 24.0859C63.7688 24.0859 57.5 30.3547 57.5 38.0859C57.5 45.0734 62.6188 50.8653 69.3125 51.9166V42.1341H65.7569V38.0859H69.3125V35.0016C69.3125 31.4934 71.4031 29.5541 74.6006 29.5541C76.1325 29.5541 77.735 29.8278 77.735 29.8278V33.2734H75.9688C74.2306 33.2734 73.6869 34.3522 73.6869 35.4609V38.0859H77.5694L76.9494 42.1341H73.6875V51.9178C80.3813 50.8672 85.5 45.0753 85.5 38.0859Z" fill="white"/>
<path d="M101.3 44.62C100.913 44.62 100.6 44.5 100.36 44.26C100.133 44.02 100.02 43.7067 100.02 43.32V31.62C100.02 31.2333 100.127 30.9333 100.34 30.72C100.567 30.5067 100.873 30.4 101.26 30.4H108.28C109.093 30.4 109.5 30.7467 109.5 31.44C109.5 32.12 109.093 32.46 108.28 32.46H102.56V36.3H107.88C108.693 36.3 109.1 36.6467 109.1 37.34C109.1 38.02 108.693 38.36 107.88 38.36H102.56V43.32C102.56 43.7067 102.447 44.02 102.22 44.26C101.993 44.5 101.687 44.62 101.3 44.62ZM115.075 34.48C116.435 34.48 117.442 34.82 118.095 35.5C118.762 36.1667 119.095 37.1867 119.095 38.56V43.44C119.095 43.8 118.988 44.0867 118.775 44.3C118.562 44.5 118.268 44.6 117.895 44.6C117.548 44.6 117.262 44.4933 117.035 44.28C116.822 44.0667 116.715 43.7867 116.715 43.44V43C116.488 43.52 116.128 43.9267 115.635 44.22C115.155 44.5133 114.595 44.66 113.955 44.66C113.302 44.66 112.708 44.5267 112.175 44.26C111.642 43.9933 111.222 43.6267 110.915 43.16C110.608 42.6933 110.455 42.1733 110.455 41.6C110.455 40.88 110.635 40.3133 110.995 39.9C111.368 39.4867 111.968 39.1867 112.795 39C113.622 38.8133 114.762 38.72 116.215 38.72H116.715V38.26C116.715 37.6067 116.575 37.1333 116.295 36.84C116.015 36.5333 115.562 36.38 114.935 36.38C114.548 36.38 114.155 36.44 113.755 36.56C113.355 36.6667 112.882 36.8267 112.335 37.04C111.988 37.2133 111.735 37.3 111.575 37.3C111.335 37.3 111.135 37.2133 110.975 37.04C110.828 36.8667 110.755 36.64 110.755 36.36C110.755 36.1333 110.808 35.94 110.915 35.78C111.035 35.6067 111.228 35.4467 111.495 35.3C111.962 35.0467 112.515 34.8467 113.155 34.7C113.808 34.5533 114.448 34.48 115.075 34.48ZM114.455 42.86C115.122 42.86 115.662 42.64 116.075 42.2C116.502 41.7467 116.715 41.1667 116.715 40.46V40.04H116.355C115.462 40.04 114.768 40.08 114.275 40.16C113.782 40.24 113.428 40.38 113.215 40.58C113.002 40.78 112.895 41.0533 112.895 41.4C112.895 41.8267 113.042 42.18 113.335 42.46C113.642 42.7267 114.015 42.86 114.455 42.86ZM125.976 44.66C125.003 44.66 124.143 44.4533 123.396 44.04C122.663 43.6267 122.096 43.04 121.696 42.28C121.296 41.52 121.096 40.6333 121.096 39.62C121.096 38.6067 121.303 37.7133 121.716 36.94C122.143 36.1533 122.736 35.5467 123.496 35.12C124.256 34.6933 125.129 34.48 126.116 34.48C126.636 34.48 127.156 34.5533 127.676 34.7C128.209 34.8467 128.676 35.0467 129.076 35.3C129.503 35.58 129.716 35.9333 129.716 36.36C129.716 36.6533 129.643 36.8933 129.496 37.08C129.363 37.2533 129.183 37.34 128.956 37.34C128.809 37.34 128.656 37.3067 128.496 37.24C128.336 37.1733 128.176 37.0933 128.016 37C127.723 36.8267 127.443 36.6933 127.176 36.6C126.909 36.4933 126.603 36.44 126.256 36.44C125.429 36.44 124.789 36.7133 124.336 37.26C123.896 37.7933 123.676 38.5667 123.676 39.58C123.676 40.58 123.896 41.3533 124.336 41.9C124.789 42.4333 125.429 42.7 126.256 42.7C126.589 42.7 126.883 42.6533 127.136 42.56C127.403 42.4533 127.696 42.3133 128.016 42.14C128.216 42.02 128.389 41.9333 128.536 41.88C128.683 41.8133 128.829 41.78 128.976 41.78C129.189 41.78 129.369 41.8733 129.516 42.06C129.663 42.2467 129.736 42.48 129.736 42.76C129.736 42.9867 129.683 43.1867 129.576 43.36C129.483 43.52 129.323 43.6667 129.096 43.8C128.683 44.0667 128.203 44.28 127.656 44.44C127.109 44.5867 126.549 44.66 125.976 44.66ZM139.142 41.82C139.368 41.82 139.548 41.9067 139.682 42.08C139.828 42.2533 139.902 42.4867 139.902 42.78C139.902 43.1933 139.655 43.54 139.162 43.82C138.708 44.0733 138.195 44.28 137.622 44.44C137.048 44.5867 136.502 44.66 135.982 44.66C134.408 44.66 133.162 44.2067 132.242 43.3C131.322 42.3933 130.862 41.1533 130.862 39.58C130.862 38.58 131.062 37.6933 131.462 36.92C131.862 36.1467 132.422 35.5467 133.142 35.12C133.875 34.6933 134.702 34.48 135.622 34.48C136.502 34.48 137.268 34.6733 137.922 35.06C138.575 35.4467 139.082 35.9933 139.442 36.7C139.802 37.4067 139.982 38.24 139.982 39.2C139.982 39.7733 139.728 40.06 139.222 40.06H133.322C133.402 40.98 133.662 41.66 134.102 42.1C134.542 42.5267 135.182 42.74 136.022 42.74C136.448 42.74 136.822 42.6867 137.142 42.58C137.475 42.4733 137.848 42.3267 138.262 42.14C138.662 41.9267 138.955 41.82 139.142 41.82ZM135.682 36.24C135.002 36.24 134.455 36.4533 134.042 36.88C133.642 37.3067 133.402 37.92 133.322 38.72H137.842C137.815 37.9067 137.615 37.2933 137.242 36.88C136.868 36.4533 136.348 36.24 135.682 36.24ZM147.647 34.48C148.5 34.48 149.253 34.6867 149.907 35.1C150.56 35.5133 151.067 36.1 151.427 36.86C151.8 37.62 151.987 38.5067 151.987 39.52C151.987 40.5333 151.8 41.4333 151.427 42.22C151.067 42.9933 150.553 43.5933 149.887 44.02C149.233 44.4467 148.487 44.66 147.647 44.66C146.94 44.66 146.307 44.5067 145.747 44.2C145.2 43.8933 144.78 43.4667 144.487 42.92V43.42C144.487 43.78 144.373 44.0667 144.147 44.28C143.92 44.4933 143.62 44.6 143.247 44.6C142.873 44.6 142.573 44.4933 142.347 44.28C142.133 44.0667 142.027 43.78 142.027 43.42V31.46C142.027 31.1133 142.14 30.8333 142.367 30.62C142.607 30.4067 142.913 30.3 143.287 30.3C143.66 30.3 143.96 30.4 144.187 30.6C144.413 30.8 144.527 31.0733 144.527 31.42V36.14C144.82 35.6067 145.24 35.2 145.787 34.92C146.333 34.6267 146.953 34.48 147.647 34.48ZM146.987 42.72C147.773 42.72 148.387 42.44 148.827 41.88C149.267 41.32 149.487 40.5333 149.487 39.52C149.487 38.52 149.267 37.7533 148.827 37.22C148.4 36.6867 147.787 36.42 146.987 36.42C146.187 36.42 145.567 36.6933 145.127 37.24C144.7 37.7733 144.487 38.5467 144.487 39.56C144.487 40.5733 144.7 41.3533 145.127 41.9C145.567 42.4467 146.187 42.72 146.987 42.72ZM158.498 44.66C157.498 44.66 156.618 44.4533 155.858 44.04C155.112 43.6267 154.532 43.0333 154.118 42.26C153.705 41.4867 153.498 40.5867 153.498 39.56C153.498 38.5333 153.705 37.64 154.118 36.88C154.532 36.1067 155.112 35.5133 155.858 35.1C156.618 34.6867 157.498 34.48 158.498 34.48C159.498 34.48 160.372 34.6867 161.118 35.1C161.878 35.5133 162.458 36.1067 162.858 36.88C163.272 37.64 163.478 38.5333 163.478 39.56C163.478 40.5867 163.272 41.4867 162.858 42.26C162.458 43.0333 161.878 43.6267 161.118 44.04C160.372 44.4533 159.498 44.66 158.498 44.66ZM158.478 42.72C159.292 42.72 159.912 42.4533 160.338 41.92C160.765 41.3867 160.978 40.6 160.978 39.56C160.978 38.5333 160.765 37.7533 160.338 37.22C159.912 36.6733 159.298 36.4 158.498 36.4C157.698 36.4 157.078 36.6733 156.638 37.22C156.212 37.7533 155.998 38.5333 155.998 39.56C155.998 40.6 156.212 41.3867 156.638 41.92C157.065 42.4533 157.678 42.72 158.478 42.72ZM170.002 44.66C169.002 44.66 168.122 44.4533 167.362 44.04C166.616 43.6267 166.036 43.0333 165.622 42.26C165.209 41.4867 165.002 40.5867 165.002 39.56C165.002 38.5333 165.209 37.64 165.622 36.88C166.036 36.1067 166.616 35.5133 167.362 35.1C168.122 34.6867 169.002 34.48 170.002 34.48C171.002 34.48 171.876 34.6867 172.622 35.1C173.382 35.5133 173.962 36.1067 174.362 36.88C174.776 37.64 174.982 38.5333 174.982 39.56C174.982 40.5867 174.776 41.4867 174.362 42.26C173.962 43.0333 173.382 43.6267 172.622 44.04C171.876 44.4533 171.002 44.66 170.002 44.66ZM169.982 42.72C170.796 42.72 171.416 42.4533 171.842 41.92C172.269 41.3867 172.482 40.6 172.482 39.56C172.482 38.5333 172.269 37.7533 171.842 37.22C171.416 36.6733 170.802 36.4 170.002 36.4C169.202 36.4 168.582 36.6733 168.142 37.22C167.716 37.7533 167.502 38.5333 167.502 39.56C167.502 40.6 167.716 41.3867 168.142 41.92C168.569 42.4533 169.182 42.72 169.982 42.72ZM185.746 42.56C186.013 42.8133 186.146 43.1 186.146 43.42C186.146 43.7267 186.033 44 185.806 44.24C185.593 44.48 185.339 44.6 185.046 44.6C184.753 44.6 184.479 44.48 184.226 44.24L179.546 40V43.42C179.546 43.8067 179.426 44.1 179.186 44.3C178.946 44.5 178.646 44.6 178.286 44.6C177.926 44.6 177.626 44.5 177.386 44.3C177.159 44.1 177.046 43.8067 177.046 43.42V31.48C177.046 31.0933 177.159 30.8 177.386 30.6C177.626 30.4 177.926 30.3 178.286 30.3C178.646 30.3 178.946 30.4 179.186 30.6C179.426 30.8 179.546 31.0933 179.546 31.48V39L183.826 34.9C184.066 34.66 184.339 34.54 184.646 34.54C184.953 34.54 185.219 34.6533 185.446 34.88C185.673 35.1067 185.786 35.3733 185.786 35.68C185.786 35.9867 185.659 36.2667 185.406 36.52L182.266 39.44L185.746 42.56Z" fill="white"/>
</g>
<defs>
<filter id="filter0_d_1563_17014" x="0" y="0" width="242" height="76" filterUnits="userSpaceOnUse" color-interpolation-filters="sRGB">
<feFlood flood-opacity="0" result="BackgroundImageFix"/>
<feColorMatrix in="SourceAlpha" type="matrix" values="0 0 0 0 0 0 0 0 0 0 0 0 0 0 0 0 0 0 127 0" result="hardAlpha"/>
<feOffset/>
<feGaussianBlur stdDeviation="5"/>
<feComposite in2="hardAlpha" operator="out"/>
<feColorMatrix type="matrix" values="0 0 0 0 0 0 0 0 0 0 0 0 0 0 0 0 0 0 0.3 0"/>
<feBlend mode="normal" in2="BackgroundImageFix" result="effect1_dropShadow_1563_17014"/>
<feBlend mode="normal" in="SourceGraphic" in2="effect1_dropShadow_1563_17014" result="shape"/>
</filter>
</defs>
</svg>
