<svg width="49" height="49" viewBox="0 0 49 49" fill="none" xmlns="http://www.w3.org/2000/svg">
<path opacity="0.1" fill-rule="evenodd" clip-rule="evenodd" d="M0.679688 24.561C0.679688 11.2854 11.4417 0.523438 24.7172 0.523438C37.9928 0.523438 48.7548 11.2854 48.7548 24.561C48.7548 37.8366 37.9928 48.5986 24.7172 48.5986C11.4417 48.5986 0.679688 37.8366 0.679688 24.561Z" fill="white"/>
<path fill-rule="evenodd" clip-rule="evenodd" d="M36.375 25.0703C36.375 18.7887 31.2816 13.6953 25 13.6953C18.7184 13.6953 13.625 18.7887 13.625 25.0703C13.625 30.7477 17.784 35.4536 23.2227 36.3077V28.3594H20.3337V25.0703H23.2227V22.5643C23.2227 19.7139 24.9213 18.1382 27.5193 18.1382C28.7639 18.1382 30.0659 18.3606 30.0659 18.3606V21.1602H28.6309C27.2186 21.1602 26.7768 22.0366 26.7768 22.9375V25.0703H29.9314L29.4276 28.3594H26.7773V36.3087C32.216 35.4551 36.375 30.7492 36.375 25.0703Z" fill="white"/>
</svg>
