<svg width="49" height="49" viewBox="0 0 49 49" fill="none" xmlns="http://www.w3.org/2000/svg">
<path opacity="0.1" fill-rule="evenodd" clip-rule="evenodd" d="M0.015625 24.561C0.015625 11.2854 10.7776 0.523438 24.0532 0.523438C37.3288 0.523438 48.0907 11.2854 48.0907 24.561C48.0907 37.8366 37.3288 48.5986 24.0532 48.5986C10.7776 48.5986 0.015625 37.8366 0.015625 24.561Z" fill="white"/>
<path fill-rule="evenodd" clip-rule="evenodd" d="M34.0717 16.3002C35.1749 16.6029 36.0438 17.4949 36.3386 18.6277C36.8744 20.6807 36.8744 24.9644 36.8744 24.9644C36.8744 24.9644 36.8744 29.2479 36.3386 31.3011C36.0438 32.4339 35.1749 33.3259 34.0717 33.6288C32.0723 34.1788 24.0544 34.1788 24.0544 34.1788C24.0544 34.1788 16.0365 34.1788 14.037 33.6288C12.9338 33.3259 12.0649 32.4339 11.77 31.3011C11.2344 29.2479 11.2344 24.9644 11.2344 24.9644C11.2344 24.9644 11.2344 20.6807 11.77 18.6277C12.0649 17.4949 12.9338 16.6029 14.037 16.3002C16.0365 15.75 24.0544 15.75 24.0544 15.75C24.0544 15.75 32.0723 15.75 34.0717 16.3002ZM21.6507 21.3587V29.3712L28.0607 25.3651L21.6507 21.3587Z" fill="white"/>
</svg>
