<svg width="49" height="49" viewBox="0 0 49 49" fill="none" xmlns="http://www.w3.org/2000/svg">
<path opacity="0.1" fill-rule="evenodd" clip-rule="evenodd" d="M0.902344 24.561C0.902344 11.2854 11.6643 0.523438 24.9399 0.523438C38.2155 0.523438 48.9775 11.2854 48.9775 24.561C48.9775 37.8366 38.2155 48.5986 24.9399 48.5986C11.6643 48.5986 0.902344 37.8366 0.902344 24.561Z" fill="white"/>
<path d="M33.8205 14.5H16.2944C15.3367 14.5 14.5 15.1891 14.5 16.1355V33.7005C14.5 34.652 15.3367 35.5 16.2944 35.5H33.8153C34.7781 35.5 35.5 34.6464 35.5 33.7005V16.1355C35.5056 15.1891 34.7781 14.5 33.8205 14.5ZM21.0095 32.0045H18.0011V22.6506H21.0095V32.0045ZM19.6094 21.2284H19.5878C18.625 21.2284 18.0016 20.5117 18.0016 19.6145C18.0016 18.7009 18.6414 18.0011 19.6258 18.0011C20.6102 18.0011 21.2125 18.6958 21.2341 19.6145C21.2336 20.5117 20.6102 21.2284 19.6094 21.2284ZM32.0045 32.0045H28.9961V26.89C28.9961 25.6647 28.5583 24.8275 27.4698 24.8275C26.6383 24.8275 26.1461 25.39 25.9272 25.938C25.8452 26.1348 25.8231 26.403 25.8231 26.6767V32.0045H22.8147V22.6506H25.8231V23.9523C26.2609 23.3289 26.9448 22.4317 28.5363 22.4317C30.5111 22.4317 32.005 23.7334 32.005 26.5398L32.0045 32.0045Z" fill="white"/>
</svg>
