<svg width="49" height="49" viewBox="0 0 49 49" fill="none" xmlns="http://www.w3.org/2000/svg">
<path opacity="0.1" fill-rule="evenodd" clip-rule="evenodd" d="M0.789062 24.561C0.789062 11.2854 11.551 0.523438 24.8266 0.523438C38.1022 0.523438 48.8642 11.2854 48.8642 24.561C48.8642 37.8366 38.1022 48.5986 24.8266 48.5986C11.551 48.5986 0.789062 37.8366 0.789062 24.561Z" fill="white"/>
<path fill-rule="evenodd" clip-rule="evenodd" d="M24.8212 12C21.3395 12 20.9025 12.0152 19.5351 12.0775C18.1702 12.14 17.2386 12.356 16.4235 12.6731C15.5803 13.0005 14.865 13.4385 14.1525 14.1514C13.4393 14.864 13.0013 15.5792 12.6728 16.4222C12.355 17.2376 12.1386 18.1694 12.0772 19.5337C12.016 20.9012 12 21.3384 12 24.8202C12 28.3019 12.0155 28.7375 12.0775 30.105C12.1402 31.4698 12.3563 32.4014 12.6731 33.2166C13.0008 34.0598 13.4388 34.775 14.1517 35.4876C14.864 36.2007 15.5792 36.6398 16.4219 36.9673C17.2376 37.2843 18.1694 37.5004 19.534 37.5629C20.9015 37.6251 21.3382 37.6403 24.8196 37.6403C28.3016 37.6403 28.7373 37.6251 30.1047 37.5629C31.4696 37.5004 32.4022 37.2843 33.2179 36.9673C34.0608 36.6398 34.775 36.2007 35.4873 35.4876C36.2005 34.775 36.6385 34.0598 36.967 33.2168C37.2822 32.4014 37.4985 31.4696 37.5626 30.1053C37.624 28.7378 37.6401 28.3019 37.6401 24.8202C37.6401 21.3384 37.624 20.9015 37.5626 19.534C37.4985 18.1692 37.2822 17.2376 36.967 16.4224C36.6385 15.5792 36.2005 14.864 35.4873 14.1514C34.7742 13.4383 34.0611 13.0002 33.2171 12.6731C32.3998 12.356 31.4677 12.14 30.1029 12.0775C28.7354 12.0152 28.3 12 24.8172 12H24.8212ZM23.6711 14.3103C24.0124 14.3097 24.3933 14.3103 24.8212 14.3103C28.2442 14.3103 28.6499 14.3226 30.0016 14.384C31.2516 14.4411 31.93 14.65 32.3819 14.8255C32.9801 15.0578 33.4067 15.3356 33.8551 15.7843C34.3038 16.233 34.5816 16.6604 34.8145 17.2586C34.99 17.71 35.1991 18.3884 35.256 19.6384C35.3174 20.9898 35.3308 21.3958 35.3308 24.8172C35.3308 28.2386 35.3174 28.6445 35.256 29.996C35.1988 31.246 34.99 31.9244 34.8145 32.3757C34.5821 32.974 34.3038 33.4 33.8551 33.8485C33.4064 34.2972 32.9804 34.5749 32.3819 34.8073C31.9305 34.9836 31.2516 35.1919 30.0016 35.2491C28.6501 35.3105 28.2442 35.3239 24.8212 35.3239C21.3979 35.3239 20.9922 35.3105 19.6408 35.2491C18.3908 35.1914 17.7124 34.9825 17.2602 34.807C16.6619 34.5747 16.2346 34.2969 15.7859 33.8482C15.3372 33.3995 15.0594 32.9732 14.8265 32.3747C14.651 31.9233 14.4419 31.2449 14.385 29.9949C14.3236 28.6435 14.3113 28.2375 14.3113 24.814C14.3113 21.3905 14.3236 20.9866 14.385 19.6352C14.4422 18.3852 14.651 17.7068 14.8265 17.2549C15.0589 16.6566 15.3372 16.2293 15.7859 15.7806C16.2346 15.3319 16.6619 15.0541 17.2602 14.8212C17.7121 14.6449 18.3908 14.4366 19.6408 14.3792C20.8234 14.3258 21.2817 14.3097 23.6711 14.3071V14.3103ZM31.6645 16.439C30.8151 16.439 30.1261 17.1272 30.1261 17.9768C30.1261 18.8262 30.8151 19.5153 31.6645 19.5153C32.5138 19.5153 33.2029 18.8262 33.2029 17.9768C33.2029 17.1275 32.5138 16.439 31.6645 16.439ZM24.8213 18.2364C21.1854 18.2364 18.2376 21.1843 18.2376 24.8201C18.2376 28.456 21.1854 31.4025 24.8213 31.4025C28.4571 31.4025 31.4039 28.456 31.4039 24.8201C31.4039 21.1843 28.4571 18.2364 24.8213 18.2364ZM24.8212 20.5467C27.1812 20.5467 29.0946 22.4599 29.0946 24.8201C29.0946 27.1801 27.1812 29.0935 24.8212 29.0935C22.461 29.0935 20.5478 27.1801 20.5478 24.8201C20.5478 22.4599 22.461 20.5467 24.8212 20.5467Z" fill="white"/>
</svg>
