<svg width="11" height="11" viewBox="0 0 12 12" fill="none" xmlns="http://www.w3.org/2000/svg">
<path fill-rule="evenodd" clip-rule="evenodd" d="M6.1165 2.22725C6.33617 2.44692 6.33617 2.80308 6.1165 3.02275L3.13925 6L6.1165 8.97725C6.33617 9.19692 6.33617 9.55308 6.1165 9.77275C5.89683 9.99242 5.54067 9.99242 5.321 9.77275L1.946 6.39775C1.72633 6.17808 1.72633 5.82192 1.946 5.60225L5.321 2.22725C5.54067 2.00758 5.89683 2.00758 6.1165 2.22725Z" fill="#403F3F"/>
<path fill-rule="evenodd" clip-rule="evenodd" d="M2.25 6C2.25 5.68934 2.50184 5.4375 2.8125 5.4375H9.65625C9.96691 5.4375 10.2188 5.68934 10.2188 6C10.2188 6.31066 9.96691 6.5625 9.65625 6.5625H2.8125C2.50184 6.5625 2.25 6.31066 2.25 6Z" fill="#403F3F"/>
</svg>
