<svg width="11" height="11" viewBox="0 0 12 12" fill="none" xmlns="http://www.w3.org/2000/svg">
<path fill-rule="evenodd" clip-rule="evenodd" d="M5.8835 2.22725C6.10317 2.00758 6.45933 2.00758 6.679 2.22725L10.054 5.60225C10.2737 5.82192 10.2737 6.17808 10.054 6.39775L6.679 9.77275C6.45933 9.99242 6.10317 9.99242 5.8835 9.77275C5.66383 9.55308 5.66383 9.19692 5.8835 8.97725L8.86075 6L5.8835 3.02275C5.66383 2.80308 5.66383 2.44692 5.8835 2.22725Z" fill="white"/>
<path fill-rule="evenodd" clip-rule="evenodd" d="M1.78125 6C1.78125 5.68934 2.03309 5.4375 2.34375 5.4375H9.1875C9.49816 5.4375 9.75 5.68934 9.75 6C9.75 6.31066 9.49816 6.5625 9.1875 6.5625H2.34375C2.03309 6.5625 1.78125 6.31066 1.78125 6Z" fill="white"/>
</svg>
