<svg width="37" height="37" viewBox="0 0 37 37" fill="none" xmlns="http://www.w3.org/2000/svg">
<g opacity="0.4">
<path fill-rule="evenodd" clip-rule="evenodd" d="M18.4355 3.5396C26.3917 3.72431 32.7849 10.2352 32.7849 18.2359C32.7849 26.3599 26.2179 32.9479 18.086 32.9326C9.94724 32.9173 3.30139 26.229 3.39153 18.0825C3.42831 14.5198 4.75896 11.092 7.13558 8.43768C7.55207 7.97252 8.26678 7.93307 8.73194 8.34955C9.1971 8.76604 9.23655 9.48075 8.82007 9.94591C6.80926 12.1917 5.68346 15.0919 5.65244 18.1062L5.65243 18.1071C5.57607 24.9893 11.2004 30.6586 18.0903 30.6716C24.966 30.6845 30.5238 25.1153 30.5238 18.2359C30.5238 11.7483 25.5558 6.41846 19.2187 5.84728V10.8876C19.2187 11.5119 18.7125 12.0181 18.0882 12.0181C17.4638 12.0181 16.9576 11.5119 16.9576 10.8876V4.97962C16.9574 4.78717 16.9957 4.59662 17.0704 4.41926C17.1454 4.24126 17.2554 4.08018 17.394 3.94562C17.5326 3.81106 17.6968 3.70578 17.8769 3.63606C18.0549 3.56717 18.2448 3.53439 18.4355 3.5396Z" fill="#B7D7E9"/>
<path d="M16.49 19.8328L10.9081 11.8486C10.8309 11.7379 10.7951 11.6037 10.8069 11.4693C10.8188 11.3349 10.8775 11.209 10.9729 11.1136C11.0683 11.0182 11.1943 10.9594 11.3287 10.9475C11.463 10.9357 11.5973 10.9715 11.7079 11.0487L19.6922 16.6307C20.182 16.9834 20.5131 17.5147 20.6142 18.1097C20.7152 18.7047 20.5779 19.3156 20.232 19.8102C19.8861 20.3047 19.3594 20.6432 18.7658 20.7525C18.1723 20.8617 17.5595 20.7329 17.0602 20.3939C16.8395 20.2409 16.6466 20.0511 16.49 19.8328Z" fill="#B7D7E9"/>
</g>
</svg>
