<svg width="37" height="37" viewBox="0 0 37 37" fill="none" xmlns="http://www.w3.org/2000/svg">
<g opacity="0.4">
<path fill-rule="evenodd" clip-rule="evenodd" d="M3.39062 18.7358C3.39062 10.6217 9.97329 4.03906 18.0873 4.03906C26.2013 4.03906 32.784 10.6217 32.784 18.7358C32.784 26.8498 26.2013 33.4325 18.0873 33.4325C9.97329 33.4325 3.39062 26.8498 3.39062 18.7358ZM18.0873 6.30009C11.222 6.30009 5.65165 11.8705 5.65165 18.7358C5.65165 25.6011 11.222 31.1714 18.0873 31.1714C24.9526 31.1714 30.523 25.6011 30.523 18.7358C30.523 11.8705 24.9526 6.30009 18.0873 6.30009Z" fill="#B7D7E9"/>
<path fill-rule="evenodd" clip-rule="evenodd" d="M3.39062 18.7358C3.39062 10.6217 9.97329 4.03906 18.0873 4.03906C26.2013 4.03906 32.784 10.6217 32.784 18.7358C32.784 26.8498 26.2013 33.4325 18.0873 33.4325C9.97329 33.4325 3.39062 26.8498 3.39062 18.7358ZM18.0873 6.30009C11.222 6.30009 5.65165 11.8705 5.65165 18.7358C5.65165 25.6011 11.222 31.1714 18.0873 31.1714C24.9526 31.1714 30.523 25.6011 30.523 18.7358C30.523 11.8705 24.9526 6.30009 18.0873 6.30009Z" fill="black" fill-opacity="0.2"/>
<path fill-rule="evenodd" clip-rule="evenodd" d="M18.0875 8.5625C18.7119 8.5625 19.2181 9.06865 19.2181 9.69302V18.7371H24.8706C25.495 18.7371 26.0012 19.2433 26.0012 19.8677C26.0012 20.492 25.495 20.9982 24.8706 20.9982H18.0875C17.4632 20.9982 16.957 20.492 16.957 19.8677V9.69302C16.957 9.06865 17.4632 8.5625 18.0875 8.5625Z" fill="#B7D7E9"/>
</g>
</svg>
