<svg width="124" height="30" viewBox="0 0 124 30" fill="none" xmlns="http://www.w3.org/2000/svg">
<path d="M46.5359 17.3883H46.4935L44.1775 7.99023H41.3956L39.0514 17.2746H39.009L36.8625 8.00445H33.8828L37.4697 21.6395H40.4776L42.7371 12.3694H42.7795L45.0672 21.6395H48.0186L51.662 8.00445H48.7388L46.5359 17.3883ZM60.7423 12.6111C60.474 12.2556 60.1068 11.9855 59.6549 11.7864C59.1889 11.5874 58.5958 11.4879 57.8897 11.4879C57.3813 11.4879 56.8729 11.6158 56.3363 11.886C55.7997 12.1419 55.376 12.5684 55.023 13.1372H54.9665V8.00445H52.2693V21.6395H54.9665V16.4642C54.9665 15.4547 55.136 14.7438 55.4608 14.303C55.7856 13.8623 56.3222 13.649 57.0565 13.649C57.7061 13.649 58.1439 13.8481 58.3981 14.2462C58.6523 14.6443 58.7794 15.2556 58.7794 16.0661V21.6395H61.4766V15.5684C61.4766 14.9571 61.4201 14.4026 61.3213 13.9049C61.1942 13.3931 61.0106 12.9665 60.7423 12.6111ZM71.8278 19.4357V14.303C71.8278 13.7059 71.7007 13.2225 71.4324 12.867C71.1641 12.4973 70.8252 12.2272 70.4156 12.0139C69.992 11.8149 69.5401 11.6727 69.0317 11.6016C68.5233 11.5305 68.0291 11.5021 67.5348 11.5021C66.9982 11.5021 66.4474 11.559 65.9108 11.6585C65.3742 11.7722 64.8941 11.9428 64.4563 12.1988C64.0326 12.4547 63.6655 12.7959 63.3972 13.2082C63.1147 13.6348 62.9594 14.1609 62.917 14.7864H65.6143C65.6707 14.2462 65.8402 13.8765 66.1509 13.6348C66.4474 13.4073 66.8711 13.2936 67.4077 13.2936C67.6478 13.2936 67.8737 13.3078 68.0856 13.3362C68.2974 13.3646 68.481 13.4357 68.6363 13.521C68.7916 13.6206 68.9187 13.7485 69.0176 13.9191C69.1164 14.0898 69.1588 14.3173 69.1588 14.6158C69.1729 14.9002 69.0882 15.1135 68.9187 15.2556C68.7352 15.3978 68.4951 15.5116 68.1985 15.5827C67.902 15.6537 67.5489 15.7106 67.1535 15.7533C66.7581 15.7959 66.3627 15.8386 65.9532 15.9097C65.5436 15.9665 65.1482 16.0661 64.7528 16.1656C64.3574 16.2793 64.0044 16.4357 63.6937 16.649C63.383 16.8623 63.1288 17.1609 62.9311 17.5163C62.7334 17.886 62.6346 18.3409 62.6346 18.8955C62.6346 19.4073 62.7193 19.8481 62.8888 20.2177C63.0582 20.5874 63.2983 20.886 63.5949 21.1277C63.8914 21.3694 64.2586 21.5542 64.654 21.668C65.0635 21.7817 65.4872 21.8386 65.9673 21.8386C66.5745 21.8386 67.1676 21.7533 67.7466 21.5684C68.3256 21.3836 68.834 21.085 69.2577 20.6301C69.2718 20.8007 69.2859 20.9571 69.3283 21.1135C69.3565 21.2699 69.3989 21.4263 69.4554 21.5827H72.1808C72.0538 21.3836 71.969 21.0708 71.9125 20.6727C71.856 20.303 71.8278 19.8765 71.8278 19.4357ZM69.1447 17.8149C69.1447 17.9713 69.1306 18.1703 69.1023 18.4263C69.0741 18.6822 68.9893 18.9381 68.8481 19.1798C68.7069 19.4215 68.4951 19.6348 68.1985 19.8196C67.902 20.0045 67.4924 20.0898 66.9699 20.0898C66.7581 20.0898 66.5463 20.0755 66.3486 20.0329C66.1509 19.9902 65.9673 19.9334 65.812 19.8338C65.6566 19.7343 65.5436 19.6064 65.4448 19.4357C65.3601 19.2651 65.3177 19.0661 65.3177 18.8244C65.3177 18.5684 65.3601 18.3552 65.4448 18.1988C65.5295 18.0282 65.6566 17.9002 65.7978 17.7864C65.9391 17.6727 66.1085 17.5874 66.3062 17.5305C66.5039 17.4737 66.7016 17.4168 66.8993 17.3741C67.1112 17.3315 67.323 17.303 67.5489 17.2746C67.7608 17.2462 67.9726 17.2177 68.1703 17.1751C68.368 17.1324 68.5516 17.0898 68.721 17.0329C68.8905 16.976 69.0317 16.8907 69.1447 16.7912V17.8149ZM76.8551 8.80066H74.1579V11.758H72.5339V13.5779H74.1579V19.3931C74.1579 19.8907 74.2426 20.2888 74.3979 20.6016C74.5674 20.9002 74.7934 21.1419 75.0758 21.3125C75.3582 21.4831 75.683 21.5827 76.0643 21.6395C76.4315 21.6964 76.8269 21.7248 77.2505 21.7248C77.5188 21.7248 77.7872 21.7248 78.0696 21.7106C78.352 21.6964 78.6062 21.668 78.8322 21.6395V19.5353C78.7051 19.5637 78.578 19.5779 78.4368 19.5921C78.2955 19.6064 78.1543 19.6064 77.999 19.6064C77.5471 19.6064 77.2364 19.5353 77.0952 19.3789C76.9399 19.2225 76.8692 18.9239 76.8692 18.4689V13.5779H78.8463V11.758H76.8692V8.80066H76.8551ZM87.983 17.303C87.7994 16.9902 87.5735 16.7343 87.2769 16.521C86.9804 16.3078 86.6556 16.1372 86.2884 16.0092C85.9213 15.8812 85.54 15.7817 85.1446 15.6822C84.7633 15.5969 84.3961 15.5116 84.0289 15.4405C83.6618 15.3694 83.337 15.2841 83.0545 15.1845C82.7721 15.085 82.5462 14.9713 82.3626 14.8149C82.179 14.6585 82.0943 14.4594 82.0943 14.2177C82.0943 14.0187 82.1366 13.8481 82.2496 13.7343C82.3485 13.6206 82.4756 13.521 82.6168 13.4642C82.758 13.4073 82.9275 13.3646 83.0969 13.3362C83.2805 13.322 83.4358 13.3078 83.5912 13.3078C84.0713 13.3078 84.495 13.3931 84.848 13.5779C85.201 13.7627 85.3988 14.1182 85.4411 14.63H87.9971C87.9407 14.0187 87.7853 13.521 87.5311 13.1087C87.2769 12.7106 86.9521 12.3836 86.5567 12.1419C86.1613 11.9002 85.7236 11.7296 85.2152 11.63C84.7209 11.5305 84.1984 11.4736 83.6759 11.4736C83.1393 11.4736 82.6309 11.5163 82.1225 11.6158C81.6141 11.7154 81.1622 11.8718 80.7527 12.1135C80.3432 12.3552 80.0184 12.668 79.7783 13.0803C79.5382 13.4926 79.4112 14.0045 79.4112 14.6443C79.4112 15.0708 79.4959 15.4405 79.6795 15.7391C79.8489 16.0376 80.089 16.2793 80.3856 16.4784C80.6821 16.6774 81.0069 16.8338 81.3882 16.9618C81.7554 17.0898 82.1366 17.1893 82.5321 17.2746C83.4923 17.4737 84.2408 17.6869 84.7774 17.886C85.314 18.085 85.5823 18.3978 85.5823 18.7959C85.5823 19.0376 85.5258 19.2367 85.4129 19.3931C85.2999 19.5495 85.1587 19.6774 84.9892 19.777C84.8198 19.8765 84.6221 19.9476 84.4244 19.9902C84.2125 20.0329 84.0148 20.0613 83.8312 20.0613C83.5629 20.0613 83.3087 20.0329 83.0687 19.9618C82.8286 19.9049 82.6027 19.8054 82.4191 19.6632C82.2355 19.5353 82.0802 19.3646 81.9531 19.1514C81.8401 18.9381 81.7695 18.6964 81.7695 18.3978H79.2135C79.2417 19.0661 79.3829 19.6064 79.6653 20.0471C79.9337 20.4879 80.2867 20.8433 80.7104 21.1135C81.134 21.3836 81.6141 21.5684 82.1649 21.6822C82.7015 21.7959 83.2664 21.8528 83.8312 21.8528C84.382 21.8528 84.9327 21.7959 85.4694 21.6964C86.006 21.5827 86.4861 21.3978 86.8956 21.1277C87.3193 20.8575 87.6441 20.5021 87.9124 20.0755C88.1666 19.6348 88.2937 19.0945 88.2937 18.4405C88.2372 17.9997 88.1525 17.6158 87.983 17.303ZM93.321 8.00445L88.209 21.6395H91.2028L92.2619 18.6111H97.3175L98.3342 21.6395H101.427L96.3713 8.00445H93.321ZM93.0386 16.3646L94.8038 11.3599H94.8462L96.5549 16.3646H93.0386ZM110.747 13.0945C110.38 12.6111 109.914 12.2272 109.363 11.9286C108.813 11.63 108.149 11.4879 107.372 11.4879C106.765 11.4879 106.214 11.6016 105.706 11.8433C105.197 12.085 104.788 12.4689 104.449 13.0092H104.407V11.7438H101.851V25.0661H104.548V20.3883H104.59C104.915 20.8718 105.339 21.2414 105.847 21.4831C106.355 21.7248 106.92 21.8528 107.527 21.8528C108.248 21.8528 108.883 21.7106 109.42 21.4263C109.956 21.1419 110.408 20.7722 110.761 20.303C111.128 19.8338 111.383 19.2936 111.566 18.6822C111.736 18.0708 111.835 17.431 111.835 16.777C111.835 16.0803 111.75 15.412 111.566 14.758C111.383 14.1466 111.1 13.5779 110.747 13.0945ZM109.01 17.886C108.94 18.2699 108.798 18.5969 108.615 18.8812C108.431 19.1656 108.191 19.4073 107.895 19.5779C107.598 19.7628 107.231 19.8481 106.793 19.8481C106.369 19.8481 106.002 19.7628 105.692 19.5779C105.381 19.4073 105.141 19.1656 104.957 18.8812C104.774 18.5969 104.647 18.2556 104.562 17.886C104.477 17.5021 104.435 17.1182 104.435 16.7201C104.435 16.3078 104.477 15.9239 104.548 15.54C104.618 15.1561 104.76 14.8149 104.943 14.5305C105.127 14.2319 105.367 14.0045 105.663 13.8196C105.96 13.6348 106.327 13.5353 106.765 13.5353C107.189 13.5353 107.556 13.6348 107.852 13.8196C108.149 14.0045 108.389 14.2462 108.587 14.5447C108.77 14.8433 108.911 15.1845 108.996 15.5684C109.081 15.9523 109.123 16.3362 109.123 16.7343C109.123 17.1182 109.095 17.5021 109.01 17.886ZM122.285 14.7864C122.101 14.1466 121.833 13.5779 121.466 13.0945C121.098 12.6111 120.632 12.2272 120.082 11.9286C119.531 11.63 118.867 11.4879 118.09 11.4879C117.483 11.4879 116.932 11.6016 116.424 11.8433C115.916 12.085 115.506 12.4689 115.167 13.0092H115.125V11.7438H112.569V25.0661H115.266V20.3883H115.308C115.633 20.8718 116.057 21.2414 116.565 21.4831C117.074 21.7248 117.639 21.8528 118.246 21.8528C118.966 21.8528 119.587 21.7106 120.138 21.4263C120.675 21.1419 121.127 20.7722 121.48 20.303C121.847 19.8338 122.115 19.2936 122.285 18.6822C122.468 18.0708 122.553 17.431 122.553 16.777C122.553 16.0945 122.454 15.4263 122.285 14.7864ZM119.743 17.886C119.672 18.2699 119.531 18.5969 119.361 18.8812C119.178 19.1656 118.938 19.4073 118.641 19.5779C118.345 19.7628 117.978 19.8481 117.54 19.8481C117.116 19.8481 116.749 19.7628 116.438 19.5779C116.128 19.4073 115.887 19.1656 115.704 18.8812C115.52 18.5969 115.393 18.2556 115.308 17.886C115.224 17.5021 115.181 17.1182 115.181 16.7201C115.181 16.3078 115.224 15.9239 115.294 15.54C115.365 15.1561 115.506 14.8149 115.69 14.5305C115.873 14.2319 116.113 14.0045 116.41 13.8196C116.707 13.6348 117.074 13.5353 117.526 13.5353C117.949 13.5353 118.316 13.6348 118.613 13.8196C118.91 14.0045 119.15 14.2462 119.347 14.5447C119.531 14.8433 119.672 15.1845 119.757 15.5684C119.842 15.9523 119.884 16.3362 119.884 16.7343C119.856 17.1182 119.813 17.5021 119.743 17.886Z" fill="white"/>
<g clip-path="url(#clip0_1262_69555)">
<path d="M25.4188 5.06897C22.7867 2.44659 19.2867 1.0016 15.5577 1C7.87349 1 1.62012 7.22387 1.61704 14.8739C1.61614 17.3193 2.25791 19.7063 3.47773 21.8104L1.5 29L8.89009 27.0707C10.9262 28.1763 13.2187 28.7588 15.5517 28.7598H15.5576H15.5577C23.2406 28.7598 29.4949 22.5348 29.4982 14.8851C29.4995 11.1776 28.0506 7.69155 25.4188 5.06897ZM15.5577 26.4164H15.5531C13.4737 26.4153 11.4345 25.8595 9.65578 24.8087L9.23248 24.5589L4.84705 25.7036L6.0179 21.4482L5.74211 21.0119C4.58216 19.1757 3.96981 17.0537 3.97068 14.8748C3.97323 8.51634 9.17079 3.34344 15.5621 3.34344C18.657 3.34472 21.566 4.5458 23.7537 6.72546C25.9414 8.90508 27.1453 11.8026 27.1443 14.8842C27.1416 21.2428 21.9439 26.4164 15.5577 26.4164Z" fill="#E0E0E0"/>
<path d="M2.14062 28.2018L4.02801 21.3407C2.86361 19.3326 2.25128 17.0545 2.25202 14.7213C2.25507 7.42084 8.22285 1.48145 15.5554 1.48145C19.1142 1.48305 22.4544 2.86195 24.9658 5.36462C27.4777 7.86726 28.8602 11.1938 28.8587 14.7316C28.8557 22.0322 22.8875 27.9722 15.5559 27.9722C15.5554 27.9722 15.5563 27.9722 15.5559 27.9722H15.55C13.3236 27.9715 11.136 27.415 9.19301 26.3608L2.14062 28.2018Z" fill="url(#paint0_linear_1262_69555)"/>
<path fill-rule="evenodd" clip-rule="evenodd" d="M12.1128 8.98415C11.8549 8.41326 11.5833 8.40183 11.338 8.39184C11.1373 8.38327 10.9075 8.3838 10.6781 8.3838C10.4485 8.3838 10.0755 8.46969 9.75997 8.81273C9.4443 9.15576 8.55469 9.98503 8.55469 11.6716C8.55469 13.3584 9.78867 14.9882 9.96067 15.2171C10.1329 15.4457 12.3427 19.0174 15.8425 20.3915C18.7512 21.5335 19.3431 21.3063 19.9744 21.2492C20.6058 21.192 22.0116 20.4201 22.2985 19.6195C22.5855 18.8192 22.5855 18.1331 22.4994 17.9897C22.4133 17.8469 22.1837 17.7612 21.8394 17.5897C21.495 17.4183 19.8022 16.5889 19.4866 16.4746C19.1709 16.3603 18.9413 16.3031 18.7117 16.6464C18.4822 16.9892 17.8227 17.7612 17.6218 17.9897C17.4209 18.2188 17.22 18.2474 16.8756 18.076C16.5313 17.904 15.4223 17.5424 14.1067 16.3745C13.0831 15.466 12.392 14.3439 12.1912 14.0007C11.9903 13.6578 12.1696 13.4721 12.3424 13.3012C12.497 13.1476 12.6867 12.901 12.8589 12.7008C13.0307 12.5007 13.0881 12.3578 13.2029 12.1292C13.3177 11.9003 13.2603 11.7001 13.1742 11.5287C13.0881 11.3573 12.419 9.662 12.1128 8.98415Z" fill="white"/>
<path d="M25.3083 5.02521C22.7064 2.43292 19.2465 1.00455 15.5604 1.00293C7.96439 1.00293 1.7828 7.15535 1.77975 14.7176C1.77885 17.1349 2.41325 19.4945 3.61906 21.5745L1.66406 28.6815L8.96932 26.7744C10.9821 27.8672 13.2483 28.4431 15.5545 28.444H15.5603H15.5604C23.1551 28.444 29.3376 22.2905 29.3408 14.7286C29.3421 11.0637 27.9099 7.61768 25.3083 5.02521ZM15.5604 26.1276H15.5559C13.5003 26.1265 11.4845 25.5771 9.72622 24.5383L9.30777 24.2914L4.97268 25.423L6.13008 21.2164L5.85745 20.7852C4.71082 18.97 4.10549 16.8724 4.10639 14.7185C4.10889 8.43303 9.24679 3.31952 15.5647 3.31952C18.6242 3.32077 21.4997 4.50807 23.6624 6.6627C25.8249 8.81732 27.0149 11.6816 27.014 14.7278C27.0113 21.0134 21.8732 26.1276 15.5604 26.1276Z" fill="white"/>
</g>
<defs>
<linearGradient id="paint0_linear_1262_69555" x1="15.4997" y1="28.2018" x2="15.4997" y2="1.48149" gradientUnits="userSpaceOnUse">
<stop stop-color="#20B038"/>
<stop offset="1" stop-color="#60D66A"/>
</linearGradient>
<clipPath id="clip0_1262_69555">
<rect width="28" height="28" fill="white" transform="translate(1.5 1)"/>
</clipPath>
</defs>
</svg>
