<svg xmlns="http://www.w3.org/2000/svg" width="14" height="14" viewBox="0 0 14 14" fill="none">
<path d="M8.59081 6.99942L13.0439 2.54629C13.2553 2.33532 13.3742 2.04904 13.3744 1.75041C13.3747 1.45179 13.2563 1.16529 13.0453 0.95395C12.8344 0.742605 12.5481 0.623725 12.2495 0.623462C11.9508 0.623198 11.6643 0.741572 11.453 0.952544L6.99988 5.40567L2.54675 0.952544C2.33541 0.741199 2.04876 0.622467 1.74988 0.622467C1.45099 0.622467 1.16435 0.741199 0.953001 0.952544C0.741657 1.16389 0.622925 1.45053 0.622925 1.74942C0.622925 2.0483 0.741657 2.33495 0.953001 2.54629L5.40613 6.99942L0.953001 11.4525C0.741657 11.6639 0.622925 11.9505 0.622925 12.2494C0.622925 12.5483 0.741657 12.8349 0.953001 13.0463C1.16435 13.2576 1.45099 13.3764 1.74988 13.3764C2.04876 13.3764 2.33541 13.2576 2.54675 13.0463L6.99988 8.59317L11.453 13.0463C11.6643 13.2576 11.951 13.3764 12.2499 13.3764C12.5488 13.3764 12.8354 13.2576 13.0468 13.0463C13.2581 12.8349 13.3768 12.5483 13.3768 12.2494C13.3768 11.9505 13.2581 11.6639 13.0468 11.4525L8.59081 6.99942Z" fill="currentColor"/>
</svg>
