<svg width="32" height="34" viewBox="0 0 32 34" fill="#00ADE6" xmlns="http://www.w3.org/2000/svg">
    <path d="M16.4426 12.5219C15.5193 12.4308 14.5905 12.6272 13.7832 13.0843C12.9759 13.5414 12.3296 14.2369 11.9328 15.0755C11.536 15.9141 11.4082 16.8549 11.5667 17.7689C11.7253 18.683 12.1625 19.5258 12.8185 20.1818C13.4745 20.8378 14.3172 21.275 15.2313 21.4335C16.1454 21.5921 17.0861 21.4642 17.9248 21.0674C18.7634 20.6707 19.4588 20.0244 19.916 19.2171C20.3731 18.4098 20.5695 17.4809 20.4783 16.5577C20.3744 15.5227 19.9158 14.5555 19.1802 13.82C18.4447 13.0845 17.4775 12.6259 16.4426 12.5219V12.5219ZM27.2772 16.9999C27.2743 17.489 27.2384 17.9774 27.1696 18.4617L30.3483 20.9548C30.4867 21.0696 30.58 21.2297 30.6115 21.4066C30.6431 21.5836 30.6108 21.7661 30.5206 21.9216L27.5134 27.1245C27.4221 27.2784 27.2794 27.3953 27.1104 27.4543C26.9414 27.5133 26.7569 27.5108 26.5896 27.4472L23.4327 26.176C23.2586 26.1067 23.07 26.0816 22.8839 26.1031C22.6978 26.1246 22.5198 26.1919 22.3661 26.299C21.8843 26.6308 21.378 26.9255 20.8517 27.1807C20.6862 27.2611 20.543 27.3811 20.4349 27.5299C20.3267 27.6788 20.2569 27.852 20.2315 28.0343L19.7583 31.4014C19.7273 31.5792 19.6354 31.7407 19.4984 31.8583C19.3615 31.9759 19.1879 32.0423 19.0074 32.0461H12.9932C12.8157 32.043 12.6445 31.9796 12.5079 31.8662C12.3713 31.7529 12.2774 31.5963 12.2416 31.4225L11.7691 28.0603C11.7426 27.876 11.6709 27.7012 11.5605 27.5513C11.4501 27.4014 11.3044 27.2811 11.1363 27.2011C10.6106 26.9473 10.106 26.6518 9.62749 26.3173C9.47428 26.2107 9.29696 26.1439 9.1115 26.1229C8.92604 26.1019 8.73827 26.1274 8.56512 26.1971L5.40894 27.4676C5.24168 27.5313 5.05731 27.5339 4.8883 27.475C4.7193 27.4161 4.5765 27.2994 4.48507 27.1456L1.47795 21.9427C1.38754 21.7872 1.35523 21.6047 1.38678 21.4277C1.41832 21.2507 1.51167 21.0906 1.65021 20.9759L4.33672 18.8666C4.4839 18.7498 4.59958 18.5981 4.67325 18.4252C4.74692 18.2523 4.77625 18.0638 4.75858 17.8767C4.73326 17.5835 4.7178 17.291 4.7178 16.9978C4.7178 16.7046 4.73256 16.4164 4.75858 16.1295C4.77431 15.9436 4.74355 15.7566 4.66904 15.5855C4.59454 15.4144 4.47865 15.2645 4.3318 15.1494L1.64669 13.0401C1.5104 12.9249 1.41902 12.7654 1.38855 12.5895C1.35809 12.4136 1.39048 12.2327 1.48006 12.0783L4.48718 6.87541C4.5785 6.72142 4.72125 6.60462 4.89026 6.54558C5.05928 6.48654 5.24371 6.48906 5.41104 6.55269L8.56793 7.82388C8.74202 7.8932 8.93058 7.91824 9.11673 7.89676C9.30287 7.87529 9.48079 7.80797 9.63452 7.70084C10.1163 7.36907 10.6226 7.07433 11.149 6.81916C11.3145 6.73873 11.4576 6.61878 11.5658 6.46992C11.6739 6.32106 11.7438 6.14786 11.7691 5.96561L12.2423 2.5985C12.2734 2.42068 12.3652 2.25916 12.5022 2.14157C12.6392 2.02397 12.8127 1.95759 12.9932 1.95377H19.0074C19.1849 1.95684 19.3561 2.02028 19.4927 2.13364C19.6293 2.247 19.7233 2.40352 19.759 2.57741L20.2315 5.93959C20.2581 6.12385 20.3297 6.2987 20.4401 6.44859C20.5505 6.59848 20.6962 6.71877 20.8643 6.79877C21.3901 7.05256 21.8946 7.3481 22.3731 7.68256C22.5264 7.78916 22.7037 7.85596 22.8891 7.87695C23.0746 7.89794 23.2624 7.87245 23.4355 7.80279L26.5917 6.5323C26.759 6.46861 26.9433 6.46598 27.1123 6.52489C27.2813 6.5838 27.4241 6.70046 27.5156 6.85432L30.5227 12.0572C30.6131 12.2126 30.6454 12.3951 30.6139 12.5722C30.5823 12.7492 30.489 12.9093 30.3504 13.0239L27.6639 15.1332C27.5161 15.2497 27.3997 15.4013 27.3254 15.5742C27.2511 15.7471 27.2213 15.9358 27.2385 16.1232C27.2617 16.4143 27.2772 16.7067 27.2772 16.9999Z" stroke="#00ADE6" stroke-width="2.24989" stroke-linecap="round" stroke-linejoin="round"/>
</svg>