<svg viewBox="0 0 25 25" fill="none" xmlns="http://www.w3.org/2000/svg">
<path d="M12.5915 24.828C19.3242 24.828 24.7821 19.3701 24.7821 12.6374C24.7821 5.90469 19.3242 0.446777 12.5915 0.446777C5.85879 0.446777 0.400879 5.90469 0.400879 12.6374C0.400879 19.3701 5.85879 24.828 12.5915 24.828Z" fill="url(#paint0_radial_213_17101)"/>
<g style="mix-blend-mode:soft-light">
<path d="M12.5915 24.828C19.3242 24.828 24.7821 19.3701 24.7821 12.6374C24.7821 5.90469 19.3242 0.446777 12.5915 0.446777C5.85879 0.446777 0.400879 5.90469 0.400879 12.6374C0.400879 19.3701 5.85879 24.828 12.5915 24.828Z" fill="url(#paint1_radial_213_17101)"/>
</g>
<g style="mix-blend-mode:soft-light">
<path d="M12.5915 24.828C19.3242 24.828 24.7821 19.3701 24.7821 12.6374C24.7821 5.90469 19.3242 0.446777 12.5915 0.446777C5.85879 0.446777 0.400879 5.90469 0.400879 12.6374C0.400879 19.3701 5.85879 24.828 12.5915 24.828Z" fill="url(#paint2_radial_213_17101)"/>
</g>
<g style="mix-blend-mode:overlay">
<path d="M12.5915 24.828C19.3242 24.828 24.7821 19.3701 24.7821 12.6374C24.7821 5.90469 19.3242 0.446777 12.5915 0.446777C5.85879 0.446777 0.400879 5.90469 0.400879 12.6374C0.400879 19.3701 5.85879 24.828 12.5915 24.828Z" fill="url(#paint3_radial_213_17101)" fill-opacity="0.7"/>
</g>
<mask id="mask0_213_17101" style="mask-type:alpha" maskUnits="userSpaceOnUse" x="0" y="0" width="25" height="25">
<path d="M12.5915 24.828C19.3242 24.828 24.7821 19.3701 24.7821 12.6374C24.7821 5.90469 19.3242 0.446777 12.5915 0.446777C5.85879 0.446777 0.400879 5.90469 0.400879 12.6374C0.400879 19.3701 5.85879 24.828 12.5915 24.828Z" fill="white"/>
</mask>
<g mask="url(#mask0_213_17101)">
<g filter="url(#filter0_f_213_17101)">
<path d="M0.331365 12.2894C0.344602 12.1162 0.401603 12.0988 0.418229 12.2747C0.4367 12.4701 0.400794 12.863 0.409438 13.0999C0.432328 13.7274 0.528509 14.2729 0.627661 14.7167C0.947182 16.1467 1.38967 17.0682 1.80238 17.8489C3.159 20.4152 4.64506 21.7147 6.09476 22.6941C8.21978 24.1297 10.3621 24.5864 12.5061 24.6833C12.5602 24.6857 12.5692 25.038 12.516 25.0838C12.42 25.1665 12.3012 25.0845 12.203 25.081C11.921 25.0711 11.639 25.0518 11.357 25.0225C10.5208 24.9356 9.68465 24.7586 8.8502 24.4739C6.58135 23.6998 4.13505 22.3744 1.99862 18.6411C1.86422 18.4063 1.73089 18.159 1.59944 17.8933C1.49432 17.6808 1.39022 17.4581 1.28795 17.2199C0.951583 16.4363 0.167732 14.4305 0.331365 12.2894ZM12.5076 25.0876C12.456 25.0892 12.4429 24.7608 12.4921 24.6926C12.5664 24.5896 12.6778 24.6744 12.7562 24.6695C13.0817 24.6492 13.407 24.619 13.7323 24.5782C14.6242 24.4662 15.5155 24.275 16.4047 23.9805C18.6103 23.2501 20.9816 22.1365 23.0608 18.7154C23.1931 18.4976 23.3243 18.2667 23.4537 18.0183C23.847 17.2638 24.8327 15.2607 24.7188 12.7707C24.7092 12.5608 24.7731 12.4351 24.8017 12.6152C24.8381 12.8444 24.8233 13.3224 24.8133 13.5768C24.7812 14.3913 24.6561 15.0802 24.5242 15.6365C24.1061 17.3996 23.5193 18.4218 22.9818 19.2754C21.235 22.0497 19.3377 23.1681 17.4932 23.9718C15.8388 24.6926 14.1718 25.0362 12.5076 25.0876Z" fill="#401C02"/>
</g>
<g filter="url(#filter1_f_213_17101)">
<path d="M0.331365 12.2894C0.344602 12.1162 0.401603 12.0988 0.418229 12.2747C0.4367 12.4701 0.400794 12.863 0.409438 13.0999C0.432328 13.7274 0.528509 14.2729 0.627661 14.7167C0.947182 16.1467 1.38967 17.0682 1.80238 17.8489C3.159 20.4152 4.64506 21.7147 6.09476 22.6941C8.21978 24.1297 10.3621 24.5864 12.5061 24.6833C12.5602 24.6857 12.5692 25.038 12.516 25.0838C12.42 25.1665 12.3012 25.0845 12.203 25.081C11.921 25.0711 11.639 25.0518 11.357 25.0225C10.5208 24.9356 9.68465 24.7586 8.8502 24.4739C6.58135 23.6998 4.13505 22.3744 1.99862 18.6411C1.86422 18.4063 1.73089 18.159 1.59944 17.8933C1.49432 17.6808 1.39022 17.4581 1.28795 17.2199C0.951583 16.4363 0.167732 14.4305 0.331365 12.2894ZM12.5076 25.0876C12.456 25.0892 12.4429 24.7608 12.4921 24.6926C12.5664 24.5896 12.6778 24.6744 12.7562 24.6695C13.0817 24.6492 13.407 24.619 13.7323 24.5782C14.6242 24.4662 15.5155 24.275 16.4047 23.9805C18.6103 23.2501 20.9816 22.1365 23.0608 18.7154C23.1931 18.4976 23.3243 18.2667 23.4537 18.0183C23.847 17.2638 24.8327 15.2607 24.7188 12.7707C24.7092 12.5608 24.7731 12.4351 24.8017 12.6152C24.8381 12.8444 24.8233 13.3224 24.8133 13.5768C24.7812 14.3913 24.6561 15.0802 24.5242 15.6365C24.1061 17.3996 23.5193 18.4218 22.9818 19.2754C21.235 22.0497 19.3377 23.1681 17.4932 23.9718C15.8388 24.6926 14.1718 25.0362 12.5076 25.0876Z" fill="#401C02"/>
</g>
</g>
<path d="M9.04916 12.5799C9.77776 12.5799 10.3684 10.9275 10.3684 8.88908C10.3684 6.85069 9.77776 5.19824 9.04916 5.19824C8.32056 5.19824 7.72992 6.85069 7.72992 8.88908C7.72992 10.9275 8.32056 12.5799 9.04916 12.5799Z" fill="url(#paint4_radial_213_17101)"/>
<path d="M9.04916 12.5799C9.77776 12.5799 10.3684 10.9275 10.3684 8.88908C10.3684 6.85069 9.77776 5.19824 9.04916 5.19824C8.32056 5.19824 7.72992 6.85069 7.72992 8.88908C7.72992 10.9275 8.32056 12.5799 9.04916 12.5799Z" stroke="url(#paint5_linear_213_17101)" stroke-width="0.101096" stroke-miterlimit="10"/>
<path d="M16.1558 12.5799C16.8844 12.5799 17.475 10.9275 17.475 8.88908C17.475 6.85069 16.8844 5.19824 16.1558 5.19824C15.4272 5.19824 14.8366 6.85069 14.8366 8.88908C14.8366 10.9275 15.4272 12.5799 16.1558 12.5799Z" fill="url(#paint6_radial_213_17101)"/>
<path d="M16.1558 12.5799C16.8844 12.5799 17.475 10.9275 17.475 8.88908C17.475 6.85069 16.8844 5.19824 16.1558 5.19824C15.4272 5.19824 14.8366 6.85069 14.8366 8.88908C14.8366 10.9275 15.4272 12.5799 16.1558 12.5799Z" stroke="url(#paint7_linear_213_17101)" stroke-width="0.101096" stroke-miterlimit="10"/>
<path d="M20.6419 15.9102C19.9075 17.4201 18.7632 18.693 17.3398 19.5835C15.9163 20.4741 14.2711 20.9463 12.592 20.9463C10.913 20.9463 9.26774 20.4741 7.84429 19.5835C6.42085 18.693 5.27656 17.4201 4.54213 15.9102C6.88997 16.73 9.64724 17.2021 12.592 17.2021C15.5368 17.2021 18.2941 16.73 20.6419 15.9102Z" fill="url(#paint8_radial_213_17101)"/>
<path d="M21.403 13.5659C21.3939 13.6165 21.3843 13.667 21.3742 13.7201C21.3641 13.7732 21.356 13.8131 21.3459 13.8591C21.3459 13.8682 21.3424 13.8768 21.3403 13.8854C21.3307 13.9324 21.3201 13.9789 21.3095 14.0254C21.2989 14.0719 21.2893 14.1098 21.2787 14.1517C21.2726 14.177 21.2665 14.2023 21.2595 14.2276C21.2569 14.2387 21.2539 14.2503 21.2509 14.2614C21.2443 14.2877 21.2372 14.312 21.2301 14.3398C21.2301 14.3499 21.2251 14.36 21.2221 14.3701C21.2123 14.4058 21.2022 14.4417 21.1917 14.4778C21.1781 14.5283 21.1634 14.5748 21.1488 14.6233V14.6264C21.1346 14.6719 21.1205 14.7179 21.1053 14.7633C21.0724 14.8644 21.0381 14.9655 21.0042 15.0666C20.9865 15.1172 20.9683 15.1632 20.9501 15.2107C20.9319 15.2582 20.9188 15.2915 20.9026 15.332C20.8783 15.3926 20.8521 15.4528 20.8278 15.5124C20.8111 15.5519 20.7939 15.5913 20.7773 15.6302L20.7747 15.6353C20.7581 15.6732 20.7409 15.7106 20.7242 15.748L20.6969 15.8066C20.6802 15.842 20.6635 15.8774 20.6463 15.9122C18.2985 16.7321 15.5412 17.2042 12.5964 17.2042C9.65166 17.2042 6.89439 16.7321 4.54655 15.9122C4.52936 15.8774 4.51268 15.842 4.496 15.8066L4.46871 15.748C4.45152 15.7106 4.43434 15.6732 4.41816 15.6353L4.41564 15.6302C4.39845 15.5913 4.38126 15.5519 4.36509 15.5124C4.33931 15.4528 4.31455 15.3926 4.29028 15.332C4.27411 15.2915 4.25844 15.2511 4.24277 15.2107C4.2271 15.1702 4.20638 15.1151 4.18869 15.0666C4.15229 14.9655 4.11792 14.867 4.08507 14.7633C4.0699 14.7179 4.05575 14.6719 4.0416 14.6264V14.6233C4.02694 14.5728 4.01228 14.5263 3.99863 14.4778C3.98785 14.442 3.97774 14.4062 3.96831 14.3701C3.96528 14.36 3.96275 14.3499 3.96022 14.3398C3.95314 14.314 3.94607 14.2892 3.9395 14.2614C3.93646 14.2503 3.93343 14.2387 3.9309 14.2276C3.92383 14.2023 3.91776 14.177 3.9117 14.1517C3.90108 14.1098 3.89097 14.0673 3.88086 14.0254C3.87075 13.9834 3.85963 13.9324 3.85003 13.8854C3.85003 13.8768 3.84599 13.8682 3.84447 13.8591C3.83436 13.8131 3.82526 13.7666 3.81616 13.7201C3.80707 13.6736 3.79645 13.619 3.78735 13.5659C6.29138 14.5591 9.32716 15.1409 12.5985 15.1409C15.8698 15.1409 18.899 14.5591 21.403 13.5659Z" fill="url(#paint9_linear_213_17101)"/>
<path d="M20.6419 15.9102C18.2941 16.73 15.5368 17.2021 12.592 17.2021C9.64724 17.2021 6.88997 16.73 4.54213 15.9102" stroke="url(#paint10_radial_213_17101)" stroke-width="0.303287" stroke-miterlimit="10"/>
<mask id="mask1_213_17101" style="mask-type:alpha" maskUnits="userSpaceOnUse" x="3" y="13" width="19" height="8">
<path d="M21.1232 13.6242C21.1511 13.6135 21.1813 13.6106 21.2108 13.6157C21.2402 13.6208 21.2677 13.6337 21.2904 13.6531C21.313 13.6725 21.3301 13.6977 21.3397 13.7259C21.3494 13.7542 21.3512 13.7845 21.3451 13.8137C20.9174 15.8178 19.8148 17.6145 18.2217 18.9035C16.6286 20.1925 14.6414 20.8957 12.5921 20.8957C10.5428 20.8957 8.55563 20.1925 6.96251 18.9035C5.36939 17.6145 4.26686 15.8178 3.83912 13.8137C3.833 13.7845 3.83485 13.7542 3.84448 13.7259C3.85412 13.6977 3.87118 13.6725 3.89387 13.6531C3.91657 13.6337 3.94406 13.6208 3.97347 13.6157C4.00288 13.6106 4.03312 13.6135 4.06102 13.6242C6.50996 14.5512 9.4416 15.09 12.5921 15.09C15.7426 15.09 18.6743 14.5512 21.1232 13.6242Z" fill="url(#paint11_linear_213_17101)"/>
</mask>
<g mask="url(#mask1_213_17101)">
<g filter="url(#filter2_f_213_17101)">
<path d="M21.1232 13.6242C21.1511 13.6135 21.1813 13.6106 21.2108 13.6157C21.2402 13.6208 21.2677 13.6337 21.2904 13.6531C21.313 13.6725 21.3301 13.6977 21.3397 13.7259C21.3494 13.7542 21.3512 13.7845 21.3451 13.8137C20.9174 15.8178 19.8148 17.6145 18.2217 18.9035C16.6286 20.1925 14.6414 20.8957 12.5921 20.8957C10.5428 20.8957 8.55563 20.1925 6.96251 18.9035C5.36939 17.6145 4.26686 15.8178 3.83912 13.8137C3.833 13.7845 3.83485 13.7542 3.84448 13.7259C3.85412 13.6977 3.87118 13.6725 3.89387 13.6531C3.91657 13.6337 3.94406 13.6208 3.97347 13.6157C4.00288 13.6106 4.03312 13.6135 4.06102 13.6242C6.50996 14.5512 9.4416 15.09 12.5921 15.09C15.7426 15.09 18.6743 14.5512 21.1232 13.6242Z" stroke="url(#paint12_linear_213_17101)" stroke-width="0.606573" stroke-miterlimit="10"/>
</g>
</g>
<mask id="path-17-outside-1_213_17101" maskUnits="userSpaceOnUse" x="2.83549" y="12.6641" width="19" height="9" fill="black">
<rect fill="white" x="2.83549" y="12.6641" width="19" height="9"/>
<path d="M21.1231 13.6749C21.151 13.6643 21.1812 13.6614 21.2107 13.6665C21.2401 13.6716 21.2676 13.6845 21.2903 13.7039C21.313 13.7233 21.33 13.7484 21.3396 13.7767C21.3493 13.8049 21.3511 13.8353 21.345 13.8645C20.9173 15.8686 19.8147 17.6653 18.2216 18.9543C16.6285 20.2433 14.6413 20.9465 12.592 20.9465C10.5427 20.9465 8.55554 20.2433 6.96242 18.9543C5.3693 17.6653 4.26676 15.8686 3.83903 13.8645C3.83291 13.8353 3.83476 13.8049 3.84439 13.7767C3.85403 13.7484 3.87108 13.7233 3.89378 13.7039C3.91648 13.6845 3.94397 13.6716 3.97338 13.6665C4.00279 13.6614 4.03303 13.6643 4.06093 13.6749C6.50987 14.6019 9.44151 15.1408 12.592 15.1408C15.7425 15.1408 18.6742 14.6019 21.1231 13.6749Z"/>
</mask>
<path d="M21.1231 13.6749L21.2931 14.124L21.2939 14.1237L21.1231 13.6749ZM21.345 13.8645L21.8146 13.9647L21.815 13.963L21.345 13.8645ZM3.83903 13.8645L3.36904 13.963L3.36941 13.9647L3.83903 13.8645ZM4.06093 13.6749L3.89016 14.1237L3.89093 14.124L4.06093 13.6749ZM21.2939 14.1237C21.2412 14.1438 21.1841 14.1493 21.1286 14.1397L21.2927 13.1934C21.1784 13.1735 21.0608 13.1849 20.9523 13.2261L21.2939 14.1237ZM21.1286 14.1397C21.0731 14.13 21.0212 14.1056 20.9784 14.069L21.6022 13.3388C21.5139 13.2634 21.407 13.2132 21.2927 13.1934L21.1286 14.1397ZM20.9784 14.069C20.9355 14.0325 20.9033 13.985 20.8851 13.9317L21.7942 13.6217C21.7567 13.5119 21.6904 13.4142 21.6022 13.3388L20.9784 14.069ZM20.8851 13.9317C20.867 13.8783 20.8635 13.8211 20.875 13.7659L21.815 13.963C21.8388 13.8494 21.8316 13.7316 21.7942 13.6217L20.8851 13.9317ZM20.8754 13.7642C20.4706 15.6609 19.4272 17.3611 17.9196 18.581L18.5237 19.3276C20.2023 17.9694 21.364 16.0764 21.8146 13.9647L20.8754 13.7642ZM17.9196 18.581C16.4119 19.8008 14.5313 20.4663 12.592 20.4663V21.4267C14.7512 21.4267 16.8451 20.6857 18.5237 19.3276L17.9196 18.581ZM12.592 20.4663C10.6527 20.4663 8.77211 19.8008 7.26446 18.581L6.66037 19.3276C8.33896 20.6857 10.4328 21.4267 12.592 21.4267V20.4663ZM7.26446 18.581C5.75682 17.3611 4.71344 15.6609 4.30866 13.7642L3.36941 13.9647C3.82009 16.0764 4.98177 17.9694 6.66037 19.3276L7.26446 18.581ZM4.30902 13.7659C4.32058 13.8211 4.31708 13.8783 4.2989 13.9317L3.38988 13.6217C3.35244 13.7315 3.34523 13.8494 3.36905 13.963L4.30902 13.7659ZM4.2989 13.9317C4.28072 13.985 4.24852 14.0324 4.20568 14.069L3.58188 13.3388C3.49365 13.4142 3.42733 13.5119 3.38988 13.6217L4.2989 13.9317ZM4.20568 14.069C4.16283 14.1056 4.11093 14.13 4.05542 14.1397L3.89135 13.1934C3.77702 13.2132 3.67012 13.2634 3.58188 13.3388L4.20568 14.069ZM4.05542 14.1397C3.99991 14.1493 3.94283 14.1438 3.89016 14.1237L4.2317 13.2261C4.12324 13.1848 4.00567 13.1735 3.89135 13.1934L4.05542 14.1397ZM3.89093 14.124C6.39883 15.0734 9.38862 15.621 12.592 15.621V14.6606C9.49441 14.6606 6.6209 14.1305 4.23093 13.2258L3.89093 14.124ZM12.592 15.621C15.7954 15.621 18.7852 15.0734 21.2931 14.124L20.9531 13.2258C18.5631 14.1305 15.6896 14.6606 12.592 14.6606V15.621Z" fill="url(#paint13_linear_213_17101)" mask="url(#path-17-outside-1_213_17101)"/>
<path d="M21.1231 13.6749C21.151 13.6643 21.1812 13.6614 21.2107 13.6665C21.2401 13.6716 21.2676 13.6845 21.2903 13.7039C21.313 13.7233 21.33 13.7484 21.3396 13.7767C21.3493 13.8049 21.3511 13.8353 21.345 13.8645C20.9173 15.8686 19.8147 17.6653 18.2216 18.9543C16.6285 20.2433 14.6413 20.9465 12.592 20.9465C10.5427 20.9465 8.55554 20.2433 6.96242 18.9543C5.3693 17.6653 4.26676 15.8686 3.83903 13.8645C3.83291 13.8353 3.83476 13.8049 3.84439 13.7767C3.85403 13.7484 3.87108 13.7233 3.89378 13.7039C3.91648 13.6845 3.94397 13.6716 3.97338 13.6665C4.00279 13.6614 4.03303 13.6643 4.06093 13.6749C6.50987 14.6019 9.44151 15.1408 12.592 15.1408C15.7425 15.1408 18.6742 14.6019 21.1231 13.6749Z" stroke="url(#paint14_linear_213_17101)" stroke-width="0.606573" stroke-miterlimit="10"/>
<defs>
<filter id="filter0_f_213_17101" x="-0.954521" y="10.8872" width="27.0431" height="15.4971" filterUnits="userSpaceOnUse" color-interpolation-filters="sRGB">
<feFlood flood-opacity="0" result="BackgroundImageFix"/>
<feBlend mode="normal" in="SourceGraphic" in2="BackgroundImageFix" result="shape"/>
<feGaussianBlur stdDeviation="0.631847" result="effect1_foregroundBlur_213_17101"/>
</filter>
<filter id="filter1_f_213_17101" x="-1.71274" y="10.129" width="28.5596" height="17.0135" filterUnits="userSpaceOnUse" color-interpolation-filters="sRGB">
<feFlood flood-opacity="0" result="BackgroundImageFix"/>
<feBlend mode="normal" in="SourceGraphic" in2="BackgroundImageFix" result="shape"/>
<feGaussianBlur stdDeviation="1.01096" result="effect1_foregroundBlur_213_17101"/>
</filter>
<filter id="filter2_f_213_17101" x="3.02682" y="12.8046" width="19.1306" height="8.90012" filterUnits="userSpaceOnUse" color-interpolation-filters="sRGB">
<feFlood flood-opacity="0" result="BackgroundImageFix"/>
<feBlend mode="normal" in="SourceGraphic" in2="BackgroundImageFix" result="shape"/>
<feGaussianBlur stdDeviation="0.252739" result="effect1_foregroundBlur_213_17101"/>
</filter>
<radialGradient id="paint0_radial_213_17101" cx="0" cy="0" r="1" gradientUnits="userSpaceOnUse" gradientTransform="translate(12.5824 0.446777) rotate(90) scale(24.363)">
<stop stop-color="#FFDE43"/>
<stop offset="1" stop-color="#FFBC00"/>
</radialGradient>
<radialGradient id="paint1_radial_213_17101" cx="0" cy="0" r="1" gradientUnits="userSpaceOnUse" gradientTransform="translate(12.5824 3.70697) rotate(90) scale(21.1028)">
<stop stop-color="white" stop-opacity="0.5"/>
<stop offset="0.782278"/>
</radialGradient>
<radialGradient id="paint2_radial_213_17101" cx="0" cy="0" r="1" gradientUnits="userSpaceOnUse" gradientTransform="translate(12.5824 3.70697) rotate(90) scale(21.1028)">
<stop stop-color="white" stop-opacity="0.5"/>
<stop offset="0.782278"/>
</radialGradient>
<radialGradient id="paint3_radial_213_17101" cx="0" cy="0" r="1" gradientUnits="userSpaceOnUse" gradientTransform="translate(12.5824 -2.20687) rotate(90) scale(27.0166 36.5361)">
<stop offset="0.0922635" stop-color="white"/>
<stop offset="0.670207" stop-color="white" stop-opacity="0"/>
</radialGradient>
<radialGradient id="paint4_radial_213_17101" cx="0" cy="0" r="1" gradientUnits="userSpaceOnUse" gradientTransform="translate(9.04733 8.88663) scale(1.68171 3.69724)">
<stop stop-color="#743C1C"/>
<stop offset="1" stop-color="#401C02"/>
</radialGradient>
<linearGradient id="paint5_linear_213_17101" x1="9.04916" y1="12.7876" x2="9.04916" y2="4.96071" gradientUnits="userSpaceOnUse">
<stop stop-color="#FFDE43"/>
<stop offset="0.22" stop-color="#FED93F"/>
<stop offset="0.51" stop-color="#FCC934"/>
<stop offset="0.82" stop-color="#F9AF21"/>
<stop offset="1" stop-color="#F79D14"/>
</linearGradient>
<radialGradient id="paint6_radial_213_17101" cx="0" cy="0" r="1" gradientUnits="userSpaceOnUse" gradientTransform="translate(16.154 8.88663) scale(1.68171 3.69724)">
<stop stop-color="#743C1C"/>
<stop offset="1" stop-color="#401C02"/>
</radialGradient>
<linearGradient id="paint7_linear_213_17101" x1="16.1558" y1="12.7876" x2="16.1558" y2="4.96071" gradientUnits="userSpaceOnUse">
<stop stop-color="#FFDE43"/>
<stop offset="0.22" stop-color="#FED93F"/>
<stop offset="0.51" stop-color="#FCC934"/>
<stop offset="0.82" stop-color="#F9AF21"/>
<stop offset="1" stop-color="#F79D14"/>
</linearGradient>
<radialGradient id="paint8_radial_213_17101" cx="0" cy="0" r="1" gradientUnits="userSpaceOnUse" gradientTransform="translate(12.592 18.4181) scale(6.07625 5.08681)">
<stop stop-color="#743C1C"/>
<stop offset="1" stop-color="#401C02"/>
</radialGradient>
<linearGradient id="paint9_linear_213_17101" x1="3.7806" y1="15.3857" x2="21.403" y2="15.3857" gradientUnits="userSpaceOnUse">
<stop stop-color="#CCCCCC"/>
<stop offset="0.05" stop-color="#D5D5D5"/>
<stop offset="0.2" stop-color="#E9E9E9"/>
<stop offset="0.35" stop-color="#F6F6F6"/>
<stop offset="0.5" stop-color="#FAFAFA"/>
<stop offset="0.65" stop-color="#F6F6F6"/>
<stop offset="0.8" stop-color="#E9E9E9"/>
<stop offset="0.95" stop-color="#D5D5D5"/>
<stop offset="1" stop-color="#CCCCCC"/>
</linearGradient>
<radialGradient id="paint10_radial_213_17101" cx="0" cy="0" r="1" gradientUnits="userSpaceOnUse" gradientTransform="translate(12.592 16.5602) scale(5.75513)">
<stop stop-color="#401C02"/>
<stop offset="1" stop-color="#401C02"/>
</radialGradient>
<linearGradient id="paint11_linear_213_17101" x1="8800.53" y1="4682.9" x2="8800.53" y2="3546.18" gradientUnits="userSpaceOnUse">
<stop stop-color="#401C02"/>
<stop offset="1" stop-color="#401C02"/>
</linearGradient>
<linearGradient id="paint12_linear_213_17101" x1="8800.53" y1="4682.9" x2="8800.53" y2="3546.18" gradientUnits="userSpaceOnUse">
<stop stop-color="#401C02"/>
<stop offset="1" stop-color="#401C02"/>
</linearGradient>
<linearGradient id="paint13_linear_213_17101" x1="12.592" y1="21.1514" x2="12.592" y2="13.4297" gradientUnits="userSpaceOnUse">
<stop offset="0.265625" stop-color="#FFDE43"/>
<stop offset="1" stop-color="#F79D14"/>
</linearGradient>
<linearGradient id="paint14_linear_213_17101" x1="8800.53" y1="4682.95" x2="8800.53" y2="3546.24" gradientUnits="userSpaceOnUse">
<stop stop-color="#401C02"/>
<stop offset="1" stop-color="#401C02"/>
</linearGradient>
</defs>
</svg>
