<svg viewBox="0 0 25 25" fill="none" xmlns="http://www.w3.org/2000/svg">
<path d="M13.1247 24.9716C19.8577 24.9716 25.3158 19.5134 25.3158 12.7805C25.3158 6.0475 19.8577 0.589355 13.1247 0.589355C6.39174 0.589355 0.933594 6.0475 0.933594 12.7805C0.933594 19.5134 6.39174 24.9716 13.1247 24.9716Z" fill="url(#paint0_radial_213_17114)"/>
<g style="mix-blend-mode:soft-light">
<path d="M13.1246 24.9809C19.8576 24.9809 25.3158 19.5227 25.3158 12.7897C25.3158 6.05678 19.8576 0.598633 13.1246 0.598633C6.39168 0.598633 0.933533 6.05678 0.933533 12.7897C0.933533 19.5227 6.39168 24.9809 13.1246 24.9809Z" fill="url(#paint1_radial_213_17114)"/>
</g>
<g style="mix-blend-mode:soft-light">
<path d="M13.1246 24.9809C19.8576 24.9809 25.3158 19.5227 25.3158 12.7897C25.3158 6.05678 19.8576 0.598633 13.1246 0.598633C6.39168 0.598633 0.933533 6.05678 0.933533 12.7897C0.933533 19.5227 6.39168 24.9809 13.1246 24.9809Z" fill="url(#paint2_radial_213_17114)"/>
</g>
<g style="mix-blend-mode:soft-light">
<path d="M13.1246 24.9809C19.8576 24.9809 25.3158 19.5227 25.3158 12.7897C25.3158 6.05678 19.8576 0.598633 13.1246 0.598633C6.39168 0.598633 0.933533 6.05678 0.933533 12.7897C0.933533 19.5227 6.39168 24.9809 13.1246 24.9809Z" fill="url(#paint3_radial_213_17114)" fill-opacity="0.7"/>
</g>
<mask id="mask0_213_17114" style="mask-type:alpha" maskUnits="userSpaceOnUse" x="0" y="0" width="26" height="25">
<path d="M13.1246 24.9809C19.8576 24.9809 25.3158 19.5227 25.3158 12.7897C25.3158 6.05678 19.8576 0.598633 13.1246 0.598633C6.39168 0.598633 0.933533 6.05678 0.933533 12.7897C0.933533 19.5227 6.39168 24.9809 13.1246 24.9809Z" fill="white"/>
</mask>
<g mask="url(#mask0_213_17114)">
<g filter="url(#filter0_f_213_17114)">
<path d="M0.863867 12.4417C0.877105 12.2685 0.934109 12.2512 0.950735 12.4271C0.969207 12.6225 0.933299 13.0154 0.941944 13.2523C0.964834 13.8798 1.06102 14.4254 1.16018 14.8691C1.47971 16.2992 1.92222 17.2207 2.33495 18.0015C3.69162 20.5679 5.17775 21.8675 6.62751 22.8469C8.75262 24.2826 10.895 24.7393 13.0391 24.8361C13.0932 24.8386 13.1022 25.1909 13.049 25.2367C12.9531 25.3194 12.8342 25.2373 12.736 25.2339C12.454 25.224 12.172 25.2047 11.8899 25.1754C11.0537 25.0885 10.2176 24.9115 9.38306 24.6268C7.11412 23.8527 4.66771 22.5271 2.53119 18.7938C2.39679 18.5589 2.26345 18.3116 2.13199 18.0459C2.02687 17.8334 1.92277 17.6107 1.82049 17.3724C1.48411 16.5888 0.700227 14.5829 0.863867 12.4417ZM13.0406 25.2405C12.989 25.2421 12.976 24.9137 13.0251 24.8455C13.0995 24.7425 13.2109 24.8273 13.2892 24.8224C13.6147 24.8021 13.9401 24.7719 14.2654 24.7311C15.1573 24.6191 16.0486 24.4278 16.9379 24.1333C19.1436 23.4029 21.515 22.2893 23.5942 18.868C23.7266 18.6503 23.8578 18.4193 23.9872 18.1709C24.3805 17.4163 25.3663 15.4132 25.2523 12.9231C25.2427 12.7132 25.3066 12.5874 25.3352 12.7675C25.3716 12.9968 25.3568 13.4748 25.3468 13.7292C25.3147 14.5438 25.1896 15.2326 25.0577 15.789C24.6397 17.5521 24.0528 18.5744 23.5153 19.428C21.7684 22.2024 19.8711 23.3209 18.0264 24.1246C16.3719 24.8455 14.7049 25.1891 13.0406 25.2405Z" fill="#401C02"/>
</g>
<g filter="url(#filter1_f_213_17114)">
<path d="M0.863867 12.4417C0.877105 12.2685 0.934109 12.2512 0.950735 12.4271C0.969207 12.6225 0.933299 13.0154 0.941944 13.2523C0.964834 13.8798 1.06102 14.4254 1.16018 14.8691C1.47971 16.2992 1.92222 17.2207 2.33495 18.0015C3.69162 20.5679 5.17775 21.8675 6.62751 22.8469C8.75262 24.2826 10.895 24.7393 13.0391 24.8361C13.0932 24.8386 13.1022 25.1909 13.049 25.2367C12.9531 25.3194 12.8342 25.2373 12.736 25.2339C12.454 25.224 12.172 25.2047 11.8899 25.1754C11.0537 25.0885 10.2176 24.9115 9.38306 24.6268C7.11412 23.8527 4.66771 22.5271 2.53119 18.7938C2.39679 18.5589 2.26345 18.3116 2.13199 18.0459C2.02687 17.8334 1.92277 17.6107 1.82049 17.3724C1.48411 16.5888 0.700227 14.5829 0.863867 12.4417ZM13.0406 25.2405C12.989 25.2421 12.976 24.9137 13.0251 24.8455C13.0995 24.7425 13.2109 24.8273 13.2892 24.8224C13.6147 24.8021 13.9401 24.7719 14.2654 24.7311C15.1573 24.6191 16.0486 24.4278 16.9379 24.1333C19.1436 23.4029 21.515 22.2893 23.5942 18.868C23.7266 18.6503 23.8578 18.4193 23.9872 18.1709C24.3805 17.4163 25.3663 15.4132 25.2523 12.9231C25.2427 12.7132 25.3066 12.5874 25.3352 12.7675C25.3716 12.9968 25.3568 13.4748 25.3468 13.7292C25.3147 14.5438 25.1896 15.2326 25.0577 15.789C24.6397 17.5521 24.0528 18.5744 23.5153 19.428C21.7684 22.2024 19.8711 23.3209 18.0264 24.1246C16.3719 24.8455 14.7049 25.1891 13.0406 25.2405Z" fill="#401C02"/>
</g>
</g>
<path d="M11.5223 10.6852C11.4829 10.7114 11.4356 10.7229 11.3886 10.7179C11.3416 10.7128 11.2979 10.6914 11.265 10.6574L11.2438 10.6357C11.1988 10.5892 11.1528 10.5427 11.1063 10.4972L10.9718 10.3657C10.9283 10.3238 10.8839 10.2828 10.8389 10.2419C10.7939 10.201 10.7524 10.1635 10.709 10.1251C10.6655 10.0867 10.624 10.0513 10.5806 10.0154C10.5371 9.97955 10.4972 9.94619 10.4552 9.91435C10.4133 9.8825 10.3733 9.84965 10.3314 9.8178C10.2894 9.78596 10.251 9.75714 10.2106 9.72732C10.1701 9.6975 10.1322 9.67121 10.0918 9.64392C10.0513 9.61662 10.0144 9.59337 9.97551 9.56607C9.93659 9.53878 9.89969 9.51552 9.86127 9.49379C9.82286 9.47205 9.78747 9.44931 9.74956 9.42707C9.71165 9.40482 9.67728 9.38562 9.64038 9.3659C9.60348 9.34619 9.56911 9.32799 9.53372 9.3098L9.42858 9.25925C9.39472 9.24307 9.36034 9.22791 9.32749 9.21274C9.29463 9.19758 9.26077 9.18494 9.22639 9.17129C9.19202 9.15765 9.1622 9.14602 9.12934 9.13439C9.09649 9.12277 9.06616 9.11215 9.03431 9.10154C9.00247 9.09092 8.97214 9.08132 8.9413 9.07222C8.91047 9.06312 8.88166 9.05503 8.85133 9.04745C8.821 9.03987 8.7932 9.03279 8.76338 9.02622C8.73355 9.01965 8.70676 9.01359 8.67846 9.00802C8.65015 9.00246 8.62285 8.99791 8.59556 8.99337C8.56826 8.98882 8.54147 8.98477 8.51468 8.98123L8.43684 8.97264C8.41207 8.97011 8.38629 8.9686 8.36152 8.96658L8.28873 8.96253C8.26497 8.96253 8.24172 8.96253 8.21796 8.96253H8.14973H8.08452L8.02386 8.96607L7.9627 8.97163L7.90507 8.98022L7.87879 8.98427C7.56893 9.02774 7.43245 8.91451 7.37735 8.76994C7.29142 8.544 7.44408 8.29884 7.68064 8.24779C9.5135 7.84997 10.8652 9.33204 11.5789 10.4087C11.6074 10.4531 11.6174 10.5068 11.6068 10.5585C11.5962 10.6101 11.5659 10.6556 11.5223 10.6852Z" fill="#42210B"/>
<path d="M9.7046 13.8429C10.5134 13.8429 11.169 12.9936 11.169 11.9459C11.169 10.8982 10.5134 10.0488 9.7046 10.0488C8.89585 10.0488 8.24023 10.8982 8.24023 11.9459C8.24023 12.9936 8.89585 13.8429 9.7046 13.8429Z" fill="url(#paint4_radial_213_17114)"/>
<path d="M9.7046 13.8429C10.5134 13.8429 11.169 12.9936 11.169 11.9459C11.169 10.8982 10.5134 10.0488 9.7046 10.0488C8.89585 10.0488 8.24023 10.8982 8.24023 11.9459C8.24023 12.9936 8.89585 13.8429 9.7046 13.8429Z" stroke="url(#paint5_radial_213_17114)" stroke-width="0.101096" stroke-miterlimit="10"/>
<path d="M14.7189 10.6848C14.7583 10.7111 14.8057 10.7227 14.8528 10.7176C14.8999 10.7125 14.9438 10.6911 14.9767 10.657L14.9979 10.6352C15.0429 10.5887 15.0889 10.5422 15.1349 10.4967C15.1809 10.4512 15.2244 10.4088 15.2699 10.3653C15.3154 10.3218 15.3578 10.2824 15.4023 10.2415C15.4468 10.2005 15.4887 10.1631 15.5327 10.1247C15.5767 10.0863 15.6176 10.0509 15.6611 10.015C15.7046 9.97912 15.7445 9.94575 15.7865 9.91391C15.8284 9.88206 15.8683 9.84921 15.9098 9.81736L16.0306 9.72688C16.07 9.69908 16.1095 9.67078 16.1499 9.64348C16.1903 9.61618 16.2267 9.59293 16.2662 9.56564C16.3056 9.53834 16.342 9.51509 16.3804 9.49335C16.4188 9.47162 16.4542 9.44887 16.4921 9.42663C16.53 9.40439 16.5644 9.38518 16.6013 9.36547C16.6382 9.34575 16.6726 9.32756 16.7079 9.30936L16.8126 9.25881C16.8464 9.24264 16.8808 9.22747 16.9137 9.21231C16.9465 9.19714 16.9799 9.18451 17.0148 9.17086C17.0496 9.15721 17.079 9.14558 17.1118 9.13396C17.1447 9.12233 17.175 9.11172 17.2068 9.1011C17.2387 9.09049 17.2685 9.08088 17.2999 9.07178C17.3312 9.06269 17.3595 9.0546 17.3893 9.04702C17.4191 9.03943 17.448 9.03236 17.4778 9.02579C17.5076 9.01921 17.5344 9.01315 17.5627 9.00759C17.591 9.00203 17.6183 8.99748 17.6456 8.99293L17.726 8.9808L17.8038 8.9722C17.8291 8.96968 17.8544 8.96816 17.8796 8.96614L17.9524 8.96209H18.0227H18.0909H18.1566L18.2173 8.96563L18.2785 8.97119L18.3376 8.97827L18.3634 8.98231C18.6732 9.02579 18.8102 8.91256 18.8653 8.76799C18.9513 8.54204 18.7986 8.29689 18.562 8.24583C16.7292 7.84802 15.3775 9.33008 14.6638 10.4068C14.6347 10.4511 14.6242 10.505 14.6345 10.557C14.6448 10.609 14.6751 10.6549 14.7189 10.6848Z" fill="#42210B"/>
<path d="M16.5366 13.8429C17.3453 13.8429 18.0009 12.9936 18.0009 11.9459C18.0009 10.8982 17.3453 10.0488 16.5366 10.0488C15.7278 10.0488 15.0722 10.8982 15.0722 11.9459C15.0722 12.9936 15.7278 13.8429 16.5366 13.8429Z" fill="url(#paint6_radial_213_17114)"/>
<path d="M16.5366 13.8429C17.3453 13.8429 18.0009 12.9936 18.0009 11.9459C18.0009 10.8982 17.3453 10.0488 16.5366 10.0488C15.7278 10.0488 15.0722 10.8982 15.0722 11.9459C15.0722 12.9936 15.7278 13.8429 16.5366 13.8429Z" stroke="url(#paint7_radial_213_17114)" stroke-width="0.101096" stroke-miterlimit="10"/>
<path d="M9.5642 20.2598C9.54489 20.2748 9.52136 20.2834 9.49692 20.2844C9.47248 20.2854 9.44835 20.2787 9.4279 20.2652C9.40745 20.2518 9.39172 20.2323 9.3829 20.2095C9.37407 20.1867 9.3726 20.1617 9.37869 20.138C9.79774 18.5746 11.3192 17.416 13.1324 17.416C14.9455 17.416 16.4685 18.5756 16.8866 20.14C16.8928 20.1638 16.8914 20.1889 16.8826 20.2119C16.8737 20.2348 16.8579 20.2544 16.8374 20.2678C16.8168 20.2813 16.7925 20.288 16.768 20.2869C16.7434 20.2858 16.7198 20.2771 16.7005 20.2619C15.7988 19.5865 14.5331 19.166 13.1324 19.166C11.7317 19.166 10.467 19.5865 9.5642 20.2598Z" fill="url(#paint8_radial_213_17114)"/>
<path d="M9.5642 20.2598C9.54489 20.2748 9.52136 20.2834 9.49692 20.2844C9.47248 20.2854 9.44835 20.2787 9.4279 20.2652C9.40745 20.2518 9.39172 20.2323 9.3829 20.2095C9.37407 20.1867 9.3726 20.1617 9.37869 20.138C9.79774 18.5746 11.3192 17.416 13.1324 17.416C14.9455 17.416 16.4685 18.5756 16.8866 20.14C16.8928 20.1638 16.8914 20.1889 16.8826 20.2119C16.8737 20.2348 16.8579 20.2544 16.8374 20.2678C16.8168 20.2813 16.7925 20.288 16.768 20.2869C16.7434 20.2858 16.7198 20.2771 16.7005 20.2619C15.7988 19.5865 14.5331 19.166 13.1324 19.166C11.7317 19.166 10.467 19.5865 9.5642 20.2598Z" stroke="url(#paint9_linear_213_17114)" stroke-width="0.101096" stroke-miterlimit="10"/>
<defs>
<filter id="filter0_f_213_17114" x="-0.42202" y="11.0395" width="27.0442" height="15.4976" filterUnits="userSpaceOnUse" color-interpolation-filters="sRGB">
<feFlood flood-opacity="0" result="BackgroundImageFix"/>
<feBlend mode="normal" in="SourceGraphic" in2="BackgroundImageFix" result="shape"/>
<feGaussianBlur stdDeviation="0.631847" result="effect1_foregroundBlur_213_17114"/>
</filter>
<filter id="filter1_f_213_17114" x="-1.18024" y="10.2813" width="28.5606" height="17.014" filterUnits="userSpaceOnUse" color-interpolation-filters="sRGB">
<feFlood flood-opacity="0" result="BackgroundImageFix"/>
<feBlend mode="normal" in="SourceGraphic" in2="BackgroundImageFix" result="shape"/>
<feGaussianBlur stdDeviation="1.01096" result="effect1_foregroundBlur_213_17114"/>
</filter>
<radialGradient id="paint0_radial_213_17114" cx="0" cy="0" r="1" gradientUnits="userSpaceOnUse" gradientTransform="translate(13.1247 12.78) scale(12.1911)">
<stop stop-color="#FF8229"/>
<stop offset="0.31" stop-color="#FF8025"/>
<stop offset="0.63" stop-color="#FF7818"/>
<stop offset="0.95" stop-color="#FF6C04"/>
<stop offset="1" stop-color="#FF6A00"/>
</radialGradient>
<radialGradient id="paint1_radial_213_17114" cx="0" cy="0" r="1" gradientUnits="userSpaceOnUse" gradientTransform="translate(13.1155 3.85896) rotate(90) scale(21.1037)">
<stop stop-color="white" stop-opacity="0.5"/>
<stop offset="0.782278"/>
</radialGradient>
<radialGradient id="paint2_radial_213_17114" cx="0" cy="0" r="1" gradientUnits="userSpaceOnUse" gradientTransform="translate(13.1155 3.85896) rotate(90) scale(21.1037)">
<stop stop-color="white" stop-opacity="0.5"/>
<stop offset="0.782278"/>
</radialGradient>
<radialGradient id="paint3_radial_213_17114" cx="0" cy="0" r="1" gradientUnits="userSpaceOnUse" gradientTransform="translate(13.1156 -2.05513) rotate(90) scale(27.0178 36.5377)">
<stop offset="0.0922635" stop-color="#FF0000"/>
<stop offset="0.670207" stop-color="white" stop-opacity="0"/>
</radialGradient>
<radialGradient id="paint4_radial_213_17114" cx="0" cy="0" r="1" gradientUnits="userSpaceOnUse" gradientTransform="translate(9.70258 11.9446) scale(1.86671 1.90035)">
<stop stop-color="#6A2700"/>
<stop offset="1" stop-color="#391800"/>
</radialGradient>
<radialGradient id="paint5_radial_213_17114" cx="0" cy="0" r="1" gradientUnits="userSpaceOnUse" gradientTransform="translate(56990.8 864.195) rotate(180) scale(101.1 130.973)">
<stop stop-color="#FF9143"/>
<stop offset="0.24" stop-color="#FF8F3F"/>
<stop offset="0.49" stop-color="#FF8732"/>
<stop offset="0.74" stop-color="#FF7B1E"/>
<stop offset="0.99" stop-color="#FF6A01"/>
<stop offset="1" stop-color="#FF6A00"/>
</radialGradient>
<radialGradient id="paint6_radial_213_17114" cx="0" cy="0" r="1" gradientUnits="userSpaceOnUse" gradientTransform="translate(16.5345 11.9446) scale(1.86671 1.90035)">
<stop stop-color="#6A2700"/>
<stop offset="1" stop-color="#391800"/>
</radialGradient>
<radialGradient id="paint7_radial_213_17114" cx="0" cy="0" r="1" gradientUnits="userSpaceOnUse" gradientTransform="translate(56997.6 864.195) rotate(180) scale(101.1 130.973)">
<stop stop-color="#FF9143"/>
<stop offset="0.24" stop-color="#FF8F3F"/>
<stop offset="0.49" stop-color="#FF8732"/>
<stop offset="0.74" stop-color="#FF7B1E"/>
<stop offset="0.99" stop-color="#FF6A01"/>
<stop offset="1" stop-color="#FF6A00"/>
</radialGradient>
<radialGradient id="paint8_radial_213_17114" cx="0" cy="0" r="1" gradientUnits="userSpaceOnUse" gradientTransform="translate(50466.7 -32074.8) rotate(180) scale(424.168 158.798)">
<stop stop-color="#522A14"/>
<stop offset="1" stop-color="#401C02"/>
</radialGradient>
<linearGradient id="paint9_linear_213_17114" x1="146491" y1="663.744" x2="145972" y2="663.744" gradientUnits="userSpaceOnUse">
<stop stop-color="#B41010"/>
<stop offset="1" stop-color="#FF3D00"/>
</linearGradient>
</defs>
</svg>
