<svg viewBox="0 0 25 25" fill="none" xmlns="http://www.w3.org/2000/svg">
<path d="M12.692 24.5309C19.2608 24.5309 24.5859 19.2058 24.5859 12.637C24.5859 6.06823 19.2608 0.743164 12.692 0.743164C6.12322 0.743164 0.798157 6.06823 0.798157 12.637C0.798157 19.2058 6.12322 24.5309 12.692 24.5309Z" fill="url(#paint0_radial_213_17098)"/>
<g style="mix-blend-mode:soft-light">
<path d="M12.692 24.5309C19.2608 24.5309 24.5859 19.2058 24.5859 12.637C24.5859 6.06823 19.2608 0.743164 12.692 0.743164C6.12322 0.743164 0.798157 6.06823 0.798157 12.637C0.798157 19.2058 6.12322 24.5309 12.692 24.5309Z" fill="url(#paint1_radial_213_17098)"/>
</g>
<g style="mix-blend-mode:soft-light">
<path d="M12.692 24.5309C19.2608 24.5309 24.5859 19.2058 24.5859 12.637C24.5859 6.06823 19.2608 0.743164 12.692 0.743164C6.12322 0.743164 0.798157 6.06823 0.798157 12.637C0.798157 19.2058 6.12322 24.5309 12.692 24.5309Z" fill="url(#paint2_radial_213_17098)"/>
</g>
<g style="mix-blend-mode:overlay">
<path d="M12.692 24.5309C19.2608 24.5309 24.5859 19.2058 24.5859 12.637C24.5859 6.06823 19.2608 0.743164 12.692 0.743164C6.12322 0.743164 0.798157 6.06823 0.798157 12.637C0.798157 19.2058 6.12322 24.5309 12.692 24.5309Z" fill="url(#paint3_radial_213_17098)" fill-opacity="0.7"/>
</g>
<mask id="mask0_213_17098" style="mask-type:alpha" maskUnits="userSpaceOnUse" x="0" y="0" width="25" height="25">
<path d="M12.692 24.5309C19.2608 24.5309 24.5859 19.2058 24.5859 12.637C24.5859 6.06823 19.2608 0.743164 12.692 0.743164C6.12322 0.743164 0.798157 6.06823 0.798157 12.637C0.798157 19.2058 6.12322 24.5309 12.692 24.5309Z" fill="white"/>
</mask>
<g mask="url(#mask0_213_17098)">
<g filter="url(#filter0_f_213_17098)">
<path d="M0.73027 12.2977C0.743184 12.1288 0.798798 12.1118 0.815019 12.2834C0.833041 12.4741 0.798008 12.8574 0.806443 13.0886C0.828775 13.7007 0.922615 14.233 1.01935 14.666C1.3311 16.0612 1.76281 16.9602 2.16548 17.7219C3.48908 20.2258 4.93897 21.4937 6.35338 22.4492C8.42668 23.8499 10.5168 24.2954 12.6087 24.3899C12.6614 24.3923 12.6702 24.736 12.6183 24.7808C12.5247 24.8614 12.4087 24.7814 12.313 24.778C12.0378 24.7684 11.7627 24.7495 11.4875 24.7209C10.6717 24.6361 9.8559 24.4635 9.04175 24.1857C6.82813 23.4304 4.44137 22.1372 2.35694 18.4949C2.22581 18.2657 2.09573 18.0245 1.96748 17.7653C1.86492 17.5579 1.76335 17.3406 1.66357 17.1082C1.33539 16.3437 0.57062 14.3867 0.73027 12.2977ZM12.6101 24.7844C12.5598 24.786 12.547 24.4656 12.595 24.3991C12.6675 24.2985 12.7762 24.3813 12.8527 24.3766C13.1702 24.3567 13.4877 24.3273 13.805 24.2874C14.6752 24.1781 15.5448 23.9916 16.4124 23.7043C18.5643 22.9916 20.8779 21.9052 22.9064 18.5673C23.0355 18.3549 23.1635 18.1295 23.2898 17.8872C23.6735 17.151 24.6353 15.1968 24.5241 12.7673C24.5147 12.5625 24.5771 12.4399 24.605 12.6156C24.6405 12.8393 24.6261 13.3056 24.6163 13.5538C24.5849 14.3485 24.4629 15.0206 24.3342 15.5634C23.9264 17.2835 23.3538 18.2809 22.8294 19.1137C21.1251 21.8205 19.274 22.9116 17.4744 23.6958C15.8602 24.3991 14.2338 24.7343 12.6101 24.7844Z" fill="#401C02"/>
</g>
<g filter="url(#filter1_f_213_17098)">
<path d="M0.73027 12.2977C0.743184 12.1288 0.798798 12.1118 0.815019 12.2834C0.833041 12.4741 0.798008 12.8574 0.806443 13.0886C0.828775 13.7007 0.922615 14.233 1.01935 14.666C1.3311 16.0612 1.76281 16.9602 2.16548 17.7219C3.48908 20.2258 4.93897 21.4937 6.35338 22.4492C8.42668 23.8499 10.5168 24.2954 12.6087 24.3899C12.6614 24.3923 12.6702 24.736 12.6183 24.7808C12.5247 24.8614 12.4087 24.7814 12.313 24.778C12.0378 24.7684 11.7627 24.7495 11.4875 24.7209C10.6717 24.6361 9.8559 24.4635 9.04175 24.1857C6.82813 23.4304 4.44137 22.1372 2.35694 18.4949C2.22581 18.2657 2.09573 18.0245 1.96748 17.7653C1.86492 17.5579 1.76335 17.3406 1.66357 17.1082C1.33539 16.3437 0.57062 14.3867 0.73027 12.2977ZM12.6101 24.7844C12.5598 24.786 12.547 24.4656 12.595 24.3991C12.6675 24.2985 12.7762 24.3813 12.8527 24.3766C13.1702 24.3567 13.4877 24.3273 13.805 24.2874C14.6752 24.1781 15.5448 23.9916 16.4124 23.7043C18.5643 22.9916 20.8779 21.9052 22.9064 18.5673C23.0355 18.3549 23.1635 18.1295 23.2898 17.8872C23.6735 17.151 24.6353 15.1968 24.5241 12.7673C24.5147 12.5625 24.5771 12.4399 24.605 12.6156C24.6405 12.8393 24.6261 13.3056 24.6163 13.5538C24.5849 14.3485 24.4629 15.0206 24.3342 15.5634C23.9264 17.2835 23.3538 18.2809 22.8294 19.1137C21.1251 21.8205 19.274 22.9116 17.4744 23.6958C15.8602 24.3991 14.2338 24.7343 12.6101 24.7844Z" fill="#401C02"/>
</g>
</g>
<path d="M18.0881 15.5903H7.25949C6.90487 15.5903 6.6174 15.8778 6.6174 16.2324C6.6174 16.587 6.90487 16.8745 7.25949 16.8745H18.0881C18.4428 16.8745 18.7302 16.587 18.7302 16.2324C18.7302 15.8778 18.4428 15.5903 18.0881 15.5903Z" fill="url(#paint4_radial_213_17098)"/>
<path d="M18.0881 15.5903H7.25949C6.90487 15.5903 6.6174 15.8778 6.6174 16.2324C6.6174 16.587 6.90487 16.8745 7.25949 16.8745H18.0881C18.4428 16.8745 18.7302 16.587 18.7302 16.2324C18.7302 15.8778 18.4428 15.5903 18.0881 15.5903Z" stroke="url(#paint5_linear_213_17098)" stroke-width="0.123288" stroke-miterlimit="10"/>
<path d="M10.4324 9.37061H7.25949C6.90487 9.37061 6.6174 9.65808 6.6174 10.0127C6.6174 10.3673 6.90487 10.6548 7.25949 10.6548H10.4324C10.787 10.6548 11.0745 10.3673 11.0745 10.0127C11.0745 9.65808 10.787 9.37061 10.4324 9.37061Z" fill="url(#paint6_radial_213_17098)"/>
<path d="M18.088 9.37061H14.9151C14.5605 9.37061 14.273 9.65808 14.273 10.0127C14.273 10.3673 14.5605 10.6548 14.9151 10.6548H18.088C18.4426 10.6548 18.7301 10.3673 18.7301 10.0127C18.7301 9.65808 18.4426 9.37061 18.088 9.37061Z" fill="url(#paint7_radial_213_17098)"/>
<path d="M10.4324 9.37061H7.25949C6.90487 9.37061 6.6174 9.65808 6.6174 10.0127C6.6174 10.3673 6.90487 10.6548 7.25949 10.6548H10.4324C10.787 10.6548 11.0745 10.3673 11.0745 10.0127C11.0745 9.65808 10.787 9.37061 10.4324 9.37061Z" stroke="url(#paint8_linear_213_17098)" stroke-width="0.0986307" stroke-miterlimit="10"/>
<path d="M18.088 9.37061H14.9151C14.5605 9.37061 14.273 9.65808 14.273 10.0127C14.273 10.3673 14.5605 10.6548 14.9151 10.6548H18.088C18.4426 10.6548 18.7301 10.3673 18.7301 10.0127C18.7301 9.65808 18.4426 9.37061 18.088 9.37061Z" stroke="url(#paint9_linear_213_17098)" stroke-width="0.0986307" stroke-miterlimit="10"/>
<defs>
<filter id="filter0_f_213_17098" x="-0.524265" y="10.9297" width="26.3848" height="15.1201" filterUnits="userSpaceOnUse" color-interpolation-filters="sRGB">
<feFlood flood-opacity="0" result="BackgroundImageFix"/>
<feBlend mode="normal" in="SourceGraphic" in2="BackgroundImageFix" result="shape"/>
<feGaussianBlur stdDeviation="0.616442" result="effect1_foregroundBlur_213_17098"/>
</filter>
<filter id="filter1_f_213_17098" x="-1.264" y="10.19" width="27.8642" height="16.5995" filterUnits="userSpaceOnUse" color-interpolation-filters="sRGB">
<feFlood flood-opacity="0" result="BackgroundImageFix"/>
<feBlend mode="normal" in="SourceGraphic" in2="BackgroundImageFix" result="shape"/>
<feGaussianBlur stdDeviation="0.986307" result="effect1_foregroundBlur_213_17098"/>
</filter>
<radialGradient id="paint0_radial_213_17098" cx="0" cy="0" r="1" gradientUnits="userSpaceOnUse" gradientTransform="translate(12.6832 0.743164) rotate(90) scale(23.77)">
<stop stop-color="#FFDE43"/>
<stop offset="1" stop-color="#FFBC00"/>
</radialGradient>
<radialGradient id="paint1_radial_213_17098" cx="0" cy="0" r="1" gradientUnits="userSpaceOnUse" gradientTransform="translate(12.6832 3.924) rotate(90) scale(20.5892)">
<stop stop-color="white" stop-opacity="0.5"/>
<stop offset="0.782278"/>
</radialGradient>
<radialGradient id="paint2_radial_213_17098" cx="0" cy="0" r="1" gradientUnits="userSpaceOnUse" gradientTransform="translate(12.6832 3.924) rotate(90) scale(20.5892)">
<stop stop-color="white" stop-opacity="0.5"/>
<stop offset="0.782278"/>
</radialGradient>
<radialGradient id="paint3_radial_213_17098" cx="0" cy="0" r="1" gradientUnits="userSpaceOnUse" gradientTransform="translate(12.6832 -1.84589) rotate(90) scale(26.359 35.6468)">
<stop offset="0.0922635" stop-color="white"/>
<stop offset="0.670207" stop-color="white" stop-opacity="0"/>
</radialGradient>
<radialGradient id="paint4_radial_213_17098" cx="0" cy="0" r="1" gradientUnits="userSpaceOnUse" gradientTransform="translate(12.6738 16.2298) scale(4.57153 1.29708)">
<stop stop-color="#743C1C"/>
<stop offset="1" stop-color="#401C02"/>
</radialGradient>
<linearGradient id="paint5_linear_213_17098" x1="12.6738" y1="16.9106" x2="12.6738" y2="15.549" gradientUnits="userSpaceOnUse">
<stop offset="0.265625" stop-color="#FFDE43"/>
<stop offset="1" stop-color="#F79D14"/>
</linearGradient>
<radialGradient id="paint6_radial_213_17098" cx="0" cy="0" r="1" gradientUnits="userSpaceOnUse" gradientTransform="translate(8.84288 10.0123) scale(2.84087 0.643199)">
<stop stop-color="#743C1C"/>
<stop offset="1" stop-color="#401C02"/>
</radialGradient>
<radialGradient id="paint7_radial_213_17098" cx="0" cy="0" r="1" gradientUnits="userSpaceOnUse" gradientTransform="translate(16.4985 10.0123) scale(2.84087 0.643199)">
<stop stop-color="#743C1C"/>
<stop offset="1" stop-color="#401C02"/>
</radialGradient>
<linearGradient id="paint8_linear_213_17098" x1="8.84596" y1="10.6909" x2="8.84596" y2="9.32928" gradientUnits="userSpaceOnUse">
<stop stop-color="#FFDE43"/>
<stop offset="0.22" stop-color="#FED93F"/>
<stop offset="0.51" stop-color="#FCC934"/>
<stop offset="0.82" stop-color="#F9AF21"/>
<stop offset="1" stop-color="#F79D14"/>
</linearGradient>
<linearGradient id="paint9_linear_213_17098" x1="16.5015" y1="10.6909" x2="16.5015" y2="9.32928" gradientUnits="userSpaceOnUse">
<stop stop-color="#FFDE43"/>
<stop offset="0.22" stop-color="#FED93F"/>
<stop offset="0.51" stop-color="#FCC934"/>
<stop offset="0.82" stop-color="#F9AF21"/>
<stop offset="1" stop-color="#F79D14"/>
</linearGradient>
</defs>
</svg>
