<svg viewBox="0 0 25 25" fill="none" xmlns="http://www.w3.org/2000/svg">
<path d="M12.6002 24.8285C19.3331 24.8285 24.7913 19.3704 24.7913 12.6374C24.7913 5.90444 19.3331 0.446289 12.6002 0.446289C5.86721 0.446289 0.409058 5.90444 0.409058 12.6374C0.409058 19.3704 5.86721 24.8285 12.6002 24.8285Z" fill="url(#paint0_radial_213_17094)"/>
<g style="mix-blend-mode:soft-light">
<path d="M12.6002 24.8285C19.3331 24.8285 24.7913 19.3704 24.7913 12.6374C24.7913 5.90444 19.3331 0.446289 12.6002 0.446289C5.86721 0.446289 0.409058 5.90444 0.409058 12.6374C0.409058 19.3704 5.86721 24.8285 12.6002 24.8285Z" fill="url(#paint1_radial_213_17094)"/>
</g>
<g style="mix-blend-mode:soft-light">
<path d="M12.6002 24.8285C19.3331 24.8285 24.7913 19.3704 24.7913 12.6374C24.7913 5.90444 19.3331 0.446289 12.6002 0.446289C5.86721 0.446289 0.409058 5.90444 0.409058 12.6374C0.409058 19.3704 5.86721 24.8285 12.6002 24.8285Z" fill="url(#paint2_radial_213_17094)"/>
</g>
<g style="mix-blend-mode:overlay">
<path d="M12.6002 24.8285C19.3331 24.8285 24.7913 19.3704 24.7913 12.6374C24.7913 5.90444 19.3331 0.446289 12.6002 0.446289C5.86721 0.446289 0.409058 5.90444 0.409058 12.6374C0.409058 19.3704 5.86721 24.8285 12.6002 24.8285Z" fill="url(#paint3_radial_213_17094)" fill-opacity="0.7"/>
</g>
<mask id="mask0_213_17094" style="mask-type:alpha" maskUnits="userSpaceOnUse" x="0" y="0" width="25" height="25">
<path d="M12.6002 24.8285C19.3331 24.8285 24.7913 19.3704 24.7913 12.6374C24.7913 5.90444 19.3331 0.446289 12.6002 0.446289C5.86721 0.446289 0.409058 5.90444 0.409058 12.6374C0.409058 19.3704 5.86721 24.8285 12.6002 24.8285Z" fill="white"/>
</mask>
<g mask="url(#mask0_213_17094)">
<g filter="url(#filter0_f_213_17094)">
<path d="M0.339453 12.2894C0.352691 12.1162 0.409695 12.0988 0.426321 12.2747C0.444793 12.4701 0.408885 12.863 0.41753 13.1C0.44042 13.7275 0.536606 14.273 0.635762 14.7168C0.955296 16.1469 1.3978 17.0684 1.81053 17.8491C3.16721 20.4156 4.65333 21.7151 6.1031 22.6946C8.22821 24.1303 10.3706 24.5869 12.5147 24.6838C12.5688 24.6862 12.5778 25.0385 12.5246 25.0844C12.4286 25.1671 12.3098 25.085 12.2116 25.0816C11.9296 25.0717 11.6475 25.0523 11.3655 25.023C10.5293 24.9361 9.69314 24.7591 8.85865 24.4744C6.58971 23.7003 4.1433 22.3748 2.00678 18.6414C1.87237 18.4065 1.73903 18.1593 1.60758 17.8936C1.50245 17.6811 1.39835 17.4583 1.29608 17.2201C0.959698 16.4365 0.175813 14.4306 0.339453 12.2894ZM12.5162 25.0882C12.4646 25.0898 12.4515 24.7613 12.5007 24.6932C12.5751 24.5901 12.6865 24.675 12.7648 24.6701C13.0903 24.6497 13.4157 24.6196 13.741 24.5787C14.6329 24.4667 15.5242 24.2755 16.4135 23.981C18.6192 23.2505 20.9905 22.1369 23.0698 18.7157C23.2022 18.4979 23.3333 18.2669 23.4628 18.0186C23.8561 17.264 24.8419 15.2609 24.7279 12.7707C24.7183 12.5608 24.7822 12.4351 24.8108 12.6152C24.8472 12.8444 24.8324 13.3225 24.8224 13.5768C24.7903 14.3914 24.6652 15.0803 24.5333 15.6366C24.1152 17.3998 23.5284 18.4221 22.9909 19.2757C21.244 22.0501 19.3466 23.1686 17.502 23.9723C15.8475 24.6932 14.1804 25.0368 12.5162 25.0882Z" fill="#401C02"/>
</g>
<g filter="url(#filter1_f_213_17094)">
<path d="M0.339453 12.2894C0.352691 12.1162 0.409695 12.0988 0.426321 12.2747C0.444793 12.4701 0.408885 12.863 0.41753 13.1C0.44042 13.7275 0.536606 14.273 0.635762 14.7168C0.955296 16.1469 1.3978 17.0684 1.81053 17.8491C3.16721 20.4156 4.65333 21.7151 6.1031 22.6946C8.22821 24.1303 10.3706 24.5869 12.5147 24.6838C12.5688 24.6862 12.5778 25.0385 12.5246 25.0844C12.4286 25.1671 12.3098 25.085 12.2116 25.0816C11.9296 25.0717 11.6475 25.0523 11.3655 25.023C10.5293 24.9361 9.69314 24.7591 8.85865 24.4744C6.58971 23.7003 4.1433 22.3748 2.00678 18.6414C1.87237 18.4065 1.73903 18.1593 1.60758 17.8936C1.50245 17.6811 1.39835 17.4583 1.29608 17.2201C0.959698 16.4365 0.175813 14.4306 0.339453 12.2894ZM12.5162 25.0882C12.4646 25.0898 12.4515 24.7613 12.5007 24.6932C12.5751 24.5901 12.6865 24.675 12.7648 24.6701C13.0903 24.6497 13.4157 24.6196 13.741 24.5787C14.6329 24.4667 15.5242 24.2755 16.4135 23.981C18.6192 23.2505 20.9905 22.1369 23.0698 18.7157C23.2022 18.4979 23.3333 18.2669 23.4628 18.0186C23.8561 17.264 24.8419 15.2609 24.7279 12.7707C24.7183 12.5608 24.7822 12.4351 24.8108 12.6152C24.8472 12.8444 24.8324 13.3225 24.8224 13.5768C24.7903 14.3914 24.6652 15.0803 24.5333 15.6366C24.1152 17.3998 23.5284 18.4221 22.9909 19.2757C21.244 22.0501 19.3466 23.1686 17.502 23.9723C15.8475 24.6932 14.1804 25.0368 12.5162 25.0882Z" fill="#401C02"/>
</g>
</g>
<path d="M6.09465 14.9871C6.80232 14.5144 7.62019 14.0171 8.33999 13.5586C8.9688 13.139 9.64311 12.7584 10.1309 12.2009C10.2648 12.0644 10.097 11.9289 9.99947 11.8243C8.849 10.7946 7.36441 10.0683 6.09314 9.18418C5.92026 8.90414 7.19761 9.39243 7.32398 9.40457C8.526 9.81299 9.72398 10.278 10.6985 11.1303C12.2539 12.5193 9.8458 13.7431 8.71707 14.2395C7.88762 14.6056 7.02414 14.8892 6.13914 15.0861C6.12655 15.0894 6.11323 15.0881 6.10152 15.0824C6.08981 15.0768 6.08047 15.0672 6.07515 15.0553C6.06982 15.0435 6.06886 15.0301 6.07243 15.0176C6.076 15.0051 6.08387 14.9943 6.09465 14.9871Z" fill="url(#paint4_radial_213_17094)"/>
<path d="M19.1345 9.18379C18.4268 9.65641 17.609 10.1543 16.8892 10.6128C16.2598 11.0323 15.586 11.4129 15.0982 11.97C14.9643 12.1065 15.1321 12.2419 15.2292 12.3471C16.3801 13.3762 17.8647 14.1026 19.136 14.9867C19.3084 15.2672 18.0315 14.7784 17.9052 14.7668C16.7031 14.3584 15.5067 13.8933 14.5306 13.0406C12.9752 11.652 15.3833 10.4278 16.5121 9.93189C17.3415 9.56582 18.205 9.28223 19.09 9.08522C19.1026 9.08151 19.1162 9.08249 19.1282 9.08799C19.1401 9.09349 19.1497 9.10314 19.1551 9.11514C19.1606 9.12715 19.1615 9.14072 19.1577 9.15333C19.1539 9.16595 19.1456 9.17676 19.1345 9.18379Z" fill="url(#paint5_radial_213_17094)"/>
<path d="M6.09465 14.9871C6.80232 14.5144 7.62019 14.0171 8.33999 13.5586C8.9688 13.139 9.64311 12.7584 10.1309 12.2009C10.2648 12.0644 10.097 11.9289 9.99947 11.8243C8.849 10.7946 7.36441 10.0683 6.09314 9.18418C5.92026 8.90414 7.19761 9.39243 7.32398 9.40457C8.526 9.81299 9.72398 10.278 10.6985 11.1303C12.2539 12.5193 9.8458 13.7431 8.71707 14.2395C7.88762 14.6056 7.02414 14.8892 6.13914 15.0861C6.12655 15.0894 6.11323 15.0881 6.10152 15.0824C6.08981 15.0768 6.08047 15.0672 6.07515 15.0553C6.06982 15.0435 6.06886 15.0301 6.07243 15.0176C6.076 15.0051 6.08387 14.9943 6.09465 14.9871V14.9871Z" stroke="url(#paint6_linear_213_17094)" stroke-width="0.0970518" stroke-miterlimit="10"/>
<path d="M19.1345 9.18379C18.4268 9.65641 17.609 10.1543 16.8892 10.6128C16.2598 11.0323 15.586 11.4129 15.0982 11.97C14.9643 12.1065 15.1321 12.2419 15.2292 12.3471C16.3801 13.3762 17.8647 14.1026 19.136 14.9867C19.3084 15.2672 18.0315 14.7784 17.9052 14.7668C16.7031 14.3584 15.5067 13.8933 14.5306 13.0406C12.9752 11.652 15.3833 10.4278 16.5121 9.93189C17.3415 9.56582 18.205 9.28223 19.09 9.08522C19.1026 9.08151 19.1162 9.08249 19.1282 9.08799C19.1401 9.09349 19.1497 9.10314 19.1551 9.11514C19.1606 9.12715 19.1615 9.14072 19.1577 9.15333C19.1539 9.16595 19.1456 9.17676 19.1345 9.18379V9.18379Z" stroke="url(#paint7_linear_213_17094)" stroke-width="0.0970518" stroke-miterlimit="10"/>
<path d="M7.0309 20.8361L5.63882 19.4435C5.59144 19.3961 5.56482 19.3318 5.56482 19.2648C5.56482 19.1978 5.59144 19.1335 5.63882 19.0861L5.99619 18.7287C6.04359 18.6813 6.10786 18.6547 6.17488 18.6547C6.24189 18.6547 6.30617 18.6813 6.35356 18.7287L7.0309 19.4061C7.0783 19.4535 7.14257 19.4801 7.20959 19.4801C7.27661 19.4801 7.34088 19.4535 7.38828 19.4061L9.77262 17.0222C9.82001 16.9749 9.88428 16.9482 9.9513 16.9482C10.0183 16.9482 10.0826 16.9749 10.13 17.0222L12.4714 19.3631C12.5188 19.4105 12.583 19.4371 12.65 19.4371C12.7171 19.4371 12.7813 19.4105 12.8287 19.3631L15.2126 16.9793C15.26 16.9319 15.3242 16.9053 15.3913 16.9053C15.4583 16.9053 15.5225 16.9319 15.5699 16.9793L17.9113 19.3206C17.9587 19.368 18.023 19.3946 18.09 19.3946C18.157 19.3946 18.2213 19.368 18.2687 19.3206L18.8606 18.7287C18.908 18.6813 18.9723 18.6547 19.0393 18.6547C19.1063 18.6547 19.1706 18.6813 19.218 18.7287L19.5753 19.0861C19.6227 19.1335 19.6493 19.1978 19.6493 19.2648C19.6493 19.3318 19.6227 19.3961 19.5753 19.4435L18.2687 20.7501C18.2213 20.7975 18.157 20.8241 18.09 20.8241C18.023 20.8241 17.9587 20.7975 17.9113 20.7501L15.5699 18.4088C15.5225 18.3614 15.4583 18.3348 15.3913 18.3348C15.3242 18.3348 15.26 18.3614 15.2126 18.4088L12.8287 20.7931C12.7813 20.8405 12.7171 20.8671 12.65 20.8671C12.583 20.8671 12.5188 20.8405 12.4714 20.7931L10.13 18.4517C10.0826 18.4043 10.0183 18.3777 9.9513 18.3777C9.88428 18.3777 9.82001 18.4043 9.77262 18.4517L7.38828 20.8361C7.34088 20.8834 7.27661 20.9101 7.20959 20.9101C7.14257 20.9101 7.0783 20.8834 7.0309 20.8361Z" fill="url(#paint8_radial_213_17094)"/>
<path d="M7.0309 20.8361L5.63882 19.4435C5.59144 19.3961 5.56482 19.3318 5.56482 19.2648C5.56482 19.1978 5.59144 19.1335 5.63882 19.0861L5.99619 18.7287C6.04359 18.6813 6.10786 18.6547 6.17488 18.6547C6.24189 18.6547 6.30617 18.6813 6.35356 18.7287L7.0309 19.4061C7.0783 19.4535 7.14257 19.4801 7.20959 19.4801C7.27661 19.4801 7.34088 19.4535 7.38828 19.4061L9.77262 17.0222C9.82001 16.9749 9.88428 16.9482 9.9513 16.9482C10.0183 16.9482 10.0826 16.9749 10.13 17.0222L12.4714 19.3631C12.5188 19.4105 12.583 19.4371 12.65 19.4371C12.7171 19.4371 12.7813 19.4105 12.8287 19.3631L15.2126 16.9793C15.26 16.9319 15.3242 16.9053 15.3913 16.9053C15.4583 16.9053 15.5225 16.9319 15.5699 16.9793L17.9113 19.3206C17.9587 19.368 18.023 19.3946 18.09 19.3946C18.157 19.3946 18.2213 19.368 18.2687 19.3206L18.8606 18.7287C18.908 18.6813 18.9723 18.6547 19.0393 18.6547C19.1063 18.6547 19.1706 18.6813 19.218 18.7287L19.5753 19.0861C19.6227 19.1335 19.6493 19.1978 19.6493 19.2648C19.6493 19.3318 19.6227 19.3961 19.5753 19.4435L18.2687 20.7501C18.2213 20.7975 18.157 20.8241 18.09 20.8241C18.023 20.8241 17.9587 20.7975 17.9113 20.7501L15.5699 18.4088C15.5225 18.3614 15.4583 18.3348 15.3913 18.3348C15.3242 18.3348 15.26 18.3614 15.2126 18.4088L12.8287 20.7931C12.7813 20.8405 12.7171 20.8671 12.65 20.8671C12.583 20.8671 12.5188 20.8405 12.4714 20.7931L10.13 18.4517C10.0826 18.4043 10.0183 18.3777 9.9513 18.3777C9.88428 18.3777 9.82001 18.4043 9.77262 18.4517L7.38828 20.8361C7.34088 20.8834 7.27661 20.9101 7.20959 20.9101C7.14257 20.9101 7.0783 20.8834 7.0309 20.8361V20.8361Z" stroke="url(#paint9_linear_213_17094)" stroke-width="0.101096" stroke-miterlimit="10"/>
<defs>
<filter id="filter0_f_213_17094" x="-0.946434" y="10.8872" width="27.0442" height="15.4976" filterUnits="userSpaceOnUse" color-interpolation-filters="sRGB">
<feFlood flood-opacity="0" result="BackgroundImageFix"/>
<feBlend mode="normal" in="SourceGraphic" in2="BackgroundImageFix" result="shape"/>
<feGaussianBlur stdDeviation="0.631847" result="effect1_foregroundBlur_213_17094"/>
</filter>
<filter id="filter1_f_213_17094" x="-1.70465" y="10.129" width="28.5606" height="17.014" filterUnits="userSpaceOnUse" color-interpolation-filters="sRGB">
<feFlood flood-opacity="0" result="BackgroundImageFix"/>
<feBlend mode="normal" in="SourceGraphic" in2="BackgroundImageFix" result="shape"/>
<feGaussianBlur stdDeviation="1.01096" result="effect1_foregroundBlur_213_17094"/>
</filter>
<radialGradient id="paint0_radial_213_17094" cx="0" cy="0" r="1" gradientUnits="userSpaceOnUse" gradientTransform="translate(12.5911 0.446289) rotate(90) scale(24.364)">
<stop stop-color="#FFDE43"/>
<stop offset="1" stop-color="#FFBC00"/>
</radialGradient>
<radialGradient id="paint1_radial_213_17094" cx="0" cy="0" r="1" gradientUnits="userSpaceOnUse" gradientTransform="translate(12.5911 3.70662) rotate(90) scale(21.1037)">
<stop stop-color="white" stop-opacity="0.5"/>
<stop offset="0.782278"/>
</radialGradient>
<radialGradient id="paint2_radial_213_17094" cx="0" cy="0" r="1" gradientUnits="userSpaceOnUse" gradientTransform="translate(12.5911 3.70662) rotate(90) scale(21.1037)">
<stop stop-color="white" stop-opacity="0.5"/>
<stop offset="0.782278"/>
</radialGradient>
<radialGradient id="paint3_radial_213_17094" cx="0" cy="0" r="1" gradientUnits="userSpaceOnUse" gradientTransform="translate(12.5911 -2.20747) rotate(90) scale(27.0178 36.5377)">
<stop offset="0.0922635" stop-color="white"/>
<stop offset="0.670207" stop-color="white" stop-opacity="0"/>
</radialGradient>
<radialGradient id="paint4_radial_213_17094" cx="0" cy="0" r="1" gradientUnits="userSpaceOnUse" gradientTransform="translate(8.63488 12.0908) scale(3.27373 3.0003)">
<stop stop-color="#743C1C"/>
<stop offset="1" stop-color="#401C02"/>
</radialGradient>
<radialGradient id="paint5_radial_213_17094" cx="0" cy="0" r="1" gradientUnits="userSpaceOnUse" gradientTransform="translate(16.5877 12.0762) scale(3.27446 3.00039)">
<stop stop-color="#743C1C"/>
<stop offset="1" stop-color="#401C02"/>
</radialGradient>
<linearGradient id="paint6_linear_213_17094" x1="8.63843" y1="15.2564" x2="8.63843" y2="8.9049" gradientUnits="userSpaceOnUse">
<stop stop-color="#FFDE43"/>
<stop offset="0.22" stop-color="#FED93F"/>
<stop offset="0.51" stop-color="#FCC934"/>
<stop offset="0.82" stop-color="#F9AF21"/>
<stop offset="1" stop-color="#F79D14"/>
</linearGradient>
<linearGradient id="paint7_linear_213_17094" x1="16.5913" y1="15.242" x2="16.5913" y2="8.89024" gradientUnits="userSpaceOnUse">
<stop stop-color="#FFDE43"/>
<stop offset="0.22" stop-color="#FED93F"/>
<stop offset="0.51" stop-color="#FCC934"/>
<stop offset="0.82" stop-color="#F9AF21"/>
<stop offset="1" stop-color="#F79D14"/>
</linearGradient>
<radialGradient id="paint8_radial_213_17094" cx="0" cy="0" r="1" gradientUnits="userSpaceOnUse" gradientTransform="translate(12.6071 18.8996) scale(5.31567 4.04506)">
<stop stop-color="#743C1C"/>
<stop offset="1" stop-color="#401C02"/>
</radialGradient>
<linearGradient id="paint9_linear_213_17094" x1="12.6071" y1="21.0228" x2="12.6071" y2="16.7764" gradientUnits="userSpaceOnUse">
<stop offset="0.265625" stop-color="#FFDE43"/>
<stop offset="1" stop-color="#F79D14"/>
</linearGradient>
</defs>
</svg>
