<svg viewBox="0 0 26 25" fill="none" xmlns="http://www.w3.org/2000/svg">
<path d="M12.8918 24.827C19.6239 24.827 25.0814 19.3695 25.0814 12.6374C25.0814 5.90523 19.6239 0.447754 12.8918 0.447754C6.15962 0.447754 0.702148 5.90523 0.702148 12.6374C0.702148 19.3695 6.15962 24.827 12.8918 24.827Z" fill="url(#paint0_radial_213_17097)"/>
<g style="mix-blend-mode:soft-light">
<path d="M12.8918 24.827C19.6239 24.827 25.0814 19.3695 25.0814 12.6374C25.0814 5.90523 19.6239 0.447754 12.8918 0.447754C6.15962 0.447754 0.702148 5.90523 0.702148 12.6374C0.702148 19.3695 6.15962 24.827 12.8918 24.827Z" fill="url(#paint1_radial_213_17097)"/>
</g>
<g style="mix-blend-mode:soft-light">
<path d="M12.8918 24.827C19.6239 24.827 25.0814 19.3695 25.0814 12.6374C25.0814 5.90523 19.6239 0.447754 12.8918 0.447754C6.15962 0.447754 0.702148 5.90523 0.702148 12.6374C0.702148 19.3695 6.15962 24.827 12.8918 24.827Z" fill="url(#paint2_radial_213_17097)"/>
</g>
<g style="mix-blend-mode:overlay">
<path d="M12.8918 24.827C19.6239 24.827 25.0814 19.3695 25.0814 12.6374C25.0814 5.90523 19.6239 0.447754 12.8918 0.447754C6.15962 0.447754 0.702148 5.90523 0.702148 12.6374C0.702148 19.3695 6.15962 24.827 12.8918 24.827Z" fill="url(#paint3_radial_213_17097)" fill-opacity="0.7"/>
</g>
<mask id="mask0_213_17097" style="mask-type:alpha" maskUnits="userSpaceOnUse" x="0" y="0" width="26" height="25">
<path d="M12.8918 24.827C19.6239 24.827 25.0814 19.3695 25.0814 12.6374C25.0814 5.90523 19.6239 0.447754 12.8918 0.447754C6.15962 0.447754 0.702148 5.90523 0.702148 12.6374C0.702148 19.3695 6.15962 24.827 12.8918 24.827Z" fill="white"/>
</mask>
<g mask="url(#mask0_213_17097)">
<g filter="url(#filter0_f_213_17097)">
<path d="M0.632206 12.2894C0.645442 12.1162 0.702438 12.0988 0.719062 12.2747C0.737532 12.4701 0.701629 12.8629 0.710273 13.0999C0.73316 13.7273 0.829334 14.2728 0.928478 14.7165C1.24797 16.1464 1.69042 17.0678 2.1031 17.8484C3.45961 20.4145 4.94555 21.714 6.39514 22.6933C8.51999 24.1288 10.6621 24.5854 12.806 24.6823C12.86 24.6847 12.869 25.0369 12.8158 25.0828C12.7199 25.1655 12.6011 25.0834 12.5029 25.08C12.2209 25.0701 11.9389 25.0507 11.6569 25.0214C10.8208 24.9345 9.98474 24.7576 9.15035 24.4729C6.88169 23.6989 4.43558 22.3735 2.29932 18.6406C2.16494 18.4058 2.03161 18.1585 1.90018 17.8929C1.79506 17.6804 1.69097 17.4577 1.58872 17.2195C1.25237 16.436 0.468586 14.4303 0.632206 12.2894ZM12.8075 25.0866C12.7559 25.0882 12.7428 24.7598 12.792 24.6916C12.8663 24.5886 12.9777 24.6734 13.0561 24.6685C13.3815 24.6482 13.7068 24.618 14.0321 24.5772C14.9239 24.4652 15.8151 24.274 16.7042 23.9795C18.9097 23.2492 21.2808 22.1357 23.3598 18.7149C23.4921 18.4971 23.6233 18.2662 23.7527 18.0179C24.1459 17.2634 25.1316 15.2605 25.0176 12.7707C25.008 12.5608 25.0719 12.435 25.1005 12.6151C25.1369 12.8444 25.1222 13.3223 25.1121 13.5766C25.08 14.3911 24.9549 15.0799 24.823 15.6362C24.4051 17.3991 23.8183 18.4213 23.2809 19.2748C21.5342 22.0489 19.6371 23.1672 17.7926 23.9708C16.1384 24.6916 14.4715 25.0352 12.8075 25.0866Z" fill="#401C02"/>
</g>
<g filter="url(#filter1_f_213_17097)">
<path d="M0.632206 12.2894C0.645442 12.1162 0.702438 12.0988 0.719062 12.2747C0.737532 12.4701 0.701629 12.8629 0.710273 13.0999C0.73316 13.7273 0.829334 14.2728 0.928478 14.7165C1.24797 16.1464 1.69042 17.0678 2.1031 17.8484C3.45961 20.4145 4.94555 21.714 6.39514 22.6933C8.51999 24.1288 10.6621 24.5854 12.806 24.6823C12.86 24.6847 12.869 25.0369 12.8158 25.0828C12.7199 25.1655 12.6011 25.0834 12.5029 25.08C12.2209 25.0701 11.9389 25.0507 11.6569 25.0214C10.8208 24.9345 9.98474 24.7576 9.15035 24.4729C6.88169 23.6989 4.43558 22.3735 2.29932 18.6406C2.16494 18.4058 2.03161 18.1585 1.90018 17.8929C1.79506 17.6804 1.69097 17.4577 1.58872 17.2195C1.25237 16.436 0.468586 14.4303 0.632206 12.2894ZM12.8075 25.0866C12.7559 25.0882 12.7428 24.7598 12.792 24.6916C12.8663 24.5886 12.9777 24.6734 13.0561 24.6685C13.3815 24.6482 13.7068 24.618 14.0321 24.5772C14.9239 24.4652 15.8151 24.274 16.7042 23.9795C18.9097 23.2492 21.2808 22.1357 23.3598 18.7149C23.4921 18.4971 23.6233 18.2662 23.7527 18.0179C24.1459 17.2634 25.1316 15.2605 25.0176 12.7707C25.008 12.5608 25.0719 12.435 25.1005 12.6151C25.1369 12.8444 25.1222 13.3223 25.1121 13.5766C25.08 14.3911 24.9549 15.0799 24.823 15.6362C24.4051 17.3991 23.8183 18.4213 23.2809 19.2748C21.5342 22.0489 19.6371 23.1672 17.7926 23.9708C16.1384 24.6916 14.4715 25.0352 12.8075 25.0866Z" fill="#401C02"/>
</g>
</g>
<path d="M9.00253 11.5585C9.76261 11.5585 10.3788 10.7984 10.3788 9.86078C10.3788 8.92317 9.76261 8.16309 9.00253 8.16309C8.24245 8.16309 7.62628 8.92317 7.62628 9.86078C7.62628 10.7984 8.24245 11.5585 9.00253 11.5585Z" fill="url(#paint4_radial_213_17097)"/>
<path d="M9.00253 11.5585C9.76261 11.5585 10.3788 10.7984 10.3788 9.86078C10.3788 8.92317 9.76261 8.16309 9.00253 8.16309C8.24245 8.16309 7.62628 8.92317 7.62628 9.86078C7.62628 10.7984 8.24245 11.5585 9.00253 11.5585Z" stroke="url(#paint5_linear_213_17097)" stroke-width="0.110576" stroke-miterlimit="10"/>
<path d="M16.7541 11.5585C17.5141 11.5585 18.1303 10.7984 18.1303 9.86078C18.1303 8.92317 17.5141 8.16309 16.7541 8.16309C15.994 8.16309 15.3778 8.92317 15.3778 9.86078C15.3778 10.7984 15.994 11.5585 16.7541 11.5585Z" fill="url(#paint6_radial_213_17097)"/>
<path d="M16.7541 11.5585C17.5141 11.5585 18.1303 10.7984 18.1303 9.86078C18.1303 8.92317 17.5141 8.16309 16.7541 8.16309C15.994 8.16309 15.3778 8.92317 15.3778 9.86078C15.3778 10.7984 15.994 11.5585 16.7541 11.5585Z" stroke="url(#paint7_linear_213_17097)" stroke-width="0.110576" stroke-miterlimit="10"/>
<path d="M17.9278 18.0139C17.9473 18.0651 17.8875 18.1058 17.8446 18.0716C17.4953 17.7933 17.1337 17.5547 16.7722 17.3436C16.3613 17.1036 15.9415 16.8993 15.5128 16.7482C15.084 16.5882 14.6553 16.4727 14.2087 16.3927C13.771 16.3216 13.3244 16.2772 12.8778 16.2772C12.4312 16.2772 11.9846 16.3127 11.5469 16.3927C11.1092 16.4727 10.6716 16.5882 10.2428 16.7482C9.81408 16.9081 9.39427 17.1036 8.98339 17.3436C8.62682 17.5643 8.27025 17.806 7.91368 18.0811C7.87107 18.114 7.81344 18.0742 7.83282 18.024C7.90519 17.8364 8.00392 17.6584 8.10805 17.4858C8.24203 17.2636 8.39387 17.0503 8.57251 16.8548C8.91193 16.4549 9.32281 16.1084 9.78728 15.8151C10.2339 15.5307 10.743 15.3086 11.27 15.1664C11.797 15.0242 12.3419 14.9531 12.8867 14.9531C13.4316 14.9531 13.9764 15.0242 14.5034 15.1664C15.0304 15.3175 15.5306 15.5307 15.9951 15.8151C16.4506 16.0995 16.8615 16.4549 17.2099 16.8548C17.3796 17.0592 17.5403 17.2636 17.6743 17.4858C17.7691 17.6542 17.8588 17.8328 17.9278 18.0139Z" stroke="url(#paint8_linear_213_17097)" stroke-width="0.27644"/>
<path d="M17.9278 18.0139C17.9473 18.0651 17.8875 18.1058 17.8446 18.0716C17.4953 17.7933 17.1337 17.5547 16.7722 17.3436C16.3613 17.1036 15.9415 16.8993 15.5128 16.7482C15.084 16.5882 14.6553 16.4727 14.2087 16.3927C13.771 16.3216 13.3244 16.2772 12.8778 16.2772C12.4312 16.2772 11.9846 16.3127 11.5469 16.3927C11.1092 16.4727 10.6716 16.5882 10.2428 16.7482C9.81408 16.9081 9.39427 17.1036 8.98339 17.3436C8.62682 17.5643 8.27025 17.806 7.91368 18.0811C7.87107 18.114 7.81344 18.0742 7.83282 18.024C7.90519 17.8364 8.00392 17.6584 8.10805 17.4858C8.24203 17.2636 8.39387 17.0503 8.57251 16.8548C8.91193 16.4549 9.32281 16.1084 9.78728 15.8151C10.2339 15.5307 10.743 15.3086 11.27 15.1664C11.797 15.0242 12.3419 14.9531 12.8867 14.9531C13.4316 14.9531 13.9764 15.0242 14.5034 15.1664C15.0304 15.3175 15.5306 15.5307 15.9951 15.8151C16.4506 16.0995 16.8615 16.4549 17.2099 16.8548C17.3796 17.0592 17.5403 17.2636 17.6743 17.4858C17.7691 17.6542 17.8588 17.8328 17.9278 18.0139Z" fill="url(#paint9_radial_213_17097)"/>
<defs>
<filter id="filter0_f_213_17097" x="-0.772183" y="10.7687" width="27.2782" height="15.7331" filterUnits="userSpaceOnUse" color-interpolation-filters="sRGB">
<feFlood flood-opacity="0" result="BackgroundImageFix"/>
<feBlend mode="normal" in="SourceGraphic" in2="BackgroundImageFix" result="shape"/>
<feGaussianBlur stdDeviation="0.691099" result="effect1_foregroundBlur_213_17097"/>
</filter>
<filter id="filter1_f_213_17097" x="-1.6015" y="9.93936" width="28.9368" height="17.3918" filterUnits="userSpaceOnUse" color-interpolation-filters="sRGB">
<feFlood flood-opacity="0" result="BackgroundImageFix"/>
<feBlend mode="normal" in="SourceGraphic" in2="BackgroundImageFix" result="shape"/>
<feGaussianBlur stdDeviation="1.10576" result="effect1_foregroundBlur_213_17097"/>
</filter>
<radialGradient id="paint0_radial_213_17097" cx="0" cy="0" r="1" gradientUnits="userSpaceOnUse" gradientTransform="translate(12.8827 0.447754) rotate(90) scale(24.361)">
<stop stop-color="#FFDE43"/>
<stop offset="1" stop-color="#FFBC00"/>
</radialGradient>
<radialGradient id="paint1_radial_213_17097" cx="0" cy="0" r="1" gradientUnits="userSpaceOnUse" gradientTransform="translate(12.8827 3.70768) rotate(90) scale(21.1011)">
<stop stop-color="white" stop-opacity="0.5"/>
<stop offset="0.782278"/>
</radialGradient>
<radialGradient id="paint2_radial_213_17097" cx="0" cy="0" r="1" gradientUnits="userSpaceOnUse" gradientTransform="translate(12.8827 3.70768) rotate(90) scale(21.1011)">
<stop stop-color="white" stop-opacity="0.5"/>
<stop offset="0.782278"/>
</radialGradient>
<radialGradient id="paint3_radial_213_17097" cx="0" cy="0" r="1" gradientUnits="userSpaceOnUse" gradientTransform="translate(12.8827 -2.20568) rotate(90) scale(27.0145 36.5332)">
<stop offset="0.0922635" stop-color="white"/>
<stop offset="0.670207" stop-color="white" stop-opacity="0"/>
</radialGradient>
<radialGradient id="paint4_radial_213_17097" cx="0" cy="0" r="1" gradientUnits="userSpaceOnUse" gradientTransform="translate(9.00062 9.85965) scale(1.75438 1.70064)">
<stop stop-color="#743C1C"/>
<stop offset="1" stop-color="#401C02"/>
</radialGradient>
<linearGradient id="paint5_linear_213_17097" x1="9.00253" y1="11.654" x2="9.00253" y2="8.05383" gradientUnits="userSpaceOnUse">
<stop stop-color="#FFDE43"/>
<stop offset="0.22" stop-color="#FED93F"/>
<stop offset="0.51" stop-color="#FCC934"/>
<stop offset="0.82" stop-color="#F9AF21"/>
<stop offset="1" stop-color="#F79D14"/>
</linearGradient>
<radialGradient id="paint6_radial_213_17097" cx="0" cy="0" r="1" gradientUnits="userSpaceOnUse" gradientTransform="translate(16.7522 9.85965) scale(1.75438 1.70064)">
<stop stop-color="#743C1C"/>
<stop offset="1" stop-color="#401C02"/>
</radialGradient>
<linearGradient id="paint7_linear_213_17097" x1="16.7541" y1="11.654" x2="16.7541" y2="8.05383" gradientUnits="userSpaceOnUse">
<stop stop-color="#FFDE43"/>
<stop offset="0.22" stop-color="#FED93F"/>
<stop offset="0.51" stop-color="#FCC934"/>
<stop offset="0.82" stop-color="#F9AF21"/>
<stop offset="1" stop-color="#F79D14"/>
</linearGradient>
<linearGradient id="paint8_linear_213_17097" x1="12.8823" y1="18.2788" x2="12.8823" y2="14.849" gradientUnits="userSpaceOnUse">
<stop offset="0.265625" stop-color="#FFDE43"/>
<stop offset="1" stop-color="#F79D14"/>
</linearGradient>
<radialGradient id="paint9_radial_213_17097" cx="0" cy="0" r="1" gradientUnits="userSpaceOnUse" gradientTransform="translate(12.8823 16.5639) scale(3.85315 3.26718)">
<stop stop-color="#743C1C"/>
<stop offset="1" stop-color="#401C02"/>
</radialGradient>
</defs>
</svg>
