<svg viewBox="0 0 25 25" fill="none" xmlns="http://www.w3.org/2000/svg">
<path d="M12.7947 24.8285C19.5276 24.8285 24.9858 19.3704 24.9858 12.6374C24.9858 5.90444 19.5276 0.446289 12.7947 0.446289C6.06169 0.446289 0.603546 5.90444 0.603546 12.6374C0.603546 19.3704 6.06169 24.8285 12.7947 24.8285Z" fill="url(#paint0_radial_213_17096)"/>
<g style="mix-blend-mode:soft-light">
<path d="M12.7947 24.8285C19.5276 24.8285 24.9858 19.3704 24.9858 12.6374C24.9858 5.90444 19.5276 0.446289 12.7947 0.446289C6.06169 0.446289 0.603546 5.90444 0.603546 12.6374C0.603546 19.3704 6.06169 24.8285 12.7947 24.8285Z" fill="url(#paint1_radial_213_17096)"/>
</g>
<g style="mix-blend-mode:soft-light">
<path d="M12.7947 24.8285C19.5276 24.8285 24.9858 19.3704 24.9858 12.6374C24.9858 5.90444 19.5276 0.446289 12.7947 0.446289C6.06169 0.446289 0.603546 5.90444 0.603546 12.6374C0.603546 19.3704 6.06169 24.8285 12.7947 24.8285Z" fill="url(#paint2_radial_213_17096)"/>
</g>
<g style="mix-blend-mode:overlay">
<path d="M12.7947 24.8285C19.5276 24.8285 24.9858 19.3704 24.9858 12.6374C24.9858 5.90444 19.5276 0.446289 12.7947 0.446289C6.06169 0.446289 0.603546 5.90444 0.603546 12.6374C0.603546 19.3704 6.06169 24.8285 12.7947 24.8285Z" fill="url(#paint3_radial_213_17096)" fill-opacity="0.7"/>
</g>
<mask id="mask0_213_17096" style="mask-type:alpha" maskUnits="userSpaceOnUse" x="0" y="0" width="25" height="25">
<path d="M12.7947 24.8285C19.5276 24.8285 24.9858 19.3704 24.9858 12.6374C24.9858 5.90444 19.5276 0.446289 12.7947 0.446289C6.06169 0.446289 0.603546 5.90444 0.603546 12.6374C0.603546 19.3704 6.06169 24.8285 12.7947 24.8285Z" fill="white"/>
</mask>
<g mask="url(#mask0_213_17096)">
<g filter="url(#filter0_f_213_17096)">
<path d="M0.533881 12.2894C0.547118 12.1162 0.604122 12.0988 0.620748 12.2747C0.63922 12.4701 0.603312 12.863 0.611957 13.1C0.634848 13.7275 0.731033 14.273 0.830189 14.7168C1.14972 16.1469 1.59223 17.0684 2.00496 17.8491C3.36163 20.4156 4.84776 21.7151 6.29752 22.6946C8.42263 24.1303 10.565 24.5869 12.7091 24.6838C12.7632 24.6862 12.7722 25.0385 12.719 25.0844C12.6231 25.1671 12.5042 25.085 12.406 25.0816C12.124 25.0717 11.842 25.0523 11.56 25.023C10.7237 24.9361 9.88756 24.7591 9.05307 24.4744C6.78414 23.7003 4.33772 22.3748 2.2012 18.6414C2.0668 18.4065 1.93346 18.1593 1.80201 17.8936C1.69688 17.6811 1.59278 17.4583 1.49051 17.2201C1.15413 16.4365 0.370241 14.4306 0.533881 12.2894ZM12.7106 25.0882C12.659 25.0898 12.646 24.7613 12.6951 24.6932C12.7695 24.5901 12.8809 24.675 12.9593 24.6701C13.2847 24.6497 13.6101 24.6196 13.9354 24.5787C14.8273 24.4667 15.7186 24.2755 16.6079 23.981C18.8136 23.2505 21.185 22.1369 23.2642 18.7157C23.3966 18.4979 23.5278 18.2669 23.6572 18.0186C24.0505 17.264 25.0363 15.2609 24.9223 12.7707C24.9127 12.5608 24.9766 12.4351 25.0052 12.6152C25.0416 12.8444 25.0269 13.3225 25.0168 13.5768C24.9847 14.3914 24.8596 15.0803 24.7277 15.6366C24.3097 17.3998 23.7228 18.4221 23.1853 19.2757C21.4384 22.0501 19.5411 23.1686 17.6964 23.9723C16.0419 24.6932 14.3749 25.0368 12.7106 25.0882Z" fill="#401C02"/>
</g>
<g filter="url(#filter1_f_213_17096)">
<path d="M0.533881 12.2894C0.547118 12.1162 0.604122 12.0988 0.620748 12.2747C0.63922 12.4701 0.603312 12.863 0.611957 13.1C0.634848 13.7275 0.731033 14.273 0.830189 14.7168C1.14972 16.1469 1.59223 17.0684 2.00496 17.8491C3.36163 20.4156 4.84776 21.7151 6.29752 22.6946C8.42263 24.1303 10.565 24.5869 12.7091 24.6838C12.7632 24.6862 12.7722 25.0385 12.719 25.0844C12.6231 25.1671 12.5042 25.085 12.406 25.0816C12.124 25.0717 11.842 25.0523 11.56 25.023C10.7237 24.9361 9.88756 24.7591 9.05307 24.4744C6.78414 23.7003 4.33772 22.3748 2.2012 18.6414C2.0668 18.4065 1.93346 18.1593 1.80201 17.8936C1.69688 17.6811 1.59278 17.4583 1.49051 17.2201C1.15413 16.4365 0.370241 14.4306 0.533881 12.2894ZM12.7106 25.0882C12.659 25.0898 12.646 24.7613 12.6951 24.6932C12.7695 24.5901 12.8809 24.675 12.9593 24.6701C13.2847 24.6497 13.6101 24.6196 13.9354 24.5787C14.8273 24.4667 15.7186 24.2755 16.6079 23.981C18.8136 23.2505 21.185 22.1369 23.2642 18.7157C23.3966 18.4979 23.5278 18.2669 23.6572 18.0186C24.0505 17.264 25.0363 15.2609 24.9223 12.7707C24.9127 12.5608 24.9766 12.4351 25.0052 12.6152C25.0416 12.8444 25.0269 13.3225 25.0168 13.5768C24.9847 14.3914 24.8596 15.0803 24.7277 15.6366C24.3097 17.3998 23.7228 18.4221 23.1853 19.2757C21.4384 22.0501 19.5411 23.1686 17.6964 23.9723C16.0419 24.6932 14.3749 25.0368 12.7106 25.0882Z" fill="#401C02"/>
</g>
</g>
<path d="M8.90495 11.5589C9.66512 11.5589 10.2814 10.7987 10.2814 9.86099C10.2814 8.92326 9.66512 8.16309 8.90495 8.16309C8.14478 8.16309 7.52853 8.92326 7.52853 9.86099C7.52853 10.7987 8.14478 11.5589 8.90495 11.5589Z" fill="url(#paint4_radial_213_17096)"/>
<path d="M8.90495 11.5589C9.66512 11.5589 10.2814 10.7987 10.2814 9.86099C10.2814 8.92326 9.66512 8.16309 8.90495 8.16309C8.14478 8.16309 7.52853 8.92326 7.52853 9.86099C7.52853 10.7987 8.14478 11.5589 8.90495 11.5589Z" stroke="url(#paint5_linear_213_17096)" stroke-width="0.101096" stroke-miterlimit="10"/>
<path d="M16.658 11.5589C17.4182 11.5589 18.0344 10.7987 18.0344 9.86099C18.0344 8.92326 17.4182 8.16309 16.658 8.16309C15.8978 8.16309 15.2816 8.92326 15.2816 9.86099C15.2816 10.7987 15.8978 11.5589 16.658 11.5589Z" fill="url(#paint6_radial_213_17096)"/>
<path d="M16.658 11.5589C17.4182 11.5589 18.0344 10.7987 18.0344 9.86099C18.0344 8.92326 17.4182 8.16309 16.658 8.16309C15.8978 8.16309 15.2816 8.92326 15.2816 9.86099C15.2816 10.7987 15.8978 11.5589 16.658 11.5589Z" stroke="url(#paint7_linear_213_17096)" stroke-width="0.101096" stroke-miterlimit="10"/>
<path d="M18.7136 19.9371L18.7136 19.9371C17.5656 17.5759 15.3352 15.7474 12.781 15.7474C10.2267 15.7474 7.99484 17.5744 6.84691 19.9371L6.84683 19.9372C6.82777 19.9762 6.79829 20.0091 6.76164 20.0323L6.72784 19.9789L6.76164 20.0323C6.725 20.0555 6.68264 20.0681 6.63927 20.0687L6.63842 20.0687C6.60047 20.0687 6.56308 20.0595 6.52947 20.0418C6.49587 20.0242 6.46704 19.9987 6.44547 19.9674C6.4239 19.9362 6.41023 19.9002 6.40564 19.8625C6.40105 19.8249 6.40566 19.7867 6.41908 19.7512M18.7136 19.9371L6.4782 19.7735M18.7136 19.9371C18.7326 19.9762 18.7621 20.0092 18.7988 20.0324C18.8355 20.0556 18.8779 20.0682 18.9213 20.0687C18.9595 20.0691 18.9972 20.0603 19.0312 20.0428C19.0652 20.0254 19.0944 19.9999 19.1163 19.9686C19.1381 19.9373 19.1521 19.9011 19.1568 19.8632C19.1615 19.8254 19.1569 19.787 19.1435 19.7513M18.7136 19.9371L19.0843 19.7735M6.41908 19.7512C6.41908 19.7512 6.41909 19.7512 6.4191 19.7511L6.4782 19.7735M6.41908 19.7512C6.41907 19.7512 6.41906 19.7513 6.41905 19.7513L6.4782 19.7735M6.41908 19.7512C7.44626 17.017 9.90242 14.7566 12.781 14.7566C15.6596 14.7566 18.1163 17.0191 19.1435 19.7513M6.4782 19.7735C7.49926 17.0556 9.93668 14.8198 12.781 14.8198C15.6253 14.8198 18.0632 17.0576 19.0843 19.7735M19.1435 19.7513C19.1434 19.7512 19.1434 19.7512 19.1434 19.7511L19.0843 19.7735M19.1435 19.7513L19.0843 19.7735" stroke="url(#paint8_linear_213_17096)" stroke-width="0.126369" stroke-miterlimit="10"/>
<path d="M18.9221 20.0055C18.8904 20.0052 18.8594 19.996 18.8326 19.979C18.8058 19.9621 18.7843 19.938 18.7704 19.9095C17.6154 17.5337 15.3665 15.6842 12.781 15.6842C10.1955 15.6842 7.94509 17.5322 6.79008 19.9095C6.77615 19.9379 6.75461 19.962 6.72784 19.9789C6.70107 19.9959 6.67012 20.0051 6.63843 20.0055C6.6107 20.0055 6.58339 19.9988 6.55883 19.9859C6.53428 19.973 6.51322 19.9544 6.49746 19.9315C6.4817 19.9087 6.47172 19.8824 6.46836 19.8549C6.46501 19.8274 6.46838 19.7994 6.4782 19.7735C7.49926 17.0556 9.93668 14.8198 12.781 14.8198C15.6253 14.8198 18.0632 17.0576 19.0843 19.7735C19.0942 19.7996 19.0975 19.8277 19.0941 19.8554C19.0906 19.8831 19.0805 19.9095 19.0645 19.9324C19.0485 19.9552 19.0272 19.9739 19.0023 19.9866C18.9775 19.9994 18.95 20.0058 18.9221 20.0055Z" fill="url(#paint9_radial_213_17096)"/>
<defs>
<filter id="filter0_f_213_17096" x="-0.752007" y="10.8872" width="27.0442" height="15.4976" filterUnits="userSpaceOnUse" color-interpolation-filters="sRGB">
<feFlood flood-opacity="0" result="BackgroundImageFix"/>
<feBlend mode="normal" in="SourceGraphic" in2="BackgroundImageFix" result="shape"/>
<feGaussianBlur stdDeviation="0.631847" result="effect1_foregroundBlur_213_17096"/>
</filter>
<filter id="filter1_f_213_17096" x="-1.51022" y="10.129" width="28.5606" height="17.014" filterUnits="userSpaceOnUse" color-interpolation-filters="sRGB">
<feFlood flood-opacity="0" result="BackgroundImageFix"/>
<feBlend mode="normal" in="SourceGraphic" in2="BackgroundImageFix" result="shape"/>
<feGaussianBlur stdDeviation="1.01096" result="effect1_foregroundBlur_213_17096"/>
</filter>
<radialGradient id="paint0_radial_213_17096" cx="0" cy="0" r="1" gradientUnits="userSpaceOnUse" gradientTransform="translate(12.7856 0.446289) rotate(90) scale(24.364)">
<stop stop-color="#FFDE43"/>
<stop offset="1" stop-color="#FFBC00"/>
</radialGradient>
<radialGradient id="paint1_radial_213_17096" cx="0" cy="0" r="1" gradientUnits="userSpaceOnUse" gradientTransform="translate(12.7856 3.70662) rotate(90) scale(21.1037)">
<stop stop-color="white" stop-opacity="0.5"/>
<stop offset="0.782278"/>
</radialGradient>
<radialGradient id="paint2_radial_213_17096" cx="0" cy="0" r="1" gradientUnits="userSpaceOnUse" gradientTransform="translate(12.7856 3.70662) rotate(90) scale(21.1037)">
<stop stop-color="white" stop-opacity="0.5"/>
<stop offset="0.782278"/>
</radialGradient>
<radialGradient id="paint3_radial_213_17096" cx="0" cy="0" r="1" gradientUnits="userSpaceOnUse" gradientTransform="translate(12.7856 -2.20747) rotate(90) scale(27.0178 36.5377)">
<stop offset="0.0922635" stop-color="white"/>
<stop offset="0.670207" stop-color="white" stop-opacity="0"/>
</radialGradient>
<radialGradient id="paint4_radial_213_17096" cx="0" cy="0" r="1" gradientUnits="userSpaceOnUse" gradientTransform="translate(8.90305 9.85986) scale(1.7546 1.70085)">
<stop stop-color="#743C1C"/>
<stop offset="1" stop-color="#401C02"/>
</radialGradient>
<linearGradient id="paint5_linear_213_17096" x1="8.90495" y1="11.6544" x2="8.90495" y2="8.05381" gradientUnits="userSpaceOnUse">
<stop stop-color="#FFDE43"/>
<stop offset="0.22" stop-color="#FED93F"/>
<stop offset="0.51" stop-color="#FCC934"/>
<stop offset="0.82" stop-color="#F9AF21"/>
<stop offset="1" stop-color="#F79D14"/>
</linearGradient>
<radialGradient id="paint6_radial_213_17096" cx="0" cy="0" r="1" gradientUnits="userSpaceOnUse" gradientTransform="translate(16.6561 9.85986) scale(1.7546 1.70085)">
<stop stop-color="#743C1C"/>
<stop offset="1" stop-color="#401C02"/>
</radialGradient>
<linearGradient id="paint7_linear_213_17096" x1="16.658" y1="11.6544" x2="16.658" y2="8.05381" gradientUnits="userSpaceOnUse">
<stop stop-color="#FFDE43"/>
<stop offset="0.22" stop-color="#FED93F"/>
<stop offset="0.51" stop-color="#FCC934"/>
<stop offset="0.82" stop-color="#F9AF21"/>
<stop offset="1" stop-color="#F79D14"/>
</linearGradient>
<linearGradient id="paint8_linear_213_17096" x1="12.7813" y1="20.1514" x2="12.7813" y2="14.653" gradientUnits="userSpaceOnUse">
<stop offset="0.265625" stop-color="#FFDE43"/>
<stop offset="1" stop-color="#F79D14"/>
</linearGradient>
<radialGradient id="paint9_radial_213_17096" cx="0" cy="0" r="1" gradientUnits="userSpaceOnUse" gradientTransform="translate(12.7813 17.4022) scale(4.76607 5.23785)">
<stop stop-color="#743C1C"/>
<stop offset="1" stop-color="#401C02"/>
</radialGradient>
</defs>
</svg>
