<svg viewBox="0 0 25 25" fill="none" xmlns="http://www.w3.org/2000/svg">
<path d="M12.6975 24.827C19.4296 24.827 24.8871 19.3695 24.8871 12.6374C24.8871 5.90523 19.4296 0.447754 12.6975 0.447754C5.96535 0.447754 0.507874 5.90523 0.507874 12.6374C0.507874 19.3695 5.96535 24.827 12.6975 24.827Z" fill="url(#paint0_radial_213_17095)"/>
<g style="mix-blend-mode:soft-light">
<path d="M12.6975 24.827C19.4296 24.827 24.8871 19.3695 24.8871 12.6374C24.8871 5.90523 19.4296 0.447754 12.6975 0.447754C5.96535 0.447754 0.507874 5.90523 0.507874 12.6374C0.507874 19.3695 5.96535 24.827 12.6975 24.827Z" fill="url(#paint1_radial_213_17095)"/>
</g>
<g style="mix-blend-mode:soft-light">
<path d="M12.6975 24.827C19.4296 24.827 24.8871 19.3695 24.8871 12.6374C24.8871 5.90523 19.4296 0.447754 12.6975 0.447754C5.96535 0.447754 0.507874 5.90523 0.507874 12.6374C0.507874 19.3695 5.96535 24.827 12.6975 24.827Z" fill="url(#paint2_radial_213_17095)"/>
</g>
<g style="mix-blend-mode:overlay">
<path d="M12.6975 24.827C19.4296 24.827 24.8871 19.3695 24.8871 12.6374C24.8871 5.90523 19.4296 0.447754 12.6975 0.447754C5.96535 0.447754 0.507874 5.90523 0.507874 12.6374C0.507874 19.3695 5.96535 24.827 12.6975 24.827Z" fill="url(#paint3_radial_213_17095)" fill-opacity="0.7"/>
</g>
<mask id="mask0_213_17095" style="mask-type:alpha" maskUnits="userSpaceOnUse" x="0" y="0" width="25" height="25">
<path d="M12.6975 24.827C19.4296 24.827 24.8871 19.3695 24.8871 12.6374C24.8871 5.90523 19.4296 0.447754 12.6975 0.447754C5.96535 0.447754 0.507874 5.90523 0.507874 12.6374C0.507874 19.3695 5.96535 24.827 12.6975 24.827Z" fill="white"/>
</mask>
<g mask="url(#mask0_213_17095)">
<g filter="url(#filter0_f_213_17095)">
<path d="M0.438236 12.2894C0.451472 12.1162 0.508469 12.0988 0.525093 12.2747C0.543562 12.4701 0.507659 12.8629 0.516303 13.0999C0.53919 13.7273 0.635364 14.2728 0.734508 14.7165C1.054 16.1464 1.49645 17.0678 1.90913 17.8484C3.26564 20.4145 4.75159 21.714 6.20117 22.6933C8.32602 24.1288 10.4681 24.5854 12.612 24.6823C12.6661 24.6847 12.6751 25.0369 12.6219 25.0828C12.5259 25.1655 12.4071 25.0834 12.3089 25.08C12.0269 25.0701 11.7449 25.0507 11.463 25.0214C10.6268 24.9345 9.79077 24.7576 8.95638 24.4729C6.68772 23.6989 4.24161 22.3735 2.10535 18.6406C1.97097 18.4058 1.83764 18.1585 1.70621 17.8929C1.60109 17.6804 1.497 17.4577 1.39475 17.2195C1.0584 16.436 0.274616 14.4303 0.438236 12.2894ZM12.6135 25.0866C12.5619 25.0882 12.5488 24.7598 12.598 24.6916C12.6723 24.5886 12.7837 24.6734 12.8621 24.6685C13.1875 24.6482 13.5129 24.618 13.8381 24.5772C14.7299 24.4652 15.6211 24.274 16.5103 23.9795C18.7157 23.2492 21.0868 22.1357 23.1658 18.7149C23.2981 18.4971 23.4293 18.2662 23.5587 18.0179C23.952 17.2634 24.9376 15.2605 24.8237 12.7707C24.8141 12.5608 24.878 12.435 24.9066 12.6151C24.943 12.8444 24.9282 13.3223 24.9182 13.5766C24.8861 14.3911 24.761 15.0799 24.6291 15.6362C24.2111 17.3991 23.6243 18.4213 23.0869 19.2748C21.3402 22.0489 19.4431 23.1672 17.5987 23.9708C15.9444 24.6916 14.2775 25.0352 12.6135 25.0866Z" fill="#401C02"/>
</g>
<g filter="url(#filter1_f_213_17095)">
<path d="M0.438236 12.2894C0.451472 12.1162 0.508469 12.0988 0.525093 12.2747C0.543562 12.4701 0.507659 12.8629 0.516303 13.0999C0.53919 13.7273 0.635364 14.2728 0.734508 14.7165C1.054 16.1464 1.49645 17.0678 1.90913 17.8484C3.26564 20.4145 4.75159 21.714 6.20117 22.6933C8.32602 24.1288 10.4681 24.5854 12.612 24.6823C12.6661 24.6847 12.6751 25.0369 12.6219 25.0828C12.5259 25.1655 12.4071 25.0834 12.3089 25.08C12.0269 25.0701 11.7449 25.0507 11.463 25.0214C10.6268 24.9345 9.79077 24.7576 8.95638 24.4729C6.68772 23.6989 4.24161 22.3735 2.10535 18.6406C1.97097 18.4058 1.83764 18.1585 1.70621 17.8929C1.60109 17.6804 1.497 17.4577 1.39475 17.2195C1.0584 16.436 0.274616 14.4303 0.438236 12.2894ZM12.6135 25.0866C12.5619 25.0882 12.5488 24.7598 12.598 24.6916C12.6723 24.5886 12.7837 24.6734 12.8621 24.6685C13.1875 24.6482 13.5129 24.618 13.8381 24.5772C14.7299 24.4652 15.6211 24.274 16.5103 23.9795C18.7157 23.2492 21.0868 22.1357 23.1658 18.7149C23.2981 18.4971 23.4293 18.2662 23.5587 18.0179C23.952 17.2634 24.9376 15.2605 24.8237 12.7707C24.8141 12.5608 24.878 12.435 24.9066 12.6151C24.943 12.8444 24.9282 13.3223 24.9182 13.5766C24.8861 14.3911 24.761 15.0799 24.6291 15.6362C24.2111 17.3991 23.6243 18.4213 23.0869 19.2748C21.3402 22.0489 19.4431 23.1672 17.5987 23.9708C15.9444 24.6916 14.2775 25.0352 12.6135 25.0866Z" fill="#401C02"/>
</g>
</g>
<path d="M11.3979 10.2882C11.451 10.3131 11.4954 10.3534 11.5253 10.4039C11.5551 10.4544 11.569 10.5127 11.5652 10.5713C11.4828 11.9132 10.5968 13.1565 9.21958 13.6579C7.84232 14.1592 6.36499 13.7761 5.43907 12.8012C5.39905 12.7583 5.37284 12.7044 5.36383 12.6465C5.35482 12.5885 5.36342 12.5292 5.38853 12.4762C5.42096 12.4085 5.47818 12.3558 5.54836 12.3291C5.61854 12.3023 5.69631 12.3036 5.76557 12.3327C6.60102 12.6723 7.67554 12.6905 8.72983 12.3064C9.78413 11.9223 10.5968 11.2182 11.0184 10.4202C11.0527 10.3532 11.1115 10.302 11.1826 10.2774C11.2537 10.2527 11.3315 10.2564 11.3999 10.2877L11.3979 10.2882Z" fill="url(#paint4_radial_213_17095)"/>
<path d="M19.9919 12.4072C20.0166 12.4604 20.0246 12.5198 20.0151 12.5777C20.0055 12.6355 19.9788 12.6892 19.9383 12.7317C19.0129 13.7066 17.5345 14.0902 16.1573 13.5883C14.78 13.0865 13.8925 11.8441 13.8122 10.5048C13.8086 10.4462 13.8227 10.3878 13.8527 10.3374C13.8827 10.2869 13.9272 10.2466 13.9805 10.2218C14.0487 10.1905 14.1264 10.1868 14.1974 10.2115C14.2683 10.2362 14.3269 10.2873 14.361 10.3542C14.7831 11.1512 15.5943 11.8558 16.6491 12.2399C17.7039 12.624 18.7789 12.6058 19.6143 12.2657C19.6836 12.2364 19.7616 12.2349 19.8319 12.2617C19.9022 12.2884 19.9595 12.3413 19.9919 12.4092V12.4072Z" fill="url(#paint5_radial_213_17095)"/>
<path d="M11.3979 10.2882C11.451 10.3131 11.4954 10.3534 11.5253 10.4039C11.5551 10.4544 11.569 10.5127 11.5652 10.5713C11.4828 11.9132 10.5968 13.1565 9.21958 13.6579C7.84232 14.1592 6.36499 13.7761 5.43907 12.8012C5.39905 12.7583 5.37284 12.7044 5.36383 12.6465C5.35482 12.5885 5.36342 12.5292 5.38853 12.4762V12.4762C5.42096 12.4085 5.47818 12.3558 5.54836 12.3291C5.61854 12.3023 5.69631 12.3036 5.76557 12.3327C6.60102 12.6723 7.67554 12.6905 8.72983 12.3064C9.78413 11.9223 10.5968 11.2182 11.0184 10.4202C11.0527 10.3532 11.1115 10.302 11.1826 10.2774C11.2537 10.2527 11.3315 10.2564 11.3999 10.2877L11.3979 10.2882Z" stroke="url(#paint6_linear_213_17095)" stroke-width="0.110576" stroke-miterlimit="10"/>
<path d="M19.9919 12.4072C20.0166 12.4604 20.0246 12.5198 20.0151 12.5777C20.0055 12.6355 19.9788 12.6892 19.9383 12.7317C19.0129 13.7066 17.5345 14.0902 16.1573 13.5883C14.78 13.0865 13.8925 11.8441 13.8122 10.5048C13.8086 10.4462 13.8227 10.3878 13.8527 10.3374C13.8827 10.2869 13.9272 10.2466 13.9805 10.2218V10.2218C14.0487 10.1905 14.1264 10.1868 14.1974 10.2115C14.2683 10.2362 14.3269 10.2873 14.361 10.3542C14.7831 11.1512 15.5943 11.8558 16.6491 12.2399C17.7039 12.624 18.7789 12.6058 19.6143 12.2657C19.6836 12.2364 19.7616 12.2349 19.8319 12.2617C19.9022 12.2884 19.9595 12.3413 19.9919 12.4092V12.4072Z" stroke="url(#paint7_linear_213_17095)" stroke-width="0.110576" stroke-miterlimit="10"/>
<path d="M9.13796 20.7249C9.11838 20.7401 9.09452 20.7487 9.06978 20.7495C9.04504 20.7503 9.02067 20.7433 9.00013 20.7295C8.97959 20.7157 8.96393 20.6957 8.95538 20.6725C8.94682 20.6493 8.9458 20.6239 8.95247 20.6001C9.37146 19.0025 10.8928 17.8203 12.7057 17.8203C14.5186 17.8203 16.0414 19.005 16.4594 20.6036C16.4661 20.6275 16.4651 20.6528 16.4565 20.676C16.4479 20.6993 16.4323 20.7192 16.4117 20.733C16.3912 20.7469 16.3668 20.7539 16.3421 20.753C16.3174 20.7522 16.2935 20.7436 16.2739 20.7285C15.3723 20.0381 14.1062 19.609 12.7057 19.609C11.3052 19.609 10.0391 20.0366 9.13796 20.7249Z" fill="url(#paint8_radial_213_17095)"/>
<path d="M9.13796 20.7249C9.11838 20.7401 9.09452 20.7487 9.06978 20.7495C9.04504 20.7503 9.02067 20.7433 9.00013 20.7295C8.97959 20.7157 8.96393 20.6957 8.95538 20.6725C8.94682 20.6493 8.9458 20.6239 8.95247 20.6001C9.37146 19.0025 10.8928 17.8203 12.7057 17.8203C14.5186 17.8203 16.0414 19.005 16.4594 20.6036C16.4661 20.6275 16.4651 20.6528 16.4565 20.676C16.4479 20.6993 16.4323 20.7192 16.4117 20.733C16.3912 20.7469 16.3668 20.7539 16.3421 20.753C16.3174 20.7522 16.2935 20.7436 16.2739 20.7285C15.3723 20.0381 14.1062 19.609 12.7057 19.609C11.3052 19.609 10.0391 20.0366 9.13796 20.7249Z" stroke="url(#paint9_linear_213_17095)" stroke-width="0.13822" stroke-miterlimit="10"/>
<defs>
<filter id="filter0_f_213_17095" x="-0.966153" y="10.7687" width="27.2782" height="15.7331" filterUnits="userSpaceOnUse" color-interpolation-filters="sRGB">
<feFlood flood-opacity="0" result="BackgroundImageFix"/>
<feBlend mode="normal" in="SourceGraphic" in2="BackgroundImageFix" result="shape"/>
<feGaussianBlur stdDeviation="0.691099" result="effect1_foregroundBlur_213_17095"/>
</filter>
<filter id="filter1_f_213_17095" x="-1.79547" y="9.93936" width="28.9368" height="17.3918" filterUnits="userSpaceOnUse" color-interpolation-filters="sRGB">
<feFlood flood-opacity="0" result="BackgroundImageFix"/>
<feBlend mode="normal" in="SourceGraphic" in2="BackgroundImageFix" result="shape"/>
<feGaussianBlur stdDeviation="1.10576" result="effect1_foregroundBlur_213_17095"/>
</filter>
<radialGradient id="paint0_radial_213_17095" cx="0" cy="0" r="1" gradientUnits="userSpaceOnUse" gradientTransform="translate(12.6884 0.447754) rotate(90) scale(24.361)">
<stop stop-color="#FFDE43"/>
<stop offset="1" stop-color="#FFBC00"/>
</radialGradient>
<radialGradient id="paint1_radial_213_17095" cx="0" cy="0" r="1" gradientUnits="userSpaceOnUse" gradientTransform="translate(12.6884 3.70768) rotate(90) scale(21.1011)">
<stop stop-color="white" stop-opacity="0.5"/>
<stop offset="0.782278"/>
</radialGradient>
<radialGradient id="paint2_radial_213_17095" cx="0" cy="0" r="1" gradientUnits="userSpaceOnUse" gradientTransform="translate(12.6884 3.70768) rotate(90) scale(21.1011)">
<stop stop-color="white" stop-opacity="0.5"/>
<stop offset="0.782278"/>
</radialGradient>
<radialGradient id="paint3_radial_213_17095" cx="0" cy="0" r="1" gradientUnits="userSpaceOnUse" gradientTransform="translate(12.6884 -2.20568) rotate(90) scale(27.0145 36.5332)">
<stop offset="0.0922635" stop-color="white"/>
<stop offset="0.670207" stop-color="white" stop-opacity="0"/>
</radialGradient>
<radialGradient id="paint4_radial_213_17095" cx="0" cy="0" r="1" gradientUnits="userSpaceOnUse" gradientTransform="translate(8.4588 12.0685) scale(3.95524 1.81162)">
<stop stop-color="#743C1C"/>
<stop offset="1" stop-color="#401C02"/>
</radialGradient>
<radialGradient id="paint5_radial_213_17095" cx="0" cy="0" r="1" gradientUnits="userSpaceOnUse" gradientTransform="translate(16.911 12.0009) scale(3.95645 1.80992)">
<stop stop-color="#743C1C"/>
<stop offset="1" stop-color="#401C02"/>
</radialGradient>
<linearGradient id="paint6_linear_213_17095" x1="8.46309" y1="13.98" x2="8.46309" y2="10.1448" gradientUnits="userSpaceOnUse">
<stop stop-color="#FFDE43"/>
<stop offset="0.22" stop-color="#FED93F"/>
<stop offset="0.51" stop-color="#FCC934"/>
<stop offset="0.82" stop-color="#F9AF21"/>
<stop offset="1" stop-color="#F79D14"/>
</linearGradient>
<linearGradient id="paint7_linear_213_17095" x1="16.9153" y1="13.9106" x2="16.9153" y2="10.079" gradientUnits="userSpaceOnUse">
<stop stop-color="#FFDE43"/>
<stop offset="0.22" stop-color="#FED93F"/>
<stop offset="0.51" stop-color="#FCC934"/>
<stop offset="0.82" stop-color="#F9AF21"/>
<stop offset="1" stop-color="#F79D14"/>
</linearGradient>
<radialGradient id="paint8_radial_213_17095" cx="0" cy="0" r="1" gradientUnits="userSpaceOnUse" gradientTransform="translate(12.7059 19.2808) scale(2.83649 2.96228)">
<stop stop-color="#743C1C"/>
<stop offset="1" stop-color="#401C02"/>
</radialGradient>
<linearGradient id="paint9_linear_213_17095" x1="12.7059" y1="20.8356" x2="12.7059" y2="17.7259" gradientUnits="userSpaceOnUse">
<stop offset="0.265625" stop-color="#FFDE43"/>
<stop offset="1" stop-color="#F79D14"/>
</linearGradient>
</defs>
</svg>
