<svg viewBox="0 0 25 25" fill="none" xmlns="http://www.w3.org/2000/svg">
<path d="M12.6882 24.827C19.0261 24.827 24.1641 19.3695 24.1641 12.6374C24.1641 5.90523 19.0261 0.447754 12.6882 0.447754C6.35025 0.447754 1.21233 5.90523 1.21233 12.6374C1.21233 19.3695 6.35025 24.827 12.6882 24.827Z" fill="url(#paint0_radial_213_17102)"/>
<g style="mix-blend-mode:soft-light">
<path d="M12.6882 24.827C19.0261 24.827 24.1641 19.3695 24.1641 12.6374C24.1641 5.90523 19.0261 0.447754 12.6882 0.447754C6.35025 0.447754 1.21233 5.90523 1.21233 12.6374C1.21233 19.3695 6.35025 24.827 12.6882 24.827Z" fill="url(#paint1_radial_213_17102)"/>
</g>
<g style="mix-blend-mode:soft-light">
<path d="M12.6882 24.827C19.0261 24.827 24.1641 19.3695 24.1641 12.6374C24.1641 5.90523 19.0261 0.447754 12.6882 0.447754C6.35025 0.447754 1.21233 5.90523 1.21233 12.6374C1.21233 19.3695 6.35025 24.827 12.6882 24.827Z" fill="url(#paint2_radial_213_17102)"/>
</g>
<g style="mix-blend-mode:overlay">
<path d="M12.6882 24.827C19.0261 24.827 24.1641 19.3695 24.1641 12.6374C24.1641 5.90523 19.0261 0.447754 12.6882 0.447754C6.35025 0.447754 1.21233 5.90523 1.21233 12.6374C1.21233 19.3695 6.35025 24.827 12.6882 24.827Z" fill="url(#paint3_radial_213_17102)" fill-opacity="0.7"/>
</g>
<mask id="mask0_213_17102" style="mask-type:alpha" maskUnits="userSpaceOnUse" x="1" y="0" width="24" height="25">
<path d="M12.6882 24.827C19.0261 24.827 24.1641 19.3695 24.1641 12.6374C24.1641 5.90523 19.0261 0.447754 12.6882 0.447754C6.35025 0.447754 1.21233 5.90523 1.21233 12.6374C1.21233 19.3695 6.35025 24.827 12.6882 24.827Z" fill="white"/>
</mask>
<g mask="url(#mask0_213_17102)">
<g filter="url(#filter0_f_213_17102)">
<path d="M1.14688 12.2894C1.15934 12.1162 1.213 12.0988 1.22865 12.2747C1.24604 12.4701 1.21224 12.8629 1.22038 13.0999C1.24193 13.7273 1.33247 14.2728 1.42581 14.7165C1.72659 16.1464 2.14314 17.0678 2.53165 17.8484C3.80873 20.4145 5.20767 21.714 6.57238 22.6933C8.57281 24.1288 10.5895 24.5854 12.6078 24.6823C12.6587 24.6847 12.6672 25.0369 12.6171 25.0828C12.5268 25.1655 12.4149 25.0834 12.3225 25.08C12.057 25.0701 11.7915 25.0507 11.5261 25.0214C10.7389 24.9345 9.95179 24.7576 9.16626 24.4729C7.03044 23.6989 4.72756 22.3735 2.71639 18.6406C2.58987 18.4058 2.46435 18.1585 2.34061 17.8929C2.24165 17.6804 2.14366 17.4577 2.04739 17.2195C1.73074 16.436 0.992843 14.4303 1.14688 12.2894ZM12.6092 25.0866C12.5607 25.0882 12.5484 24.7598 12.5947 24.6916C12.6646 24.5886 12.7695 24.6734 12.8433 24.6685C13.1496 24.6482 13.4559 24.618 13.7621 24.5772C14.6017 24.4652 15.4407 24.274 16.2779 23.9795C18.3542 23.2492 20.5864 22.1357 22.5437 18.7149C22.6682 18.4971 22.7917 18.2662 22.9136 18.0179C23.2838 17.2634 24.2117 15.2605 24.1045 12.7707C24.0954 12.5608 24.1556 12.435 24.1825 12.6151C24.2168 12.8444 24.2029 13.3223 24.1934 13.5766C24.1632 14.3911 24.0454 15.0799 23.9213 15.6362C23.5278 17.3991 22.9753 18.4213 22.4694 19.2748C20.825 22.0489 19.0389 23.1672 17.3025 23.9708C15.7451 24.6916 14.1758 25.0352 12.6092 25.0866Z" fill="#401C02"/>
</g>
<g filter="url(#filter1_f_213_17102)">
<path d="M1.14688 12.2894C1.15934 12.1162 1.213 12.0988 1.22865 12.2747C1.24604 12.4701 1.21224 12.8629 1.22038 13.0999C1.24193 13.7273 1.33247 14.2728 1.42581 14.7165C1.72659 16.1464 2.14314 17.0678 2.53165 17.8484C3.80873 20.4145 5.20767 21.714 6.57238 22.6933C8.57281 24.1288 10.5895 24.5854 12.6078 24.6823C12.6587 24.6847 12.6672 25.0369 12.6171 25.0828C12.5268 25.1655 12.4149 25.0834 12.3225 25.08C12.057 25.0701 11.7915 25.0507 11.5261 25.0214C10.7389 24.9345 9.95179 24.7576 9.16626 24.4729C7.03044 23.6989 4.72756 22.3735 2.71639 18.6406C2.58987 18.4058 2.46435 18.1585 2.34061 17.8929C2.24165 17.6804 2.14366 17.4577 2.04739 17.2195C1.73074 16.436 0.992843 14.4303 1.14688 12.2894ZM12.6092 25.0866C12.5607 25.0882 12.5484 24.7598 12.5947 24.6916C12.6646 24.5886 12.7695 24.6734 12.8433 24.6685C13.1496 24.6482 13.4559 24.618 13.7621 24.5772C14.6017 24.4652 15.4407 24.274 16.2779 23.9795C18.3542 23.2492 20.5864 22.1357 22.5437 18.7149C22.6682 18.4971 22.7917 18.2662 22.9136 18.0179C23.2838 17.2634 24.2117 15.2605 24.1045 12.7707C24.0954 12.5608 24.1556 12.435 24.1825 12.6151C24.2168 12.8444 24.2029 13.3223 24.1934 13.5766C24.1632 14.3911 24.0454 15.0799 23.9213 15.6362C23.5278 17.3991 22.9753 18.4213 22.4694 19.2748C20.825 22.0489 19.0389 23.1672 17.3025 23.9708C15.7451 24.6916 14.1758 25.0352 12.6092 25.0866Z" fill="#401C02"/>
</g>
</g>
<path d="M20.2666 16.3877C19.5753 17.8975 18.4981 19.1703 17.1581 20.0608C15.8181 20.9513 14.2693 21.4235 12.6887 21.4235C11.1081 21.4235 9.5593 20.9513 8.21931 20.0608C6.87932 19.1703 5.80212 17.8975 5.11075 16.3877C7.32094 17.2075 9.91655 17.6795 12.6887 17.6795C15.4608 17.6795 18.0564 17.2075 20.2666 16.3877Z" fill="url(#paint4_linear_213_17102)"/>
<path d="M20.9832 14.0435C20.9746 14.094 20.9656 14.1445 20.9561 14.1976C20.9465 14.2507 20.9389 14.2906 20.9294 14.3366C20.9294 14.3457 20.9261 14.3543 20.9242 14.3629C20.9151 14.4099 20.9051 14.4564 20.8952 14.5029C20.8852 14.5494 20.8761 14.5873 20.8661 14.6292C20.8604 14.6545 20.8547 14.6798 20.8481 14.705C20.8457 14.7162 20.8428 14.7278 20.84 14.7389C20.8338 14.7652 20.8271 14.7895 20.8205 14.8172C20.8205 14.8274 20.8157 14.8375 20.8128 14.8476C20.8036 14.8833 20.7941 14.9192 20.7843 14.9552C20.7714 15.0058 20.7576 15.0523 20.7438 15.1008V15.1038C20.7305 15.1493 20.7172 15.1953 20.7029 15.2408C20.672 15.3419 20.6396 15.443 20.6078 15.544C20.5911 15.5946 20.574 15.6406 20.5568 15.6881C20.5397 15.7356 20.5273 15.7689 20.5121 15.8094C20.4893 15.87 20.4645 15.9302 20.4417 15.9898C20.426 16.0292 20.4098 16.0687 20.3941 16.1076L20.3917 16.1126C20.376 16.1505 20.3599 16.1879 20.3442 16.2253L20.3185 16.284C20.3028 16.3193 20.2871 16.3547 20.2709 16.3896C18.0607 17.2094 15.4651 17.6814 12.6929 17.6814C9.9208 17.6814 7.32519 17.2094 5.115 16.3896C5.09882 16.3547 5.08312 16.3193 5.06742 16.284L5.04172 16.2253C5.02554 16.1879 5.00937 16.1505 4.99414 16.1126L4.99176 16.1076C4.97558 16.0687 4.9594 16.0292 4.94418 15.9898C4.91991 15.9302 4.8966 15.87 4.87376 15.8094C4.85853 15.7689 4.84378 15.7285 4.82903 15.6881C4.81428 15.6476 4.79477 15.5926 4.77812 15.544C4.74386 15.443 4.7115 15.3444 4.68057 15.2408C4.6663 15.1953 4.65298 15.1493 4.63965 15.1038V15.1008C4.62585 15.0502 4.61205 15.0037 4.59921 14.9552C4.58906 14.9195 4.57954 14.8836 4.57066 14.8476C4.5678 14.8375 4.56543 14.8274 4.56305 14.8172C4.55638 14.7915 4.54972 14.7667 4.54354 14.7389C4.54068 14.7278 4.53783 14.7162 4.53545 14.705C4.52879 14.6798 4.52308 14.6545 4.51737 14.6292C4.50737 14.5873 4.49786 14.5448 4.48834 14.5029C4.47883 14.4609 4.46836 14.4099 4.45932 14.3629C4.45932 14.3543 4.45551 14.3457 4.45408 14.3366C4.44457 14.2906 4.436 14.2441 4.42744 14.1976C4.41887 14.1511 4.40888 14.0965 4.40031 14.0435C6.75754 15.0366 9.61532 15.6183 12.6948 15.6183C15.7744 15.6183 18.626 15.0366 20.9832 14.0435Z" fill="url(#paint5_linear_213_17102)"/>
<path d="M20.2666 16.3877C18.0564 17.2075 15.4608 17.6795 12.6887 17.6795C9.91655 17.6795 7.32094 17.2075 5.11075 16.3877" stroke="url(#paint6_radial_213_17102)" stroke-width="0.303287" stroke-miterlimit="10"/>
<mask id="mask1_213_17102" style="mask-type:alpha" maskUnits="userSpaceOnUse" x="4" y="14" width="17" height="8">
<path d="M20.7197 14.1017C20.746 14.0911 20.7745 14.0882 20.8021 14.0933C20.8298 14.0984 20.8557 14.1113 20.8771 14.1307C20.8984 14.1501 20.9145 14.1752 20.9236 14.2034C20.9326 14.2317 20.9344 14.262 20.9286 14.2912C20.526 16.2952 19.4881 18.0917 17.9884 19.3806C16.4886 20.6695 14.6179 21.3727 12.6888 21.3727C10.7597 21.3727 8.88897 20.6695 7.38926 19.3806C5.88954 18.0917 4.85165 16.2952 4.44899 14.2912C4.44323 14.262 4.44497 14.2317 4.45404 14.2034C4.46311 14.1752 4.47917 14.1501 4.50053 14.1307C4.5219 14.1113 4.54778 14.0984 4.57547 14.0933C4.60315 14.0882 4.63162 14.0911 4.65788 14.1017C6.96324 15.0286 9.723 15.5674 12.6888 15.5674C15.6546 15.5674 18.4144 15.0286 20.7197 14.1017Z" fill="url(#paint7_linear_213_17102)"/>
</mask>
<g mask="url(#mask1_213_17102)">
<g filter="url(#filter2_f_213_17102)">
<path d="M20.7197 14.1017C20.746 14.0911 20.7745 14.0882 20.8021 14.0933C20.8298 14.0984 20.8557 14.1113 20.8771 14.1307C20.8984 14.1501 20.9145 14.1752 20.9236 14.2034C20.9326 14.2317 20.9344 14.262 20.9286 14.2912C20.526 16.2952 19.4881 18.0917 17.9884 19.3806C16.4886 20.6695 14.6179 21.3727 12.6888 21.3727C10.7597 21.3727 8.88897 20.6695 7.38926 19.3806C5.88954 18.0917 4.85165 16.2952 4.44899 14.2912C4.44323 14.262 4.44497 14.2317 4.45404 14.2034C4.46311 14.1752 4.47917 14.1501 4.50053 14.1307C4.5219 14.1113 4.54778 14.0984 4.57547 14.0933C4.60315 14.0882 4.63162 14.0911 4.65788 14.1017C6.96324 15.0286 9.723 15.5674 12.6888 15.5674C15.6546 15.5674 18.4144 15.0286 20.7197 14.1017Z" stroke="url(#paint8_linear_213_17102)" stroke-width="0.606573" stroke-miterlimit="10"/>
</g>
</g>
<path d="M21.1645 14.389L21.1644 14.3898C20.7516 16.4443 19.687 18.2889 18.1452 19.614C16.6031 20.9392 14.6773 21.664 12.6892 21.664C10.7011 21.664 8.7752 20.9392 7.23313 19.614C5.69137 18.2889 4.62678 16.4443 4.21396 14.3898L4.2138 14.389L4.2138 14.389C4.20019 14.32 4.20425 14.2484 4.22579 14.1813L21.1645 14.389ZM21.1645 14.389C21.1781 14.32 21.1741 14.2484 21.1525 14.1813C21.131 14.1142 21.0923 14.0526 21.0388 14.0041C20.9852 13.9555 20.9188 13.9218 20.846 13.9084C20.7733 13.895 20.6987 13.9027 20.6305 13.9302M21.1645 14.389L20.6305 13.9302M20.6305 13.9302C18.3559 14.8448 15.6268 15.3786 12.6892 15.3786C9.75166 15.3786 7.02264 14.8448 4.74802 13.9303C4.74795 13.9302 4.74788 13.9302 4.74782 13.9302L20.6305 13.9302Z" stroke="url(#paint9_linear_213_17102)" stroke-width="0.480204" stroke-miterlimit="10"/>
<path d="M20.7201 14.153C20.7464 14.1423 20.7748 14.1394 20.8025 14.1445C20.8302 14.1496 20.8561 14.1626 20.8774 14.1819C20.8988 14.2013 20.9149 14.2265 20.9239 14.2547C20.933 14.283 20.9347 14.3133 20.929 14.3425C20.5263 16.3465 19.4884 18.143 17.9887 19.4319C16.489 20.7208 14.6183 21.4239 12.6892 21.4239C10.76 21.4239 8.88934 20.7208 7.38962 19.4319C5.88991 18.143 4.85201 16.3465 4.44936 14.3425C4.44359 14.3133 4.44534 14.283 4.45441 14.2547C4.46347 14.2265 4.47953 14.2013 4.5009 14.1819C4.52226 14.1626 4.54815 14.1496 4.57583 14.1445C4.60352 14.1394 4.63198 14.1423 4.65825 14.153C6.9636 15.0799 9.72337 15.6187 12.6892 15.6187C15.655 15.6187 18.4147 15.0799 20.7201 14.153Z" stroke="url(#paint10_linear_213_17102)" stroke-width="0.606573" stroke-miterlimit="10"/>
<mask id="mask2_213_17102" style="mask-type:alpha" maskUnits="userSpaceOnUse" x="1" y="0" width="24" height="25">
<path d="M12.6883 24.8275C19.0263 24.8275 24.1642 19.37 24.1642 12.6379C24.1642 5.90572 19.0263 0.448242 12.6883 0.448242C6.35039 0.448242 1.21246 5.90572 1.21246 12.6379C1.21246 19.37 6.35039 24.8275 12.6883 24.8275Z" fill="url(#paint11_radial_213_17102)"/>
</mask>
<g mask="url(#mask2_213_17102)">
<g filter="url(#filter3_f_213_17102)">
<path d="M6.60622 2.78418L8.37641 5.65879L11.5896 5.2494C12.0762 5.1871 12.3908 5.78338 12.0804 6.19277L10.0501 8.86714L11.4092 11.9865C11.6148 12.4582 11.1743 12.961 10.7171 12.7741L7.69267 11.5549L5.31843 13.8866C4.95768 14.2426 4.37461 13.9533 4.39978 13.4327L4.55918 10.0019L1.73192 8.3287C1.30405 8.07506 1.37956 7.39423 1.85357 7.26074L4.97866 6.36186L5.60787 2.99332C5.70435 2.47714 6.33776 2.34809 6.60622 2.78418Z" fill="#743C1C"/>
</g>
</g>
<path d="M6.34695 1.2526L8.35492 4.51758L11.9997 4.0526C12.5517 3.98184 12.9085 4.6591 12.5564 5.12408L10.2535 8.16163L11.7951 11.7046C12.0283 12.2403 11.5287 12.8115 11.01 12.5992L7.57933 11.2143L4.88618 13.8627C4.47697 14.2671 3.81558 13.9385 3.84413 13.3472L4.02494 9.45044L0.817904 7.55008C0.332566 7.26199 0.418214 6.48871 0.955893 6.33708L4.50077 5.31614L5.2145 1.49014C5.32394 0.903862 6.04243 0.757292 6.34695 1.2526Z" fill="url(#paint12_linear_213_17102)"/>
<g style="mix-blend-mode:overlay">
<path d="M6.34695 1.2526L8.35492 4.51758L11.9997 4.0526C12.5517 3.98184 12.9085 4.6591 12.5564 5.12408L10.2535 8.16163L11.7951 11.7046C12.0283 12.2403 11.5287 12.8115 11.01 12.5992L7.57933 11.2143L4.88618 13.8627C4.47697 14.2671 3.81558 13.9385 3.84413 13.3472L4.02494 9.45044L0.817904 7.55008C0.332566 7.26199 0.418214 6.48871 0.955893 6.33708L4.50077 5.31614L5.2145 1.49014C5.32394 0.903862 6.04243 0.757292 6.34695 1.2526Z" fill="url(#paint13_radial_213_17102)"/>
</g>
<mask id="mask3_213_17102" style="mask-type:alpha" maskUnits="userSpaceOnUse" x="0" y="0" width="13" height="15">
<path d="M6.347 1.25309L8.35497 4.51807L11.9998 4.05309C12.5517 3.98233 12.9086 4.65959 12.5565 5.12457L10.2535 8.16212L11.7952 11.7051C12.0283 12.2408 11.5287 12.8119 11.0101 12.5997L7.57938 11.2148L4.88623 13.8632C4.47702 14.2675 3.81563 13.939 3.84418 13.3477L4.02499 9.45093L0.81795 7.55057C0.332612 7.26248 0.41826 6.48919 0.955938 6.33757L4.50081 5.31663L5.21454 1.49063C5.32398 0.904351 6.04247 0.75778 6.347 1.25309Z" fill="#FFA300"/>
</mask>
<g mask="url(#mask3_213_17102)">
<g filter="url(#filter4_f_213_17102)">
<path d="M6.347 1.25309L8.35497 4.51807L11.9998 4.05309C12.5517 3.98233 12.9086 4.65959 12.5565 5.12457L10.2535 8.16212L11.7952 11.7051C12.0283 12.2408 11.5287 12.8119 11.0101 12.5997L7.57938 11.2148L4.88623 13.8632C4.47702 14.2675 3.81563 13.939 3.84418 13.3477L4.02499 9.45093L0.81795 7.55057C0.332612 7.26248 0.41826 6.48919 0.955938 6.33757L4.50081 5.31663L5.21454 1.49063C5.32398 0.904351 6.04247 0.75778 6.347 1.25309Z" stroke="#FFA300" stroke-width="0.353835" stroke-miterlimit="10"/>
</g>
</g>
<mask id="mask4_213_17102" style="mask-type:alpha" maskUnits="userSpaceOnUse" x="0" y="0" width="13" height="15">
<path d="M6.347 1.25309L8.35497 4.51807L11.9998 4.05309C12.5517 3.98233 12.9086 4.65959 12.5565 5.12457L10.2535 8.16212L11.7952 11.7051C12.0283 12.2408 11.5287 12.8119 11.0101 12.5997L7.57938 11.2148L4.88623 13.8632C4.47702 14.2675 3.81563 13.939 3.84418 13.3477L4.02499 9.45093L0.81795 7.55057C0.332612 7.26248 0.41826 6.48919 0.955938 6.33757L4.50081 5.31663L5.21454 1.49063C5.32398 0.904351 6.04247 0.75778 6.347 1.25309Z" fill="#FFA300"/>
</mask>
<g mask="url(#mask4_213_17102)">
<g filter="url(#filter5_f_213_17102)">
<path d="M10.2198 8.16211L10.4624 8.68774L10.7051 9.21337L11.1857 10.2646L11.6615 11.321L11.7805 11.5838C11.7995 11.6293 11.8185 11.6697 11.8376 11.7202C11.8471 11.7455 11.8566 11.7708 11.8614 11.796L11.8756 11.8769C11.8899 11.9831 11.8851 12.0942 11.8518 12.2004C11.8185 12.3015 11.7662 12.3975 11.6996 12.4834C11.6282 12.5643 11.5426 12.6249 11.4474 12.6704C11.3522 12.7159 11.2475 12.726 11.1429 12.726L11.0667 12.7159C11.0429 12.7159 11.0191 12.7007 10.9906 12.6957C10.9383 12.6805 10.9002 12.6654 10.8526 12.6451L10.5957 12.5441L9.56313 12.1347L7.50282 11.3058L7.60275 11.2856L5.98019 12.8726L5.16654 13.661L4.96193 13.8581C4.92863 13.8935 4.89532 13.9238 4.8525 13.9592C4.83346 13.9744 4.81443 13.9946 4.79064 14.0098L4.72402 14.0502C4.62886 14.0957 4.52894 14.126 4.42426 14.121C4.31958 14.1159 4.21965 14.0957 4.12449 14.0502C4.03408 13.9997 3.94843 13.934 3.88658 13.8531C3.81996 13.7672 3.77714 13.6661 3.75335 13.565L3.73907 13.4841C3.73431 13.4589 3.73431 13.4285 3.73431 13.4033C3.73431 13.3477 3.73431 13.3022 3.73907 13.2516L3.75811 12.9585L3.82948 11.791L3.90561 10.6235L3.94368 10.0372L3.9865 9.45092L3.97222 10.0372L3.95795 10.6235L3.92464 11.796L3.88658 12.9686L3.87706 13.2618C3.87706 13.3123 3.8723 13.3628 3.87706 13.4033C3.87706 13.4235 3.87706 13.4488 3.88182 13.469L3.89133 13.5347C3.91513 13.6155 3.94843 13.6964 4.00077 13.7621C4.05311 13.8278 4.11973 13.8784 4.19586 13.9188C4.27199 13.9542 4.35288 13.9693 4.43377 13.9693C4.51466 13.9693 4.59079 13.9441 4.66217 13.9087L4.71451 13.8784C4.73354 13.8683 4.74781 13.8531 4.76209 13.8379C4.79064 13.8127 4.8287 13.7773 4.86201 13.747L5.06186 13.5448L5.866 12.7462L7.47903 11.1491L7.52186 11.1087L7.57896 11.1289L9.63926 11.9679L10.667 12.3924L10.924 12.4986C10.9668 12.5137 11.0096 12.534 11.0477 12.5441C11.0667 12.5491 11.0858 12.5592 11.1048 12.5592L11.1619 12.5693C11.2428 12.5744 11.3237 12.5643 11.395 12.534C11.4712 12.5036 11.5378 12.4531 11.5949 12.3924C11.652 12.3267 11.6948 12.256 11.7186 12.1701C11.7472 12.0892 11.7519 11.9982 11.7424 11.9123L11.7329 11.8466C11.7281 11.8264 11.7186 11.8062 11.7138 11.7859C11.7043 11.7455 11.6805 11.7 11.6615 11.6545L11.5473 11.3867L11.1 10.3152L10.6575 9.2437L10.4339 8.70796L10.2198 8.16211Z" fill="#FFFF00"/>
</g>
</g>
<mask id="mask5_213_17102" style="mask-type:alpha" maskUnits="userSpaceOnUse" x="0" y="0" width="13" height="15">
<path d="M6.347 1.25309L8.35497 4.51807L11.9998 4.05309C12.5517 3.98233 12.9086 4.65959 12.5565 5.12457L10.2535 8.16212L11.7952 11.7051C12.0283 12.2408 11.5287 12.8119 11.0101 12.5997L7.57938 11.2148L4.88623 13.8632C4.47702 14.2675 3.81563 13.939 3.84418 13.3477L4.02499 9.45093L0.81795 7.55057C0.332612 7.26248 0.41826 6.48919 0.955938 6.33757L4.50081 5.31663L5.21454 1.49063C5.32398 0.904351 6.04247 0.75778 6.347 1.25309Z" fill="#FFA300"/>
</mask>
<g mask="url(#mask5_213_17102)">
<g filter="url(#filter6_f_213_17102)">
<path d="M4.01801 9.45094C3.36138 9.1022 2.70474 8.74335 2.05287 8.38451L1.07268 7.84371L0.830006 7.70725C0.787183 7.68198 0.749117 7.66682 0.701535 7.63144C0.677743 7.61628 0.653952 7.60111 0.634919 7.5809L0.573063 7.5253C0.496931 7.43938 0.430316 7.3383 0.397009 7.22711C0.363701 7.11591 0.349426 6.99461 0.358943 6.87331C0.373217 6.75707 0.406525 6.64082 0.463624 6.53469C0.520722 6.42855 0.60637 6.34263 0.701535 6.27187L0.777666 6.22638C0.801457 6.21122 0.830006 6.20111 0.858556 6.191C0.915654 6.16573 0.95372 6.15562 1.0013 6.14046L1.26776 6.0596L2.32885 5.73613L3.38993 5.41266L4.45101 5.09425L4.29875 5.27115C4.43198 4.50292 4.56997 3.73468 4.70796 2.97151L4.91732 1.82421L4.96966 1.53613C4.97917 1.48558 4.98393 1.44515 5.00296 1.37439C5.01248 1.34407 5.01724 1.30869 5.03151 1.27836C5.04579 1.24804 5.05531 1.21771 5.06958 1.18739C5.13144 1.07114 5.21233 0.959952 5.31701 0.879085C5.42169 0.798219 5.54064 0.747677 5.6596 0.717352C5.78331 0.692081 5.91178 0.697136 6.0355 0.727461C6.15921 0.757785 6.27341 0.828544 6.37333 0.914464C6.39712 0.939735 6.42091 0.959952 6.43995 0.985222C6.46374 1.01049 6.47801 1.03576 6.5018 1.06103C6.54463 1.12168 6.56366 1.15706 6.58745 1.1975L6.73972 1.44515L7.33925 2.42566C7.73894 3.07764 8.13863 3.73468 8.53356 4.39678L8.32896 4.2957L9.42335 4.16934C9.78973 4.12891 10.1561 4.08847 10.5177 4.04804L11.6121 3.92674L11.8881 3.89642C11.9357 3.89136 11.9738 3.88631 12.0356 3.88631C12.0642 3.88631 12.0927 3.88125 12.1213 3.88631L12.2069 3.89642C12.3211 3.92169 12.4305 3.97223 12.521 4.04299C12.6114 4.1188 12.6875 4.20977 12.7398 4.31591C12.7922 4.42205 12.8207 4.53829 12.8302 4.65959C12.835 4.78089 12.8112 4.89714 12.7731 5.00833L12.7351 5.0892C12.7256 5.11447 12.7065 5.13974 12.6875 5.15996C12.6542 5.2105 12.6256 5.24588 12.5971 5.28126L12.421 5.50364L11.6978 6.39317C11.2172 6.98451 10.7366 7.57584 10.2513 8.16213C10.6843 7.53036 11.1268 6.90364 11.5693 6.28198L12.2355 5.34696L12.402 5.11447C12.4305 5.07404 12.4591 5.0336 12.4781 5.00328C12.4876 4.98811 12.5019 4.97295 12.5067 4.95274L12.5305 4.90219C12.5543 4.83144 12.5638 4.75562 12.559 4.67981C12.5495 4.604 12.5257 4.53324 12.4924 4.46248C12.4543 4.39678 12.4068 4.34118 12.3497 4.30075C12.2926 4.26032 12.2259 4.23505 12.1593 4.22494L12.107 4.21988C12.088 4.21483 12.0737 4.21988 12.0546 4.21988C12.0261 4.21988 11.9738 4.22999 11.9309 4.23505L11.6597 4.27548L10.5653 4.43216C10.1989 4.4827 9.83732 4.53829 9.47093 4.58884L8.37654 4.74046L8.24807 4.76068L8.17194 4.63938C7.76273 3.99245 7.35353 3.34046 6.94908 2.68847L6.34002 1.71302L6.18776 1.47042C6.16397 1.42999 6.13542 1.3845 6.12115 1.36428C6.11163 1.35418 6.10687 1.33901 6.0926 1.32891C6.08308 1.3188 6.07356 1.30869 6.05929 1.29858C6.01647 1.2632 5.96888 1.23288 5.91179 1.21771C5.85469 1.20255 5.79759 1.20255 5.74049 1.21266C5.68339 1.22782 5.63105 1.24804 5.58347 1.28342C5.53589 1.3188 5.50258 1.36428 5.47403 1.41483C5.46927 1.42999 5.46451 1.4401 5.455 1.45526C5.44548 1.47042 5.44548 1.48558 5.44072 1.50075C5.4312 1.52096 5.42169 1.58161 5.41217 1.6271L5.35983 1.91519L5.14095 3.06248C4.99821 3.82566 4.84594 4.59389 4.69844 5.35707L4.66989 5.49858L4.54618 5.53396L3.48033 5.8271L2.40974 6.11519L1.33914 6.40328L1.07268 6.47404C1.02985 6.48414 0.977511 6.49931 0.948962 6.50942C0.934687 6.51447 0.915654 6.51952 0.90138 6.52963L0.853798 6.5549C0.796699 6.59534 0.744359 6.64082 0.706293 6.70147C0.668227 6.76212 0.644436 6.83288 0.630161 6.90869C0.620645 6.98451 0.625403 7.06032 0.644436 7.13613C0.663469 7.21194 0.701535 7.27259 0.749117 7.33324L0.787182 7.37368C0.801457 7.38884 0.815732 7.39895 0.830006 7.40906C0.858556 7.42927 0.90138 7.4596 0.939445 7.47981L1.17736 7.63144L2.13376 8.23288C2.76184 8.63216 3.38993 9.03649 4.01801 9.45094Z" fill="#FFAC1A"/>
</g>
</g>
<mask id="mask6_213_17102" style="mask-type:alpha" maskUnits="userSpaceOnUse" x="0" y="0" width="13" height="15">
<path d="M6.347 1.25309L8.35497 4.51807L11.9998 4.05309C12.5517 3.98233 12.9086 4.65959 12.5565 5.12457L10.2535 8.16212L11.7952 11.7051C12.0283 12.2408 11.5287 12.8119 11.0101 12.5997L7.57938 11.2148L4.88623 13.8632C4.47702 14.2675 3.81563 13.939 3.84418 13.3477L4.02499 9.45093L0.81795 7.55057C0.332612 7.26248 0.41826 6.48919 0.955938 6.33757L4.50081 5.31663L5.21454 1.49063C5.32398 0.904351 6.04247 0.75778 6.347 1.25309Z" fill="#FFA300"/>
</mask>
<g mask="url(#mask6_213_17102)">
<g filter="url(#filter7_f_213_17102)">
<path d="M10.0779 8.16211L11.5101 11.4524C11.729 11.9527 11.2627 12.4784 10.7821 12.2863L7.58933 10.9975L5.08651 13.4589C4.70585 13.8329 4.09204 13.5296 4.11583 12.9787L4.28237 9.35994" fill="url(#paint14_linear_213_17102)"/>
</g>
</g>
<mask id="mask7_213_17102" style="mask-type:alpha" maskUnits="userSpaceOnUse" x="1" y="0" width="24" height="25">
<path d="M12.6882 24.827C6.35026 24.827 1.21233 19.3695 1.21233 12.6374C1.21233 5.90523 6.35026 0.447754 12.6882 0.447754C19.0262 0.447754 24.1641 5.90523 24.1641 12.6374C24.1641 19.3695 19.0262 24.827 12.6882 24.827Z" fill="url(#paint15_radial_213_17102)"/>
</mask>
<g mask="url(#mask7_213_17102)">
<g filter="url(#filter8_f_213_17102)">
<path d="M18.7704 2.78369L17.0002 5.6583L13.787 5.24891C13.3004 5.18661 12.9858 5.78289 13.2962 6.19228L15.3265 8.86665L13.9674 11.986C13.7618 12.4577 14.2023 12.9605 14.6595 12.7736L17.6839 11.5544L20.0582 13.8861C20.4189 14.2421 21.002 13.9528 20.9768 13.4322L20.8174 10.0014L23.6447 8.32821C24.0725 8.07457 23.997 7.39374 23.523 7.26025L20.3979 6.36138L19.7687 2.99283C19.6722 2.47665 19.0388 2.3476 18.7704 2.78369Z" fill="#743C1C"/>
</g>
</g>
<path d="M19.0296 1.2526L17.0216 4.51758L13.3768 4.0526C12.8248 3.98184 12.468 4.6591 12.8201 5.12408L15.1231 8.16163L13.5814 11.7046C13.3482 12.2403 13.8479 12.8115 14.3665 12.5992L17.7972 11.2143L20.4903 13.8627C20.8995 14.2671 21.5609 13.9385 21.5324 13.3472L21.3516 9.45044L24.5586 7.55008C25.0439 7.26199 24.9583 6.48871 24.4206 6.33708L20.8757 5.31614L20.162 1.49014C20.0526 0.903862 19.3341 0.757292 19.0296 1.2526Z" fill="url(#paint16_linear_213_17102)"/>
<g style="mix-blend-mode:overlay">
<path d="M19.0296 1.2526L17.0216 4.51758L13.3768 4.0526C12.8248 3.98184 12.468 4.6591 12.8201 5.12408L15.1231 8.16163L13.5814 11.7046C13.3482 12.2403 13.8479 12.8115 14.3665 12.5992L17.7972 11.2143L20.4903 13.8627C20.8995 14.2671 21.5609 13.9385 21.5324 13.3472L21.3516 9.45044L24.5586 7.55008C25.0439 7.26199 24.9583 6.48871 24.4206 6.33708L20.8757 5.31614L20.162 1.49014C20.0526 0.903862 19.3341 0.757292 19.0296 1.2526Z" fill="url(#paint17_radial_213_17102)"/>
</g>
<mask id="mask8_213_17102" style="mask-type:alpha" maskUnits="userSpaceOnUse" x="12" y="0" width="13" height="15">
<path d="M19.0296 1.2526L17.0216 4.51758L13.3768 4.0526C12.8248 3.98184 12.468 4.6591 12.8201 5.12408L15.1231 8.16163L13.5814 11.7046C13.3482 12.2403 13.8479 12.8115 14.3665 12.5992L17.7972 11.2143L20.4903 13.8627C20.8995 14.2671 21.5609 13.9385 21.5324 13.3472L21.3516 9.45044L24.5586 7.55008C25.0439 7.26199 24.9583 6.48871 24.4206 6.33708L20.8757 5.31614L20.162 1.49014C20.0526 0.903862 19.3341 0.757292 19.0296 1.2526Z" fill="#FFA300"/>
</mask>
<g mask="url(#mask8_213_17102)">
<g filter="url(#filter9_f_213_17102)">
<path d="M19.0296 1.2526L17.0216 4.51758L13.3768 4.0526C12.8248 3.98184 12.468 4.6591 12.8201 5.12408L15.1231 8.16163L13.5814 11.7046C13.3482 12.2403 13.8479 12.8115 14.3665 12.5992L17.7972 11.2143L20.4903 13.8627C20.8995 14.2671 21.5609 13.9385 21.5324 13.3472L21.3516 9.45044L24.5586 7.55008C25.0439 7.26199 24.9583 6.4887 24.4206 6.33708L20.8757 5.31614L20.162 1.49014C20.0526 0.903862 19.3341 0.757292 19.0296 1.2526Z" stroke="#FFA300" stroke-width="0.353835" stroke-miterlimit="10"/>
</g>
</g>
<mask id="mask9_213_17102" style="mask-type:alpha" maskUnits="userSpaceOnUse" x="12" y="0" width="13" height="15">
<path d="M19.0296 1.2526L17.0216 4.51758L13.3768 4.0526C12.8248 3.98184 12.468 4.6591 12.8201 5.12408L15.1231 8.16163L13.5814 11.7046C13.3482 12.2403 13.8479 12.8115 14.3665 12.5992L17.7972 11.2143L20.4903 13.8627C20.8995 14.2671 21.5609 13.9385 21.5324 13.3472L21.3516 9.45044L24.5586 7.55008C25.0439 7.26199 24.9583 6.48871 24.4206 6.33708L20.8757 5.31614L20.162 1.49014C20.0526 0.903862 19.3341 0.757292 19.0296 1.2526Z" fill="#FFA300"/>
</mask>
<g mask="url(#mask9_213_17102)">
<g filter="url(#filter10_f_213_17102)">
<path d="M15.1566 8.16162L14.9139 8.68725L14.6713 9.21288L14.1907 10.2641L13.7149 11.3205L13.5959 11.5833C13.5769 11.6288 13.5578 11.6692 13.5388 11.7197C13.5293 11.745 13.5198 11.7703 13.515 11.7956L13.5007 11.8764C13.4865 11.9826 13.4912 12.0938 13.5245 12.1999C13.5578 12.301 13.6102 12.397 13.6768 12.4829C13.7482 12.5638 13.8338 12.6244 13.929 12.6699C14.0242 12.7154 14.1288 12.7255 14.2335 12.7255L14.3096 12.7154C14.3334 12.7154 14.3572 12.7003 14.3858 12.6952C14.4381 12.68 14.4762 12.6649 14.5238 12.6447L14.7807 12.5436L15.8132 12.1342L17.8736 11.3053L17.7736 11.2851L19.3962 12.8721L20.2098 13.6605L20.4144 13.8577C20.4477 13.893 20.4811 13.9234 20.5239 13.9587C20.5429 13.9739 20.5619 13.9941 20.5857 14.0093L20.6524 14.0497C20.7475 14.0952 20.8474 14.1255 20.9521 14.1205C21.0568 14.1154 21.1567 14.0952 21.2519 14.0497C21.3423 13.9992 21.4279 13.9335 21.4898 13.8526C21.5564 13.7667 21.5992 13.6656 21.623 13.5645L21.6373 13.4836C21.6421 13.4584 21.6421 13.4281 21.6421 13.4028C21.6421 13.3472 21.6421 13.3017 21.6373 13.2512L21.6183 12.958L21.5469 11.7905L21.4708 10.623L21.4327 10.0367L21.3899 9.45043L21.4041 10.0367L21.4184 10.623L21.4517 11.7956L21.4898 12.9681L21.4993 13.2613C21.4993 13.3118 21.5041 13.3623 21.4993 13.4028C21.4993 13.423 21.4993 13.4483 21.4946 13.4685L21.485 13.5342C21.4612 13.6151 21.4279 13.6959 21.3756 13.7616C21.3233 13.8273 21.2566 13.8779 21.1805 13.9183C21.1044 13.9537 21.0235 13.9688 20.9426 13.9688C20.8617 13.9688 20.7856 13.9436 20.7142 13.9082L20.6619 13.8779C20.6428 13.8678 20.6286 13.8526 20.6143 13.8374C20.5857 13.8122 20.5477 13.7768 20.5144 13.7465L20.3145 13.5443L19.5104 12.7457L17.8973 11.1486L17.8545 11.1082L17.7974 11.1284L15.7371 11.9674L14.7093 12.3919L14.4524 12.4981C14.4096 12.5132 14.3667 12.5335 14.3287 12.5436C14.3096 12.5486 14.2906 12.5587 14.2716 12.5587L14.2145 12.5688C14.1336 12.5739 14.0527 12.5638 13.9813 12.5335C13.9052 12.5031 13.8386 12.4526 13.7815 12.3919C13.7244 12.3262 13.6816 12.2555 13.6578 12.1696C13.6292 12.0887 13.6245 11.9977 13.634 11.9118L13.6435 11.8461C13.6483 11.8259 13.6578 11.8057 13.6625 11.7855C13.672 11.745 13.6958 11.6995 13.7149 11.654L13.8291 11.3862L14.2763 10.3147L14.7189 9.24321L14.9425 8.70747L15.1566 8.16162Z" fill="#FFFF00"/>
</g>
</g>
<mask id="mask10_213_17102" style="mask-type:alpha" maskUnits="userSpaceOnUse" x="12" y="0" width="13" height="15">
<path d="M19.0296 1.2526L17.0216 4.51758L13.3768 4.0526C12.8248 3.98184 12.468 4.6591 12.8201 5.12408L15.1231 8.16163L13.5814 11.7046C13.3482 12.2403 13.8479 12.8115 14.3665 12.5992L17.7972 11.2143L20.4903 13.8627C20.8995 14.2671 21.5609 13.9385 21.5324 13.3472L21.3516 9.45044L24.5586 7.55008C25.0439 7.26199 24.9583 6.48871 24.4206 6.33708L20.8757 5.31614L20.162 1.49014C20.0526 0.903862 19.3341 0.757292 19.0296 1.2526Z" fill="#FFA300"/>
</mask>
<g mask="url(#mask10_213_17102)">
<g filter="url(#filter11_f_213_17102)">
<path d="M21.3586 9.45045C22.0152 9.10171 22.6718 8.74287 23.3237 8.38402L24.3039 7.84323L24.5466 7.70676C24.5894 7.68149 24.6275 7.66633 24.6751 7.63095C24.6988 7.61579 24.7226 7.60063 24.7417 7.58041L24.8035 7.52481C24.8797 7.43889 24.9463 7.33781 24.9796 7.22662C25.0129 7.11543 25.0272 6.99413 25.0176 6.87283C25.0034 6.75658 24.9701 6.64034 24.913 6.5342C24.8559 6.42806 24.7702 6.34214 24.6751 6.27138L24.5989 6.2259C24.5751 6.21073 24.5466 6.20062 24.518 6.19052C24.4609 6.16525 24.4229 6.15514 24.3753 6.13997L24.1088 6.05911L23.0477 5.73564L21.9867 5.41218L20.9256 5.09376L21.0778 5.27066C20.9446 4.50243 20.8066 3.7342 20.6686 2.97102L20.4593 1.82372L20.4069 1.53564C20.3974 1.4851 20.3927 1.44466 20.3736 1.3739C20.3641 1.34358 20.3593 1.3082 20.3451 1.27788C20.3308 1.24755 20.3213 1.21723 20.307 1.1869C20.2452 1.07065 20.1643 0.959463 20.0596 0.878597C19.9549 0.79773 19.8359 0.747189 19.717 0.716864C19.5933 0.691593 19.4648 0.696647 19.3411 0.726972C19.2174 0.757297 19.1032 0.828055 19.0033 0.913976C18.9795 0.939247 18.9557 0.959463 18.9366 0.984734C18.9128 1.01001 18.8986 1.03528 18.8748 1.06055C18.832 1.1212 18.8129 1.15658 18.7891 1.19701L18.6369 1.44466L18.0373 2.42517C17.6376 3.07716 17.238 3.7342 16.843 4.39629L17.0476 4.29521L15.9532 4.16885C15.5869 4.12842 15.2205 4.08799 14.8588 4.04755L13.7645 3.92625L13.4885 3.89593C13.4409 3.89087 13.4028 3.88582 13.341 3.88582C13.3124 3.88582 13.2839 3.88077 13.2553 3.88582L13.1697 3.89593C13.0555 3.9212 12.946 3.97174 12.8556 4.0425C12.7652 4.11831 12.6891 4.20929 12.6368 4.31542C12.5844 4.42156 12.5559 4.53781 12.5463 4.65911C12.5416 4.78041 12.5654 4.89665 12.6034 5.00784L12.6415 5.08871C12.651 5.11398 12.6701 5.13925 12.6891 5.15947C12.7224 5.21001 12.751 5.24539 12.7795 5.28077L12.9556 5.50315L13.6788 6.39268C14.1594 6.98402 14.64 7.57536 15.1253 8.16164C14.6923 7.52987 14.2498 6.90315 13.8073 6.28149L13.1411 5.34647L12.9746 5.11398C12.946 5.07355 12.9175 5.03311 12.8985 5.00279C12.8889 4.98763 12.8747 4.97246 12.8699 4.95225L12.8461 4.90171C12.8223 4.83095 12.8128 4.75514 12.8176 4.67932C12.8271 4.60351 12.8509 4.53275 12.8842 4.46199C12.9222 4.39629 12.9698 4.34069 13.0269 4.30026C13.084 4.25983 13.1506 4.23456 13.2173 4.22445L13.2696 4.21939C13.2886 4.21434 13.3029 4.21939 13.3219 4.21939C13.3505 4.21939 13.4028 4.2295 13.4457 4.23456L13.7169 4.27499L14.8113 4.43167C15.1776 4.48221 15.5393 4.53781 15.9057 4.58835L17 4.73997L17.1285 4.76019L17.2046 4.63889C17.6139 3.99196 18.0231 3.33997 18.4275 2.68799L19.0366 1.71253L19.1888 1.46993C19.2126 1.4295 19.2412 1.38401 19.2554 1.3638C19.265 1.35369 19.2697 1.33853 19.284 1.32842C19.2935 1.31831 19.303 1.3082 19.3173 1.29809C19.3601 1.26271 19.4077 1.23239 19.4648 1.21723C19.5219 1.20206 19.579 1.20206 19.6361 1.21217C19.6932 1.22733 19.7455 1.24755 19.7931 1.28293C19.8407 1.31831 19.874 1.3638 19.9026 1.41434C19.9073 1.4295 19.9121 1.43961 19.9216 1.45477C19.9311 1.46993 19.9311 1.4851 19.9359 1.50026C19.9454 1.52047 19.9549 1.58112 19.9644 1.62661L20.0168 1.9147L20.2356 3.06199C20.3784 3.82517 20.5306 4.5934 20.6781 5.35658L20.7067 5.4981L20.8304 5.53348L21.8963 5.82662L22.9669 6.1147L24.0375 6.40279L24.3039 6.47355C24.3467 6.48366 24.3991 6.49882 24.4276 6.50893C24.4419 6.51398 24.4609 6.51904 24.4752 6.52915L24.5228 6.55442C24.5799 6.59485 24.6322 6.64034 24.6703 6.70099C24.7084 6.76164 24.7322 6.83239 24.7464 6.90821C24.7559 6.98402 24.7512 7.05983 24.7322 7.13564C24.7131 7.21146 24.6751 7.27211 24.6275 7.33276L24.5894 7.37319C24.5751 7.38835 24.5609 7.39846 24.5466 7.40857C24.518 7.42878 24.4752 7.45911 24.4371 7.47933L24.1992 7.63095L23.2428 8.2324C22.6147 8.63167 21.9867 9.03601 21.3586 9.45045Z" fill="#FFAC1A"/>
</g>
</g>
<mask id="mask11_213_17102" style="mask-type:alpha" maskUnits="userSpaceOnUse" x="12" y="0" width="13" height="15">
<path d="M19.0296 1.2526L17.0216 4.51758L13.3768 4.0526C12.8248 3.98184 12.468 4.6591 12.8201 5.12408L15.1231 8.16163L13.5814 11.7046C13.3482 12.2403 13.8479 12.8115 14.3665 12.5992L17.7972 11.2143L20.4903 13.8627C20.8995 14.2671 21.5609 13.9385 21.5324 13.3472L21.3516 9.45044L24.5586 7.55008C25.0439 7.26199 24.9583 6.48871 24.4206 6.33708L20.8757 5.31614L20.162 1.49014C20.0526 0.903862 19.3341 0.757292 19.0296 1.2526Z" fill="#FFA300"/>
</mask>
<g mask="url(#mask11_213_17102)">
<g filter="url(#filter12_f_213_17102)">
<path d="M15.2988 8.16162L13.8666 11.4519C13.6477 11.9522 14.114 12.4779 14.5946 12.2858L17.7873 10.997L20.2902 13.4584C20.6708 13.8324 21.2846 13.5291 21.2608 12.9782L21.0943 9.35946" fill="url(#paint18_linear_213_17102)"/>
</g>
</g>
<defs>
<filter id="filter0_f_213_17102" x="-0.137703" y="10.8872" width="25.6058" height="15.4961" filterUnits="userSpaceOnUse" color-interpolation-filters="sRGB">
<feFlood flood-opacity="0" result="BackgroundImageFix"/>
<feBlend mode="normal" in="SourceGraphic" in2="BackgroundImageFix" result="shape"/>
<feGaussianBlur stdDeviation="0.631847" result="effect1_foregroundBlur_213_17102"/>
</filter>
<filter id="filter1_f_213_17102" x="-0.89592" y="10.129" width="27.1222" height="17.0126" filterUnits="userSpaceOnUse" color-interpolation-filters="sRGB">
<feFlood flood-opacity="0" result="BackgroundImageFix"/>
<feBlend mode="normal" in="SourceGraphic" in2="BackgroundImageFix" result="shape"/>
<feGaussianBlur stdDeviation="1.01096" result="effect1_foregroundBlur_213_17102"/>
</filter>
<filter id="filter2_f_213_17102" x="3.6369" y="13.2821" width="18.1038" height="8.89914" filterUnits="userSpaceOnUse" color-interpolation-filters="sRGB">
<feFlood flood-opacity="0" result="BackgroundImageFix"/>
<feBlend mode="normal" in="SourceGraphic" in2="BackgroundImageFix" result="shape"/>
<feGaussianBlur stdDeviation="0.252739" result="effect1_foregroundBlur_213_17102"/>
</filter>
<filter id="filter3_f_213_17102" x="0.186821" y="1.25681" width="13.281" height="14.0508" filterUnits="userSpaceOnUse" color-interpolation-filters="sRGB">
<feFlood flood-opacity="0" result="BackgroundImageFix"/>
<feBlend mode="normal" in="SourceGraphic" in2="BackgroundImageFix" result="shape"/>
<feGaussianBlur stdDeviation="0.631847" result="effect1_foregroundBlur_213_17102"/>
</filter>
<filter id="filter4_f_213_17102" x="-0.183594" y="0.270401" width="13.5628" height="14.4538" filterUnits="userSpaceOnUse" color-interpolation-filters="sRGB">
<feFlood flood-opacity="0" result="BackgroundImageFix"/>
<feBlend mode="normal" in="SourceGraphic" in2="BackgroundImageFix" result="shape"/>
<feGaussianBlur stdDeviation="0.252739" result="effect1_foregroundBlur_213_17102"/>
</filter>
<filter id="filter5_f_213_17102" x="3.22884" y="7.65663" width="9.15985" height="6.97043" filterUnits="userSpaceOnUse" color-interpolation-filters="sRGB">
<feFlood flood-opacity="0" result="BackgroundImageFix"/>
<feBlend mode="normal" in="SourceGraphic" in2="BackgroundImageFix" result="shape"/>
<feGaussianBlur stdDeviation="0.252739" result="effect1_foregroundBlur_213_17102"/>
</filter>
<filter id="filter6_f_213_17102" x="-0.250525" y="0.0945985" width="13.6879" height="9.96315" filterUnits="userSpaceOnUse" color-interpolation-filters="sRGB">
<feFlood flood-opacity="0" result="BackgroundImageFix"/>
<feBlend mode="normal" in="SourceGraphic" in2="BackgroundImageFix" result="shape"/>
<feGaussianBlur stdDeviation="0.303287" result="effect1_foregroundBlur_213_17102"/>
</filter>
<filter id="filter7_f_213_17102" x="2.34599" y="6.39294" width="10.9888" height="9.00026" filterUnits="userSpaceOnUse" color-interpolation-filters="sRGB">
<feFlood flood-opacity="0" result="BackgroundImageFix"/>
<feBlend mode="normal" in="SourceGraphic" in2="BackgroundImageFix" result="shape"/>
<feGaussianBlur stdDeviation="0.884586" result="effect1_foregroundBlur_213_17102"/>
</filter>
<filter id="filter8_f_213_17102" x="11.9088" y="1.25632" width="13.281" height="14.0508" filterUnits="userSpaceOnUse" color-interpolation-filters="sRGB">
<feFlood flood-opacity="0" result="BackgroundImageFix"/>
<feBlend mode="normal" in="SourceGraphic" in2="BackgroundImageFix" result="shape"/>
<feGaussianBlur stdDeviation="0.631847" result="effect1_foregroundBlur_213_17102"/>
</filter>
<filter id="filter9_f_213_17102" x="11.9974" y="0.269913" width="13.5628" height="14.4538" filterUnits="userSpaceOnUse" color-interpolation-filters="sRGB">
<feFlood flood-opacity="0" result="BackgroundImageFix"/>
<feBlend mode="normal" in="SourceGraphic" in2="BackgroundImageFix" result="shape"/>
<feGaussianBlur stdDeviation="0.252739" result="effect1_foregroundBlur_213_17102"/>
</filter>
<filter id="filter10_f_213_17102" x="12.9877" y="7.65614" width="9.15985" height="6.97043" filterUnits="userSpaceOnUse" color-interpolation-filters="sRGB">
<feFlood flood-opacity="0" result="BackgroundImageFix"/>
<feBlend mode="normal" in="SourceGraphic" in2="BackgroundImageFix" result="shape"/>
<feGaussianBlur stdDeviation="0.252739" result="effect1_foregroundBlur_213_17102"/>
</filter>
<filter id="filter11_f_213_17102" x="11.9392" y="0.0941102" width="13.6879" height="9.96315" filterUnits="userSpaceOnUse" color-interpolation-filters="sRGB">
<feFlood flood-opacity="0" result="BackgroundImageFix"/>
<feBlend mode="normal" in="SourceGraphic" in2="BackgroundImageFix" result="shape"/>
<feGaussianBlur stdDeviation="0.303287" result="effect1_foregroundBlur_213_17102"/>
</filter>
<filter id="filter12_f_213_17102" x="12.0418" y="6.39245" width="10.9888" height="9.00026" filterUnits="userSpaceOnUse" color-interpolation-filters="sRGB">
<feFlood flood-opacity="0" result="BackgroundImageFix"/>
<feBlend mode="normal" in="SourceGraphic" in2="BackgroundImageFix" result="shape"/>
<feGaussianBlur stdDeviation="0.884586" result="effect1_foregroundBlur_213_17102"/>
</filter>
<radialGradient id="paint0_radial_213_17102" cx="0" cy="0" r="1" gradientUnits="userSpaceOnUse" gradientTransform="translate(12.6796 0.447754) rotate(90) scale(24.361 22.9346)">
<stop stop-color="#FFDE43"/>
<stop offset="1" stop-color="#FFBC00"/>
</radialGradient>
<radialGradient id="paint1_radial_213_17102" cx="0" cy="0" r="1" gradientUnits="userSpaceOnUse" gradientTransform="translate(12.6796 3.70768) rotate(90) scale(21.1011 19.8656)">
<stop stop-color="white" stop-opacity="0.5"/>
<stop offset="0.782278"/>
</radialGradient>
<radialGradient id="paint2_radial_213_17102" cx="0" cy="0" r="1" gradientUnits="userSpaceOnUse" gradientTransform="translate(12.6796 3.70768) rotate(90) scale(21.1011 19.8656)">
<stop stop-color="white" stop-opacity="0.5"/>
<stop offset="0.782278"/>
</radialGradient>
<radialGradient id="paint3_radial_213_17102" cx="0" cy="0" r="1" gradientUnits="userSpaceOnUse" gradientTransform="translate(12.6796 -2.20568) rotate(90) scale(27.0145 34.3941)">
<stop offset="0.0922635" stop-color="white"/>
<stop offset="0.670207" stop-color="white" stop-opacity="0"/>
</radialGradient>
<linearGradient id="paint4_linear_213_17102" x1="5.10494" y1="18.9065" x2="20.2666" y2="18.9065" gradientUnits="userSpaceOnUse">
<stop stop-color="#CCCCCC"/>
<stop offset="0.05" stop-color="#D5D5D5"/>
<stop offset="0.2" stop-color="#E9E9E9"/>
<stop offset="0.35" stop-color="#F6F6F6"/>
<stop offset="0.5" stop-color="#FAFAFA"/>
<stop offset="0.65" stop-color="#F6F6F6"/>
<stop offset="0.8" stop-color="#E9E9E9"/>
<stop offset="0.95" stop-color="#D5D5D5"/>
<stop offset="1" stop-color="#CCCCCC"/>
</linearGradient>
<linearGradient id="paint5_linear_213_17102" x1="4.39396" y1="15.8631" x2="20.9832" y2="15.8631" gradientUnits="userSpaceOnUse">
<stop stop-color="#CCCCCC"/>
<stop offset="0.05" stop-color="#D5D5D5"/>
<stop offset="0.2" stop-color="#E9E9E9"/>
<stop offset="0.35" stop-color="#F6F6F6"/>
<stop offset="0.5" stop-color="#FAFAFA"/>
<stop offset="0.65" stop-color="#F6F6F6"/>
<stop offset="0.8" stop-color="#E9E9E9"/>
<stop offset="0.95" stop-color="#D5D5D5"/>
<stop offset="1" stop-color="#CCCCCC"/>
</linearGradient>
<radialGradient id="paint6_radial_213_17102" cx="0" cy="0" r="1" gradientUnits="userSpaceOnUse" gradientTransform="translate(12.6887 17.0377) scale(5.41771 5.75466)">
<stop stop-color="#401C02"/>
<stop offset="1" stop-color="#401C02"/>
</radialGradient>
<linearGradient id="paint7_linear_213_17102" x1="8285.39" y1="4683" x2="8285.39" y2="3546.38" gradientUnits="userSpaceOnUse">
<stop stop-color="#401C02"/>
<stop offset="1" stop-color="#401C02"/>
</linearGradient>
<linearGradient id="paint8_linear_213_17102" x1="8285.39" y1="4683" x2="8285.39" y2="3546.38" gradientUnits="userSpaceOnUse">
<stop stop-color="#401C02"/>
<stop offset="1" stop-color="#401C02"/>
</linearGradient>
<linearGradient id="paint9_linear_213_17102" x1="12.6892" y1="21.6288" x2="12.6892" y2="13.9078" gradientUnits="userSpaceOnUse">
<stop offset="0.265625" stop-color="#FFDE43"/>
<stop offset="1" stop-color="#F79D14"/>
</linearGradient>
<linearGradient id="paint10_linear_213_17102" x1="8285.39" y1="4683.05" x2="8285.39" y2="3546.43" gradientUnits="userSpaceOnUse">
<stop stop-color="#401C02"/>
<stop offset="1" stop-color="#401C02"/>
</linearGradient>
<radialGradient id="paint11_radial_213_17102" cx="0" cy="0" r="1" gradientUnits="userSpaceOnUse" gradientTransform="translate(12.6798 0.448242) rotate(90) scale(24.361 22.9346)">
<stop stop-color="#FFDE43"/>
<stop offset="1" stop-color="#FFBC00"/>
</radialGradient>
<linearGradient id="paint12_linear_213_17102" x1="7.94686" y1="13.1994" x2="5.27505" y2="0.258754" gradientUnits="userSpaceOnUse">
<stop stop-color="#FFAA29"/>
<stop offset="0.0323366" stop-color="#FFAF29"/>
<stop offset="0.1758" stop-color="#FFC229"/>
<stop offset="0.345" stop-color="#FFCF29"/>
<stop offset="0.5627" stop-color="#FFD729"/>
<stop offset="1" stop-color="#FFD929"/>
</linearGradient>
<radialGradient id="paint13_radial_213_17102" cx="0" cy="0" r="1" gradientUnits="userSpaceOnUse" gradientTransform="translate(6.83976 7.14955) rotate(-11.6657) scale(6.08151 6.42973)">
<stop stop-color="white"/>
<stop offset="0.0854679" stop-color="#F7F7F7"/>
<stop offset="0.2193" stop-color="#E1E1E1"/>
<stop offset="0.3849" stop-color="#BCBCBC"/>
<stop offset="0.5757" stop-color="#898989"/>
<stop offset="0.7878" stop-color="#484848"/>
<stop offset="1"/>
</radialGradient>
<linearGradient id="paint14_linear_213_17102" x1="7.94549" y1="12.923" x2="7.037" y2="8.52274" gradientUnits="userSpaceOnUse">
<stop stop-color="#FFAA29"/>
<stop offset="0.0323366" stop-color="#FFAF29"/>
<stop offset="0.1758" stop-color="#FFC229"/>
<stop offset="0.345" stop-color="#FFCF29"/>
<stop offset="0.5627" stop-color="#FFD729"/>
<stop offset="1" stop-color="#FFD929" stop-opacity="0.6"/>
</linearGradient>
<radialGradient id="paint15_radial_213_17102" cx="0" cy="0" r="1" gradientUnits="userSpaceOnUse" gradientTransform="translate(12.6968 0.447754) rotate(90) scale(24.361 22.9346)">
<stop stop-color="#FFDE43"/>
<stop offset="1" stop-color="#FFBC00"/>
</radialGradient>
<linearGradient id="paint16_linear_213_17102" x1="17.4297" y1="13.1994" x2="20.1015" y2="0.258754" gradientUnits="userSpaceOnUse">
<stop stop-color="#FFAA29"/>
<stop offset="0.0323366" stop-color="#FFAF29"/>
<stop offset="0.1758" stop-color="#FFC229"/>
<stop offset="0.345" stop-color="#FFCF29"/>
<stop offset="0.5627" stop-color="#FFD729"/>
<stop offset="1" stop-color="#FFD929"/>
</linearGradient>
<radialGradient id="paint17_radial_213_17102" cx="0" cy="0" r="1" gradientUnits="userSpaceOnUse" gradientTransform="translate(18.5368 7.14955) rotate(-168.334) scale(6.08151 6.42973)">
<stop stop-color="white"/>
<stop offset="0.0854679" stop-color="#F7F7F7"/>
<stop offset="0.2193" stop-color="#E1E1E1"/>
<stop offset="0.3849" stop-color="#BCBCBC"/>
<stop offset="0.5757" stop-color="#898989"/>
<stop offset="0.7878" stop-color="#484848"/>
<stop offset="1"/>
</radialGradient>
<linearGradient id="paint18_linear_213_17102" x1="17.4312" y1="12.9225" x2="18.3397" y2="8.52225" gradientUnits="userSpaceOnUse">
<stop stop-color="#FFAA29"/>
<stop offset="0.0323366" stop-color="#FFAF29"/>
<stop offset="0.1758" stop-color="#FFC229"/>
<stop offset="0.345" stop-color="#FFCF29"/>
<stop offset="0.5627" stop-color="#FFD729"/>
<stop offset="1" stop-color="#FFD929" stop-opacity="0.6"/>
</linearGradient>
</defs>
</svg>
