<svg width="16" height="17" viewBox="0 0 16 17" fill="none" xmlns="http://www.w3.org/2000/svg">
<path fill-rule="evenodd" clip-rule="evenodd" d="M5.37629 5.15513C5.55813 5.36295 5.53707 5.67883 5.32925 5.86067L1.7593 8.98438L5.32925 12.1081C5.53707 12.2899 5.55813 12.6058 5.37629 12.8136C5.19445 13.0215 4.87857 13.0425 4.67075 12.8607L0.670748 9.36067C0.56224 9.26573 0.5 9.12856 0.5 8.98438C0.5 8.8402 0.56224 8.70304 0.670748 8.60809L4.67075 5.10809C4.87857 4.92625 5.19445 4.94731 5.37629 5.15513Z" fill="#757575"/>
<path fill-rule="evenodd" clip-rule="evenodd" d="M10.6237 5.15513C10.8056 4.94731 11.1214 4.92625 11.3293 5.10809L15.3293 8.60809C15.4378 8.70304 15.5 8.8402 15.5 8.98438C15.5 9.12856 15.4378 9.26573 15.3293 9.36067L11.3293 12.8607C11.1214 13.0425 10.8056 13.0215 10.6237 12.8136C10.4419 12.6058 10.4629 12.2899 10.6708 12.1081L14.2407 8.98438L10.6708 5.86067C10.4629 5.67883 10.4419 5.36295 10.6237 5.15513Z" fill="#757575"/>
</svg>
