<svg width="16" height="17" viewBox="0 0 16 17" fill="none" xmlns="http://www.w3.org/2000/svg">
<path d="M4.0937 10.1989L4.09375 10.2024C4.09543 10.4416 4.0498 10.6788 3.95948 10.9003C3.86918 11.1218 3.73598 11.3232 3.56755 11.493C3.26401 11.7991 2.86123 11.9847 2.42844 11.9847H1.5625C1.54592 11.9847 1.53003 11.9913 1.51831 12.003C1.50659 12.0147 1.5 12.0306 1.5 12.0472V14.2466C1.5 14.5749 1.63044 14.8899 1.86264 15.1221C1.97761 15.237 2.1141 15.3282 2.26431 15.3904C2.41453 15.4527 2.57553 15.4847 2.73813 15.4847H4.9375C4.95408 15.4847 4.96997 15.4781 4.98169 15.4664C4.99341 15.4547 5 15.4388 5 15.4222V14.7681C5 13.8251 5.77195 13.0076 6.71898 12.9852C6.71917 12.9851 6.71936 12.9851 6.71955 12.9851L6.73125 13.485C7.10031 13.4759 7.45344 13.6075 7.69656 13.8447L4.0937 10.1989ZM4.0937 10.1989C4.08072 9.28211 3.33118 8.48469 2.40344 8.48469H1.5625C1.54592 8.48469 1.53003 8.47811 1.51831 8.46638C1.50658 8.45466 1.5 8.43877 1.5 8.42219V6.22282C1.5 6.06022 1.53203 5.89922 1.59425 5.74901C1.65647 5.59879 1.74767 5.4623 1.86264 5.34733C2.09483 5.11514 2.40975 4.98469 2.73813 4.98469H4.46438C4.66329 4.98469 4.85405 4.90567 4.99471 4.76502C5.13536 4.62437 5.21438 4.4336 5.21438 4.23469V4.03219C5.21437 3.82664 5.25532 3.62315 5.33481 3.4336C5.4143 3.24404 5.53075 3.07222 5.67736 2.92816C5.82398 2.78409 5.99782 2.67068 6.18874 2.59452C6.37966 2.51837 6.58383 2.48101 6.78935 2.48461L6.78939 2.48461C7.61982 2.49912 8.30937 3.20083 8.30937 4.0575V4.23469C8.30937 4.4336 8.38839 4.62437 8.52904 4.76502C8.6697 4.90567 8.86046 4.98469 9.05937 4.98469H10.7856C10.9451 4.98469 11.103 5.0161 11.2503 5.07713C11.3977 5.13816 11.5316 5.22761 11.6443 5.34037C11.7571 5.45314 11.8465 5.58701 11.9076 5.73434C11.9686 5.88168 12 6.03959 12 6.19907V7.92532C12 8.12423 12.079 8.31499 12.2197 8.45565C12.3603 8.5963 12.5511 8.67532 12.75 8.67532H12.9269C13.8062 8.67532 14.5 9.36985 14.5 10.1953C14.5 11.0696 13.7991 11.7703 12.9525 11.7703H12.75C12.5511 11.7703 12.3603 11.8493 12.2197 11.99C12.079 12.1306 12 12.3214 12 12.5203V14.2703C12 14.4298 11.9686 14.5877 11.9076 14.735C11.8465 14.8824 11.7571 15.0162 11.6443 15.129C11.5316 15.2418 11.3977 15.3312 11.2503 15.3923C11.103 15.4533 10.9451 15.4847 10.7856 15.4847H8.5625C8.54592 15.4847 8.53003 15.4781 8.5183 15.4664C8.50659 15.4547 8.5 15.4388 8.5 15.4222V14.557M4.0937 10.1989L8.04367 13.4848C8.18812 13.623 8.30305 13.7892 8.38149 13.9731C8.4602 14.1577 8.50052 14.3564 8.5 14.557M8.5 14.557C8.5 14.5573 8.5 14.5576 8.5 14.5578L8 14.5563H8.5V14.557Z" stroke="#A8A7A7"/>
</svg>
