<svg width="16" height="17" viewBox="0 0 16 17" fill="none" xmlns="http://www.w3.org/2000/svg">
<path fill-rule="evenodd" clip-rule="evenodd" d="M2.5 7.10938C2.77614 7.10938 3 7.33323 3 7.60938V14.9844H5.5V11.2344C5.5 10.9029 5.6317 10.5849 5.86612 10.3505C6.10054 10.1161 6.41848 9.98438 6.75 9.98438H9.25C9.58152 9.98438 9.89946 10.1161 10.1339 10.3505C10.3683 10.5849 10.5 10.9029 10.5 11.2344V14.9844H13V7.60938C13 7.33323 13.2239 7.10938 13.5 7.10938C13.7761 7.10938 14 7.33323 14 7.60938V14.9844C14 15.2496 13.8946 15.5039 13.7071 15.6915C13.5196 15.879 13.2652 15.9844 13 15.9844H10C9.72386 15.9844 9.5 15.7605 9.5 15.4844V11.2344C9.5 11.1681 9.47366 11.1045 9.42678 11.0576C9.37989 11.0107 9.3163 10.9844 9.25 10.9844H6.75C6.6837 10.9844 6.62011 11.0107 6.57322 11.0576C6.52634 11.1045 6.5 11.1681 6.5 11.2344V15.4844C6.5 15.7605 6.27614 15.9844 6 15.9844H3C2.73478 15.9844 2.48043 15.879 2.29289 15.6915C2.10536 15.5039 2 15.2496 2 14.9844V7.60938C2 7.33323 2.22386 7.10938 2.5 7.10938Z" fill="#A8A7A7"/>
<path fill-rule="evenodd" clip-rule="evenodd" d="M8.69287 2.25415L15.3457 8.62265C15.5452 8.8136 15.5521 9.13011 15.3612 9.32959C15.1702 9.52907 14.8537 9.53598 14.6543 9.34503L8.01002 2.98481C8.00697 2.98454 8.00366 2.98438 8.00016 2.98438C7.99654 2.98437 7.99312 2.98453 7.98999 2.9848L1.34575 9.34503C1.14627 9.53598 0.829764 9.52907 0.638812 9.32959C0.44786 9.13011 0.454772 8.8136 0.654252 8.62265L7.30756 2.25374C7.51152 2.04696 7.78947 1.984 8.00195 1.98438C8.21356 1.98476 8.49052 2.04824 8.69287 2.25415Z" fill="#A8A7A7"/>
<path fill-rule="evenodd" clip-rule="evenodd" d="M10.5 2.98438C10.5 2.70823 10.7239 2.48438 11 2.48438H12.5C12.7761 2.48438 13 2.70823 13 2.98438V6.57812C13 6.85427 12.7761 7.07812 12.5 7.07812C12.2239 7.07812 12 6.85427 12 6.57812V3.48438H11.5V5.14062C11.5 5.41677 11.2761 5.64062 11 5.64062C10.7239 5.64062 10.5 5.41677 10.5 5.14062V2.98438Z" fill="#A8A7A7"/>
</svg>
