<svg width="17" height="16" viewBox="0 0 17 16" fill="none" xmlns="http://www.w3.org/2000/svg">
<path fill-rule="evenodd" clip-rule="evenodd" d="M4.01632 2.43248C4.35126 2.21449 4.79879 2.1737 5.19385 2.4096L5.19406 2.40973L12.941 7.04636C12.9411 7.04638 12.9411 7.0464 12.9412 7.04642C13.3052 7.26425 13.4684 7.64826 13.4684 8.00014C13.4684 8.35202 13.3052 8.73603 12.9412 8.95386C12.9411 8.95388 12.9411 8.9539 12.941 8.95392L5.19428 13.5904L5.19406 13.5905L5.19385 13.5907C4.79879 13.8266 4.35126 13.7858 4.01632 13.5678C3.68561 13.3526 3.46875 12.9713 3.46875 12.5314V3.46889C3.46875 3.029 3.68561 2.64772 4.01632 2.43248ZM4.5618 3.27061C4.51752 3.29943 4.46875 3.36378 4.46875 3.46889V12.5314C4.46875 12.6365 4.51752 12.7008 4.5618 12.7297C4.5843 12.7443 4.60476 12.7496 4.62058 12.7502C4.63454 12.7507 4.65421 12.7482 4.68115 12.7321L12.4277 8.09574C12.4423 8.08699 12.4684 8.05963 12.4684 8.00014C12.4684 7.94064 12.4423 7.91329 12.4277 7.90454L4.68115 3.26818C4.68111 3.26815 4.68107 3.26813 4.68103 3.2681C4.65415 3.25208 4.63451 3.24958 4.62058 3.25011C4.60476 3.25071 4.5843 3.25597 4.5618 3.27061Z" fill="white"/>
</svg>
