<svg width="16" height="16" viewBox="0 0 16 16" fill="none" xmlns="http://www.w3.org/2000/svg">
<path fill-rule="evenodd" clip-rule="evenodd" d="M4 7C3.44772 7 3 7.44772 3 8C3 8.55228 3.44772 9 4 9C4.55228 9 5 8.55228 5 8C5 7.44772 4.55228 7 4 7ZM2 8C2 6.89543 2.89543 6 4 6C5.10457 6 6 6.89543 6 8C6 9.10457 5.10457 10 4 10C2.89543 10 2 9.10457 2 8Z" fill="#8C61CB"/>
<path fill-rule="evenodd" clip-rule="evenodd" d="M12 2.5C11.4477 2.5 11 2.94772 11 3.5C11 4.05228 11.4477 4.5 12 4.5C12.5523 4.5 13 4.05228 13 3.5C13 2.94772 12.5523 2.5 12 2.5ZM10 3.5C10 2.39543 10.8954 1.5 12 1.5C13.1046 1.5 14 2.39543 14 3.5C14 4.60457 13.1046 5.5 12 5.5C10.8954 5.5 10 4.60457 10 3.5Z" fill="#8C61CB"/>
<path fill-rule="evenodd" clip-rule="evenodd" d="M12 11.5C11.4477 11.5 11 11.9477 11 12.5C11 13.0523 11.4477 13.5 12 13.5C12.5523 13.5 13 13.0523 13 12.5C13 11.9477 12.5523 11.5 12 11.5ZM10 12.5C10 11.3954 10.8954 10.5 12 10.5C13.1046 10.5 14 11.3954 14 12.5C14 13.6046 13.1046 14.5 12 14.5C10.8954 14.5 10 13.6046 10 12.5Z" fill="#8C61CB"/>
<path fill-rule="evenodd" clip-rule="evenodd" d="M4.87094 8.49007C5.00632 8.24939 5.31118 8.16403 5.55186 8.29941L10.9375 11.3288C11.1782 11.4642 11.2635 11.769 11.1281 12.0097C10.9928 12.2504 10.6879 12.3357 10.4472 12.2004L5.0616 9.17099C4.82092 9.0356 4.73556 8.73075 4.87094 8.49007Z" fill="#8C61CB"/>
<path fill-rule="evenodd" clip-rule="evenodd" d="M11.1281 3.99007C11.2635 4.23075 11.1782 4.5356 10.9375 4.67099L5.55186 7.70036C5.31118 7.83574 5.00632 7.75038 4.87094 7.5097C4.73556 7.26902 4.82092 6.96416 5.0616 6.82878L10.4472 3.79941C10.6879 3.66403 10.9928 3.74939 11.1281 3.99007Z" fill="#8C61CB"/>
</svg>
