<svg width="16" height="17" viewBox="0 0 16 17" fill="none" xmlns="http://www.w3.org/2000/svg">
<g clip-path="url(#clip0_5730_76237)">
<path d="M7.99992 15.6517C11.6818 15.6517 14.6666 12.6669 14.6666 8.98503C14.6666 5.30313 11.6818 2.31836 7.99992 2.31836C4.31802 2.31836 1.33325 5.30313 1.33325 8.98503C1.33325 12.6669 4.31802 15.6517 7.99992 15.6517Z" stroke="#A8A7A7" stroke-linecap="round" stroke-linejoin="round"/>
<path d="M8 12.9844C10.2091 12.9844 12 11.1935 12 8.98438C12 6.77524 10.2091 4.98438 8 4.98438C5.79086 4.98438 4 6.77524 4 8.98438C4 11.1935 5.79086 12.9844 8 12.9844Z" stroke="#A8A7A7" stroke-linecap="round" stroke-linejoin="round"/>
<path d="M8.00008 10.3171C8.73646 10.3171 9.33341 9.7201 9.33341 8.98372C9.33341 8.24734 8.73646 7.65039 8.00008 7.65039C7.2637 7.65039 6.66675 8.24734 6.66675 8.98372C6.66675 9.7201 7.2637 10.3171 8.00008 10.3171Z" stroke="#A8A7A7" stroke-linecap="round" stroke-linejoin="round"/>
</g>
<defs>
<clipPath id="clip0_5730_76237">
<rect width="16" height="16" fill="white" transform="translate(0 0.984375)"/>
</clipPath>
</defs>
</svg>
