<svg width="184" height="229" viewBox="0 0 184 279" fill="none" xmlns="http://www.w3.org/2000/svg"><g filter="url(#filter0_d)"><path d="M180.779 4.63L171.473.219l.831 10.265 8.475-5.852zM3.579 273.365c23.839 0 40.861-16.154 54.33-40.168 13.47-24.018 23.535-56.157 33.38-88.63 9.861-32.523 19.502-65.386 32.124-91.034 12.637-25.676 28.121-43.827 49.513-47.374l-.292-1.76c-22.297 3.697-38.134 22.567-50.821 48.347-12.702 25.81-22.388 58.839-32.23 91.304-9.859 32.515-19.873 64.457-33.23 88.275-13.36 23.821-29.916 39.256-52.775 39.256v1.784z" fill="#136"/></g><circle cx="3.58" cy="272.471" r="2.676" fill="#fff" stroke="#136" stroke-width="1.784"/><defs><filter id="filter0_d" x="1.2" y=".218" width="181.958" height="277.903" filterUnits="userSpaceOnUse" color-interpolation-filters="sRGB"><feFlood flood-opacity="0" result="BackgroundImageFix"/><feColorMatrix in="SourceAlpha" values="0 0 0 0 0 0 0 0 0 0 0 0 0 0 0 0 0 0 127 0"/><feOffset dy="2.379"/><feGaussianBlur stdDeviation="1.189"/><feColorMatrix values="0 0 0 0 0 0 0 0 0 0 0 0 0 0 0 0 0 0 0.25 0"/><feBlend in2="BackgroundImageFix" result="effect1_dropShadow"/><feBlend in="SourceGraphic" in2="effect1_dropShadow" result="shape"/></filter></defs></svg>