<svg width="636" height="1059" fill="none" xmlns="http://www.w3.org/2000/svg"><path d="M157 244.499s-17.4-6-21.5-26.5c0 0-36.4 0-36.7-45.1 0 0-21.5-10.2-19-33.4s17.6-31 17.6-31-1.7-31 31.4-33.2c0 0 15.5-42.2 80.1-20.9 0 0 30.3-3.6 61.7 27.3 0 0 13 15.3 28.6 25 15.6 9.7 21.8 15.2 24.1 23.5 2.4 8.3 4.5 22.5 2.5 36.4 0 0 15.7 18.9 12.5 42.7-3.2 23.8-14.4 37.3-33.5 47.8 0 0-2.5 5.9-4.6 6.6 0 0 158 75.1 206.5 310.7 0 0 74 78.2 79.4 99.6 5.5 21.4-11.1 22.3-11.1 22.3s-21.2-1.4-46.8 16.7c0 0-13.7 10.4-25.8 28.2-12 17.8-22.2 22.5-22.2 22.5s-12 5.4-23.6 5c-11-.4-24.2.8-28.1-8.4-3.9-9.2-.9-18.7-.9-18.7l-29.8 28.9s-12.3 11.6-23.5-2.6-65.7-87.3-76-92.6c0 0 20.9 86 19.2 92.6-1.8 6.6-18.3 141.3-17 148.9 1.3 7.2 10.5 34.2 17 43.8 6.4 9.6 20.1 54.501 1.9 56.501-18.2 2-60.9-3.9-65.8-9.2-3.6-4-3.9-31.501-1.8-39.101 1.3-4.9-2.8-16.8-6.6-26-3.8-9.3-6.1-19.2-6.6-29.2-.6-10.2-.9-23 .1-33.6 1.1-12.2.3-24.4-2.1-36.4-5.4-26.6-13.2-73-9.5-88.4 3.6-14.9-2.8-31.8-8-44.5-6.3-15.5-9.4-32.2-8-49 .1-1.6.5-10.7.6-12.4 1.2-28.5-30-25-31.7-4.2-1.7 20.8-3 36.4 1.8 50.3 4.8 13.9 9.9 22.5 18.9 59.8 7.9 32.6 22.9 40.8 25.3 66.1.9 9.6 3.2 25.8 8.3 34 3.2 5.1 6.4 10.3 8.6 13.3 5.3 7.6 10.4 19.5 4.6 29.2-5.8 9.6-42.1 35.7-55.8 30.7-13.7-5-13.3-51.1-14-71.9-.7-20.8-37.4-67.9-37.4-67.9l-38.9-51.7s-8.1-27.8-6.2-77.8c.9-22.1-1.4-32-1.4-32s-10.9.2-15.7-8.7c-4.8-8.9 2.5-32.8 2.5-32.8s33.3-96.6 32.4-106.9c0 0-40.1-41.5-44.8-67.6-4.4-24.4-2.8-22.4 24-68 0 0-5-36 23.2-52.3 0 0 11.3-32.5 31.7-36.2.2-.3 1.7-8.7 9.9-10.2z" fill="#005773"/><path d="M165 229.9s-17.4-6-21.5-26.5c0 0-36.4 0-36.7-45.1 0 0-21.5-10.2-19-33.4s17.6-31 17.6-31-1.7-31 31.4-33.2c0 0 15.5-42.2 80.1-20.9 0 0 30.3-3.6 61.7 27.3 0 0 13 15.3 28.6 25 15.6 9.6 21.8 15.2 24.1 23.5 2.4 8.3 4.5 22.5 2.5 36.4 0 0 15.7 18.9 12.5 42.7-3.2 23.8-14.4 37.3-33.5 47.8 0 0-2.5 5.9-4.6 6.6 0 0 158 75.1 206.5 310.7 0 0 74 78.2 79.4 99.6 5.5 21.4-11.1 22.3-11.1 22.3s-21.2-1.4-46.8 16.7c0 0-13.7 10.4-25.8 28.2-12 17.8-22.2 22.5-22.2 22.5s-12.7 7.9-25.1 7.3c-11-.5-23.7-.3-27.5-9.5-3.9-9.2-.9-18.7-.9-18.7L402 757.8s-9.6 11-20.8-3.2c-11.2-14.2-72.7-93.6-83-98.9 0 0 24.6 102.1 22.8 108.7-1.8 6.6-19.4 134.5-18.7 142.4.6 7.3 4.8 33.1 11.2 42.7 6.4 9.6 27.1 50.9 13.4 56.2-17.1 6.5-60.9-3.9-65.8-9.2-3.6-4-3.1-34.7-1-42.3 1.3-4.9-2.8-16.8-6.6-26-3.8-9.3-4.3-19.2-4.8-29.3-.6-10.2.5-22.9 1.4-33.4 1.1-12.2-2.8-24.5-5.2-36.4-5.4-26.6-12.9-69.4-9.2-84.8 3.6-14.9-3.1-35.4-8.3-48.1-6.3-15.5-7.9-32.6-7.8-49.5 0-1.6-.2-8-.2-9.6-.9-30.6-34.3-23.4-36.1-2.7-1.8 20.8-4 33.9.7 47.9s7.7 22.8 16.7 60c7.9 32.6 25 39.3 27.3 64.6.9 9.6 2.3 26 5.3 35.1 1.9 5.7 6.4 13.4 8.5 16.4 5.3 7.6 9.3 23.5 3.5 33.1-5.8 9.6-31.8 31.5-45.6 26.4-13.8-5.1-11.5-52.8-12.2-73.7-.7-20.8-47.8-77.9-47.8-77.9l-30.7-40s-9.7-28.6-5.5-81.9c1.8-23.1.7-31.8.7-31.8s-12.9 0-17.8-8.8c-4.9-8.9 2.5-32.8 2.5-32.8s33.3-96.6 32.4-106.9c0 0-39.7-41.7-44.8-67.6-4.8-24.3-2.8-22.4 24-68 0 0-5-36 23.2-52.3 0 0 11.3-32.5 31.7-36.2 0-.1 1.4-8.6 9.6-10.1z" fill="#fff"/><path d="M237.2 844.899s4.7 23.4 1.6 65.9l8.6-2.6 1.8-41.3-4.5-19.5-7.5-2.5zM395.3 752s33.8-37.9 53.5-39.7l-1.2 34.4s37.8 8.6 58.9-25.3c21-33.9 47.7-48.5 84.9-51.8 0 0-36.5-57.2-83.9-104.8 0 0-42-204.1-201.2-303 0 0-12.3-4.8-23.1-23.5-10.8-18.6-99.1-4.2-99.1-4.2s-16.2 2.4-17.5 14.2c-1.3 11.8-43 59.3-41.2 116 1.8 56.7 52.6 162.6 91.9 198.4 39.3 35.8 74.2 60.6 74.2 60.6s29.9 39.2 44.5 54.4c13.4 13.9 59.3 74.3 59.3 74.3z" fill="#005773"/><path d="M445.6 715.4s-3.7-67.3-22.3-116.2c-18.6-48.9-24.1-107.7-24.1-107.7s21.9 95.2 28.1 106.5c6.1 11.2 24.5 101.4 21.2 116.4l-2.9 1zM507.7 562.4s-14.8-12.7-18.9-21.5c-4.1-8.8 3.8 11.2 19.3 24.3M346.2 411.5s.6 29.5 42.4 91.8c0 0-38.7-73.5-39.3-94.3M385.7 372.9s22 50.7 23.8 60.9c0 0-6.1-29.3-22.5-62.9M269.3 299.5s4.8 32.7 15.6 44.7c0 0-15.4-33.5-13.7-46.7l-1.9 2z" fill="#fff"/><path d="M154.2 404c-9.6.5-13.4 1.2-14 1.7-2.8 2.7-9.2 38.7-7.5 41.5.9.5 7 1 17.1 1.5-2.1-9 3.2-38.5 4.4-44.7z" fill="#00ADE6" stroke="#fff" stroke-miterlimit="10"/><path d="M176.9 403.7h-4.8c-7 0-12.5.2-17.2.3-2.6 13.3-6.6 38.2-4.6 44.9 6.8.2 14.9.5 24.4.5 3.7-12.4 2.4-41.4 2.2-45.7z" fill="#290A11" stroke="#fff" stroke-miterlimit="10"/><path d="M289.1 594.3c2.3-2.6 9.5-6.6 17.7-11.3 12.4-7.1 27.9-15.8 29-20.9-1.9-5.6-19.3-27.2-36.2-48.1-21.3-26.4-34.3-42.7-34.6-46.5-.8-8.9 26.2-25.4 41.7-29.8 14.5-4 72.1-50.6 79.2-63.8.8-1.4.6-1.9.6-2.1-2.6-7.6-32.4-45.7-59.6-70.4-12.6-11.3-19-19.8-24.1-26.6-6-7.7-10.1-13.2-20-18.4-13-6.8-28.5-3.2-39.8-.6-4.5 1.1-8.5 1.9-11.3 1.9-2.3 0-2.6-1.1-2.6-1.8-.2-5.3 31.4-23.8 41.7-24.5 8.4-.5 12.6 5 16.9 10.6 1 1.3 2.1 2.7 3.2 4 1.8-1.9 6.9-7.7 11.1-14.2 1.9-2.9 5.2-5 9-7.6 7.2-4.7 16.3-10.5 21.3-25.1 7.4-21.4-3.2-38.2-7.9-42.8-3.2-3.2-2.7-8.5-2.3-15.9.2-3.2.5-6.8.5-10.6 0-14-5-22.2-17.2-28.5-8.4-4.3-18.8-13.8-28.8-23.2-6.6-6.1-12.9-11.9-18.2-15.8-13.8-10.1-31.2-15-41.2-14.3-4 .2-8.4-.8-13.2-2.1-8.2-2.1-18.4-4.8-33-2.7-14.7 2.3-20 11.1-23.8 17.5-2.4 4-4.3 7.2-7.7 7.7-1.6.3-3.1.5-4.3.6-5 .6-8 1-13.8 5.6-3.4 2.7-4.2 8.2-5 13.4-1 5.8-1.8 11.4-6.3 12.6-6.9 1.8-11.3 6.9-10.6 26.2.3 9.5 5.5 12.4 10.6 15.1 4.5 2.6 8.9 4.8 7.7 12.1-2.3 14.2 6 23.8 13.2 29.5 3.7 2.9 7.9 2.7 11.6 2.7 4.3-.2 8.5-.2 10.3 4.8 4.8 14.2 10.3 21.7 16.1 22.9 3.2.6 6.6-.2 9.5-.8 4.8-1.1 9.3-2.1 11.4 2.9 2.9 7.6.2 21.1 0 21.7-1.1 4.2-14.7 17.1-18.4 17.4h-.2c-1.8 0-3.9-1.9-5.5-5-.3-.6-.6-1.3-.8-1.9h-.3c-.5-.2-11.9-1.8-19.8 11.6-2.1 3.5-3.7 6.6-5.2 9.3-4 7.7-6.4 12.2-15.8 18.7-12.2 8.4-13 23.5-12.6 35.9.3 7.1-5.5 15.6-11.8 24.5-6.1 8.7-12.4 17.9-14 26.7-2.9 16.7 6.4 31.7 14.7 44.9.6 1.1 1.3 2.1 1.9 3.1 4.3 6.9 10.8 13.5 16.4 19.3 6 6.1 11.3 11.4 13 15.9 3.9 10-27.7 96.3-28 97.1-5.8 15.5-9.5 38-9.2 40.6.3 1.1 7.2 1.9 10.9 2.4 4 .5 7.7 1 10 1.8 6.1 2.4-6.3 15.8 1.4 56.5 2.7 3.7 6 9 13.3 14.6 5.1 3.8 13.1 9.9 22.8 14.8 2.4 1.2 9.9 5 12.1 6 11.1 4.8 9 3.7 10.9 4.3.1 0 0 0 0-.1-.3-2.2-.9-7-1.8-16.7-.1-.6-.1-1.2-.1-1.8.3-24.1-.2-29.2 3.3-40.8l.6-2.3c3.7-12.6 8.5-28.3 20.9-29.8 13.2-1.6 19.6 3.5 25.4 19.8 6.1 17.2 5.1 59.9 16.9 83.7 10.5 21.1 3 43.1 4.3 56.2 3.1-21.4 22.6-52.1 35.6-54 1.9-.3 4 2.6 7.3 6.7 2.7 3.5 5.1 7.2 7.1 11.2 4.2 8.6 8.4 19.6 12.5 28.3-4-21.3-5.5-46.3-12-65.6-.9-3.5-1.9-7.7-2.7-10.3-11-41.5-10.3-79.1-3.9-86.4zm-29.9-178l-2.3-.6c-14-4.3-22.7-.8-26.4 10.8 0 2.9 0 5.8-.2 8.4-.3 4.5-1.3 10.5-3.5 12.1-3.2 2.4-35.1 2.6-44.9 2.6h-8.5-.4c-14.5-.2-39.3-.6-40.6-2.7-1.9-2.9 3.4-34.5 6.6-40.4-2.4-1.8-10.5-8.2-11.3-13.2-.6-3.9-1.8-25.6 2.7-27.5 1.1-.5 2.4-.5 3.9.2 3.7 1.6 7.7 6.6 9.8 12.6 2.6 7.1 3.4 21.9 3.5 25.6 6.3-.5 15-.6 22.5-.6 14.5 0 42.7.8 53 3.1 1.3-3.9 8.2-23.2 17.2-38.6 9.7-16.7 29.5-42.7 34.6-43.8 4.3-1 19 10.9 35.1 24.3l1.9 1.6c9.8 8 14.3 16.3 13.5 24.1-.6 6.4-43 42.8-47.8 45.1-4.4 1.2-10.8-.9-18.4-3.1z" fill="#290A11" stroke="#fff" stroke-width="2" stroke-miterlimit="10"/><path d="M181.699 288.907c2.261.036 4.524.068 6.782.11 1.195.022 1.319.234.878 1.399-.061.162-.121.325-.186.487-.37.94-.703 1.181-1.684 1.174-1.346-.01-2.685-.042-4.029-.059-1.144-.015-1.323.101-1.734 1.211-1.756 4.738-3.498 9.476-5.253 14.214-.458 1.237-.564 1.305-1.808 1.296a39.617 39.617 0 01-1.199-.025c-.913-.036-.999-.16-.635-1.094 1.803-4.62 3.615-9.24 5.423-13.86.109-.279.218-.558.31-.836.209-.635.038-.99-.646-.996-1.417-.013-2.828-.041-4.239-.069-1.031-.021-1.163-.237-.793-1.242.671-1.817.701-1.839 2.525-1.81l6.288.1zM198.951 302.947c-.219.477-.346.721-.44.965-.515 1.348-1.015 2.696-1.535 4.043-.313.812-.691 1.102-1.396 1.114-.764.013-1.069-.343-.783-1.109.486-1.299 1.067-2.597 1.566-3.896 1.707-4.438 3.394-8.876 5.092-13.315.106-.277.255-.741.435-.955.105-.126.227-.257.366-.357.24-.173.514-.271.703-.278.173-.006.43.052.571.206.099.109.133.269.143.409.017.236-.21.683-.318.982-1.111 3.066-2.231 6.131-3.347 9.197-.066.182-.111.364-.203.675.354-.162.629-.262.887-.412 1.901-1.096 3.799-2.2 5.696-3.304.695-.405 1.269-.418 1.379.015.144.567-.297.949-.87 1.283a895.667 895.667 0 00-4.419 2.601c-.984.582-1.071.796-.661 1.533.894 1.608 1.789 3.216 2.673 4.832.326.597.192 1.037-.421 1.526-.792.632-1.26.653-1.625.033-.998-1.7-1.979-3.413-2.975-5.115-.111-.191-.267-.35-.518-.673zM223.31 306.656c.166.153.071.407-.096.613-.167.205-.456.46-.456.46-.304.322-.754.594-1.162.779-2.645 1.195-6.064 1.556-7.596-.646-1.227-1.764-1.059-3.932.455-6.366 1.468-2.363 3.617-4.034 6.25-4.523 3.653-.678 5.582.95 4.784 4.31-.242 1.019-.708 1.381-1.73 1.372-1.011-.008-2.017-.03-3.025-.046l-.001.002c-1.031-.016-2.068-.019-3.092-.054-.655-.022-1.018.27-1.274.913-.798 2.009.267 3.818 2.373 4.013 1.128.104 2.285-.13 3.516-.681.127-.057.45-.187.592-.223.176-.045.296-.077.462.077zm-2.736-5.492l-.002.006c.655.011 1.307.03 1.966.03.865-.001 1.145-.276 1.119-1.079-.04-1.213-.735-1.786-2.066-1.699-1.234.08-2.727.993-3.407 2.061-.266.419-.218.634.216.645.722.018 1.449.025 2.174.036zM192.501 306.162c.159.153.064.408-.1.613a4.904 4.904 0 01-.446.461c-.299.322-.736.594-1.133.779-2.572 1.197-5.88 1.559-7.332-.641-1.163-1.763-.973-3.931.52-6.365 1.45-2.364 3.548-4.036 6.099-4.526 3.538-.68 5.38.947 4.567 4.307-.247 1.019-.702 1.381-1.69 1.372-.976-.007-1.948-.029-2.922-.044l-.001.002c-.996-.016-1.998-.018-2.987-.052-.633-.022-.987.27-1.242.913-.797 2.009.208 3.818 2.241 4.011 1.089.103 2.21-.131 3.406-.683a5.15 5.15 0 01.575-.223c.17-.045.287-.077.445.076zm-2.573-5.488l-.002.005c.632.011 1.262.029 1.899.029.836-.001 1.11-.276 1.095-1.079-.023-1.213-.689-1.785-1.975-1.698-1.194.081-2.648.995-3.318 2.063-.263.419-.219.634.199.645.699.017 1.402.024 2.102.035zM209.809 306.898c-.177.465-.34.931-.534 1.395-.25.598-.679.941-1.299.975-.685.038-.992-.252-.874-.873.039-.204.122-.417.205-.626 1.031-2.6 2.059-5.201 3.103-7.801.325-.811.684-1.622 1.041-2.432.21-.475.565-.783 1.067-.829.496-.046.718.197.683.653a2.576 2.576 0 01-.17.687l-3.222 8.851z" fill="#26C8E7"/><path d="M214.684 291.486c.056.1.108.187.156.276.212.397.4.807.516 1.253.046.177.072.363.09.551.032.367-.155.727-.482 1.065-.501.52-1.097.795-1.758.795-.834.001-1.309-.542-1.164-1.282.057-.29.242-.55.471-.804.403-.448.874-.844 1.359-1.229.233-.186.473-.365.71-.548l.102-.077z" fill="url(#paint0_linear)"/><path d="M282.4 707.5h-.2c-14.3 0-34.1 33.1-36.5 55.5-1.6 14.3 5.1 46.8 9.9 70.6 2.5 12.9 4.6 23 5 27.6.4 6.6-1.1 10.7-2.3 14.8-1.5 4.2-2.7 8.1-1.9 14.4.6 5.1 1.1 6.3 1.3 7.4.5 1.5 1 2.7 1.7 13.9.7 10.4 3.2 14.3 5.5 18.1 1.9 3 3.7 5.9 4.4 12 .5 3.8 1 7.3 1.7 10.7 1.5 8.7 2.7 16.3.2 23.1-3.1 8.3-2.5 14.4 1.8 16.9 2 1.3 13.3 3.6 24.8 5.2 13 1.9 19.1 2 20.2 1.3 1.3-.6 2.3-1.8 2.7-3.5 1.3-4.4-.6-11.1-5.3-18.3-8.4-13.3-13-25.3-17.4-40.5-.8-2.6-1.5-4.8-2-7-3.2-10.4-5-16.2-3.6-28.7 1.2-13.2 4.4-44.3 7.9-67.8 1.6-11 7.1-47.8 11.6-60.8 2.4-7.3-10.4-39.7-21.1-56.1-5.1-7.5-7.6-8.6-8.4-8.8zM113.5 665.4c-2.3 18.1.2 50.2 5.3 55.1 9.1 8.7 29 36.2 34.9 44.5 12.6 17.7 28.1 41.7 34.6 51.9 6.3 9.6 7.2 15.1 8.7 25 .5 2 .8 4.1 1.1 6.6 2.5 14.3 3.6 26.1 1.9 40.7-1 8 .1 14.3 3.1 17.3 1.1 1.2 2.4 1.7 3.8 1.7 1.2 0 6.4-2.7 16.6-10 9-6.4 12.4-10.8 13.6-12.7 2.6-3.8 4.7-9.9-1.4-15.3-4.9-4.4-5.9-12.9-8.2-20.7-.8-3-1.8-6.1-3-9.4-2-5.3-1.6-8.4-1.3-11.7.4-4.1.9-8.4-2.8-17.2-4-9.5-4-10.7-4.3-12.1-.2-.9-.3-2.1-1.9-6.6-1.9-5.5-4.6-8.1-7.6-10.9-2.7-2.7-5.7-5.5-8.1-11-1.6-3.9-4-13.1-7.1-24.7-5.7-21.6-8.2-40.6-15.4-51.5-11.4-3.7-47.5-20.1-59.1-39.7l-.1.1c-.5.3-2.2 2.4-3.3 10.6zM227.7 407.8c-.3-.3-1-.5-2-.9h-.5c-6.9-1.5-26.9-2.9-48.2-3.2.2 4.8 1.3 32.8-1.8 45.7h7.7c28.5 0 43.1-1.2 44.6-2.4 1.3-1 2.5-5.3 2.8-11.4.2-2.9.3-5.8.2-8.7.1-9-1.2-17.2-2.8-19.1z" fill="#00ADE6" stroke="#fff" stroke-miterlimit="10"/><defs><linearGradient id="paint0_linear" x1="214.69" y1="291.486" x2="214.626" y2="295.449" gradientUnits="userSpaceOnUse"><stop stop-color="#7EE9F4"/><stop offset="1" stop-color="#3CA6E6"/></linearGradient></defs></svg>