<svg viewBox="0 0 16 17" fill="none" xmlns="http://www.w3.org/2000/svg">
<path fill-rule="evenodd" clip-rule="evenodd" d="M8 0.5C4.22876 0.5 2.34315 0.5 1.17157 1.67157C0 2.84315 0 4.72876 0 8.5C0 12.2712 0 14.1569 1.17157 15.3284C2.34315 16.5 4.22876 16.5 8 16.5C11.7712 16.5 13.6569 16.5 14.8284 15.3284C16 14.1569 16 12.2712 16 8.5C16 4.72876 16 2.84315 14.8284 1.67157C13.6569 0.5 11.7712 0.5 8 0.5ZM8 3.9C8.33137 3.9 8.6 4.16863 8.6 4.5V9.3C8.6 9.63137 8.33137 9.9 8 9.9C7.66863 9.9 7.4 9.63137 7.4 9.3V4.5C7.4 4.16863 7.66863 3.9 8 3.9ZM8 12.5C8.44183 12.5 8.8 12.1418 8.8 11.7C8.8 11.2582 8.44183 10.9 8 10.9C7.55817 10.9 7.2 11.2582 7.2 11.7C7.2 12.1418 7.55817 12.5 8 12.5Z" fill="white"/>
</svg>
