<svg viewBox="0 0 14 14" fill="none" xmlns="http://www.w3.org/2000/svg">
<path fill-rule="evenodd" clip-rule="evenodd" d="M13.6666 7.00016C13.6666 10.6821 10.6818 13.6668 6.99992 13.6668C3.31802 13.6668 0.333252 10.6821 0.333252 7.00016C0.333252 3.31826 3.31802 0.333496 6.99992 0.333496C10.6818 0.333496 13.6666 3.31826 13.6666 7.00016ZM6.99992 4.16683C6.58571 4.16683 6.24992 4.50262 6.24992 4.91683C6.24992 5.19297 6.02606 5.41683 5.74992 5.41683C5.47378 5.41683 5.24992 5.19297 5.24992 4.91683C5.24992 3.95033 6.03342 3.16683 6.99992 3.16683C7.96642 3.16683 8.74992 3.95033 8.74992 4.91683C8.74992 5.39072 8.56089 5.82148 8.25522 6.13614C8.19371 6.19946 8.13504 6.25808 8.07907 6.314C7.93518 6.45777 7.80912 6.58372 7.69852 6.72583C7.5525 6.91345 7.49992 7.05134 7.49992 7.16683V7.66683C7.49992 7.94297 7.27606 8.16683 6.99992 8.16683C6.72378 8.16683 6.49992 7.94297 6.49992 7.66683V7.16683C6.49992 6.73004 6.70326 6.37645 6.90936 6.11163C7.06186 5.91569 7.25354 5.72439 7.4091 5.56914C7.45603 5.52231 7.49967 5.47875 7.53795 5.43934C7.66964 5.30379 7.74992 5.12019 7.74992 4.91683C7.74992 4.50262 7.41413 4.16683 6.99992 4.16683ZM6.99992 10.3335C7.36811 10.3335 7.66659 10.035 7.66659 9.66683C7.66659 9.29864 7.36811 9.00016 6.99992 9.00016C6.63173 9.00016 6.33325 9.29864 6.33325 9.66683C6.33325 10.035 6.63173 10.3335 6.99992 10.3335Z" fill="#00ADE6"/>
</svg>
