<svg width="16" height="16" viewBox="0 0 16 16" fill="none" xmlns="http://www.w3.org/2000/svg">
<path fill-rule="evenodd" clip-rule="evenodd" d="M6.12676 2.15707C6.44708 2.02325 6.79078 1.95435 7.13793 1.95435C7.48508 1.95435 7.82878 2.02325 8.14911 2.15707C8.46943 2.2909 8.76 2.48697 9.00398 2.73393C9.24796 2.98089 9.44049 3.27382 9.57042 3.59574C9.69997 3.91673 9.7647 4.26017 9.7609 4.60628L9.75684 10.4995L9.75678 10.5033C9.74951 10.9633 9.5617 11.4019 9.23388 11.7246C8.90605 12.0473 8.46449 12.2281 8.0045 12.2281C7.5445 12.2281 7.10294 12.0473 6.77512 11.7246C6.44729 11.4019 6.25948 10.9633 6.25221 10.5033L6.25215 10.4994V6.0001C6.25215 5.72396 6.47601 5.5001 6.75215 5.5001C7.02829 5.5001 7.25215 5.72396 7.25215 6.0001V10.491C7.25615 10.6872 7.33667 10.8742 7.47662 11.0119C7.61738 11.1505 7.80698 11.2281 8.0045 11.2281C8.20201 11.2281 8.39161 11.1505 8.53238 11.0119C8.67235 10.8741 8.75288 10.6871 8.75684 10.4908L8.76091 4.60002L8.76094 4.59716C8.76355 4.38237 8.72349 4.16919 8.6431 3.97C8.5627 3.7708 8.44357 3.58954 8.2926 3.43673C8.14163 3.28392 7.96183 3.1626 7.76362 3.07979C7.56541 2.99698 7.35274 2.95435 7.13793 2.95435C6.92312 2.95435 6.71045 2.99698 6.51224 3.07979C6.31404 3.1626 6.13424 3.28392 5.98327 3.43673C5.8323 3.58954 5.71316 3.7708 5.63277 3.97C5.55237 4.16919 5.51232 4.38237 5.51493 4.59716L5.51496 4.6002V10.5387L5.51491 10.5423C5.51014 10.8716 5.57089 11.1986 5.6936 11.5042C5.81632 11.8098 5.99856 12.0879 6.22973 12.3225C6.4609 12.557 6.7364 12.7433 7.04019 12.8704C7.34399 12.9975 7.67002 13.063 7.99934 13.063C8.32866 13.063 8.65469 12.9975 8.95849 12.8704C9.26228 12.7433 9.53777 12.557 9.76895 12.3225C10.0001 12.0879 10.1824 11.8098 10.3051 11.5042C10.4278 11.1986 10.4885 10.8716 10.4838 10.5423L10.4837 10.5387V4.99198C10.4837 4.71584 10.7076 4.49198 10.9837 4.49198C11.2599 4.49198 11.4837 4.71584 11.4837 4.99198V10.5316C11.4899 10.9922 11.4047 11.4494 11.2331 11.8768C11.061 12.3054 10.8054 12.6955 10.4812 13.0244C10.1569 13.3534 9.77057 13.6146 9.34451 13.7929C8.91845 13.9712 8.4612 14.063 7.99934 14.063C7.53748 14.063 7.08023 13.9712 6.65417 13.7929C6.22811 13.6146 5.84174 13.3534 5.51753 13.0244C5.19331 12.6955 4.93773 12.3054 4.76562 11.8768C4.59398 11.4494 4.50879 10.9922 4.51496 10.5316V4.6061C4.51118 4.26006 4.57592 3.91667 4.70544 3.59574C4.83537 3.27382 5.0279 2.98088 5.27188 2.73393C5.51586 2.48697 5.80644 2.2909 6.12676 2.15707Z" fill="#8C61CB"/>
</svg>
