<svg width="25" height="26" viewBox="0 0 25 26" fill="none" xmlns="http://www.w3.org/2000/svg">
<path opacity="0.5" d="M2.96875 21.0596L21.9688 6.64453V21.0596H2.96875Z" fill="#8C61CB"/>
<path d="M17.9688 3.55538H21.9688C22.234 3.55538 22.4883 3.66386 22.6759 3.85696C22.8634 4.05005 22.9688 4.31195 22.9688 4.58503V21.0593C22.9688 21.3324 22.8634 21.5943 22.6759 21.7874C22.4883 21.9805 22.234 22.089 21.9688 22.089H3.96875C3.70353 22.089 3.44918 21.9805 3.26164 21.7874C3.07411 21.5943 2.96875 21.3324 2.96875 21.0593V4.58503C2.96875 4.31195 3.07411 4.05005 3.26164 3.85696C3.44918 3.66386 3.70353 3.55538 3.96875 3.55538H7.96875V1.49609H9.96875V3.55538H15.9688V1.49609H17.9688V3.55538ZM20.9688 9.73325V5.61467H17.9688V7.67396H15.9688V5.61467H9.96875V7.67396H7.96875V5.61467H4.96875V9.73325H20.9688ZM20.9688 11.7925H4.96875V20.0297H20.9688V11.7925ZM6.96875 13.8518H11.9688V17.9704H6.96875V13.8518Z" fill="#8C61CB"/>
</svg>
