<svg width="16" height="16" viewBox="0 0 16 16" fill="none" xmlns="http://www.w3.org/2000/svg">
<path d="M9.83401 2.66658H3.278V13.3332H12.4564V5.33325H9.83401V2.66658ZM1.9668 1.99459C1.9668 1.62925 2.25985 1.33325 2.62174 1.33325H10.4896L13.7676 4.66658V13.9952C13.7682 14.0828 13.7519 14.1696 13.7195 14.2507C13.6871 14.3318 13.6393 14.4057 13.5789 14.468C13.5184 14.5304 13.4465 14.58 13.3672 14.6141C13.2878 14.6481 13.2027 14.666 13.1166 14.6666H2.61781C2.44563 14.6654 2.28084 14.5953 2.15903 14.4716C2.03722 14.3478 1.96817 14.1803 1.9668 14.0052V1.99459ZM11.5759 7.99992L9.25774 10.3572L8.33072 9.41392L9.72125 7.99992L8.33138 6.58592L9.25774 5.64258L11.5759 7.99992ZM4.15847 7.99992L6.47733 5.64258L7.40436 6.58592L6.01317 7.99992L7.40304 9.41392L6.47668 10.3572L4.15847 7.99992Z" fill="#BDBDBD"/>
</svg>
