<svg width="17" height="16" viewBox="0 0 17 16" fill="none" xmlns="http://www.w3.org/2000/svg">
<path d="M4.9904 4.00001V2.00001C4.9904 1.8232 5.06064 1.65363 5.18566 1.52861C5.31068 1.40358 5.48025 1.33334 5.65706 1.33334H13.6571C13.8339 1.33334 14.0034 1.40358 14.1285 1.52861C14.2535 1.65363 14.3237 1.8232 14.3237 2.00001V11.3333C14.3237 11.5102 14.2535 11.6797 14.1285 11.8047C14.0034 11.9298 13.8339 12 13.6571 12H11.6571V14C11.6571 14.368 11.3571 14.6667 10.9857 14.6667H2.99506C2.90715 14.6672 2.82 14.6504 2.73861 14.6171C2.65723 14.5838 2.58322 14.5348 2.52084 14.4729C2.45845 14.4109 2.40893 14.3373 2.3751 14.2561C2.34127 14.175 2.32382 14.0879 2.32373 14L2.32573 4.66668C2.32573 4.29868 2.62573 4.00001 2.9964 4.00001H4.9904ZM3.6584 5.33334L3.65706 13.3333H10.3237V5.33334H3.6584ZM6.32373 4.00001H11.6571V10.6667H12.9904V2.66668H6.32373V4.00001ZM4.9904 7.33334H8.9904V8.66668H4.9904V7.33334ZM4.9904 10H8.9904V11.3333H4.9904V10Z" fill="#BDBDBD"/>
</svg>
