<svg width="16" height="16" viewBox="0 0 16 16" fill="none" xmlns="http://www.w3.org/2000/svg">
<path fill-rule="evenodd" clip-rule="evenodd" d="M9.33325 1.5C9.60939 1.5 9.83325 1.72386 9.83325 2V4.66667C9.83325 4.71087 9.85081 4.75326 9.88207 4.78452C9.91332 4.81577 9.95572 4.83333 9.99992 4.83333H12.6666C12.9427 4.83333 13.1666 5.05719 13.1666 5.33333C13.1666 5.60948 12.9427 5.83333 12.6666 5.83333H9.99992C9.6905 5.83333 9.39375 5.71042 9.17496 5.49162C8.95617 5.27283 8.83325 4.97609 8.83325 4.66667V2C8.83325 1.72386 9.05711 1.5 9.33325 1.5Z" fill="white"/>
<path fill-rule="evenodd" clip-rule="evenodd" d="M4.66659 2.5C4.44557 2.5 4.23361 2.5878 4.07733 2.74408C3.92105 2.90036 3.83325 3.11232 3.83325 3.33333V12.6667C3.83325 12.8877 3.92105 13.0996 4.07733 13.2559C4.23361 13.4122 4.44557 13.5 4.66659 13.5H11.3333C11.5543 13.5 11.7662 13.4122 11.9225 13.2559C12.0788 13.0996 12.1666 12.8877 12.1666 12.6667V5.54044L9.12615 2.5H4.66659ZM3.37022 2.03697C3.71404 1.69315 4.18036 1.5 4.66659 1.5H9.33325C9.46586 1.5 9.59304 1.55268 9.68681 1.64645L13.0201 4.97978C13.1139 5.07355 13.1666 5.20073 13.1666 5.33333V12.6667C13.1666 13.1529 12.9734 13.6192 12.6296 13.963C12.2858 14.3068 11.8195 14.5 11.3333 14.5H4.66659C4.18035 14.5 3.71404 14.3068 3.37022 13.963C3.02641 13.6192 2.83325 13.1529 2.83325 12.6667V3.33333C2.83325 2.8471 3.02641 2.38079 3.37022 2.03697Z" fill="white"/>
<path fill-rule="evenodd" clip-rule="evenodd" d="M6 7.5C6.27614 7.5 6.5 7.72386 6.5 8V11.3333C6.5 11.6095 6.27614 11.8333 6 11.8333C5.72386 11.8333 5.5 11.6095 5.5 11.3333V8C5.5 7.72386 5.72386 7.5 6 7.5Z" fill="white"/>
<path fill-rule="evenodd" clip-rule="evenodd" d="M8 10.1667C8.27614 10.1667 8.5 10.3905 8.5 10.6667V11.3334C8.5 11.6095 8.27614 11.8334 8 11.8334C7.72386 11.8334 7.5 11.6095 7.5 11.3334V10.6667C7.5 10.3905 7.72386 10.1667 8 10.1667Z" fill="white"/>
<path fill-rule="evenodd" clip-rule="evenodd" d="M10 8.83331C10.2761 8.83331 10.5 9.05717 10.5 9.33331V11.3333C10.5 11.6095 10.2761 11.8333 10 11.8333C9.72386 11.8333 9.5 11.6095 9.5 11.3333V9.33331C9.5 9.05717 9.72386 8.83331 10 8.83331Z" fill="white"/>
</svg>
