<svg width="40" height="40" viewBox="0 0 20 20" fill="none" xmlns="http://www.w3.org/2000/svg">
<path d="M18.0918 16.9083L15.0002 13.8417C16.2002 12.3454 16.7814 10.4461 16.6242 8.53443C16.4669 6.62276 15.5832 4.844 14.1548 3.56388C12.7263 2.28377 10.8617 1.5996 8.94427 1.65207C7.02686 1.70454 5.20243 2.48965 3.84612 3.84596C2.4898 5.20228 1.70469 7.02671 1.65222 8.94411C1.59976 10.8615 2.28392 12.7262 3.56403 14.1546C4.84415 15.5831 6.62292 16.4668 8.53458 16.624C10.4462 16.7813 12.3455 16.2001 13.8418 15L16.9085 18.0667C16.986 18.1448 17.0781 18.2068 17.1797 18.2491C17.2812 18.2914 17.3902 18.3132 17.5002 18.3132C17.6102 18.3132 17.7191 18.2914 17.8206 18.2491C17.9222 18.2068 18.0144 18.1448 18.0918 18.0667C18.242 17.9113 18.326 17.7036 18.326 17.4875C18.326 17.2714 18.242 17.0637 18.0918 16.9083ZM9.16683 15C8.01311 15 6.88529 14.6579 5.926 14.0169C4.96672 13.3759 4.21904 12.4649 3.77753 11.399C3.33602 10.3331 3.2205 9.16021 3.44558 8.02865C3.67066 6.8971 4.22624 5.8577 5.04204 5.04189C5.85785 4.22608 6.89725 3.67051 8.0288 3.44543C9.16036 3.22035 10.3332 3.33587 11.3992 3.77738C12.4651 4.21889 13.3761 4.96657 14.0171 5.92585C14.658 6.88514 15.0002 8.01295 15.0002 9.16668C15.0002 10.7138 14.3856 12.1975 13.2916 13.2915C12.1977 14.3854 10.7139 15 9.16683 15Z" fill="#757575"/>
</svg>
