<svg width="16" height="16" viewBox="0 0 16 16" fill="none" xmlns="http://www.w3.org/2000/svg">
<path d="M14.8934 7.0962L14.8884 7.09401L1.54219 1.55839C1.42993 1.5114 1.30778 1.49298 1.18666 1.50475C1.06554 1.51653 0.949225 1.55815 0.848125 1.62589C0.741311 1.69588 0.653573 1.79132 0.592805 1.90364C0.532037 2.01596 0.500145 2.14162 0.5 2.26932V5.80964C0.50006 5.98422 0.561019 6.1533 0.67237 6.28776C0.783722 6.42221 0.938491 6.51361 1.11 6.5462L8.38906 7.89214C8.41767 7.89756 8.44348 7.9128 8.46205 7.93522C8.48062 7.95764 8.49078 7.98584 8.49078 8.01495C8.49078 8.04406 8.48062 8.07226 8.46205 8.09468C8.44348 8.1171 8.41767 8.13234 8.38906 8.13776L1.11031 9.4837C0.938851 9.5162 0.784092 9.60748 0.67269 9.74181C0.561288 9.87615 0.500219 10.0451 0.5 10.2196V13.7606C0.499917 13.8825 0.530111 14.0026 0.587871 14.11C0.645632 14.2174 0.729152 14.3087 0.830938 14.3759C0.953375 14.4572 1.09706 14.5007 1.24406 14.5009C1.34626 14.5008 1.4474 14.4803 1.54156 14.4406L14.8875 8.93651L14.8934 8.9337C15.0731 8.8565 15.2262 8.72832 15.3337 8.56502C15.4413 8.40173 15.4986 8.21049 15.4986 8.01495C15.4986 7.81942 15.4413 7.62817 15.3337 7.46488C15.2262 7.30158 15.0731 7.1734 14.8934 7.0962V7.0962Z" fill="#8C61CB"/>
</svg>
