<svg width="16" height="16" viewBox="0 0 16 16" fill="none" xmlns="http://www.w3.org/2000/svg">
<path d="M7.99992 14.6673C4.31792 14.6673 1.33325 11.6827 1.33325 8.00065C1.33325 4.31865 4.31792 1.33398 7.99992 1.33398C11.6819 1.33398 14.6666 4.31865 14.6666 8.00065C14.6666 11.6827 11.6819 14.6673 7.99992 14.6673ZM7.99992 13.334C9.41441 13.334 10.771 12.7721 11.7712 11.7719C12.7713 10.7717 13.3333 9.41514 13.3333 8.00065C13.3333 6.58616 12.7713 5.22961 11.7712 4.22941C10.771 3.22922 9.41441 2.66732 7.99992 2.66732C6.58543 2.66732 5.22888 3.22922 4.22868 4.22941C3.22849 5.22961 2.66659 6.58616 2.66659 8.00065C2.66659 9.41514 3.22849 10.7717 4.22868 11.7719C5.22888 12.7721 6.58543 13.334 7.99992 13.334ZM8.66658 8.00065H11.3333V9.33398H7.33325V4.66732H8.66658V8.00065Z" fill="#9E9E9E"/>
</svg>
