<svg width="16" height="14" viewBox="0 0 16 14" fill="none" xmlns="http://www.w3.org/2000/svg">
<path d="M7.99944 7.39034L10.8281 10.2183L9.88478 11.1617L8.66611 9.94301V13.6663H7.33278V9.94168L6.11411 11.1617L5.17078 10.2183L7.99944 7.39034ZM7.99944 0.333008C9.1441 0.333062 10.2488 0.75375 11.1036 1.51509C11.9583 2.27642 12.5035 3.32532 12.6354 4.46234C13.465 4.68855 14.1886 5.19908 14.6799 5.90469C15.1712 6.61031 15.3989 7.46614 15.3232 8.3226C15.2475 9.17907 14.8732 9.9817 14.2658 10.5902C13.6584 11.1987 12.8564 11.5744 12.0001 11.6517V10.309C12.3069 10.2652 12.6019 10.1607 12.8678 10.0017C13.1338 9.8426 13.3654 9.63216 13.5492 9.38261C13.7329 9.13307 13.8651 8.84943 13.938 8.54824C14.011 8.24705 14.0232 7.93435 13.9739 7.62839C13.9247 7.32243 13.815 7.02935 13.6513 6.76624C13.4875 6.50314 13.273 6.27529 13.0202 6.09599C12.7675 5.91669 12.4815 5.78954 12.1791 5.72195C11.8767 5.65436 11.5638 5.6477 11.2588 5.70234C11.3632 5.21627 11.3575 4.71299 11.2423 4.22938C11.127 3.74576 10.905 3.29406 10.5925 2.90736C10.28 2.52066 9.88504 2.20875 9.43642 1.99447C8.98781 1.7802 8.49694 1.66899 7.99978 1.66899C7.50261 1.66899 7.01174 1.7802 6.56313 1.99447C6.11451 2.20875 5.7195 2.52066 5.40704 2.90736C5.09458 3.29406 4.87258 3.74576 4.7573 4.22938C4.64201 4.71299 4.63637 5.21627 4.74078 5.70234C4.13255 5.58812 3.50385 5.7202 2.993 6.06952C2.48215 6.41883 2.13099 6.95678 2.01677 7.56501C1.90255 8.17324 2.03463 8.80193 2.38395 9.31278C2.73327 9.82363 3.27121 10.1748 3.87944 10.289L3.99944 10.309V11.6517C3.14307 11.5746 2.34105 11.1989 1.73353 10.5905C1.12602 9.982 0.751659 9.17938 0.675891 8.32289C0.600122 7.46641 0.827761 6.61053 1.31902 5.90486C1.81028 5.19918 2.53391 4.6886 3.36344 4.46234C3.49525 3.32526 4.04038 2.27628 4.89516 1.51492C5.74994 0.753554 6.85475 0.332917 7.99944 0.333008V0.333008Z" fill="white"/>
</svg>
