<svg viewBox="0 0 19 18" fill="none">
<path d="M14.8114 3.93688C15.6723 4.79965 16.2997 5.85793 16.6371 7.01637H18.9474V10.981H16.6371C16.3001 12.1404 15.6727 13.1996 14.8114 14.0631L15.9686 16.0183L12.4525 18L11.298 16.0448C10.101 16.3395 8.84772 16.3395 7.65068 16.0448L6.49489 18L2.9788 16.0183L4.13594 14.0631C3.27472 13.1996 2.64727 12.1404 2.31023 10.981H0V7.01769H2.31023C2.64727 5.85831 3.27472 4.79908 4.13594 3.93556L2.97744 1.98165L6.49218 0H6.49624L7.65203 1.95259C8.84908 1.65788 10.1024 1.65788 11.2994 1.95259L12.4511 0H12.4538L15.9699 1.98165L14.8128 3.93688H14.8114ZM13.5338 8.99934C13.5338 7.94821 13.1061 6.94012 12.3446 6.19686C11.5832 5.4536 10.5505 5.03604 9.47368 5.03604C8.39686 5.03604 7.36415 5.4536 6.60272 6.19686C5.8413 6.94012 5.41353 7.94821 5.41353 8.99934C5.41353 10.0505 5.8413 11.0586 6.60272 11.8018C7.36415 12.5451 8.39686 12.9626 9.47368 12.9626C10.5505 12.9626 11.5832 12.5451 12.3446 11.8018C13.1061 11.0586 13.5338 10.0505 13.5338 8.99934Z" fill="#F9F9F9" fill-opacity="0.82"/>
</svg>
