<svg width="24" height="24" viewBox="0 0 24 24" fill="none" xmlns="http://www.w3.org/2000/svg">
<path d="M19 1.99994H4.99997C4.20432 1.99994 3.44126 2.31601 2.87865 2.87862C2.31604 3.44123 1.99997 4.20429 1.99997 4.99994V14.9999C1.99997 15.7956 2.31604 16.5587 2.87865 17.1213C3.44126 17.6839 4.20432 17.9999 4.99997 17.9999H7.63997L7.05997 18.9999C6.88443 19.304 6.79202 19.6489 6.79202 19.9999C6.79202 20.351 6.88443 20.6959 7.05997 20.9999C7.23702 21.3066 7.49232 21.5608 7.79979 21.7365C8.10725 21.9122 8.45586 22.0031 8.80997 21.9999H15.27C15.6207 21.9996 15.9652 21.907 16.2688 21.7315C16.5725 21.556 16.8246 21.3037 17 20.9999C17.1755 20.6959 17.2679 20.351 17.2679 19.9999C17.2679 19.6489 17.1755 19.304 17 18.9999L16.41 17.9999H19C19.7956 17.9999 20.5587 17.6839 21.1213 17.1213C21.6839 16.5587 22 15.7956 22 14.9999V4.99994C22 4.20429 21.6839 3.44123 21.1213 2.87862C20.5587 2.31601 19.7956 1.99994 19 1.99994ZM8.76997 19.9999L9.99997 17.9999H14L15.2 19.9999H8.76997ZM20 14.9999C20 15.2652 19.8946 15.5195 19.7071 15.707C19.5195 15.8946 19.2652 15.9999 19 15.9999H4.99997C4.73475 15.9999 4.4804 15.8946 4.29286 15.707C4.10533 15.5195 3.99997 15.2652 3.99997 14.9999V13.9999H20V14.9999ZM20 11.9999H3.99997V4.99994C3.99997 4.73472 4.10533 4.48037 4.29286 4.29283C4.4804 4.1053 4.73475 3.99994 4.99997 3.99994H19C19.2652 3.99994 19.5195 4.1053 19.7071 4.29283C19.8946 4.48037 20 4.73472 20 4.99994V11.9999Z" fill="black"/>
</svg>
