<svg width="24" height="25" viewBox="0 0 24 25" fill="none" xmlns="http://www.w3.org/2000/svg">
<path fill-rule="evenodd" clip-rule="evenodd" d="M2.02344 3.125C2.02344 2.57272 2.47115 2.125 3.02344 2.125H10.2714C10.8237 2.125 11.2714 2.57272 11.2714 3.125V12.3691C11.2714 12.9214 10.8237 13.3691 10.2714 13.3691H3.02344C2.47115 13.3691 2.02344 12.9214 2.02344 12.3691V3.125ZM4.02344 4.125V11.3691H9.27138V4.125H4.02344Z" fill="black"/>
<path fill-rule="evenodd" clip-rule="evenodd" d="M13.0801 12.3691C13.0801 11.8169 13.5278 11.3691 14.0801 11.3691H21.328C21.8803 11.3691 22.328 11.8169 22.328 12.3691V21.6133C22.328 22.1656 21.8803 22.6133 21.328 22.6133H14.0801C13.5278 22.6133 13.0801 22.1656 13.0801 21.6133V12.3691ZM15.0801 13.3691V20.6133H20.328V13.3691H15.0801Z" fill="black"/>
<path fill-rule="evenodd" clip-rule="evenodd" d="M13.0801 3.125C13.0801 2.57272 13.5278 2.125 14.0801 2.125H21.328C21.8803 2.125 22.328 2.57272 22.328 3.125V8.53074C22.328 9.08302 21.8803 9.53074 21.328 9.53074H14.0801C13.5278 9.53074 13.0801 9.08302 13.0801 8.53074V3.125ZM15.0801 4.125V7.53074H20.328V4.125H15.0801Z" fill="black"/>
<path fill-rule="evenodd" clip-rule="evenodd" d="M2.02344 16.208C2.02344 15.6557 2.47115 15.208 3.02344 15.208H10.2714C10.8237 15.208 11.2714 15.6557 11.2714 16.208V21.6137C11.2714 22.166 10.8237 22.6137 10.2714 22.6137H3.02344C2.47115 22.6137 2.02344 22.166 2.02344 21.6137V16.208ZM4.02344 17.208V20.6137H9.27138V17.208H4.02344Z" fill="black"/>
</svg>
