<svg width="56" height="56" viewBox="0 0 56 56" fill="none" xmlns="http://www.w3.org/2000/svg">
<path d="M28 56C43.464 56 56 43.464 56 28C56 12.536 43.464 0 28 0C12.536 0 0 12.536 0 28C0 43.464 12.536 56 28 56Z" fill="#0F3B86"/>
<path d="M50.3208 30.6327C50.3208 36.4695 48.002 42.0674 43.8747 46.1947C39.7474 50.322 34.1496 52.6406 28.3127 52.6406C22.4758 52.6406 16.878 50.322 12.7507 46.1947C8.6234 42.0674 6.30469 36.4695 6.30469 30.6327C6.30469 18.4784 28.3127 2.67969 28.3127 2.67969C28.3127 2.67969 50.3208 18.4784 50.3208 30.6327Z" fill="url(#paint0_linear)"/>
<path d="M28.3087 11.4577C28.3087 11.4577 46.1918 24.2974 49.7142 35.7315C50.1129 34.0602 50.3148 32.348 50.3156 30.6299C50.3156 18.4745 28.3087 2.67578 28.3087 2.67578C28.3087 2.67578 6.30078 18.4745 6.30078 30.6299C6.30177 32.348 6.50361 34.0602 6.90221 35.7315C10.4257 24.2974 28.3087 11.4577 28.3087 11.4577Z" fill="url(#paint1_linear)"/>
<path d="M16.7704 27.3552C17.6966 26.5152 20.099 26.4312 21.2963 26.2217C25.3298 25.5196 29.4409 25.3775 33.5132 25.7995C34.9894 25.9529 38.2956 25.8857 39.2062 27.3104C40.3352 29.0744 38.0291 32.5408 36.9181 33.8579C35.828 35.1262 34.471 36.1378 32.9443 36.8205C31.4177 37.5032 29.7589 37.8401 28.0869 37.807C24.0448 37.807 19.8089 36.575 17.7996 32.73C17.1292 31.4609 16.6681 30.0918 16.4343 28.6756C16.3809 28.4501 16.3813 28.2151 16.4356 27.9898C16.4899 27.7645 16.5965 27.5551 16.7469 27.3787L16.7704 27.3552Z" fill="#1E58AC"/>
<path d="M37.8601 32.5893C37.8601 32.5893 26.8999 27.2906 19.3555 34.8349C11.8112 42.3792 37.1636 39.3956 37.1636 39.3956L37.8601 32.5893Z" fill="#8AEEF7"/>
<path d="M31.6459 21.3077C31.4822 21.3074 31.3225 21.2568 31.1885 21.1629C31.0544 21.069 30.9525 20.9362 30.8963 20.7824C30.8401 20.6287 30.8324 20.4614 30.8743 20.3031C30.9162 20.1449 31.0058 20.0033 31.1308 19.8976L31.208 19.8057C31.6975 19.2233 33.1769 17.4481 35.2702 17.5053C36.0793 17.5941 36.8571 17.8679 37.5434 18.3055C38.2298 18.743 38.8063 19.3326 39.2284 20.0286C39.3444 20.1988 39.3903 20.4072 39.3565 20.6103C39.3227 20.8135 39.2118 20.9958 39.0469 21.1192C38.8821 21.2427 38.6758 21.2977 38.4713 21.2729C38.2669 21.2482 38.08 21.1455 37.9493 20.9862C37.6639 20.4898 37.2715 20.0632 36.8005 19.7375C36.3295 19.4119 35.7918 19.1953 35.2266 19.1035C34.6657 19.1791 34.1271 19.3722 33.646 19.6702C33.1649 19.9682 32.752 20.3644 32.4344 20.8328C32.3053 21.0284 32.1192 21.1797 31.9013 21.2662C31.819 21.2937 31.7327 21.3077 31.6459 21.3077Z" fill="#1E58AC"/>
<path d="M17.3306 21.3077C17.1668 21.3076 17.007 21.2572 16.8727 21.1634C16.7385 21.0695 16.6363 20.9367 16.58 20.7829C16.5237 20.6291 16.516 20.4617 16.5579 20.3034C16.5998 20.145 16.6893 20.0034 16.8143 19.8976L16.8927 19.8057C17.3821 19.2233 18.8616 17.4481 20.9538 17.5053C21.7628 17.5942 22.5407 17.8681 23.227 18.3056C23.9133 18.7431 24.4898 19.3327 24.9119 20.0286C25.0279 20.1988 25.0738 20.4072 25.04 20.6103C25.0062 20.8135 24.8954 20.9958 24.7305 21.1192C24.5656 21.2427 24.3594 21.2977 24.1549 21.2729C23.9504 21.2482 23.7635 21.1455 23.6329 20.9862C23.3473 20.4899 22.9548 20.0635 22.4838 19.7378C22.0128 19.4122 21.4753 19.1955 20.9102 19.1035C19.5998 19.0654 18.5223 20.3489 18.1169 20.8328C17.9879 21.0282 17.8023 21.1794 17.5849 21.2662C17.5029 21.2936 17.417 21.3076 17.3306 21.3077Z" fill="#1E58AC"/>
<path d="M44.5117 36.0839C44.5117 44.1882 37.2809 51.6015 28.3613 51.6015C19.4416 51.6015 12.2109 44.1882 12.2109 36.0839C12.2109 27.9796 19.5939 16.457 28.5136 16.457C37.4332 16.457 44.5117 27.9807 44.5117 36.0839Z" fill="url(#paint2_linear)"/>
<defs>
<linearGradient id="paint0_linear" x1="28.3127" y1="57.6367" x2="28.3127" y2="-6.51313" gradientUnits="userSpaceOnUse">
<stop offset="0.006" stop-color="#2875E5"/>
<stop offset="0.178" stop-color="#2979E5"/>
<stop offset="0.364" stop-color="#2F86E6"/>
<stop offset="0.557" stop-color="#389CE7"/>
<stop offset="0.755" stop-color="#45BAE9"/>
<stop offset="0.954" stop-color="#55E1EC"/>
<stop offset="0.986" stop-color="#58E8ED"/>
</linearGradient>
<linearGradient id="paint1_linear" x1="28.3082" y1="27.5337" x2="28.3082" y2="-4.53036" gradientUnits="userSpaceOnUse">
<stop offset="0.014" stop-color="#58E8ED" stop-opacity="0"/>
<stop offset="0.02" stop-color="#58E8ED" stop-opacity="0.012"/>
<stop offset="0.181" stop-color="#65E9EF" stop-opacity="0.267"/>
<stop offset="0.34" stop-color="#70EAF1" stop-opacity="0.49"/>
<stop offset="0.492" stop-color="#79ECF3" stop-opacity="0.675"/>
<stop offset="0.638" stop-color="#80ECF5" stop-opacity="0.816"/>
<stop offset="0.775" stop-color="#85EDF6" stop-opacity="0.918"/>
<stop offset="0.899" stop-color="#88EDF6" stop-opacity="0.98"/>
<stop offset="1" stop-color="#8AEEF7"/>
</linearGradient>
<linearGradient id="paint2_linear" x1="28.3613" y1="63.9372" x2="28.3613" y2="27.7384" gradientUnits="userSpaceOnUse">
<stop offset="0.056" stop-color="#8AEEF7"/>
<stop offset="0.128" stop-color="#87EAF6" stop-opacity="0.973"/>
<stop offset="0.233" stop-color="#7FE1F5" stop-opacity="0.894"/>
<stop offset="0.357" stop-color="#73D1F2" stop-opacity="0.769"/>
<stop offset="0.495" stop-color="#61BCEF" stop-opacity="0.592"/>
<stop offset="0.646" stop-color="#4BA1EB" stop-opacity="0.365"/>
<stop offset="0.805" stop-color="#3080E6" stop-opacity="0.09"/>
<stop offset="0.855" stop-color="#2875E5" stop-opacity="0"/>
</linearGradient>
</defs>
</svg>
