<svg id="Group_13944" data-name="Group 13944" xmlns="http://www.w3.org/2000/svg" xmlns:xlink="http://www.w3.org/1999/xlink" width="100%" height="100%" viewBox="0 0 213.393 204.472">
  <defs>
    <linearGradient id="linear-gradient-old-drop" x1="0.5" y1="1.1" x2="0.5" y2="-0.183" gradientUnits="objectBoundingBox">
      <stop offset="0.006" stop-color="#2875e5"/>
      <stop offset="0.178" stop-color="#2979e5"/>
      <stop offset="0.364" stop-color="#2f86e6"/>
      <stop offset="0.557" stop-color="#389ce7"/>
      <stop offset="0.755" stop-color="#45bae9"/>
      <stop offset="0.954" stop-color="#55e1ec"/>
      <stop offset="0.986" stop-color="#58e8ed"/>
    </linearGradient>
    <linearGradient id="linear-gradient-old-drop-2" x1="0.5" y1="0.752" x2="0.5" y2="-0.218" gradientUnits="objectBoundingBox">
      <stop offset="0.014" stop-color="#58e8ed" stop-opacity="0"/>
      <stop offset="0.02" stop-color="#58e8ed" stop-opacity="0.012"/>
      <stop offset="0.181" stop-color="#65e9ef" stop-opacity="0.267"/>
      <stop offset="0.34" stop-color="#70eaf1" stop-opacity="0.49"/>
      <stop offset="0.492" stop-color="#79ecf3" stop-opacity="0.675"/>
      <stop offset="0.638" stop-color="#80ecf5" stop-opacity="0.816"/>
      <stop offset="0.775" stop-color="#85edf6" stop-opacity="0.918"/>
      <stop offset="0.899" stop-color="#88edf6" stop-opacity="0.98"/>
      <stop offset="1" stop-color="#8aeef7"/>
    </linearGradient>
    <clipPath id="clip-path-old-drop">
      <path id="Path_20594" data-name="Path 20594" d="M102.963,607.9c3.637-3.309,13.05-3.643,17.738-4.466a173.1,173.1,0,0,1,47.884-1.67c5.783.606,18.74.34,22.315,5.956,4.422,6.958-4.614,20.627-8.968,25.823-8.708,10.378-21.264,15.567-34.611,15.567-15.846.006-32.446-4.867-40.32-20.021a52.685,52.685,0,0,1-5.356-15.982c-.278-1.8-.074-3.847,1.225-5.115Z" transform="translate(-101.537 -600.835)" fill="#1e58ac"/>
    </clipPath>
    <linearGradient id="linear-gradient-old-drop-3" x1="0.5" y1="1.351" x2="0.5" y2="0.321" gradientUnits="objectBoundingBox">
      <stop offset="0.056" stop-color="#8aeef7"/>
      <stop offset="0.128" stop-color="#87eaf6" stop-opacity="0.973"/>
      <stop offset="0.233" stop-color="#7fe1f5" stop-opacity="0.894"/>
      <stop offset="0.357" stop-color="#73d1f2" stop-opacity="0.769"/>
      <stop offset="0.495" stop-color="#61bcef" stop-opacity="0.592"/>
      <stop offset="0.646" stop-color="#4ba1eb" stop-opacity="0.365"/>
      <stop offset="0.805" stop-color="#3080e6" stop-opacity="0.09"/>
      <stop offset="0.855" stop-color="#2875e5" stop-opacity="0"/>
    </linearGradient>
    <clipPath id="clip-path-old-drop-2">
      <path id="Path_20602" data-name="Path 20602" d="M145.048,709.528c4.552-2.362,12.531-5.047,19.359-6.594q2.319-5.77,4.459-11.108c-7.342-1.132-9.933-1.6-11.956-1.076,3.47-1.812,4.991-2.035,13.966-3.9,2.95-7.317,5.7-14.04,8.294-20.287-6.593-.705-10.4-1.169-15.407-.755,4.645-1.818,9.933-1.979,16.644-2.208,2.264-5.387,4.422-10.409,6.531-15.159a91.528,91.528,0,0,0-18.19-1.923c5.573-1.9,13.409-1.391,19.322-.606,3.55-7.892,6.983-15.017,10.527-21.752-5.152-1.015-10.632-2.165-10.632-2.165l12.413-1.552c4.41-10.762,5.146-26.342,5.146-26.342A66,66,0,0,0,174.4,604.922c1.385,2.523,2.758,5.758,4.094,8.875a68.429,68.429,0,0,0-7.948-6.1q-1.16.91-2.313,1.9a83.824,83.824,0,0,0-10.3,11.244,28.774,28.774,0,0,1,6.674,12.092c-3.235-2.517-6.173-5.313-9.945-7.812a342.209,342.209,0,0,0-21.5,33.5,46.764,46.764,0,0,1,11.281,13.588c-3.6-3.105-6.977-7.28-12.7-11.071-5.208,9.32-9.741,18.326-12.877,25.631a114.286,114.286,0,0,1,11.059,18.672,85.987,85.987,0,0,0-12.481-15.227c-.359.9-.693,1.775-1,2.61,2.066,3.254,11.4,20.268,11.4,20.268L115,697.319l17.887,26.156S152.4,713.7,161.6,709.93l1.651-4.113C156.9,706.677,148.369,708.3,145.048,709.528Z" transform="translate(-115.001 -594.098)" fill="#f4e8b7"/>
    </clipPath>
  </defs>
  <g id="Group_11757" data-name="Group 11757" transform="translate(0 0)">
    <path id="Path_20590" data-name="Path 20590" d="M267.646,696.46c0,47.927-38.619,86.775-86.255,86.775S95.135,744.387,95.135,696.46,181.39,586.244,181.39,586.244,267.646,648.539,267.646,696.46Z" transform="translate(-95.135 -586.237)" fill="url(#linear-gradient-old-drop)"/>
    <path id="Path_20591" data-name="Path 20591" d="M181.39,620.866s70.088,50.63,83.9,95.713a87.258,87.258,0,0,0,2.356-20.12c0-47.921-86.255-110.216-86.255-110.216s-86.255,62.3-86.255,110.216a87.255,87.255,0,0,0,2.356,20.12C111.3,671.5,181.39,620.866,181.39,620.866Z" transform="translate(-95.135 -586.243)" fill="url(#linear-gradient-old-drop-2)"/>
    <g id="Group_11756" data-name="Group 11756" transform="translate(39.599 58.473)">
      <g id="Group_11755" data-name="Group 11755" transform="translate(0 31.778)">
        <path id="Path_20592" data-name="Path 20592" d="M102.963,607.9c3.637-3.309,13.05-3.643,17.738-4.466a173.1,173.1,0,0,1,47.884-1.67c5.783.606,18.74.34,22.315,5.956,4.422,6.958-4.614,20.627-8.968,25.823-8.708,10.378-21.264,15.567-34.611,15.567-15.846.006-32.446-4.867-40.32-20.021a52.685,52.685,0,0,1-5.356-15.982c-.278-1.8-.074-3.847,1.225-5.115Z" transform="translate(-101.537 -600.835)" fill="#1e58ac"/>
        <g id="Group_11754" data-name="Group 11754" clip-path="url(#clip-path-old-drop)">
          <path id="Path_20593" data-name="Path 20593" d="M180.538,611.292s-42.955-20.893-72.525,8.851,69.816,17.986,69.816,17.986Z" transform="translate(-96.45 -583.583)" fill="#8aeef7"/>
        </g>
      </g>
      <path id="Path_20595" data-name="Path 20595" d="M113.824,610.689a3.153,3.153,0,0,1-2.029-5.554c.087-.1.186-.223.309-.365,1.917-2.3,7.713-9.3,15.914-9.067,5.5.155,10.719,3.5,15.518,9.946a3.167,3.167,0,0,1-.631,4.416,3.126,3.126,0,0,1-4.385-.637c-3.594-4.831-7.187-7.329-10.675-7.422-5.164-.148-9.358,4.911-10.941,6.816a4.513,4.513,0,0,1-2.09,1.707A3.066,3.066,0,0,1,113.824,610.689Zm-1-6.135Zm.006-.006v0Z" transform="translate(-54.087 -595.697)" fill="#1e58ac"/>
      <path id="Path_20596" data-name="Path 20596" d="M104.749,610.689a3.153,3.153,0,0,1-2.029-5.554c.087-.1.186-.223.309-.365,1.917-2.3,7.713-9.3,15.914-9.067,5.5.155,10.719,3.5,15.518,9.946a3.173,3.173,0,0,1-.631,4.416,3.126,3.126,0,0,1-4.385-.637c-3.593-4.831-7.187-7.329-10.675-7.422-5.134-.148-9.358,4.911-10.941,6.816a4.513,4.513,0,0,1-2.091,1.707A3.066,3.066,0,0,1,104.749,610.689Zm-1-6.135Zm.006-.006v0Z" transform="translate(-101.14 -595.697)" fill="#1e58ac"/>
    </g>
    <path id="Path_20597" data-name="Path 20597" d="M225.479,672.414c0,31.952-28.339,61.182-63.3,61.182s-63.3-29.23-63.3-61.182,28.939-77.386,63.9-77.386S225.479,640.463,225.479,672.414Z" transform="translate(-75.691 -540.693)" fill="url(#linear-gradient-old-drop-3)"/>
  </g>
  <g id="Group_11758" data-name="Group 11758" transform="translate(122.87 48.583)">
    <path id="Path_20598" data-name="Path 20598" d="M145.048,709.528c4.552-2.362,12.531-5.047,19.359-6.594q2.319-5.77,4.459-11.108c-7.342-1.132-9.933-1.6-11.956-1.076,3.47-1.812,4.991-2.035,13.966-3.9,2.95-7.317,5.7-14.04,8.294-20.287-6.593-.705-10.4-1.169-15.407-.755,4.645-1.818,9.933-1.979,16.644-2.208,2.264-5.387,4.422-10.409,6.531-15.159a91.528,91.528,0,0,0-18.19-1.923c5.573-1.9,13.409-1.391,19.322-.606,3.55-7.892,6.983-15.017,10.527-21.752-5.152-1.015-10.632-2.165-10.632-2.165l12.413-1.552c4.41-10.762,5.146-26.342,5.146-26.342A66,66,0,0,0,174.4,604.922c1.385,2.523,2.758,5.758,4.094,8.875a68.429,68.429,0,0,0-7.948-6.1q-1.16.91-2.313,1.9a83.824,83.824,0,0,0-10.3,11.244,28.774,28.774,0,0,1,6.674,12.092c-3.235-2.517-6.173-5.313-9.945-7.812a342.209,342.209,0,0,0-21.5,33.5,46.764,46.764,0,0,1,11.281,13.588c-3.6-3.105-6.977-7.28-12.7-11.071-5.208,9.32-9.741,18.326-12.877,25.631a114.286,114.286,0,0,1,11.059,18.672,85.987,85.987,0,0,0-12.481-15.227c-.359.9-.693,1.775-1,2.61,2.066,3.254,11.4,20.268,11.4,20.268L115,697.319l17.887,26.156S152.4,713.7,161.6,709.93l1.651-4.113C156.9,706.677,148.369,708.3,145.048,709.528Z" transform="translate(-115.001 -594.098)" fill="#c3c3a7"/>
  </g>
  <g id="Group_11761" data-name="Group 11761" transform="translate(122.87 48.583)">
    <g id="Group_11760" data-name="Group 11760" clip-path="url(#clip-path-old-drop-2)">
      <g id="Group_11759" data-name="Group 11759" transform="translate(2.304 41.15)">
        <path id="Path_20599" data-name="Path 20599" d="M132.534,600.751l12.723,16.331h45.263l-4.867,15.148-48.4-2.459L117.895,602.2Z" transform="translate(-102.3 -600.751)" fill="#f4e8b7"/>
        <path id="Path_20600" data-name="Path 20600" d="M120.683,605.443l15.6,16.254,42.214-4.6-3.5,7.574-40.1,5.68-18.789-21.1Z" transform="translate(-111.542 -576.424)" fill="#f4e8b7"/>
        <path id="Path_20601" data-name="Path 20601" d="M116.987,606.89l19.359,19.746h34.685l-1.613,3.517H135.271l-19.9-21.639Z" transform="translate(-115.374 -568.92)" fill="#f4e8b7"/>
      </g>
    </g>
  </g>
  <path id="Path_20603" data-name="Path 20603" d="M176.5,597.5a1.012,1.012,0,0,0-1.237.13c-25.049,26.737-46,75.9-53.6,111.267-.65,3.037-4.719,21.394-5.164,24.2,1.546.148,4.75-1.485,5.14-3.464.2-1.6,3.958-18.642,4.231-20.3,5.771-34.939,25.909-83.089,50.8-110.847A.629.629,0,0,0,176.5,597.5Z" transform="translate(15.626 -528.641)" fill="#af9e71"/>
</svg>
