<svg width="100%" height="100%" viewBox="0 0 23 17" fill="none" xmlns="http://www.w3.org/2000/svg">
<path className='no-stroke' d="M10.125 16.75C10.125 16.75 8.75 16.75 8.75 15.375C8.75 14 10.125 9.875 15.625 9.875C21.125 9.875 22.5 14 22.5 15.375C22.5 16.75 21.125 16.75 21.125 16.75H10.125ZM15.625 8.5C16.719 8.5 17.7682 8.0654 18.5418 7.29182C19.3154 6.51823 19.75 5.46902 19.75 4.375C19.75 3.28098 19.3154 2.23177 18.5418 1.45818C17.7682 0.684597 16.719 0.25 15.625 0.25C14.531 0.25 13.4818 0.684597 12.7082 1.45818C11.9346 2.23177 11.5 3.28098 11.5 4.375C11.5 5.46902 11.9346 6.51823 12.7082 7.29182C13.4818 8.0654 14.531 8.5 15.625 8.5Z" fill="#A8A7A7"/>
<path className='no-stroke' fill-rule="evenodd" clip-rule="evenodd" d="M7.672 16.7496C7.46816 16.3204 7.36651 15.8497 7.375 15.3746C7.375 13.5115 8.31 11.5934 10.037 10.2596C9.175 9.99401 8.27693 9.86412 7.375 9.87461C1.875 9.87461 0.5 13.9996 0.5 15.3746C0.5 16.7496 1.875 16.7496 1.875 16.7496H7.672Z" fill="#A8A7A7"/>
<path className='no-stroke' d="M6.6875 8.5C7.59918 8.5 8.47352 8.13784 9.11818 7.49318C9.76284 6.84852 10.125 5.97418 10.125 5.0625C10.125 4.15082 9.76284 3.27648 9.11818 2.63182C8.47352 1.98716 7.59918 1.625 6.6875 1.625C5.77582 1.625 4.90148 1.98716 4.25682 2.63182C3.61216 3.27648 3.25 4.15082 3.25 5.0625C3.25 5.97418 3.61216 6.84852 4.25682 7.49318C4.90148 8.13784 5.77582 8.5 6.6875 8.5Z" fill="#A8A7A7"/>
</svg>
