<svg width="30" height="19" viewBox="0 0 30 19" fill="none" xmlns="http://www.w3.org/2000/svg">
<path d="M28.9317 8.28571L28.9317 8.28571L22.3277 3.05278C22.3277 3.05277 22.3277 3.05276 22.3277 3.05274C22.0959 2.86888 21.7931 2.77707 21.4937 2.77057C21.1942 2.76408 20.8858 2.84269 20.6415 3.01512L20.6414 3.01515C20.3961 3.18843 20.2553 3.42977 20.2454 3.68642C20.2354 3.9436 20.3578 4.19256 20.5915 4.3777C20.5915 4.3777 20.5915 4.37771 20.5915 4.37771L26.3596 8.94792L20.5915 13.5187C20.3578 13.7038 20.2354 13.9527 20.2454 14.2099C20.2553 14.4665 20.3961 14.7078 20.6414 14.8812L20.6415 14.8813C20.8766 15.0471 21.1713 15.126 21.4595 15.126C21.7702 15.126 22.0875 15.0342 22.3276 14.8442L22.3277 14.8441L28.9317 9.61091L28.9318 9.61087C29.1557 9.43324 29.2783 9.19606 29.2783 8.94821C29.2783 8.70035 29.1557 8.46322 28.9317 8.28571Z" fill="#00ADE6" stroke="#00ADE6" stroke-width="0.287719"/>
<path d="M9.12037 13.5185L9.12039 13.5185C9.35392 13.7036 9.4764 13.9525 9.46649 14.2097C9.45661 14.4664 9.31578 14.7078 9.07003 14.8811C8.83533 15.0469 8.54061 15.1261 8.25249 15.1261C7.9418 15.1261 7.62477 15.0346 7.38423 14.844L7.38422 14.844L0.779881 9.61077L0.779867 9.61076C0.555868 9.43322 0.433289 9.19601 0.433289 8.94813C0.433289 8.70025 0.55587 8.46305 0.779874 8.28553L0.77988 8.28552L7.38386 3.05257C7.38387 3.05256 7.38388 3.05256 7.38388 3.05255C7.61569 2.86879 7.91866 2.77706 8.21807 2.77058C8.51757 2.76408 8.82603 2.84259 9.07007 3.01493L9.12037 13.5185ZM9.12037 13.5185L3.35263 8.94798M9.12037 13.5185L3.35263 8.94798M3.35263 8.94798L9.12037 4.3775L9.12039 4.37749C9.35396 4.19236 9.47631 3.94339 9.46635 3.68622C9.4564 3.42957 9.31563 3.18822 9.07012 3.01496L3.35263 8.94798Z" fill="#00ADE6" stroke="#00ADE6" stroke-width="0.287719"/>
<path d="M16.605 0.325205L16.6048 0.325191L15.3681 1.13907L15.2272 1.11028L15.2272 1.11029L12.0858 16.4888L12.0858 16.4888C12.03 16.7625 12.1303 17.0208 12.32 17.2138C12.5085 17.4057 12.7871 17.5368 13.1075 17.5734L13.1079 17.5734C13.1682 17.5801 13.2277 17.5834 13.287 17.5834C13.8443 17.5834 14.3852 17.2779 14.4853 16.7883L14.4853 16.7883L17.6267 1.40978L17.6267 1.40975C17.6825 1.13608 17.5822 0.877728 17.3925 0.684751C17.204 0.492889 16.9254 0.36178 16.605 0.325205Z" fill="#00ADE6" stroke="#00ADE6" stroke-width="0.287719"/>
</svg>
