<svg width="14" height="14" viewBox="0 0 14 14" fill="none" xmlns="http://www.w3.org/2000/svg">
<path d="M7.00002 12.8327C3.77827 12.8327 1.16669 10.2211 1.16669 6.99935C1.16669 3.7776 3.77827 1.16602 7.00002 1.16602C10.2218 1.16602 12.8334 3.7776 12.8334 6.99935C12.8334 10.2211 10.2218 12.8327 7.00002 12.8327ZM7.00002 11.666C8.2377 11.666 9.42468 11.1744 10.2999 10.2992C11.175 9.42401 11.6667 8.23703 11.6667 6.99935C11.6667 5.76167 11.175 4.57469 10.2999 3.69952C9.42468 2.82435 8.2377 2.33268 7.00002 2.33268C5.76234 2.33268 4.57536 2.82435 3.70019 3.69952C2.82502 4.57469 2.33335 5.76167 2.33335 6.99935C2.33335 8.23703 2.82502 9.42401 3.70019 10.2992C4.57536 11.1744 5.76234 11.666 7.00002 11.666ZM6.41669 4.08268H7.58335V5.24935H6.41669V4.08268ZM6.41669 6.41602H7.58335V9.91602H6.41669V6.41602Z" fill="#BDBDBD"/>
</svg>
