<svg xmlns="http://www.w3.org/2000/svg" viewBox="0 0 128 128" width="25" height="25">
<path fill="#fff" d="M25.108 25.11a55 55 0 1077.783 77.78 55 55 0 10-77.783-77.78z"/>
<path fill="#ffffff" d="M64 122c-15.5 0-30.1-6-41-17C12 94.1 6 79.5 6 64s6-30.1 17-41C34 12 48.5 6 64 6s30.1 6 41 17c11 11 17 25.5 17 41s-6 30.1-17 41c-10.9 11-25.5 17-41 17zm0-110c-13.9 0-26.9 5.4-36.8 15.2S12 50.1 12 64s5.4 26.9 15.2 36.8S50.1 116 64 116s26.9-5.4 36.8-15.2S116 77.9 116 64s-5.4-26.9-15.2-36.8C90.9 17.4 77.9 12 64 12z"/>
<path fill="#00ade6" d="M68.2 64l11.3-11.3c1.2-1.2 1.2-3.1 0-4.2-1.2-1.2-3.1-1.2-4.2 0L64 59.8 52.7 48.4c-1.2-1.2-3.1-1.2-4.2 0-1.2 1.2-1.2 3.1 0 4.2L59.8 64 48.4 75.3c-1.2 1.2-1.2 3.1 0 4.2.6.6 1.4.9 2.1.9s1.5-.3 2.1-.9L64 68.2l11.3 11.3c.6.6 1.4.9 2.1.9s1.5-.3 2.1-.9c1.2-1.2 1.2-3.1 0-4.2L68.2 64z"/>
</svg>
