<svg width="34" height="34" viewBox="0 0 34 34" fill="none" xmlns="http://www.w3.org/2000/svg">
<path d="M9.48777 9.48362L7.23394 7.22979M17.001 3.18433V6.37183V3.18433ZM17.001 27.6218V30.8093V27.6218ZM26.768 7.22979L24.5142 9.48362L26.768 7.22979ZM9.48777 24.51L7.23394 26.7639L9.48777 24.51ZM30.8135 16.9968H27.626H30.8135ZM6.37598 16.9968H3.18848H6.37598ZM26.768 26.7639L24.5142 24.51L26.768 26.7639Z" stroke="#F46D4F" stroke-width="1.97321" stroke-miterlimit="10" stroke-linecap="round"/>
<path d="M17 22.3049C19.934 22.3049 22.3125 19.9264 22.3125 16.9924C22.3125 14.0584 19.934 11.6799 17 11.6799C14.066 11.6799 11.6875 14.0584 11.6875 16.9924C11.6875 19.9264 14.066 22.3049 17 22.3049Z" stroke="#F46D4F" stroke-width="1.97321" stroke-miterlimit="10" stroke-linecap="round"/>
</svg>
