<svg width="34" height="34" viewBox="0 0 34 34" fill="none" xmlns="http://www.w3.org/2000/svg">
<path d="M6.01707 20.3772C6.23902 20.3428 6.44445 20.2392 6.6041 20.0813C6.76376 19.9233 6.86949 19.7189 6.90625 19.4974C7.7091 14.6212 11.2645 11.688 15.4062 11.688C19.2532 11.688 21.8224 14.1948 22.857 16.8504C22.9235 17.0206 23.0332 17.1706 23.1752 17.2855C23.3173 17.4004 23.4868 17.4764 23.6672 17.5058C26.9875 18.0471 29.75 20.2644 29.75 24.1192C29.75 28.0638 26.5227 30.813 22.5781 30.813H7.03906C3.75195 30.813 1.0625 29.1728 1.0625 25.5536C1.0625 22.3349 3.63043 20.7578 6.01707 20.3772V20.3772Z" stroke="#F6B554" stroke-width="1.97321" stroke-linejoin="round"/>
<path d="M29.8213 6.30296L28.3186 7.80573M25.5488 18.0263C26.1983 17.5254 26.723 16.8809 27.0817 16.1432C27.4405 15.4056 27.6236 14.5949 27.6167 13.7747C27.6097 12.9545 27.413 12.147 27.0418 11.4156C26.6706 10.6841 26.1351 10.0485 25.4772 9.55865C24.8193 9.06876 24.0569 8.73786 23.2498 8.59189C22.4426 8.44592 21.6126 8.48883 20.8248 8.71726C20.0371 8.9457 19.3129 9.35345 18.709 9.90858C18.1051 10.4637 17.638 11.1511 17.3443 11.9169L25.5488 18.0263ZM30.8081 13.8162H32.9331H30.8081ZM22.3081 3.19116V5.31616V3.19116ZM14.7949 6.30296L16.2977 7.80573L14.7949 6.30296Z" stroke="#F6B554" stroke-width="1.97321" stroke-linecap="round" stroke-linejoin="round"/>
</svg>
