<svg width="84" height="25" viewBox="0 0 84 25" fill="none" xmlns="http://www.w3.org/2000/svg">
<path fill-rule="evenodd" clip-rule="evenodd" d="M51.5676 19.4848C46.7373 23.0261 39.736 24.9156 33.7081 24.9156C25.256 24.9156 17.6469 21.8061 11.8903 16.6344C11.438 16.2278 11.8432 15.6735 12.386 15.9902C18.5984 19.5856 26.2799 21.7485 34.2147 21.7485C39.566 21.7485 45.4528 20.6473 50.8657 18.3619C51.6834 18.0164 52.3672 18.8946 51.5676 19.4848Z" fill="#FF9900"/>
<path fill-rule="evenodd" clip-rule="evenodd" d="M53.5757 17.2004C52.9606 16.4158 49.4943 16.8297 47.9385 17.0132C47.4645 17.0708 47.3921 16.6605 47.8191 16.3654C50.5798 14.4328 55.1098 14.9906 55.638 15.6384C56.1663 16.2898 55.5005 20.8065 52.9063 22.9622C52.5083 23.2933 52.1284 23.117 52.3057 22.6779C52.8882 21.2312 54.1944 17.9885 53.5757 17.2004Z" fill="#FF9900"/>
<path fill-rule="evenodd" clip-rule="evenodd" d="M48.0496 2.72186V0.843223C48.0496 0.558907 48.2667 0.368164 48.5272 0.368164H56.9829C57.2543 0.368164 57.4714 0.562507 57.4714 0.843223V2.45194C57.4678 2.72186 57.2398 3.07456 56.8346 3.63239L52.4529 9.85495C54.0811 9.81536 55.7998 10.0565 57.276 10.8842C57.6089 11.0714 57.6994 11.3449 57.7247 11.6148V13.6194C57.7247 13.8929 57.4207 14.2133 57.1023 14.0477C54.5009 12.6909 51.0455 12.5433 48.169 14.0621C47.8759 14.2205 47.5684 13.9037 47.5684 13.6302V11.7264C47.5684 11.4205 47.572 10.8986 47.8795 10.4344L52.9559 3.19332H48.538C48.2667 3.19332 48.0496 3.00258 48.0496 2.72186Z" fill="black"/>
<path fill-rule="evenodd" clip-rule="evenodd" d="M17.2039 14.4445H14.6314C14.3854 14.4265 14.19 14.2429 14.1719 14.009V0.87651C14.1719 0.613788 14.3926 0.405048 14.6676 0.405048H17.0664C17.3161 0.415838 17.5151 0.606588 17.5332 0.844117V2.56081H17.5802C18.2062 0.9017 19.3821 0.12793 20.9669 0.12793C22.577 0.12793 23.5828 0.9017 24.3065 2.56081C24.9288 0.9017 26.3435 0.12793 27.8596 0.12793C28.9378 0.12793 30.1173 0.570598 30.8374 1.5639C31.6515 2.66877 31.485 4.2739 31.485 5.68108L31.4814 13.9694C31.4814 14.2321 31.2607 14.4445 30.9857 14.4445H28.4168C28.1599 14.4265 27.9536 14.2213 27.9536 13.9694V7.00909C27.9536 6.45485 28.0043 5.07286 27.8813 4.54742C27.6895 3.66568 27.1142 3.41735 26.3689 3.41735C25.7465 3.41735 25.0953 3.83123 24.8311 4.49343C24.567 5.15564 24.5923 6.2641 24.5923 7.00909V13.9694C24.5923 14.2321 24.3716 14.4445 24.0966 14.4445H21.5277C21.2672 14.4265 21.0646 14.2213 21.0646 13.9694L21.061 7.00909C21.061 5.54432 21.3034 3.38856 19.4762 3.38856C17.6273 3.38856 17.6996 5.49033 17.6996 7.00909V13.9694C17.6996 14.2321 17.4789 14.4445 17.2039 14.4445" fill="black"/>
<path fill-rule="evenodd" clip-rule="evenodd" d="M64.7481 0.12793C68.5653 0.12793 70.6313 3.38856 70.6313 7.53453C70.6313 11.5401 68.3482 14.718 64.7481 14.718C60.9997 14.718 58.959 11.4574 58.959 7.39417C58.959 3.30579 61.025 0.12793 64.7481 0.12793ZM64.7698 2.80914C62.8739 2.80914 62.7545 5.37877 62.7545 6.9803C62.7545 8.58542 62.7292 12.0116 64.7481 12.0116C66.7418 12.0116 66.8358 9.24762 66.8358 7.56332C66.8358 6.45485 66.7888 5.13045 66.4523 4.07956C66.1628 3.16543 65.5875 2.80914 64.7698 2.80914Z" fill="black"/>
<path fill-rule="evenodd" clip-rule="evenodd" d="M75.5851 14.4445H73.0234C72.7665 14.4265 72.5603 14.2213 72.5603 13.9694L72.5566 0.83332C72.5784 0.592192 72.7918 0.405048 73.0523 0.405048H75.4367C75.6611 0.415838 75.8456 0.567 75.8962 0.772139V2.78034H75.9433C76.6633 0.984476 77.6728 0.12793 79.4493 0.12793C80.6035 0.12793 81.7288 0.541807 82.4524 1.67547C83.1254 2.72636 83.1254 4.49343 83.1254 5.76385V14.0306C83.0965 14.2609 82.883 14.4445 82.6297 14.4445H80.05C79.8148 14.4265 79.6194 14.2537 79.5941 14.0306V6.89752C79.5941 5.46155 79.7605 3.35977 77.984 3.35977C77.358 3.35977 76.7827 3.77725 76.4969 4.41066C76.135 5.21322 76.088 6.01218 76.088 6.89752V13.9694C76.0844 14.2321 75.8601 14.4445 75.5851 14.4445" fill="black"/>
<path fill-rule="evenodd" clip-rule="evenodd" d="M41.3067 8.17055C41.3067 9.16745 41.332 9.99881 40.8255 10.8841C40.4166 11.6039 39.7654 12.0466 39.0453 12.0466C38.0576 12.0466 37.4786 11.298 37.4786 10.1931C37.4786 8.0122 39.4433 7.61632 41.3067 7.61632V8.17055ZM43.901 14.4075C43.7309 14.5587 43.4849 14.5694 43.2931 14.4687C42.4392 13.7633 42.2836 13.4358 41.8169 12.7628C40.4058 14.1952 39.4035 14.6234 37.5763 14.6234C35.409 14.6234 33.7266 13.2954 33.7266 10.6358C33.7266 8.55924 34.8554 7.14486 36.4692 6.45386C37.8658 5.84204 39.816 5.73408 41.3067 5.56493V5.23382C41.3067 4.6256 41.3537 3.90582 40.9919 3.38037C40.6808 2.90891 40.0801 2.71457 39.5483 2.71457C38.5677 2.71457 37.6957 3.21482 37.4823 4.25131C37.4388 4.48165 37.2688 4.70838 37.0336 4.71918L34.5407 4.45285C34.3308 4.40607 34.0956 4.23692 34.1571 3.91662C34.7288 0.90791 37.4642 0.000976562 39.9101 0.000976562C41.162 0.000976562 42.7974 0.332079 43.7852 1.275C45.0371 2.43745 44.9177 3.98859 44.9177 5.67649V9.66411C44.9177 10.8626 45.417 11.388 45.8874 12.0358C46.0502 12.2661 46.0864 12.5433 45.8765 12.716C45.3519 13.1515 44.4184 13.9612 43.9046 14.4147L43.901 14.4075" fill="black"/>
<path fill-rule="evenodd" clip-rule="evenodd" d="M7.58015 8.16957C7.58015 9.16648 7.60548 9.99783 7.09893 10.8832C6.69007 11.603 6.04241 12.0456 5.31877 12.0456C4.331 12.0456 3.7557 11.297 3.7557 10.1922C3.7557 8.01122 5.72039 7.61534 7.58015 7.61534V8.16957ZM10.1744 14.4065C10.0044 14.5577 9.75831 14.5685 9.56655 14.4677C8.71265 13.7623 8.56069 13.4348 8.09032 12.7618C6.67922 14.1942 5.68059 14.6225 3.84978 14.6225C1.68608 14.6225 0 13.2945 0 10.6348C0 8.55826 1.1325 7.14388 2.7426 6.45288C4.13923 5.84106 6.08945 5.7331 7.58015 5.56395V5.23285C7.58015 4.62463 7.62719 3.90484 7.26899 3.3794C6.9542 2.90794 6.35358 2.71359 5.82532 2.71359C4.84479 2.71359 3.96918 3.21385 3.7557 4.25034C3.71228 4.48067 3.54223 4.7074 3.31066 4.7182L0.814098 4.45188C0.604241 4.40509 0.372675 4.23594 0.430567 3.91564C1.00586 0.906933 3.73761 0 6.18352 0C7.43542 0 9.07085 0.331102 10.0586 1.27402C11.3105 2.43648 11.1911 3.98762 11.1911 5.67552V9.66313C11.1911 10.8616 11.6904 11.387 12.1608 12.0348C12.3272 12.2652 12.3634 12.5423 12.1536 12.715C11.6289 13.1505 10.6954 13.9603 10.1816 14.4137L10.1744 14.4065" fill="black"/>
</svg>
