<svg width="31" height="31" viewBox="0 0 31 31" fill="none" xmlns="http://www.w3.org/2000/svg">
<path d="M7.18251 15.3224C7.18251 13.8041 7.60083 12.3818 8.32758 11.1639V5.99805H3.16168C1.11137 8.66084 0 11.9061 0 15.3224C0 18.7388 1.11137 21.984 3.16168 24.6468H8.32758V19.4809C7.60083 18.2631 7.18251 16.8408 7.18251 15.3224Z" fill="#FBBD00"/>
<path d="M15.3217 23.4618L11.7305 27.0531L15.3217 30.6443C18.7381 30.6443 21.9833 29.533 24.6461 27.4827V22.3223H19.4857C18.2572 23.0516 16.8289 23.4618 15.3217 23.4618Z" fill="#0F9D58"/>
<path d="M8.32996 19.4814L3.16406 24.6473C3.56999 25.1745 4.01202 25.6794 4.49031 26.1578C7.38439 29.0518 11.2322 30.6456 15.3251 30.6456V23.4631C12.3549 23.4631 9.75162 21.8638 8.32996 19.4814Z" fill="#31AA52"/>
<path d="M30.643 15.3235C30.643 14.3913 30.5586 13.4573 30.3921 12.5477L30.2574 11.8115H15.3203V18.994H22.5897C21.8838 20.3983 20.7984 21.5439 19.4843 22.3242L24.6446 27.4846C25.1718 27.0787 25.6767 26.6366 26.1551 26.1583C29.0491 23.2642 30.643 19.4164 30.643 15.3235Z" fill="#3C79E6"/>
<path d="M21.0777 9.56669L21.7125 10.2015L26.7914 5.12275L26.1565 4.48793C23.2625 1.59386 19.4146 0 15.3217 0L11.7305 3.59126L15.3217 7.18251C17.496 7.18251 19.5402 8.02921 21.0777 9.56669Z" fill="#CF2D48"/>
<path d="M15.3251 7.18251V0C11.2323 0 7.38445 1.59386 4.49031 4.48787C4.01202 4.96617 3.56999 5.47104 3.16406 5.99829L8.32996 11.1642C9.75168 8.78182 12.3549 7.18251 15.3251 7.18251Z" fill="#EB4132"/>
</svg>
