<svg width="170" height="43" viewBox="0 0 170 43" fill="none" xmlns="http://www.w3.org/2000/svg">
<path d="M0 0V13.5534C0.652055 24.9178 5.49589 32.1836 9.4548 36.2822C13.7397 40.7069 17.9315 42.5233 17.9781 42.5233L18.0247 42.5699L18.0712 42.5233C34 32.4164 35.7233 18.9096 35.7233 13.5534V0H0ZM160.918 5.03014C159.241 5.03014 157.099 5.21644 156.307 5.21644C155.841 5.21644 154.118 5.16986 153.559 5.16986V5.58904C154.49 5.77534 155.003 6.10137 155.003 6.93972V19.2356C155.003 20.1205 154.49 20.4932 153.512 20.6329V21.0521C154.025 21.0521 155.655 21.0055 156.121 21.0055C156.912 21.0055 158.915 21.1452 160.592 21.1452C166.414 21.1452 170 17.6986 170 13.0411C170 8.15068 166.553 5.03014 160.918 5.03014ZM73.9616 5.03014C73.9616 5.03014 73.7288 6.05479 73.4959 6.56712L68.4192 18.8164C68.0466 19.7014 67.4877 20.3534 66.5096 20.5863V21.0055L68.7918 20.9589C69.1178 20.9589 70.5151 21.0055 71.0274 21.0055V20.5863C70.1425 20.3534 69.9096 19.9808 69.9096 19.5616C69.9096 19.2822 70.0493 18.863 70.189 18.537L71.2603 15.8822H77.1753L78.3397 18.537C78.526 18.9096 78.6192 19.2822 78.6192 19.6082C78.6192 19.9808 78.3863 20.4 77.5945 20.5863V21.0055C78.2 21.0055 79.9233 20.9589 80.2959 20.9589C80.7151 20.9589 82.5315 21.0055 83.0904 21.0055V20.5863C82.0192 20.3068 81.6 19.7014 81.2274 18.863L75.8247 6.56712C75.5918 6.05479 75.3589 5.03014 75.3589 5.03014H73.9616ZM124.403 5.03014C124.403 5.03014 124.17 6.05479 123.937 6.56712L118.86 18.8164C118.488 19.7014 117.929 20.3534 116.951 20.5863V21.0055L119.233 20.9589C119.559 20.9589 120.956 21.0055 121.468 21.0055V20.5863C120.584 20.3534 120.351 19.9808 120.351 19.5616C120.351 19.2822 120.49 18.863 120.63 18.537L121.701 15.8822H127.616L128.781 18.537C128.921 18.9096 129.06 19.2822 129.06 19.6082C129.06 19.9808 128.827 20.4 128.036 20.5863V21.0055C128.641 21.0055 130.364 20.9589 130.737 20.9589C131.156 20.9589 132.973 21.0055 133.532 21.0055V20.5863C132.46 20.3068 132.041 19.7014 131.669 18.863L126.266 6.56712C126.079 6.05479 125.8 5.03014 125.8 5.03014H124.403ZM92.126 5.03014C91.2411 5.03014 89.0521 5.16986 88.2603 5.16986C87.7945 5.16986 86.1178 5.12329 85.5589 5.12329V5.54246C86.537 5.72876 86.9562 6.19452 86.9562 6.93972V19.1425C86.9562 19.9808 86.4438 20.4466 85.5589 20.5863V21.0055C86.0712 21.0055 87.7945 20.9589 88.2137 20.9589C88.726 20.9589 90.4493 21.0055 90.9616 21.0055V20.5863C90.0301 20.4 89.4712 19.9342 89.4712 19.1425V13.6931C89.7507 13.7397 89.9836 13.7397 90.2164 13.7863C91.4274 13.9726 92.126 14.5315 92.6384 15.2301C93.5233 16.3479 95.0137 18.5836 95.8986 19.6082C96.9233 20.8192 97.9479 21.2849 99.2055 21.2849C99.811 21.2849 100.603 21.1918 101.068 21.0986V20.726C100.044 20.6795 99.0658 19.6548 98.3206 18.7699C97.5753 17.8384 95.7123 15.2301 95.0603 14.4384C94.5014 13.7863 93.9425 13.4603 93.9425 13.4603C96.3644 12.8548 97.9479 11.4575 97.9479 9.31507C98.0411 6.6137 95.8986 5.03014 92.126 5.03014ZM142.241 5.03014C141.356 5.03014 139.167 5.16986 138.375 5.16986C137.91 5.16986 136.233 5.12329 135.674 5.12329V5.54246C136.652 5.72876 137.071 6.19452 137.071 6.93972V19.1425C137.071 19.9808 136.559 20.4466 135.674 20.5863V21.0055C136.186 21.0055 137.91 20.9589 138.329 20.9589C138.841 20.9589 140.564 21.0055 141.077 21.0055V20.5863C140.145 20.4 139.586 19.9342 139.586 19.1425V13.6931C139.866 13.7397 140.099 13.7397 140.331 13.7863C141.542 13.9726 142.195 14.5315 142.753 15.2301C143.638 16.3479 145.129 18.5836 146.014 19.6082C146.992 20.8192 148.063 21.2849 149.367 21.2849C149.973 21.2849 150.764 21.1918 151.23 21.0986V20.726C150.205 20.6795 149.227 19.6548 148.482 18.7699C147.737 17.8384 145.874 15.2301 145.222 14.4384C144.663 13.7863 144.104 13.4603 144.104 13.4603C146.526 12.8548 148.11 11.4575 148.11 9.31507C148.156 6.6137 146.06 5.03014 142.241 5.03014ZM47.1808 5.12329V5.54246C47.9726 5.72876 48.4384 6.10137 48.4384 6.89315V19.2356C48.4384 20.074 47.926 20.4 47.1808 20.5863V21.0055C47.5534 21.0055 49.2767 20.9589 49.6493 20.9589C50.1151 20.9589 51.8849 21.0055 52.2575 21.0055V20.5863C51.4658 20.4 50.9534 20.074 50.9534 19.2356V13.4137H60.1288V19.2356C60.1288 20.074 59.6164 20.4 58.8712 20.5863V21.0055C59.2438 21.0055 61.0137 20.9589 61.4795 20.9589C61.8986 20.9589 63.6219 21.0055 63.9945 21.0055V20.5863C63.2027 20.4 62.6904 20.0274 62.6904 19.2356V6.89315C62.6904 6.0548 63.2493 5.72876 63.9945 5.54246V5.12329C63.6219 5.12329 61.8986 5.16986 61.4795 5.16986C61.0137 5.16986 59.2904 5.12329 58.8712 5.12329V5.54246C59.663 5.72876 60.1288 6.0548 60.1288 6.89315V12.063H51V6.89315C51 6.0548 51.5589 5.72876 52.3041 5.54246V5.12329C51.9315 5.12329 50.1616 5.16986 49.6959 5.16986C49.2767 5.16986 47.6 5.12329 47.1808 5.12329ZM100.603 5.12329V5.58904C101.488 5.77534 102.047 6.33425 102.373 7.12603L108.66 21.0986H109.964L115.647 7.63835C116.205 6.38082 116.764 5.82191 117.742 5.54246V5.12329C117.184 5.12329 115.693 5.16986 115.321 5.16986C114.901 5.16986 113.69 5.12329 113.178 5.12329V5.54246C113.83 5.68219 114.296 6.00822 114.296 6.52055C114.296 6.9863 114.063 7.54521 113.784 8.29041L109.918 17.6521L105.819 8.33698C105.4 7.3589 105.167 6.84657 105.167 6.47397C105.167 5.96164 105.773 5.63561 106.285 5.54246V5.12329C105.726 5.12329 103.91 5.16986 103.49 5.16986C103.071 5.21643 101.162 5.16986 100.603 5.12329ZM160.219 6.05479C164.644 6.05479 167.252 8.94246 167.252 13.0877C167.252 17.0931 164.784 19.9342 160.033 19.9342C159.195 19.9342 158.123 19.8877 157.564 19.7479V6.19452C158.17 6.14795 159.288 6.05479 160.219 6.05479ZM91.3808 6.05479C93.9891 6.05479 95.4329 7.3589 95.4329 9.54795C95.4329 11.0384 94.5014 12.7616 91.5206 12.7616C90.7753 12.7616 90.0301 12.7151 89.5178 12.6685V6.24109C90.0301 6.14794 90.8219 6.05479 91.3808 6.05479ZM141.496 6.05479C144.104 6.05479 145.548 7.3589 145.548 9.54795C145.548 11.0384 144.616 12.7616 141.636 12.7616C140.89 12.7616 140.145 12.7151 139.633 12.6685V6.24109C140.192 6.14794 140.937 6.05479 141.496 6.05479ZM74.0548 8.75617L76.5699 14.6712H71.6795L74.0548 8.75617ZM124.496 8.75617L127.011 14.6712H122.121L124.496 8.75617ZM124.542 28.3178C122.819 28.3178 121.748 29.2027 121.748 30.6C121.748 32.0904 123.332 32.789 124.123 33.1616C125.195 33.7205 126.079 34.1397 126.079 35.0712C126.079 35.9562 125.381 36.4685 124.263 36.4685C123.751 36.4685 123.145 36.3288 122.773 36.0493C122.4 35.8164 122.121 35.3507 121.981 34.8849H121.748L121.795 36.6548C122.4 36.7479 123.099 37.074 124.31 37.074C126.266 37.074 127.384 36.0959 127.384 34.6986C127.384 33.2548 126.126 32.6027 124.962 32.0904C123.937 31.6247 123.005 31.1589 123.005 30.2274C123.005 29.5753 123.425 28.9233 124.542 28.9233C125.567 28.9233 126.452 29.2959 126.778 30.274H127.011V28.5507C126.219 28.5973 125.66 28.3178 124.542 28.3178ZM109.732 28.3644C109.592 28.4575 109.266 28.4575 109.126 28.4575H103.91V28.6904C104.422 28.7836 104.655 29.0164 104.655 29.4356V35.863C104.655 36.3288 104.375 36.5616 103.91 36.6548V36.8877C104.189 36.8877 105.121 36.8411 105.353 36.8411H107.962C108.893 36.8411 109.359 36.8411 110.151 36.9342L110.384 35.211L110.151 35.1644C109.871 35.8164 109.592 36.2356 108.474 36.2356H106.005V32.789H107.775C108.008 32.789 108.334 32.8356 108.474 32.8356C108.847 32.9288 108.986 33.1616 109.126 33.5342H109.359C109.359 33.2548 109.359 32.6493 109.359 32.463C109.359 32.2767 109.359 31.7178 109.359 31.4383H109.126C109.033 31.7644 108.893 31.9973 108.474 32.0904C108.334 32.137 108.055 32.137 107.775 32.137H106.005V29.2027H108.288C109.312 29.2027 109.499 29.6219 109.685 30.1808H109.918L109.964 28.5041L109.732 28.3644ZM133.532 28.411V30.1342H133.764C133.997 29.389 134.416 29.2027 134.975 29.2027H136.792V35.863C136.792 36.3288 136.559 36.5151 136.047 36.6548V36.8877C136.326 36.8877 137.304 36.8411 137.49 36.8411C137.77 36.8411 138.655 36.8877 138.934 36.8877V36.6548C138.422 36.5616 138.189 36.3288 138.189 35.863V29.2027H139.959C140.518 29.2027 140.937 29.389 141.17 30.1342H141.403V28.411C140.797 28.4575 140.378 28.5041 137.49 28.5041C134.556 28.5041 134.09 28.4575 133.532 28.411ZM115.926 28.411C115.46 28.411 114.296 28.4575 113.877 28.4575C113.644 28.4575 112.759 28.411 112.479 28.411V28.6438C112.992 28.737 113.225 28.9699 113.225 29.389V35.8164C113.225 36.2822 112.945 36.5151 112.479 36.6082V36.8411C112.759 36.8411 113.644 36.7945 113.877 36.7945C114.156 36.7945 115.041 36.8411 115.321 36.8411V36.6548C114.808 36.5616 114.529 36.3288 114.529 35.863V32.9753C114.668 32.9753 114.808 33.0219 114.901 33.0219C115.553 33.1151 115.879 33.4411 116.205 33.7671C116.671 34.3726 117.416 35.4904 117.882 36.0493C118.395 36.7014 118.953 36.9342 119.652 36.9342C119.978 36.9342 120.397 36.8877 120.63 36.8411V36.6548C120.071 36.6082 119.559 36.0959 119.186 35.6301C118.767 35.1644 117.836 33.7671 117.463 33.3479C117.184 33.0219 116.858 32.8356 116.858 32.8356C118.162 32.5096 118.953 31.7644 118.953 30.6466C119.093 29.2493 117.975 28.411 115.926 28.411ZM67.9069 28.4575V28.6904C68.3726 28.7836 68.6055 29.063 68.6055 29.4356V34.0466C68.6055 35.9096 69.8164 36.9808 72.1452 36.9808C74.6603 36.9808 75.8247 35.8164 75.8247 33.8603V29.4356C75.8247 29.063 76.0575 28.8301 76.5699 28.737V28.5041C76.3836 28.5041 75.5918 28.5507 75.4055 28.5507C75.1726 28.5507 74.4274 28.5041 74.2411 28.5041V28.737C74.7534 28.8301 74.9863 29.1096 74.9863 29.4356V34.1397C74.9863 35.6301 73.8685 36.2822 72.4247 36.2822C70.7479 36.2822 69.9562 35.4438 69.9562 34V29.4356C69.9562 29.063 70.189 28.7836 70.6548 28.6904V28.4575C70.3753 28.4575 69.537 28.5041 69.3041 28.5041C69.0247 28.5041 68.1863 28.4575 67.9069 28.4575ZM78.5726 28.4575V28.6904C79.0384 28.8301 79.3644 29.063 79.3644 29.5753V35.863C79.3644 36.189 79.1315 36.4685 78.6192 36.5616V36.7945C78.8055 36.7945 79.5507 36.7479 79.7836 36.7479C80.0164 36.7479 80.7151 36.7945 80.948 36.7945V36.6548C80.4356 36.5616 80.2027 36.2822 80.2027 35.9562V30.4137L85.0932 36.0959C85.6986 36.7479 86.0712 36.9808 86.3041 37.0274H86.6301V29.4356C86.6301 29.063 86.863 28.8301 87.4219 28.737V28.5041C87.2356 28.5041 86.4904 28.5507 86.2575 28.5507C86.0247 28.5507 85.326 28.5041 85.0932 28.5041V28.737C85.6055 28.8301 85.8384 29.1096 85.8384 29.4356V34.9315L80.3425 28.4575C80.1096 28.5041 79.7836 28.5041 79.5507 28.5041C79.3178 28.5041 78.8521 28.5041 78.5726 28.4575ZM93.7562 28.4575V28.6904C94.2219 28.7836 94.5014 29.1096 94.6877 29.4822L97.9945 36.8411H98.6932L101.721 29.7616C102 29.1096 102.326 28.8301 102.838 28.6904V28.4575C102.559 28.4575 101.767 28.5041 101.581 28.5041C101.395 28.5041 100.696 28.4575 100.416 28.4575V28.6904C100.742 28.737 100.975 28.9233 100.975 29.2027C100.975 29.4356 100.836 29.7616 100.696 30.1342L98.6466 35.0712L96.5041 30.1342C96.2712 29.6219 96.1315 29.3425 96.1315 29.1562C96.1315 28.8767 96.4575 28.737 96.6904 28.6904V28.4575C96.3644 28.4575 95.4795 28.5041 95.2932 28.5041C95.0603 28.5041 94.0356 28.4575 93.7562 28.4575ZM141.962 28.4575V28.6904C142.381 28.8301 142.66 29.1562 143.033 29.8082L145.175 33.2548V35.9096C145.175 36.189 144.942 36.5616 144.43 36.6548V36.8877C144.756 36.8877 145.595 36.8411 145.781 36.8411C146.06 36.8411 146.945 36.8877 147.178 36.8877V36.6548C146.712 36.5616 146.479 36.189 146.479 35.9096V33.2548L148.342 30.0877C148.715 29.4822 149.088 28.9233 149.693 28.6904V28.4575C149.414 28.4575 148.762 28.5041 148.622 28.5041C148.436 28.5041 147.877 28.4575 147.597 28.4575V28.6904C147.877 28.737 147.97 28.8767 147.97 29.0164C147.97 29.2027 147.877 29.4822 147.69 29.7616L146.107 32.463C146.107 32.463 144.57 29.9479 144.477 29.7616C144.337 29.5288 144.197 29.2959 144.197 29.1096C144.197 28.8767 144.337 28.737 144.616 28.6904V28.4575C144.29 28.4575 143.405 28.5041 143.173 28.5041C143.079 28.5041 142.241 28.4575 141.962 28.4575ZM89.7973 28.5041V28.737C90.3096 28.8301 90.5425 29.063 90.5425 29.5288V35.9096C90.5425 36.3753 90.3096 36.5616 89.7973 36.7014V36.9342C90.0767 36.9342 91.0082 36.8877 91.2411 36.8877C91.5205 36.8877 92.4055 36.9342 92.6849 36.9342V36.6548C92.1726 36.5616 91.9397 36.3288 91.9397 35.863V29.4822C91.9397 29.0164 92.2192 28.8301 92.6849 28.6904V28.4575C92.4055 28.4575 91.474 28.5041 91.2411 28.5041C90.9616 28.5041 90.0767 28.5041 89.7973 28.5041ZM129.386 28.5041V28.737C129.899 28.8301 130.132 29.063 130.132 29.5288V35.9096C130.132 36.3753 129.899 36.5616 129.386 36.7014V36.9342C129.666 36.9342 130.597 36.8877 130.83 36.8877C131.11 36.8877 131.995 36.9342 132.274 36.9342V36.6548C131.762 36.5616 131.529 36.3288 131.529 35.863V29.4822C131.529 29.0164 131.808 28.8301 132.274 28.6904V28.4575C131.995 28.4575 131.063 28.5041 130.83 28.5041C130.597 28.5041 129.666 28.5041 129.386 28.5041ZM115.553 28.9699C116.951 28.9699 117.696 29.6685 117.696 30.7863C117.696 31.5781 117.184 32.5096 115.647 32.5096C115.274 32.5096 114.855 32.5096 114.575 32.463V29.063C114.855 29.0164 115.274 28.9699 115.553 28.9699Z" fill="black"/>
<path d="M0.605469 0.698242V13.6928C1.25752 24.7311 5.96163 31.8106 9.78081 35.8161C13.6466 39.8681 17.4657 41.638 17.9781 41.8708C33.4411 32.0435 35.1178 18.9092 35.1178 13.7393V0.744813L0.605469 0.698242Z" fill="#A51C30"/>
<path d="M30.9724 4.51758C29.9943 5.30936 28.597 4.93675 28.597 4.93675C27.2929 4.89018 26.8737 4.98333 26.8737 4.98333C26.5943 5.40251 26.082 5.02991 26.082 5.02991C25.9888 4.93676 25.6162 4.93675 25.6162 4.93675C23.008 5.12305 22.3094 4.65731 22.3094 4.65731C22.2162 4.56415 21.7505 4.56416 21.7505 4.56416C21.7039 4.65731 21.471 4.93675 21.471 4.93675C21.3779 5.0299 20.4463 4.98333 20.4463 4.98333C19.934 4.93676 19.8874 5.26279 19.8874 5.26279L19.8409 6.42717C19.8874 7.1258 19.7011 6.98607 19.7011 6.98607C19.5614 7.17237 18.7696 7.1258 18.7696 7.1258C18.1176 7.17238 18.2107 8.15046 18.2107 8.15046C18.3039 8.80251 19.282 8.56963 19.282 8.56963C19.934 8.61621 19.8409 8.98881 19.8409 8.98881C19.7943 9.26827 19.8874 12.9943 19.8874 12.9943C19.8409 13.5532 19.4217 13.3203 19.4217 13.3203C18.071 13.2737 18.2573 14.2053 18.2573 14.2053C18.3039 15.0902 19.282 14.9505 19.282 14.9505C19.934 14.9505 19.8874 15.3231 19.8874 15.3231C19.934 15.4162 19.8409 16.7669 19.8409 16.7669C19.934 17.4189 20.5395 17.2326 20.5395 17.2326L25.3833 17.3724C26.7806 18.397 27.1066 17.4189 27.1066 17.4189C27.1532 17.3258 27.3861 17.3258 27.3861 17.3258C27.7587 17.4189 32.1368 17.3724 32.2299 17.3724C33.0217 17.5587 33.0217 16.8135 33.0217 16.8135L33.0683 15.3696C33.1148 15.0902 33.534 15.0436 33.534 15.0436C34.8381 15.2299 34.745 14.1587 34.745 14.1587C34.6984 13.3203 33.8135 13.3669 33.8135 13.3669C33.1148 13.4135 33.1614 12.9011 33.1614 12.9011C33.208 12.5285 33.208 9.26826 33.208 9.26826C33.1614 9.08196 33.3943 8.75594 33.3943 8.75594C34.9779 8.89566 34.6984 7.871 34.6984 7.871C34.8381 6.98607 33.86 7.17237 33.86 7.17237C33.0217 7.17237 33.208 6.70662 33.208 6.70662C33.3477 5.58881 33.0683 5.16963 33.0683 5.16963C32.9285 4.98333 32.0436 5.07648 32.0436 5.07648C31.7642 5.26278 31.345 4.61073 31.345 4.61073L30.9724 4.51758ZM13.8326 4.51758C12.8546 5.30936 11.4573 4.93675 11.4573 4.93675C10.1532 4.89018 9.73402 4.98333 9.73402 4.98333C9.45457 5.40251 8.94224 5.02991 8.94224 5.02991C8.84909 4.93676 8.47648 4.93675 8.47648 4.93675C5.86826 5.12305 5.16963 4.65731 5.16963 4.65731C5.07648 4.56415 4.61073 4.56416 4.61073 4.56416C4.56416 4.65731 4.33128 4.93675 4.33128 4.93675C4.19155 5.0299 3.30662 4.98333 3.30662 4.98333C2.84087 4.93676 2.74772 5.26279 2.74772 5.26279L2.70114 6.42717C2.74772 7.1258 2.56142 6.98607 2.56142 6.98607C2.42169 7.17237 1.62991 7.1258 1.62991 7.1258C0.977854 7.17238 1.07101 8.15046 1.07101 8.15046C1.16416 8.80251 2.14224 8.56963 2.14224 8.56963C2.79429 8.61621 2.70114 8.98881 2.70114 8.98881C2.65457 9.26827 2.74772 13.0409 2.74772 13.0409C2.70114 13.5998 2.28196 13.3669 2.28196 13.3669C0.93128 13.3203 1.11758 14.2518 1.11758 14.2518C1.16416 15.1368 2.14224 14.997 2.14224 14.997C2.79429 14.997 2.74772 15.3696 2.74772 15.3696C2.79429 15.4628 2.70114 16.8135 2.70114 16.8135C2.79429 17.4655 3.39977 17.2792 3.39977 17.2792L8.24361 17.3724C9.64087 18.397 9.9669 17.4189 9.9669 17.4189C10.0135 17.3258 10.2463 17.3258 10.2463 17.3258C10.6189 17.4189 14.997 17.3724 15.0902 17.3724C15.882 17.5587 15.882 16.8135 15.882 16.8135L15.9285 15.3696C15.9751 15.0902 16.3943 15.0436 16.3943 15.0436C17.6984 15.2299 17.6053 14.1587 17.6053 14.1587C17.5587 13.3203 16.6737 13.3669 16.6737 13.3669C15.9751 13.4135 16.0217 12.9011 16.0217 12.9011C16.0683 12.5285 16.0683 9.26826 16.0683 9.26826C16.0217 9.08196 16.2546 8.75594 16.2546 8.75594C17.8381 8.89566 17.5587 7.871 17.5587 7.871C17.6518 6.98607 16.7203 7.17237 16.7203 7.17237C15.882 7.17237 16.0683 6.70662 16.0683 6.70662C16.208 5.58881 15.9285 5.16963 15.9285 5.16963C15.7888 4.98333 14.9039 5.07648 14.9039 5.07648C14.6244 5.26278 14.2053 4.61073 14.2053 4.61073L13.8326 4.51758ZM11.8765 21.3778C11.6902 21.3778 11.5039 21.7505 11.5039 21.7505C11.2244 22.2162 10.2929 21.9368 10.2929 21.9368C9.59429 22.1231 9.68744 22.4957 9.68744 22.4957L9.73402 23.8929C9.68744 24.2655 9.17511 24.1258 9.17511 24.1258C8.24361 23.9395 7.91758 24.545 7.91758 24.545C7.73128 24.8244 7.87101 25.197 7.87101 25.197C8.01073 25.7559 8.70936 25.7094 8.70936 25.7094C8.98881 25.8957 9.36141 25.7559 9.36141 25.7559C9.73402 25.7559 9.64087 26.1751 9.64087 26.1751C9.68744 26.408 9.59429 29.808 9.59429 29.808C9.59429 30.0874 9.54772 30.2737 9.54772 30.2737C9.54772 30.5532 8.61621 30.3669 8.61621 30.3669C8.01073 30.4135 7.82443 31.0189 7.82443 31.0189C7.63813 31.4381 8.24361 31.8573 8.24361 31.8573C8.29018 31.9505 9.40799 32.0436 9.40799 32.0436C9.68744 32.0902 9.68744 32.5094 9.68744 32.5094C9.64087 32.6957 9.78059 34.1395 9.78059 34.1395C9.87374 34.5121 10.9916 34.419 10.9916 34.419C10.9916 34.419 16.3011 34.3258 16.3943 34.3724C16.4874 34.4189 16.8135 34.3258 16.8135 34.3258L17.2326 34.6518C17.745 35.071 18.397 34.5121 18.397 34.5121L18.9559 34.419C19.1422 34.4655 24.0326 34.3724 24.0326 34.3724C24.4518 34.4655 24.6381 34.3258 24.6381 34.3258L25.4299 34.2792C25.9888 34.2792 25.9422 33.5806 25.9422 33.5806V32.5559C25.9888 31.997 26.2683 31.997 26.2683 31.997L27.0135 31.8573L27.3395 31.671C27.8053 31.5313 27.5724 30.6929 27.5724 30.6929C27.2929 30.1806 26.408 30.2737 26.408 30.2737C25.8025 30.3203 25.8491 29.9477 25.8491 29.9477L25.9422 26.1751C25.9888 25.8491 26.1751 25.6162 26.1751 25.6162C26.3614 25.6628 26.9669 25.4765 26.9669 25.4765C27.5724 25.3368 27.5258 24.7779 27.5258 24.7779C27.6189 24.3587 26.9203 24.0792 26.9203 24.0792H26.082C25.8025 24.0326 25.8957 22.9614 25.8957 22.9614V22.4491C25.9422 22.0299 25.3368 21.8436 25.3368 21.8436L24.2655 21.8902C24.1724 21.7039 23.7532 21.6107 23.7532 21.6107C23.5669 21.5176 23.2409 21.5176 23.2409 21.5176C22.4491 22.0765 20.5861 21.9368 20.5861 21.9368L18.6765 21.797L17.9779 21.9368C17.9313 22.0765 17.6984 22.1696 17.6984 22.1696L17.5121 22.1231C17.3258 21.9368 16.7203 21.8436 16.7203 21.8436C16.6737 21.7505 14.0655 21.9368 14.0655 21.9368C12.5751 21.9833 12.0162 21.471 12.0162 21.471C12.0162 21.3778 11.9696 21.3778 11.8765 21.3778Z" fill="black"/>
<path d="M5.26208 5.03027C5.26208 5.03027 4.93605 5.07684 4.93605 5.30972L4.84291 14.5316C4.84291 14.5316 4.79633 14.9508 5.54154 15.044C5.54154 15.044 6.37989 15.1371 6.56619 15.044C6.56619 15.044 7.1251 14.9974 8.52236 15.0905C8.52236 15.0905 8.84838 15.4166 8.89496 14.9974C8.89496 14.9974 9.12784 7.49877 8.98811 5.96178C8.98811 5.96178 8.94153 5.30973 8.47578 5.26315C8.47578 5.26315 6.28674 5.44945 6.10044 5.26315L5.26208 5.03027ZM22.3552 5.03027C22.3552 5.03027 22.0292 5.07684 22.0292 5.30972L21.9361 14.5316C21.9361 14.5316 21.8895 14.9508 22.6347 15.044C22.6347 15.044 23.473 15.1371 23.6593 15.044C23.6593 15.044 24.2182 14.9974 25.6155 15.0905C25.6155 15.0905 25.9415 15.4166 25.9881 14.9974C25.9881 14.9974 26.221 7.49877 26.0813 5.96178C26.0813 5.96178 26.0347 5.30973 25.5689 5.26315C25.5689 5.26315 23.3799 5.44945 23.1936 5.26315L22.3552 5.03027ZM13.5525 5.03027C13.4593 5.03027 13.3662 5.07685 13.273 5.12342C13.273 5.12342 13.3196 5.3563 10.6182 5.26315C10.6182 5.26315 9.59359 5.21657 9.54701 5.68233C9.54701 5.68233 9.45386 10.0138 9.50044 10.1536L9.45386 13.7864L9.31414 15.044C9.31414 15.044 9.50044 15.3234 9.64016 15.1371C9.64016 15.1371 10.5717 14.9042 11.1306 14.9974C11.1306 14.9974 12.9936 15.1837 13.3662 14.9042C13.3662 14.9042 13.6456 15.044 13.7388 14.5782C13.7388 14.5782 13.8319 6.52068 13.7854 6.38096C13.7854 6.38096 13.8785 5.21657 13.8319 5.12342C13.7854 5.17 13.7388 5.03027 13.5525 5.03027ZM30.6456 5.07684C30.5525 5.07684 30.4593 5.12342 30.3662 5.16999C30.3662 5.16999 30.4128 5.40287 27.7114 5.30972C27.7114 5.30972 26.6867 5.26315 26.6402 5.7289C26.6402 5.7289 26.547 10.0604 26.5936 10.2001L26.547 13.833L26.4073 15.0905C26.4073 15.0905 26.5936 15.37 26.7333 15.1837C26.7333 15.1837 27.6648 14.9508 28.2237 15.044C28.2237 15.044 30.0867 15.2303 30.4593 14.9042C30.4593 14.9042 30.7388 15.044 30.8319 14.5782C30.8319 14.5782 30.9251 6.52068 30.8785 6.38096C30.8785 6.38096 30.9717 5.21657 30.9251 5.12342C30.8785 5.21657 30.8785 5.03027 30.6456 5.07684ZM3.67852 5.30972C3.5388 5.30972 3.39907 5.40287 3.16619 5.58918L3.11962 6.75356C3.11962 6.75356 3.11962 7.40561 2.51414 7.40561C2.51414 7.40561 1.81551 7.35904 1.48948 7.68507C1.48948 7.68507 1.30318 8.33712 1.95523 8.19739C1.95523 8.19739 2.97989 8.1974 3.02647 8.61657L2.97989 12.9481C2.97989 12.9481 3.21277 13.6467 2.42099 13.6467C2.42099 13.6467 1.4429 13.6001 1.48948 14.2056C1.48948 14.2056 1.67578 14.7179 2.51414 14.5316C2.51414 14.5316 3.11962 14.6248 3.07304 15.2303V16.3481C3.07304 16.3481 3.02646 16.7673 3.58537 16.8138H8.0566C8.0566 16.8138 8.28948 16.8604 8.28948 16.5344C8.28948 16.5344 8.2429 16.3015 7.91688 16.3015L4.19085 16.2549C4.19085 16.2549 3.58537 16.4412 3.53879 15.5563C3.53879 15.5563 3.58537 7.45219 3.58537 7.31246C3.53879 7.17274 3.63195 7.40561 3.63195 7.40561C3.63195 7.40561 3.5388 6.00835 3.9114 5.40287C3.9114 5.49602 3.86482 5.30972 3.67852 5.30972ZM20.7717 5.30972C20.6319 5.30972 20.4922 5.40287 20.2128 5.58918L20.1662 6.75356C20.1662 6.75356 20.1662 7.40561 19.5607 7.40561C19.5607 7.40561 18.8621 7.35904 18.5361 7.68507C18.5361 7.68507 18.3498 8.33712 19.0018 8.19739C19.0018 8.19739 20.0265 8.1974 20.073 8.61657L20.0265 12.9481C20.0265 12.9481 20.2593 13.6467 19.4676 13.6467C19.4676 13.6467 18.4895 13.6001 18.5361 14.2056C18.5361 14.2056 18.7224 14.7179 19.5607 14.5316C19.5607 14.5316 20.1662 14.6248 20.1196 15.2303V16.3015C20.1196 16.3015 20.073 16.7207 20.6319 16.7673H25.1032C25.1032 16.7673 25.3361 16.8138 25.3361 16.4878C25.3361 16.4878 25.2895 16.2549 24.9634 16.2549L21.2374 16.2084C21.2374 16.2084 20.6319 16.3947 20.5854 15.5097C20.5854 15.5097 20.6319 7.40561 20.6319 7.26588C20.5854 7.12616 20.6785 7.40561 20.6785 7.40561C20.6785 7.40561 20.5854 6.00835 20.958 5.40287C21.0045 5.49602 20.958 5.30972 20.7717 5.30972ZM15.2292 5.3563C14.9032 5.30972 14.9032 5.68233 14.9032 5.68233C14.9963 5.77548 15.0895 6.19466 15.0895 6.19466C15.1361 7.17274 15.0895 8.29055 15.0895 9.3152C15.0895 12.7618 14.9498 15.8823 14.9498 15.8823C14.9498 16.581 14.5772 16.3947 14.5772 16.3947L10.5251 16.4412C10.1059 16.4412 10.1059 16.6741 10.1059 16.6741C10.1525 17.0001 10.5717 16.8604 10.5717 16.8604C10.9443 16.9536 14.9498 16.907 14.9498 16.907C15.5552 17.0001 15.5087 16.2084 15.5087 16.2084C15.6018 14.8577 15.695 14.7179 15.695 14.7179C15.8347 14.6248 16.4867 14.6248 16.4867 14.6248C17.558 14.6714 17.0456 13.9727 17.0456 13.9727C16.9059 13.7399 16.2073 13.7864 16.2073 13.7864C15.5087 13.833 15.5552 13.0878 15.5552 13.0878L15.6484 8.89602C15.5552 8.56999 15.8347 8.3837 15.8347 8.3837H16.4867C17.4182 8.43027 17.1854 7.87137 17.1854 7.87137C17.1388 7.59191 16.3936 7.45219 16.3936 7.45219C15.6018 7.54534 15.695 7.12616 15.695 7.12616L15.6484 6.1015C15.7415 5.44945 15.3224 5.40287 15.3224 5.40287L15.2292 5.3563ZM32.3224 5.3563C31.9963 5.30972 31.9963 5.68233 31.9963 5.68233C32.0895 5.77548 32.1826 6.19466 32.1826 6.19466C32.2292 7.17274 32.1826 8.29055 32.1826 9.3152C32.1826 12.7618 32.0429 15.8823 32.0429 15.8823C32.0429 16.581 31.6703 16.3481 31.6703 16.3481L27.6648 16.3947C27.2456 16.3947 27.2456 16.6275 27.2456 16.6275C27.2922 16.9536 27.7114 16.8138 27.7114 16.8138C28.084 16.907 32.0895 16.8604 32.0895 16.8604C32.695 16.9536 32.6484 16.1618 32.6484 16.1618C32.7415 14.8111 32.8347 14.6714 32.8347 14.6714C32.9744 14.5316 33.6265 14.5782 33.6265 14.5782C34.6977 14.6248 34.1854 13.9262 34.1854 13.9262C34.0456 13.6933 33.347 13.7399 33.347 13.7399C32.6484 13.7864 32.695 13.0412 32.695 13.0412L32.7881 8.84945C32.695 8.52342 32.9744 8.33712 32.9744 8.33712H33.6265C34.558 8.38369 34.3251 7.82479 34.3251 7.82479C34.2785 7.54534 33.5333 7.40561 33.5333 7.40561C32.7415 7.54534 32.8347 7.07959 32.8347 7.07959L32.7881 6.05493C32.8813 5.40287 32.4621 5.3563 32.4621 5.3563H32.3224ZM14.2977 5.44945C14.2045 5.44945 14.158 5.49602 14.0648 5.63575L14.0182 14.7179C14.0182 14.7179 14.2511 15.5097 14.6237 15.4166C14.6237 15.4166 14.6703 15.2303 14.7169 14.9508L14.81 6.28781C14.81 6.33438 14.6237 5.40287 14.2977 5.44945ZM31.4374 5.44945C31.3443 5.44945 31.2977 5.49602 31.2045 5.63575L31.158 14.7179C31.158 14.7179 31.3908 15.5097 31.7635 15.4631C31.7635 15.4631 31.81 15.2768 31.8566 14.9974L31.9498 6.33438C31.9498 6.33438 31.7635 5.40287 31.4374 5.44945ZM21.61 5.5426C21.0511 5.49602 21.0045 6.56725 21.0045 6.56725L20.958 15.1837C21.0045 15.6029 21.1443 15.5097 21.1443 15.5097C21.7032 15.1837 21.61 14.5782 21.61 14.5782C21.61 14.5782 21.7032 6.42753 21.7032 6.28781C21.6566 6.1015 21.61 5.5426 21.61 5.5426ZM4.51688 5.5426C3.95797 5.49602 3.9114 6.56725 3.9114 6.56725L3.86482 15.1837C3.9114 15.6029 4.05112 15.5097 4.05112 15.5097C4.61003 15.1837 4.51688 14.5782 4.51688 14.5782C4.51688 14.5782 4.61003 6.42753 4.61003 6.28781C4.56345 6.1015 4.51688 5.5426 4.51688 5.5426ZM22.0292 15.2303C21.9361 15.2303 21.7498 15.2303 21.5169 15.6029C21.5169 15.6029 21.4237 16.0221 21.8429 15.9289H24.8237L25.6155 16.1152C25.6155 16.1152 26.4539 15.9289 25.6155 15.4631C25.6155 15.4631 22.9607 15.5097 22.7278 15.4166C22.7278 15.4166 22.1689 15.2768 22.0758 15.2303H22.0292ZM4.84291 15.2768C4.74975 15.2768 4.51688 15.2768 4.33058 15.6494C4.33058 15.6494 4.23743 16.0686 4.6566 15.9755H7.63743L8.4292 16.1618C8.4292 16.1618 9.26756 15.9755 8.4292 15.5097C8.4292 15.5097 5.77441 15.5563 5.54154 15.4631C5.54154 15.4631 4.98263 15.3234 4.88948 15.2768H4.84291ZM31.0648 15.3234C30.8785 15.3234 30.6456 15.37 30.6456 15.37C30.1799 15.696 27.2922 15.4631 27.2922 15.4631C27.1059 15.4631 26.873 15.7426 26.873 15.7426C26.7799 16.2549 27.6648 16.0686 27.6648 16.0686C27.8511 16.0686 31.0648 16.022 31.0648 16.022C31.5771 16.1618 31.6237 15.9289 31.6237 15.9289C31.6237 15.7426 31.2045 15.37 31.2045 15.37L31.0648 15.3234ZM13.8785 15.37C13.6922 15.37 13.4593 15.4166 13.4593 15.4166C12.9936 15.7426 10.1059 15.5097 10.1059 15.5097C9.91962 15.5097 9.68674 15.7892 9.68674 15.7892C9.59359 16.3015 10.4785 16.1152 10.4785 16.1152C10.6648 16.1152 13.9251 16.0686 13.9251 16.0686C14.4374 16.2084 14.484 15.9289 14.484 15.9289C14.484 15.7426 14.0648 15.37 14.0648 15.37H13.8785ZM26.547 15.9755H26.4539C26.4539 15.9755 25.895 15.9755 25.9415 16.6741C25.9415 16.6741 25.9881 17.233 26.5936 17.233C26.5936 17.233 27.1059 17.1399 27.0593 16.581C27.0128 16.6275 26.7799 16.0686 26.547 15.9755ZM9.36071 16.0686H9.26756C9.26756 16.0686 8.70866 16.0686 8.75523 16.7673C8.75523 16.7673 8.80181 17.3262 9.40729 17.3262C9.40729 17.3262 9.91962 17.233 9.87304 16.6741C9.82646 16.6741 9.59359 16.1152 9.36071 16.0686ZM23.2402 21.9371C21.9361 22.5892 21.8429 22.2166 21.4237 22.3097C21.0045 22.4029 19.421 22.3097 19.3278 22.2632C19.1881 22.2166 18.4895 22.3097 18.4895 22.3097C18.0237 22.3563 17.9306 22.7289 17.9306 22.7289L17.884 24.6385L17.7908 25.0577L17.6045 25.1974L17.4182 24.6385L17.4648 22.8686C17.2785 22.2166 16.7196 22.3563 16.7196 22.3563C16.347 22.2631 14.8566 22.3563 14.8566 22.3563C14.2045 22.4495 13.5059 22.3097 13.5059 22.3097C12.5744 22.4494 12.3881 22.1234 12.3881 22.1234C11.9224 21.9371 11.9224 22.2166 11.9224 22.2166C12.0155 22.4494 11.9689 22.9152 11.9689 22.9152C12.0155 23.1481 11.9224 25.1508 11.9224 25.1508C11.8758 25.3371 11.9224 27.5262 11.9224 27.5262C12.0155 27.6659 11.8758 31.6248 11.8758 31.6248C11.9689 32.1371 12.947 32.0906 12.947 32.0906C13.0402 32.1837 16.7196 32.1371 16.7196 32.1371C17.3251 32.4166 17.3717 32.0906 17.3717 32.0906C17.5114 31.2056 17.3717 29.5289 17.4182 29.2029C17.5114 28.5508 17.4648 27.8522 17.4648 27.8522L17.7443 27.8056L17.7908 29.2495C17.884 30.5536 17.7908 31.9042 17.7908 31.9042C17.7908 32.2768 17.9306 32.3234 17.9306 32.3234C18.6292 31.9974 19.2347 32.044 19.2347 32.044C23.1936 32.1371 22.5881 32.0906 22.5881 32.0906C23.6128 32.044 23.5196 31.3919 23.5196 31.3919L23.473 29.9481C23.5662 29.6221 23.5662 25.1508 23.5662 25.1508C23.4265 24.6851 23.5662 22.2632 23.5662 22.2632C23.5662 21.9837 23.2402 21.9371 23.2402 21.9371ZM25.1498 22.3097C25.01 22.3097 24.8703 22.3563 24.8703 22.3563C24.8703 22.3563 24.9169 22.3563 24.8237 22.3097C24.7306 22.2631 24.7306 22.496 24.7306 22.496C25.1032 22.8686 25.01 23.4741 25.01 23.4741C24.9634 31.159 25.01 31.4385 25.01 31.4385L24.9169 31.7179C24.9169 31.7179 24.8703 32.5097 24.8703 32.7426C24.8703 32.9755 24.7306 33.1618 24.7306 33.1618L24.4045 33.2549C24.1717 33.4412 22.7278 33.3481 22.7278 33.3481C22.7278 33.3481 19.3744 33.4412 19.1415 33.3947C18.9087 33.3481 18.5826 33.4878 18.5826 33.4878C18.4895 33.907 18.9087 33.9536 18.9087 33.9536C19.7004 33.907 24.6374 33.907 24.6374 33.907C25.4292 33.9536 25.4758 33.581 25.4758 33.581C25.6155 33.4878 25.5224 32.7892 25.5224 32.7892C25.5689 32.6495 25.6621 31.8577 25.6621 31.8577C25.5689 31.5316 26.7799 31.5316 26.7799 31.5316C27.4319 31.4851 27.1991 30.9262 27.1991 30.9262C27.1991 30.6467 26.3141 30.6933 26.3141 30.6933C25.6155 30.7399 25.6155 30.2741 25.6155 30.2741C25.6155 30.2741 25.7087 26.3618 25.6621 25.8029C25.6155 25.244 26.0813 25.1508 26.0813 25.1508L26.7799 25.1042C27.2922 25.1974 27.2922 24.6851 27.2922 24.6851C27.2922 24.4522 26.547 24.359 26.547 24.359C26.221 24.4522 26.0347 24.2659 26.0347 24.2659C25.6155 24.2659 25.6621 23.4275 25.6621 23.4275C25.8484 23.0084 25.6155 22.3563 25.6155 22.3563C25.4758 22.3097 25.2895 22.3097 25.1498 22.3097ZM10.3854 22.3563C10.0593 22.4029 10.0593 23.8933 10.0593 23.8933C10.0128 24.5919 9.40729 24.4988 9.40729 24.4988C8.56893 24.4056 8.28948 24.9179 8.28948 24.9179C8.24291 25.3837 9.08126 25.3837 9.08126 25.3837C9.22099 25.3371 9.68674 25.3371 9.68674 25.3371C10.1991 25.3837 10.1059 26.1289 10.1059 26.1289L10.0128 30.3673C10.1525 30.9262 9.45386 30.833 9.45386 30.833C8.47578 30.7864 8.33606 31.2056 8.33606 31.2056C8.38263 31.8111 9.36071 31.6248 9.36071 31.6248C10.0593 31.7179 10.0128 32.1371 10.0128 32.1371C10.0593 32.2768 10.0593 33.0686 10.0593 33.0686C10.0593 33.907 10.2922 33.9536 10.2922 33.9536C10.3854 34.1399 11.8292 34.0467 11.8292 34.0467C13.9717 34.1399 16.3936 33.907 16.3936 33.907C16.7196 33.9536 16.7196 33.7673 16.7196 33.7673C16.9059 33.5344 16.4402 33.4412 16.4402 33.4412C16.1141 33.3481 11.084 33.4878 11.084 33.4878C10.5717 33.6741 10.6182 32.9755 10.6182 32.9755V31.4385C10.5717 31.2056 10.6182 30.507 10.6182 30.507C10.6182 30.507 10.6648 26.8741 10.6648 26.7344C10.6182 26.5947 10.6648 25.3371 10.6648 25.3371L10.7114 23.4275C10.6648 23.2878 11.0374 22.6357 11.0374 22.6357C11.1306 22.3563 10.3854 22.3563 10.3854 22.3563ZM24.1251 22.4494C24.0319 22.4494 23.9388 22.496 23.9388 22.7289L23.8922 31.5782L23.8456 31.7645C23.8456 31.7645 24.1717 32.4166 24.358 32.5097C24.358 32.5097 24.684 32.8823 24.5908 32.2303L24.6374 23.9399C24.6374 23.9399 24.5443 23.6604 24.6374 23.1947L24.3114 22.5426L24.1251 22.4494ZM11.3635 22.496C10.9443 22.7755 10.9443 23.4275 10.9443 23.4275L10.8511 32.2768C10.8511 32.7426 11.1306 32.4631 11.1306 32.4631C11.6429 32.0905 11.5498 31.5316 11.5498 31.5316L11.5963 22.8686C11.5963 22.496 11.3635 22.496 11.3635 22.496ZM11.7826 32.0906L11.5498 32.2768C10.9909 32.9289 11.3635 32.9755 11.3635 32.9755L11.8758 32.9289L16.5799 32.9755C17.0922 33.0686 17.1388 32.7426 17.1388 32.7426C17.1854 32.5097 16.7196 32.4631 16.7196 32.4631L12.8073 32.4166C12.2018 32.5097 11.7826 32.0906 11.7826 32.0906ZM23.6593 32.1837H23.5662C23.3799 32.4631 22.6813 32.4631 22.6813 32.4631C22.6813 32.4631 23.1936 32.37 22.3552 32.5097C21.5635 32.6495 18.9087 32.4631 18.9087 32.4631C18.7224 32.4166 18.21 32.7426 18.21 32.7426C18.1169 33.2084 19.0018 33.0686 19.0018 33.0686C19.1415 33.022 23.8456 33.0221 23.8456 33.0221C24.358 33.0686 24.3114 32.7426 24.3114 32.7426L23.8922 32.2768L23.6593 32.1837ZM17.6045 32.9755C17.1854 33.0686 17.0456 33.5344 17.1388 33.907C17.2319 34.2796 17.558 34.3727 17.8374 34.3262C18.1169 34.2796 18.1169 34.0001 18.1169 33.5344C18.1169 33.022 17.6045 32.9755 17.6045 32.9755Z" fill="white"/>
<path d="M28.1322 8.10449C28.1322 8.10449 27.5733 8.15107 27.6199 8.38395L27.8993 8.94285V11.7839C27.8993 11.7839 27.8062 12.2963 27.5267 12.436C27.5267 12.436 27.4336 12.7155 27.713 12.762L28.5514 12.7155C28.5514 12.7155 28.8774 12.762 28.8774 12.5291C28.8774 12.5291 28.6445 12.2497 28.598 12.11C28.598 12.11 28.5514 9.36203 28.598 9.08258L28.6911 8.70997C28.6911 8.70997 29.0172 8.52367 28.8308 8.24422C28.8308 8.24422 28.6446 8.15107 28.4117 8.19764L28.1322 8.10449ZM11.924 8.10449H11.8309C11.8309 8.10449 10.8528 8.24422 10.713 8.15107L9.92126 8.24422C9.92126 8.24422 9.82811 8.52367 10.1541 8.66339C10.1541 8.66339 10.2473 8.70997 10.2473 8.8497L10.2007 11.8771L10.1076 12.11C10.1076 12.11 9.82811 12.4826 10.0144 12.5291C10.0144 12.5291 9.73496 12.7155 11.8774 12.7155C11.8774 12.7155 12.6692 12.8552 12.4829 11.8305C12.4829 11.8305 12.3898 11.4579 12.1103 12.0168C12.1103 12.0168 12.0172 12.4826 10.9925 12.3429C10.9925 12.3429 10.7596 12.1565 10.7596 11.9237V10.6661C10.7596 10.6661 10.713 10.3401 11.2254 10.3867C11.2254 10.3867 11.7843 10.7127 11.8774 10.573C11.8774 10.573 12.0637 10.1072 11.8774 9.82778C11.8774 9.82778 11.598 9.78121 11.598 9.92093C11.598 9.92093 11.4117 10.247 10.9459 10.0607C10.9459 10.0607 10.713 9.59491 10.8528 9.2223C10.8528 9.2223 10.8062 8.52367 11.2719 8.57025C11.2719 8.57025 11.8309 8.6634 11.924 8.8497C11.924 8.8497 12.0637 9.17572 12.2035 8.80312L12.0637 8.2908L11.924 8.10449ZM23.1021 8.10449C22.9624 8.10449 22.8226 8.10449 22.8226 8.19764C22.8226 8.19764 22.7761 8.4771 22.9624 8.4771C22.9624 8.4771 23.1952 8.75655 23.1952 8.89627L23.1487 10.1072L23.1952 11.7839C23.1952 11.7839 23.1487 12.1565 22.9158 12.2963C22.9158 12.2963 22.7295 12.5757 22.9158 12.6689L23.8473 12.762C23.8473 12.762 24.1267 12.5757 23.987 12.3429L23.7076 11.9237L23.7541 11.0387C23.7541 11.0387 23.9404 10.8524 24.0336 10.9456L25.0583 12.5757C25.0583 12.5757 25.524 12.9018 25.6172 12.5757C25.6172 12.5757 25.6637 12.436 25.524 12.3429L24.6856 11.0387L24.7322 10.573C24.7322 10.573 25.6172 10.247 25.524 9.4086C25.524 9.4086 25.7103 8.57024 24.5459 8.19764H23.335C23.335 8.15107 23.2418 8.15107 23.1021 8.10449ZM5.45003 8.15107C5.03085 8.19765 5.26373 8.4771 5.26373 8.4771L5.63633 8.75655C5.68291 8.89628 6.80071 12.3894 6.80071 12.3894C7.31304 12.8552 7.35962 12.2963 7.35962 12.2963C7.68565 11.7374 8.3377 8.94285 8.3377 8.94285L8.61715 8.38395C8.524 8.15107 7.91852 8.19764 7.91852 8.19764C7.63907 8.24422 7.82537 8.52367 7.82537 8.52367L8.01167 9.12915L7.45277 11.1785C7.26647 11.6442 7.08016 10.9922 7.08016 10.9922C6.47469 9.2223 6.42811 8.80312 6.42811 8.80312C6.89387 8.47709 6.52126 8.19764 6.52126 8.19764L5.45003 8.15107ZM24.1733 8.52367C24.313 8.52367 24.4993 8.52367 24.5459 8.61682C24.6391 8.80313 25.3843 9.4086 24.6391 10.1072C24.6391 10.1072 24.313 10.7127 23.7541 10.2935C23.7541 10.2935 23.7541 9.4086 23.7076 8.80312L23.8007 8.61682C23.8473 8.57025 24.0336 8.52367 24.1733 8.52367ZM17.6528 24.3127C17.513 24.2661 17.4665 24.5456 17.3733 24.7319C17.3733 24.7319 16.4418 28.4579 16.3021 28.6908C16.3021 28.6908 16.2089 29.0168 15.8829 29.11C15.8829 29.11 15.6966 29.2963 15.9761 29.3894C15.9761 29.3894 16.535 29.5757 16.6747 29.3428C16.6747 29.3428 16.861 29.4826 16.6747 28.7374C16.6747 28.7374 16.8144 27.899 17.1404 27.899C17.1404 27.899 17.3267 27.9922 17.3733 28.1319C17.4199 28.2716 17.6993 28.1319 17.6993 28.1319C17.6993 28.1319 17.8856 27.8524 18.0254 27.9456C18.0254 27.9456 18.3048 28.3182 18.3048 28.5511C18.3048 28.5511 18.398 29.11 18.2582 29.2497C18.2582 29.2497 18.1185 29.3428 18.4445 29.436C18.4445 29.436 19.0966 29.5292 19.3295 29.4826C19.3295 29.4826 19.8418 29.3428 19.3295 29.1565C19.3295 29.1565 19.05 28.9237 18.9103 28.6442C18.9103 28.6442 18.398 26.4086 17.8391 24.9182C17.8391 24.9182 17.7925 24.6387 17.6062 24.499L17.6528 24.3127ZM13.461 24.6387L13.2747 24.6853L12.9952 25.3839V25.6168C13.1815 26.0826 13.2747 25.6634 13.2747 25.6634L13.6939 25.2442L14.0199 25.1976C14.2062 25.2908 14.1596 25.6168 14.1596 25.6168C14.113 25.7565 14.113 28.1785 14.113 28.1785C14.1596 28.6908 14.0199 28.8771 14.0199 28.8771C13.6007 29.3894 14.0199 29.3894 14.0199 29.3894C14.2062 29.3428 14.9048 29.436 14.9048 29.436C15.2309 29.4826 15.0911 29.0634 15.0911 29.0634C14.9048 28.9703 14.8117 28.6442 14.8117 28.6442L14.8582 28.1785C14.9514 27.899 14.8582 25.7565 14.8582 25.7565C14.9048 25.1045 15.2774 25.2908 15.2774 25.2908C15.3706 25.6168 15.6035 25.71 15.6035 25.71C15.9761 25.6168 15.8829 24.9648 15.8829 24.9648C15.9295 24.6853 15.7432 24.6853 15.7432 24.6853L15.2774 24.9182H13.9267C13.6939 24.825 13.461 24.6387 13.461 24.6387ZM22.0309 24.825C21.9843 24.825 21.8445 24.825 21.7048 24.9648C21.7048 24.9648 21.3322 25.1045 21.2391 24.9648C21.2391 24.9648 20.1678 24.8716 20.1213 26.036C20.1213 26.036 19.9815 26.8278 21.1925 27.3401C21.1925 27.3401 22.0774 27.7593 22.0309 28.3182C22.0309 28.3182 21.8911 29.2963 20.9596 28.8305C20.9596 28.8305 20.4939 28.5976 20.5404 28.3182C20.5404 28.3182 20.4007 27.9922 20.2144 28.0387C20.2144 28.0387 20.0281 28.0853 20.1213 29.0634C20.1213 29.0634 20.1213 29.436 20.5404 29.0634L20.7733 29.11C20.7733 29.11 21.5651 29.762 22.2172 28.9702C22.2172 28.9702 22.9158 28.3182 22.4035 27.5264C22.4035 27.5264 22.0309 26.9675 21.3788 26.6881C21.3788 26.6881 20.7267 26.4086 20.587 25.8963C20.587 25.8963 20.7733 25.0113 21.5651 25.4771C21.5651 25.4771 21.8446 25.8031 22.0309 25.8963C22.0309 25.8963 22.2637 25.8963 22.2172 25.3839L22.1706 24.9648C22.1706 24.9648 22.124 24.825 22.0309 24.825ZM17.6062 26.036L17.7459 26.2223C17.7459 26.2223 18.0719 27.1072 18.0719 27.247C18.0719 27.3867 18.0254 27.5264 17.8856 27.5264C17.6993 27.5264 17.2336 27.4798 17.2336 27.4798L17.0473 27.2004C17.0473 27.2004 17.2336 26.4086 17.2802 26.2689L17.6062 26.036Z" fill="black"/>
</svg>
