<svg width="64" height="30" viewBox="0 0 64 30" fill="none" xmlns="http://www.w3.org/2000/svg">
<path d="M4.95951 0H0V4.95951H4.95951V0Z" fill="#00AAE8"/>
<path d="M4.84321 28.6666V10.8053H0.148438V28.6666H4.84321ZM36.0475 28.8431V24.466C35.3592 24.466 34.7768 24.4307 34.3532 24.3601C33.859 24.2895 33.4884 24.113 33.2413 23.8659C32.9942 23.6188 32.8353 23.2658 32.7471 22.8069C32.6765 22.3657 32.6412 21.7832 32.6412 21.0773V14.8293H36.0475V10.8053H32.6412V3.83369H27.9288V21.1126C27.9288 22.5775 28.0523 23.8129 28.2994 24.8013C28.5465 25.772 28.9701 26.5663 29.5525 27.1663C30.135 27.7664 30.9115 28.19 31.847 28.4548C32.8 28.7195 34.0002 28.8431 35.4298 28.8431H36.0475ZM63.016 28.6666V2.45703H58.3036V28.6666H63.016ZM23.3928 12.5526C22.0868 11.1406 20.2512 10.4346 17.9215 10.4346C16.7919 10.4346 15.7683 10.6641 14.8328 11.1229C13.9151 11.5818 13.1208 12.2172 12.5031 13.0291L12.2384 13.3644V13.0644V10.8053H7.59653V28.6666H12.2737V19.1535V19.8065C12.2737 19.7006 12.2737 19.5947 12.2737 19.4888C12.3266 17.8121 12.7325 16.5766 13.5091 15.7824C14.3386 14.9352 15.3447 14.5116 16.4919 14.5116C17.8509 14.5116 18.8922 14.9352 19.5805 15.7471C20.2512 16.559 20.6042 17.7062 20.6042 19.1711V19.2064V28.6489H25.3519V18.5181C25.3696 15.9766 24.6989 13.9645 23.3928 12.5526ZM55.868 19.7006C55.868 18.4122 55.6385 17.212 55.1973 16.0825C54.7384 14.9705 54.103 13.9822 53.3088 13.135C52.4969 12.2878 51.5262 11.6348 50.3966 11.1582C49.267 10.6817 48.0139 10.4523 46.6549 10.4523C45.3665 10.4523 44.1487 10.6994 43.0191 11.1759C41.8895 11.6701 40.9012 12.3231 40.0716 13.1526C39.2421 13.9822 38.5714 14.9705 38.0949 16.1001C37.6007 17.2297 37.3713 18.4475 37.3713 19.7359C37.3713 21.0243 37.6007 22.2421 38.0596 23.3717C38.5185 24.5013 39.1715 25.4896 39.9834 26.3192C40.7953 27.1487 41.8013 27.8194 42.9662 28.2959C44.131 28.7901 45.4194 29.0372 46.7961 29.0372C50.7849 29.0372 53.2558 27.2193 54.7384 25.5249L51.3497 22.9481C50.6437 23.7953 48.9493 24.9425 46.8314 24.9425C45.5077 24.9425 44.4134 24.6425 43.5839 24.0247C42.7544 23.4247 42.1896 22.5775 41.8895 21.5362L41.8366 21.3773H55.868V19.7006ZM41.8719 18.0592C41.8719 16.7531 43.3721 14.4763 46.602 14.4587C49.8318 14.4587 51.3497 16.7355 51.3497 18.0416L41.8719 18.0592Z" fill="#0B69B9"/>
</svg>
