<svg width="118" height="26" viewBox="0 0 118 26" fill="none" xmlns="http://www.w3.org/2000/svg">
<path d="M41.3706 14.4151L40.6721 16.394H40.6139C40.4975 15.9478 40.2841 15.2687 39.9348 14.4539L36.1903 5.04411H32.5234V20.0415H34.9486V10.787C34.9486 10.2049 34.9486 9.54527 34.9292 8.73041C34.9098 8.32297 34.871 8.01255 34.8516 7.77973H34.9098C35.0262 8.36177 35.162 8.78861 35.2591 9.06023L39.7602 20.0027H41.4676L45.9299 8.96322C46.0269 8.711 46.1239 8.20656 46.2209 7.77973H46.2792C46.2209 8.88562 46.1821 9.8751 46.1627 10.4765V19.9833H48.7431V5.0053H45.2121L41.3706 14.4151ZM51.1877 9.23485H53.7099V19.9833H51.1877V9.23485ZM52.4683 4.69488C52.0414 4.69488 51.6922 4.85009 51.4012 5.12171C51.1101 5.39333 50.9549 5.74256 50.9549 6.1694C50.9549 6.57683 51.1101 6.92606 51.4012 7.19768C51.6922 7.4693 52.0414 7.60511 52.4683 7.60511C52.8951 7.60511 53.2637 7.4499 53.5353 7.19768C53.8264 6.92606 53.9816 6.57683 53.9816 6.1694C53.9816 5.76196 53.8264 5.41274 53.5353 5.12171C53.2831 4.85009 52.9145 4.69488 52.4683 4.69488ZM62.6541 9.13784C62.1884 9.04083 61.7034 8.98263 61.2378 8.98263C60.0931 8.98263 59.0454 9.23485 58.1723 9.73929C57.2992 10.2437 56.6008 10.9422 56.1545 11.8153C55.6889 12.7077 55.4561 13.736 55.4561 14.9195C55.4561 15.9478 55.6889 16.8597 56.1351 17.6939C56.5814 18.5088 57.2022 19.1685 58.0365 19.6147C58.832 20.0609 59.7632 20.2937 60.8109 20.2937C62.0138 20.2937 63.0421 20.0415 63.857 19.5759L63.8764 19.5565V17.2283L63.7794 17.3059C63.4107 17.5775 62.9839 17.8103 62.5571 17.9462C62.1108 18.1014 61.7034 18.179 61.3542 18.179C60.3453 18.179 59.5498 17.8879 58.9872 17.2477C58.4051 16.6268 58.1141 15.7732 58.1141 14.7061C58.1141 13.6002 58.4051 12.7271 59.0066 12.0869C59.608 11.4466 60.4035 11.1168 61.3736 11.1168C62.1884 11.1168 63.0227 11.3884 63.7794 11.9317L63.8764 12.0093V9.54527L63.857 9.52587C63.5271 9.39006 63.1585 9.23485 62.6541 9.13784ZM70.9773 9.06023C70.3565 9.06023 69.7745 9.25425 69.27 9.66168C68.8432 10.0109 68.5522 10.5153 68.2999 11.1168H68.2805V9.23485H65.7583V19.9833H68.2805V14.4927C68.2805 13.5614 68.4745 12.7853 68.9014 12.2227C69.3282 11.6406 69.8715 11.3496 70.5311 11.3496C70.7639 11.3496 70.9967 11.4078 71.2878 11.4466C71.5594 11.5242 71.7534 11.6018 71.8892 11.6988L71.9862 11.7765V9.25425L71.928 9.23485C71.7534 9.11844 71.4042 9.06023 70.9773 9.06023ZM77.8455 9.00203C76.08 9.00203 74.6637 9.52587 73.6742 10.5542C72.6653 11.5824 72.1802 12.9988 72.1802 14.7837C72.1802 16.4522 72.6847 17.8103 73.6548 18.7998C74.6248 19.7699 75.9442 20.2743 77.5933 20.2743C79.32 20.2743 80.6975 19.7505 81.687 18.7028C82.6959 17.6551 83.1809 16.2582 83.1809 14.5315C83.1809 12.8241 82.7153 11.466 81.7646 10.4765C80.8527 9.48707 79.514 9.00203 77.8455 9.00203ZM79.8633 17.2671C79.3976 17.8685 78.6604 18.1596 77.7485 18.1596C76.8366 18.1596 76.0994 17.8685 75.5755 17.2283C75.0517 16.6268 74.7995 15.7538 74.7995 14.6479C74.7995 13.5032 75.0711 12.6301 75.5755 12.0093C76.0994 11.3884 76.8172 11.078 77.7291 11.078C78.6216 11.078 79.32 11.369 79.8245 11.9705C80.3289 12.5719 80.6005 13.445 80.6005 14.5897C80.5617 15.7538 80.3483 16.6656 79.8633 17.2671ZM88.8074 13.6972C88.0119 13.3674 87.5075 13.1152 87.2747 12.9017C87.0807 12.7077 86.9836 12.4361 86.9836 12.0869C86.9836 11.7959 87.1001 11.5048 87.3911 11.3108C87.6821 11.1168 88.0119 11.0198 88.497 11.0198C88.9238 11.0198 89.37 11.0974 89.7969 11.2138C90.2237 11.3302 90.6117 11.5048 90.9222 11.7376L91.0192 11.8153V9.44826L90.961 9.42886C90.6699 9.31245 90.2819 9.19604 89.8163 9.09904C89.3506 9.02143 88.9238 8.98263 88.5746 8.98263C87.3717 8.98263 86.3822 9.27365 85.6061 9.9139C84.8301 10.5153 84.4614 11.3302 84.4614 12.2809C84.4614 12.7853 84.5391 13.2316 84.7137 13.6002C84.8883 13.9688 85.1405 14.3181 85.4897 14.6091C85.839 14.8807 86.3434 15.1911 87.0419 15.4822C87.6239 15.7344 88.0701 15.9284 88.3418 16.0836C88.6134 16.2388 88.788 16.4134 88.9238 16.5492C89.0208 16.7045 89.079 16.8985 89.079 17.1507C89.079 17.8685 88.5358 18.2178 87.4299 18.2178C87.003 18.2178 86.5568 18.1402 86.033 17.9656C85.5091 17.7909 85.0241 17.5387 84.6167 17.2477L84.5196 17.1701V19.6341L84.5779 19.6535C84.9465 19.8281 85.3927 19.9445 85.936 20.0803C86.4792 20.1773 86.9642 20.2549 87.3911 20.2549C88.691 20.2549 89.7581 19.9639 90.5147 19.3237C91.2908 18.7028 91.6982 17.9073 91.6982 16.8791C91.6982 16.1612 91.5042 15.521 91.0774 15.0359C90.5147 14.5703 89.8163 14.0852 88.8074 13.6972ZM98.353 9.00203C96.5874 9.00203 95.1711 9.52587 94.1816 10.5542C93.1921 11.5824 92.6877 12.9988 92.6877 14.7837C92.6877 16.4522 93.1921 17.8103 94.1622 18.7998C95.1323 19.7699 96.4516 20.2743 98.1007 20.2743C99.8275 20.2743 101.205 19.7505 102.194 18.7028C103.203 17.6551 103.688 16.2582 103.688 14.5315C103.688 12.8241 103.223 11.466 102.272 10.4765C101.36 9.48707 100.021 9.00203 98.353 9.00203ZM100.351 17.2671C99.8857 17.8685 99.1484 18.1596 98.2366 18.1596C97.3053 18.1596 96.5874 17.8685 96.0636 17.2283C95.5397 16.6268 95.2875 15.7538 95.2875 14.6479C95.2875 13.5032 95.5591 12.6301 96.0636 12.0093C96.5874 11.3884 97.3053 11.078 98.2172 11.078C99.0902 11.078 99.8081 11.369 100.313 11.9705C100.817 12.5719 101.089 13.445 101.089 14.5897C101.089 15.7538 100.836 16.6656 100.351 17.2671ZM117.172 11.3108V9.23485H114.631V6.05299L114.553 6.07239L112.147 6.79025L112.089 6.80965V9.23485H108.287V7.87674C108.287 7.25589 108.442 6.77085 108.713 6.46042C108.985 6.15 109.392 5.99478 109.897 5.99478C110.246 5.99478 110.615 6.07239 111.022 6.247L111.119 6.30521V4.11283L111.061 4.09343C110.712 3.97702 110.246 3.89941 109.645 3.89941C108.888 3.89941 108.228 4.07403 107.627 4.36505C107.025 4.69488 106.579 5.14111 106.249 5.74256C105.92 6.32461 105.745 6.98426 105.745 7.74093V9.23485H103.979V11.2914H105.745V19.9833H108.287V11.3108H112.089V16.8403C112.089 19.1102 113.156 20.2549 115.291 20.2549C115.64 20.2549 116.008 20.1967 116.358 20.1385C116.726 20.0609 116.998 19.9639 117.153 19.8863L117.172 19.8669V17.7909L117.075 17.8685C116.92 17.9656 116.784 18.0432 116.552 18.1014C116.358 18.1596 116.183 18.179 116.047 18.179C115.543 18.179 115.194 18.0626 114.941 17.7715C114.708 17.4999 114.592 17.0537 114.592 16.394V11.3108H117.172Z" fill="#737373"/>
<path d="M0 0.000976562H11.8932V11.8941H0V0.000976562Z" fill="#F25022"/>
<path d="M13.1367 0H25.0299V11.8932H13.1367V0Z" fill="#7FBA00"/>
<path d="M0 13.1367H11.8932V25.0299H0V13.1367Z" fill="#00A4EF"/>
<path d="M13.1367 13.1367H25.0299V25.0299H13.1367V13.1367Z" fill="#FFB900"/>
</svg>
