<svg width="23" height="22" viewBox="0 0 23 22" fill="none" xmlns="http://www.w3.org/2000/svg">
<path d="M0.917969 19.5314V6.1377H22.8697V19.5314C22.8601 20.1306 22.6117 20.7018 22.1788 21.1201C21.7459 21.5383 21.1637 21.7698 20.5593 21.7639H3.22838C2.62395 21.7698 2.04171 21.5383 1.60883 21.1201C1.17594 20.7018 0.927577 20.1306 0.917969 19.5314Z" fill="#B9F6FF"/>
<path d="M22.8697 3.90746V7.25824H0.917969V3.90746C0.927577 3.30822 1.17594 2.73709 1.60883 2.3188C2.04171 1.90051 2.62395 1.66903 3.22838 1.67492H20.5585C21.163 1.66882 21.7455 1.9002 22.1785 2.31852C22.6116 2.73684 22.8601 3.30808 22.8697 3.90746Z" fill="#FF5744"/>
<path d="M17.0956 2.23256C16.7633 2.24029 16.4406 2.34509 16.168 2.53381C15.8955 2.72254 15.6851 2.98681 15.5633 3.29352C15.4415 3.60023 15.4137 3.93575 15.4834 4.25806C15.5531 4.58036 15.7171 4.87513 15.9549 5.10543C16.1928 5.33573 16.4939 5.49134 16.8205 5.55276C17.1471 5.61418 17.4848 5.57868 17.7912 5.45071C18.0975 5.32274 18.359 5.10798 18.5429 4.83334C18.7267 4.55871 18.8247 4.23639 18.8247 3.90677C18.8186 3.45764 18.6332 3.02922 18.3091 2.71539C17.985 2.40157 17.5486 2.22794 17.0956 2.23256ZM6.69361 2.23256C6.36144 2.24106 6.03918 2.3465 5.76714 2.53568C5.49511 2.72486 5.28538 2.98938 5.1642 3.29615C5.04302 3.60291 5.01577 3.93829 5.08587 4.26033C5.15596 4.58237 5.32028 4.87676 5.55827 5.10667C5.79626 5.33659 6.09734 5.49181 6.42386 5.55292C6.75037 5.61404 7.08781 5.57833 7.39396 5.45026C7.70011 5.32219 7.96136 5.10745 8.14504 4.83291C8.32872 4.55837 8.42667 4.23622 8.42662 3.90677C8.42056 3.45695 8.23461 3.02793 7.90965 2.71399C7.58469 2.40005 7.1473 2.22689 6.69361 2.23256Z" fill="#B71C1C"/>
<path d="M17.0937 5.50053e-05C16.7915 -0.0028932 16.5004 0.112778 16.2839 0.32183C16.0674 0.530882 15.9431 0.816345 15.9381 1.11593V3.90681C15.946 4.20538 16.0712 4.4891 16.2869 4.69751C16.5027 4.90592 16.7921 5.02255 17.0933 5.02255C17.3945 5.02255 17.6839 4.90592 17.8997 4.69751C18.1154 4.4891 18.2406 4.20538 18.2485 3.90681V1.11593C18.2435 0.816483 18.1193 0.531139 17.903 0.322109C17.6866 0.11308 17.3958 -0.00268433 17.0937 5.50053e-05ZM6.69564 5.50053e-05C6.39345 -0.0028932 6.10236 0.112778 5.88586 0.32183C5.66937 0.530882 5.54505 0.816345 5.54004 1.11593V3.90681C5.54793 4.20538 5.6731 4.4891 5.88888 4.69751C6.10467 4.90592 6.394 5.02255 6.69525 5.02255C6.99649 5.02255 7.28583 4.90592 7.50161 4.69751C7.71739 4.4891 7.84256 4.20538 7.85045 3.90681V1.11593C7.84544 0.816483 7.72124 0.531139 7.50491 0.322109C7.28859 0.11308 6.99769 -0.00268433 6.69564 5.50053e-05Z" fill="#B0BEC5"/>
<path d="M5.53809 9.48734H7.8485V11.7199H5.53809V9.48734ZM9.00411 9.48734H11.3145V11.7199H9.00411V9.48734ZM12.4701 9.48734H14.7805V11.7199H12.4701V9.48734ZM15.9361 9.48734H18.2466V11.7199H15.9361V9.48734ZM5.53809 12.8358H7.8485V15.0707H5.53809V12.8358ZM9.00411 12.8358H11.3145V15.0707H9.00411V12.8358ZM12.4701 12.8358H14.7805V15.0707H12.4701V12.8358ZM15.9361 12.8358H18.2466V15.0707H15.9361V12.8358ZM5.53809 16.1842H7.8485V18.4167H5.53809V16.1842ZM9.00411 16.1842H11.3145V18.4167H9.00411V16.1842ZM12.4701 16.1842H14.7805V18.4167H12.4701V16.1842ZM15.9361 16.1842H18.2466V18.4167H15.9361V16.1842Z" fill="#00ADE6"/>
</svg>
