<svg width="24" height="24" viewBox="0 0 24 24" fill="none" xmlns="http://www.w3.org/2000/svg">
<path fill-rule="evenodd" clip-rule="evenodd" d="M11.767 19.5455C11.3277 19.1062 11.3277 18.3938 11.767 17.9545L17.7215 12L11.767 6.04549C11.3277 5.60615 11.3277 4.89384 11.767 4.45451C12.2063 4.01516 12.9187 4.01516 13.358 4.45451L20.108 11.2045C20.5473 11.6438 20.5473 12.3562 20.108 12.7955L13.358 19.5455C12.9187 19.9848 12.2063 19.9848 11.767 19.5455Z" fill="#00ADE6"/>
<path fill-rule="evenodd" clip-rule="evenodd" d="M19.5 12C19.5 12.6213 18.9963 13.125 18.375 13.125L4.6875 13.125C4.06618 13.125 3.5625 12.6213 3.5625 12C3.5625 11.3787 4.06618 10.875 4.6875 10.875L18.375 10.875C18.9963 10.875 19.5 11.3787 19.5 12Z" fill="#00ADE6"/>
</svg>
