<svg xmlns="http://www.w3.org/2000/svg" width="80.527" height="80.529" viewBox="0 0 80.527 80.529">
  <g id="discount_ribbon" data-name="discount ribbon" transform="matrix(0.978, -0.208, 0.208, 0.978, -703.041, 144.836)">
    <path id="Path_20752" data-name="Path 20752" d="M65.205,37.8a8.07,8.07,0,0,0,1.7-4.35,8.077,8.077,0,0,0-1.7-4.353,6.563,6.563,0,0,1-.952-1.772,6.8,6.8,0,0,1,.2-2.1,7.847,7.847,0,0,0-.088-4.583A7.906,7.906,0,0,0,61.151,17.3,6.732,6.732,0,0,1,59.565,16a6.768,6.768,0,0,1-.607-1.987A7.886,7.886,0,0,0,57.11,9.8a7.886,7.886,0,0,0-4.221-1.848A6.789,6.789,0,0,1,50.9,7.343a6.745,6.745,0,0,1-1.3-1.587A7.9,7.9,0,0,0,46.263,2.54a5.4,5.4,0,0,0-2.107-.392,13.382,13.382,0,0,0-2.476.3,10.273,10.273,0,0,1-1.725.232,2.035,2.035,0,0,1-.371-.03A6.712,6.712,0,0,1,37.811,1.7,8.076,8.076,0,0,0,33.459,0a8.076,8.076,0,0,0-4.352,1.7,6.693,6.693,0,0,1-1.773.952,2.047,2.047,0,0,1-.372.03,10.328,10.328,0,0,1-1.725-.232,13.4,13.4,0,0,0-2.476-.3,5.4,5.4,0,0,0-2.106.392,7.911,7.911,0,0,0-3.343,3.215,6.766,6.766,0,0,1-1.3,1.587,6.744,6.744,0,0,1-1.986.606A7.882,7.882,0,0,0,9.808,9.8a7.884,7.884,0,0,0-1.848,4.221A6.739,6.739,0,0,1,7.352,16a6.685,6.685,0,0,1-1.586,1.3A7.907,7.907,0,0,0,2.55,20.645a7.839,7.839,0,0,0-.09,4.583,6.817,6.817,0,0,1,.2,2.1A6.616,6.616,0,0,1,1.71,29.1,8.068,8.068,0,0,0,.01,33.45a8.071,8.071,0,0,0,1.7,4.35,6.625,6.625,0,0,1,.952,1.775,6.81,6.81,0,0,1-.2,2.1,7.844,7.844,0,0,0,.089,4.582,7.909,7.909,0,0,0,3.216,3.342,6.706,6.706,0,0,1,1.586,1.3,6.763,6.763,0,0,1,.607,1.985A7.882,7.882,0,0,0,9.807,57.1a7.893,7.893,0,0,0,4.222,1.848,6.725,6.725,0,0,1,1.984.605,6.7,6.7,0,0,1,1.3,1.588,7.9,7.9,0,0,0,3.339,3.216,5.419,5.419,0,0,0,2.107.39,13.382,13.382,0,0,0,2.476-.3,10.312,10.312,0,0,1,1.726-.233,1.861,1.861,0,0,1,.372.032,6.624,6.624,0,0,1,1.773.951,8.067,8.067,0,0,0,4.352,1.7,8.067,8.067,0,0,0,4.352-1.7,6.6,6.6,0,0,1,1.774-.951,1.85,1.85,0,0,1,.371-.032,10.341,10.341,0,0,1,1.725.233,13.3,13.3,0,0,0,2.476.3,5.415,5.415,0,0,0,2.107-.39A7.908,7.908,0,0,0,49.6,61.143a6.73,6.73,0,0,1,1.3-1.588,6.748,6.748,0,0,1,1.985-.605,7.89,7.89,0,0,0,4.223-1.85,7.877,7.877,0,0,0,1.846-4.222,6.773,6.773,0,0,1,.607-1.985,6.694,6.694,0,0,1,1.587-1.3,7.9,7.9,0,0,0,3.215-3.339,7.847,7.847,0,0,0,.089-4.583,6.819,6.819,0,0,1-.2-2.1A6.646,6.646,0,0,1,65.205,37.8Z" transform="translate(715.346 18.807)" fill="#00353a" stroke="#57e1ed" stroke-width="1"/>
    <text id="_10_off_" data-name="10%
off!" transform="translate(748.938 48.566)" fill="#57e1ed" font-size="19" font-family="Lato-Semibold, Lato" font-weight="600" letter-spacing="0.04em"><tspan x="-19.484" y="0">7.5%</tspan><tspan x="-15.803" y="22">off!</tspan></text>
  </g>
</svg>
