<svg width="100%" height="100%" viewBox="0 0 101 57" fill="none" xmlns="http://www.w3.org/2000/svg">
<g opacity="0.65">
<path d="M54.2886 56.0226C53.7879 56.0223 53.3079 55.8212 52.9539 55.4635C52.5998 55.1057 52.4008 54.6206 52.4006 54.1147V34.7975C52.4032 32.2678 53.3989 29.8424 55.169 28.0537C56.9391 26.2649 59.3392 25.2588 61.8426 25.2561H73.4055C75.9089 25.2588 78.309 26.2649 80.0791 28.0537C81.8492 29.8424 82.8449 32.2678 82.8475 34.7975V54.1147C82.8473 54.6206 82.6483 55.1057 82.2943 55.4635C81.9402 55.8212 81.4602 56.0223 80.9595 56.0226H54.2886ZM86.2995 56.0226C86.515 55.4101 86.6249 54.7648 86.6245 54.1147V34.7955C86.6247 33.2367 86.3539 31.69 85.8245 30.2259H90.8815C93.3845 30.2288 95.7842 31.2349 97.5541 33.0234C99.324 34.812 100.32 37.2369 100.323 39.7662V50.2969C100.321 51.8147 99.7236 53.2699 98.6615 54.3431C97.5995 55.4163 96.1595 56.02 94.6575 56.0216L86.2995 56.0226ZM84.2175 27.1215C82.4434 26.3476 80.9812 24.989 80.0695 23.2674C79.1275 21.4792 78.8418 19.4119 79.263 17.4313C79.6842 15.4507 80.7852 13.6845 82.371 12.4453C83.9569 11.206 85.9254 10.5736 87.9283 10.6599C89.9311 10.7462 91.8392 11.5457 93.3149 12.9168C94.7906 14.288 95.7388 16.1425 95.9917 18.1521C96.2445 20.1617 95.7857 22.1969 94.6965 23.8976C93.6073 25.5983 91.9579 26.8548 90.0401 27.4448C88.1223 28.0349 86.0598 27.9203 84.2175 27.1215ZM62.0766 21.4454C59.6724 20.0843 57.8413 17.8847 56.9258 15.2581C56.0104 12.6315 56.0733 9.75782 57.1027 7.17467C58.1322 4.59152 60.0577 2.47588 62.5191 1.22353C64.9805 -0.0288094 67.809 -0.332058 70.4756 0.370522C73.1422 1.0731 75.4642 2.73337 77.0071 5.04074C78.55 7.3481 79.2082 10.1445 78.8585 12.9067C78.5088 15.669 77.1752 18.2079 75.1071 20.0484C73.0391 21.8889 70.3783 22.905 67.6225 22.9066C65.6796 22.9052 63.7694 22.4004 62.0746 21.4403L62.0766 21.4454Z" fill="url(#paint0_linear_icon)"/>
<path d="M46.034 56.0226C46.5347 56.0223 47.0147 55.8212 47.3687 55.4635C47.7227 55.1057 47.9217 54.6206 47.922 54.1147V34.7975C47.9194 32.2678 46.9237 29.8424 45.1536 28.0537C43.3834 26.2649 40.9834 25.2588 38.48 25.2561H26.917C24.4136 25.2588 22.0136 26.2649 20.2434 28.0537C18.4733 29.8424 17.4776 32.2678 17.475 34.7975V54.1147C17.4753 54.6206 17.6743 55.1057 18.0283 55.4635C18.3823 55.8212 18.8624 56.0223 19.363 56.0226H46.034ZM14.023 56.0226C13.8076 55.4101 13.6976 54.7648 13.698 54.1147V34.7955C13.6979 33.2367 13.9686 31.69 14.498 30.2259H9.441C6.93799 30.2288 4.53832 31.2349 2.76842 33.0234C0.998521 34.812 0.00291126 37.2369 0 39.7662V50.2969C0.00158826 51.8147 0.598946 53.2699 1.661 54.3431C2.72304 55.4163 4.16304 56.02 5.665 56.0216L14.023 56.0226ZM16.105 27.1215C17.8791 26.3476 19.3413 24.989 20.253 23.2674C21.195 21.4792 21.4807 19.4119 21.0595 17.4313C20.6383 15.4507 19.5373 13.6845 17.9515 12.4453C16.3657 11.206 14.3971 10.5736 12.3943 10.6599C10.3914 10.7462 8.48328 11.5457 7.00758 12.9168C5.53188 14.288 4.58372 16.1425 4.33088 18.1521C4.07803 20.1617 4.53681 22.1969 5.62602 23.8976C6.71524 25.5983 8.36467 26.8548 10.2825 27.4448C12.2002 28.0349 14.2627 27.9203 16.105 27.1215ZM38.246 21.4454C40.6502 20.0843 42.4813 17.8847 43.3967 15.2581C44.3122 12.6315 44.2493 9.75782 43.2198 7.17467C42.1904 4.59152 40.2648 2.47588 37.8035 1.22353C35.3421 -0.0288094 32.5135 -0.332058 29.8469 0.370522C27.1803 1.0731 24.8583 2.73337 23.3154 5.04074C21.7725 7.3481 21.1143 10.1445 21.464 12.9067C21.8137 15.669 23.1474 18.2079 25.2154 20.0484C27.2835 21.8889 29.9442 22.905 32.7 22.9066C34.643 22.9052 36.5531 22.4004 38.248 21.4403L38.246 21.4454Z" fill="url(#paint1_linear_icon)"/>
</g>
<defs>
<linearGradient id="paint0_linear_icon" x1="67.6219" y1="10.4762" x2="93.2126" y2="64.4889" gradientUnits="userSpaceOnUse">
<stop stop-color="#34E4EA"/>
<stop offset="1" stop-color="#00ADE6"/>
</linearGradient>
<linearGradient id="paint1_linear_icon" x1="67.6219" y1="10.4762" x2="93.2126" y2="64.4889" gradientUnits="userSpaceOnUse">
<stop stop-color="#34E4EA"/>
<stop offset="1" stop-color="#00ADE6"/>
</linearGradient>
</defs>
</svg>
