<svg xmlns="http://www.w3.org/2000/svg" width="65.402" height="55.48" viewBox="0 0 65.402 55.48">
    <defs>
        <linearGradient id="prefix__linear-gradient" x1=".5" x2="1" y1=".187" y2="1.091" gradientUnits="objectBoundingBox">
            <stop offset="0" stop-color="#34e4ea"/>
            <stop offset="1" stop-color="#00ade6"/>
        </linearGradient>
    </defs>
    <g id="prefix__team" opacity="0.65">
        <path id="prefix__Union_10" fill="url(#prefix__linear-gradient)" d="M19.366 55.48a1.889 1.889 0 0 1-1.888-1.888V34.476a9.452 9.452 0 0 1 9.442-9.442h11.563a9.452 9.452 0 0 1 9.442 9.442v19.116a1.889 1.889 0 0 1-1.888 1.888zm-13.7 0A5.671 5.671 0 0 1 0 49.814v-10.42a9.453 9.453 0 0 1 9.442-9.442H14.5a13.173 13.173 0 0 0-.8 4.523v19.117a5.632 5.632 0 0 0 .325 1.888zm45.711 0a5.628 5.628 0 0 0 .325-1.888V34.474a13.173 13.173 0 0 0-.8-4.522h5.057a9.452 9.452 0 0 1 9.441 9.441v10.421a5.671 5.671 0 0 1-5.665 5.665zm-2.082-28.6a8.546 8.546 0 0 1-4.148-3.814 8.493 8.493 0 1 1 4.148 3.814zm-45.021-7.8a8.49 8.49 0 1 1 8.492 8.491 8.5 8.5 0 0 1-8.494-8.497zm22.88 2.183a11.334 11.334 0 1 1 5.546 1.446 11.363 11.363 0 0 1-5.548-1.451z" data-name="Union 10"/>
    </g>
</svg>
