<svg width="61" height="61" viewBox="0 0 61 61" fill="none" xmlns="http://www.w3.org/2000/svg">
<path fill-rule="evenodd" clip-rule="evenodd" d="M33.9469 4.40863C35.4886 3.77001 37.1851 3.60292 38.8219 3.92849C40.4586 4.25405 41.962 5.05764 43.142 6.23765C44.322 7.41765 45.1256 8.92107 45.4512 10.5578C45.7767 12.1945 45.6096 13.891 44.971 15.4328C44.3324 16.9745 43.2509 18.2923 41.8634 19.2194C40.4759 20.1465 38.8446 20.6414 37.1758 20.6414H28.7383V12.2039C28.7383 10.5351 29.2331 8.90378 30.1603 7.51624C31.0874 6.1287 32.4051 5.04724 33.9469 4.40863ZM38.0903 7.60643C37.181 7.42556 36.2385 7.51839 35.382 7.87318C34.5254 8.22796 33.7933 8.82877 33.2783 9.59963C32.7632 10.3705 32.4883 11.2768 32.4883 12.2039V16.8914H37.1758C38.1029 16.8914 39.0092 16.6164 39.78 16.1014C40.5509 15.5863 41.1517 14.8542 41.5065 13.9977C41.8613 13.1412 41.9541 12.1987 41.7732 11.2894C41.5923 10.3801 41.1459 9.54486 40.4903 8.8893C39.8348 8.23374 38.9996 7.7873 38.0903 7.60643Z" fill="white"/>
<path fill-rule="evenodd" clip-rule="evenodd" d="M25.8446 7.87318C24.9881 7.51839 24.0456 7.42556 23.1363 7.60643C22.227 7.7873 21.3918 8.23374 20.7362 8.8893C20.0807 9.54486 19.6342 10.3801 19.4534 11.2894C19.2725 12.1987 19.3653 13.1412 19.7201 13.9977C20.0749 14.8542 20.6757 15.5863 21.4465 16.1014C22.2174 16.6164 23.1237 16.8914 24.0508 16.8914H28.7383V12.2039C28.7383 11.2768 28.4634 10.3705 27.9483 9.59963C27.4332 8.82877 26.7011 8.22796 25.8446 7.87318ZM30.6133 18.7664C32.4883 18.7664 32.4883 18.7663 32.4883 18.7663V12.2039C32.4883 10.5351 31.9934 8.90378 31.0663 7.51624C30.1392 6.1287 28.8214 5.04724 27.2797 4.40863C25.7379 3.77001 24.0414 3.60292 22.4047 3.92849C20.768 4.25405 19.2646 5.05764 18.0846 6.23765C16.9046 7.41765 16.101 8.92107 15.7754 10.5578C15.4498 12.1945 15.6169 13.891 16.2556 15.4328C16.8942 16.9745 17.9756 18.2923 19.3632 19.2194C20.7507 20.1465 22.382 20.6414 24.0508 20.6414H32.4883V18.7663L30.6133 18.7664Z" fill="white"/>
<path fill-rule="evenodd" clip-rule="evenodd" d="M11.8633 20.6414C10.8277 20.6414 9.98828 21.4808 9.98828 22.5164V28.1414C9.98828 29.1769 10.8277 30.0164 11.8633 30.0164H49.3633C50.3988 30.0164 51.2383 29.1769 51.2383 28.1414V22.5164C51.2383 21.4808 50.3988 20.6414 49.3633 20.6414H11.8633ZM6.23828 22.5164C6.23828 19.4098 8.75668 16.8914 11.8633 16.8914H49.3633C52.4699 16.8914 54.9883 19.4098 54.9883 22.5164V28.1414C54.9883 31.248 52.4699 33.7664 49.3633 33.7664H11.8633C8.75668 33.7664 6.23828 31.248 6.23828 28.1414V22.5164Z" fill="white"/>
<path fill-rule="evenodd" clip-rule="evenodd" d="M11.8633 30.0164C12.8988 30.0164 13.7383 30.8558 13.7383 31.8914V48.7664C13.7383 49.7609 14.1334 50.7147 14.8366 51.418C15.5399 52.1213 16.4937 52.5164 17.4883 52.5164H43.7383C44.7328 52.5164 45.6867 52.1213 46.3899 51.418C47.0932 50.7147 47.4883 49.7609 47.4883 48.7664V31.8914C47.4883 30.8558 48.3277 30.0164 49.3633 30.0164C50.3988 30.0164 51.2383 30.8558 51.2383 31.8914V48.7664C51.2383 50.7555 50.4481 52.6631 49.0416 54.0697C47.6351 55.4762 45.7274 56.2664 43.7383 56.2664H17.4883C15.4992 56.2664 13.5915 55.4762 12.185 54.0697C10.7785 52.6631 9.98828 50.7555 9.98828 48.7664V31.8914C9.98828 30.8558 10.8277 30.0164 11.8633 30.0164Z" fill="white"/>
<path fill-rule="evenodd" clip-rule="evenodd" d="M30.6133 16.8914C31.6488 16.8914 32.4883 17.7308 32.4883 18.7664V54.3914C32.4883 55.4269 31.6488 56.2664 30.6133 56.2664C29.5777 56.2664 28.7383 55.4269 28.7383 54.3914V18.7664C28.7383 17.7308 29.5777 16.8914 30.6133 16.8914Z" fill="white"/>
</svg>
