<svg width="100%" height="100%" viewBox="0 0 24 25" fill="none" xmlns="http://www.w3.org/2000/svg">
<path fill-rule="evenodd" clip-rule="evenodd" d="M4.875 5.26855C4.57663 5.26855 4.29048 5.38708 4.0795 5.59806C3.86853 5.80904 3.75 6.09519 3.75 6.39355V17.6436C3.75 17.9419 3.86853 18.2281 4.0795 18.439C4.29048 18.65 4.57663 18.7686 4.875 18.7686H12.375C12.6734 18.7686 12.9595 18.65 13.1705 18.439C13.3815 18.2281 13.5 17.9419 13.5 17.6436V15.7686C13.5 15.3543 13.8358 15.0186 14.25 15.0186C14.6642 15.0186 15 15.3543 15 15.7686V17.6436C15 18.3397 14.7234 19.0074 14.2312 19.4997C13.7389 19.992 13.0712 20.2686 12.375 20.2686H4.875C4.17881 20.2686 3.51113 19.992 3.01884 19.4997C2.52656 19.0074 2.25 18.3397 2.25 17.6436V6.39355C2.25 5.69736 2.52656 5.02968 3.01884 4.5374C3.51113 4.04512 4.17881 3.76855 4.875 3.76855H12C12.7042 3.76855 13.4264 4.04688 13.9759 4.47739C14.5225 4.90565 15 5.57096 15 6.39355V8.26855C15 8.68277 14.6642 9.01855 14.25 9.01855C13.8358 9.01855 13.5 8.68277 13.5 8.26855V6.39355C13.5 6.18068 13.3703 5.90849 13.0507 5.65812C12.7341 5.41 12.3312 5.26855 12 5.26855H4.875Z" fill="#FF5744"/>
<path fill-rule="evenodd" clip-rule="evenodd" d="M16.7197 7.73822C17.0126 7.44533 17.4874 7.44533 17.7803 7.73822L21.5303 11.4882C21.8232 11.7811 21.8232 12.256 21.5303 12.5489L17.7803 16.2989C17.4874 16.5918 17.0126 16.5918 16.7197 16.2989C16.4268 16.006 16.4268 15.5311 16.7197 15.2382L19.9393 12.0186L16.7197 8.79888C16.4268 8.50599 16.4268 8.03112 16.7197 7.73822Z" fill="#FF5744"/>
<path fill-rule="evenodd" clip-rule="evenodd" d="M7.5 12.0186C7.5 11.6043 7.83579 11.2686 8.25 11.2686H20.25C20.6642 11.2686 21 11.6043 21 12.0186C21 12.4328 20.6642 12.7686 20.25 12.7686H8.25C7.83579 12.7686 7.5 12.4328 7.5 12.0186Z" fill="#FF5744"/>
</svg>
