<svg width="24" height="25" viewBox="0 0 24 25" fill="none" xmlns="http://www.w3.org/2000/svg">
<path d="M0.833085 0.0208717C0.36007 0.0672462 -0.000421739 0.465447 3.7031e-07 0.940752V23.0978C0.00206147 23.6054 0.413656 24.0164 0.921517 24.0174H23.0801C23.5874 24.0154 23.9979 23.6048 24 23.0978L23.9998 0.0206133C23.6976 0.123254 16.1296 0.0206133 15.8231 0.0206133C15.1883 0.0206133 13.8653 3.58591 13.3162 3.10649C13.1872 2.99375 14.2886 4.6792 14.2066 4.37253L11.3772 10.2915C10.8324 10.8362 16.2823 11.1592 15.542 11.1157C14.8017 11.0722 14.1889 10.7453 13.7348 10.2915C13.281 9.83762 12.9543 9.21952 12.9106 8.47893C12.8669 7.73861 13.1829 6.91006 13.7276 6.36528L16.9864 3.10649C16.866 3.07413 16.6172 3.06568 16.4472 2.89544C15.9393 2.37151 15.7027 1.72456 15.67 1.09013C15.6525 0.737686 15.7048 0.373285 15.8231 0.0206133H0.921095C0.89327 0.0191706 0.862147 0.0191706 0.832879 0.0206133L0.833085 0.0208717ZM4.61465 10.1726H9.22962C10.4621 10.1726 10.4621 12.0212 9.22962 12.0212H4.61465C3.38236 12.0212 3.38236 10.1726 4.61465 10.1726ZM4.51902 13.8679C4.55035 13.8662 4.58333 13.8662 4.61465 13.8679H15.6913C16.9502 13.8401 16.9502 15.7408 15.6913 15.7128H4.61465C3.3574 15.8055 3.2591 13.9054 4.51902 13.8679ZM4.51902 17.5595C4.55035 17.5578 4.58333 17.5578 4.61465 17.5595H19.3848C20.6165 17.5589 20.6165 19.4073 19.3848 19.4081H4.61465C3.38294 19.4724 3.28733 17.6238 4.51902 17.5595Z" fill="black" fill-opacity="0.24"/>
</svg>
