<svg width="24" height="24" viewBox="0 0 24 24" fill="none" xmlns="http://www.w3.org/2000/svg">
<path d="M0.849215 0.0247768C0.376606 0.0711115 0.0164243 0.46897 0.0168461 0.943867V23.0819C0.0189054 23.5891 0.430147 23.9997 0.937571 24.0007H23.0771C23.5839 23.9987 23.9942 23.5885 23.9962 23.0819L23.996 8.15309C23.6941 8.25564 23.3832 8.30445 23.0769 8.30445C22.4427 8.30445 21.7785 8.10223 21.23 7.62323C21.101 7.51058 21.0273 7.30444 20.9454 6.99804L17.6554 10.2866C17.1112 10.8308 16.2852 11.1535 15.5455 11.1101C14.8058 11.0666 14.1935 10.74 13.7399 10.2866C13.2864 9.83309 12.96 9.21553 12.9164 8.47558C12.8727 7.73589 13.1884 6.90805 13.7327 6.36373L16.9886 3.10775C16.8684 3.07542 16.6198 3.06697 16.4499 2.89687C15.9425 2.3734 15.7061 1.727 15.6734 1.09312C15.6559 0.740976 15.7082 0.376888 15.8264 0.0245186H0.937149C0.909349 0.0230771 0.878458 0.0233353 0.849215 0.0247768ZM18.3707 0.0247768C17.1686 0.113533 17.2613 1.90577 18.4662 1.86992H20.8429L15.0407 7.67209C14.1688 8.544 15.4768 9.85225 16.3487 8.98035L22.1509 3.1729V5.55492C22.1787 6.75775 23.9695 6.75775 23.996 5.55492V1.06459C23.996 0.336236 23.7102 0.0248295 22.9347 0.0248295H18.466C18.4347 0.0231821 18.4024 0.0231294 18.3707 0.0247768ZM4.62753 10.1678H9.23854C10.47 10.1678 10.47 12.0148 9.23854 12.0148H4.62753C3.3963 12.0148 3.3963 10.1678 4.62753 10.1678ZM4.53198 13.8599C4.56328 13.8583 4.59624 13.8583 4.62753 13.8599H15.6947C16.9525 13.8321 16.9525 15.7312 15.6947 15.7032H4.62753C3.37136 15.7959 3.27315 13.8974 4.53198 13.8599ZM4.53198 17.5483C4.56328 17.5467 4.59624 17.5467 4.62753 17.5483H19.385C20.6156 17.5477 20.6156 19.3945 19.385 19.3953H4.62753C3.39688 19.4596 3.30135 17.6126 4.53198 17.5483Z" fill="black" fill-opacity="0.24"/>
</svg>
