<svg width="22" height="23" viewBox="0 0 22 23" fill="none" xmlns="http://www.w3.org/2000/svg">
<path d="M18.4 14.0186C18.2669 14.3202 18.2272 14.6547 18.286 14.9791C18.3448 15.3035 18.4995 15.6029 18.73 15.8386L18.79 15.8986C18.976 16.0843 19.1235 16.3049 19.2241 16.5477C19.3248 16.7905 19.3766 17.0507 19.3766 17.3136C19.3766 17.5764 19.3248 17.8366 19.2241 18.0794C19.1235 18.3222 18.976 18.5428 18.79 18.7286C18.6043 18.9145 18.3837 19.062 18.1409 19.1627C17.8981 19.2633 17.6378 19.3151 17.375 19.3151C17.1122 19.3151 16.8519 19.2633 16.6091 19.1627C16.3663 19.062 16.1457 18.9145 15.96 18.7286L15.9 18.6686C15.6643 18.438 15.365 18.2834 15.0406 18.2246C14.7162 18.1657 14.3816 18.2054 14.08 18.3386C13.7842 18.4653 13.532 18.6758 13.3543 18.9441C13.1766 19.2124 13.0813 19.5268 13.08 19.8486V20.0186C13.08 20.549 12.8693 21.0577 12.4942 21.4328C12.1191 21.8078 11.6104 22.0186 11.08 22.0186C10.5496 22.0186 10.0409 21.8078 9.66579 21.4328C9.29071 21.0577 9.08 20.549 9.08 20.0186V19.9286C9.07226 19.5976 8.96512 19.2765 8.77251 19.0073C8.5799 18.738 8.31074 18.5328 8 18.4186C7.69838 18.2854 7.36381 18.2457 7.03941 18.3046C6.71502 18.3634 6.41568 18.518 6.18 18.7486L6.12 18.8086C5.93425 18.9945 5.71368 19.142 5.47088 19.2427C5.22808 19.3433 4.96783 19.3951 4.705 19.3951C4.44217 19.3951 4.18192 19.3433 3.93912 19.2427C3.69632 19.142 3.47575 18.9945 3.29 18.8086C3.10405 18.6228 2.95653 18.4022 2.85588 18.1594C2.75523 17.9166 2.70343 17.6564 2.70343 17.3936C2.70343 17.1307 2.75523 16.8705 2.85588 16.6277C2.95653 16.3849 3.10405 16.1643 3.29 15.9786L3.35 15.9186C3.58054 15.6829 3.73519 15.3835 3.794 15.0591C3.85282 14.7347 3.81312 14.4002 3.68 14.0986C3.55324 13.8028 3.34276 13.5505 3.07447 13.3729C2.80618 13.1952 2.49179 13.0998 2.17 13.0986H2C1.46957 13.0986 0.960859 12.8878 0.585786 12.5128C0.210714 12.1377 0 11.629 0 11.0986C0 10.5681 0.210714 10.0594 0.585786 9.68434C0.960859 9.30927 1.46957 9.09855 2 9.09855H2.09C2.42099 9.09081 2.742 8.98367 3.0113 8.79107C3.28059 8.59846 3.48572 8.32929 3.6 8.01855C3.73312 7.71694 3.77282 7.38236 3.714 7.05797C3.65519 6.73357 3.50054 6.43423 3.27 6.19855L3.21 6.13855C3.02405 5.95281 2.87653 5.73223 2.77588 5.48944C2.67523 5.24664 2.62343 4.98639 2.62343 4.72355C2.62343 4.46072 2.67523 4.20047 2.77588 3.95767C2.87653 3.71488 3.02405 3.4943 3.21 3.30855C3.39575 3.1226 3.61632 2.97508 3.85912 2.87444C4.10192 2.77379 4.36217 2.72198 4.625 2.72198C4.88783 2.72198 5.14808 2.77379 5.39088 2.87444C5.63368 2.97508 5.85425 3.1226 6.04 3.30855L6.1 3.36855C6.33568 3.59909 6.63502 3.75374 6.95941 3.81256C7.28381 3.87138 7.61838 3.83167 7.92 3.69855H8C8.29577 3.57179 8.54802 3.36131 8.72569 3.09302C8.90337 2.82473 8.99872 2.51034 9 2.18855V2.01855C9 1.48812 9.21071 0.979414 9.58579 0.604341C9.96086 0.229268 10.4696 0.0185547 11 0.0185547C11.5304 0.0185547 12.0391 0.229268 12.4142 0.604341C12.7893 0.979414 13 1.48812 13 2.01855V2.10855C13.0013 2.43034 13.0966 2.74473 13.2743 3.01302C13.452 3.28131 13.7042 3.49179 14 3.61855C14.3016 3.75167 14.6362 3.79138 14.9606 3.73256C15.285 3.67374 15.5843 3.51909 15.82 3.28855L15.88 3.22855C16.0657 3.0426 16.2863 2.89508 16.5291 2.79444C16.7719 2.69379 17.0322 2.64198 17.295 2.64198C17.5578 2.64198 17.8181 2.69379 18.0609 2.79444C18.3037 2.89508 18.5243 3.0426 18.71 3.22855C18.896 3.4143 19.0435 3.63488 19.1441 3.87767C19.2448 4.12047 19.2966 4.38072 19.2966 4.64355C19.2966 4.90639 19.2448 5.16664 19.1441 5.40944C19.0435 5.65223 18.896 5.87281 18.71 6.05855L18.65 6.11855C18.4195 6.35423 18.2648 6.65357 18.206 6.97797C18.1472 7.30236 18.1869 7.63694 18.32 7.93855V8.01855C18.4468 8.31432 18.6572 8.56657 18.9255 8.74425C19.1938 8.92192 19.5082 9.01727 19.83 9.01855H20C20.5304 9.01855 21.0391 9.22927 21.4142 9.60434C21.7893 9.97941 22 10.4881 22 11.0186C22 11.549 21.7893 12.0577 21.4142 12.4328C21.0391 12.8078 20.5304 13.0186 20 13.0186H19.91C19.5882 13.0198 19.2738 13.1152 19.0055 13.2929C18.7372 13.4705 18.5268 13.7228 18.4 14.0186V14.0186Z" fill="#C2C2C2"/>
<path d="M11 14.0186C12.6569 14.0186 14 12.6754 14 11.0186C14 9.3617 12.6569 8.01855 11 8.01855C9.34315 8.01855 8 9.3617 8 11.0186C8 12.6754 9.34315 14.0186 11 14.0186Z" fill="white" stroke="white" stroke-width="2" stroke-linecap="round" stroke-linejoin="round"/>
</svg>
