<svg id="Group_13944" data-name="Group 13944" xmlns="http://www.w3.org/2000/svg" xmlns:xlink="http://www.w3.org/1999/xlink" width="119.458" height="114.464" viewBox="0 0 119.458 114.464">
  <defs>
    <linearGradient id="linear-gradient" x1="0.5" y1="1.1" x2="0.5" y2="-0.183" gradientUnits="objectBoundingBox">
      <stop offset="0.006" stop-color="#2875e5"/>
      <stop offset="0.178" stop-color="#2979e5"/>
      <stop offset="0.364" stop-color="#2f86e6"/>
      <stop offset="0.557" stop-color="#389ce7"/>
      <stop offset="0.755" stop-color="#45bae9"/>
      <stop offset="0.954" stop-color="#55e1ec"/>
      <stop offset="0.986" stop-color="#58e8ed"/>
    </linearGradient>
    <linearGradient id="linear-gradient-2" x1="0.5" y1="0.752" x2="0.5" y2="-0.218" gradientUnits="objectBoundingBox">
      <stop offset="0.014" stop-color="#58e8ed" stop-opacity="0"/>
      <stop offset="0.02" stop-color="#58e8ed" stop-opacity="0.012"/>
      <stop offset="0.181" stop-color="#65e9ef" stop-opacity="0.267"/>
      <stop offset="0.34" stop-color="#70eaf1" stop-opacity="0.49"/>
      <stop offset="0.492" stop-color="#79ecf3" stop-opacity="0.675"/>
      <stop offset="0.638" stop-color="#80ecf5" stop-opacity="0.816"/>
      <stop offset="0.775" stop-color="#85edf6" stop-opacity="0.918"/>
      <stop offset="0.899" stop-color="#88edf6" stop-opacity="0.98"/>
      <stop offset="1" stop-color="#8aeef7"/>
    </linearGradient>
    <clipPath id="clip-path">
      <path id="Path_20594" data-name="Path 20594" d="M102.336,604.793c2.036-1.852,7.306-2.04,9.93-2.5a96.9,96.9,0,0,1,26.806-.935c3.237.339,10.491.19,12.492,3.334,2.476,3.9-2.583,11.547-5.02,14.456a24.835,24.835,0,0,1-19.375,8.715c-8.871,0-18.164-2.725-22.571-11.208a29.492,29.492,0,0,1-3-8.947,3.286,3.286,0,0,1,.686-2.863Z" transform="translate(-101.537 -600.835)" fill="#1e58ac"/>
    </clipPath>
    <linearGradient id="linear-gradient-3" x1="0.5" y1="1.351" x2="0.5" y2="0.321" gradientUnits="objectBoundingBox">
      <stop offset="0.056" stop-color="#8aeef7"/>
      <stop offset="0.128" stop-color="#87eaf6" stop-opacity="0.973"/>
      <stop offset="0.233" stop-color="#7fe1f5" stop-opacity="0.894"/>
      <stop offset="0.357" stop-color="#73d1f2" stop-opacity="0.769"/>
      <stop offset="0.495" stop-color="#61bcef" stop-opacity="0.592"/>
      <stop offset="0.646" stop-color="#4ba1eb" stop-opacity="0.365"/>
      <stop offset="0.805" stop-color="#3080e6" stop-opacity="0.09"/>
      <stop offset="0.855" stop-color="#2875e5" stop-opacity="0"/>
    </linearGradient>
    <clipPath id="clip-path-2">
      <path id="Path_20602" data-name="Path 20602" d="M131.821,658.716a51.721,51.721,0,0,1,10.837-3.691q1.3-3.23,2.5-6.218c-4.11-.634-5.561-.893-6.693-.6,1.942-1.014,2.794-1.139,7.818-2.185,1.652-4.1,3.189-7.86,4.643-11.357a42.5,42.5,0,0,0-8.625-.422c2.6-1.018,5.561-1.108,9.317-1.236,1.267-3.016,2.476-5.827,3.656-8.486a51.241,51.241,0,0,0-10.183-1.077c3.12-1.063,7.506-.779,10.816-.339,1.987-4.418,3.909-8.407,5.893-12.177-2.884-.568-5.952-1.212-5.952-1.212l6.949-.869c2.469-6.025,2.881-14.746,2.881-14.746a36.948,36.948,0,0,0-17.426,6.059c.776,1.412,1.544,3.223,2.292,4.968a38.309,38.309,0,0,0-4.449-3.414q-.649.509-1.295,1.063a46.923,46.923,0,0,0-5.768,6.295,16.108,16.108,0,0,1,3.736,6.769c-1.811-1.409-3.455-2.974-5.567-4.373a191.569,191.569,0,0,0-12.035,18.752,26.18,26.18,0,0,1,6.315,7.607c-2.015-1.738-3.906-4.075-7.112-6.2-2.915,5.218-5.453,10.259-7.209,14.348a63.977,63.977,0,0,1,6.191,10.453,48.138,48.138,0,0,0-6.987-8.524c-.2.506-.388.994-.557,1.461,1.156,1.821,6.381,11.346,6.381,11.346L115,651.881l10.013,14.642s10.92-5.474,16.076-7.583l.924-2.3A65.6,65.6,0,0,0,131.821,658.716Z" transform="translate(-115.001 -594.098)" fill="#f4e8b7"/>
    </clipPath>
  </defs>
  <g id="Group_11757" data-name="Group 11757" transform="translate(0 0)">
    <path id="Path_20590" data-name="Path 20590" d="M191.707,647.943a48.287,48.287,0,1,1-96.572,0c0-26.827,48.286-61.7,48.286-61.7S191.707,621.117,191.707,647.943Z" transform="translate(-95.135 -586.24)" fill="url(#linear-gradient)"/>
    <path id="Path_20591" data-name="Path 20591" d="M143.421,605.625s39.235,28.343,46.967,53.58a48.848,48.848,0,0,0,1.319-11.263c0-26.827-48.286-61.7-48.286-61.7s-48.286,34.873-48.286,61.7a48.845,48.845,0,0,0,1.319,11.263C104.186,633.968,143.421,605.625,143.421,605.625Z" transform="translate(-95.135 -586.243)" fill="url(#linear-gradient-2)"/>
    <g id="Group_11756" data-name="Group 11756" transform="translate(22.167 32.734)">
      <g id="Group_11755" data-name="Group 11755" transform="translate(0 17.789)">
        <path id="Path_20592" data-name="Path 20592" d="M102.336,604.793c2.036-1.852,7.306-2.04,9.93-2.5a96.9,96.9,0,0,1,26.806-.935c3.237.339,10.491.19,12.492,3.334,2.476,3.9-2.583,11.547-5.02,14.456a24.835,24.835,0,0,1-19.375,8.715c-8.871,0-18.164-2.725-22.571-11.208a29.492,29.492,0,0,1-3-8.947,3.286,3.286,0,0,1,.686-2.863Z" transform="translate(-101.537 -600.835)" fill="#1e58ac"/>
        <g id="Group_11754" data-name="Group 11754" clip-path="url(#clip-path)">
          <path id="Path_20593" data-name="Path 20593" d="M146.194,608.153s-24.046-11.7-40.6,4.955,39.083,10.069,39.083,10.069Z" transform="translate(-99.121 -592.642)" fill="#8aeef7"/>
        </g>
      </g>
      <path id="Path_20595" data-name="Path 20595" d="M112.444,604.089a1.765,1.765,0,0,1-1.136-3.109c.048-.056.1-.125.173-.2,1.073-1.288,4.318-5.2,8.909-5.076,3.078.087,6,1.96,8.687,5.568a1.773,1.773,0,0,1-.353,2.472,1.75,1.75,0,0,1-2.455-.357c-2.012-2.7-4.023-4.1-5.976-4.155-2.891-.083-5.239,2.749-6.125,3.816A2.527,2.527,0,0,1,113,604,1.717,1.717,0,0,1,112.444,604.089Zm-.561-3.434Zm0,0v0Z" transform="translate(-79.003 -595.697)" fill="#1e58ac"/>
      <path id="Path_20596" data-name="Path 20596" d="M103.369,604.089a1.765,1.765,0,0,1-1.136-3.109c.048-.056.1-.125.173-.2,1.073-1.288,4.318-5.2,8.909-5.076,3.078.087,6,1.96,8.687,5.568a1.776,1.776,0,0,1-.353,2.472,1.75,1.75,0,0,1-2.455-.357c-2.012-2.7-4.023-4.1-5.976-4.155-2.874-.083-5.239,2.749-6.125,3.816a2.527,2.527,0,0,1-1.17.956A1.716,1.716,0,0,1,103.369,604.089Zm-.561-3.434Zm0,0v0Z" transform="translate(-101.349 -595.697)" fill="#1e58ac"/>
    </g>
    <path id="Path_20597" data-name="Path 20597" d="M169.753,638.349c0,17.887-15.865,34.25-35.434,34.25s-35.434-16.363-35.434-34.25,16.2-43.321,35.77-43.321S169.753,620.463,169.753,638.349Z" transform="translate(-85.901 -564.611)" fill="url(#linear-gradient-3)"/>
  </g>
  <g id="Group_11758" data-name="Group 11758" transform="translate(68.783 27.197)">
    <path id="Path_20598" data-name="Path 20598" d="M131.821,658.716a51.721,51.721,0,0,1,10.837-3.691q1.3-3.23,2.5-6.218c-4.11-.634-5.561-.893-6.693-.6,1.942-1.014,2.794-1.139,7.818-2.185,1.652-4.1,3.189-7.86,4.643-11.357a42.5,42.5,0,0,0-8.625-.422c2.6-1.018,5.561-1.108,9.317-1.236,1.267-3.016,2.476-5.827,3.656-8.486a51.241,51.241,0,0,0-10.183-1.077c3.12-1.063,7.506-.779,10.816-.339,1.987-4.418,3.909-8.407,5.893-12.177-2.884-.568-5.952-1.212-5.952-1.212l6.949-.869c2.469-6.025,2.881-14.746,2.881-14.746a36.948,36.948,0,0,0-17.426,6.059c.776,1.412,1.544,3.223,2.292,4.968a38.309,38.309,0,0,0-4.449-3.414q-.649.509-1.295,1.063a46.923,46.923,0,0,0-5.768,6.295,16.108,16.108,0,0,1,3.736,6.769c-1.811-1.409-3.455-2.974-5.567-4.373a191.569,191.569,0,0,0-12.035,18.752,26.18,26.18,0,0,1,6.315,7.607c-2.015-1.738-3.906-4.075-7.112-6.2-2.915,5.218-5.453,10.259-7.209,14.348a63.977,63.977,0,0,1,6.191,10.453,48.138,48.138,0,0,0-6.987-8.524c-.2.506-.388.994-.557,1.461,1.156,1.821,6.381,11.346,6.381,11.346L115,651.881l10.013,14.642s10.92-5.474,16.076-7.583l.924-2.3A65.6,65.6,0,0,0,131.821,658.716Z" transform="translate(-115.001 -594.098)" fill="#c3c3a7"/>
  </g>
  <g id="Group_11761" data-name="Group 11761" transform="translate(68.783 27.197)">
    <g id="Group_11760" data-name="Group 11760" clip-path="url(#clip-path-2)">
      <g id="Group_11759" data-name="Group 11759" transform="translate(1.29 23.036)">
        <path id="Path_20599" data-name="Path 20599" d="M126.09,600.751l7.122,9.142H158.55l-2.725,8.48L128.732,617,117.9,601.565Z" transform="translate(-109.165 -600.751)" fill="#f4e8b7"/>
        <path id="Path_20600" data-name="Path 20600" d="M118.671,605.443l8.73,9.1,23.631-2.574-1.957,4.24-22.445,3.18-10.518-11.811Z" transform="translate(-113.554 -589.198)" fill="#f4e8b7"/>
        <path id="Path_20601" data-name="Path 20601" d="M116.277,606.89l10.837,11.054h19.417l-.9,1.969H126.512L115.374,607.8Z" transform="translate(-115.374 -585.634)" fill="#f4e8b7"/>
      </g>
    </g>
  </g>
  <path id="Path_20603" data-name="Path 20603" d="M150.089,597.438a.566.566,0,0,0-.692.073C135.374,612.478,123.643,640,119.388,659.8c-.364,1.7-2.642,11.976-2.891,13.548.866.083,2.659-.831,2.877-1.939.114-.894,2.216-10.436,2.368-11.364,3.23-19.559,14.5-46.513,28.44-62.053A.352.352,0,0,0,150.089,597.438Z" transform="translate(-42.534 -558.888)" fill="#af9e71"/>
</svg>
