<svg width="32" height="29" viewBox="0 0 32 29" fill="none" xmlns="http://www.w3.org/2000/svg">
<path d="M24.7195 28.4969L24.7184 28.4969C24.606 28.4973 24.4963 28.4624 24.4049 28.397C24.4046 28.3968 24.4044 28.3967 24.4041 28.3965L16.0821 22.3631L15.7886 22.1504L15.4951 22.3631L7.17111 28.3979L7.17102 28.398C7.07905 28.4647 6.96824 28.5004 6.85463 28.5C6.74101 28.4996 6.63047 28.4631 6.53898 28.3957C6.4475 28.3283 6.37981 28.2336 6.3457 28.1252C6.3116 28.0168 6.31284 27.9004 6.34926 27.7928L6.34936 27.7925L9.59587 18.1766L9.71686 17.8182L9.40492 17.6043L0.990932 11.8342L0.990715 11.8341C0.89646 11.7695 0.825321 11.6765 0.787693 11.5686C0.750065 11.4607 0.74792 11.3437 0.781572 11.2345C0.815224 11.1253 0.882909 11.0297 0.974736 10.9618C1.0664 10.8939 1.17734 10.8571 1.29138 10.8567H11.6709H12.0342L12.1465 10.5112L15.2791 0.870695L15.2792 0.870388C15.3141 0.762747 15.3821 0.668925 15.4737 0.602383C15.5652 0.535842 15.6755 0.5 15.7886 0.5C15.9018 0.5 16.012 0.535842 16.1035 0.602383L16.3976 0.197967L16.1035 0.602384C16.1951 0.668925 16.2632 0.762744 16.2981 0.870386L16.2982 0.870648L19.4307 10.5144L19.543 10.8599H19.9063H30.2866H30.2868C30.4012 10.8598 30.5126 10.8964 30.6047 10.9643C30.6968 11.0321 30.7648 11.1277 30.7986 11.2369C30.8325 11.3462 30.8305 11.4634 30.7929 11.5715C30.7553 11.6795 30.6841 11.7727 30.5897 11.8373L30.5897 11.8373L22.1725 17.6042L21.8603 17.818L21.9813 18.1765L25.2259 27.7898L25.2259 27.7899C25.2531 27.8704 25.2608 27.9562 25.2482 28.0403C25.2357 28.1243 25.2034 28.2042 25.1539 28.2732C25.1044 28.3423 25.0392 28.3986 24.9637 28.4375C24.8882 28.4764 24.8044 28.4967 24.7195 28.4969Z" stroke="#00ADE6"/>
</svg>
