<svg width="32" height="29" viewBox="0 0 32 29" fill="none" xmlns="http://www.w3.org/2000/svg">
<path d="M24.6579 28.9969C24.4399 28.9977 24.2272 28.9298 24.0501 28.8027L15.7261 22.7679L7.40209 28.8027C7.22425 28.9317 7.01 29.0008 6.79031 29C6.57062 28.9992 6.35688 28.9286 6.17998 28.7983C6.00309 28.668 5.87221 28.4848 5.80626 28.2753C5.74032 28.0657 5.74272 27.8406 5.81314 27.6325L9.05964 18.0166L0.645652 12.2466C0.463399 12.1217 0.325846 11.9419 0.253089 11.7333C0.180332 11.5247 0.176184 11.2983 0.241253 11.0872C0.306322 10.8761 0.437196 10.6913 0.614754 10.5599C0.792312 10.4285 1.00725 10.3572 1.22816 10.3567H11.6084L14.741 0.716177C14.8085 0.508042 14.9402 0.32663 15.1172 0.197967C15.2941 0.0693031 15.5073 0 15.7261 0C15.9449 0 16.1581 0.0693031 16.3351 0.197967C16.512 0.32663 16.6437 0.508042 16.7112 0.716177L19.8438 10.3599H30.2241C30.4452 10.3598 30.6607 10.4305 30.8387 10.5617C31.0168 10.6929 31.1482 10.8776 31.2137 11.0889C31.2792 11.3002 31.2753 11.5269 31.2026 11.7358C31.1299 11.9447 30.9923 12.1248 30.8098 12.2498L22.3926 18.0166L25.6371 27.6299C25.6897 27.7856 25.7045 27.9515 25.6803 28.114C25.6561 28.2765 25.5935 28.4309 25.4979 28.5644C25.4022 28.698 25.2761 28.8068 25.1301 28.882C24.984 28.9572 24.8222 28.9966 24.6579 28.9969Z" fill="url(#paint0_linear_3134_292)"/>
<defs>
<linearGradient id="paint0_linear_3134_292" x1="15.7277" y1="0" x2="15.7277" y2="29" gradientUnits="userSpaceOnUse">
<stop stop-color="#3390E7"/>
<stop offset="0.770833" stop-color="#63C4F0"/>
<stop offset="1" stop-color="#88ECF7"/>
</linearGradient>
</defs>
</svg>
