<svg xmlns="http://www.w3.org/2000/svg" width="37.7" height="30.789" viewBox="0 0 37.7 30.789">
  <g id="Group_14887" data-name="Group 14887" transform="translate(3504 -1798)">
    <path id="folder" d="M36.123,15.553H33.93V11.615A1.719,1.719,0,0,0,32.214,9.9H16.66L13.519,5.5H1.717A1.719,1.719,0,0,0,0,7.217v27.45H0a1.6,1.6,0,0,0,1.608,1.622H29.735a1.6,1.6,0,0,0,1.539-1.139L37.7,17.532v-.111A1.683,1.683,0,0,0,36.123,15.553ZM1.257,7.217a.461.461,0,0,1,.46-.46H12.871l3.142,4.4h16.2a.46.46,0,0,1,.46.46v3.938H8a1.611,1.611,0,0,0-1.539,1.139l-5.2,14.192ZM30.078,34.77a.356.356,0,0,1-.342.262H1.612a.347.347,0,0,1-.281-.139.34.34,0,0,1-.077-.256l6.4-17.564A.356.356,0,0,1,8,16.81H36.123c.239,0,.3.343.315.515Z" transform="translate(-3504 1792.5)" fill="#1ac9e8"/>
    <g id="coding" transform="translate(-3495.889 1812.45)">
      <g id="Group_14882" data-name="Group 14882" transform="translate(15.924 1.777)">
        <g id="Group_14881" data-name="Group 14881" transform="translate(0 0)">
          <path id="Path_34065" data-name="Path 34065" d="M361.993,115.327l-5.308-3.785a1.175,1.175,0,0,0-1.217-.024.459.459,0,0,0-.035.819l4.751,3.387-4.751,3.387a.459.459,0,0,0,.035.819,1.117,1.117,0,0,0,.591.158,1.1,1.1,0,0,0,.626-.181l5.308-3.785A.454.454,0,0,0,361.993,115.327Z" transform="translate(-355.199 -111.361)" fill="#1ac9e8"/>
        </g>
      </g>
      <g id="Group_14884" data-name="Group 14884" transform="translate(0 1.776)">
        <g id="Group_14883" data-name="Group 14883" transform="translate(0 0)">
          <path id="Path_34066" data-name="Path 34066" d="M6.8,119.11l-4.75-3.387,4.75-3.387a.459.459,0,0,0-.035-.819,1.176,1.176,0,0,0-1.217.024L.235,115.326a.454.454,0,0,0,0,.8l5.308,3.785a1.093,1.093,0,0,0,.626.182,1.115,1.115,0,0,0,.59-.158A.459.459,0,0,0,6.8,119.11Z" transform="translate(-0.001 -111.36)" fill="#1ac9e8"/>
        </g>
      </g>
      <g id="Group_14886" data-name="Group 14886" transform="translate(9.353 0)">
        <g id="Group_14885" data-name="Group 14885" transform="translate(0 0)">
          <path id="Path_34067" data-name="Path 34067" d="M212.152,52.484c-.47-.048-.909.169-.981.485l-2.525,11.122c-.072.316.251.612.721.66a1.31,1.31,0,0,0,.131.007.827.827,0,0,0,.85-.492l2.525-11.122C212.945,52.828,212.622,52.533,212.152,52.484Z" transform="translate(-208.636 -52.478)" fill="#1ac9e8"/>
        </g>
      </g>
    </g>
  </g>
</svg>
