<svg width="40" height="40" viewBox="0 0 40 40" fill="none" xmlns="http://www.w3.org/2000/svg">
<path fill-rule="evenodd" clip-rule="evenodd" d="M3.75001 6.24978C8.81585 6.27295 12.3469 6.9098 14.722 8.04454C17.0255 9.14509 18.2591 10.7176 18.7883 12.8067C18.9288 13.3613 19.4279 13.7498 20 13.7498C20.5721 13.7498 21.0712 13.3613 21.2117 12.8067C21.741 10.7176 22.9746 9.14509 25.278 8.04454C27.6531 6.9098 31.1842 6.27294 36.25 6.24977V28.7498C27.2275 28.7498 22.7964 30.3671 19.9999 33.1316C17.2132 30.3798 12.7761 28.7526 3.77339 28.7498C3.76274 28.7221 3.75001 28.6736 3.75001 28.599V6.24978ZM2.79475 3.9379C3.09919 3.81247 3.42545 3.74853 3.75472 3.74977L3.75561 3.74978C8.96568 3.77314 12.9329 4.41905 15.7997 5.78878C17.6644 6.67967 19.0512 7.87243 20 9.35194C20.9488 7.87243 22.3356 6.67967 24.2003 5.78878C27.0672 4.41905 31.0343 3.77314 36.2444 3.74978L36.2453 3.74977C36.5746 3.74853 36.9008 3.81247 37.2053 3.9379C37.5097 4.06334 37.7863 4.24778 38.0192 4.48062C38.252 4.71345 38.4364 4.99006 38.5619 5.2945C38.6869 5.59802 38.7509 5.92322 38.75 6.25147V28.7498C38.75 29.4128 38.4866 30.0487 38.0178 30.5175C37.5489 30.9864 36.913 31.2498 36.25 31.2498C26.3981 31.2498 23.0112 33.2366 20.9761 35.7806C20.7388 36.0772 20.3796 36.2499 19.9997 36.2498C19.6199 36.2497 19.2607 36.0769 19.0235 35.7802C17.0023 33.2511 13.6013 31.2498 3.75001 31.2498C2.99601 31.2498 2.3362 30.9305 1.8838 30.3992C1.44717 29.8863 1.25001 29.2355 1.25001 28.599V6.25172C1.24913 5.92339 1.31306 5.5981 1.43815 5.2945C1.56358 4.99006 1.74803 4.71345 1.98086 4.48062C2.21369 4.24778 2.4903 4.06334 2.79475 3.9379Z" fill="#A8A7A7"/>
<path fill-rule="evenodd" clip-rule="evenodd" d="M20 11.25C20.6904 11.25 21.25 11.8096 21.25 12.5V35C21.25 35.6904 20.6904 36.25 20 36.25C19.3096 36.25 18.75 35.6904 18.75 35V12.5C18.75 11.8096 19.3096 11.25 20 11.25Z" fill="#A8A7A7"/>
</svg>
