<svg width="24" height="25" viewBox="0 0 24 25" fill="none" xmlns="http://www.w3.org/2000/svg">
<path fill-rule="evenodd" clip-rule="evenodd" d="M17.9905 2.95912C18.4871 2.46256 19.1606 2.18359 19.8628 2.18359C20.5651 2.18359 21.2386 2.46256 21.7352 2.95912L21.2048 3.48953L21.7352 2.95914C22.2318 3.45573 22.5107 4.12923 22.5107 4.83149C22.5107 5.53131 22.2337 6.20257 21.7404 6.69865L11.4738 17.34C11.2749 17.5462 10.9759 17.6211 10.7033 17.5329C10.4307 17.4448 10.2322 17.209 10.1916 16.9254C10.1475 16.6166 9.94608 16.2357 9.60138 15.8932C9.25967 15.5536 8.84532 15.3205 8.47536 15.2452C8.21185 15.1915 7.99725 15.0009 7.91288 14.7455C7.82851 14.4902 7.8873 14.2092 8.06697 14.0092L17.9627 2.98838C17.9717 2.97838 17.981 2.96862 17.9905 2.95912ZM20.6745 4.0198C20.4593 3.80453 20.1673 3.68359 19.8628 3.68359C19.5643 3.68359 19.2777 3.7999 19.0637 4.00742L9.88945 14.2246C10.1714 14.3967 10.4314 14.6033 10.6587 14.8292C10.8529 15.0222 11.0337 15.2398 11.1883 15.4756L20.6651 5.65278C20.6674 5.65039 20.6698 5.648 20.6721 5.64563C20.6729 5.64482 20.6737 5.64401 20.6745 5.64321C20.8898 5.42792 21.0107 5.13594 21.0107 4.83149C21.0107 4.52706 20.8898 4.23509 20.6745 4.0198Z" fill="#A8A7A7"/>
<path fill-rule="evenodd" clip-rule="evenodd" d="M3.1875 19.0169C3.1875 17.1907 4.64282 15.6953 6.46875 15.6953C8.29468 15.6953 9.75 17.1907 9.75 19.0169C9.75 21.3142 7.91497 23.1953 5.625 23.1953C4.11012 23.1953 2.56344 22.4117 1.64778 21.1781C1.47886 20.9505 1.45265 20.6472 1.58002 20.394C1.70739 20.1408 1.9666 19.9811 2.25 19.9811C2.41596 19.9811 2.66556 19.9036 2.86894 19.7277C3.05473 19.567 3.1875 19.3386 3.1875 19.0169ZM6.46875 17.1953C5.49343 17.1953 4.6875 17.9968 4.6875 19.0169C4.6875 19.9565 4.21857 20.6299 3.62666 21.0328C4.21821 21.45 4.937 21.6953 5.625 21.6953C7.06441 21.6953 8.25 20.508 8.25 19.0169C8.25 17.9968 7.44407 17.1953 6.46875 17.1953Z" fill="#A8A7A7"/>
</svg>
