<svg width="24" height="24" viewBox="0 0 24 24" fill="none" xmlns="http://www.w3.org/2000/svg">
<path d="M3.09375 1.875H5.25V0.75C5.25 0.335812 5.58577 0 6 0C6.41423 0 6.75 0.335812 6.75 0.75V1.875H17.25V0.75C17.25 0.335812 17.5858 0 18 0C18.4142 0 18.75 0.335812 18.75 0.75V1.875H20.9062C22.6122 1.875 24 3.26283 24 4.96875V20.9062C24 22.6122 22.6122 24 20.9062 24H3.09375C1.38783 24 0 22.6122 0 20.9062V4.96875C0 3.26283 1.38783 1.875 3.09375 1.875ZM1.5 20.9062C1.5 21.7865 2.21353 22.5 3.09375 22.5H20.9062C21.7865 22.5 22.5 21.7865 22.5 20.9062V8.48438C22.5 8.35495 22.395 8.25 22.2656 8.25H1.73438C1.60495 8.25 1.5 8.35495 1.5 8.48438V20.9062Z" fill="white"/>
</svg>
