<svg width="25" height="25" viewBox="0 0 25 25" fill="none" xmlns="http://www.w3.org/2000/svg">
<path fill-rule="evenodd" clip-rule="evenodd" d="M5.24219 4.54688C4.41376 4.54688 3.74219 5.21845 3.74219 6.04688V19.5469C3.74219 20.3753 4.41376 21.0469 5.24219 21.0469H20.2422C21.0706 21.0469 21.7422 20.3753 21.7422 19.5469V6.04688C21.7422 5.21845 21.0706 4.54688 20.2422 4.54688H5.24219ZM2.24219 6.04688C2.24219 4.39002 3.58533 3.04688 5.24219 3.04688H20.2422C21.899 3.04688 23.2422 4.39002 23.2422 6.04688V19.5469C23.2422 21.2037 21.899 22.5469 20.2422 22.5469H5.24219C3.58533 22.5469 2.24219 21.2037 2.24219 19.5469V6.04688Z" fill="#282828"/>
<path d="M14.6172 12.0469C15.2385 12.0469 15.7422 11.5432 15.7422 10.9219C15.7422 10.3006 15.2385 9.79688 14.6172 9.79688C13.9959 9.79688 13.4922 10.3006 13.4922 10.9219C13.4922 11.5432 13.9959 12.0469 14.6172 12.0469Z" fill="#282828"/>
<path d="M18.3672 12.0469C18.9885 12.0469 19.4922 11.5432 19.4922 10.9219C19.4922 10.3006 18.9885 9.79688 18.3672 9.79688C17.7459 9.79688 17.2422 10.3006 17.2422 10.9219C17.2422 11.5432 17.7459 12.0469 18.3672 12.0469Z" fill="#282828"/>
<path d="M14.6172 15.7969C15.2385 15.7969 15.7422 15.2932 15.7422 14.6719C15.7422 14.0506 15.2385 13.5469 14.6172 13.5469C13.9959 13.5469 13.4922 14.0506 13.4922 14.6719C13.4922 15.2932 13.9959 15.7969 14.6172 15.7969Z" fill="#282828"/>
<path d="M18.3672 15.7969C18.9885 15.7969 19.4922 15.2932 19.4922 14.6719C19.4922 14.0506 18.9885 13.5469 18.3672 13.5469C17.7459 13.5469 17.2422 14.0506 17.2422 14.6719C17.2422 15.2932 17.7459 15.7969 18.3672 15.7969Z" fill="#282828"/>
<path d="M7.11719 15.7969C7.73851 15.7969 8.24219 15.2932 8.24219 14.6719C8.24219 14.0506 7.73851 13.5469 7.11719 13.5469C6.49587 13.5469 5.99219 14.0506 5.99219 14.6719C5.99219 15.2932 6.49587 15.7969 7.11719 15.7969Z" fill="#282828"/>
<path d="M10.8672 15.7969C11.4885 15.7969 11.9922 15.2932 11.9922 14.6719C11.9922 14.0506 11.4885 13.5469 10.8672 13.5469C10.2459 13.5469 9.74219 14.0506 9.74219 14.6719C9.74219 15.2932 10.2459 15.7969 10.8672 15.7969Z" fill="#282828"/>
<path d="M7.11719 19.5469C7.73851 19.5469 8.24219 19.0432 8.24219 18.4219C8.24219 17.8006 7.73851 17.2969 7.11719 17.2969C6.49587 17.2969 5.99219 17.8006 5.99219 18.4219C5.99219 19.0432 6.49587 19.5469 7.11719 19.5469Z" fill="#282828"/>
<path d="M10.8672 19.5469C11.4885 19.5469 11.9922 19.0432 11.9922 18.4219C11.9922 17.8006 11.4885 17.2969 10.8672 17.2969C10.2459 17.2969 9.74219 17.8006 9.74219 18.4219C9.74219 19.0432 10.2459 19.5469 10.8672 19.5469Z" fill="#282828"/>
<path d="M14.6172 19.5469C15.2385 19.5469 15.7422 19.0432 15.7422 18.4219C15.7422 17.8006 15.2385 17.2969 14.6172 17.2969C13.9959 17.2969 13.4922 17.8006 13.4922 18.4219C13.4922 19.0432 13.9959 19.5469 14.6172 19.5469Z" fill="#282828"/>
<path fill-rule="evenodd" clip-rule="evenodd" d="M6.74219 1.54688C7.1564 1.54688 7.49219 1.88266 7.49219 2.29688V3.79688C7.49219 4.21109 7.1564 4.54688 6.74219 4.54688C6.32797 4.54688 5.99219 4.21109 5.99219 3.79688V2.29688C5.99219 1.88266 6.32797 1.54688 6.74219 1.54688Z" fill="#282828"/>
<path fill-rule="evenodd" clip-rule="evenodd" d="M18.7422 1.54688C19.1564 1.54688 19.4922 1.88266 19.4922 2.29688V3.79688C19.4922 4.21109 19.1564 4.54688 18.7422 4.54688C18.328 4.54688 17.9922 4.21109 17.9922 3.79688V2.29688C17.9922 1.88266 18.328 1.54688 18.7422 1.54688Z" fill="#282828"/>
<path fill-rule="evenodd" clip-rule="evenodd" d="M2.99219 6.79688H22.4922V8.29688H2.99219V6.79688Z" fill="#282828"/>
</svg>
