<svg xmlns="http://www.w3.org/2000/svg" xmlns:xlink="http://www.w3.org/1999/xlink" width="100%" height="100%" viewBox="0 0 76 59.25">
  <defs>
    <linearGradient id="linear-gradient" x1="0.217" y1="0.215" x2="0.844" y2="0.861" gradientUnits="objectBoundingBox">
      <stop offset="0" stop-color="#34e4ea"/>
      <stop offset="1" stop-color="#00ade6"/>
    </linearGradient>
    <filter id="ic_switch_video_24px" x="0" y="0" width="76" height="59.25" filterUnits="userSpaceOnUse">
      <feOffset dy="3" input="SourceAlpha"/>
      <feGaussianBlur stdDeviation="3" result="blur"/>
      <feFlood flood-opacity="0.161"/>
      <feComposite operator="in" in2="blur"/>
      <feComposite in="SourceGraphic"/>
    </filter>
  </defs>
  <g transform="matrix(1, 0, 0, 1, 0, 0)" filter="url(#ic_switch_video_24px)">
    <path id="ic_switch_video_24px-2" data-name="ic_switch_video_24px" d="M48.4,18.256V7.946A2.932,2.932,0,0,0,45.5,5H4.9A2.932,2.932,0,0,0,2,7.946V43.3A2.932,2.932,0,0,0,4.9,46.25H45.5A2.932,2.932,0,0,0,48.4,43.3V32.991L60,44.777V6.473ZM33.9,35.938V28.572H16.5v7.366L6.35,25.629,16.5,15.313v7.366H33.9V15.313L44.05,25.629Z" transform="translate(7 1)" opacity="0.5" fill="url(#linear-gradient)"/>
  </g>
</svg>
