<svg xmlns="http://www.w3.org/2000/svg" width="13.481" height="13.481" viewBox="0 0 13.481 13.481">
  <g id="signal" transform="translate(0 0)">
    <g id="Group_14812" data-name="Group 14812" transform="translate(0 0)">
      <path id="Path_34072" data-name="Path 34072" d="M11.488,1.993A6.687,6.687,0,0,0,6.74,0a6.74,6.74,0,1,0,6.74,6.74A6.687,6.687,0,0,0,11.488,1.993ZM6.74,11.875a5.133,5.133,0,0,1-4.147-8.16l7.172,7.164A5.034,5.034,0,0,1,6.74,11.875Zm4.139-2.109L3.715,2.593a5.133,5.133,0,0,1,8.16,4.147A5.034,5.034,0,0,1,10.879,9.766Z" transform="translate(0 0)" fill="red"/>
    </g>
  </g>
</svg>
