<svg width="40" height="40" viewBox="0 0 40 40" fill="none" xmlns="http://www.w3.org/2000/svg">
<path d="M20.0002 36.6663C10.7952 36.6663 3.3335 29.2047 3.3335 19.9997C3.3335 10.7947 10.7952 3.33301 20.0002 3.33301C29.2052 3.33301 36.6668 10.7947 36.6668 19.9997C36.6668 29.2047 29.2052 36.6663 20.0002 36.6663ZM20.0002 33.333C23.5364 33.333 26.9278 31.9283 29.4283 29.4278C31.9287 26.9273 33.3335 23.5359 33.3335 19.9997C33.3335 16.4635 31.9287 13.0721 29.4283 10.5716C26.9278 8.0711 23.5364 6.66634 20.0002 6.66634C16.4639 6.66634 13.0726 8.0711 10.5721 10.5716C8.07159 13.0721 6.66683 16.4635 6.66683 19.9997C6.66683 23.5359 8.07159 26.9273 10.5721 29.4278C13.0726 31.9283 16.4639 33.333 20.0002 33.333ZM18.3385 26.6663L11.2668 19.5947L13.6235 17.238L18.3385 21.953L27.7652 12.5247L30.1235 14.8813L18.3385 26.6663Z" fill="#00FFDC"/>
</svg>
