<?xml version="1.0" standalone="no"?>
<!DOCTYPE svg PUBLIC "-//W3C//DTD SVG 20010904//EN"
 "http://www.w3.org/TR/2001/REC-SVG-20010904/DTD/svg10.dtd">
<svg version="1.0" xmlns="http://www.w3.org/2000/svg"
 width="1333.000000pt" height="1280.000000pt" viewBox="0 0 1333.000000 1280.000000"
 preserveAspectRatio="xMidYMid meet">
<metadata>
Created by potrace 1.16, written by Peter Selinger 2001-2019
</metadata>
<g transform="translate(0.000000,1280.000000) scale(0.100000,-0.100000)"
fill="#000000" stroke="none">
<path d="M2791 8780 c-203 -60 -363 -228 -416 -435 -19 -76 -19 -214 0 -290 8
-33 32 -94 51 -135 36 -74 72 -110 1908 -1947 1793 -1793 1874 -1873 1944
-1907 106 -53 185 -69 317 -63 121 5 183 23 284 83 41 24 556 533 1922 1901
1752 1754 1867 1872 1896 1934 45 94 63 174 63 275 0 174 -52 305 -165 420
-79 80 -120 108 -220 150 -66 27 -78 29 -215 29 -137 0 -149 -2 -215 -29 -38
-16 -88 -40 -110 -54 -22 -13 -768 -751 -1658 -1640 l-1617 -1617 -1628 1626
c-1514 1513 -1632 1628 -1692 1657 -36 17 -93 38 -126 46 -85 22 -241 20 -323
-4z"/>
</g>
</svg>
