<svg width="20" height="20" viewBox="0 0 20 20" fill="none" xmlns="http://www.w3.org/2000/svg">
<path d="M11.3255 9.99943L15.0364 6.28849C15.2125 6.11268 15.3116 5.87411 15.3118 5.62526C15.312 5.37641 15.2134 5.13766 15.0376 4.96154C14.8618 4.78542 14.6232 4.68635 14.3743 4.68613C14.1255 4.68591 13.8867 4.78456 13.7106 4.96037L9.99967 8.6713L6.28874 4.96037C6.11262 4.78425 5.87374 4.6853 5.62467 4.6853C5.3756 4.6853 5.13673 4.78425 4.96061 4.96037C4.78449 5.13649 4.68555 5.37536 4.68555 5.62443C4.68555 5.8735 4.78449 6.11237 4.96061 6.28849L8.67155 9.99943L4.96061 13.7104C4.78449 13.8865 4.68555 14.1254 4.68555 14.3744C4.68555 14.6235 4.78449 14.8624 4.96061 15.0385C5.13673 15.2146 5.3756 15.3136 5.62467 15.3136C5.87374 15.3136 6.11262 15.2146 6.28874 15.0385L9.99967 11.3276L13.7106 15.0385C13.8867 15.2146 14.1256 15.3136 14.3747 15.3136C14.6237 15.3136 14.8626 15.2146 15.0387 15.0385C15.2149 14.8624 15.3138 14.6235 15.3138 14.3744C15.3138 14.1254 15.2149 13.8865 15.0387 13.7104L11.3255 9.99943Z" fill="white"/>
</svg>
