<svg width="26" height="26" viewBox="0 0 26 26" fill="none" xmlns="http://www.w3.org/2000/svg">
<path d="M13 0C5.83187 0 0 5.83187 0 13C0 20.1681 5.83187 26 13 26C20.1681 26 26 20.1681 26 13C26 5.83187 20.1681 0 13 0ZM17.7069 16.2931C17.8036 16.3851 17.881 16.4954 17.9345 16.6178C17.9879 16.7401 18.0163 16.8718 18.018 17.0053C18.0197 17.1388 17.9947 17.2712 17.9444 17.3949C17.8941 17.5185 17.8196 17.6308 17.7252 17.7252C17.6308 17.8196 17.5185 17.8941 17.3949 17.9444C17.2712 17.9947 17.1388 18.0197 17.0053 18.018C16.8718 18.0163 16.7401 17.9879 16.6178 17.9345C16.4954 17.881 16.3851 17.8036 16.2931 17.7069L13 14.4144L9.70687 17.7069C9.51781 17.8865 9.26606 17.9852 9.0053 17.9818C8.74454 17.9785 8.4954 17.8734 8.311 17.689C8.1266 17.5046 8.02152 17.2555 8.01819 16.9947C8.01485 16.7339 8.11351 16.4822 8.29313 16.2931L11.5856 13L8.29313 9.70687C8.11351 9.51781 8.01485 9.26606 8.01819 9.0053C8.02152 8.74454 8.1266 8.4954 8.311 8.311C8.4954 8.1266 8.74454 8.02152 9.0053 8.01819C9.26606 8.01485 9.51781 8.11351 9.70687 8.29313L13 11.5856L16.2931 8.29313C16.4822 8.11351 16.7339 8.01485 16.9947 8.01819C17.2555 8.02152 17.5046 8.1266 17.689 8.311C17.8734 8.4954 17.9785 8.74454 17.9818 9.0053C17.9852 9.26606 17.8865 9.51781 17.7069 9.70687L14.4144 13L17.7069 16.2931Z" fill="#FF5744"/>
</svg>
