<svg width="16" height="14" viewBox="0 0 16 14" fill="none" xmlns="http://www.w3.org/2000/svg">
<path d="M1 4.32056H15" stroke="#BDBDBD" stroke-miterlimit="10" stroke-linecap="round" stroke-linejoin="round"/>
<path d="M9.68263 3.24877C9.52109 3.24877 9.4134 3.19518 9.3057 3.08801C9.19801 2.98083 9.14417 2.87365 9.14417 2.71289C9.14417 2.55212 9.19801 2.44494 9.3057 2.33777L9.35955 2.28418C9.4134 2.28418 9.4134 2.23059 9.46724 2.23059C9.52109 2.177 9.52109 2.177 9.57493 2.177C9.62878 2.177 9.73647 2.177 9.79032 2.177C9.84416 2.177 9.84417 2.177 9.89801 2.23059C9.95186 2.23059 9.95186 2.28418 10.0057 2.28418L10.0595 2.33777C10.1134 2.39136 10.1672 2.44494 10.1672 2.49853C10.2211 2.55212 10.2211 2.6593 10.2211 2.71289C10.2211 2.76648 10.2211 2.87365 10.1672 2.92724C10.1672 2.98083 10.1134 3.03442 10.0595 3.08801C9.95186 3.19518 9.84417 3.24877 9.68263 3.24877Z" fill="#BDBDBD"/>
<path d="M11.298 3.24875C11.1364 3.24875 11.0288 3.19516 10.9211 3.08798C10.8134 2.9808 10.7595 2.87363 10.7595 2.71286C10.7595 2.65927 10.7595 2.5521 10.8134 2.49851C10.8672 2.44492 10.8672 2.39133 10.9211 2.33774C10.9749 2.28415 11.0288 2.23056 11.0826 2.23056C11.298 2.12339 11.5134 2.17698 11.6749 2.33774C11.7288 2.39133 11.7826 2.44492 11.7826 2.49851C11.8364 2.5521 11.8364 2.65927 11.8364 2.71286C11.8364 2.87363 11.7826 2.9808 11.6749 3.08798C11.5672 3.19516 11.4595 3.24875 11.298 3.24875Z" fill="#BDBDBD"/>
<path d="M12.9135 3.24877C12.8596 3.24877 12.7519 3.24877 12.6981 3.19518C12.6442 3.14159 12.5904 3.1416 12.5365 3.08801C12.4827 3.03442 12.4288 2.98083 12.4288 2.92724C12.375 2.87365 12.375 2.76648 12.375 2.71289C12.375 2.6593 12.375 2.55212 12.4288 2.49853C12.4827 2.44494 12.4827 2.39136 12.5365 2.33777C12.7519 2.12341 13.075 2.12341 13.2904 2.33777C13.3442 2.39136 13.3981 2.44494 13.3981 2.49853C13.4519 2.55212 13.4519 2.6593 13.4519 2.71289C13.4519 2.76648 13.4519 2.87365 13.3981 2.92724C13.3442 2.98083 13.3442 3.03442 13.2904 3.08801C13.1827 3.19518 13.075 3.24877 12.9135 3.24877Z" fill="#BDBDBD"/>
<path d="M13.9231 1.10522H2.07692C1.48462 1.10522 1 1.58752 1 2.17699V11.8229C1 12.4124 1.48462 12.8947 2.07692 12.8947H13.9231C14.5154 12.8947 15 12.4124 15 11.8229V2.17699C15 1.58752 14.5154 1.10522 13.9231 1.10522Z" stroke="#BDBDBD" stroke-miterlimit="10" stroke-linecap="round" stroke-linejoin="round"/>
<path d="M5.30765 7L3.69226 8.60766L5.30765 10.2153" stroke="#BDBDBD" stroke-miterlimit="10" stroke-linecap="round" stroke-linejoin="round"/>
<path d="M10.6923 7L12.3076 8.60766L10.6923 10.2153" stroke="#BDBDBD" stroke-miterlimit="10" stroke-linecap="round" stroke-linejoin="round"/>
<path d="M9.07682 6.46387L6.92297 10.7509" stroke="#BDBDBD" stroke-miterlimit="10" stroke-linecap="round" stroke-linejoin="round"/>
</svg>
