<svg xmlns="http://www.w3.org/2000/svg" width="44" height="44" viewBox="0 0 44 44">
  <g id="Group_14226" data-name="Group 14226" transform="translate(-297 -126)">
    <circle id="Ellipse_614" data-name="Ellipse 614" cx="22" cy="22" r="22" transform="translate(297 126)" fill="#00e372"/>
    <path id="Path_20278" data-name="Path 20278" d="M-456.794,74.049l-11.813,11.813a2.641,2.641,0,0,1-1.88.779,2.642,2.642,0,0,1-1.88-.779l-6.02-6.02a2.642,2.642,0,0,1-.779-1.88,2.642,2.642,0,0,1,.779-1.88,2.641,2.641,0,0,1,1.88-.779,2.64,2.64,0,0,1,1.88.779l4.14,4.14,9.932-9.932a2.641,2.641,0,0,1,1.88-.779,2.642,2.642,0,0,1,1.88.779A2.662,2.662,0,0,1-456.794,74.049Z" transform="translate(786.913 69.501)" fill="#fff"/>
  </g>
</svg>
