<svg xmlns="http://www.w3.org/2000/svg" xmlns:xlink="http://www.w3.org/1999/xlink" width="100%" height="100%" viewBox="0 0 43.93 48.024">
    <defs>
        <linearGradient id="linear-gradient" x1="0.5" x2="0.5" y2="1" gradientUnits="objectBoundingBox">
            <stop offset="0" stop-color="#00ade6"/>
            <stop offset="1" stop-color="#34e4ea"/>
        </linearGradient>
        <filter id="ic_content_copy_24px" x="0" y="0" width="43.93" height="48.024" filterUnits="userSpaceOnUse">
            <feOffset dy="3" input="SourceAlpha"/>
            <feGaussianBlur stdDeviation="3" result="blur"/>
            <feFlood flood-opacity="0.161"/>
            <feComposite operator="in" in2="blur"/>
            <feComposite in="SourceGraphic"/>
        </filter>
    </defs>
    <g id="Group_14593" data-name="Group 14593" transform="translate(-1286.535 -266.988)">
        <g transform="matrix(1, 0, 0, 1, 1286.53, 266.99)" filter="url(#ic_content_copy_24px)">
            <path id="ic_content_copy_24px-2" data-name="ic_content_copy_24px" d="M21.106,1H4.729A2.738,2.738,0,0,0,2,3.729V22.836H4.729V3.729H21.106ZM25.2,6.459H10.188A2.738,2.738,0,0,0,7.459,9.188V28.295a2.738,2.738,0,0,0,2.729,2.729H25.2a2.738,2.738,0,0,0,2.729-2.729V9.188A2.738,2.738,0,0,0,25.2,6.459Zm0,21.836H10.188V9.188H25.2Z" transform="translate(7 5)" fill="url(#linear-gradient)"/>
        </g>
    </g>
</svg>
