<svg width="40" height="40" viewBox="0 0 40 40" fill="none" xmlns="http://www.w3.org/2000/svg">
<path d="M19.8557 0C9.70129 7.28293e-07 10.3354 4.42666 10.3354 4.42666L10.3467 9.01263H20.0369V10.3896H6.49783C6.49783 10.3896 0 9.64878 0 19.9484C-7.24496e-07 30.248 5.67145 29.8828 5.67145 29.8828H9.05621V25.1034C9.05621 25.1034 8.87376 19.4022 14.6371 19.4022C20.4004 19.4022 24.248 19.4022 24.248 19.4022C24.248 19.4022 29.6478 19.4899 29.6478 14.1562C29.6478 8.82247 29.6478 5.33702 29.6478 5.33702C29.6478 5.33702 30.4676 0 19.8557 0ZM14.5126 3.08387C15.4767 3.08387 16.2559 3.86717 16.2559 4.83632C16.2559 5.80547 15.4767 6.58878 14.5126 6.58878C13.5485 6.58878 12.7693 5.80547 12.7693 4.83632C12.7693 3.86717 13.5485 3.08387 14.5126 3.08387Z" fill="url(#paint0_linear_2990_56951)"/>
<path d="M20.1443 40C30.2987 40 29.6646 35.5733 29.6646 35.5733L29.6533 30.9874H19.9631V29.6104H33.5022C33.5022 29.6104 40 30.3512 40 20.0516C40 9.75198 34.3285 10.1172 34.3285 10.1172H30.9438V14.8966C30.9438 14.8966 31.1262 20.5978 25.3629 20.5978C19.5996 20.5978 15.752 20.5978 15.752 20.5978C15.752 20.5978 10.3522 20.5101 10.3522 25.8438C10.3522 31.1775 10.3522 34.663 10.3522 34.663C10.3522 34.663 9.5324 40 20.1443 40ZM25.4874 36.9161C24.5233 36.9161 23.7441 36.1328 23.7441 35.1637C23.7441 34.1945 24.5233 33.4112 25.4874 33.4112C26.4515 33.4112 27.2307 34.1945 27.2307 35.1637C27.2307 36.1328 26.4515 36.9161 25.4874 36.9161Z" fill="url(#paint1_linear_2990_56951)"/>
<defs>
<linearGradient id="paint0_linear_2990_56951" x1="5.18374" y1="4.67985" x2="31.7959" y2="31.4406" gradientUnits="userSpaceOnUse">
<stop stop-color="#387EB8"/>
<stop offset="1" stop-color="#366994"/>
</linearGradient>
<linearGradient id="paint1_linear_2990_56951" x1="16.0112" y1="16.1869" x2="37.36" y2="36.5334" gradientUnits="userSpaceOnUse">
<stop stop-color="#FFE052"/>
<stop offset="1" stop-color="#FFC331"/>
</linearGradient>
</defs>
</svg>
