<svg width="27" height="40" viewBox="0 0 27 40" fill="none" xmlns="http://www.w3.org/2000/svg">
<path d="M6.84855 40C10.5285 40 13.5152 37.0133 13.5152 33.3333V26.6666H6.84855C3.16855 26.6666 0.181885 29.6533 0.181885 33.3333C0.181885 37.0133 3.16855 40 6.84855 40Z" fill="#0ACF83"/>
<path d="M0.181885 19.9992C0.181885 16.3192 3.16855 13.3325 6.84855 13.3325H13.5152V26.6666H6.84855C3.16855 26.6666 0.181885 23.6792 0.181885 19.9992Z" fill="#A259FF"/>
<path d="M0.182275 6.66667C0.182275 2.98667 3.16894 0 6.84894 0H13.5156L13.5152 13.3325H6.84855C3.16855 13.3325 0.182275 10.3467 0.182275 6.66667Z" fill="#F24E1E"/>
<path d="M13.5156 0H20.1819C23.8619 0 26.8485 2.98667 26.8485 6.66667C26.8485 10.3467 23.8619 13.3333 20.1819 13.3333L13.5152 13.3325L13.5156 0Z" fill="#FF7262"/>
<path d="M26.8485 19.9992C26.8485 23.6792 23.8619 26.6659 20.1819 26.6659C16.5019 26.6659 13.5152 23.6792 13.5152 19.9992C13.5152 16.3192 16.5019 13.3333 20.1819 13.3333C23.8619 13.3333 26.8485 16.3192 26.8485 19.9992Z" fill="#1ABCFE"/>
</svg>
