<svg width="16" height="20" viewBox="0 0 16 20" fill="none" xmlns="http://www.w3.org/2000/svg">
<path d="M2.42159 15.1814H15.3755C15.4151 15.1814 15.4536 15.1757 15.4905 15.1669C15.4934 15.1669 15.4959 15.1674 15.4988 15.1674C15.7753 15.1674 16 14.943 16 14.6663V0.501182C16 0.224528 15.7753 0 15.4988 0H15.3765H3.22315H2.4223C1.0883 0 0.00320822 1.08534 0.00320822 2.41896C0.00320822 2.43685 0.00672742 2.45382 0.00846634 2.47109C0.00672742 3.70303 -0.00855024 15.023 0.00672743 16.5112C0.00577516 16.5403 0.00221446 16.5687 0.00221446 16.5981C0.00221446 17.8805 1.00632 18.9303 2.26931 19.0096C2.29465 19.0135 2.31949 19.0172 2.34578 19.0172H15.4988C15.7753 19.0172 16 18.7928 16 18.516V16.6295C16 16.3529 15.7753 16.1283 15.4988 16.1283C15.2223 16.1283 14.9976 16.3529 14.9976 16.6295V18.0149H2.42159C1.65999 18.0149 1.03828 17.4102 1.00773 16.6561C1.00847 16.6427 1.01091 16.63 1.01066 16.6163C1.01017 16.5942 1.00942 16.56 1.00893 16.5145C1.05273 15.7723 1.66868 15.1814 2.42159 15.1814Z" fill="#BB5252"/>
<rect x="4" y="5" width="8" height="1" rx="0.5" fill="white"/>
<rect x="4" y="7.5" width="8" height="1" rx="0.5" fill="white"/>
<rect x="4" y="10" width="8" height="1" rx="0.5" fill="white"/>
</svg>
