<svg width="15" height="15" viewBox="0 0 15 15" fill="none" xmlns="http://www.w3.org/2000/svg">
<path d="M8.32868 7.50002L14.8284 1.00029C15.0572 0.771451 15.0572 0.400436 14.8284 0.171628C14.5996 -0.0571801 14.2285 -0.0572094 13.9997 0.171628L7.49999 6.67136L1.00029 0.171628C0.771451 -0.0572094 0.400436 -0.0572094 0.171628 0.171628C-0.0571801 0.400466 -0.0572094 0.771481 0.171628 1.00029L6.67133 7.49999L0.171628 13.9997C-0.0572094 14.2286 -0.0572094 14.5996 0.171628 14.8284C0.286032 14.9428 0.436003 15 0.585973 15C0.735943 15 0.885885 14.9428 1.00032 14.8284L7.49999 8.32868L13.9997 14.8284C14.1141 14.9428 14.2641 15 14.414 15C14.564 15 14.714 14.9428 14.8284 14.8284C15.0572 14.5996 15.0572 14.2285 14.8284 13.9997L8.32868 7.50002Z" fill="white"/>
</svg>
