<svg xmlns="http://www.w3.org/2000/svg" width="16.325" height="20.984" viewBox="0 0 16.325 20.984">
  <g id="delete" transform="translate(0)">
    <path id="Path_34161" data-name="Path 34161" d="M126.731,1.267h3.507v.59h1.267V1.184A1.185,1.185,0,0,0,130.322,0h-3.674a1.185,1.185,0,0,0-1.183,1.184v.673h1.267Zm0,0" transform="translate(-120.322 0)" fill="#00ade6"/>
    <path id="Path_34162" data-name="Path 34162" d="M52.938,167.75H41.048a.558.558,0,0,0-.556.6l.994,12.292a1.32,1.32,0,0,0,1.315,1.215h8.383a1.32,1.32,0,0,0,1.315-1.215l.994-12.291a.558.558,0,0,0-.556-.6Zm-9.011,12.8h-.04a.633.633,0,0,1-.631-.594l-.623-10.091a.633.633,0,1,1,1.264-.078l.623,10.091A.633.633,0,0,1,43.927,180.548Zm3.706-.632a.633.633,0,0,1-1.267,0V169.825a.633.633,0,0,1,1.267,0Zm3.72-10.054-.595,10.091a.633.633,0,0,1-.632.6h-.038a.633.633,0,0,1-.595-.67l.595-10.091a.633.633,0,1,1,1.264.075Zm0,0" transform="translate(-38.831 -160.875)" fill="#00ade6"/>
    <path id="Path_34163" data-name="Path 34163" d="M16.3,78.009l-.416-1.247a.805.805,0,0,0-.764-.55H1.207a.805.805,0,0,0-.764.55L.028,78.009a.523.523,0,0,0,.5.688H15.8a.516.516,0,0,0,.277-.08.522.522,0,0,0,.219-.608Zm0,0" transform="translate(0 -73.088)" fill="#00ade6"/>
  </g>
</svg>
