<svg xmlns="http://www.w3.org/2000/svg" xmlns:xlink="http://www.w3.org/1999/xlink" width="100%" height="100%" viewBox="0 0 80.782 59.855">
  <defs>
    <linearGradient id="linear-gradient" x1="0.217" y1="0.215" x2="0.844" y2="0.861" gradientUnits="objectBoundingBox">
      <stop offset="0" stop-color="#34e4ea"/>
      <stop offset="1" stop-color="#00ade6"/>
    </linearGradient>
    <filter id="ic_devices_24px" x="0" y="0" width="80.782" height="59.855" filterUnits="userSpaceOnUse">
      <feOffset dy="3" input="SourceAlpha"/>
      <feGaussianBlur stdDeviation="3" result="blur"/>
      <feFlood flood-opacity="0.161"/>
      <feComposite operator="in" in2="blur"/>
      <feComposite in="SourceGraphic"/>
    </filter>
  </defs>
  <g transform="matrix(1, 0, 0, 1, 0, 0)" filter="url(#ic_devices_24px)">
    <path id="ic_devices_24px-2" data-name="ic_devices_24px" d="M10.464,9.232H57.55V4H10.464A5.247,5.247,0,0,0,5.232,9.232V38.007H0v7.848H36.623V38.007H10.464Zm49.7,5.232h-15.7a2.624,2.624,0,0,0-2.616,2.616V43.239a2.624,2.624,0,0,0,2.616,2.616h15.7a2.624,2.624,0,0,0,2.616-2.616V17.08a2.624,2.624,0,0,0-2.616-2.616ZM57.55,38.007H47.087V19.7H57.55Z" transform="translate(9 2)" opacity="0.5" fill="url(#linear-gradient)"/>
  </g>
</svg>
