<svg xmlns="http://www.w3.org/2000/svg" width="100%" height="100%" viewBox="0 0 24.155 24.156">
    <defs>
        <style>
            ._purchaseForm_prefix__cls-2{fill:#fafafa}
        </style>
    </defs>
    <g id="prefix__sale" transform="translate(-.01)">
        <path id="prefix__Path_34029" d="M23.056 12.078l1.06-2.764a.756.756 0 0 0-.229-.857l-2.3-1.863-.464-2.924a.755.755 0 0 0-.628-.627l-2.924-.465L15.71.279a.756.756 0 0 0-.856-.229l-2.766 1.061L9.324.051a.753.753 0 0 0-.856.229L6.6 2.58l-2.924.465a.756.756 0 0 0-.627.627L2.589 6.6.29 8.458a.755.755 0 0 0-.229.856l1.06 2.764-1.06 2.765a.753.753 0 0 0 .229.857l2.3 1.861.465 2.924a.755.755 0 0 0 .627.628l2.924.465 1.863 2.3a.751.751 0 0 0 .857.229l2.763-1.058 2.764 1.06a.755.755 0 0 0 .857-.231l1.861-2.3 2.924-.465a.756.756 0 0 0 .628-.628l.465-2.924 2.3-1.861a.754.754 0 0 0 .229-.856z" data-name="Path 34029" style="fill:#00ade6"/>
        <g id="prefix__Group_14515" data-name="Group 14515" transform="translate(7.559 6.039)">
            <path fill="#fafafa" id="prefix__Path_34030" d="M162.286 132.564a2.264 2.264 0 1 1 2.264-2.264 2.267 2.267 0 0 1-2.264 2.264zm0-3.019a.755.755 0 1 0 .755.755.755.755 0 0 0-.755-.755z" class="_purchaseForm_prefix__cls-2" data-name="Path 34030" transform="translate(-160.022 -128.034)"/>
            <path fill="#fafafa" id="prefix__Path_34031" d="M258.286 292.564a2.264 2.264 0 1 1 2.265-2.264 2.267 2.267 0 0 1-2.265 2.264zm0-3.019a.755.755 0 1 0 .755.755.757.757 0 0 0-.755-.755z" class="_purchaseForm_prefix__cls-2" data-name="Path 34031" transform="translate(-251.493 -280.486)"/>
            <path fill="#fafafa" id="prefix__Path_34032" d="M160.79 140.1a.755.755 0 0 1-.613-1.194l7.548-10.568a.755.755 0 0 1 1.229.877l-7.548 10.568a.758.758 0 0 1-.616.317z" class="_purchaseForm_prefix__cls-2" data-name="Path 34032" transform="translate(-160.036 -128.017)"/>
        </g>
    </g>
</svg>
