<?xml version="1.0" standalone="no"?>
<!DOCTYPE svg PUBLIC "-//W3C//DTD SVG 1.1//EN" "http://www.w3.org/Graphics/SVG/1.1/DTD/svg11.dtd">
<svg width="100%" height="100%" viewBox="0 0 78 83" version="1.1" xmlns="http://www.w3.org/2000/svg" xmlns:xlink="http://www.w3.org/1999/xlink" xml:space="preserve" style="fill-rule:evenodd;clip-rule:evenodd;stroke-linejoin:round;stroke-miterlimit:1.41421;">
    <g id="prefix__XMLID_292_" transform="matrix(1,0,0,1,9,5.999)">
        <g opacity="0.5">
            <g id="prefix__XMLID_813_2" transform="matrix(1,0,0,1,0,0.001)">
                <path d="M58.828,7.436L53.823,7.436L53.823,1.27C53.826,0.894 53.668,0.534 53.388,0.283C53.122,0.045 52.756,-0.051 52.407,0.028L20.158,7.462L20.151,7.462C19.593,7.61 19.207,8.127 19.223,8.704L19.223,22.819C16.344,24.013 14.478,26.862 14.535,29.978L14.535,43.008C14.491,42.958 14.449,42.908 14.404,42.859C12.887,41.161 10.715,40.189 8.438,40.189C6.161,40.189 3.989,41.161 2.472,42.859C-0.801,46.522 -0.801,52.123 2.472,55.786C3.988,57.486 6.16,58.459 8.438,58.459C10.716,58.459 12.888,57.486 14.404,55.786L14.54,55.638C14.54,55.712 14.535,55.786 14.535,55.86C14.535,60.9 18.32,65.001 22.973,65.001C26.409,64.925 29.472,62.761 30.691,59.548L39.731,59.548C40.378,59.548 40.903,58.036 40.903,57.335C40.903,56.634 40.378,55.122 39.731,55.122L31.337,55.122C31.381,54.745 31.406,56.25 31.406,55.861C31.406,50.821 27.621,46.72 22.968,46.72C22.899,46.72 22.831,46.72 22.768,46.726L31.298,37.485C32.31,36.374 32.98,34.994 33.225,33.512L33.225,33.398C33.347,29.579 30.18,27.17 30.215,27.89L23.315,35.69L23.315,11.863L55.925,11.863L55.925,55.121L50.273,55.121C49.626,55.121 49.101,56.633 49.101,57.334C49.101,58.035 49.626,59.547 50.273,59.547L58.828,59.547C59.497,59.519 60.025,58.947 60,58.278L60,8.706C60.026,8.037 59.497,7.464 58.828,7.436ZM29.063,55.86C29.192,59.339 26.447,62.312 22.969,62.46C19.555,62.175 16.897,59.286 16.897,55.86C16.897,52.434 19.555,49.545 22.969,49.26C26.447,49.408 29.192,52.381 29.063,55.86L29.063,55.86ZM51.479,7.436L31.53,7.436L51.479,2.836L51.479,7.436ZM19.219,25.6L19.219,39.793L16.875,42.332L16.875,29.977C16.855,28.215 17.741,26.56 19.219,25.6L19.219,25.6ZM4.125,53.99C1.762,51.344 1.762,47.3 4.125,44.654C5.22,43.426 6.789,42.723 8.434,42.723C10.079,42.723 11.648,43.426 12.743,44.654C15.107,47.299 15.107,51.345 12.743,53.99C11.648,55.217 10.079,55.92 8.434,55.92C6.789,55.92 5.22,55.217 4.125,53.99ZM29.637,35.69L16.863,49.527C16.886,48.471 16.739,47.418 16.428,46.408L30.838,30.8C31.277,32.527 30.826,34.364 29.638,35.692L29.637,35.69Z" style="fill:url(#_Linear1);fill-rule:nonzero;"/>
            </g>
            <g id="prefix__XMLID_851_2" transform="matrix(1,0,0,1,-253.2,-304.439)">
                <path d="M299.435,348L283.71,348C282.772,348 282.001,348.771 282.001,349.709C282.001,350.647 282.772,351.418 283.71,351.418L299.434,351.418C300.372,351.418 301.143,350.647 301.143,349.709C301.143,348.771 300.372,348 299.434,348L299.435,348Z" style="fill:url(#_Linear2);fill-rule:nonzero;"/>
            </g>
        </g>
    </g>
    <defs>
        <linearGradient id="_Linear1" x1="0" y1="0" x2="1" y2="0" gradientUnits="userSpaceOnUse" gradientTransform="matrix(37.61,41.99,-41.99,37.61,13.0334,13.976)"><stop offset="0%" style="stop-color:rgb(52,228,234);stop-opacity:1"/><stop offset="100%" style="stop-color:rgb(0,173,230);stop-opacity:1"/></linearGradient>
        <linearGradient id="_Linear2" x1="0" y1="0" x2="1" y2="0" gradientUnits="userSpaceOnUse" gradientTransform="matrix(12.002,2.20803,-2.20803,12.002,286.155,348.735)"><stop offset="0%" style="stop-color:rgb(52,228,234);stop-opacity:1"/><stop offset="100%" style="stop-color:rgb(0,173,230);stop-opacity:1"/></linearGradient>
    </defs>
</svg>
