<svg width="24" height="25" viewBox="0 0 24 25" fill="none" xmlns="http://www.w3.org/2000/svg">
<path fill-rule="evenodd" clip-rule="evenodd" d="M6.75 3.69531C6.35218 3.69531 5.97064 3.85335 5.68934 4.13465C5.40804 4.41596 5.25 4.79749 5.25 5.19531V20.1953C5.25 20.5931 5.40804 20.9747 5.68934 21.256C5.97064 21.5373 6.35218 21.6953 6.75 21.6953H17.25C17.6478 21.6953 18.0294 21.5373 18.3107 21.256C18.592 20.9747 18.75 20.5931 18.75 20.1953V11.0665C18.75 11.0665 18.75 11.0664 18.75 11.0664C18.7499 10.8676 18.671 10.677 18.5305 10.5364C18.5304 10.5364 18.5304 10.5364 18.5304 10.5364L11.9089 3.91492C11.7684 3.77436 11.5777 3.69537 11.3789 3.69531C11.3789 3.69531 11.3788 3.69531 11.3788 3.69531H6.75ZM4.62868 3.07399C5.19129 2.51138 5.95435 2.19531 6.75 2.19531H11.379C11.9756 2.1954 12.5476 2.43238 12.9695 2.85414L12.9695 2.8542L19.5912 9.47582C20.0129 9.89768 20.2499 10.4698 20.25 11.0663V20.1953C20.25 20.991 19.9339 21.754 19.3713 22.3166C18.8087 22.8792 18.0457 23.1953 17.25 23.1953H6.75C5.95435 23.1953 5.19129 22.8792 4.62868 22.3166C4.06607 21.754 3.75 20.991 3.75 20.1953V5.19531C3.75 4.39966 4.06607 3.6366 4.62868 3.07399Z" fill="#005773"/>
<path fill-rule="evenodd" clip-rule="evenodd" d="M12 2.57031C12.4142 2.57031 12.75 2.9061 12.75 3.32031V8.94531C12.75 9.14422 12.829 9.33499 12.9697 9.47564C13.1103 9.61629 13.3011 9.69531 13.5 9.69531H19.125C19.5392 9.69531 19.875 10.0311 19.875 10.4453C19.875 10.8595 19.5392 11.1953 19.125 11.1953H13.5C12.9033 11.1953 12.331 10.9583 11.909 10.5363C11.4871 10.1143 11.25 9.54205 11.25 8.94531V3.32031C11.25 2.9061 11.5858 2.57031 12 2.57031Z" fill="#005773"/>
<path fill-rule="evenodd" clip-rule="evenodd" d="M7.5 14.1953C7.5 13.7811 7.83579 13.4453 8.25 13.4453H15.75C16.1642 13.4453 16.5 13.7811 16.5 14.1953C16.5 14.6095 16.1642 14.9453 15.75 14.9453H8.25C7.83579 14.9453 7.5 14.6095 7.5 14.1953Z" fill="#333333"/>
<path fill-rule="evenodd" clip-rule="evenodd" d="M7.5 17.9453C7.5 17.5311 7.83579 17.1953 8.25 17.1953H15.75C16.1642 17.1953 16.5 17.5311 16.5 17.9453C16.5 18.3595 16.1642 18.6953 15.75 18.6953H8.25C7.83579 18.6953 7.5 18.3595 7.5 17.9453Z" fill="#333333"/>
</svg>
