<svg width="18" height="18" viewBox="0 0 18 18" fill="none" xmlns="http://www.w3.org/2000/svg">
<circle cx="9.31488" cy="9.31586" r="8.685" fill="white"/>
<path d="M8.00078 4.64016L8.34609 11.5464C8.36231 11.8707 8.62998 12.1253 8.9547 12.1253L9.89139 12.125C10.2161 12.125 10.4838 11.8704 10.5 11.5461L10.8453 4.63982C10.8627 4.29174 10.5852 4 10.2367 4L8.60939 4.00034C8.26088 4.00034 7.98338 4.29208 8.00078 4.64016Z" fill="#8C61CB"/>
<path d="M9.5 16C10.3271 16 11 15.3271 11 14.5C11 13.6729 10.3271 13 9.5 13C8.6729 13 8 13.6729 8 14.5C8 15.3271 8.6729 16 9.5 16Z" fill="#8C61CB"/>
</svg>
