<svg width="25" height="25" viewBox="0 0 25 25" fill="none" xmlns="http://www.w3.org/2000/svg">
<g opacity="0.5">
<path d="M0.870599 7.55517C1.35152 7.55517 1.7412 7.16538 1.7412 6.68457V2.97257L7.34843 8.57865C7.51849 8.74859 7.74125 8.83356 7.964 8.83356C8.18688 8.83356 8.40975 8.74859 8.57969 8.57853C8.91969 8.23853 8.91969 7.68727 8.57957 7.34739L2.97211 1.7412H6.68492C7.16572 1.7412 7.55552 1.3514 7.55552 0.870599C7.55552 0.389796 7.16584 0 6.68492 0H0.870599C0.38968 0 0 0.389796 0 0.870599V6.68469C0 7.16538 0.38968 7.55517 0.870599 7.55517Z" fill="#34E4EA"/>
<path d="M24.1289 17.4424C23.648 17.4424 23.2583 17.8322 23.2583 18.313V22.0251L17.4784 16.2452C17.1383 15.9052 16.5872 15.9052 16.2472 16.2452C15.9072 16.5852 15.9072 17.1365 16.2472 17.4764L22.0269 23.2561H18.315C17.8341 23.2561 17.4444 23.6459 17.4444 24.1267C17.4444 24.6075 17.8341 24.9973 18.315 24.9973H24.129C24.6099 24.9973 24.9996 24.6075 24.9996 24.1267V18.313C24.9995 17.8322 24.6097 17.4424 24.1289 17.4424Z" fill="#34E4EA"/>
<path d="M7.52046 16.2452L1.7412 22.025V18.313C1.7412 17.8322 1.35152 17.4424 0.870599 17.4424C0.38968 17.4424 0 17.8322 0 18.313V24.1269C0 24.6077 0.38968 24.9975 0.870599 24.9975H6.68434C7.16514 24.9975 7.55494 24.6077 7.55494 24.1269C7.55494 23.6461 7.16526 23.2563 6.68434 23.2563H2.97234L8.75172 17.4764C9.09172 17.1364 9.09172 16.5851 8.75161 16.2451C8.41184 15.9052 7.86058 15.9052 7.52046 16.2452Z" fill="#34E4EA"/>
<path d="M24.1273 0H18.3134C17.8324 0 17.4428 0.389796 17.4428 0.870599C17.4428 1.3514 17.8324 1.7412 18.3134 1.7412H22.0255L16.419 7.34797C16.079 7.68797 16.079 8.23923 16.4192 8.57923C16.5891 8.74917 16.812 8.83414 17.0347 8.83414C17.2575 8.83414 17.4804 8.74905 17.6504 8.57911L23.2568 2.97234V6.68457C23.2568 7.16537 23.6465 7.55517 24.1274 7.55517C24.6084 7.55517 24.998 7.16537 24.998 6.68457V0.870599C24.9979 0.38968 24.6081 0 24.1273 0Z" fill="#34E4EA"/>
</g>
</svg>
