<svg width="41" height="40" viewBox="0 0 41 40" fill="none" xmlns="http://www.w3.org/2000/svg">
<rect x="0.264648" width="40" height="40" rx="20" fill="#01AA93" fill-opacity="0.2"/>
<path fill-rule="evenodd" clip-rule="evenodd" d="M30.931 19.9997C30.931 25.8907 26.1554 30.6663 20.2643 30.6663C14.3733 30.6663 9.59766 25.8907 9.59766 19.9997C9.59766 14.1086 14.3733 9.33301 20.2643 9.33301C26.1554 9.33301 30.931 14.1086 30.931 19.9997ZM24.5633 16.7673C24.8758 17.0797 24.8758 17.5863 24.5633 17.8987L19.23 23.232C18.9176 23.5444 18.4111 23.5444 18.0986 23.232L15.9653 21.0987C15.6529 20.7863 15.6529 20.2797 15.9653 19.9673C16.2777 19.6549 16.7843 19.6549 17.0967 19.9673L18.6643 21.535L21.0481 19.1511L23.432 16.7673C23.7444 16.4549 24.2509 16.4549 24.5633 16.7673Z" fill="#01AA93"/>
</svg>
