<svg width="24" height="25" viewBox="0 0 24 25" fill="none" xmlns="http://www.w3.org/2000/svg">
<path d="M12 24.5C18.6274 24.5 24 19.1274 24 12.5C24 5.87258 18.6274 0.5 12 0.5C5.37258 0.5 0 5.87258 0 12.5C0 19.1274 5.37258 24.5 12 24.5Z" fill="white"/>
<path d="M18.0651 10.0756L11.622 16.5187C11.4876 16.6548 11.3274 16.7629 11.1508 16.8364C10.9742 16.91 10.7847 16.9477 10.5934 16.9473C10.4021 16.9477 10.2126 16.91 10.036 16.8364C9.85941 16.7629 9.69923 16.6548 9.56482 16.5187L6.28111 13.235C6.14497 13.1006 6.03696 12.9404 5.96337 12.7638C5.88979 12.5872 5.85212 12.3977 5.85254 12.2064C5.85212 12.0151 5.88979 11.8256 5.96337 11.649C6.03696 11.4724 6.14497 11.3123 6.28111 11.1778C6.41552 11.0417 6.5757 10.9337 6.7523 10.8601C6.92889 10.7865 7.11838 10.7488 7.3097 10.7493C7.50102 10.7488 7.69049 10.7865 7.8671 10.86C8.0437 10.9336 8.20387 11.0417 8.33825 11.1778L10.596 13.4356L16.0131 8.01842C16.1475 7.88227 16.3077 7.77426 16.4843 7.70068C16.6609 7.6271 16.8504 7.58942 17.0417 7.58985C17.233 7.58942 17.4225 7.6271 17.5991 7.70068C17.7757 7.77426 17.9358 7.88227 18.0703 8.01842C18.2053 8.15366 18.3123 8.31423 18.3852 8.49092C18.4581 8.66761 18.4953 8.85694 18.4948 9.04806C18.4943 9.23918 18.4561 9.42833 18.3824 9.60465C18.3087 9.78097 18.2009 9.941 18.0651 10.0756V10.0756Z" fill="#01AA93"/>
</svg>
