<svg width="49" height="49" viewBox="0 0 49 49" fill="none" xmlns="http://www.w3.org/2000/svg">
<path d="M24.2608 7.57642C20.962 7.57642 17.7374 8.55461 14.9946 10.3873C12.2518 12.22 10.114 14.8248 8.85163 17.8725C7.58926 20.9201 7.25896 24.2737 7.90252 27.509C8.54607 30.7444 10.1346 33.7163 12.4671 36.0488C14.7997 38.3814 17.7716 39.9699 21.0069 40.6134C24.2423 41.257 27.5958 40.9267 30.6435 39.6643C33.6911 38.4019 36.296 36.2642 38.1287 33.5214C39.9613 30.7786 40.9395 27.5539 40.9395 24.2552C40.9395 19.8317 39.1823 15.5894 36.0544 12.4615C32.9266 9.33364 28.6843 7.57642 24.2608 7.57642Z" stroke="white" stroke-width="2.24989" stroke-miterlimit="10"/>
<path d="M18.9434 19.1676C18.9434 19.1676 19.023 17.5092 20.7979 16.0811C21.8508 15.2329 23.113 14.9875 24.2502 14.9704C25.286 14.9572 26.2109 15.1287 26.7644 15.3922C27.712 15.8432 29.5571 16.9444 29.5571 19.2861C29.5571 21.75 27.9461 22.8692 26.1105 24.1002C24.2749 25.3312 23.7764 26.6674 23.7764 28.0481" stroke="white" stroke-width="1.96866" stroke-miterlimit="10" stroke-linecap="round"/>
<path d="M25.5523 32.9747C25.5523 34.002 24.7195 34.8348 23.6922 34.8348C22.6649 34.8348 21.832 34.002 21.832 32.9747C21.832 31.9473 22.6649 31.1145 23.6922 31.1145C24.7195 31.1145 25.5523 31.9473 25.5523 32.9747Z" fill="white" stroke="white" stroke-width="0.0703092"/>
</svg>
