<svg width="134" height="581" viewBox="0 0 134 581" fill="none" xmlns="http://www.w3.org/2000/svg">
<g opacity="0.4">
<mask id="mask0_7207_97001" style="mask-type:alpha" maskUnits="userSpaceOnUse" x="0" y="0" width="134" height="581">
<rect x="134" width="581" height="134" transform="rotate(90 134 0)" fill="#EEEEEE"/>
</mask>
<g mask="url(#mask0_7207_97001)">
<rect x="539.974" y="14.0762" width="7.99943" height="608.507" transform="matrix(-0.311094 0.950394 -0.950379 -0.31105 721.335 -494.733)" fill="#EDEDED"/>
<rect x="537.486" y="21.6797" width="11.9991" height="608.507" transform="matrix(-0.311094 0.950394 -0.950379 -0.31105 725.299 -482.4)" fill="white"/>
<rect x="529.767" y="47.9414" width="7.99943" height="608.507" transform="matrix(-0.311094 0.950394 -0.950379 -0.31105 740.137 -440.634)" fill="#EDEDED"/>
<rect x="527.279" y="55.5449" width="11.9991" height="608.507" transform="matrix(-0.311094 0.950394 -0.950379 -0.31105 744.101 -428.3)" fill="white"/>
<rect x="519.561" y="81.8066" width="7.99943" height="608.507" transform="matrix(-0.311094 0.950394 -0.950379 -0.31105 758.94 -386.534)" fill="#EDEDED"/>
<rect x="517.072" y="89.4102" width="11.9991" height="608.507" transform="matrix(-0.311094 0.950394 -0.950379 -0.31105 762.904 -374.201)" fill="white"/>
<rect x="509.354" y="115.672" width="7.99943" height="608.507" transform="matrix(-0.311094 0.950394 -0.950379 -0.31105 777.743 -332.435)" fill="#EDEDED"/>
<rect x="506.865" y="123.275" width="11.9991" height="608.507" transform="matrix(-0.311094 0.950394 -0.950379 -0.31105 781.707 -320.101)" fill="white"/>
<rect x="499.146" y="149.537" width="7.99943" height="608.507" transform="matrix(-0.311094 0.950394 -0.950379 -0.31105 796.545 -278.335)" fill="#EDEDED"/>
<rect x="496.658" y="157.141" width="11.9991" height="608.507" transform="matrix(-0.311094 0.950394 -0.950379 -0.31105 800.509 -266.002)" fill="white"/>
<rect x="488.94" y="183.402" width="7.99943" height="608.507" transform="matrix(-0.311094 0.950394 -0.950379 -0.31105 815.348 -224.236)" fill="#EDEDED"/>
<rect x="486.452" y="191.006" width="11.9991" height="608.507" transform="matrix(-0.311094 0.950394 -0.950379 -0.31105 819.312 -211.902)" fill="white"/>
<rect x="478.733" y="217.268" width="7.99943" height="608.507" transform="matrix(-0.311094 0.950394 -0.950379 -0.31105 834.151 -170.136)" fill="#EDEDED"/>
<rect x="476.245" y="224.871" width="11.9991" height="608.507" transform="matrix(-0.311094 0.950394 -0.950379 -0.31105 838.114 -157.803)" fill="white"/>
<rect x="468.526" y="251.133" width="7.99943" height="608.507" transform="matrix(-0.311094 0.950394 -0.950379 -0.31105 852.954 -116.037)" fill="#EDEDED"/>
<rect x="466.038" y="258.736" width="11.9991" height="608.507" transform="matrix(-0.311094 0.950394 -0.950379 -0.31105 856.917 -103.703)" fill="white"/>
<rect x="458.319" y="284.998" width="7.99943" height="608.507" transform="matrix(-0.311094 0.950394 -0.950379 -0.31105 871.756 -61.9371)" fill="#EDEDED"/>
<rect x="455.831" y="292.602" width="11.9991" height="608.507" transform="matrix(-0.311094 0.950394 -0.950379 -0.31105 875.72 -49.6036)" fill="white"/>
<rect x="448.112" y="318.863" width="7.99943" height="608.507" transform="matrix(-0.311094 0.950394 -0.950379 -0.31105 890.558 -7.83736)" fill="#EDEDED"/>
<rect x="445.624" y="326.467" width="11.9991" height="608.507" transform="matrix(-0.311094 0.950394 -0.950379 -0.31105 894.522 4.49608)" fill="white"/>
<rect x="437.906" y="352.729" width="7.99943" height="608.507" transform="matrix(-0.311094 0.950394 -0.950379 -0.31105 909.362 46.2619)" fill="#EDEDED"/>
<rect x="435.417" y="360.332" width="11.9991" height="608.507" transform="matrix(-0.311094 0.950394 -0.950379 -0.31105 913.325 58.5953)" fill="white"/>
<rect x="427.699" y="386.594" width="7.99943" height="608.507" transform="matrix(-0.311094 0.950394 -0.950379 -0.31105 928.164 100.362)" fill="#EDEDED"/>
<rect x="425.21" y="394.197" width="11.9991" height="608.507" transform="matrix(-0.311094 0.950394 -0.950379 -0.31105 932.128 112.695)" fill="white"/>
<rect x="417.492" y="420.459" width="7.99943" height="608.507" transform="matrix(-0.311094 0.950394 -0.950379 -0.31105 946.966 154.461)" fill="#EDEDED"/>
<rect x="415.003" y="428.062" width="11.9991" height="608.507" transform="matrix(-0.311094 0.950394 -0.950379 -0.31105 950.93 166.795)" fill="white"/>
<rect x="407.285" y="454.324" width="7.99943" height="608.507" transform="matrix(-0.311094 0.950394 -0.950379 -0.31105 965.769 208.561)" fill="#EDEDED"/>
<rect x="404.797" y="461.928" width="11.9991" height="608.507" transform="matrix(-0.311094 0.950394 -0.950379 -0.31105 969.733 220.894)" fill="white"/>
<rect x="397.078" y="488.189" width="7.99943" height="608.507" transform="matrix(-0.311094 0.950394 -0.950379 -0.31105 984.572 262.66)" fill="#EDEDED"/>
<rect x="394.59" y="495.793" width="11.9991" height="608.507" transform="matrix(-0.311094 0.950394 -0.950379 -0.31105 988.536 274.994)" fill="white"/>
<rect x="386.871" y="522.055" width="7.99943" height="608.507" transform="matrix(-0.311094 0.950394 -0.950379 -0.31105 1003.37 316.76)" fill="#EDEDED"/>
<rect x="384.383" y="529.658" width="11.9991" height="608.507" transform="matrix(-0.311094 0.950394 -0.950379 -0.31105 1007.34 329.093)" fill="white"/>
<rect x="376.665" y="555.92" width="7.99943" height="608.507" transform="matrix(-0.311094 0.950394 -0.950379 -0.31105 1022.18 370.859)" fill="#EDEDED"/>
<rect x="374.176" y="563.523" width="11.9991" height="608.507" transform="matrix(-0.311094 0.950394 -0.950379 -0.31105 1026.14 383.193)" fill="white"/>
<rect x="366.458" y="589.785" width="7.99943" height="608.507" transform="matrix(-0.311094 0.950394 -0.950379 -0.31105 1040.98 424.959)" fill="#EDEDED"/>
<rect x="363.969" y="597.389" width="11.9991" height="608.507" transform="matrix(-0.311094 0.950394 -0.950379 -0.31105 1044.94 437.292)" fill="white"/>
<rect x="356.25" y="623.65" width="7.99943" height="608.507" transform="matrix(-0.311094 0.950394 -0.950379 -0.31105 1059.78 479.059)" fill="#EDEDED"/>
<rect x="353.762" y="631.254" width="11.9991" height="608.507" transform="matrix(-0.311094 0.950394 -0.950379 -0.31105 1063.75 491.392)" fill="white"/>
<rect x="346.044" y="657.516" width="7.99943" height="608.507" transform="matrix(-0.311094 0.950394 -0.950379 -0.31105 1078.59 533.158)" fill="#EDEDED"/>
<rect x="343.556" y="665.119" width="11.9991" height="608.507" transform="matrix(-0.311094 0.950394 -0.950379 -0.31105 1082.55 545.491)" fill="white"/>
<rect x="335.837" y="691.381" width="7.99943" height="608.507" transform="matrix(-0.311094 0.950394 -0.950379 -0.31105 1097.39 587.258)" fill="#EDEDED"/>
<rect x="333.349" y="698.984" width="11.9991" height="608.507" transform="matrix(-0.311094 0.950394 -0.950379 -0.31105 1101.35 599.591)" fill="white"/>
<rect x="325.63" y="725.246" width="7.99943" height="608.507" transform="matrix(-0.311094 0.950394 -0.950379 -0.31105 1116.19 641.357)" fill="#EDEDED"/>
<rect x="323.142" y="732.85" width="11.9991" height="608.507" transform="matrix(-0.311094 0.950394 -0.950379 -0.31105 1120.15 653.691)" fill="white"/>
<rect x="315.423" y="759.111" width="7.99943" height="608.507" transform="matrix(-0.311094 0.950394 -0.950379 -0.31105 1134.99 695.457)" fill="#EDEDED"/>
<rect x="312.935" y="766.715" width="11.9991" height="608.507" transform="matrix(-0.311094 0.950394 -0.950379 -0.31105 1138.96 707.79)" fill="white"/>
</g>
</g>
</svg>
