<svg width="134" height="535" viewBox="0 0 134 535" fill="none" xmlns="http://www.w3.org/2000/svg">
<rect x="545.223" y="-1.77002" width="8" height="608.463" transform="rotate(108.124 545.223 -1.77002)" fill="#EDEDED"/>
<rect x="542.734" y="5.83307" width="12" height="608.463" transform="rotate(108.124 542.734 5.83307)" fill="white"/>
<rect x="539" y="17.2377" width="8" height="608.463" transform="rotate(108.124 539 17.2377)" fill="#EDEDED"/>
<rect x="536.512" y="24.8408" width="12" height="608.463" transform="rotate(108.124 536.512 24.8408)" fill="white"/>
<rect x="532.779" y="36.2452" width="8" height="608.463" transform="rotate(108.124 532.779 36.2452)" fill="#EDEDED"/>
<rect x="530.291" y="43.8483" width="12" height="608.463" transform="rotate(108.124 530.291 43.8483)" fill="white"/>
<rect x="526.559" y="55.2529" width="8" height="608.463" transform="rotate(108.124 526.559 55.2529)" fill="#EDEDED"/>
<rect x="524.07" y="62.856" width="12" height="608.463" transform="rotate(108.124 524.07 62.856)" fill="white"/>
<rect x="520.336" y="74.2605" width="8" height="608.463" transform="rotate(108.124 520.336 74.2605)" fill="#EDEDED"/>
<rect x="517.848" y="81.8636" width="12" height="608.463" transform="rotate(108.124 517.848 81.8636)" fill="white"/>
<rect x="514.115" y="93.2682" width="8" height="608.463" transform="rotate(108.124 514.115 93.2682)" fill="#EDEDED"/>
<rect x="511.627" y="100.871" width="12" height="608.463" transform="rotate(108.124 511.627 100.871)" fill="white"/>
<rect x="507.895" y="112.276" width="8" height="608.463" transform="rotate(108.124 507.895 112.276)" fill="#EDEDED"/>
<rect x="505.406" y="119.879" width="12" height="608.463" transform="rotate(108.124 505.406 119.879)" fill="white"/>
<rect x="501.672" y="131.283" width="8" height="608.463" transform="rotate(108.124 501.672 131.283)" fill="#EDEDED"/>
<rect x="499.184" y="138.886" width="12" height="608.463" transform="rotate(108.124 499.184 138.886)" fill="white"/>
<rect x="495.451" y="150.291" width="8" height="608.463" transform="rotate(108.124 495.451 150.291)" fill="#EDEDED"/>
<rect x="492.963" y="157.894" width="12" height="608.463" transform="rotate(108.124 492.963 157.894)" fill="white"/>
<rect x="489.229" y="169.299" width="8" height="608.463" transform="rotate(108.124 489.229 169.299)" fill="#EDEDED"/>
<rect x="486.74" y="176.902" width="12" height="608.463" transform="rotate(108.124 486.74 176.902)" fill="white"/>
<rect x="483.008" y="188.306" width="8" height="608.463" transform="rotate(108.124 483.008 188.306)" fill="#EDEDED"/>
<rect x="480.52" y="195.909" width="12" height="608.463" transform="rotate(108.124 480.52 195.909)" fill="white"/>
<rect x="476.787" y="207.314" width="8" height="608.463" transform="rotate(108.124 476.787 207.314)" fill="#EDEDED"/>
<rect x="474.299" y="214.917" width="12" height="608.463" transform="rotate(108.124 474.299 214.917)" fill="white"/>
<rect x="470.564" y="226.322" width="8" height="608.463" transform="rotate(108.124 470.564 226.322)" fill="#EDEDED"/>
<rect x="468.076" y="233.925" width="12" height="608.463" transform="rotate(108.124 468.076 233.925)" fill="white"/>
<rect x="464.344" y="245.329" width="8" height="608.463" transform="rotate(108.124 464.344 245.329)" fill="#EDEDED"/>
<rect x="461.855" y="252.932" width="12" height="608.463" transform="rotate(108.124 461.855 252.932)" fill="white"/>
<rect x="458.123" y="264.337" width="8" height="608.463" transform="rotate(108.124 458.123 264.337)" fill="#EDEDED"/>
<rect x="455.635" y="271.94" width="12" height="608.463" transform="rotate(108.124 455.635 271.94)" fill="white"/>
<rect x="451.9" y="283.345" width="8" height="608.463" transform="rotate(108.124 451.9 283.345)" fill="#EDEDED"/>
<rect x="449.412" y="290.948" width="12" height="608.463" transform="rotate(108.124 449.412 290.948)" fill="white"/>
<rect x="445.68" y="302.352" width="8" height="608.463" transform="rotate(108.124 445.68 302.352)" fill="#EDEDED"/>
<rect x="443.191" y="309.955" width="12" height="608.463" transform="rotate(108.124 443.191 309.955)" fill="white"/>
<rect x="439.459" y="321.36" width="8" height="608.463" transform="rotate(108.124 439.459 321.36)" fill="#EDEDED"/>
<rect x="436.971" y="328.963" width="12" height="608.463" transform="rotate(108.124 436.971 328.963)" fill="white"/>
<rect x="433.236" y="340.367" width="8" height="608.463" transform="rotate(108.124 433.236 340.367)" fill="#EDEDED"/>
<rect x="430.748" y="347.971" width="12" height="608.463" transform="rotate(108.124 430.748 347.971)" fill="white"/>
<rect x="427.016" y="359.375" width="8" height="608.463" transform="rotate(108.124 427.016 359.375)" fill="#EDEDED"/>
<rect x="424.527" y="366.978" width="12" height="608.463" transform="rotate(108.124 424.527 366.978)" fill="white"/>
<rect x="420.793" y="378.383" width="8" height="608.463" transform="rotate(108.124 420.793 378.383)" fill="#EDEDED"/>
<rect x="418.305" y="385.986" width="12" height="608.463" transform="rotate(108.124 418.305 385.986)" fill="white"/>
<rect x="414.572" y="397.39" width="8" height="608.463" transform="rotate(108.124 414.572 397.39)" fill="#EDEDED"/>
<rect x="412.084" y="404.993" width="12" height="608.463" transform="rotate(108.124 412.084 404.993)" fill="white"/>
<rect x="408.352" y="416.398" width="8" height="608.463" transform="rotate(108.124 408.352 416.398)" fill="#EDEDED"/>
<rect x="405.863" y="424.001" width="12" height="608.463" transform="rotate(108.124 405.863 424.001)" fill="white"/>
<rect x="402.129" y="435.406" width="8" height="608.463" transform="rotate(108.124 402.129 435.406)" fill="#EDEDED"/>
<rect x="399.641" y="443.009" width="12" height="608.463" transform="rotate(108.124 399.641 443.009)" fill="white"/>
<rect x="395.908" y="454.413" width="8" height="608.463" transform="rotate(108.124 395.908 454.413)" fill="#EDEDED"/>
<rect x="393.42" y="462.016" width="12" height="608.463" transform="rotate(108.124 393.42 462.016)" fill="white"/>
<rect x="389.688" y="473.421" width="8" height="608.463" transform="rotate(108.124 389.688 473.421)" fill="#EDEDED"/>
<rect x="387.199" y="481.024" width="12" height="608.463" transform="rotate(108.124 387.199 481.024)" fill="white"/>
<rect x="383.465" y="492.428" width="8" height="608.463" transform="rotate(108.124 383.465 492.428)" fill="#EDEDED"/>
<rect x="380.977" y="500.032" width="12" height="608.463" transform="rotate(108.124 380.977 500.032)" fill="white"/>
<rect x="377.244" y="511.436" width="8" height="608.463" transform="rotate(108.124 377.244 511.436)" fill="#EDEDED"/>
<rect x="374.756" y="519.039" width="12" height="608.463" transform="rotate(108.124 374.756 519.039)" fill="white"/>
<rect x="371.023" y="530.444" width="8" height="608.463" transform="rotate(108.124 371.023 530.444)" fill="#EDEDED"/>
<rect x="368.535" y="538.047" width="12" height="608.463" transform="rotate(108.124 368.535 538.047)" fill="white"/>
<rect x="364.801" y="549.451" width="8" height="608.463" transform="rotate(108.124 364.801 549.451)" fill="#EDEDED"/>
<rect x="362.312" y="557.054" width="12" height="608.463" transform="rotate(108.124 362.312 557.054)" fill="white"/>
<rect x="358.58" y="568.459" width="8" height="608.463" transform="rotate(108.124 358.58 568.459)" fill="#EDEDED"/>
<rect x="356.092" y="576.062" width="12" height="608.463" transform="rotate(108.124 356.092 576.062)" fill="white"/>
<rect x="352.357" y="587.467" width="8" height="608.463" transform="rotate(108.124 352.357 587.467)" fill="#EDEDED"/>
<rect x="349.869" y="595.07" width="12" height="608.463" transform="rotate(108.124 349.869 595.07)" fill="white"/>
<rect x="346.137" y="606.474" width="8" height="608.463" transform="rotate(108.124 346.137 606.474)" fill="#EDEDED"/>
<rect x="343.648" y="614.077" width="12" height="608.463" transform="rotate(108.124 343.648 614.077)" fill="white"/>
<rect x="339.916" y="625.482" width="8" height="608.463" transform="rotate(108.124 339.916 625.482)" fill="#EDEDED"/>
<rect x="337.428" y="633.085" width="12" height="608.463" transform="rotate(108.124 337.428 633.085)" fill="white"/>
<rect x="333.693" y="644.489" width="8" height="608.463" transform="rotate(108.124 333.693 644.489)" fill="#EDEDED"/>
<rect x="331.205" y="652.093" width="12" height="608.463" transform="rotate(108.124 331.205 652.093)" fill="white"/>
<rect x="327.473" y="663.497" width="8" height="608.463" transform="rotate(108.124 327.473 663.497)" fill="#EDEDED"/>
<rect x="324.984" y="671.1" width="12" height="608.463" transform="rotate(108.124 324.984 671.1)" fill="white"/>
<rect x="321.252" y="682.505" width="8" height="608.463" transform="rotate(108.124 321.252 682.505)" fill="#EDEDED"/>
<rect x="318.764" y="690.108" width="12" height="608.463" transform="rotate(108.124 318.764 690.108)" fill="white"/>
<rect x="315.029" y="701.512" width="8" height="608.463" transform="rotate(108.124 315.029 701.512)" fill="#EDEDED"/>
<rect x="312.541" y="709.116" width="12" height="608.463" transform="rotate(108.124 312.541 709.116)" fill="white"/>
<rect x="308.809" y="720.52" width="8" height="608.463" transform="rotate(108.124 308.809 720.52)" fill="#EDEDED"/>
</svg>
