<svg xmlns="http://www.w3.org/2000/svg" width="178.308" height="257.323" viewBox="0 0 178.308 257.323">
  <g id="Group_14405" data-name="Group 14405" transform="translate(-1069.47 -325.78)">
    <g id="laptop" transform="translate(1135.134 433.007)">
      <g id="Group_14010" data-name="Group 14010" transform="translate(-65.664 31.224)">
        <path id="Path_21716" data-name="Path 21716" d="M174.594,181.917H163.449V100.192A14.874,14.874,0,0,0,148.59,85.333H29.718a14.874,14.874,0,0,0-14.859,14.859v81.725H3.715A3.712,3.712,0,0,0,0,185.631v3.715a14.874,14.874,0,0,0,14.859,14.859H163.45a14.874,14.874,0,0,0,14.859-14.859v-3.715A3.712,3.712,0,0,0,174.594,181.917Zm-152.3-81.725a7.439,7.439,0,0,1,7.429-7.429H148.59a7.439,7.439,0,0,1,7.429,7.429v81.725H22.289Zm141.161,96.584H14.859a7.439,7.439,0,0,1-7.429-7.429H69.042l2.627,2.627a3.712,3.712,0,0,0,2.627,1.088h29.718a3.713,3.713,0,0,0,2.627-1.088l2.626-2.627h61.613A7.439,7.439,0,0,1,163.449,196.776Z" transform="translate(0 -85.333)" fill="#0ab5e3"/>
      </g>
    </g>
    <g id="Group_14222" data-name="Group 14222" transform="translate(75.916 -72.775)">
      <g id="Group_14224" data-name="Group 14224" transform="translate(2)">
        <g id="paper" transform="translate(1011.067 456.956) rotate(-22)">
          <g id="Group_14221" data-name="Group 14221" transform="translate(0 0)">
            <g id="Group_14220" data-name="Group 14220" transform="translate(0 0)">
              <path id="Path_21801" data-name="Path 21801" d="M45.375,14.6c0-.068-.068-.136-.136-.2s-.068-.136-.136-.2L31.817.294a.579.579,0,0,0-.341-.2A1.01,1.01,0,0,0,31,.021H1.158A.975.975,0,0,0,0,1.043V59.7a1.194,1.194,0,0,0,1.158,1.158H44.285A1.194,1.194,0,0,0,45.444,59.7V15.01A.864.864,0,0,0,45.375,14.6ZM32.09,3.973l9.4,9.879h-9.4ZM43.127,58.613H2.317V2.2H29.841V15.01A1.194,1.194,0,0,0,31,16.168H43.127Z" fill="#0ab5e3"/>
              <path id="Path_21802" data-name="Path 21802" d="M1.158,2.316H14.989a1.194,1.194,0,0,0,1.158-1.158A1.194,1.194,0,0,0,14.989,0H1.158A1.194,1.194,0,0,0,0,1.158,1.109,1.109,0,0,0,1.158,2.316Z" transform="translate(5.723 15.01)" fill="#0ab5e3"/>
              <path id="Path_21803" data-name="Path 21803" d="M14.989,0H1.158A1.194,1.194,0,0,0,0,1.158,1.194,1.194,0,0,0,1.158,2.316H14.989a1.194,1.194,0,0,0,1.158-1.158A1.194,1.194,0,0,0,14.989,0Z" transform="translate(5.723 43.761)" fill="#0ab5e3"/>
              <path id="Path_21804" data-name="Path 21804" d="M0,1.158A1.109,1.109,0,0,0,1.158,2.316H29.024a1.194,1.194,0,0,0,1.158-1.158A1.194,1.194,0,0,0,29.024,0H1.158A1.194,1.194,0,0,0,0,1.158Z" transform="translate(5.655 24.889)" fill="#0ab5e3"/>
              <path id="Path_21805" data-name="Path 21805" d="M29.024,0H1.158A1.194,1.194,0,0,0,0,1.158,1.194,1.194,0,0,0,1.158,2.316H29.024a1.194,1.194,0,0,0,1.158-1.158A1.148,1.148,0,0,0,29.024,0Z" transform="translate(5.723 30.68)" fill="#0ab5e3"/>
              <path id="Path_21806" data-name="Path 21806" d="M29.024,0H1.158A1.194,1.194,0,0,0,0,1.158,1.194,1.194,0,0,0,1.158,2.316H29.024a1.194,1.194,0,0,0,1.158-1.158A1.148,1.148,0,0,0,29.024,0Z" transform="translate(5.587 36.403)" fill="#0ab5e3"/>
            </g>
          </g>
        </g>
        <path id="Path_21809" data-name="Path 21809" d="M1155.232,466.163v-15" transform="translate(-86.161 57.223)" fill="none" stroke="#0ab5e3" stroke-width="2"/>
        <path id="Path_21810" data-name="Path 21810" d="M1155.232,460.627v-9.464" transform="translate(-119.64 67.223)" fill="none" stroke="#0ab5e3" stroke-width="2"/>
      </g>
      <g id="Group_14223" data-name="Group 14223" transform="translate(-12)">
        <g id="pencil" transform="matrix(0.995, -0.105, 0.105, 0.995, 1116.609, 402.497)">
          <g id="Group_14012" data-name="Group 14012" transform="translate(0 0)">
            <path id="Path_21717" data-name="Path 21717" d="M36.7,6.119,31.562.973a3.5,3.5,0,0,0-4.85,0L3.677,24.238a.862.862,0,0,0-.216.369L.033,36.615a.858.858,0,0,0,1.06,1.06l12-3.431a.861.861,0,0,0,.368-.216L36.7,10.971a3.432,3.432,0,0,0,0-4.852ZM22.978,7.21l3.155,3.155L9.662,26.834,8.48,24.469A.857.857,0,0,0,7.713,24H6.341ZM2.105,35.6,3.221,31.7l2.791,2.791ZM12,32.777,7.9,33.948,3.76,29.81l1.171-4.1H7.183l1.477,2.954a.857.857,0,0,0,.383.383L12,30.524v2.252Zm1.714-1.409V29.995a.857.857,0,0,0-.474-.767l-2.365-1.182,16.47-16.47L30.5,14.731ZM35.495,9.779l-3.779,3.745L24.184,5.992l3.743-3.776a1.754,1.754,0,0,1,2.424,0l5.142,5.142a1.713,1.713,0,0,1,0,2.421Z" fill="#0ab5e3"/>
          </g>
        </g>
        <path id="Path_21807" data-name="Path 21807" d="M1137.332,518.386V451.163" transform="translate(-7.001)" fill="none" stroke="#0ab5e3" stroke-width="2"/>
        <path id="Path_21808" data-name="Path 21808" d="M1154.575,549.066v-97.9" transform="translate(-7.001 -21.216)" fill="none" stroke="#0ab5e3" stroke-width="2"/>
      </g>
    </g>
  </g>
</svg>
