<svg width="10" height="10" viewBox="0 0 10 10" fill="none" xmlns="http://www.w3.org/2000/svg">
<path fill-rule="evenodd" clip-rule="evenodd" d="M0.9375 4.84375C0.9375 2.68659 2.68659 0.9375 4.84375 0.9375C7.00091 0.9375 8.75 2.68659 8.75 4.84375C8.75 7.00091 7.00091 8.75 4.84375 8.75C2.68659 8.75 0.9375 7.00091 0.9375 4.84375ZM4.84375 1.5625C3.03177 1.5625 1.5625 3.03177 1.5625 4.84375C1.5625 6.65573 3.03177 8.125 4.84375 8.125C6.65573 8.125 8.125 6.65573 8.125 4.84375C8.125 3.03177 6.65573 1.5625 4.84375 1.5625Z" fill="#333333"/>
<path fill-rule="evenodd" clip-rule="evenodd" d="M3.98438 4.29688C3.98438 4.12429 4.12429 3.98438 4.29688 3.98438H4.92188C5.09446 3.98438 5.23438 4.12429 5.23438 4.29688V6.5625C5.23438 6.73509 5.09446 6.875 4.92188 6.875C4.74929 6.875 4.60938 6.73509 4.60938 6.5625V4.60938H4.29688C4.12429 4.60938 3.98438 4.46946 3.98438 4.29688Z" fill="#333333"/>
<path fill-rule="evenodd" clip-rule="evenodd" d="M3.75 6.64062C3.75 6.46804 3.88991 6.32812 4.0625 6.32812H5.78125C5.95384 6.32812 6.09375 6.46804 6.09375 6.64062C6.09375 6.81321 5.95384 6.95312 5.78125 6.95312H4.0625C3.88991 6.95312 3.75 6.81321 3.75 6.64062Z" fill="#333333"/>
<path d="M4.84375 2.53906C4.74332 2.53906 4.64514 2.56885 4.56163 2.62464C4.47812 2.68044 4.41303 2.75975 4.37459 2.85254C4.33616 2.94534 4.3261 3.04744 4.3457 3.14595C4.36529 3.24445 4.41365 3.33494 4.48467 3.40596C4.55569 3.47697 4.64618 3.52534 4.74468 3.54493C4.84319 3.56453 4.94529 3.55447 5.03808 3.51604C5.13087 3.4776 5.21018 3.41251 5.26598 3.329C5.32178 3.24549 5.35157 3.14731 5.35157 3.04688C5.35157 2.9122 5.29806 2.78303 5.20283 2.6878C5.1076 2.59256 4.97843 2.53906 4.84375 2.53906Z" fill="#333333"/>
</svg>
