<svg width="20" height="21" viewBox="0 0 20 21" fill="none" xmlns="http://www.w3.org/2000/svg">
<path fill-rule="evenodd" clip-rule="evenodd" d="M1.875 10.1875C1.875 5.87318 5.37318 2.375 9.6875 2.375C14.0018 2.375 17.5 5.87318 17.5 10.1875C17.5 14.5018 14.0018 18 9.6875 18C5.37318 18 1.875 14.5018 1.875 10.1875ZM9.6875 3.625C6.06354 3.625 3.125 6.56354 3.125 10.1875C3.125 13.8115 6.06354 16.75 9.6875 16.75C13.3115 16.75 16.25 13.8115 16.25 10.1875C16.25 6.56354 13.3115 3.625 9.6875 3.625Z" fill="#A8A7A7"/>
<path fill-rule="evenodd" clip-rule="evenodd" d="M7.96875 9.09375C7.96875 8.74857 8.24857 8.46875 8.59375 8.46875H9.84375C10.1889 8.46875 10.4688 8.74857 10.4688 9.09375V13.625C10.4688 13.9702 10.1889 14.25 9.84375 14.25C9.49857 14.25 9.21875 13.9702 9.21875 13.625V9.71875H8.59375C8.24857 9.71875 7.96875 9.43893 7.96875 9.09375Z" fill="#A8A7A7"/>
<path fill-rule="evenodd" clip-rule="evenodd" d="M7.5 13.7812C7.5 13.4361 7.77982 13.1562 8.125 13.1562H11.5625C11.9077 13.1562 12.1875 13.4361 12.1875 13.7812C12.1875 14.1264 11.9077 14.4062 11.5625 14.4062H8.125C7.77982 14.4062 7.5 14.1264 7.5 13.7812Z" fill="#A8A7A7"/>
<path d="M9.6875 5.57812C9.48663 5.57812 9.29027 5.63769 9.12325 5.74929C8.95623 5.86089 8.82606 6.01951 8.74919 6.20509C8.67231 6.39067 8.6522 6.59488 8.69139 6.79189C8.73058 6.9889 8.82731 7.16987 8.96935 7.31191C9.11138 7.45395 9.29235 7.55068 9.48936 7.58987C9.68638 7.62905 9.89059 7.60894 10.0762 7.53207C10.2617 7.4552 10.4204 7.32503 10.532 7.15801C10.6436 6.99099 10.7031 6.79463 10.7031 6.59375C10.7031 6.32439 10.5961 6.06606 10.4057 5.8756C10.2152 5.68513 9.95686 5.57812 9.6875 5.57812Z" fill="#A8A7A7"/>
</svg>
