<svg width="48" height="48" viewBox="0 0 48 48" fill="none" xmlns="http://www.w3.org/2000/svg">
<path d="M18.3711 20.6309H24.3711V36.7559" stroke="white" stroke-width="2.81237" stroke-linecap="round" stroke-linejoin="round"/>
<path d="M17.5273 37.1328H30.4648" stroke="white" stroke-width="2.81237" stroke-miterlimit="10" stroke-linecap="round"/>
<path d="M24 15.0068C23.4067 15.0068 22.8266 14.8309 22.3333 14.5012C21.8399 14.1716 21.4554 13.7031 21.2284 13.1549C21.0013 12.6067 20.9419 12.0035 21.0576 11.4216C21.1734 10.8396 21.4591 10.3051 21.8787 9.88552C22.2982 9.46596 22.8328 9.18024 23.4147 9.06448C23.9967 8.94873 24.5999 9.00814 25.1481 9.2352C25.6962 9.46226 26.1648 9.84678 26.4944 10.3401C26.8241 10.8335 27 11.4135 27 12.0068C27 12.8025 26.6839 13.5655 26.1213 14.1282C25.5587 14.6908 24.7957 15.0068 24 15.0068V15.0068Z" fill="white"/>
</svg>
