<svg xmlns="http://www.w3.org/2000/svg" width="100%" height="100%" style="position:absolute;" viewBox="0 0 19.377 19.379">
    <path id="prefix__information" d="M9.689 0a9.689 9.689 0 1 0 9.689 9.689A9.7 9.7 0 0 0 9.689 0zm.63 15.438c-.46.077-1.376.268-1.841.307a1.134 1.134 0 0 1-.992-.516 1.211 1.211 0 0 1-.147-1.109l1.832-5.036h-1.9a2.276 2.276 0 0 1 1.788-2.117 7.011 7.011 0 0 1 1.841-.305 1.46 1.46 0 0 1 .992.516 1.211 1.211 0 0 1 .147 1.109l-1.831 5.036h1.9a2.144 2.144 0 0 1-1.791 2.115zm.581-9.382a1.211 1.211 0 1 1 1.211-1.211A1.211 1.211 0 0 1 10.9 6.056z" style="fill:#333"/>
</svg>
