<svg xmlns="http://www.w3.org/2000/svg" xmlns:xlink="http://www.w3.org/1999/xlink" width="100%" height="100%" viewBox="0 0 502 108.001">
    <defs>
        <filter id="Subtraction_7" x="0" y="0" width="502" height="108.001" filterUnits="userSpaceOnUse">
            <feOffset dy="3" input="SourceAlpha"/>
            <feGaussianBlur stdDeviation="5" result="blur"/>
            <feFlood flood-color="#1ac9e8" flood-opacity="0.502"/>
            <feComposite operator="in" in2="blur"/>
            <feComposite in="SourceGraphic"/>
        </filter>
    </defs>
    <g transform="matrix(1, 0, 0, 1, 0, 0)" filter="url(#Subtraction_7)">
        <g id="Subtraction_7-2" data-name="Subtraction 7" transform="translate(-26 6007)" fill="#fff" stroke-linecap="round" stroke-linejoin="round">
            <path d="M 512.0006103515625 -5917.99951171875 L 42.00040054321289 -5917.99951171875 L 42.00034332275391 -5942.17529296875 C 48.22768783569336 -5943.81103515625 52.66598892211914 -5949.498046875 52.66598892211914 -5956 C 52.66598892211914 -5962.5029296875 48.22773742675781 -5968.1904296875 42.00034332275391 -5969.82568359375 L 42.00034332275391 -5994.00048828125 L 512.0006713867188 -5994.00048828125 L 512.0006103515625 -5969.66455078125 C 506.0165710449219 -5967.8310546875 501.9024658203125 -5962.3203125 501.9024658203125 -5956 C 501.9024658203125 -5949.6806640625 506.0165710449219 -5944.17041015625 512.0006103515625 -5942.3369140625 L 512.0006103515625 -5917.99951171875 Z" stroke="none"/>
            <path d="M 511.0006408691406 -5918.99951171875 L 511.0006408691406 -5941.6162109375 C 504.9827575683594 -5943.78271484375 500.9024658203125 -5949.48974609375 500.9024658203125 -5956 C 500.9024658203125 -5962.51123046875 504.9827575683594 -5968.21875 511.0006408691406 -5970.38525390625 L 511.0007019042969 -5993.00048828125 L 43.00034332275391 -5993.00048828125 L 43.00034332275391 -5970.57666015625 C 49.26907348632812 -5968.58251953125 53.66598892211914 -5962.6953125 53.66598892211914 -5956 C 53.66598892211914 -5949.3056640625 49.26902389526367 -5943.4189453125 43.00034713745117 -5941.42431640625 L 43.00039672851562 -5918.99951171875 L 511.0006408691406 -5918.99951171875 M 513.0006713867188 -5916.99951171875 L 513.0006103515625 -5916.99951171875 L 512.999755859375 -5916.99951171875 L 513.0006103515625 -5916.99951171875 L 513.0006713867188 -5916.99951171875 Z M 513.0006713867188 -5916.99951171875 L 41.00040054321289 -5916.99951171875 L 41.00034332275391 -5942.96923828125 C 47.18069458007812 -5944.21630859375 51.66598892211914 -5949.6962890625 51.66598892211914 -5956 C 51.66598892211914 -5962.3046875 47.18040084838867 -5967.78515625 41.00034332275391 -5969.03173828125 L 41.00034332275391 -5995.00048828125 L 513.0006713867188 -5995.00048828125 L 513.0006103515625 -5968.904296875 C 507.0546875 -5967.43017578125 502.9024658203125 -5962.1240234375 502.9024658203125 -5956 C 502.9024658203125 -5949.876953125 507.0548706054688 -5944.5712890625 513.0006103515625 -5943.09716796875 L 513.0006103515625 -5917.00048828125 L 513.0006103515625 -5916.99951171875 Z" stroke="none" fill="#26d5e8"/>
        </g>
    </g>
</svg>
