<svg xmlns="http://www.w3.org/2000/svg" xmlns:xlink="http://www.w3.org/1999/xlink" width="100%" height="100%" viewBox="0 0 58.801 86.001">
  <defs>
    <linearGradient id="linear-gradient" x1="0.217" y1="0.215" x2="0.844" y2="0.861" gradientUnits="objectBoundingBox">
      <stop offset="0" stop-color="#34e4ea"/>
      <stop offset="1" stop-color="#00ade6"/>
    </linearGradient>
    <filter id="Union_11" x="0" y="0" width="58.801" height="86.001" filterUnits="userSpaceOnUse">
      <feOffset dy="3" input="SourceAlpha"/>
      <feGaussianBlur stdDeviation="3" result="blur"/>
      <feFlood flood-opacity="0.161"/>
      <feComposite operator="in" in2="blur"/>
      <feComposite in="SourceGraphic"/>
    </filter>
  </defs>
  <g transform="matrix(1, 0, 0, 1, 0, 0)" filter="url(#Union_11)">
    <path id="Union_11-2" data-name="Union 11" d="M22287.1,10664.3a5.045,5.045,0,0,1-5.1-4.98V10631.3c0-.555,1.3-.992,1.859-.992s1.811.438,1.811.992v23.439h33.457v-52.661c0-1.647.258-2.19-1.43-2.19h-5.1a3.059,3.059,0,0,0-2.162.874l-1.693.852a5.137,5.137,0,0,1-3.607,1.462h-5.479a5.137,5.137,0,0,1-3.607-1.462l-1.687-.852a3.059,3.059,0,0,0-2.162-.874h-5.1c-1.686,0-1.428.543-1.428,2.19v25.232c0,.555-1.244,1.059-1.811,1.059s-1.859-.5-1.859-1.059v-26.028a5.042,5.042,0,0,1,5.1-4.98h30.6a5.047,5.047,0,0,1,5.1,4.98v58.04a5.051,5.051,0,0,1-5.1,4.98Zm-2.24-4.98c0,1.646.555,2.19,2.24,2.19h30.6c1.688,0,2.246-.544,2.246-2.19v-1h-35.086Zm12.639-59.911a3.063,3.063,0,0,0,2.162.874h5.479a3.087,3.087,0,0,0,2.168-.874l1.143-1.12h-12.094Zm9.092,40.067v-.879a.353.353,0,0,1,.152-.319.547.547,0,0,1,.285-.1h.219a1.686,1.686,0,0,0,1.338-.549,2.181,2.181,0,0,0,.488-1.507,9.357,9.357,0,0,0-.072-1.187c-.051-.381-.113-.751-.18-1.115s-.123-.723-.174-1.087a7.634,7.634,0,0,1-.078-1.087,2.231,2.231,0,0,1,.123-.756,2.05,2.05,0,0,1,.348-.639,2.265,2.265,0,0,1,.525-.487,2.193,2.193,0,0,1,.668-.309,2.05,2.05,0,0,1-.668-.3,2.373,2.373,0,0,1-.525-.481,1.927,1.927,0,0,1-.348-.639,2.306,2.306,0,0,1-.123-.773,7.84,7.84,0,0,1,.078-1.092c.051-.358.111-.718.174-1.081s.129-.734.18-1.115a9.357,9.357,0,0,0,.072-1.187,2.188,2.188,0,0,0-.488-1.5,1.7,1.7,0,0,0-1.338-.56h-.219a.59.59,0,0,1-.285-.1.356.356,0,0,1-.152-.319v-.868h.582a4.538,4.538,0,0,1,1.58.252,2.961,2.961,0,0,1,1.811,1.815,4.16,4.16,0,0,1,.229,1.395,6.848,6.848,0,0,1-.088,1.121c-.057.369-.125.733-.191,1.092s-.135.718-.2,1.076a6.986,6.986,0,0,0-.084,1.092,1.669,1.669,0,0,0,.381,1.144,1.427,1.427,0,0,0,1.125.442v1.177a1.408,1.408,0,0,0-1.125.442,1.671,1.671,0,0,0-.381,1.137,6.99,6.99,0,0,0,.084,1.093c.061.358.123.717.2,1.081s.135.729.191,1.093a6.714,6.714,0,0,1,.088,1.114,4.162,4.162,0,0,1-.229,1.4,2.991,2.991,0,0,1-1.811,1.82,4.4,4.4,0,0,1-1.58.258Zm-8.537,0a4.38,4.38,0,0,1-1.58-.258,3.149,3.149,0,0,1-1.133-.723,2.889,2.889,0,0,1-.682-1.1,4.113,4.113,0,0,1-.225-1.4,7.165,7.165,0,0,1,.084-1.114c.061-.364.123-.729.2-1.093s.135-.723.191-1.081a6.548,6.548,0,0,0,.09-1.093,1.675,1.675,0,0,0-.387-1.137,1.4,1.4,0,0,0-1.121-.442v-1.177a1.424,1.424,0,0,0,1.121-.442,1.672,1.672,0,0,0,.387-1.144,6.545,6.545,0,0,0-.09-1.092c-.057-.358-.123-.718-.191-1.076s-.135-.723-.2-1.092a7.309,7.309,0,0,1-.084-1.121,4.112,4.112,0,0,1,.225-1.395,2.856,2.856,0,0,1,.682-1.1,3.086,3.086,0,0,1,1.133-.717,4.515,4.515,0,0,1,1.58-.252h.582v.868a.35.35,0,0,1-.156.319.566.566,0,0,1-.287.1h-.217a1.707,1.707,0,0,0-1.34.56,2.2,2.2,0,0,0-.486,1.5,8.994,8.994,0,0,0,.078,1.188c.049.381.105.751.174,1.115s.123.723.178,1.081a7.837,7.837,0,0,1,.074,1.092,2.409,2.409,0,0,1-.119.773,1.959,1.959,0,0,1-.346.639,2.427,2.427,0,0,1-.527.481,2.04,2.04,0,0,1-.666.3,2.183,2.183,0,0,1,.666.309,2.313,2.313,0,0,1,.527.487,2.086,2.086,0,0,1,.346.639,2.331,2.331,0,0,1,.119.756,7.638,7.638,0,0,1-.074,1.087c-.055.364-.111.723-.178,1.087s-.125.734-.174,1.115a8.994,8.994,0,0,0-.078,1.188,2.189,2.189,0,0,0,.486,1.507,1.7,1.7,0,0,0,1.34.549h.217a.526.526,0,0,1,.287.1.348.348,0,0,1,.156.319v.879Z" transform="translate(-22273 -10590.3)" fill="url(#linear-gradient)"/>
  </g>
</svg>
