<svg width="22" height="23" viewBox="0 0 22 23" fill="none" xmlns="http://www.w3.org/2000/svg">
<path d="M8.15316 4.90838C9.41981 2.63613 10.0531 1.5 11 1.5C11.9469 1.5 12.5802 2.63612 13.8468 4.90837L14.1745 5.49623C14.5345 6.14193 14.7144 6.46479 14.9951 6.67781C15.2757 6.89083 15.6251 6.9699 16.3241 7.12805L16.9605 7.27203C19.4201 7.82856 20.65 8.10682 20.9426 9.04773C21.2352 9.98864 20.3968 10.9691 18.7199 12.9299L18.2861 13.4372C17.8096 13.9944 17.5713 14.273 17.4641 14.6177C17.357 14.9624 17.393 15.3341 17.465 16.0776L17.5306 16.7544C17.7841 19.3706 17.9109 20.6787 17.1449 21.2602C16.3788 21.8417 15.2273 21.3115 12.9243 20.2512L12.3285 19.9768C11.6741 19.6755 11.3469 19.5248 11 19.5248C10.6531 19.5248 10.3259 19.6755 9.67149 19.9768L9.07567 20.2512C6.77268 21.3115 5.62118 21.8417 4.85515 21.2602C4.08912 20.6787 4.21588 19.3706 4.4694 16.7544L4.53498 16.0776C4.60703 15.3341 4.64305 14.9624 4.53586 14.6177C4.42868 14.273 4.19043 13.9944 3.71392 13.4372L3.2801 12.9299C1.60325 10.9691 0.764825 9.98864 1.05742 9.04773C1.35002 8.10682 2.57986 7.82856 5.03954 7.27203L5.67589 7.12805C6.37485 6.9699 6.72433 6.89083 7.00494 6.67781C7.28555 6.46479 7.46553 6.14194 7.82547 5.49623L8.15316 4.90838Z" stroke="currentColor" stroke-width="1.5"/>
</svg>
