<svg width="40" height="40" viewBox="0 0 40 40" fill="none" xmlns="http://www.w3.org/2000/svg">
<path fill-rule="evenodd" clip-rule="evenodd" d="M14.6957 3.52482C16.1022 2.1183 18.0099 1.32812 19.999 1.32812C21.9881 1.32812 23.8958 2.1183 25.3023 3.52482C26.7088 4.93135 27.499 6.839 27.499 8.82812V16.25C27.499 16.9404 26.9394 17.5 26.249 17.5C25.5587 17.5 24.999 16.9404 24.999 16.25V8.82812C24.999 7.50204 24.4722 6.23027 23.5346 5.29259C22.5969 4.35491 21.3251 3.82812 19.999 3.82812C18.6729 3.82812 17.4012 4.35491 16.4635 5.29259C15.5258 6.23027 14.999 7.50204 14.999 8.82812V16.25C14.999 16.9404 14.4394 17.5 13.749 17.5C13.0587 17.5 12.499 16.9404 12.499 16.25V8.82812C12.499 6.839 13.2892 4.93135 14.6957 3.52482Z" fill="#A8A7A7"/>
<path fill-rule="evenodd" clip-rule="evenodd" d="M11.25 17.5C9.86929 17.5 8.75 18.6193 8.75 20V33.75C8.75 35.1307 9.86929 36.25 11.25 36.25H28.75C30.1307 36.25 31.25 35.1307 31.25 33.75V20C31.25 18.6193 30.1307 17.5 28.75 17.5H11.25ZM6.25 20C6.25 17.2386 8.48858 15 11.25 15H28.75C31.5114 15 33.75 17.2386 33.75 20V33.75C33.75 36.5114 31.5114 38.75 28.75 38.75H11.25C8.48858 38.75 6.25 36.5114 6.25 33.75V20Z" fill="#A8A7A7"/>
</svg>
