<svg width="34" height="35" viewBox="0 0 34 35" fill="none" xmlns="http://www.w3.org/2000/svg">
<path fill-rule="evenodd" clip-rule="evenodd" d="M24.9763 3.37217C25.1609 3.4059 25.3111 3.54021 25.3652 3.71994L26.0303 5.93L27.3401 4.21969C27.508 4.00045 27.8218 3.95883 28.0411 4.12672V4.12672C28.2603 4.29462 28.3019 4.60845 28.134 4.82769L26.8876 6.45533L28.8535 6.37676C29.0461 6.36907 29.2259 6.47271 29.3158 6.64317C29.4056 6.81363 29.3896 7.02056 29.2744 7.17509L26.7397 10.5773C26.6495 10.6983 26.5095 10.7721 26.3587 10.7782L24.9285 10.8353C27.2271 13.1021 28.6519 16.2527 28.6519 19.736C28.6519 26.6396 23.0555 32.236 16.1519 32.236C12.4598 32.236 9.14127 30.6347 6.8537 28.0904C6.66907 27.885 6.69916 27.5691 6.9117 27.3928V27.3928C7.12423 27.2165 7.43866 27.2466 7.62399 27.4514C9.72887 29.7765 12.7698 31.236 16.1519 31.236C22.5032 31.236 27.6519 26.0873 27.6519 19.736C27.6519 16.1804 26.0383 13.0017 23.5034 10.8923L23.4893 10.8928L22.3599 12.3676C24.2584 14.008 25.5005 16.3875 25.639 19.0589C25.6533 19.3347 25.4281 19.5588 25.1519 19.5588V19.5588C24.8758 19.5588 24.6535 19.3346 24.6375 19.059C24.5013 16.7109 23.412 14.6185 21.7507 13.1631L20.5313 14.7555C21.8343 15.9442 22.6519 17.656 22.6519 19.5588C22.6519 23.1486 19.7418 26.0588 16.1519 26.0588C12.5621 26.0588 9.65192 23.1486 9.65192 19.5588C9.65192 15.9689 12.5621 13.0588 16.1519 13.0588C17.4795 13.0588 18.7142 13.4568 19.743 14.14L20.9613 12.5492C19.5936 11.609 17.937 11.0588 16.1519 11.0588C11.4575 11.0588 7.65192 14.8643 7.65192 19.5588C7.65192 24.2532 11.4575 28.0588 16.1519 28.0588C20.0776 28.0588 23.383 25.397 24.3592 21.7789C24.4311 21.5123 24.7056 21.3545 24.9722 21.4264C25.2388 21.4984 25.3966 21.7728 25.3246 22.0394C24.2337 26.0828 20.541 29.0588 16.1519 29.0588C10.9052 29.0588 6.65192 24.8055 6.65192 19.5588C6.65192 14.3121 10.9052 10.0588 16.1519 10.0588C18.1658 10.0588 20.0333 10.6854 21.57 11.7543L22.6989 10.2803C20.8408 8.99134 18.5846 8.23602 16.1519 8.23602C9.80064 8.23602 4.65192 13.3847 4.65192 19.736C4.65192 21.8087 5.19979 23.7519 6.15828 25.4303C6.29522 25.6701 6.21184 25.9755 5.97204 26.1124C5.73225 26.2494 5.42684 26.166 5.2899 25.9262C4.24745 24.1007 3.65192 21.9872 3.65192 19.736C3.65192 12.8325 9.24836 7.23602 16.1519 7.23602C18.3725 7.23602 20.4578 7.81502 22.2651 8.83029L21.8274 7.37598C21.7811 7.22211 21.8116 7.05536 21.9093 6.92781L24.4895 3.55995C24.6037 3.41095 24.7917 3.33844 24.9763 3.37217ZM24.2799 9.86045L26.097 7.48772L27.8466 7.4178L26.0803 9.7885L24.2799 9.86045ZM25.2806 6.90895L23.4504 9.29889L22.8587 7.33284L24.6892 4.94364L25.2806 6.90895ZM19.1333 14.9362C18.2744 14.381 17.2508 14.0588 16.1519 14.0588C13.1144 14.0588 10.6519 16.5212 10.6519 19.5588C10.6519 22.5963 13.1144 25.0588 16.1519 25.0588C19.1895 25.0588 21.6519 22.5963 21.6519 19.5588C21.6519 17.9797 20.9864 16.556 19.9206 15.5529L18.6947 17.1537C19.288 17.7808 19.6519 18.6273 19.6519 19.5588C19.6519 21.4918 18.0849 23.0588 16.1519 23.0588C14.2189 23.0588 12.6519 21.4918 12.6519 19.5588C12.6519 17.6258 14.2189 16.0588 16.1519 16.0588C16.7932 16.0588 17.3942 16.2312 17.911 16.5323L19.1333 14.9362ZM17.296 17.3354C16.9532 17.1586 16.5642 17.0588 16.1519 17.0588C14.7712 17.0588 13.6519 18.1781 13.6519 19.5588C13.6519 20.9395 14.7712 22.0588 16.1519 22.0588C17.5326 22.0588 18.6519 20.9395 18.6519 19.5588C18.6519 18.9517 18.4355 18.3951 18.0757 17.962L16.6201 19.8628C16.4522 20.082 16.1384 20.1236 15.9191 19.9557C15.6999 19.7878 15.6583 19.474 15.8262 19.2548L17.296 17.3354Z" fill="white"/>
</svg>
