<svg width="48" height="48" viewBox="0 0 48 48" fill="none" xmlns="http://www.w3.org/2000/svg">
<path d="M40.4099 30.0565C40.3161 29.719 40.5224 29.2502 40.7192 28.9127C40.7794 28.8123 40.8451 28.7153 40.9161 28.6221C42.6001 26.1198 43.5009 23.1727 43.5036 20.1565C43.5317 11.5127 36.238 4.50024 27.2192 4.50024C19.3536 4.50024 12.7911 9.85337 11.2536 16.9596C11.0236 18.0129 10.9073 19.0878 10.9067 20.1659C10.9067 28.819 17.9192 36.019 26.938 36.019C28.3724 36.019 30.3036 35.5877 31.363 35.2971C32.4224 35.0065 33.4724 34.6221 33.7442 34.519C34.0229 34.4139 34.3183 34.3599 34.6161 34.3596C34.9411 34.3584 35.263 34.4221 35.563 34.5471L40.8786 36.4315C40.9951 36.4808 41.1184 36.5124 41.2442 36.5252C41.4431 36.5252 41.6339 36.4462 41.7746 36.3056C41.9152 36.1649 41.9942 35.9742 41.9942 35.7752C41.9877 35.6894 41.972 35.6046 41.9474 35.5221L40.4099 30.0565Z" stroke="white" stroke-width="2.24989" stroke-miterlimit="10" stroke-linecap="round"/>
<path d="M6.23605 21.751C5.00646 23.96 4.41164 26.4659 4.51737 28.9919C4.62309 31.5178 5.42523 33.9653 6.83511 36.0638C7.05168 36.391 7.17355 36.6441 7.13605 36.8138C7.09855 36.9835 6.01761 42.6141 6.01761 42.6141C5.99162 42.7459 6.00148 42.8822 6.04617 43.0089C6.09086 43.1355 6.16874 43.2478 6.27168 43.3341C6.40903 43.4435 6.57981 43.5025 6.75543 43.501C6.84927 43.5012 6.94215 43.4821 7.02824 43.4447L12.2979 41.3822C12.6606 41.2392 13.0652 41.246 13.4229 41.401C15.1985 42.0929 17.1617 42.526 19.1257 42.526C21.7613 42.5288 24.3506 41.8336 26.6304 40.5113" stroke="white" stroke-width="2.24989" stroke-miterlimit="10" stroke-linecap="round"/>
</svg>
