<svg width="24" height="25" viewBox="0 0 24 25" fill="none" xmlns="http://www.w3.org/2000/svg">
<path fill-rule="evenodd" clip-rule="evenodd" d="M12.233 5.14982C12.6723 5.58916 12.6723 6.30147 12.233 6.74081L6.27849 12.6953L12.233 18.6498C12.6723 19.0892 12.6723 19.8015 12.233 20.2408C11.7937 20.6801 11.0813 20.6801 10.642 20.2408L3.892 13.4908C3.45267 13.0515 3.45267 12.3392 3.892 11.8998L10.642 5.14982C11.0813 4.71048 11.7937 4.71048 12.233 5.14982Z" fill="#005773"/>
<path fill-rule="evenodd" clip-rule="evenodd" d="M4.5 12.6953C4.5 12.074 5.00368 11.5703 5.625 11.5703H19.3125C19.9338 11.5703 20.4375 12.074 20.4375 12.6953C20.4375 13.3166 19.9338 13.8203 19.3125 13.8203H5.625C5.00368 13.8203 4.5 13.3166 4.5 12.6953Z" fill="#005773"/>
</svg>
