<svg width="18" height="16" viewBox="0 0 18 16" fill="none" xmlns="http://www.w3.org/2000/svg">
<path d="M12.3701 5.00001V2.42223C12.3701 2.04503 12.2204 1.68328 11.9538 1.41656C11.6873 1.14984 11.3258 1 10.9489 1H5.97444L1.00002 5.9778V13.8C1.00002 14.1772 1.14976 14.539 1.4163 14.8057C1.68284 15.0724 2.04434 15.2223 2.42128 15.2223H10.9489C11.3258 15.2223 11.6873 15.0724 11.9538 14.8057C12.2204 14.539 12.3701 14.1772 12.3701 13.8V9.44448" stroke="#BDBDBD" stroke-linecap="square" stroke-linejoin="round"/>
<path d="M5.97437 1V5.9778H0.999948" stroke="#BDBDBD" stroke-linecap="round" stroke-linejoin="round"/>
<path fill-rule="evenodd" clip-rule="evenodd" d="M7.76549 10.1295L13.4195 4.389L15.2194 6.1682L9.56532 11.9087L7.13017 12.5778L7.76549 10.1295Z" stroke="#BDBDBD" stroke-linecap="round" stroke-linejoin="round"/>
<path fill-rule="evenodd" clip-rule="evenodd" d="M9.63918 11.834L7.13036 12.5779L7.13525 12.5729L7.84423 10.0498L9.63918 11.834Z" stroke="#BDBDBD" stroke-linecap="round" stroke-linejoin="round"/>
<path fill-rule="evenodd" clip-rule="evenodd" d="M14.1949 3.60182L15.9948 5.38101L15.2704 6.11646L13.4706 4.33727L14.1949 3.60182Z" stroke="#BDBDBD" stroke-linecap="round" stroke-linejoin="round"/>
<path fill-rule="evenodd" clip-rule="evenodd" d="M14.8677 2.91856C15.2392 2.54136 15.8457 2.53739 16.2221 2.90948L16.6585 3.34087C17.035 3.71305 17.0383 4.32132 16.6675 4.69776L15.9948 5.38075L14.195 3.60155L14.8677 2.91856Z" stroke="#BDBDBD" stroke-linecap="round" stroke-linejoin="round"/>
</svg>
