<svg width="18" height="18" viewBox="0 0 18 18" fill="none" xmlns="http://www.w3.org/2000/svg">
<path d="M8.99988 1.5C13.1421 1.5 16.4999 4.85775 16.4999 9C16.4999 13.1423 13.1421 16.5 8.99988 16.5C4.85763 16.5 1.49988 13.1423 1.49988 9H2.99988C2.99988 12.3135 5.68638 15 8.99988 15C12.3134 15 14.9999 12.3135 14.9999 9C14.9999 5.6865 12.3134 3 8.99988 3C6.93738 3 5.11788 4.04025 4.03863 5.625H5.99988V7.125H1.49988V2.625H2.99988V4.5C4.36788 2.6775 6.54663 1.5 8.99988 1.5ZM9.74988 5.25V8.68875L12.1821 11.121L11.1209 12.1823L8.24988 9.30975V5.25H9.74988Z" fill="#8C61CB"/>
</svg>
