<svg xmlns="http://www.w3.org/2000/svg" width="31.31" height="31.311" viewBox="0 0 31.31 31.311">
    <defs>
        <style>
            .prefix__cls-1{fill:#57e1ed}
        </style>
    </defs>
    <g id="prefix__percent" transform="translate(-.01)">
        <g id="prefix__Group_14565" data-name="Group 14565" transform="translate(.01)">
            <g id="prefix__Group_14564" data-name="Group 14564">
                <path id="prefix__Path_20752" d="M30.525 17.692a3.777 3.777 0 0 0 .795-2.036 3.781 3.781 0 0 0-.795-2.038 3.072 3.072 0 0 1-.445-.829 3.181 3.181 0 0 1 .094-.981 3.673 3.673 0 0 0-.041-2.145A3.7 3.7 0 0 0 28.627 8.1a3.151 3.151 0 0 1-.742-.608 3.168 3.168 0 0 1-.284-.93 3.691 3.691 0 0 0-.865-1.975 3.691 3.691 0 0 0-1.976-.867 3.177 3.177 0 0 1-.93-.283 3.157 3.157 0 0 1-.608-.743 3.7 3.7 0 0 0-1.564-1.505 2.526 2.526 0 0 0-.986-.183 6.264 6.264 0 0 0-1.159.141 4.808 4.808 0 0 1-.807.108.952.952 0 0 1-.173-.014A3.141 3.141 0 0 1 17.7.8a3.78 3.78 0 0 0-2.034-.8 3.78 3.78 0 0 0-2.037.8 3.133 3.133 0 0 1-.83.446.958.958 0 0 1-.174.014 4.834 4.834 0 0 1-.807-.108 6.271 6.271 0 0 0-1.159-.141 2.529 2.529 0 0 0-.986.183 3.7 3.7 0 0 0-1.565 1.5 3.167 3.167 0 0 1-.608.743 3.156 3.156 0 0 1-.93.284 3.689 3.689 0 0 0-1.97.864 3.69 3.69 0 0 0-.865 1.975 3.154 3.154 0 0 1-.284.93 3.129 3.129 0 0 1-.751.61 3.7 3.7 0 0 0-1.5 1.563 3.669 3.669 0 0 0-.042 2.145 3.191 3.191 0 0 1 .094.981 3.1 3.1 0 0 1-.445.83 3.776 3.776 0 0 0-.8 2.037 3.778 3.778 0 0 0 .8 2.036 3.1 3.1 0 0 1 .445.831 3.187 3.187 0 0 1-.094.981 3.671 3.671 0 0 0 .042 2.144 3.7 3.7 0 0 0 1.5 1.565 3.139 3.139 0 0 1 .742.608 3.165 3.165 0 0 1 .284.929 3.689 3.689 0 0 0 .874 1.976 3.7 3.7 0 0 0 1.976.865 3.148 3.148 0 0 1 .929.283 3.137 3.137 0 0 1 .609.743 3.7 3.7 0 0 0 1.563 1.505 2.536 2.536 0 0 0 .986.182 6.264 6.264 0 0 0 1.159-.141 4.826 4.826 0 0 1 .808-.109.871.871 0 0 1 .174.015 3.1 3.1 0 0 1 .83.445 3.776 3.776 0 0 0 2.037.795 3.776 3.776 0 0 0 2.037-.795 3.088 3.088 0 0 1 .83-.445.865.865 0 0 1 .173-.015 4.84 4.84 0 0 1 .807.109 6.225 6.225 0 0 0 1.159.141 2.534 2.534 0 0 0 .986-.182 3.7 3.7 0 0 0 1.564-1.505 3.15 3.15 0 0 1 .608-.743 3.159 3.159 0 0 1 .929-.283 3.693 3.693 0 0 0 1.977-.866 3.687 3.687 0 0 0 .859-1.975 3.17 3.17 0 0 1 .284-.929 3.133 3.133 0 0 1 .743-.609 3.7 3.7 0 0 0 1.5-1.563 3.673 3.673 0 0 0 .042-2.145 3.191 3.191 0 0 1-.094-.981 3.111 3.111 0 0 1 .45-.831zM7.234 11.047a3.837 3.837 0 1 1 3.837 3.838 3.842 3.842 0 0 1-3.837-3.838zm2.671 11.8A1 1 0 1 1 8.5 21.436L21.465 8.469a.995.995 0 0 1 1.407 1.407zm10.373 1.243a3.837 3.837 0 1 1 3.837-3.837 3.842 3.842 0 0 1-3.837 3.837z" class="prefix__cls-1" data-name="Path 20752" transform="translate(-.01)"/>
            </g>
        </g>
        <g id="prefix__Group_14567" data-name="Group 14567" transform="translate(18.431 18.411)">
            <g id="prefix__Group_14566" data-name="Group 14566">
                <path id="prefix__Path_20753" d="M303.085 301.076a1.847 1.847 0 1 0 1.847 1.848 1.85 1.85 0 0 0-1.847-1.848z" class="prefix__cls-1" data-name="Path 20753" transform="translate(-301.238 -301.076)"/>
            </g>
        </g>
        <g id="prefix__Group_14569" data-name="Group 14569" transform="translate(9.225 9.206)">
            <g id="prefix__Group_14568" data-name="Group 14568">
                <path id="prefix__Path_20754" d="M152.545 150.548a1.847 1.847 0 1 0 1.847 1.847 1.849 1.849 0 0 0-1.847-1.847z" class="prefix__cls-1" data-name="Path 20754" transform="translate(-150.698 -150.548)"/>
            </g>
        </g>
    </g>
</svg>
