<svg width="16" height="16" viewBox="0 0 16 16" fill="none" xmlns="http://www.w3.org/2000/svg">
<path d="M2.06556 11.1562C1.96905 11.1563 1.87458 11.1284 1.79357 11.076C1.71255 11.0235 1.64845 10.9487 1.609 10.8606C1.13165 9.79452 0.928669 8.62591 1.01856 7.46128C1.10846 6.29666 1.48837 5.17304 2.12368 4.19282C2.75899 3.2126 3.62949 2.40695 4.65586 1.84928C5.68224 1.2916 6.83185 0.999644 7.99995 1C8.13256 1 8.25973 1.05268 8.3535 1.14645C8.44727 1.24022 8.49995 1.36739 8.49995 1.5V8C8.49997 8.09655 8.47203 8.19104 8.41952 8.27206C8.367 8.35308 8.29215 8.41716 8.20401 8.45656L2.26963 11.1112C2.20556 11.1405 2.136 11.1559 2.06556 11.1562Z" fill="#A8A7A7"/>
<path d="M9.79967 2.13121C9.76342 2.12386 9.72599 2.12464 9.69007 2.13351C9.65416 2.14237 9.62066 2.15909 9.59199 2.18247C9.56333 2.20585 9.5402 2.23529 9.52429 2.26869C9.50838 2.30208 9.50008 2.33859 9.49999 2.37558V8.00058C9.49974 8.29008 9.41584 8.57335 9.25839 8.81629C9.10094 9.05923 8.87664 9.2515 8.61249 9.36996L3.2228 11.7818C3.18939 11.7967 3.15966 11.8188 3.13572 11.8465C3.11177 11.8741 3.09418 11.9067 3.0842 11.9419C3.07421 11.9771 3.07207 12.0141 3.07793 12.0502C3.0838 12.0863 3.09751 12.1207 3.11811 12.1509C3.53058 12.7575 4.04258 13.2901 4.63249 13.7262C5.75014 14.5576 7.107 15.0047 8.49999 15.0006C12.084 15.0006 15 12.0846 15 8.50058C15 5.36152 12.7631 2.73496 9.79967 2.13121Z" fill="#DCDCDC"/>
</svg>
