<svg width="24" height="24" viewBox="0 0 24 24" fill="none" xmlns="http://www.w3.org/2000/svg">
<path fill-rule="evenodd" clip-rule="evenodd" d="M2.25 12C2.25 6.61704 6.61704 2.25 12 2.25C17.383 2.25 21.75 6.61704 21.75 12C21.75 17.383 17.383 21.75 12 21.75C6.61704 21.75 2.25 17.383 2.25 12ZM12 3.75C7.44546 3.75 3.75 7.44546 3.75 12C3.75 16.5545 7.44546 20.25 12 20.25C16.5545 20.25 20.25 16.5545 20.25 12C20.25 7.44546 16.5545 3.75 12 3.75Z" fill="white"/>
<path d="M10.14 15.6776L15.5049 12.4366C15.5796 12.3911 15.6414 12.327 15.6843 12.2507C15.7272 12.1743 15.7497 12.0882 15.7497 12.0007C15.7497 11.9131 15.7272 11.827 15.6843 11.7507C15.6414 11.6743 15.5796 11.6103 15.5049 11.5647L10.14 8.32379C10.0631 8.27772 9.97534 8.25294 9.8857 8.25198C9.79607 8.25103 9.70779 8.27393 9.62993 8.31835C9.55206 8.36277 9.48742 8.4271 9.44262 8.50475C9.39782 8.58239 9.37449 8.67056 9.37501 8.7602V15.2412C9.37449 15.3308 9.39782 15.419 9.44262 15.4966C9.48742 15.5742 9.55206 15.6386 9.62993 15.683C9.70779 15.7274 9.79607 15.7503 9.8857 15.7494C9.97534 15.7484 10.0631 15.7236 10.14 15.6776Z" fill="white"/>
</svg>
