<svg width="16" height="16" viewBox="0 0 16 16" fill="none" xmlns="http://www.w3.org/2000/svg">
<path d="M8 14.4992C4.41594 14.4992 1.5 11.5782 1.5 7.98825C1.5 6.03668 2.35156 4.207 3.83625 2.97106C3.90557 2.913 3.98567 2.86919 4.07195 2.84213C4.15822 2.81508 4.24899 2.8053 4.33905 2.81338C4.42912 2.82145 4.5167 2.84721 4.59679 2.88918C4.67688 2.93115 4.74791 2.98851 4.8058 3.05797C4.86369 3.12743 4.90731 3.20763 4.93416 3.29398C4.96101 3.38032 4.97057 3.47111 4.96228 3.56115C4.95399 3.6512 4.92802 3.73872 4.88585 3.81871C4.84369 3.8987 4.78616 3.96959 4.71656 4.02731C3.54625 5.00231 2.875 6.44606 2.875 7.98825C2.875 10.8201 5.17406 13.1242 8 13.1242C10.8259 13.1242 13.125 10.8201 13.125 7.98825C13.1249 7.23142 12.9572 6.484 12.6339 5.79969C12.3107 5.11538 11.8399 4.51116 11.2553 4.03044C11.1829 3.97391 11.1226 3.90344 11.0778 3.8232C11.0331 3.74296 11.0049 3.65458 10.995 3.56326C10.985 3.47195 10.9934 3.37956 11.0197 3.29155C11.046 3.20355 11.0897 3.1217 11.1482 3.05086C11.2067 2.98002 11.2787 2.92162 11.3602 2.8791C11.4416 2.83658 11.5307 2.81082 11.6223 2.80332C11.7138 2.79582 11.806 2.80675 11.8932 2.83545C11.9805 2.86415 12.0611 2.91005 12.1303 2.97044C12.8713 3.57992 13.4682 4.34598 13.8779 5.21358C14.2876 6.08118 14.5001 7.02877 14.5 7.98825C14.5 11.5782 11.5841 14.4992 8 14.4992Z" fill="#D34B57"/>
<path d="M8 8.5C7.81766 8.5 7.6428 8.42757 7.51386 8.29864C7.38493 8.1697 7.3125 7.99484 7.3125 7.8125V2.1875C7.3125 2.00516 7.38493 1.8303 7.51386 1.70136C7.6428 1.57243 7.81766 1.5 8 1.5C8.18234 1.5 8.3572 1.57243 8.48614 1.70136C8.61507 1.8303 8.6875 2.00516 8.6875 2.1875V7.8125C8.6875 7.99484 8.61507 8.1697 8.48614 8.29864C8.3572 8.42757 8.18234 8.5 8 8.5Z" fill="#D34B57"/>
</svg>
