<svg width="40" height="40" viewBox="0 0 40 40" fill="none" xmlns="http://www.w3.org/2000/svg">
<path d="M15.3086 17.1926H20.3086V30.6301" stroke="white" stroke-width="2.81237" stroke-linecap="round" stroke-linejoin="round"/>
<path d="M14.6055 30.9441H25.3867" stroke="white" stroke-width="2.81237" stroke-miterlimit="10" stroke-linecap="round"/>
<path d="M20 12.5056C19.5055 12.5056 19.0222 12.359 18.6111 12.0843C18.2 11.8096 17.8795 11.4191 17.6903 10.9623C17.5011 10.5055 17.4516 10.0028 17.548 9.51789C17.6445 9.03294 17.8826 8.58748 18.2322 8.23785C18.5819 7.88822 19.0273 7.65012 19.5123 7.55365C19.9972 7.45719 20.4999 7.5067 20.9567 7.69592C21.4135 7.88514 21.804 8.20557 22.0787 8.61669C22.3534 9.02781 22.5 9.51116 22.5 10.0056C22.5 10.6687 22.2366 11.3045 21.7678 11.7734C21.2989 12.2422 20.663 12.5056 20 12.5056Z" fill="white"/>
</svg>
