<svg xmlns="http://www.w3.org/2000/svg" width="41.698" height="35.512" viewBox="0 0 41.698 35.512">
    <defs>
        <linearGradient id="linear-gradient-product3" x1=".5" x2="1" y1=".187" y2="1.091" gradientUnits="objectBoundingBox">
            <stop offset="0" stop-color="#34e4ea"/>
            <stop offset="1" stop-color="#00ade6"/>
        </linearGradient>
    </defs>
    <g id="team-product3" opacity="0.65">
        <path id="Union_10" fill="url(#linear-gradient-product3)" d="M12.347 35.512a1.207 1.207 0 0 1-1.2-1.209V22.067a6.038 6.038 0 0 1 6.02-6.043h7.372a6.038 6.038 0 0 1 6.02 6.043V34.3a1.207 1.207 0 0 1-1.2 1.209zm-8.736 0A3.623 3.623 0 0 1 0 31.885v-6.67a6.039 6.039 0 0 1 6.02-6.043h3.224a8.462 8.462 0 0 0-.508 2.9V34.3a3.618 3.618 0 0 0 .207 1.209zm29.143 0a3.615 3.615 0 0 0 .207-1.209V22.066a8.461 8.461 0 0 0-.508-2.895h3.224a6.038 6.038 0 0 1 6.02 6.043v6.671a3.623 3.623 0 0 1-3.612 3.626zM31.427 17.2a5.409 5.409 0 1 1 2.133.44 5.363 5.363 0 0 1-2.133-.44zm-28.7-4.995a5.409 5.409 0 1 1 7.544 4.995 5.369 5.369 0 0 1-2.133.44 5.431 5.431 0 0 1-5.414-5.431zm14.587 1.4a7.239 7.239 0 1 1 7.075 0 7.2 7.2 0 0 1-7.075 0z" data-name="Union 10"/>
    </g>
</svg>
