<svg xmlns="http://www.w3.org/2000/svg" width="100%" height="100%" viewBox="0 0 37.216 53.016">
    <defs>
        <linearGradient id="linear-gradient-product1" x1=".5" x2="1" y1=".187" y2="1.091" gradientUnits="objectBoundingBox">
            <stop offset="0" stop-color="#34e4ea"/>
            <stop offset="1" stop-color="#00ade6"/>
        </linearGradient>
        <filter id="Union_8_P1" width="37.216" height="53.016" x="0" y="0" filterUnits="userSpaceOnUse">
            <feOffset dy="3"/>
            <feGaussianBlur result="blur" stdDeviation="3"/>
            <feFlood flood-opacity=".161"/>
            <feComposite in2="blur" operator="in"/>
            <feComposite in="SourceGraphic"/>
        </filter>
    </defs>
    <g id="team-product1" opacity="0.65">
        <g filter="url(#Union_8_P1)" transform="translate(9 6) translate(-9 -6)">
            <path id="Union_8_P1-2" fill="url(#linear-gradient-product1)" d="M1.192 35.016A1.192 1.192 0 0 1 0 33.824V21.759A5.966 5.966 0 0 1 5.959 15.8h7.3a5.966 5.966 0 0 1 5.959 5.959v12.065a1.192 1.192 0 0 1-1.192 1.192zm4.914-21.6a7.151 7.151 0 1 1 3.5.916 7.171 7.171 0 0 1-3.501-.916z" data-name="Union 8" transform="translate(9 6)"/>
        </g>
    </g>
</svg>
