<svg xmlns="http://www.w3.org/2000/svg" xmlns:xlink="http://www.w3.org/1999/xlink" width="100%" height="100%" viewBox="0 0 57 57">
    <defs>
        <clipPath id="clip-path-product2">
            <circle id="Ellipse_1202-product2" data-name="Ellipse 1202" cx="28.5" cy="28.5" r="28.5" transform="translate(0.333 0)" fill="none" stroke="#58c9e5" stroke-width="2"/>
        </clipPath>
        <linearGradient id="linear-gradient-product2" x1="0.5" y1="0.187" x2="1" y2="1.091" gradientUnits="objectBoundingBox">
            <stop offset="0" stop-color="#34e4ea"/>
            <stop offset="1" stop-color="#00ade6"/>
        </linearGradient>
    </defs>
    <g id="Mask_Group_102" data-name="Mask Group 102" transform="translate(-0.333 0)" clip-path="url(#clip-path-product2)">
        <g id="team-product1" transform="translate(12.674 9.964)" opacity="0.65">
            <g id="Group_14600" data-name="Group 14600" transform="translate(0 20.217)">
                <g id="Group_14599" data-name="Group 14599">
                    <path id="Path_20761" data-name="Path 20761" d="M9.248,276.374a8.88,8.88,0,0,1,.538-3.053H6.373A6.38,6.38,0,0,0,0,279.694v7.034a3.828,3.828,0,0,0,3.824,3.824H9.468a3.806,3.806,0,0,1-.219-1.275Z" transform="translate(0 -273.321)" fill="url(#linear-gradient-product2)"/>
                </g>
            </g>
            <g id="Group_14602" data-name="Group 14602" transform="translate(11.798 16.897)">
                <g id="Group_14601" data-name="Group 14601">
                    <path id="Path_20762" data-name="Path 20762" d="M151.006,234.815h-7.8a6.38,6.38,0,0,0-6.373,6.373v12.9a1.275,1.275,0,0,0,1.275,1.274h18a1.274,1.274,0,0,0,1.275-1.274v-12.9A6.38,6.38,0,0,0,151.006,234.815Z" transform="translate(-136.829 -234.815)" fill="url(#linear-gradient-product2)"/>
                </g>
            </g>
            <g id="Group_14604" data-name="Group 14604" transform="translate(14.409)">
                <g id="Group_14603" data-name="Group 14603">
                    <path id="Path_20763" data-name="Path 20763" d="M174.778,38.84a7.663,7.663,0,1,0,7.664,7.664A7.673,7.673,0,0,0,174.778,38.84Z" transform="translate(-167.114 -38.84)" fill="url(#linear-gradient-product2)"/>
                </g>
            </g>
            <g id="Group_14606" data-name="Group 14606" transform="translate(2.883 7.143)">
                <g id="Group_14605" data-name="Group 14605" transform="translate(0 0)">
                    <path id="Path_20764" data-name="Path 20764" d="M39.175,121.689a5.729,5.729,0,1,0,5.732,5.732A5.738,5.738,0,0,0,39.175,121.689Z" transform="translate(-33.443 -121.689)" fill="url(#linear-gradient-product2)"/>
                </g>
            </g>
        </g>
    </g>
</svg>
