<svg width="29" height="28" viewBox="0 0 29 28" fill="none" xmlns="http://www.w3.org/2000/svg">
<g clip-path="url(#clip0_1419_7826)">
<path d="M13.9718 0C6.82647 5.09804e-07 7.27268 3.09865 7.27268 3.09865L7.28064 6.30883H14.0993V7.27268H4.57231C4.57231 7.27268 0 6.75413 0 13.9639C-5.09804e-07 21.1736 3.99081 20.9179 3.99081 20.9179H6.37255V17.5723C6.37255 17.5723 6.24417 13.5815 10.2996 13.5815C14.3551 13.5815 17.0625 13.5815 17.0625 13.5815C17.0625 13.5815 20.8621 13.6429 20.8621 9.90932C20.8621 6.17572 20.8621 3.73591 20.8621 3.73591C20.8621 3.73591 21.439 0 13.9718 0ZM10.212 2.1587C10.8904 2.1587 11.4387 2.70701 11.4387 3.38542C11.4387 4.06382 10.8904 4.61213 10.212 4.61213C9.53361 4.61214 8.9853 4.06382 8.9853 3.38542C8.9853 2.70701 9.53361 2.1587 10.212 2.1587Z" fill="url(#paint0_linear_1419_7826)"/>
<path d="M14.1741 28.0001C21.3194 28.0001 20.8732 24.9014 20.8732 24.9014L20.8653 21.6913H14.0466V20.7274H23.5736C23.5736 20.7274 28.1459 21.2459 28.1459 14.0362C28.1459 6.8265 24.1551 7.08218 24.1551 7.08218H21.7734V10.4278C21.7734 10.4278 21.9017 14.4186 17.8463 14.4186C13.7908 14.4186 11.0834 14.4186 11.0834 14.4186C11.0834 14.4186 7.28377 14.3572 7.28377 18.0908C7.28377 21.8244 7.28377 24.2642 7.28377 24.2642C7.28377 24.2642 6.70688 28.0001 14.1741 28.0001ZM17.9339 25.8414C17.2555 25.8414 16.7072 25.2931 16.7072 24.6147C16.7072 23.9363 17.2555 23.3879 17.9339 23.3879C18.6123 23.3879 19.1606 23.9363 19.1606 24.6147C19.1606 25.2931 18.6123 25.8414 17.9339 25.8414Z" fill="url(#paint1_linear_1419_7826)"/>
</g>
<defs>
<linearGradient id="paint0_linear_1419_7826" x1="2.70494" y1="2.44745" x2="16.6226" y2="16.4117" gradientUnits="userSpaceOnUse">
<stop stop-color="#387EB8"/>
<stop offset="1" stop-color="#366994"/>
</linearGradient>
<linearGradient id="paint1_linear_1419_7826" x1="11.2658" y1="11.3309" x2="26.2134" y2="25.6515" gradientUnits="userSpaceOnUse">
<stop stop-color="#FFE052"/>
<stop offset="1" stop-color="#FFC331"/>
</linearGradient>
<clipPath id="clip0_1419_7826">
<rect width="28.1466" height="28" fill="white"/>
</clipPath>
</defs>
</svg>
