<svg width="15" height="25" viewBox="0 0 15 25" fill="none" xmlns="http://www.w3.org/2000/svg">
<path d="M7.448 0.895998C9.66667 0.895998 11.448 1.504 12.792 2.72C14.1573 3.91467 14.84 5.568 14.84 7.68C14.84 9.77067 14.168 11.3707 12.824 12.48C11.48 13.568 9.69867 14.112 7.48 14.112L7.352 16.576H3.416L3.256 11.136H4.696C6.552 11.136 7.98133 10.8907 8.984 10.4C9.98667 9.90933 10.488 9.01333 10.488 7.712C10.488 6.77333 10.2107 6.02667 9.656 5.472C9.12267 4.91733 8.38667 4.64 7.448 4.64C6.46667 4.64 5.69867 4.90667 5.144 5.44C4.61067 5.97333 4.344 6.70933 4.344 7.648H0.12C0.0986667 6.34667 0.376 5.184 0.952 4.16C1.528 3.136 2.37067 2.336 3.48 1.76C4.61067 1.184 5.93333 0.895998 7.448 0.895998ZM5.368 24.224C4.55733 24.224 3.88533 23.9787 3.352 23.488C2.84 22.976 2.584 22.3467 2.584 21.6C2.584 20.8533 2.84 20.2347 3.352 19.744C3.88533 19.232 4.55733 18.976 5.368 18.976C6.15733 18.976 6.808 19.232 7.32 19.744C7.832 20.2347 8.088 20.8533 8.088 21.6C8.088 22.3467 7.832 22.976 7.32 23.488C6.808 23.9787 6.15733 24.224 5.368 24.224Z" fill="white"/>
</svg>
