<svg width="23" height="23" viewBox="0 0 23 23" fill="none" xmlns="http://www.w3.org/2000/svg">
<path d="M11.5 0C5.15865 0 0 5.15865 0 11.5C0 17.8414 5.15865 23 11.5 23C17.8414 23 23 17.8414 23 11.5C23 5.15865 17.8414 0 11.5 0ZM11.5 18.2083C10.9709 18.2083 10.5417 17.7791 10.5417 17.25C10.5417 16.7209 10.9709 16.2917 11.5 16.2917C12.0291 16.2917 12.4583 16.7209 12.4583 17.25C12.4583 17.7791 12.0291 18.2083 11.5 18.2083ZM13.017 12.1152C12.6778 12.2714 12.4583 12.6136 12.4583 12.9865V13.4167C12.4583 13.9456 12.0299 14.375 11.5 14.375C10.9701 14.375 10.5417 13.9456 10.5417 13.4167V12.9865C10.5417 11.868 11.1991 10.8427 12.214 10.374C13.1905 9.92458 13.8958 8.73134 13.8958 8.14577C13.8958 6.82532 12.8215 5.75 11.5 5.75C10.1785 5.75 9.10423 6.82532 9.10423 8.14577C9.10423 8.67484 8.67571 9.10423 8.14577 9.10423C7.61584 9.10423 7.1875 8.67484 7.1875 8.14577C7.1875 5.76825 9.1223 3.83327 11.5 3.83327C13.8777 3.83327 15.8125 5.76825 15.8125 8.14577C15.8125 9.44061 14.6893 11.3438 13.017 12.1152Z" fill="#005773"/>
</svg>
