<svg width="1306" height="490" viewBox="0 0 1306 490" fill="none" xmlns="http://www.w3.org/2000/svg">
<mask id="mask0" style="mask-type:alpha" maskUnits="userSpaceOnUse" x="0" y="0" width="1306" height="490">
<path d="M0 40C0 17.9086 17.9086 0 40 0H1266C1288.09 0 1306 17.9086 1306 40V450C1306 472.091 1288.09 490 1266 490H40C17.9086 490 0 472.091 0 450V40Z" fill="#005773"/>
</mask>
<g mask="url(#mask0)">
<g style="mix-blend-mode:hard-light" opacity="0.3">
<path d="M0 40C0 17.9086 17.9086 0 40 0H1266C1288.09 0 1306 17.9086 1306 40V450C1306 472.091 1288.09 490 1266 490H40C17.9086 490 0 472.091 0 450V40Z" fill="black"/>
</g>
<path d="M1104.5 197.053C1117.51 197.053 1128.06 186.506 1128.06 173.495C1128.06 160.485 1117.51 149.938 1104.5 149.938C1091.49 149.938 1080.94 160.485 1080.94 173.495C1080.94 186.506 1091.49 197.053 1104.5 197.053Z" fill="#FAAD14"/>
<path d="M1104.5 198C1097.96 198 1091.8 195.452 1087.18 190.824C1082.55 186.197 1080 180.044 1080 173.5C1080 166.956 1082.55 160.803 1087.18 156.176C1091.8 151.548 1097.96 149 1104.5 149C1111.04 149 1117.2 151.548 1121.82 156.176C1126.45 160.803 1129 166.956 1129 173.5C1129 180.044 1126.45 186.197 1121.82 190.824C1117.2 195.452 1111.04 198 1104.5 198ZM1104.5 150.885C1092.03 150.885 1081.89 161.03 1081.89 173.5C1081.89 185.97 1092.03 196.115 1104.5 196.115C1116.97 196.115 1127.12 185.97 1127.12 173.5C1127.12 161.03 1116.97 150.885 1104.5 150.885Z" fill="#282828"/>
<path d="M1120.83 165.02C1120.5 165.02 1120.18 164.848 1120.01 164.544C1120 164.536 1120 164.527 1119.99 164.519C1119.75 164.06 1119.92 163.489 1120.38 163.244C1120.83 163.003 1121.39 163.167 1121.64 163.608C1121.65 163.617 1121.65 163.626 1121.66 163.634C1121.9 164.093 1121.73 164.664 1121.27 164.909C1121.13 164.984 1120.98 165.02 1120.83 165.02Z" fill="#282828"/>
<path d="M1118.85 162.221C1118.58 162.221 1118.32 162.109 1118.13 161.89C1114.72 157.89 1109.75 155.596 1104.5 155.596C1103.98 155.596 1103.56 155.174 1103.56 154.653C1103.56 154.133 1103.98 153.711 1104.5 153.711C1110.31 153.711 1115.8 156.247 1119.57 160.668C1119.9 161.064 1119.86 161.659 1119.46 161.996C1119.28 162.147 1119.06 162.221 1118.85 162.221Z" fill="#282828"/>
<circle cx="26" cy="57" r="5" fill="#FAAD14"/>
<rect x="803.142" y="-4" width="20" height="20" transform="rotate(45 803.142 -4)" fill="#65DA7A"/>
<path d="M281.1 161.268L262.323 172.109L262.323 150.427L281.1 161.268Z" fill="#FF5744"/>
<rect x="551.167" y="-19" width="22" height="51" rx="11" transform="rotate(60 551.167 -19)" fill="#35E4E9"/>
<rect x="273" y="-7" width="5" height="51" rx="2.5" transform="rotate(60 273 -7)" fill="#F9E73F"/>
<rect x="229" y="-3" width="5" height="51" rx="2.5" transform="rotate(-60 229 -3)" fill="#F9E73F"/>
<g clip-path="url(#clip0)">
<path d="M1082.76 30.8906C1080.13 30.8906 1077.99 33.0297 1077.99 35.6589C1077.99 38.2881 1080.13 40.4272 1082.76 40.4272C1085.39 40.4272 1087.53 38.2881 1087.53 35.6589C1087.53 33.0297 1085.39 30.8906 1082.76 30.8906ZM1082.76 36.8897L1081.52 35.6498L1082.76 34.4101L1084 35.65L1082.76 36.8897Z" fill="#F9E73F"/>
<path d="M1088.55 49.0067L1088.49 48.9633C1086.98 47.6742 1084.75 47.6451 1083.19 48.8941C1078.45 52.692 1071.55 52.692 1066.81 48.8941C1065.25 47.6453 1063.02 47.6742 1061.51 48.9627L1061.46 49.006C1060.51 49.8102 1059.98 50.9819 1060 52.2208C1060.02 53.4606 1060.58 54.6177 1061.55 55.3951C1065.32 58.432 1070.1 60.1045 1075 60.1045C1079.9 60.1045 1084.68 58.432 1088.45 55.3951C1089.42 54.6177 1089.98 53.4605 1090 52.2208C1090.02 50.982 1089.49 49.8103 1088.55 49.0067ZM1075 56.8028C1074.97 56.8028 1074.95 56.8028 1074.93 56.8027C1070.83 56.786 1066.83 55.3833 1063.66 52.8529L1064.76 51.4834C1067.61 53.768 1071.23 55.0344 1074.93 55.0496C1074.95 55.0496 1074.98 55.0497 1075 55.0497C1078.68 55.0497 1082.28 53.816 1085.13 51.5717L1086.22 52.9508C1083.05 55.4363 1079.07 56.8028 1075 56.8028Z" fill="#F9E73F"/>
<path d="M1075 39.5078C1072.37 39.5078 1070.23 41.6469 1070.23 44.2761C1070.23 46.9054 1072.37 49.0445 1075 49.0445C1077.63 49.0445 1079.77 46.9054 1079.77 44.2761C1079.77 41.6469 1077.63 39.5078 1075 39.5078Z" fill="#F9E73F"/>
<path d="M1067.57 34.7717V31.7656H1065.82V34.7717H1062.81V36.5249H1065.82V39.5309H1067.57V36.5249H1070.59V34.7717H1067.57Z" fill="#F9E73F"/>
</g>
</g>
<defs>
<clipPath id="clip0">
<rect width="30" height="30" fill="white" transform="translate(1060 30)"/>
</clipPath>
</defs>
</svg>
