<svg width="69" height="57" viewBox="0 0 69 57" fill="none" xmlns="http://www.w3.org/2000/svg">
<path opacity="0.1" d="M52.336 30.1621C48.4307 29.7581 45.266 28.2094 42.842 25.5161C40.2833 22.9574 39.004 19.7254 39.004 15.8201C39.004 11.5107 40.418 7.87472 43.246 4.91205C45.9393 2.08406 49.306 0.670055 53.346 0.670055C57.9247 0.670055 61.6953 2.35339 64.658 5.72005C67.486 9.08672 68.9 14.0021 68.9 20.4661C68.9 33.1247 64.456 44.2347 55.568 53.7961C53.952 55.5467 52.0667 56.4221 49.912 56.4221C48.0267 56.4221 46.3433 55.6814 44.862 54.2001C43.246 52.8534 42.438 51.2374 42.438 49.3521C42.438 47.7361 43.1113 46.1874 44.458 44.7061C48.498 40.3967 51.124 35.5487 52.336 30.1621ZM13.552 30.1621C9.64666 29.7581 6.482 28.2094 4.058 25.5161C1.49933 22.9574 0.219997 19.7254 0.219997 15.8201C0.219997 11.5107 1.634 7.87472 4.462 4.91205C7.15533 2.08406 10.522 0.670055 14.562 0.670055C19.1407 0.670055 22.9113 2.35339 25.874 5.72005C28.702 9.08672 30.116 14.0021 30.116 20.4661C30.116 33.1247 25.672 44.2347 16.784 53.7961C15.168 55.5467 13.2827 56.4221 11.128 56.4221C9.24266 56.4221 7.55933 55.6814 6.07799 54.2001C4.46199 52.8534 3.65399 51.2374 3.65399 49.3521C3.65399 47.7361 4.32733 46.1874 5.674 44.7061C9.714 40.3967 12.34 35.5487 13.552 30.1621Z" fill="#3C3F41"/>
</svg>
