<svg width="69" height="57" viewBox="0 0 69 57" fill="none" xmlns="http://www.w3.org/2000/svg">
<path opacity="0.1" d="M16.664 26.6382C20.5693 27.0422 23.734 28.5909 26.158 31.2842C28.7167 33.8429 29.996 37.0749 29.996 40.9802C29.996 45.2896 28.582 48.9256 25.754 51.8882C23.0607 54.7162 19.694 56.1302 15.654 56.1302C11.0753 56.1302 7.30467 54.4469 4.342 51.0802C1.514 47.7136 0.1 42.7982 0.1 36.3342C0.1 23.6756 4.544 12.5656 13.432 3.00424C15.048 1.25357 16.9333 0.378239 19.088 0.378239C20.9733 0.378239 22.6567 1.1189 24.138 2.60023C25.754 3.9469 26.562 5.5629 26.562 7.44823C26.562 9.06424 25.8887 10.6129 24.542 12.0942C20.502 16.4036 17.876 21.2516 16.664 26.6382ZM55.448 26.6382C59.3533 27.0422 62.518 28.5909 64.942 31.2842C67.5007 33.8429 68.78 37.0749 68.78 40.9802C68.78 45.2896 67.366 48.9256 64.538 51.8882C61.8447 54.7162 58.478 56.1302 54.438 56.1302C49.8593 56.1302 46.0887 54.4469 43.126 51.0802C40.298 47.7136 38.884 42.7982 38.884 36.3342C38.884 23.6756 43.328 12.5656 52.216 3.00424C53.832 1.25357 55.7173 0.378239 57.872 0.378239C59.7573 0.378239 61.4407 1.1189 62.922 2.60023C64.538 3.9469 65.346 5.5629 65.346 7.44823C65.346 9.06424 64.6727 10.6129 63.326 12.0942C59.286 16.4036 56.66 21.2516 55.448 26.6382Z" fill="#3C3F41"/>
</svg>
