<svg width="16" height="16" viewBox="0 0 16 16" fill="none" xmlns="http://www.w3.org/2000/svg">
<path fill-rule="evenodd" clip-rule="evenodd" d="M9.33337 1.5C9.60952 1.5 9.83337 1.72386 9.83337 2V4.66667C9.83337 4.71087 9.85093 4.75326 9.88219 4.78452C9.91345 4.81577 9.95584 4.83333 10 4.83333H12.6667C12.9429 4.83333 13.1667 5.05719 13.1667 5.33333C13.1667 5.60948 12.9429 5.83333 12.6667 5.83333H10C9.69062 5.83333 9.39388 5.71042 9.17508 5.49162C8.95629 5.27283 8.83337 4.97609 8.83337 4.66667V2C8.83337 1.72386 9.05723 1.5 9.33337 1.5Z" fill="#BDBDBD"/>
<path fill-rule="evenodd" clip-rule="evenodd" d="M4.66671 2.5C4.44569 2.5 4.23373 2.5878 4.07745 2.74408C3.92117 2.90036 3.83337 3.11232 3.83337 3.33333V12.6667C3.83337 12.8877 3.92117 13.0996 4.07745 13.2559C4.23373 13.4122 4.44569 13.5 4.66671 13.5H11.3334C11.5544 13.5 11.7663 13.4122 11.9226 13.2559C12.0789 13.0996 12.1667 12.8877 12.1667 12.6667V5.54044L9.12627 2.5H4.66671ZM3.37034 2.03697C3.71416 1.69315 4.18048 1.5 4.66671 1.5H9.33337C9.46598 1.5 9.59316 1.55268 9.68693 1.64645L13.0203 4.97978C13.114 5.07355 13.1667 5.20073 13.1667 5.33333V12.6667C13.1667 13.1529 12.9736 13.6192 12.6297 13.963C12.2859 14.3068 11.8196 14.5 11.3334 14.5H4.66671C4.18048 14.5 3.71416 14.3068 3.37034 13.963C3.02653 13.6192 2.83337 13.1529 2.83337 12.6667V3.33333C2.83337 2.8471 3.02653 2.38079 3.37034 2.03697Z" fill="#BDBDBD"/>
<path fill-rule="evenodd" clip-rule="evenodd" d="M6 7.5C6.27614 7.5 6.5 7.72386 6.5 8V11.3333C6.5 11.6095 6.27614 11.8333 6 11.8333C5.72386 11.8333 5.5 11.6095 5.5 11.3333V8C5.5 7.72386 5.72386 7.5 6 7.5Z" fill="#BDBDBD"/>
<path fill-rule="evenodd" clip-rule="evenodd" d="M8 10.1667C8.27614 10.1667 8.5 10.3906 8.5 10.6667V11.3334C8.5 11.6096 8.27614 11.8334 8 11.8334C7.72386 11.8334 7.5 11.6096 7.5 11.3334V10.6667C7.5 10.3906 7.72386 10.1667 8 10.1667Z" fill="#BDBDBD"/>
<path fill-rule="evenodd" clip-rule="evenodd" d="M10 8.83325C10.2761 8.83325 10.5 9.05711 10.5 9.33325V11.3333C10.5 11.6094 10.2761 11.8333 10 11.8333C9.72386 11.8333 9.5 11.6094 9.5 11.3333V9.33325C9.5 9.05711 9.72386 8.83325 10 8.83325Z" fill="#BDBDBD"/>
</svg>
