<svg width="36" height="36" viewBox="0 0 36 36" fill="none" xmlns="http://www.w3.org/2000/svg">
<path d="M26.7869 4.0338C26.578 3.82489 26.3299 3.65918 26.0569 3.54614C25.7839 3.43311 25.4913 3.37495 25.1958 3.375H6.6286C6.20182 3.37491 5.7792 3.4589 5.38489 3.62218C4.99057 3.78546 4.63229 4.02483 4.33051 4.32661C4.02873 4.62839 3.78937 4.98667 3.62609 5.38098C3.46281 5.77529 3.37881 6.19791 3.37891 6.62469V29.3739C3.37881 29.8007 3.46281 30.2233 3.62609 30.6176C3.78937 31.012 4.02873 31.3702 4.33051 31.672C4.63229 31.9738 4.99057 32.2132 5.38489 32.3764C5.7792 32.5397 6.20182 32.6237 6.6286 32.6236H29.3778C30.2389 32.621 31.064 32.2778 31.6729 31.6689C32.2817 31.0601 32.6249 30.235 32.6275 29.3739V10.8067C32.6276 10.5112 32.5694 10.2186 32.4564 9.94561C32.3434 9.67261 32.1776 9.42454 31.9687 9.21559L26.7869 4.0338ZM18.0032 29.2488C17.1132 29.2488 16.2433 28.9849 15.5033 28.4904C14.7633 27.996 14.1865 27.2932 13.846 26.471C13.5054 25.6488 13.4163 24.744 13.5899 23.8711C13.7635 22.9983 14.1921 22.1965 14.8214 21.5672C15.4507 20.9379 16.2525 20.5093 17.1254 20.3357C17.9982 20.162 18.903 20.2512 19.7252 20.5917C20.5474 20.9323 21.2502 21.5091 21.7447 22.249C22.2391 22.989 22.503 23.859 22.503 24.749C22.5037 25.3401 22.3879 25.9256 22.162 26.4719C21.9361 27.0181 21.6047 27.5145 21.1867 27.9325C20.7687 28.3505 20.2724 28.6819 19.7261 28.9078C19.1798 29.1336 18.5943 29.2495 18.0032 29.2488V29.2488ZM21.3781 13.4995H7.8787C7.58034 13.4995 7.29421 13.381 7.08324 13.17C6.87227 12.9591 6.75375 12.6729 6.75375 12.3746V7.87479C6.75375 7.57643 6.87227 7.2903 7.08324 7.07933C7.29421 6.86836 7.58034 6.74984 7.8787 6.74984H21.3781C21.6764 6.74984 21.9626 6.86836 22.1735 7.07933C22.3845 7.2903 22.503 7.57643 22.503 7.87479V12.3746C22.503 12.6729 22.3845 12.9591 22.1735 13.17C21.9626 13.381 21.6764 13.4995 21.3781 13.4995Z" stroke="white" stroke-width="2.24989" stroke-linecap="round" stroke-linejoin="round"/>
</svg>
