<svg xmlns="http://www.w3.org/2000/svg" xmlns:xlink="http://www.w3.org/1999/xlink" width="107" height="107" viewBox="0 0 107 107">
  <defs>
    <linearGradient id="linear-gradient" x1="0.372" y1="0.645" x2="1" y2="0.192" gradientUnits="objectBoundingBox">
      <stop offset="0" stop-color="#00ade6"/>
      <stop offset="1" stop-color="#34e4ea"/>
    </linearGradient>
    <filter id="Ellipse_1217" x="0" y="0" width="107" height="107" filterUnits="userSpaceOnUse">
      <feOffset dy="2" input="SourceAlpha"/>
      <feGaussianBlur stdDeviation="5" result="blur"/>
      <feFlood flood-color="#34e4ea"/>
      <feComposite operator="in" in2="blur"/>
      <feComposite in="SourceGraphic"/>
    </filter>
  </defs>
  <g id="Group_14938" data-name="Group 14938" transform="translate(-33 -938)">
    <g transform="matrix(1, 0, 0, 1, 33, 938)" filter="url(#Ellipse_1217)">
      <circle id="Ellipse_1217-2" data-name="Ellipse 1217" cx="38.5" cy="38.5" r="38.5" transform="translate(15 13)" opacity="0.83" fill="url(#linear-gradient)"/>
    </g>
    <g id="Group_14918" data-name="Group 14918" transform="translate(1020 -141)">
      <g id="Icon_feather-save" data-name="Icon feather-save" transform="translate(-951.585 1112.006)">
        <path id="Path_34167" data-name="Path 34167" d="M28.5,31.5H7.5a3,3,0,0,1-3-3V7.5a3,3,0,0,1,3-3H24L31.5,12V28.5A3,3,0,0,1,28.5,31.5Z" fill="none" stroke="#fff" stroke-linecap="round" stroke-linejoin="round" stroke-width="3"/>
        <path id="Path_34168" data-name="Path 34168" d="M25.5,31.5v-12h-15v12" fill="none" stroke="#fff" stroke-linecap="round" stroke-linejoin="round" stroke-width="3"/>
        <path id="Path_34169" data-name="Path 34169" d="M10.5,4.5V12h12" fill="none" stroke="#fff" stroke-linecap="round" stroke-linejoin="round" stroke-width="3"/>
      </g>
    </g>
  </g>
</svg>
