<svg width="19" height="17" viewBox="0 0 19 17" fill="none" xmlns="http://www.w3.org/2000/svg">
<path d="M18.7987 5.64772L13.3701 0.219187C13.2357 0.0848647 13.0768 0.0176849 12.893 0.0176849C12.7092 0.0176849 12.5501 0.0848647 12.4159 0.219187C12.2816 0.353584 12.2143 0.512639 12.2143 0.69639V3.41065H9.83932C4.7993 3.41065 1.70702 4.83498 0.561764 7.68357C0.187242 8.63062 0 9.80766 0 11.2143C0 12.3876 0.448869 13.9815 1.34653 15.996C1.3677 16.0456 1.40469 16.1303 1.45779 16.2504C1.51086 16.3705 1.55851 16.4765 1.60092 16.5685C1.64348 16.6602 1.68945 16.738 1.73888 16.8015C1.82362 16.9217 1.92263 16.982 2.03575 16.982C2.14177 16.982 2.22485 16.9467 2.28497 16.876C2.34495 16.8054 2.37499 16.7169 2.37499 16.6111C2.37499 16.5473 2.36615 16.4538 2.34844 16.33C2.33076 16.2063 2.32189 16.1234 2.32189 16.0809C2.28649 15.6005 2.26882 15.1654 2.26882 14.7769C2.26882 14.0631 2.33076 13.4233 2.45435 12.8579C2.57813 12.2923 2.74951 11.803 2.96869 11.3894C3.18783 10.9757 3.47048 10.619 3.81693 10.3186C4.16322 10.0182 4.53604 9.77261 4.9354 9.58173C5.33484 9.39081 5.80488 9.24059 6.34562 9.13107C6.88633 9.02152 7.43057 8.9455 7.97844 8.90306C8.52632 8.86061 9.14657 8.83952 9.83932 8.83952H12.2143V11.5539C12.2143 11.7376 12.2814 11.8967 12.4156 12.0309C12.5501 12.1651 12.709 12.2324 12.8927 12.2324C13.0765 12.2324 13.2356 12.1651 13.3701 12.0309L18.7986 6.60223C18.9329 6.46791 19 6.30893 19 6.12514C19 5.94139 18.9329 5.7823 18.7987 5.64772Z" fill="#504F4F"/>
</svg>
