<svg width="41" height="40" viewBox="0 0 41 40" fill="none" xmlns="http://www.w3.org/2000/svg">
<path d="M21.2874 32.1188L30.3901 37.8983C31.564 38.6388 33.0089 37.5371 32.6657 36.1825L30.0289 25.8156C29.9576 25.5282 29.9689 25.2265 30.0616 24.9454C30.1542 24.6642 30.3244 24.4149 30.5526 24.2262L38.7161 17.4173C39.7817 16.5323 39.2399 14.7442 37.8492 14.6539L27.1933 13.9676C26.9026 13.9507 26.623 13.8495 26.3889 13.6763C26.1547 13.5031 25.9761 13.2654 25.8749 12.9923L21.9015 2.98662C21.7963 2.69747 21.6047 2.44769 21.3527 2.27118C21.1006 2.09468 20.8004 2 20.4927 2C20.185 2 19.8848 2.09468 19.6328 2.27118C19.3808 2.44769 19.1891 2.69747 19.084 2.98662L15.1106 12.9923C15.0093 13.2654 14.8307 13.5031 14.5965 13.6763C14.3624 13.8495 14.0829 13.9507 13.7921 13.9676L3.13622 14.6539C1.74553 14.7442 1.20371 16.5323 2.2693 17.4173L10.4328 24.2262C10.661 24.4149 10.8312 24.6642 10.9239 24.9454C11.0165 25.2265 11.0279 25.5282 10.9566 25.8156L8.51836 35.4239C8.10296 37.0494 9.8368 38.3679 11.2275 37.4829L19.698 32.1188C19.9356 31.9678 20.2112 31.8875 20.4927 31.8875C20.7742 31.8875 21.0499 31.9678 21.2874 32.1188Z" stroke="#FFD028" stroke-width="2.56866" stroke-linecap="round" stroke-linejoin="round"/>
</svg>
