<?xml version="1.0" standalone="no"?>
<!DOCTYPE svg PUBLIC "-//W3C//DTD SVG 1.1//EN" "http://www.w3.org/Graphics/SVG/1.1/DTD/svg11.dtd">
<svg width="100%" height="100%" viewBox="0 0 512 512" version="1.1" xmlns="http://www.w3.org/2000/svg" xmlns:xlink="http://www.w3.org/1999/xlink" xml:space="preserve" style="fill-rule:evenodd;clip-rule:evenodd;stroke-linejoin:round;stroke-miterlimit:1.41421;">
    <path d="M458.414,390.711C465.961,381.883 470.531,370.438 470.531,357.938L470.531,352.531C470.531,324.668 447.863,302 420,302C392.137,302 369.469,324.668 369.469,352.531L369.469,357.938C369.469,370.438 374.039,381.883 381.586,390.711C363.113,395.465 347.523,407.453 338,423.457C328.477,407.453 312.887,395.465 294.414,390.711C301.961,381.883 306.531,370.438 306.531,357.938L306.531,352.531C306.531,324.668 283.863,302 256,302C228.137,302 205.469,324.668 205.469,352.531L205.469,357.938C205.469,370.438 210.039,381.883 217.586,390.711C199.113,395.465 183.523,407.453 174,423.457C164.477,407.453 148.887,395.465 130.414,390.711C137.961,381.883 142.531,370.438 142.531,357.938L142.531,352.531C142.531,324.668 119.863,302 92,302C64.137,302 41.469,324.668 41.469,352.531L41.469,357.938C41.469,370.438 46.039,381.883 53.586,390.711C22.809,398.633 0,426.617 0,459.832L0,502C0,507.523 4.477,512 10,512L502,512C507.523,512 512,507.523 512,502L512,459.832C512,426.617 489.191,398.633 458.414,390.711L458.414,390.711ZM389.469,352.531C389.469,335.695 403.164,322 420,322C436.836,322 450.531,335.695 450.531,352.531L450.531,357.938C450.531,374.773 436.836,388.469 420,388.469C403.164,388.469 389.469,374.773 389.469,357.938L389.469,352.531ZM225.469,352.531C225.469,335.695 239.164,322 256,322C272.836,322 286.531,335.695 286.531,352.531L286.531,357.938C286.531,374.773 272.836,388.469 256,388.469C239.164,388.469 225.469,374.773 225.469,357.938L225.469,352.531ZM61.469,352.531C61.469,335.695 75.164,322 92,322C108.836,322 122.531,335.695 122.531,352.531L122.531,357.938C122.531,374.773 108.836,388.469 92,388.469C75.164,388.469 61.469,374.773 61.469,357.938L61.469,352.531ZM20,459.832C20,431.512 43.039,408.469 71.363,408.469L112.637,408.469C140.957,408.469 164,431.512 164,459.832L164,492L20,492L20,459.832ZM184,459.832C184,431.512 207.039,408.469 235.363,408.469L276.637,408.469C304.957,408.469 328,431.512 328,459.832L328,492L184,492L184,459.832ZM492,492L348,492L348,459.832C348,431.512 371.039,408.469 399.363,408.469L440.637,408.469C468.957,408.469 492,431.512 492,459.832L492,492Z" style="fill:rgb(0,173,230);fill-rule:nonzero;"/>
    <path d="M77.34,200.586L77.25,256.109C77.242,259.977 79.469,263.504 82.961,265.16C84.328,265.809 85.793,266.129 87.246,266.129C89.516,266.129 91.762,265.355 93.582,263.863L150.07,217.629L212.563,217.629L248.313,262.367C250.266,264.813 253.262,266.219 256.379,266.121C259.508,266.043 262.418,264.504 264.242,261.965L296.125,217.625L362.332,217.625L418.563,263.852C421.551,266.309 425.688,266.82 429.184,265.168C432.684,263.516 434.914,259.992 434.914,256.125L434.914,200.426C465.949,180.488 485,145.914 485,108.813C485,48.813 436.187,0 376.187,0L135.812,0C75.812,0 27,48.813 27,108.813C27,146.039 46.145,180.676 77.34,200.586L77.34,200.586ZM135.813,20L376.188,20C425.16,20 465,59.844 465,108.813C465,140.711 447.746,170.32 419.977,186.098C416.848,187.871 414.914,191.191 414.914,194.789L414.914,234.961L372.262,199.902C370.473,198.43 368.23,197.625 365.914,197.625L291,197.625C287.781,197.625 284.762,199.176 282.883,201.789L255.707,239.578L225.187,201.383C223.289,199.008 220.414,197.625 217.375,197.625L146.5,197.625C144.191,197.625 141.953,198.426 140.164,199.887L97.285,234.988L97.348,194.953C97.355,191.336 95.41,188 92.262,186.227C64.344,170.484 47,140.82 47,108.813C47,59.844 86.84,20 135.812,20L135.813,20Z" style="fill:rgb(0,173,230);fill-rule:nonzero;"/>
    <g transform="matrix(1,0,0,1,-5.28161,30.6948)">
        <path d="M245.581,90.703C246.605,91.151 247.405,91.775 247.981,92.575C248.557,93.375 248.845,94.319 248.845,95.407C248.845,97.199 248.285,98.655 247.165,99.775C246.045,100.895 244.621,101.455 242.893,101.455C241.997,101.455 241.005,101.263 239.917,100.879L207.949,88.495C206.093,87.791 204.637,86.671 203.581,85.135C202.525,83.599 201.997,81.807 201.997,79.759C201.997,77.839 202.525,76.095 203.581,74.527C204.637,72.959 206.093,71.791 207.949,71.023L239.917,58.639C241.005,58.255 241.997,58.063 242.893,58.063C244.621,58.063 246.045,58.623 247.165,59.743C248.285,60.863 248.845,62.319 248.845,64.111C248.845,65.199 248.557,66.159 247.981,66.991C247.405,67.823 246.605,68.431 245.581,68.815L217.069,79.759L245.581,90.703Z" style="fill:rgb(0,173,230);fill-rule:nonzero;"/>
        <path d="M266.317,110.479C265.805,112.015 264.989,113.167 263.869,113.935C262.749,114.703 261.485,115.087 260.077,115.087C258.285,115.087 256.717,114.511 255.373,113.359C254.029,112.207 253.357,110.735 253.357,108.943C253.357,108.175 253.485,107.439 253.741,106.735L275.533,38.287C276.045,36.751 276.861,35.599 277.981,34.831C279.101,34.063 280.333,33.679 281.677,33.679C283.469,33.679 285.053,34.255 286.429,35.407C287.805,36.559 288.493,38.063 288.493,39.919C288.493,40.303 288.365,41.007 288.109,42.031L266.317,110.479Z" style="fill:rgb(0,173,230);fill-rule:nonzero;"/>
        <path d="M333.997,71.023C335.853,71.791 337.309,72.959 338.365,74.527C339.421,76.095 339.949,77.839 339.949,79.759C339.949,81.807 339.421,83.599 338.365,85.135C337.309,86.671 335.853,87.791 333.997,88.495L302.029,100.879C301.005,101.263 300.013,101.455 299.053,101.455C297.325,101.455 295.901,100.895 294.781,99.775C293.661,98.655 293.101,97.199 293.101,95.407C293.101,94.319 293.389,93.375 293.965,92.575C294.541,91.775 295.341,91.151 296.365,90.703L324.877,79.759L296.365,68.815C295.341,68.431 294.541,67.823 293.965,66.991C293.389,66.159 293.101,65.199 293.101,64.111C293.101,62.319 293.661,60.863 294.781,59.743C295.901,58.623 297.325,58.063 299.053,58.063C299.949,58.063 300.941,58.255 302.029,58.639L333.997,71.023Z" style="fill:rgb(0,173,230);fill-rule:nonzero;"/>
    </g>
    <path d="M376.188,60L376.563,60C382.066,60 386.543,55.551 386.563,50.039C386.586,44.516 382.125,40.023 376.602,40L376.188,40C370.664,40 366.188,44.477 366.188,50C366.188,55.523 370.664,60 376.188,60Z" style="fill:rgb(0,173,230);fill-rule:nonzero;"/>
    <path d="M408.25,72.043C418.895,81.34 425,94.742 425,108.813C425,122.137 419.707,134.59 410.098,143.887C406.129,147.727 406.023,154.055 409.859,158.027C411.824,160.055 414.434,161.074 417.051,161.074C419.555,161.074 422.059,160.141 424,158.262C437.543,145.164 445,127.605 445,108.813C445,88.965 436.398,70.07 421.406,56.977C417.246,53.344 410.93,53.773 407.297,57.934C403.664,62.094 404.09,68.41 408.25,72.043L408.25,72.043Z" style="fill:rgb(0,173,230);fill-rule:nonzero;"/>
</svg>
