<svg width="14" height="14" viewBox="0 0 14 14" fill="none" xmlns="http://www.w3.org/2000/svg">
<path d="M3.66658 5.05681C4.10861 5.05681 4.53254 4.87955 4.8451 4.56401C5.15766 4.24847 5.33325 3.82051 5.33325 3.37427C5.33325 2.92804 5.15766 2.50008 4.8451 2.18454C4.53254 1.869 4.10861 1.69173 3.66658 1.69173C3.22456 1.69173 2.80063 1.869 2.48807 2.18454C2.17551 2.50008 1.99992 2.92804 1.99992 3.37427C1.99992 3.82051 2.17551 4.24847 2.48807 4.56401C2.80063 4.87955 3.22456 5.05681 3.66658 5.05681ZM3.66658 6.40284C3.27262 6.40284 2.88251 6.32451 2.51853 6.17231C2.15456 6.02011 1.82384 5.79702 1.54526 5.5158C1.26669 5.23457 1.04571 4.9007 0.894947 4.53326C0.744182 4.16581 0.666585 3.77199 0.666585 3.37427C0.666585 2.97656 0.744182 2.58273 0.894947 2.21529C1.04571 1.84785 1.26669 1.51398 1.54526 1.23275C1.82384 0.951522 2.15456 0.728439 2.51853 0.576239C2.88251 0.424039 3.27262 0.345703 3.66658 0.345703C4.46223 0.345703 5.2253 0.664784 5.78791 1.23275C6.35051 1.80072 6.66658 2.57105 6.66658 3.37427C6.66658 4.1775 6.35051 4.94783 5.78791 5.5158C5.2253 6.08376 4.46223 6.40284 3.66658 6.40284ZM10.6666 7.74887C11.0202 7.74887 11.3593 7.60706 11.6094 7.35463C11.8594 7.1022 11.9999 6.75983 11.9999 6.40284C11.9999 6.04585 11.8594 5.70349 11.6094 5.45106C11.3593 5.19863 11.0202 5.05681 10.6666 5.05681C10.313 5.05681 9.97382 5.19863 9.72378 5.45106C9.47373 5.70349 9.33325 6.04585 9.33325 6.40284C9.33325 6.75983 9.47373 7.1022 9.72378 7.35463C9.97382 7.60706 10.313 7.74887 10.6666 7.74887ZM10.6666 9.09491C9.95934 9.09491 9.28106 8.81128 8.78097 8.30642C8.28087 7.80156 7.99992 7.11682 7.99992 6.40284C7.99992 5.68886 8.28087 5.00413 8.78097 4.49927C9.28106 3.99441 9.95934 3.71078 10.6666 3.71078C11.3738 3.71078 12.0521 3.99441 12.5522 4.49927C13.0523 5.00413 13.3333 5.68886 13.3333 6.40284C13.3333 7.11682 13.0523 7.80156 12.5522 8.30642C12.0521 8.81128 11.3738 9.09491 10.6666 9.09491ZM12.3333 13.133V12.7965C12.3333 12.3503 12.1577 11.9223 11.8451 11.6068C11.5325 11.2912 11.1086 11.114 10.6666 11.114C10.2246 11.114 9.80063 11.2912 9.48807 11.6068C9.17551 11.9223 8.99992 12.3503 8.99992 12.7965V13.133H7.66658V12.7965C7.66658 12.3988 7.74418 12.005 7.89495 11.6375C8.04571 11.2701 8.26669 10.9362 8.54526 10.655C8.82384 10.3737 9.15456 10.1507 9.51853 9.99846C9.88251 9.84626 10.2726 9.76792 10.6666 9.76792C11.0606 9.76792 11.4507 9.84626 11.8146 9.99846C12.1786 10.1507 12.5093 10.3737 12.7879 10.655C13.0665 10.9362 13.2875 11.2701 13.4382 11.6375C13.589 12.005 13.6666 12.3988 13.6666 12.7965V13.133H12.3333ZM5.66658 13.133V10.4409C5.66658 9.90545 5.45587 9.3919 5.0808 9.01326C4.70573 8.63461 4.19702 8.42189 3.66658 8.42189C3.13615 8.42189 2.62744 8.63461 2.25237 9.01326C1.8773 9.3919 1.66659 9.90545 1.66659 10.4409V13.133H0.333252V10.4409C0.333252 9.54846 0.684441 8.69254 1.30956 8.06147C1.93468 7.43039 2.78253 7.07586 3.66658 7.07586C4.55064 7.07586 5.39849 7.43039 6.02361 8.06147C6.64873 8.69254 6.99992 9.54846 6.99992 10.4409V13.133H5.66658Z" fill="#9E9E9E"/>
</svg>
