<svg width="24" height="25" viewBox="0 0 24 25" fill="none" xmlns="http://www.w3.org/2000/svg">
<path d="M12 22.6953C17.5228 22.6953 22 18.2182 22 12.6953C22 7.17246 17.5228 2.69531 12 2.69531C6.47715 2.69531 2 7.17246 2 12.6953C2 18.2182 6.47715 22.6953 12 22.6953Z" stroke="#005773" stroke-width="2" stroke-linecap="round" stroke-linejoin="round"/>
<path d="M12 18.6953C15.3137 18.6953 18 16.009 18 12.6953C18 9.3816 15.3137 6.69531 12 6.69531C8.68629 6.69531 6 9.3816 6 12.6953C6 16.009 8.68629 18.6953 12 18.6953Z" stroke="#005773" stroke-width="2" stroke-linecap="round" stroke-linejoin="round"/>
<path d="M12 14.6953C13.1046 14.6953 14 13.7999 14 12.6953C14 11.5907 13.1046 10.6953 12 10.6953C10.8954 10.6953 10 11.5907 10 12.6953C10 13.7999 10.8954 14.6953 12 14.6953Z" stroke="#005773" stroke-width="2" stroke-linecap="round" stroke-linejoin="round"/>
</svg>
