<svg width="22" height="10" viewBox="0 0 22 10" fill="none" xmlns="http://www.w3.org/2000/svg">
<path opacity="0.9" d="M21.5469 1.87518V6.3283C21.5469 6.97558 21.0223 7.50018 20.3751 7.50018C19.7278 7.50018 19.2032 6.97558 19.2032 6.3283V4.70439L14.9538 8.95381C14.496 9.41134 13.754 9.41134 13.2964 8.95381L7.87513 3.53251L2.45384 8.95381C1.99607 9.41134 1.25427 9.41157 0.796505 8.95381C0.33897 8.49604 0.33897 7.75401 0.796505 7.29647L7.04658 1.0464C7.50434 0.588863 8.24615 0.588863 8.70391 1.0464L14.1252 6.46792L17.5458 3.04705H15.9219C15.2747 3.04705 14.7501 2.52246 14.7501 1.87518C14.7501 1.2279 15.2747 0.703304 15.9219 0.703304H20.3751C21.0319 0.703304 21.5469 1.24186 21.5469 1.87518Z" fill="#00ADE6"/>
</svg>
