<svg width="12" height="13" viewBox="0 0 12 13" fill="none" xmlns="http://www.w3.org/2000/svg">
<path fill-rule="evenodd" clip-rule="evenodd" d="M1.72179 1C1.32489 1 1 1.32344 1 1.7263V10.3104C1 10.7132 1.32489 11.0367 1.72179 11.0367H10.2743C10.6712 11.0367 10.9961 10.7132 10.9961 10.3104V1.7263C10.9961 1.32344 10.6712 1 10.2743 1H1.72179ZM0 1.7263C0 0.774629 0.769134 0 1.72179 0H10.2743C11.2269 0 11.9961 0.774629 11.9961 1.7263V10.3104C11.9961 11.2621 11.2269 12.0367 10.2743 12.0367H1.72179C0.769134 12.0367 0 11.2621 0 10.3104V1.7263ZM3.81246 3.82469C4.00808 3.62979 4.32466 3.63037 4.51956 3.82599L5.99804 5.30993L7.47651 3.82599C7.67141 3.63037 7.98799 3.62979 8.18362 3.82469C8.37924 4.01959 8.37982 4.33617 8.18492 4.5318L6.70384 6.01834L8.18492 7.50489C8.37982 7.70051 8.37924 8.01709 8.18362 8.21199C7.98799 8.40689 7.67141 8.40631 7.47651 8.21069L5.99804 6.72676L4.51956 8.21069C4.32466 8.40631 4.00808 8.40689 3.81246 8.21199C3.61683 8.01709 3.61625 7.70051 3.81115 7.50489L5.29223 6.01834L3.81115 4.5318C3.61625 4.33617 3.61683 4.01959 3.81246 3.82469Z" fill="#6D6D6D" fill-opacity="0.75"/>
</svg>
