<svg width="14" height="14" viewBox="0 0 14 14" fill="none" xmlns="http://www.w3.org/2000/svg">
<path d="M1.26162 8.16861H10.6416L6.54361 12.2666C6.21611 12.5941 6.21611 13.1315 6.54361 13.459C6.87111 13.7865 7.40014 13.7865 7.72764 13.459L13.2616 7.92508C13.5891 7.59758 13.5891 7.06855 13.2616 6.74105L7.73604 1.19874C7.57915 1.04149 7.36615 0.953125 7.14402 0.953125C6.9219 0.953125 6.70889 1.04149 6.552 1.19874C6.2245 1.52624 6.2245 2.05528 6.552 2.38278L10.6416 6.48912H1.26162C0.79976 6.48912 0.421875 6.86701 0.421875 7.32887C0.421875 7.79072 0.79976 8.16861 1.26162 8.16861Z" fill="white"/>
</svg>
