
<svg width="17" height="16" viewBox="0 0 17 16" fill="none" xmlns="http://www.w3.org/2000/svg">
<path d="M10.9999 8C10.3574 8 9.73615 7.71313 9.2499 7.1925C8.77708 6.68469 8.48833 6.0075 8.4374 5.28625C8.38302 4.51688 8.61771 3.80938 9.09802 3.29375C9.57833 2.77813 10.2499 2.5 10.9999 2.5C11.7446 2.5 12.418 2.78312 12.8968 3.2975C13.3802 3.81687 13.6155 4.52312 13.5611 5.28594C13.509 6.00812 13.2205 6.685 12.7486 7.19219C12.2636 7.71312 11.6427 8 10.9999 8Z" fill="currentColor"/>
<path d="M15.1197 13.5H6.8806C6.74814 13.5007 6.61727 13.471 6.49809 13.4132C6.3789 13.3554 6.27456 13.271 6.1931 13.1666C6.1067 13.0533 6.04703 12.922 6.01856 12.7824C5.9901 12.6429 5.99357 12.4987 6.02873 12.3606C6.29185 11.3041 6.94373 10.4278 7.91373 9.82687C8.77466 9.29375 9.8706 9 11 9C12.1515 9 13.2187 9.28125 14.0847 9.81406C15.0569 10.4119 15.7097 11.2931 15.9715 12.3625C16.0063 12.5006 16.0094 12.6448 15.9806 12.7843C15.9518 12.9238 15.8919 13.055 15.8053 13.1681C15.7239 13.2721 15.6198 13.3561 15.501 13.4136C15.3821 13.4711 15.2517 13.5007 15.1197 13.5V13.5Z" fill="currentColor"/>
<path d="M5.0937 8.125C3.99402 8.125 3.02714 7.1025 2.93745 5.84594C2.89308 5.20219 3.0937 4.60687 3.49995 4.17031C3.90183 3.73812 4.4687 3.5 5.0937 3.5C5.7187 3.5 6.2812 3.73938 6.68527 4.17406C7.09464 4.61406 7.29464 5.20812 7.24777 5.84656C7.15808 7.10281 6.19152 8.125 5.0937 8.125Z" fill="currentColor"/>
<path d="M7.14559 9.10723C6.5959 8.83848 5.88246 8.7041 5.09403 8.7041C4.1734 8.7041 3.27934 8.9441 2.57621 9.37973C1.77903 9.87442 1.24278 10.5947 1.02621 11.4644C0.994522 11.5895 0.991525 11.7202 1.01745 11.8466C1.04337 11.973 1.09754 12.0919 1.1759 12.1944C1.25026 12.2899 1.34552 12.367 1.45436 12.4199C1.5632 12.4728 1.68271 12.5 1.80371 12.4994H5.27246C5.33101 12.4994 5.3877 12.4789 5.43264 12.4413C5.47759 12.4038 5.50794 12.3517 5.5184 12.2941C5.52184 12.2744 5.52621 12.2547 5.53121 12.2354C5.79621 11.171 6.41715 10.2716 7.33465 9.61598C7.3684 9.59165 7.39554 9.55929 7.41362 9.52183C7.4317 9.48436 7.44014 9.44298 7.43819 9.40143C7.43623 9.35987 7.42394 9.31946 7.40242 9.28386C7.38091 9.24826 7.35084 9.21859 7.31496 9.19754C7.2659 9.16879 7.20965 9.13848 7.14559 9.10723Z" fill="currentColor"/>
</svg>
