<svg width="14" height="14" viewBox="0 0 14 14" fill="none" xmlns="http://www.w3.org/2000/svg">
<path fill-rule="evenodd" clip-rule="evenodd" d="M2.41116 4.1678C2.68669 4.14943 2.92494 4.3579 2.94331 4.63343L3.24994 9.23284C3.30984 10.1314 3.35253 10.7566 3.44624 11.227C3.53714 11.6833 3.66403 11.9249 3.8463 12.0954C4.02858 12.2659 4.27802 12.3765 4.73935 12.4368C5.21496 12.499 5.84163 12.5 6.74219 12.5H7.25776C8.15832 12.5 8.78499 12.499 9.2606 12.4368C9.72193 12.3765 9.97137 12.2659 10.1536 12.0954C10.3359 11.9249 10.4628 11.6833 10.5537 11.227C10.6474 10.7566 10.6901 10.1314 10.75 9.23284L11.0566 4.63343C11.075 4.3579 11.3133 4.14943 11.5888 4.1678C11.8643 4.18617 12.0728 4.42442 12.0544 4.69995L11.7455 9.33445C11.6885 10.1896 11.6424 10.8804 11.5344 11.4224C11.4222 11.986 11.2312 12.4567 10.8368 12.8256C10.4424 13.1946 9.96007 13.3538 9.3903 13.4284C8.84227 13.5001 8.14998 13.5 7.29292 13.5H6.70703C5.84997 13.5 5.15768 13.5001 4.60965 13.4284C4.03988 13.3538 3.55752 13.1946 3.16312 12.8256C2.76872 12.4567 2.57778 11.986 2.46551 11.4224C2.35753 10.8804 2.31149 10.1896 2.25449 9.33444L1.94553 4.69995C1.92716 4.42442 2.13563 4.18617 2.41116 4.1678Z" fill="#D34B57"/>
<path fill-rule="evenodd" clip-rule="evenodd" d="M5.90348 0.500026L5.87283 0.500013C5.72857 0.499921 5.60288 0.49984 5.4842 0.518792C5.01534 0.593662 4.60961 0.886099 4.39031 1.30723C4.3348 1.41382 4.29513 1.53309 4.2496 1.66998L4.23992 1.69905L4.17519 1.89323C4.16253 1.93121 4.159 1.94168 4.15593 1.95016C4.03919 2.2729 3.73651 2.49106 3.39341 2.49976C3.38439 2.49999 3.37334 2.50003 3.33331 2.50003H1.33325C1.05711 2.50003 0.833252 2.72388 0.833252 3.00003C0.833252 3.27617 1.05711 3.50003 1.33325 3.50003L3.33902 3.50003L3.35018 3.50003H10.6498L10.6609 3.50003L12.6666 3.50003C12.9428 3.50003 13.1666 3.27617 13.1666 3.00003C13.1666 2.72388 12.9428 2.50003 12.6666 2.50003H10.6666C10.6266 2.50003 10.6156 2.49999 10.6065 2.49976C10.2634 2.49106 9.96076 2.27289 9.84401 1.95014C9.84096 1.94172 9.83735 1.93102 9.82476 1.89323L9.76003 1.69905L9.75035 1.66996C9.70481 1.53307 9.66515 1.41382 9.60964 1.30723C9.39034 0.886098 8.98461 0.593662 8.51575 0.518792C8.39707 0.49984 8.27138 0.499921 8.12712 0.500013L8.09647 0.500026H5.90348ZM5.0963 2.29032C5.07012 2.36269 5.03969 2.43268 5.00535 2.50003H8.9946C8.96026 2.43268 8.92983 2.3627 8.90365 2.29033L8.87784 2.21477L8.81135 2.01528C8.75057 1.83294 8.73657 1.79575 8.72269 1.76909C8.64959 1.62872 8.51435 1.53124 8.35806 1.50628C8.32837 1.50154 8.28868 1.50003 8.09647 1.50003H5.90348C5.71127 1.50003 5.67157 1.50154 5.64189 1.50628C5.4856 1.53124 5.35036 1.62872 5.27726 1.76909C5.26338 1.79575 5.24938 1.83294 5.1886 2.01528L5.12207 2.21489C5.11205 2.24495 5.10425 2.26834 5.0963 2.29032Z" fill="#D34B57"/>
</svg>
