<svg xmlns="http://www.w3.org/2000/svg" width="198.6" height="194.618" viewBox="0 0 198.6 194.618">
  <g id="Group_13846" data-name="Group 13846" transform="translate(-827 -398.486)">
    <g id="Group_13845" data-name="Group 13845" transform="translate(827 398.486)">
      <path id="Path_21697" data-name="Path 21697" stroke="#8edcf2" d="M211.743-136.327l37.582-26.694a1.742,1.742,0,0,1,1.89-.073,1.957,1.957,0,0,1,.856,1.322.8.8,0,0,1,.016.163c0,1.376-.322,68.294-.322,68.355a.723.723,0,0,1-.013.126,2.108,2.108,0,0,1-.416.9,2.14,2.14,0,0,1-2.879.389l-35.938-25.3C207-121.759,204.474-129.626,211.743-136.327Z" fill="#0ab5e3" transform="translate(-53.988 248.744)" stroke-linecap="round" stroke-linejoin="round" stroke-width="1" fill-rule="evenodd"/>
      <path id="Path_21698" data-name="Path 21698" d="M130.048-47.832a4.727,4.727,0,0,0-4.818-4.631H65.344a4.727,4.727,0,0,0-4.818,4.631v9.246a4.727,4.727,0,0,0,4.818,4.631H125.23a4.728,4.728,0,0,0,4.818-4.631Z" transform="translate(-15.526 216.684)" fill="#0ab5e3" fill-rule="evenodd"/>
      <path id="Path_21699" data-name="Path 21699" d="M106.367-15.954a3.038,3.038,0,0,0-3.125-2.943H81.992a3.039,3.039,0,0,0-3.125,2.943V-13.3a2.859,2.859,0,0,0,.915,2.081,3.226,3.226,0,0,0,2.21.862h21.249a3.226,3.226,0,0,0,2.21-.862,2.859,2.859,0,0,0,.915-2.081Z" transform="translate(-12.867 204.978)" fill="rgba(10,181,227,0.83)" fill-rule="evenodd"/>
      <path id="Path_21700" data-name="Path 21700" d="M35.993-270.283c19.865,0,35.993,15.457,35.993,34.494s-16.128,34.5-35.993,34.5S0-216.75,0-235.789,16.128-270.283,35.993-270.283Zm-.077,19.731c8.381,0,15.185,6.558,15.185,14.635s-6.8,14.634-15.185,14.634-15.185-6.558-15.185-14.634S27.536-250.552,35.916-250.552Z" transform="translate(0 279.668)" fill="#0ab5e3" fill-rule="evenodd"/>
      <path id="Path_21701" data-name="Path 21701" d="M146.913-283.486c22.483,0,40.736,17.559,40.736,39.187s-18.253,39.187-40.736,39.187-40.735-17.559-40.735-39.187S124.431-283.486,146.913-283.486Zm-.48,20.158c9.627-.088,19.695,9.212,19.939,18.7.243,9.461-9.184,18.907-19.244,19.247-9.614.326-20.455-9.118-20.524-19.018C126.538-253.8,136.737-263.239,146.433-263.328Z" transform="translate(-27.658 283.486)" fill="#0ab5e3" fill-rule="evenodd"/>
      <path id="Path_21702" data-name="Path 21702" d="M151.975-159.672a8.543,8.543,0,0,0-8.706-8.369H23.458a8.542,8.542,0,0,0-8.706,8.369v62.624a8.542,8.542,0,0,0,8.706,8.369h119.81a8.543,8.543,0,0,0,8.706-8.369Z" transform="translate(-3.752 250.104)" fill="#0ab5e3" fill-rule="evenodd"/>
    </g>
  </g>
</svg>
