<svg width="30" height="30" viewBox="0 0 24 25" fill="inherit" stroke="inherit" xmlns="http://www.w3.org/2000/svg">
<path d="M17.5702 15.1657L21.4473 17.8948C21.5615 17.9455 21.6865 17.967 21.8111 17.9571C21.9357 17.9472 22.0558 17.9064 22.1606 17.8383C22.2654 17.7702 22.3515 17.6771 22.4111 17.5672C22.4707 17.4574 22.502 17.3344 22.502 17.2094V8.17382C22.502 8.04885 22.4707 7.92587 22.4111 7.81604C22.3515 7.70621 22.2654 7.61302 22.1606 7.54493C22.0558 7.47684 21.9357 7.43602 21.8111 7.42616C21.6865 7.41631 21.5615 7.43774 21.4473 7.48851L17.5702 10.2176C17.4719 10.2868 17.3917 10.3786 17.3363 10.4853C17.2809 10.592 17.252 10.7105 17.252 10.8307V14.5526C17.252 14.6728 17.2809 14.7913 17.3363 14.898C17.3917 15.0047 17.4719 15.0965 17.5702 15.1657V15.1657Z" stroke="inherit" stroke-width="2" fill="inherit" stroke-linecap="round" stroke-linejoin="round"/>
<path d="M12.5625 18.6934H3.9375C3.29161 18.6915 2.6727 18.4341 2.21598 17.9774C1.75926 17.5207 1.50186 16.9018 1.5 16.2559V9.13086C1.50186 8.48496 1.75926 7.86605 2.21598 7.40934C2.6727 6.95262 3.29161 6.69521 3.9375 6.69336H12.585C13.2249 6.69534 13.838 6.95041 14.2905 7.40288C14.743 7.85535 14.998 8.46847 15 9.10836V16.2559C14.9981 16.9018 14.7407 17.5207 14.284 17.9774C13.8273 18.4341 13.2084 18.6915 12.5625 18.6934Z" stroke="inherit" stroke-width="2" fill="inherit" stroke-miterlimit="10"/>
</svg>
