<svg xmlns="http://www.w3.org/2000/svg" width="56.867" height="43.9" viewBox="0 0 56.867 43.9">
    <defs>
        <linearGradient id="prefix__linear-gradient" x1=".217" x2=".844" y1=".215" y2=".861" gradientUnits="objectBoundingBox">
            <stop offset="0" stop-color="#34e4ea"/>
            <stop offset="1" stop-color="#00ade6"/>
        </linearGradient>
        <style>
            .prefix__cls-2{fill:url(#prefix__linear-gradient)}
        </style>
    </defs>
    <g id="prefix__wallet" transform="translate(1 -63)" style="opacity:.5">
        <g id="prefix__Group_11990" data-name="Group 11990" transform="translate(0 64)">
            <g id="prefix__Group_11989" data-name="Group 11989">
                <path id="prefix__Path_20732" d="M54.539 78.181V67.656A4.66 4.66 0 0 0 49.883 63H3.656A4.66 4.66 0 0 0-1 67.656v34.589a4.66 4.66 0 0 0 4.656 4.655h46.227a4.66 4.66 0 0 0 4.656-4.656V91.719c1.352-.482 1.328-1.762 1.328-3.277v-6.984c0-1.515.024-2.795-1.328-3.277zm-4.328 22.063a2.331 2.331 0 0 1-2.328 2.328H5.656a2.331 2.331 0 0 1-2.328-2.328V69.656a2.331 2.331 0 0 1 2.328-2.328h42.227a2.331 2.331 0 0 1 2.328 2.328v8.311h-5.983a6.983 6.983 0 0 0 0 13.967h5.983zm3.328-11.8a1.165 1.165 0 0 1-1.164 1.164h-8.147a4.656 4.656 0 0 1 0-9.311h8.147a1.165 1.165 0 0 1 1.164 1.164z" class="prefix__cls-2" data-name="Path 20732" transform="translate(0 -64)"/>
                <path id="prefix__Path_20733" d="M386.11 234.667a2.11 2.11 0 1 0 2.11 2.11 2.113 2.113 0 0 0-2.11-2.11z" class="prefix__cls-2" data-name="Path 20733" transform="translate(-338.613 -216.24)"/>
            </g>
        </g>
    </g>
</svg>
