<svg width="12" height="12" viewBox="0 0 12 12" fill="none" xmlns="http://www.w3.org/2000/svg">
<path d="M11.7177 10.3021L6.8911 1.33869C6.54899 0.703184 5.63764 0.703184 5.29525 1.33869L0.468901 10.3021C0.39462 10.44 0.35738 10.5949 0.360813 10.7515C0.364247 10.9082 0.408239 11.0613 0.488493 11.1959C0.568748 11.3304 0.682524 11.4419 0.818716 11.5194C0.954908 11.5969 1.10886 11.6377 1.26555 11.6379H10.9197C11.0765 11.638 11.2306 11.5973 11.367 11.5199C11.5034 11.4425 11.6174 11.3311 11.6978 11.1965C11.7782 11.0619 11.8223 10.9087 11.8258 10.7519C11.8293 10.5951 11.7921 10.4401 11.7177 10.3021V10.3021ZM6.09331 10.2502C5.98129 10.2502 5.87178 10.217 5.77864 10.1548C5.68549 10.0925 5.61289 10.0041 5.57002 9.90059C5.52715 9.79709 5.51594 9.68321 5.53779 9.57334C5.55965 9.46346 5.61359 9.36254 5.6928 9.28333C5.77202 9.20411 5.87294 9.15017 5.98281 9.12831C6.09269 9.10646 6.20657 9.11767 6.31007 9.16054C6.41357 9.20341 6.50203 9.27601 6.56426 9.36916C6.6265 9.4623 6.65972 9.57181 6.65972 9.68384C6.65972 9.75822 6.64507 9.83187 6.61661 9.90059C6.58814 9.96931 6.54642 10.0318 6.49382 10.0843C6.44123 10.1369 6.37879 10.1787 6.31007 10.2071C6.24135 10.2356 6.1677 10.2502 6.09331 10.2502ZM6.70843 4.55361L6.54587 8.00869C6.54587 8.12887 6.49813 8.24412 6.41316 8.3291C6.32818 8.41407 6.21292 8.46182 6.09275 8.46182C5.97257 8.46182 5.85732 8.41407 5.77234 8.3291C5.68736 8.24412 5.63962 8.12887 5.63962 8.00869L5.47706 4.55503C5.47341 4.4725 5.48641 4.39008 5.51529 4.31268C5.54417 4.23529 5.58833 4.1645 5.64515 4.10453C5.70197 4.04457 5.77028 3.99665 5.84601 3.96365C5.92175 3.93065 6.00335 3.91323 6.08595 3.91244H6.0919C6.17507 3.9124 6.25738 3.92921 6.33388 3.96185C6.41037 3.99449 6.47946 4.0423 6.53697 4.10238C6.59448 4.16245 6.63922 4.23356 6.6685 4.31141C6.69777 4.38925 6.71097 4.47222 6.7073 4.55531L6.70843 4.55361Z" fill="currentColor"/>
</svg>
