<svg width="24" height="24" viewBox="0 0 24 24" fill="none" xmlns="http://www.w3.org/2000/svg">
<path d="M23.3307 15.9493C24.2232 13.3927 24.2232 10.6091 23.3307 8.05248C23.3214 8.01563 23.3087 7.97973 23.2927 7.94525C22.4577 5.6191 20.9247 3.60754 18.9033 2.18548C16.8819 0.763422 14.4707 0.000244141 11.9992 0.000244141C9.52768 0.000244141 7.11648 0.763422 5.09508 2.18548C3.07368 3.60754 1.54071 5.6191 0.70567 7.94525C0.690428 7.98003 0.677712 8.01587 0.667622 8.05248C-0.222541 10.6095 -0.222541 13.3923 0.667622 15.9493C0.677712 15.9859 0.690428 16.0217 0.70567 16.0565C1.54071 18.3827 3.07368 20.3942 5.09508 21.8163C7.11648 23.2383 9.52768 24.0015 11.9992 24.0015C14.4707 24.0015 16.8819 23.2383 18.9033 21.8163C20.9247 20.3942 22.4577 18.3827 23.2927 16.0565C23.3087 16.022 23.3214 15.9861 23.3307 15.9493ZM11.9992 22.2809C11.5426 22.2809 10.8058 21.4542 10.1901 19.6054C9.87087 18.616 9.6337 17.602 9.48106 16.5736H14.5173C14.3656 17.6003 14.129 18.6126 13.8099 19.6002C13.1943 21.449 12.4558 22.2757 11.9992 22.2757V22.2809ZM9.27352 14.8545C9.19051 13.9362 9.14554 12.9798 9.14554 12.0009C9.14554 11.022 9.19051 10.0639 9.27352 9.14724H14.7266C14.8096 10.0639 14.8528 11.0203 14.8528 12.0009C14.8528 12.9815 14.8096 13.9362 14.7266 14.8545H9.27352ZM1.72088 12.0009C1.71989 11.0354 1.85556 10.0747 2.12385 9.14724H7.5475C7.46621 10.0829 7.42644 11.0497 7.42644 12.0009C7.42644 12.9521 7.46621 13.9171 7.5475 14.8545H2.12212C1.85394 13.9271 1.71828 12.9663 1.71915 12.0009H1.72088ZM11.9992 1.72085C12.4558 1.72085 13.1943 2.54754 13.8099 4.39636C14.1292 5.38504 14.3658 6.39855 14.5173 7.42641H9.48106C9.63286 6.39845 9.87004 5.38493 10.1901 4.39636C10.8058 2.54754 11.5426 1.72085 11.9992 1.72085ZM16.4526 9.14724H21.8763C22.4135 11.0117 22.4135 12.99 21.8763 14.8545H16.4526C16.5322 13.9171 16.5737 12.9521 16.5737 12.0009C16.5737 11.0497 16.5322 10.0829 16.4526 9.14724ZM21.2035 7.41776H16.2554C15.9493 5.3078 15.4236 3.41574 14.6868 2.06848C16.0883 2.45125 17.3933 3.1256 18.5162 4.0474C19.6392 4.9692 20.5549 6.1177 21.2035 7.41776ZM9.31157 2.07713C8.57481 3.42439 8.05078 5.31644 7.74466 7.42641H2.79489C3.4439 6.12667 4.35975 4.97844 5.48266 4.05669C6.60557 3.13494 7.91027 2.4604 9.31157 2.07713ZM2.79489 16.5736H7.74466C8.05078 18.6836 8.57481 20.5774 9.31157 21.9229C7.91027 21.5396 6.60557 20.8651 5.48266 19.9434C4.35975 19.0216 3.4439 17.8734 2.79489 16.5736ZM14.6868 21.9229C15.4236 20.5774 15.9493 18.6836 16.2554 16.5736H21.2035C20.5549 17.8737 19.6392 19.0222 18.5162 19.944C17.3933 20.8658 16.0883 21.5401 14.6868 21.9229Z" fill="#00ADE6"/>
</svg>
