<svg width="16" height="16" viewBox="0 0 16 16" fill="none" xmlns="http://www.w3.org/2000/svg">
<path fill-rule="evenodd" clip-rule="evenodd" d="M16 8C16 12.4183 12.4183 16 8.00001 16C3.58173 16 0 12.4183 0 8C0 3.58172 3.58173 0 8.00001 0C12.4183 0 16 3.58172 16 8ZM9.00001 4C9.00001 4.55228 8.5523 5 8.00001 5C7.44773 5 7.00001 4.55228 7.00001 4C7.00001 3.44772 7.44773 3 8.00001 3C8.5523 3 9.00001 3.44772 9.00001 4ZM7.00001 7C6.44773 7 6.00001 7.44771 6.00001 8C6.00001 8.55228 6.44773 9 7.00001 9V12C7.00001 12.5523 7.44773 13 8.00001 13H9.00001C9.5523 13 10 12.5523 10 12C10 11.4477 9.5523 11 9.00001 11V8C9.00001 7.44771 8.5523 7 8.00001 7H7.00001Z" fill="#F5F8FB"/>
</svg>
