<svg width="22" height="22" viewBox="0 0 22 22" fill="none" xmlns="http://www.w3.org/2000/svg">
<path d="M10.9993 1.48438C9.00305 1.48438 7.05167 2.07633 5.39188 3.18536C3.7321 4.2944 2.43845 5.87071 1.67454 7.71497C0.910622 9.55922 0.710748 11.5886 1.10019 13.5464C1.48963 15.5043 2.4509 17.3027 3.86243 18.7142C5.27396 20.1257 7.07236 21.087 9.03021 21.4764C10.9881 21.8659 13.0174 21.666 14.8617 20.9021C16.7059 20.1382 18.2822 18.8445 19.3913 17.1848C20.5003 15.525 21.0923 13.5736 21.0923 11.5774C21.0923 8.90056 20.0289 6.33336 18.1361 4.44055C16.2433 2.54775 13.6761 1.48437 10.9993 1.48438ZM10.9993 18.8844C9.55546 18.8844 8.14407 18.4562 6.9436 17.6541C5.74312 16.852 4.80746 15.7119 4.25494 14.378C3.70242 13.0441 3.55785 11.5763 3.83952 10.1602C4.1212 8.74416 4.81646 7.44344 5.83738 6.42252C6.8583 5.40159 8.15903 4.70632 9.5751 4.42465C10.9912 4.14298 12.4589 4.28754 13.7928 4.84006C15.1267 5.39258 16.2669 6.32824 17.069 7.52872C17.8711 8.7292 18.2993 10.1406 18.2993 11.5844C18.2985 13.5199 17.529 15.376 16.1601 16.7443C14.7911 18.1127 12.9348 18.8814 10.9993 18.8814V18.8844Z" fill="#E3594A"/>
<path d="M17.769 9.048C17.8603 10.0554 17.7524 11.0709 17.4512 12.0365C17.1501 13.0021 16.6617 13.899 16.014 14.6759C15.3663 15.4528 14.5719 16.0945 13.6761 16.5644C12.7804 17.0343 11.8009 17.3232 10.7935 17.4145C9.78613 17.5058 8.77063 17.3979 7.80499 17.0967C6.83935 16.7956 5.94248 16.3073 5.16558 15.6595C4.38867 15.0118 3.74696 14.2174 3.27707 13.3216C2.80719 12.4259 2.51833 11.4464 2.427 10.439C2.043 6.202 9.215 0 9.215 0C9.215 0 17.385 4.814 17.769 9.048Z" fill="url(#paint0_linear_566_3688)"/>
<path d="M14.0437 11.2822C13.7437 11.6042 12.9127 11.7102 12.5017 11.8202C11.118 12.1923 9.68947 12.3717 8.25668 12.3532C7.73768 12.3462 6.58769 12.4742 6.22469 12.0062C5.77569 11.4272 6.46969 10.1452 6.81569 9.6512C7.15544 9.1746 7.59635 8.779 8.10686 8.49272C8.61736 8.20643 9.18485 8.03653 9.76869 7.99519C10.4657 7.86439 11.1853 7.9303 11.847 8.18553C12.5086 8.44075 13.0861 8.87521 13.5147 9.4402C13.787 9.86166 13.9896 10.3243 14.1147 10.8102C14.1404 10.8871 14.1476 10.969 14.1358 11.0493C14.124 11.1296 14.0935 11.2059 14.0467 11.2722L14.0437 11.2822Z" fill="#1E58AC"/>
<path d="M14.0372 11.5811C14.0372 11.5811 9.71823 8.8201 7.18723 12.3721C5.24123 15.1041 12.2942 13.5121 12.2942 13.5121L14.0372 11.5811Z" fill="#25A0E6"/>
<path d="M10.9653 6.39212C10.9082 6.39727 10.851 6.38479 10.8012 6.35635C10.7515 6.32792 10.7116 6.28491 10.6871 6.23312C10.6626 6.18134 10.6545 6.12325 10.664 6.06674C10.6736 6.01023 10.7002 5.95801 10.7403 5.91711L10.7643 5.88312C10.9061 5.63898 11.1 5.42908 11.3321 5.26834C11.5642 5.1076 11.8289 4.99998 12.1073 4.95312C12.3922 4.95837 12.6721 5.0291 12.9253 5.15985C13.1784 5.2906 13.3981 5.47785 13.5673 5.70712C13.5939 5.73408 13.6147 5.76615 13.6286 5.80139C13.6424 5.83663 13.649 5.8743 13.6478 5.91214C13.6467 5.94998 13.6379 5.9872 13.622 6.02155C13.606 6.05589 13.5833 6.08666 13.5552 6.11197C13.527 6.13728 13.494 6.1566 13.4582 6.16879C13.4223 6.18099 13.3844 6.1858 13.3466 6.18292C13.3089 6.18004 13.2721 6.16954 13.2386 6.15204C13.205 6.13454 13.1753 6.11041 13.1513 6.08112C13.036 5.91716 12.8856 5.78094 12.7111 5.68234C12.5366 5.58375 12.3423 5.52525 12.1423 5.51111C11.6823 5.54011 11.3493 6.02112 11.2233 6.20212C11.1846 6.27443 11.1245 6.33308 11.0513 6.37012C11.024 6.38188 10.995 6.38931 10.9653 6.39212Z" fill="#1E58AC"/>
<path d="M5.97313 6.84232C5.91606 6.84747 5.85878 6.83498 5.80903 6.80655C5.75927 6.77812 5.71945 6.73511 5.69492 6.68332C5.67039 6.63153 5.66234 6.57348 5.67186 6.51697C5.68137 6.46046 5.708 6.40824 5.74814 6.36734L5.77213 6.33234C5.91394 6.08819 6.10779 5.8783 6.33991 5.71756C6.57203 5.55682 6.83671 5.4492 7.11513 5.40234C7.39987 5.40766 7.67958 5.47841 7.93258 5.60916C8.18558 5.73991 8.40509 5.92715 8.57413 6.15634C8.60072 6.1833 8.62156 6.21534 8.6354 6.25058C8.64924 6.28582 8.65579 6.32352 8.65465 6.36136C8.65352 6.3992 8.64472 6.43642 8.62879 6.47076C8.61286 6.50511 8.59012 6.53585 8.56197 6.56116C8.53382 6.58647 8.50083 6.60581 8.46499 6.61801C8.42915 6.63021 8.39121 6.63502 8.35346 6.63214C8.31571 6.62926 8.27894 6.61872 8.24537 6.60123C8.21179 6.58373 8.18212 6.55963 8.15813 6.53033C8.04282 6.36637 7.89244 6.23015 7.71792 6.13156C7.54339 6.03297 7.3491 5.97447 7.14914 5.96033C6.69114 5.98833 6.35614 6.47034 6.23014 6.65134C6.19139 6.72365 6.13135 6.7823 6.05814 6.81934C6.03123 6.83152 6.00252 6.83926 5.97313 6.84232Z" fill="#1E58AC"/>
<path d="M5.0909 18.1534L6.85938 19.9219L18.7833 7.99793L17.0148 6.22946L5.0909 18.1534Z" fill="#E3594A"/>
<defs>
<linearGradient id="paint0_linear_566_3688" x1="9.87546" y1="20.5513" x2="9.87546" y2="-1.90161" gradientUnits="userSpaceOnUse">
<stop offset="0.011" stop-color="#25A0E6"/>
<stop offset="0.047" stop-color="#30A5E7"/>
<stop offset="0.214" stop-color="#5FBDEE"/>
<stop offset="0.381" stop-color="#86D1F4"/>
<stop offset="0.545" stop-color="#A4E1F9"/>
<stop offset="0.704" stop-color="#BAECFC"/>
<stop offset="0.858" stop-color="#C7F2FE"/>
<stop offset="1" stop-color="#CCF5FF"/>
</linearGradient>
</defs>
</svg>
