<svg width="19" height="18" viewBox="0 0 19 18" fill="none" xmlns="http://www.w3.org/2000/svg">
    <path d="M12.3042 2.38672H16.1616V6.2441M8.44683 10.1015L15.8861 2.66225M13.9574 7.89726V14.2344C13.9574 14.4153 13.9217 14.5944 13.8525 14.7616C13.7833 14.9287 13.6818 15.0806 13.5539 15.2085C13.4259 15.3365 13.2741 15.4379 13.1069 15.5072C12.9398 15.5764 12.7606 15.612 12.5797 15.612H4.31392C3.94854 15.612 3.59814 15.4669 3.33978 15.2085C3.08142 14.9502 2.93628 14.5998 2.93628 14.2344V5.96857C2.93628 5.6032 3.08142 5.25279 3.33978 4.99444C3.59814 4.73608 3.94854 4.59094 4.31392 4.59094H10.0821L13.9574 7.89726Z" stroke="white" stroke-width="1.65316" stroke-linecap="round" stroke-linejoin="round"/>
</svg>
