<svg width="36" height="36" viewBox="0 0 36 36" fill="none" xmlns="http://www.w3.org/2000/svg">
    <path d="M24.3642 24.3079L24.364 24.3078C22.5801 23.1629 20.3186 22.5317 17.9968 22.5317C15.6749 22.5317 13.4134 23.1629 11.6296 24.3078L11.6294 24.3079C10.7574 24.8586 9.99039 25.56 9.36401 26.3793L9.33608 26.3579L9.36423 26.379C9.33644 26.4162 9.3008 26.4467 9.25986 26.4686C9.21892 26.4905 9.17368 26.503 9.12733 26.5055C9.08099 26.5079 9.03468 26.5001 8.99169 26.4826L24.3642 24.3079ZM24.3642 24.3079C25.2361 24.8588 26.0031 25.5604 26.6294 26.3798M24.3642 24.3079L26.6575 26.3586M27.1149 26.405C29.2331 24.1176 30.4087 21.1143 30.4063 17.9968C30.4063 11.144 24.8305 5.57027 17.9664 5.58719C11.1022 5.60412 5.47227 11.3469 5.5872 18.2083C5.63761 21.2524 6.8096 24.1708 8.87857 26.4043L27.0892 26.3811M27.1149 26.405L27.0892 26.3811M27.1149 26.405C27.115 26.405 27.115 26.405 27.115 26.405L27.0892 26.3811M27.1149 26.405C27.0834 26.4391 27.0448 26.4658 27.0018 26.4833C26.9589 26.5008 26.9125 26.5086 26.8662 26.5062C26.8199 26.5037 26.7746 26.4912 26.7337 26.4693C26.6928 26.4475 26.6572 26.4169 26.6294 26.3798M27.0892 26.3811C27.0611 26.4114 27.0268 26.4352 26.9886 26.4507C26.9504 26.4663 26.9092 26.4732 26.868 26.4711C26.8268 26.4689 26.7866 26.4577 26.7502 26.4383C26.7138 26.4189 26.6822 26.3917 26.6575 26.3586M26.6294 26.3798C26.6294 26.3799 26.6295 26.3799 26.6295 26.38L26.6575 26.3586M26.6294 26.3798C26.6294 26.3798 26.6293 26.3797 26.6293 26.3797L26.6575 26.3586M17.7934 32.5859C9.92441 32.4765 3.51703 26.0691 3.4076 18.2002L18.2002 3.4076C26.0691 3.51703 32.4765 9.9244 32.5845 17.7948C32.6968 25.9997 25.9997 32.6982 17.7934 32.5859ZM3.4076 18.2002C3.29679 9.9952 9.9952 3.29679 18.2002 3.4076L3.4076 18.2002Z" fill="url(#paint0_linear)" stroke="url(#paint1_linear)" stroke-width="0.0703092"/>
    <path d="M17.999 10.1172C16.6125 10.1172 15.3589 10.6368 14.4681 11.581C13.5772 12.5253 13.1322 13.8309 13.2327 15.2322C13.4366 17.9918 15.5747 20.2417 17.999 20.2417C20.4232 20.2417 22.5571 17.9918 22.7652 15.2329C22.8693 13.845 22.4278 12.5513 21.5222 11.5895C20.6278 10.6403 19.3763 10.1172 17.999 10.1172Z" fill="url(#paint2_linear)"/>
    <defs>
    <linearGradient id="paint0_linear" x1="35.1426" y1="17.9968" x2="0.681455" y2="17.9968" gradientUnits="userSpaceOnUse">
    <stop stop-color="#35E4E9"/>
    <stop offset="1" stop-color="#00ADE6"/>
    </linearGradient>
    <linearGradient id="paint1_linear" x1="35.1426" y1="17.9968" x2="0.681455" y2="17.9968" gradientUnits="userSpaceOnUse">
    <stop stop-color="#35E4E9"/>
    <stop offset="1" stop-color="#00ADE6"/>
    </linearGradient>
    <linearGradient id="paint2_linear" x1="23.6045" y1="15.1795" x2="12.3395" y2="15.1795" gradientUnits="userSpaceOnUse">
    <stop stop-color="#35E4E9"/>
    <stop offset="1" stop-color="#00ADE6"/>
    </linearGradient>
    </defs>
</svg>
