<svg width="16" height="15" viewBox="0 0 16 15" fill="none" xmlns="http://www.w3.org/2000/svg">
    <path d="M4.50696 8.76099C5.24781 8.76099 5.84839 8.16041 5.84839 7.41956C5.84839 6.6787 5.24781 6.07812 4.50696 6.07812C3.76611 6.07812 3.16553 6.6787 3.16553 7.41956C3.16553 8.16041 3.76611 8.76099 4.50696 8.76099Z" stroke="#00ADE6" stroke-width="2.01205" stroke-linecap="round" stroke-linejoin="round"/>
    <path d="M11.6632 4.7395C12.4041 4.7395 13.0046 4.13892 13.0046 3.39807C13.0046 2.65722 12.4041 2.05664 11.6632 2.05664C10.9224 2.05664 10.3218 2.65722 10.3218 3.39807C10.3218 4.13892 10.9224 4.7395 11.6632 4.7395Z" stroke="#00ADE6" stroke-width="2.01205" stroke-linecap="round" stroke-linejoin="round"/>
    <path d="M11.6632 12.7869C12.4041 12.7869 13.0046 12.1863 13.0046 11.4454C13.0046 10.7046 12.4041 10.104 11.6632 10.104C10.9224 10.104 10.3218 10.7046 10.3218 11.4454C10.3218 12.1863 10.9224 12.7869 11.6632 12.7869Z" stroke="#00ADE6" stroke-width="2.01205" stroke-linecap="round" stroke-linejoin="round"/>
    <path d="M10.4926 4.05469L5.67627 6.76382M5.67627 8.07898L10.4926 10.7881L5.67627 8.07898Z" stroke="#00ADE6" stroke-width="2.01205" stroke-linecap="round" stroke-linejoin="round"/>
</svg>
