<svg width="22" height="20" viewBox="0 0 22 20" fill="none">
<path d="M1.46533 12.8791H20.5083V1.41602H1.46533V12.8791Z" stroke="currentColor" stroke-width="0.876721" stroke-miterlimit="10"/>
<path d="M10.4928 6.685C10.4928 8.04638 9.38688 9.15222 8.02557 9.15222C6.66419 9.15222 5.55835 8.0463 5.55835 6.685C5.55835 5.32369 6.66427 4.21777 8.02557 4.21777C9.42934 4.21777 10.4928 5.32392 10.4928 6.685Z" fill="currentColor"/>
<g clip-path="url(#clip0_12543_158006)">
<path d="M12.1093 10.7261L16.661 5.87676L15.6827 4.94092L11.8544 8.9396C11.8544 8.9396 10.8334 9.83305 9.94025 9.83305H6.19681C4.49542 9.83305 3.09158 11.2368 3.09158 12.9383V19.1914H4.45296L4.45266 14.0017C4.45266 13.8741 4.53783 13.7466 4.70785 13.7466C4.83544 13.7466 4.96303 13.8317 4.96303 14.0017V26.1677H7.55787V19.7445C7.55787 19.4893 7.77063 19.2341 8.06824 19.2341C8.32343 19.2341 8.57861 19.4469 8.57861 19.7445V26.2104H11.2586V14.0444C11.2162 12.4279 11.6413 11.2368 12.1093 10.7261Z" fill="currentColor"/>
</g>
<defs>
<clipPath id="clip0_12543_158006">
<rect width="15.4929" height="15.4929" fill="white" transform="translate(2.27075 3.69995)"/>
</clipPath>
</defs>
</svg>
