<svg width="928" height="536" viewBox="0 0 928 536" fill="none" xmlns="http://www.w3.org/2000/svg">
<g clip-path="url(#clip0_17141_180433)">
<rect width="928" height="536" rx="8" fill="white"/>
<circle cx="497" cy="21" r="1" fill="#9FD9D1"/>
<circle cx="523" cy="21" r="1" fill="#9FD9D1"/>
<circle cx="549" cy="21" r="1" fill="#9FD9D1"/>
<circle cx="575" cy="21" r="1" fill="#9FD9D1"/>
<circle cx="601" cy="21" r="1" fill="#9FD9D1"/>
<circle cx="627" cy="21" r="1" fill="#9FD9D1"/>
<circle cx="653" cy="21" r="1" fill="#9FD9D1"/>
<circle cx="679" cy="21" r="1" fill="#9FD9D1"/>
<circle cx="705" cy="21" r="1" fill="#9FD9D1"/>
<circle cx="731" cy="21" r="1" fill="#9FD9D1"/>
<circle cx="757" cy="21" r="1" fill="#9FD9D1"/>
<circle cx="783" cy="21" r="1" fill="#9FD9D1"/>
<circle cx="809" cy="21" r="1" fill="#9FD9D1"/>
<circle cx="835" cy="21" r="1" fill="#9FD9D1"/>
<circle cx="861" cy="21" r="1" fill="#9FD9D1"/>
<circle cx="887" cy="21" r="1" fill="#9FD9D1"/>
<circle cx="913" cy="21" r="1" fill="#9FD9D1"/>
<circle cx="7" cy="21" r="1" fill="#9FD9D1"/>
<circle cx="33" cy="21" r="1" fill="#9FD9D1"/>
<circle cx="59" cy="21" r="1" fill="#9FD9D1"/>
<circle cx="85" cy="21" r="1" fill="#9FD9D1"/>
<circle cx="111" cy="21" r="1" fill="#9FD9D1"/>
<circle cx="137" cy="21" r="1" fill="#9FD9D1"/>
<circle cx="163" cy="21" r="1" fill="#9FD9D1"/>
<circle cx="189" cy="21" r="1" fill="#9FD9D1"/>
<circle cx="215" cy="21" r="1" fill="#9FD9D1"/>
<circle cx="241" cy="21" r="1" fill="#9FD9D1"/>
<circle cx="267" cy="21" r="1" fill="#9FD9D1"/>
<circle cx="293" cy="21" r="1" fill="#9FD9D1"/>
<circle cx="319" cy="21" r="1" fill="#9FD9D1"/>
<circle cx="345" cy="21" r="1" fill="#9FD9D1"/>
<circle cx="371" cy="21" r="1" fill="#9FD9D1"/>
<circle cx="397" cy="21" r="1" fill="#9FD9D1"/>
<circle cx="423" cy="21" r="1" fill="#9FD9D1"/>
<circle cx="449" cy="21" r="1" fill="#9FD9D1"/>
<circle cx="475" cy="21" r="1" fill="#9FD9D1"/>
<circle cx="497" cy="47" r="1" fill="#9FD9D1"/>
<circle cx="523" cy="47" r="1" fill="#9FD9D1"/>
<circle cx="549" cy="47" r="1" fill="#9FD9D1"/>
<circle cx="575" cy="47" r="1" fill="#9FD9D1"/>
<circle cx="601" cy="47" r="1" fill="#9FD9D1"/>
<circle cx="627" cy="47" r="1" fill="#9FD9D1"/>
<circle cx="653" cy="47" r="1" fill="#9FD9D1"/>
<circle cx="679" cy="47" r="1" fill="#9FD9D1"/>
<circle cx="705" cy="47" r="1" fill="#9FD9D1"/>
<circle cx="731" cy="47" r="1" fill="#9FD9D1"/>
<circle cx="757" cy="47" r="1" fill="#9FD9D1"/>
<circle cx="783" cy="47" r="1" fill="#9FD9D1"/>
<circle cx="809" cy="47" r="1" fill="#9FD9D1"/>
<circle cx="835" cy="47" r="1" fill="#9FD9D1"/>
<circle cx="861" cy="47" r="1" fill="#9FD9D1"/>
<circle cx="887" cy="47" r="1" fill="#9FD9D1"/>
<circle cx="913" cy="47" r="1" fill="#9FD9D1"/>
<circle cx="7" cy="47" r="1" fill="#9FD9D1"/>
<circle cx="33" cy="47" r="1" fill="#9FD9D1"/>
<circle cx="59" cy="47" r="1" fill="#9FD9D1"/>
<circle cx="85" cy="47" r="1" fill="#9FD9D1"/>
<circle cx="111" cy="47" r="1" fill="#9FD9D1"/>
<circle cx="137" cy="47" r="1" fill="#9FD9D1"/>
<circle cx="163" cy="47" r="1" fill="#9FD9D1"/>
<circle cx="189" cy="47" r="1" fill="#9FD9D1"/>
<circle cx="215" cy="47" r="1" fill="#9FD9D1"/>
<circle cx="241" cy="47" r="1" fill="#9FD9D1"/>
<circle cx="267" cy="47" r="1" fill="#9FD9D1"/>
<circle cx="293" cy="47" r="1" fill="#9FD9D1"/>
<circle cx="319" cy="47" r="1" fill="#9FD9D1"/>
<circle cx="345" cy="47" r="1" fill="#9FD9D1"/>
<circle cx="371" cy="47" r="1" fill="#9FD9D1"/>
<circle cx="397" cy="47" r="1" fill="#9FD9D1"/>
<circle cx="423" cy="47" r="1" fill="#9FD9D1"/>
<circle cx="449" cy="47" r="1" fill="#9FD9D1"/>
<circle cx="475" cy="47" r="1" fill="#9FD9D1"/>
<circle cx="497" cy="73" r="1" fill="#9FD9D1"/>
<circle cx="523" cy="73" r="1" fill="#9FD9D1"/>
<circle cx="549" cy="73" r="1" fill="#9FD9D1"/>
<circle cx="575" cy="73" r="1" fill="#9FD9D1"/>
<circle cx="601" cy="73" r="1" fill="#9FD9D1"/>
<circle cx="627" cy="73" r="1" fill="#9FD9D1"/>
<circle cx="653" cy="73" r="1" fill="#9FD9D1"/>
<circle cx="679" cy="73" r="1" fill="#9FD9D1"/>
<circle cx="705" cy="73" r="1" fill="#9FD9D1"/>
<circle cx="731" cy="73" r="1" fill="#9FD9D1"/>
<circle cx="757" cy="73" r="1" fill="#9FD9D1"/>
<circle cx="783" cy="73" r="1" fill="#9FD9D1"/>
<circle cx="809" cy="73" r="1" fill="#9FD9D1"/>
<circle cx="835" cy="73" r="1" fill="#9FD9D1"/>
<circle cx="861" cy="73" r="1" fill="#9FD9D1"/>
<circle cx="887" cy="73" r="1" fill="#9FD9D1"/>
<circle cx="913" cy="73" r="1" fill="#9FD9D1"/>
<circle cx="7" cy="73" r="1" fill="#9FD9D1"/>
<circle cx="33" cy="73" r="1" fill="#9FD9D1"/>
<circle cx="59" cy="73" r="1" fill="#9FD9D1"/>
<circle cx="85" cy="73" r="1" fill="#9FD9D1"/>
<circle cx="111" cy="73" r="1" fill="#9FD9D1"/>
<circle cx="137" cy="73" r="1" fill="#9FD9D1"/>
<circle cx="163" cy="73" r="1" fill="#9FD9D1"/>
<circle cx="189" cy="73" r="1" fill="#9FD9D1"/>
<circle cx="215" cy="73" r="1" fill="#9FD9D1"/>
<circle cx="241" cy="73" r="1" fill="#9FD9D1"/>
<circle cx="267" cy="73" r="1" fill="#9FD9D1"/>
<circle cx="293" cy="73" r="1" fill="#9FD9D1"/>
<circle cx="319" cy="73" r="1" fill="#9FD9D1"/>
<circle cx="345" cy="73" r="1" fill="#9FD9D1"/>
<circle cx="371" cy="73" r="1" fill="#9FD9D1"/>
<circle cx="397" cy="73" r="1" fill="#9FD9D1"/>
<circle cx="423" cy="73" r="1" fill="#9FD9D1"/>
<circle cx="449" cy="73" r="1" fill="#9FD9D1"/>
<circle cx="475" cy="73" r="1" fill="#9FD9D1"/>
<circle cx="497" cy="99" r="1" fill="#9FD9D1"/>
<circle cx="523" cy="99" r="1" fill="#9FD9D1"/>
<circle cx="549" cy="99" r="1" fill="#9FD9D1"/>
<circle cx="575" cy="99" r="1" fill="#9FD9D1"/>
<circle cx="601" cy="99" r="1" fill="#9FD9D1"/>
<circle cx="627" cy="99" r="1" fill="#9FD9D1"/>
<circle cx="653" cy="99" r="1" fill="#9FD9D1"/>
<circle cx="679" cy="99" r="1" fill="#9FD9D1"/>
<circle cx="705" cy="99" r="1" fill="#9FD9D1"/>
<circle cx="731" cy="99" r="1" fill="#9FD9D1"/>
<circle cx="757" cy="99" r="1" fill="#9FD9D1"/>
<circle cx="783" cy="99" r="1" fill="#9FD9D1"/>
<circle cx="809" cy="99" r="1" fill="#9FD9D1"/>
<circle cx="835" cy="99" r="1" fill="#9FD9D1"/>
<circle cx="861" cy="99" r="1" fill="#9FD9D1"/>
<circle cx="887" cy="99" r="1" fill="#9FD9D1"/>
<circle cx="913" cy="99" r="1" fill="#9FD9D1"/>
<circle cx="7" cy="99" r="1" fill="#9FD9D1"/>
<circle cx="33" cy="99" r="1" fill="#9FD9D1"/>
<circle cx="59" cy="99" r="1" fill="#9FD9D1"/>
<circle cx="85" cy="99" r="1" fill="#9FD9D1"/>
<circle cx="111" cy="99" r="1" fill="#9FD9D1"/>
<circle cx="137" cy="99" r="1" fill="#9FD9D1"/>
<circle cx="163" cy="99" r="1" fill="#9FD9D1"/>
<circle cx="189" cy="99" r="1" fill="#9FD9D1"/>
<circle cx="215" cy="99" r="1" fill="#9FD9D1"/>
<circle cx="241" cy="99" r="1" fill="#9FD9D1"/>
<circle cx="267" cy="99" r="1" fill="#9FD9D1"/>
<circle cx="293" cy="99" r="1" fill="#9FD9D1"/>
<circle cx="319" cy="99" r="1" fill="#9FD9D1"/>
<circle cx="345" cy="99" r="1" fill="#9FD9D1"/>
<circle cx="371" cy="99" r="1" fill="#9FD9D1"/>
<circle cx="397" cy="99" r="1" fill="#9FD9D1"/>
<circle cx="423" cy="99" r="1" fill="#9FD9D1"/>
<circle cx="449" cy="99" r="1" fill="#9FD9D1"/>
<circle cx="475" cy="99" r="1" fill="#9FD9D1"/>
<circle cx="497" cy="125" r="1" fill="#9FD9D1"/>
<circle cx="523" cy="125" r="1" fill="#9FD9D1"/>
<circle cx="549" cy="125" r="1" fill="#9FD9D1"/>
<circle cx="575" cy="125" r="1" fill="#9FD9D1"/>
<circle cx="601" cy="125" r="1" fill="#9FD9D1"/>
<circle cx="627" cy="125" r="1" fill="#9FD9D1"/>
<circle cx="653" cy="125" r="1" fill="#9FD9D1"/>
<circle cx="679" cy="125" r="1" fill="#9FD9D1"/>
<circle cx="705" cy="125" r="1" fill="#9FD9D1"/>
<circle cx="731" cy="125" r="1" fill="#9FD9D1"/>
<circle cx="757" cy="125" r="1" fill="#9FD9D1"/>
<circle cx="783" cy="125" r="1" fill="#9FD9D1"/>
<circle cx="809" cy="125" r="1" fill="#9FD9D1"/>
<circle cx="835" cy="125" r="1" fill="#9FD9D1"/>
<circle cx="861" cy="125" r="1" fill="#9FD9D1"/>
<circle cx="887" cy="125" r="1" fill="#9FD9D1"/>
<circle cx="913" cy="125" r="1" fill="#9FD9D1"/>
<circle cx="7" cy="125" r="1" fill="#9FD9D1"/>
<circle cx="33" cy="125" r="1" fill="#9FD9D1"/>
<circle cx="59" cy="125" r="1" fill="#9FD9D1"/>
<circle cx="85" cy="125" r="1" fill="#9FD9D1"/>
<circle cx="111" cy="125" r="1" fill="#9FD9D1"/>
<circle cx="137" cy="125" r="1" fill="#9FD9D1"/>
<circle cx="163" cy="125" r="1" fill="#9FD9D1"/>
<circle cx="189" cy="125" r="1" fill="#9FD9D1"/>
<circle cx="215" cy="125" r="1" fill="#9FD9D1"/>
<circle cx="241" cy="125" r="1" fill="#9FD9D1"/>
<circle cx="267" cy="125" r="1" fill="#9FD9D1"/>
<circle cx="293" cy="125" r="1" fill="#9FD9D1"/>
<circle cx="319" cy="125" r="1" fill="#9FD9D1"/>
<circle cx="345" cy="125" r="1" fill="#9FD9D1"/>
<circle cx="371" cy="125" r="1" fill="#9FD9D1"/>
<circle cx="397" cy="125" r="1" fill="#9FD9D1"/>
<circle cx="423" cy="125" r="1" fill="#9FD9D1"/>
<circle cx="449" cy="125" r="1" fill="#9FD9D1"/>
<circle cx="475" cy="125" r="1" fill="#9FD9D1"/>
<circle cx="497" cy="151" r="1" fill="#9FD9D1"/>
<circle cx="523" cy="151" r="1" fill="#9FD9D1"/>
<circle cx="549" cy="151" r="1" fill="#9FD9D1"/>
<circle cx="575" cy="151" r="1" fill="#9FD9D1"/>
<circle cx="601" cy="151" r="1" fill="#9FD9D1"/>
<circle cx="627" cy="151" r="1" fill="#9FD9D1"/>
<circle cx="653" cy="151" r="1" fill="#9FD9D1"/>
<circle cx="679" cy="151" r="1" fill="#9FD9D1"/>
<circle cx="705" cy="151" r="1" fill="#9FD9D1"/>
<circle cx="731" cy="151" r="1" fill="#9FD9D1"/>
<circle cx="757" cy="151" r="1" fill="#9FD9D1"/>
<circle cx="783" cy="151" r="1" fill="#9FD9D1"/>
<circle cx="809" cy="151" r="1" fill="#9FD9D1"/>
<circle cx="835" cy="151" r="1" fill="#9FD9D1"/>
<circle cx="861" cy="151" r="1" fill="#9FD9D1"/>
<circle cx="887" cy="151" r="1" fill="#9FD9D1"/>
<circle cx="913" cy="151" r="1" fill="#9FD9D1"/>
<circle cx="7" cy="151" r="1" fill="#9FD9D1"/>
<circle cx="33" cy="151" r="1" fill="#9FD9D1"/>
<circle cx="59" cy="151" r="1" fill="#9FD9D1"/>
<circle cx="85" cy="151" r="1" fill="#9FD9D1"/>
<circle cx="111" cy="151" r="1" fill="#9FD9D1"/>
<circle cx="137" cy="151" r="1" fill="#9FD9D1"/>
<circle cx="163" cy="151" r="1" fill="#9FD9D1"/>
<circle cx="189" cy="151" r="1" fill="#9FD9D1"/>
<circle cx="215" cy="151" r="1" fill="#9FD9D1"/>
<circle cx="241" cy="151" r="1" fill="#9FD9D1"/>
<circle cx="267" cy="151" r="1" fill="#9FD9D1"/>
<circle cx="293" cy="151" r="1" fill="#9FD9D1"/>
<circle cx="319" cy="151" r="1" fill="#9FD9D1"/>
<circle cx="345" cy="151" r="1" fill="#9FD9D1"/>
<circle cx="371" cy="151" r="1" fill="#9FD9D1"/>
<circle cx="397" cy="151" r="1" fill="#9FD9D1"/>
<circle cx="423" cy="151" r="1" fill="#9FD9D1"/>
<circle cx="449" cy="151" r="1" fill="#9FD9D1"/>
<circle cx="475" cy="151" r="1" fill="#9FD9D1"/>
<circle cx="497" cy="177" r="1" fill="#9FD9D1"/>
<circle cx="523" cy="177" r="1" fill="#9FD9D1"/>
<circle cx="549" cy="177" r="1" fill="#9FD9D1"/>
<circle cx="575" cy="177" r="1" fill="#9FD9D1"/>
<circle cx="601" cy="177" r="1" fill="#9FD9D1"/>
<circle cx="627" cy="177" r="1" fill="#9FD9D1"/>
<circle cx="653" cy="177" r="1" fill="#9FD9D1"/>
<circle cx="679" cy="177" r="1" fill="#9FD9D1"/>
<circle cx="705" cy="177" r="1" fill="#9FD9D1"/>
<circle cx="731" cy="177" r="1" fill="#9FD9D1"/>
<circle cx="757" cy="177" r="1" fill="#9FD9D1"/>
<circle cx="783" cy="177" r="1" fill="#9FD9D1"/>
<circle cx="809" cy="177" r="1" fill="#9FD9D1"/>
<circle cx="835" cy="177" r="1" fill="#9FD9D1"/>
<circle cx="861" cy="177" r="1" fill="#9FD9D1"/>
<circle cx="887" cy="177" r="1" fill="#9FD9D1"/>
<circle cx="913" cy="177" r="1" fill="#9FD9D1"/>
<circle cx="7" cy="177" r="1" fill="#9FD9D1"/>
<circle cx="33" cy="177" r="1" fill="#9FD9D1"/>
<circle cx="59" cy="177" r="1" fill="#9FD9D1"/>
<circle cx="85" cy="177" r="1" fill="#9FD9D1"/>
<circle cx="111" cy="177" r="1" fill="#9FD9D1"/>
<circle cx="137" cy="177" r="1" fill="#9FD9D1"/>
<circle cx="163" cy="177" r="1" fill="#9FD9D1"/>
<circle cx="189" cy="177" r="1" fill="#9FD9D1"/>
<circle cx="215" cy="177" r="1" fill="#9FD9D1"/>
<circle cx="241" cy="177" r="1" fill="#9FD9D1"/>
<circle cx="267" cy="177" r="1" fill="#9FD9D1"/>
<circle cx="293" cy="177" r="1" fill="#9FD9D1"/>
<circle cx="319" cy="177" r="1" fill="#9FD9D1"/>
<circle cx="345" cy="177" r="1" fill="#9FD9D1"/>
<circle cx="371" cy="177" r="1" fill="#9FD9D1"/>
<circle cx="397" cy="177" r="1" fill="#9FD9D1"/>
<circle cx="423" cy="177" r="1" fill="#9FD9D1"/>
<circle cx="449" cy="177" r="1" fill="#9FD9D1"/>
<circle cx="475" cy="177" r="1" fill="#9FD9D1"/>
<circle cx="497" cy="203" r="1" fill="#9FD9D1"/>
<circle cx="523" cy="203" r="1" fill="#9FD9D1"/>
<circle cx="549" cy="203" r="1" fill="#9FD9D1"/>
<circle cx="575" cy="203" r="1" fill="#9FD9D1"/>
<circle cx="601" cy="203" r="1" fill="#9FD9D1"/>
<circle cx="627" cy="203" r="1" fill="#9FD9D1"/>
<circle cx="653" cy="203" r="1" fill="#9FD9D1"/>
<circle cx="679" cy="203" r="1" fill="#9FD9D1"/>
<circle cx="705" cy="203" r="1" fill="#9FD9D1"/>
<circle cx="731" cy="203" r="1" fill="#9FD9D1"/>
<circle cx="757" cy="203" r="1" fill="#9FD9D1"/>
<circle cx="783" cy="203" r="1" fill="#9FD9D1"/>
<circle cx="809" cy="203" r="1" fill="#9FD9D1"/>
<circle cx="835" cy="203" r="1" fill="#9FD9D1"/>
<circle cx="861" cy="203" r="1" fill="#9FD9D1"/>
<circle cx="887" cy="203" r="1" fill="#9FD9D1"/>
<circle cx="913" cy="203" r="1" fill="#9FD9D1"/>
<circle cx="7" cy="203" r="1" fill="#9FD9D1"/>
<circle cx="33" cy="203" r="1" fill="#9FD9D1"/>
<circle cx="59" cy="203" r="1" fill="#9FD9D1"/>
<circle cx="85" cy="203" r="1" fill="#9FD9D1"/>
<circle cx="111" cy="203" r="1" fill="#9FD9D1"/>
<circle cx="137" cy="203" r="1" fill="#9FD9D1"/>
<circle cx="163" cy="203" r="1" fill="#9FD9D1"/>
<circle cx="189" cy="203" r="1" fill="#9FD9D1"/>
<circle cx="215" cy="203" r="1" fill="#9FD9D1"/>
<circle cx="241" cy="203" r="1" fill="#9FD9D1"/>
<circle cx="267" cy="203" r="1" fill="#9FD9D1"/>
<circle cx="293" cy="203" r="1" fill="#9FD9D1"/>
<circle cx="319" cy="203" r="1" fill="#9FD9D1"/>
<circle cx="345" cy="203" r="1" fill="#9FD9D1"/>
<circle cx="371" cy="203" r="1" fill="#9FD9D1"/>
<circle cx="397" cy="203" r="1" fill="#9FD9D1"/>
<circle cx="423" cy="203" r="1" fill="#9FD9D1"/>
<circle cx="449" cy="203" r="1" fill="#9FD9D1"/>
<circle cx="475" cy="203" r="1" fill="#9FD9D1"/>
<circle cx="497" cy="229" r="1" fill="#9FD9D1"/>
<circle cx="523" cy="229" r="1" fill="#9FD9D1"/>
<circle cx="549" cy="229" r="1" fill="#9FD9D1"/>
<circle cx="575" cy="229" r="1" fill="#9FD9D1"/>
<circle cx="601" cy="229" r="1" fill="#9FD9D1"/>
<circle cx="627" cy="229" r="1" fill="#9FD9D1"/>
<circle cx="653" cy="229" r="1" fill="#9FD9D1"/>
<circle cx="679" cy="229" r="1" fill="#9FD9D1"/>
<circle cx="705" cy="229" r="1" fill="#9FD9D1"/>
<circle cx="731" cy="229" r="1" fill="#9FD9D1"/>
<circle cx="757" cy="229" r="1" fill="#9FD9D1"/>
<circle cx="783" cy="229" r="1" fill="#9FD9D1"/>
<circle cx="809" cy="229" r="1" fill="#9FD9D1"/>
<circle cx="835" cy="229" r="1" fill="#9FD9D1"/>
<circle cx="861" cy="229" r="1" fill="#9FD9D1"/>
<circle cx="887" cy="229" r="1" fill="#9FD9D1"/>
<circle cx="913" cy="229" r="1" fill="#9FD9D1"/>
<circle cx="7" cy="229" r="1" fill="#9FD9D1"/>
<circle cx="33" cy="229" r="1" fill="#9FD9D1"/>
<circle cx="59" cy="229" r="1" fill="#9FD9D1"/>
<circle cx="85" cy="229" r="1" fill="#9FD9D1"/>
<circle cx="111" cy="229" r="1" fill="#9FD9D1"/>
<circle cx="137" cy="229" r="1" fill="#9FD9D1"/>
<circle cx="163" cy="229" r="1" fill="#9FD9D1"/>
<circle cx="189" cy="229" r="1" fill="#9FD9D1"/>
<circle cx="215" cy="229" r="1" fill="#9FD9D1"/>
<circle cx="241" cy="229" r="1" fill="#9FD9D1"/>
<circle cx="267" cy="229" r="1" fill="#9FD9D1"/>
<circle cx="293" cy="229" r="1" fill="#9FD9D1"/>
<circle cx="319" cy="229" r="1" fill="#9FD9D1"/>
<circle cx="345" cy="229" r="1" fill="#9FD9D1"/>
<circle cx="371" cy="229" r="1" fill="#9FD9D1"/>
<circle cx="397" cy="229" r="1" fill="#9FD9D1"/>
<circle cx="423" cy="229" r="1" fill="#9FD9D1"/>
<circle cx="449" cy="229" r="1" fill="#9FD9D1"/>
<circle cx="475" cy="229" r="1" fill="#9FD9D1"/>
<circle cx="497" cy="255" r="1" fill="#9FD9D1"/>
<circle cx="523" cy="255" r="1" fill="#9FD9D1"/>
<circle cx="549" cy="255" r="1" fill="#9FD9D1"/>
<circle cx="575" cy="255" r="1" fill="#9FD9D1"/>
<circle cx="601" cy="255" r="1" fill="#9FD9D1"/>
<circle cx="627" cy="255" r="1" fill="#9FD9D1"/>
<circle cx="653" cy="255" r="1" fill="#9FD9D1"/>
<circle cx="679" cy="255" r="1" fill="#9FD9D1"/>
<circle cx="705" cy="255" r="1" fill="#9FD9D1"/>
<circle cx="731" cy="255" r="1" fill="#9FD9D1"/>
<circle cx="757" cy="255" r="1" fill="#9FD9D1"/>
<circle cx="783" cy="255" r="1" fill="#9FD9D1"/>
<circle cx="809" cy="255" r="1" fill="#9FD9D1"/>
<circle cx="835" cy="255" r="1" fill="#9FD9D1"/>
<circle cx="861" cy="255" r="1" fill="#9FD9D1"/>
<circle cx="887" cy="255" r="1" fill="#9FD9D1"/>
<circle cx="913" cy="255" r="1" fill="#9FD9D1"/>
<circle cx="7" cy="255" r="1" fill="#9FD9D1"/>
<circle cx="33" cy="255" r="1" fill="#9FD9D1"/>
<circle cx="59" cy="255" r="1" fill="#9FD9D1"/>
<circle cx="85" cy="255" r="1" fill="#9FD9D1"/>
<circle cx="111" cy="255" r="1" fill="#9FD9D1"/>
<circle cx="137" cy="255" r="1" fill="#9FD9D1"/>
<circle cx="163" cy="255" r="1" fill="#9FD9D1"/>
<circle cx="189" cy="255" r="1" fill="#9FD9D1"/>
<circle cx="215" cy="255" r="1" fill="#9FD9D1"/>
<circle cx="241" cy="255" r="1" fill="#9FD9D1"/>
<circle cx="267" cy="255" r="1" fill="#9FD9D1"/>
<circle cx="293" cy="255" r="1" fill="#9FD9D1"/>
<circle cx="319" cy="255" r="1" fill="#9FD9D1"/>
<circle cx="345" cy="255" r="1" fill="#9FD9D1"/>
<circle cx="371" cy="255" r="1" fill="#9FD9D1"/>
<circle cx="397" cy="255" r="1" fill="#9FD9D1"/>
<circle cx="423" cy="255" r="1" fill="#9FD9D1"/>
<circle cx="449" cy="255" r="1" fill="#9FD9D1"/>
<circle cx="475" cy="255" r="1" fill="#9FD9D1"/>
<circle cx="497" cy="281" r="1" fill="#9FD9D1"/>
<circle cx="523" cy="281" r="1" fill="#9FD9D1"/>
<circle cx="549" cy="281" r="1" fill="#9FD9D1"/>
<circle cx="575" cy="281" r="1" fill="#9FD9D1"/>
<circle cx="601" cy="281" r="1" fill="#9FD9D1"/>
<circle cx="627" cy="281" r="1" fill="#9FD9D1"/>
<circle cx="653" cy="281" r="1" fill="#9FD9D1"/>
<circle cx="679" cy="281" r="1" fill="#9FD9D1"/>
<circle cx="705" cy="281" r="1" fill="#9FD9D1"/>
<circle cx="731" cy="281" r="1" fill="#9FD9D1"/>
<circle cx="757" cy="281" r="1" fill="#9FD9D1"/>
<circle cx="783" cy="281" r="1" fill="#9FD9D1"/>
<circle cx="809" cy="281" r="1" fill="#9FD9D1"/>
<circle cx="835" cy="281" r="1" fill="#9FD9D1"/>
<circle cx="861" cy="281" r="1" fill="#9FD9D1"/>
<circle cx="887" cy="281" r="1" fill="#9FD9D1"/>
<circle cx="913" cy="281" r="1" fill="#9FD9D1"/>
<circle cx="7" cy="281" r="1" fill="#9FD9D1"/>
<circle cx="33" cy="281" r="1" fill="#9FD9D1"/>
<circle cx="59" cy="281" r="1" fill="#9FD9D1"/>
<circle cx="85" cy="281" r="1" fill="#9FD9D1"/>
<circle cx="111" cy="281" r="1" fill="#9FD9D1"/>
<circle cx="137" cy="281" r="1" fill="#9FD9D1"/>
<circle cx="163" cy="281" r="1" fill="#9FD9D1"/>
<circle cx="189" cy="281" r="1" fill="#9FD9D1"/>
<circle cx="215" cy="281" r="1" fill="#9FD9D1"/>
<circle cx="241" cy="281" r="1" fill="#9FD9D1"/>
<circle cx="267" cy="281" r="1" fill="#9FD9D1"/>
<circle cx="293" cy="281" r="1" fill="#9FD9D1"/>
<circle cx="319" cy="281" r="1" fill="#9FD9D1"/>
<circle cx="345" cy="281" r="1" fill="#9FD9D1"/>
<circle cx="371" cy="281" r="1" fill="#9FD9D1"/>
<circle cx="397" cy="281" r="1" fill="#9FD9D1"/>
<circle cx="423" cy="281" r="1" fill="#9FD9D1"/>
<circle cx="449" cy="281" r="1" fill="#9FD9D1"/>
<circle cx="475" cy="281" r="1" fill="#9FD9D1"/>
<circle cx="497" cy="307" r="1" fill="#9FD9D1"/>
<circle cx="523" cy="307" r="1" fill="#9FD9D1"/>
<circle cx="549" cy="307" r="1" fill="#9FD9D1"/>
<circle cx="575" cy="307" r="1" fill="#9FD9D1"/>
<circle cx="601" cy="307" r="1" fill="#9FD9D1"/>
<circle cx="627" cy="307" r="1" fill="#9FD9D1"/>
<circle cx="653" cy="307" r="1" fill="#9FD9D1"/>
<circle cx="679" cy="307" r="1" fill="#9FD9D1"/>
<circle cx="705" cy="307" r="1" fill="#9FD9D1"/>
<circle cx="731" cy="307" r="1" fill="#9FD9D1"/>
<circle cx="757" cy="307" r="1" fill="#9FD9D1"/>
<circle cx="783" cy="307" r="1" fill="#9FD9D1"/>
<circle cx="809" cy="307" r="1" fill="#9FD9D1"/>
<circle cx="835" cy="307" r="1" fill="#9FD9D1"/>
<circle cx="861" cy="307" r="1" fill="#9FD9D1"/>
<circle cx="887" cy="307" r="1" fill="#9FD9D1"/>
<circle cx="913" cy="307" r="1" fill="#9FD9D1"/>
<circle cx="7" cy="307" r="1" fill="#9FD9D1"/>
<circle cx="33" cy="307" r="1" fill="#9FD9D1"/>
<circle cx="59" cy="307" r="1" fill="#9FD9D1"/>
<circle cx="85" cy="307" r="1" fill="#9FD9D1"/>
<circle cx="111" cy="307" r="1" fill="#9FD9D1"/>
<circle cx="137" cy="307" r="1" fill="#9FD9D1"/>
<circle cx="163" cy="307" r="1" fill="#9FD9D1"/>
<circle cx="189" cy="307" r="1" fill="#9FD9D1"/>
<circle cx="215" cy="307" r="1" fill="#9FD9D1"/>
<circle cx="241" cy="307" r="1" fill="#9FD9D1"/>
<circle cx="267" cy="307" r="1" fill="#9FD9D1"/>
<circle cx="293" cy="307" r="1" fill="#9FD9D1"/>
<circle cx="319" cy="307" r="1" fill="#9FD9D1"/>
<circle cx="345" cy="307" r="1" fill="#9FD9D1"/>
<circle cx="371" cy="307" r="1" fill="#9FD9D1"/>
<circle cx="397" cy="307" r="1" fill="#9FD9D1"/>
<circle cx="423" cy="307" r="1" fill="#9FD9D1"/>
<circle cx="449" cy="307" r="1" fill="#9FD9D1"/>
<circle cx="475" cy="307" r="1" fill="#9FD9D1"/>
<circle cx="497" cy="333" r="1" fill="#9FD9D1"/>
<circle cx="523" cy="333" r="1" fill="#9FD9D1"/>
<circle cx="549" cy="333" r="1" fill="#9FD9D1"/>
<circle cx="575" cy="333" r="1" fill="#9FD9D1"/>
<circle cx="601" cy="333" r="1" fill="#9FD9D1"/>
<circle cx="627" cy="333" r="1" fill="#9FD9D1"/>
<circle cx="653" cy="333" r="1" fill="#9FD9D1"/>
<circle cx="679" cy="333" r="1" fill="#9FD9D1"/>
<circle cx="705" cy="333" r="1" fill="#9FD9D1"/>
<circle cx="731" cy="333" r="1" fill="#9FD9D1"/>
<circle cx="757" cy="333" r="1" fill="#9FD9D1"/>
<circle cx="783" cy="333" r="1" fill="#9FD9D1"/>
<circle cx="809" cy="333" r="1" fill="#9FD9D1"/>
<circle cx="835" cy="333" r="1" fill="#9FD9D1"/>
<circle cx="861" cy="333" r="1" fill="#9FD9D1"/>
<circle cx="887" cy="333" r="1" fill="#9FD9D1"/>
<circle cx="913" cy="333" r="1" fill="#9FD9D1"/>
<circle cx="7" cy="333" r="1" fill="#9FD9D1"/>
<circle cx="33" cy="333" r="1" fill="#9FD9D1"/>
<circle cx="59" cy="333" r="1" fill="#9FD9D1"/>
<circle cx="85" cy="333" r="1" fill="#9FD9D1"/>
<circle cx="111" cy="333" r="1" fill="#9FD9D1"/>
<circle cx="137" cy="333" r="1" fill="#9FD9D1"/>
<circle cx="163" cy="333" r="1" fill="#9FD9D1"/>
<circle cx="189" cy="333" r="1" fill="#9FD9D1"/>
<circle cx="215" cy="333" r="1" fill="#9FD9D1"/>
<circle cx="241" cy="333" r="1" fill="#9FD9D1"/>
<circle cx="267" cy="333" r="1" fill="#9FD9D1"/>
<circle cx="293" cy="333" r="1" fill="#9FD9D1"/>
<circle cx="319" cy="333" r="1" fill="#9FD9D1"/>
<circle cx="345" cy="333" r="1" fill="#9FD9D1"/>
<circle cx="371" cy="333" r="1" fill="#9FD9D1"/>
<circle cx="397" cy="333" r="1" fill="#9FD9D1"/>
<circle cx="423" cy="333" r="1" fill="#9FD9D1"/>
<circle cx="449" cy="333" r="1" fill="#9FD9D1"/>
<circle cx="475" cy="333" r="1" fill="#9FD9D1"/>
<circle cx="497" cy="359" r="1" fill="#9FD9D1"/>
<circle cx="523" cy="359" r="1" fill="#9FD9D1"/>
<circle cx="549" cy="359" r="1" fill="#9FD9D1"/>
<circle cx="575" cy="359" r="1" fill="#9FD9D1"/>
<circle cx="601" cy="359" r="1" fill="#9FD9D1"/>
<circle cx="627" cy="359" r="1" fill="#9FD9D1"/>
<circle cx="653" cy="359" r="1" fill="#9FD9D1"/>
<circle cx="679" cy="359" r="1" fill="#9FD9D1"/>
<circle cx="705" cy="359" r="1" fill="#9FD9D1"/>
<circle cx="731" cy="359" r="1" fill="#9FD9D1"/>
<circle cx="757" cy="359" r="1" fill="#9FD9D1"/>
<circle cx="783" cy="359" r="1" fill="#9FD9D1"/>
<circle cx="809" cy="359" r="1" fill="#9FD9D1"/>
<circle cx="835" cy="359" r="1" fill="#9FD9D1"/>
<circle cx="861" cy="359" r="1" fill="#9FD9D1"/>
<circle cx="887" cy="359" r="1" fill="#9FD9D1"/>
<circle cx="913" cy="359" r="1" fill="#9FD9D1"/>
<circle cx="7" cy="359" r="1" fill="#9FD9D1"/>
<circle cx="33" cy="359" r="1" fill="#9FD9D1"/>
<circle cx="59" cy="359" r="1" fill="#9FD9D1"/>
<circle cx="85" cy="359" r="1" fill="#9FD9D1"/>
<circle cx="111" cy="359" r="1" fill="#9FD9D1"/>
<circle cx="137" cy="359" r="1" fill="#9FD9D1"/>
<circle cx="163" cy="359" r="1" fill="#9FD9D1"/>
<circle cx="189" cy="359" r="1" fill="#9FD9D1"/>
<circle cx="215" cy="359" r="1" fill="#9FD9D1"/>
<circle cx="241" cy="359" r="1" fill="#9FD9D1"/>
<circle cx="267" cy="359" r="1" fill="#9FD9D1"/>
<circle cx="293" cy="359" r="1" fill="#9FD9D1"/>
<circle cx="319" cy="359" r="1" fill="#9FD9D1"/>
<circle cx="345" cy="359" r="1" fill="#9FD9D1"/>
<circle cx="371" cy="359" r="1" fill="#9FD9D1"/>
<circle cx="397" cy="359" r="1" fill="#9FD9D1"/>
<circle cx="423" cy="359" r="1" fill="#9FD9D1"/>
<circle cx="449" cy="359" r="1" fill="#9FD9D1"/>
<circle cx="475" cy="359" r="1" fill="#9FD9D1"/>
<circle cx="497" cy="385" r="1" fill="#9FD9D1"/>
<circle cx="523" cy="385" r="1" fill="#9FD9D1"/>
<circle cx="549" cy="385" r="1" fill="#9FD9D1"/>
<circle cx="575" cy="385" r="1" fill="#9FD9D1"/>
<circle cx="601" cy="385" r="1" fill="#9FD9D1"/>
<circle cx="627" cy="385" r="1" fill="#9FD9D1"/>
<circle cx="653" cy="385" r="1" fill="#9FD9D1"/>
<circle cx="679" cy="385" r="1" fill="#9FD9D1"/>
<circle cx="705" cy="385" r="1" fill="#9FD9D1"/>
<circle cx="731" cy="385" r="1" fill="#9FD9D1"/>
<circle cx="757" cy="385" r="1" fill="#9FD9D1"/>
<circle cx="783" cy="385" r="1" fill="#9FD9D1"/>
<circle cx="809" cy="385" r="1" fill="#9FD9D1"/>
<circle cx="835" cy="385" r="1" fill="#9FD9D1"/>
<circle cx="861" cy="385" r="1" fill="#9FD9D1"/>
<circle cx="887" cy="385" r="1" fill="#9FD9D1"/>
<circle cx="913" cy="385" r="1" fill="#9FD9D1"/>
<circle cx="7" cy="385" r="1" fill="#9FD9D1"/>
<circle cx="33" cy="385" r="1" fill="#9FD9D1"/>
<circle cx="59" cy="385" r="1" fill="#9FD9D1"/>
<circle cx="85" cy="385" r="1" fill="#9FD9D1"/>
<circle cx="111" cy="385" r="1" fill="#9FD9D1"/>
<circle cx="137" cy="385" r="1" fill="#9FD9D1"/>
<circle cx="163" cy="385" r="1" fill="#9FD9D1"/>
<circle cx="189" cy="385" r="1" fill="#9FD9D1"/>
<circle cx="215" cy="385" r="1" fill="#9FD9D1"/>
<circle cx="241" cy="385" r="1" fill="#9FD9D1"/>
<circle cx="267" cy="385" r="1" fill="#9FD9D1"/>
<circle cx="293" cy="385" r="1" fill="#9FD9D1"/>
<circle cx="319" cy="385" r="1" fill="#9FD9D1"/>
<circle cx="345" cy="385" r="1" fill="#9FD9D1"/>
<circle cx="371" cy="385" r="1" fill="#9FD9D1"/>
<circle cx="397" cy="385" r="1" fill="#9FD9D1"/>
<circle cx="423" cy="385" r="1" fill="#9FD9D1"/>
<circle cx="449" cy="385" r="1" fill="#9FD9D1"/>
<circle cx="475" cy="385" r="1" fill="#9FD9D1"/>
<circle cx="497" cy="411" r="1" fill="#9FD9D1"/>
<circle cx="523" cy="411" r="1" fill="#9FD9D1"/>
<circle cx="549" cy="411" r="1" fill="#9FD9D1"/>
<circle cx="575" cy="411" r="1" fill="#9FD9D1"/>
<circle cx="601" cy="411" r="1" fill="#9FD9D1"/>
<circle cx="627" cy="411" r="1" fill="#9FD9D1"/>
<circle cx="653" cy="411" r="1" fill="#9FD9D1"/>
<circle cx="679" cy="411" r="1" fill="#9FD9D1"/>
<circle cx="705" cy="411" r="1" fill="#9FD9D1"/>
<circle cx="731" cy="411" r="1" fill="#9FD9D1"/>
<circle cx="757" cy="411" r="1" fill="#9FD9D1"/>
<circle cx="783" cy="411" r="1" fill="#9FD9D1"/>
<circle cx="809" cy="411" r="1" fill="#9FD9D1"/>
<circle cx="835" cy="411" r="1" fill="#9FD9D1"/>
<circle cx="861" cy="411" r="1" fill="#9FD9D1"/>
<circle cx="887" cy="411" r="1" fill="#9FD9D1"/>
<circle cx="913" cy="411" r="1" fill="#9FD9D1"/>
<circle cx="7" cy="411" r="1" fill="#9FD9D1"/>
<circle cx="33" cy="411" r="1" fill="#9FD9D1"/>
<circle cx="59" cy="411" r="1" fill="#9FD9D1"/>
<circle cx="85" cy="411" r="1" fill="#9FD9D1"/>
<circle cx="111" cy="411" r="1" fill="#9FD9D1"/>
<circle cx="137" cy="411" r="1" fill="#9FD9D1"/>
<circle cx="163" cy="411" r="1" fill="#9FD9D1"/>
<circle cx="189" cy="411" r="1" fill="#9FD9D1"/>
<circle cx="215" cy="411" r="1" fill="#9FD9D1"/>
<circle cx="241" cy="411" r="1" fill="#9FD9D1"/>
<circle cx="267" cy="411" r="1" fill="#9FD9D1"/>
<circle cx="293" cy="411" r="1" fill="#9FD9D1"/>
<circle cx="319" cy="411" r="1" fill="#9FD9D1"/>
<circle cx="345" cy="411" r="1" fill="#9FD9D1"/>
<circle cx="371" cy="411" r="1" fill="#9FD9D1"/>
<circle cx="397" cy="411" r="1" fill="#9FD9D1"/>
<circle cx="423" cy="411" r="1" fill="#9FD9D1"/>
<circle cx="449" cy="411" r="1" fill="#9FD9D1"/>
<circle cx="475" cy="411" r="1" fill="#9FD9D1"/>
<circle cx="497" cy="437" r="1" fill="#9FD9D1"/>
<circle cx="523" cy="437" r="1" fill="#9FD9D1"/>
<circle cx="549" cy="437" r="1" fill="#9FD9D1"/>
<circle cx="575" cy="437" r="1" fill="#9FD9D1"/>
<circle cx="601" cy="437" r="1" fill="#9FD9D1"/>
<circle cx="627" cy="437" r="1" fill="#9FD9D1"/>
<circle cx="653" cy="437" r="1" fill="#9FD9D1"/>
<circle cx="679" cy="437" r="1" fill="#9FD9D1"/>
<circle cx="705" cy="437" r="1" fill="#9FD9D1"/>
<circle cx="731" cy="437" r="1" fill="#9FD9D1"/>
<circle cx="757" cy="437" r="1" fill="#9FD9D1"/>
<circle cx="783" cy="437" r="1" fill="#9FD9D1"/>
<circle cx="809" cy="437" r="1" fill="#9FD9D1"/>
<circle cx="835" cy="437" r="1" fill="#9FD9D1"/>
<circle cx="861" cy="437" r="1" fill="#9FD9D1"/>
<circle cx="887" cy="437" r="1" fill="#9FD9D1"/>
<circle cx="913" cy="437" r="1" fill="#9FD9D1"/>
<circle cx="7" cy="437" r="1" fill="#9FD9D1"/>
<circle cx="33" cy="437" r="1" fill="#9FD9D1"/>
<circle cx="59" cy="437" r="1" fill="#9FD9D1"/>
<circle cx="85" cy="437" r="1" fill="#9FD9D1"/>
<circle cx="111" cy="437" r="1" fill="#9FD9D1"/>
<circle cx="137" cy="437" r="1" fill="#9FD9D1"/>
<circle cx="163" cy="437" r="1" fill="#9FD9D1"/>
<circle cx="189" cy="437" r="1" fill="#9FD9D1"/>
<circle cx="215" cy="437" r="1" fill="#9FD9D1"/>
<circle cx="241" cy="437" r="1" fill="#9FD9D1"/>
<circle cx="267" cy="437" r="1" fill="#9FD9D1"/>
<circle cx="293" cy="437" r="1" fill="#9FD9D1"/>
<circle cx="319" cy="437" r="1" fill="#9FD9D1"/>
<circle cx="345" cy="437" r="1" fill="#9FD9D1"/>
<circle cx="371" cy="437" r="1" fill="#9FD9D1"/>
<circle cx="397" cy="437" r="1" fill="#9FD9D1"/>
<circle cx="423" cy="437" r="1" fill="#9FD9D1"/>
<circle cx="449" cy="437" r="1" fill="#9FD9D1"/>
<circle cx="475" cy="437" r="1" fill="#9FD9D1"/>
<circle cx="497" cy="463" r="1" fill="#9FD9D1"/>
<circle cx="523" cy="463" r="1" fill="#9FD9D1"/>
<circle cx="549" cy="463" r="1" fill="#9FD9D1"/>
<circle cx="575" cy="463" r="1" fill="#9FD9D1"/>
<circle cx="601" cy="463" r="1" fill="#9FD9D1"/>
<circle cx="627" cy="463" r="1" fill="#9FD9D1"/>
<circle cx="653" cy="463" r="1" fill="#9FD9D1"/>
<circle cx="679" cy="463" r="1" fill="#9FD9D1"/>
<circle cx="705" cy="463" r="1" fill="#9FD9D1"/>
<circle cx="731" cy="463" r="1" fill="#9FD9D1"/>
<circle cx="757" cy="463" r="1" fill="#9FD9D1"/>
<circle cx="783" cy="463" r="1" fill="#9FD9D1"/>
<circle cx="809" cy="463" r="1" fill="#9FD9D1"/>
<circle cx="835" cy="463" r="1" fill="#9FD9D1"/>
<circle cx="861" cy="463" r="1" fill="#9FD9D1"/>
<circle cx="887" cy="463" r="1" fill="#9FD9D1"/>
<circle cx="913" cy="463" r="1" fill="#9FD9D1"/>
<circle cx="7" cy="463" r="1" fill="#9FD9D1"/>
<circle cx="33" cy="463" r="1" fill="#9FD9D1"/>
<circle cx="59" cy="463" r="1" fill="#9FD9D1"/>
<circle cx="85" cy="463" r="1" fill="#9FD9D1"/>
<circle cx="111" cy="463" r="1" fill="#9FD9D1"/>
<circle cx="137" cy="463" r="1" fill="#9FD9D1"/>
<circle cx="163" cy="463" r="1" fill="#9FD9D1"/>
<circle cx="189" cy="463" r="1" fill="#9FD9D1"/>
<circle cx="215" cy="463" r="1" fill="#9FD9D1"/>
<circle cx="241" cy="463" r="1" fill="#9FD9D1"/>
<circle cx="267" cy="463" r="1" fill="#9FD9D1"/>
<circle cx="293" cy="463" r="1" fill="#9FD9D1"/>
<circle cx="319" cy="463" r="1" fill="#9FD9D1"/>
<circle cx="345" cy="463" r="1" fill="#9FD9D1"/>
<circle cx="371" cy="463" r="1" fill="#9FD9D1"/>
<circle cx="397" cy="463" r="1" fill="#9FD9D1"/>
<circle cx="423" cy="463" r="1" fill="#9FD9D1"/>
<circle cx="449" cy="463" r="1" fill="#9FD9D1"/>
<circle cx="475" cy="463" r="1" fill="#9FD9D1"/>
<circle cx="497" cy="489" r="1" fill="#9FD9D1"/>
<circle cx="523" cy="489" r="1" fill="#9FD9D1"/>
<circle cx="549" cy="489" r="1" fill="#9FD9D1"/>
<circle cx="575" cy="489" r="1" fill="#9FD9D1"/>
<circle cx="601" cy="489" r="1" fill="#9FD9D1"/>
<circle cx="627" cy="489" r="1" fill="#9FD9D1"/>
<circle cx="653" cy="489" r="1" fill="#9FD9D1"/>
<circle cx="679" cy="489" r="1" fill="#9FD9D1"/>
<circle cx="705" cy="489" r="1" fill="#9FD9D1"/>
<circle cx="731" cy="489" r="1" fill="#9FD9D1"/>
<circle cx="757" cy="489" r="1" fill="#9FD9D1"/>
<circle cx="783" cy="489" r="1" fill="#9FD9D1"/>
<circle cx="809" cy="489" r="1" fill="#9FD9D1"/>
<circle cx="835" cy="489" r="1" fill="#9FD9D1"/>
<circle cx="861" cy="489" r="1" fill="#9FD9D1"/>
<circle cx="887" cy="489" r="1" fill="#9FD9D1"/>
<circle cx="913" cy="489" r="1" fill="#9FD9D1"/>
<circle cx="7" cy="489" r="1" fill="#9FD9D1"/>
<circle cx="33" cy="489" r="1" fill="#9FD9D1"/>
<circle cx="59" cy="489" r="1" fill="#9FD9D1"/>
<circle cx="85" cy="489" r="1" fill="#9FD9D1"/>
<circle cx="111" cy="489" r="1" fill="#9FD9D1"/>
<circle cx="137" cy="489" r="1" fill="#9FD9D1"/>
<circle cx="163" cy="489" r="1" fill="#9FD9D1"/>
<circle cx="189" cy="489" r="1" fill="#9FD9D1"/>
<circle cx="215" cy="489" r="1" fill="#9FD9D1"/>
<circle cx="241" cy="489" r="1" fill="#9FD9D1"/>
<circle cx="267" cy="489" r="1" fill="#9FD9D1"/>
<circle cx="293" cy="489" r="1" fill="#9FD9D1"/>
<circle cx="319" cy="489" r="1" fill="#9FD9D1"/>
<circle cx="345" cy="489" r="1" fill="#9FD9D1"/>
<circle cx="371" cy="489" r="1" fill="#9FD9D1"/>
<circle cx="397" cy="489" r="1" fill="#9FD9D1"/>
<circle cx="423" cy="489" r="1" fill="#9FD9D1"/>
<circle cx="449" cy="489" r="1" fill="#9FD9D1"/>
<circle cx="475" cy="489" r="1" fill="#9FD9D1"/>
<circle cx="497" cy="515" r="1" fill="#9FD9D1"/>
<circle cx="523" cy="515" r="1" fill="#9FD9D1"/>
<circle cx="549" cy="515" r="1" fill="#9FD9D1"/>
<circle cx="575" cy="515" r="1" fill="#9FD9D1"/>
<circle cx="601" cy="515" r="1" fill="#9FD9D1"/>
<circle cx="627" cy="515" r="1" fill="#9FD9D1"/>
<circle cx="653" cy="515" r="1" fill="#9FD9D1"/>
<circle cx="679" cy="515" r="1" fill="#9FD9D1"/>
<circle cx="705" cy="515" r="1" fill="#9FD9D1"/>
<circle cx="731" cy="515" r="1" fill="#9FD9D1"/>
<circle cx="757" cy="515" r="1" fill="#9FD9D1"/>
<circle cx="783" cy="515" r="1" fill="#9FD9D1"/>
<circle cx="809" cy="515" r="1" fill="#9FD9D1"/>
<circle cx="835" cy="515" r="1" fill="#9FD9D1"/>
<circle cx="861" cy="515" r="1" fill="#9FD9D1"/>
<circle cx="887" cy="515" r="1" fill="#9FD9D1"/>
<circle cx="913" cy="515" r="1" fill="#9FD9D1"/>
<circle cx="7" cy="515" r="1" fill="#9FD9D1"/>
<circle cx="33" cy="515" r="1" fill="#9FD9D1"/>
<circle cx="59" cy="515" r="1" fill="#9FD9D1"/>
<circle cx="85" cy="515" r="1" fill="#9FD9D1"/>
<circle cx="111" cy="515" r="1" fill="#9FD9D1"/>
<circle cx="137" cy="515" r="1" fill="#9FD9D1"/>
<circle cx="163" cy="515" r="1" fill="#9FD9D1"/>
<circle cx="189" cy="515" r="1" fill="#9FD9D1"/>
<circle cx="215" cy="515" r="1" fill="#9FD9D1"/>
<circle cx="241" cy="515" r="1" fill="#9FD9D1"/>
<circle cx="267" cy="515" r="1" fill="#9FD9D1"/>
<circle cx="293" cy="515" r="1" fill="#9FD9D1"/>
<circle cx="319" cy="515" r="1" fill="#9FD9D1"/>
<circle cx="345" cy="515" r="1" fill="#9FD9D1"/>
<circle cx="371" cy="515" r="1" fill="#9FD9D1"/>
<circle cx="397" cy="515" r="1" fill="#9FD9D1"/>
<circle cx="423" cy="515" r="1" fill="#9FD9D1"/>
<circle cx="449" cy="515" r="1" fill="#9FD9D1"/>
<circle cx="475" cy="515" r="1" fill="#9FD9D1"/>
<rect width="4" height="536" fill="#65DA7A"/>
</g>
<defs>
<clipPath id="clip0_17141_180433">
<rect width="928" height="536" rx="8" fill="white"/>
</clipPath>
</defs>
</svg>
