<svg width="16" height="16" viewBox="0 0 16 16" fill="none" xmlns="http://www.w3.org/2000/svg">
<path d="M12.6666 1.33333H3.33325C2.80282 1.33333 2.29411 1.54404 1.91904 1.91911C1.54397 2.29419 1.33325 2.8029 1.33325 3.33333V10C1.33325 10.5304 1.54397 11.0391 1.91904 11.4142C2.29411 11.7893 2.80282 12 3.33325 12H5.09325L4.70659 12.6667C4.58956 12.8694 4.52795 13.0993 4.52795 13.3333C4.52795 13.5674 4.58956 13.7973 4.70659 14C4.82462 14.2045 4.99482 14.3739 5.1998 14.491C5.40478 14.6082 5.63718 14.6688 5.87325 14.6667H10.1799C10.4137 14.6664 10.6434 14.6047 10.8458 14.4877C11.0482 14.3707 11.2163 14.2025 11.3333 14C11.4503 13.7973 11.5119 13.5674 11.5119 13.3333C11.5119 13.0993 11.4503 12.8694 11.3333 12.6667L10.9399 12H12.6666C13.197 12 13.7057 11.7893 14.0808 11.4142C14.4559 11.0391 14.6666 10.5304 14.6666 10V3.33333C14.6666 2.8029 14.4559 2.29419 14.0808 1.91911C13.7057 1.54404 13.197 1.33333 12.6666 1.33333ZM5.84659 13.3333L6.66659 12H9.33325L10.1333 13.3333H5.84659ZM13.3333 10C13.3333 10.1768 13.263 10.3464 13.138 10.4714C13.013 10.5964 12.8434 10.6667 12.6666 10.6667H3.33325C3.15644 10.6667 2.98687 10.5964 2.86185 10.4714C2.73682 10.3464 2.66659 10.1768 2.66659 10V9.33333H13.3333V10ZM13.3333 8H2.66659V3.33333C2.66659 3.15652 2.73682 2.98695 2.86185 2.86192C2.98687 2.7369 3.15644 2.66666 3.33325 2.66666H12.6666C12.8434 2.66666 13.013 2.7369 13.138 2.86192C13.263 2.98695 13.3333 3.15652 13.3333 3.33333V8Z" fill="#8C61CB"/>
</svg>
