<svg width="24" height="24" viewBox="0 0 24 24" fill="none" xmlns="http://www.w3.org/2000/svg">
<path d="M6.99713 6.00001V3.00002C6.99713 2.7348 7.10245 2.48044 7.28991 2.29291C7.47737 2.10537 7.73162 2.00002 7.99672 2.00002H19.9918C20.2569 2.00002 20.5111 2.10537 20.6986 2.29291C20.8861 2.48044 20.9914 2.7348 20.9914 3.00002V17C20.9914 17.2652 20.8861 17.5196 20.6986 17.7071C20.5111 17.8947 20.2569 18 19.9918 18H16.993V21C16.993 21.552 16.5432 22 15.9864 22H4.00537C3.87355 22.0008 3.74287 21.9755 3.62085 21.9256C3.49882 21.8758 3.38785 21.8022 3.29432 21.7093C3.20078 21.6164 3.12652 21.5059 3.0758 21.3842C3.02508 21.2624 2.99891 21.1319 2.99878 21L3.00178 7.00001C3.00178 6.44801 3.45159 6.00001 4.00736 6.00001H6.99713ZM4.99996 8.00001L4.99796 20H14.9938V8.00001H4.99996ZM8.99631 6.00001H16.993V16H18.9922V4.00002H8.99631V6.00001ZM6.99713 11H12.9947V13H6.99713V11ZM6.99713 15H12.9947V17H6.99713V15Z" fill="#504F4F"/>
</svg>
