<svg width="928" height="536" viewBox="0 0 928 536" fill="none" xmlns="http://www.w3.org/2000/svg">
<g clip-path="url(#clip0_17141_178360)">
<rect width="928" height="536" rx="8" fill="white"/>
<circle cx="497" cy="18" r="1" fill="#E8D9FF"/>
<circle cx="523" cy="18" r="1" fill="#E8D9FF"/>
<circle cx="549" cy="18" r="1" fill="#E8D9FF"/>
<circle cx="575" cy="18" r="1" fill="#E8D9FF"/>
<circle cx="601" cy="18" r="1" fill="#E8D9FF"/>
<circle cx="627" cy="18" r="1" fill="#E8D9FF"/>
<circle cx="653" cy="18" r="1" fill="#E8D9FF"/>
<circle cx="679" cy="18" r="1" fill="#E8D9FF"/>
<circle cx="705" cy="18" r="1" fill="#E8D9FF"/>
<circle cx="731" cy="18" r="1" fill="#E8D9FF"/>
<circle cx="757" cy="18" r="1" fill="#E8D9FF"/>
<circle cx="783" cy="18" r="1" fill="#E8D9FF"/>
<circle cx="809" cy="18" r="1" fill="#E8D9FF"/>
<circle cx="835" cy="18" r="1" fill="#E8D9FF"/>
<circle cx="861" cy="18" r="1" fill="#E8D9FF"/>
<circle cx="887" cy="18" r="1" fill="#E8D9FF"/>
<circle cx="913" cy="18" r="1" fill="#E8D9FF"/>
<circle cx="7" cy="18" r="1" fill="#E8D9FF"/>
<circle cx="33" cy="18" r="1" fill="#E8D9FF"/>
<circle cx="59" cy="18" r="1" fill="#E8D9FF"/>
<circle cx="85" cy="18" r="1" fill="#E8D9FF"/>
<circle cx="111" cy="18" r="1" fill="#E8D9FF"/>
<circle cx="137" cy="18" r="1" fill="#E8D9FF"/>
<circle cx="163" cy="18" r="1" fill="#E8D9FF"/>
<circle cx="189" cy="18" r="1" fill="#E8D9FF"/>
<circle cx="215" cy="18" r="1" fill="#E8D9FF"/>
<circle cx="241" cy="18" r="1" fill="#E8D9FF"/>
<circle cx="267" cy="18" r="1" fill="#E8D9FF"/>
<circle cx="293" cy="18" r="1" fill="#E8D9FF"/>
<circle cx="319" cy="18" r="1" fill="#E8D9FF"/>
<circle cx="345" cy="18" r="1" fill="#E8D9FF"/>
<circle cx="371" cy="18" r="1" fill="#E8D9FF"/>
<circle cx="397" cy="18" r="1" fill="#E8D9FF"/>
<circle cx="423" cy="18" r="1" fill="#E8D9FF"/>
<circle cx="449" cy="18" r="1" fill="#E8D9FF"/>
<circle cx="475" cy="18" r="1" fill="#E8D9FF"/>
<circle cx="497" cy="44" r="1" fill="#E8D9FF"/>
<circle cx="523" cy="44" r="1" fill="#E8D9FF"/>
<circle cx="549" cy="44" r="1" fill="#E8D9FF"/>
<circle cx="575" cy="44" r="1" fill="#E8D9FF"/>
<circle cx="601" cy="44" r="1" fill="#E8D9FF"/>
<circle cx="627" cy="44" r="1" fill="#E8D9FF"/>
<circle cx="653" cy="44" r="1" fill="#E8D9FF"/>
<circle cx="679" cy="44" r="1" fill="#E8D9FF"/>
<circle cx="705" cy="44" r="1" fill="#E8D9FF"/>
<circle cx="731" cy="44" r="1" fill="#E8D9FF"/>
<circle cx="757" cy="44" r="1" fill="#E8D9FF"/>
<circle cx="783" cy="44" r="1" fill="#E8D9FF"/>
<circle cx="809" cy="44" r="1" fill="#E8D9FF"/>
<circle cx="835" cy="44" r="1" fill="#E8D9FF"/>
<circle cx="861" cy="44" r="1" fill="#E8D9FF"/>
<circle cx="887" cy="44" r="1" fill="#E8D9FF"/>
<circle cx="913" cy="44" r="1" fill="#E8D9FF"/>
<circle cx="7" cy="44" r="1" fill="#E8D9FF"/>
<circle cx="33" cy="44" r="1" fill="#E8D9FF"/>
<circle cx="59" cy="44" r="1" fill="#E8D9FF"/>
<circle cx="85" cy="44" r="1" fill="#E8D9FF"/>
<circle cx="111" cy="44" r="1" fill="#E8D9FF"/>
<circle cx="137" cy="44" r="1" fill="#E8D9FF"/>
<circle cx="163" cy="44" r="1" fill="#E8D9FF"/>
<circle cx="189" cy="44" r="1" fill="#E8D9FF"/>
<circle cx="215" cy="44" r="1" fill="#E8D9FF"/>
<circle cx="241" cy="44" r="1" fill="#E8D9FF"/>
<circle cx="267" cy="44" r="1" fill="#E8D9FF"/>
<circle cx="293" cy="44" r="1" fill="#E8D9FF"/>
<circle cx="319" cy="44" r="1" fill="#E8D9FF"/>
<circle cx="345" cy="44" r="1" fill="#E8D9FF"/>
<circle cx="371" cy="44" r="1" fill="#E8D9FF"/>
<circle cx="397" cy="44" r="1" fill="#E8D9FF"/>
<circle cx="423" cy="44" r="1" fill="#E8D9FF"/>
<circle cx="449" cy="44" r="1" fill="#E8D9FF"/>
<circle cx="475" cy="44" r="1" fill="#E8D9FF"/>
<circle cx="497" cy="70" r="1" fill="#E8D9FF"/>
<circle cx="523" cy="70" r="1" fill="#E8D9FF"/>
<circle cx="549" cy="70" r="1" fill="#E8D9FF"/>
<circle cx="575" cy="70" r="1" fill="#E8D9FF"/>
<circle cx="601" cy="70" r="1" fill="#E8D9FF"/>
<circle cx="627" cy="70" r="1" fill="#E8D9FF"/>
<circle cx="653" cy="70" r="1" fill="#E8D9FF"/>
<circle cx="679" cy="70" r="1" fill="#E8D9FF"/>
<circle cx="705" cy="70" r="1" fill="#E8D9FF"/>
<circle cx="731" cy="70" r="1" fill="#E8D9FF"/>
<circle cx="757" cy="70" r="1" fill="#E8D9FF"/>
<circle cx="783" cy="70" r="1" fill="#E8D9FF"/>
<circle cx="809" cy="70" r="1" fill="#E8D9FF"/>
<circle cx="835" cy="70" r="1" fill="#E8D9FF"/>
<circle cx="861" cy="70" r="1" fill="#E8D9FF"/>
<circle cx="887" cy="70" r="1" fill="#E8D9FF"/>
<circle cx="913" cy="70" r="1" fill="#E8D9FF"/>
<circle cx="7" cy="70" r="1" fill="#E8D9FF"/>
<circle cx="33" cy="70" r="1" fill="#E8D9FF"/>
<circle cx="59" cy="70" r="1" fill="#E8D9FF"/>
<circle cx="85" cy="70" r="1" fill="#E8D9FF"/>
<circle cx="111" cy="70" r="1" fill="#E8D9FF"/>
<circle cx="137" cy="70" r="1" fill="#E8D9FF"/>
<circle cx="163" cy="70" r="1" fill="#E8D9FF"/>
<circle cx="189" cy="70" r="1" fill="#E8D9FF"/>
<circle cx="215" cy="70" r="1" fill="#E8D9FF"/>
<circle cx="241" cy="70" r="1" fill="#E8D9FF"/>
<circle cx="267" cy="70" r="1" fill="#E8D9FF"/>
<circle cx="293" cy="70" r="1" fill="#E8D9FF"/>
<circle cx="319" cy="70" r="1" fill="#E8D9FF"/>
<circle cx="345" cy="70" r="1" fill="#E8D9FF"/>
<circle cx="371" cy="70" r="1" fill="#E8D9FF"/>
<circle cx="397" cy="70" r="1" fill="#E8D9FF"/>
<circle cx="423" cy="70" r="1" fill="#E8D9FF"/>
<circle cx="449" cy="70" r="1" fill="#E8D9FF"/>
<circle cx="475" cy="70" r="1" fill="#E8D9FF"/>
<circle cx="497" cy="96" r="1" fill="#E8D9FF"/>
<circle cx="523" cy="96" r="1" fill="#E8D9FF"/>
<circle cx="549" cy="96" r="1" fill="#E8D9FF"/>
<circle cx="575" cy="96" r="1" fill="#E8D9FF"/>
<circle cx="601" cy="96" r="1" fill="#E8D9FF"/>
<circle cx="627" cy="96" r="1" fill="#E8D9FF"/>
<circle cx="653" cy="96" r="1" fill="#E8D9FF"/>
<circle cx="679" cy="96" r="1" fill="#E8D9FF"/>
<circle cx="705" cy="96" r="1" fill="#E8D9FF"/>
<circle cx="731" cy="96" r="1" fill="#E8D9FF"/>
<circle cx="757" cy="96" r="1" fill="#E8D9FF"/>
<circle cx="783" cy="96" r="1" fill="#E8D9FF"/>
<circle cx="809" cy="96" r="1" fill="#E8D9FF"/>
<circle cx="835" cy="96" r="1" fill="#E8D9FF"/>
<circle cx="861" cy="96" r="1" fill="#E8D9FF"/>
<circle cx="887" cy="96" r="1" fill="#E8D9FF"/>
<circle cx="913" cy="96" r="1" fill="#E8D9FF"/>
<circle cx="7" cy="96" r="1" fill="#E8D9FF"/>
<circle cx="33" cy="96" r="1" fill="#E8D9FF"/>
<circle cx="59" cy="96" r="1" fill="#E8D9FF"/>
<circle cx="85" cy="96" r="1" fill="#E8D9FF"/>
<circle cx="111" cy="96" r="1" fill="#E8D9FF"/>
<circle cx="137" cy="96" r="1" fill="#E8D9FF"/>
<circle cx="163" cy="96" r="1" fill="#E8D9FF"/>
<circle cx="189" cy="96" r="1" fill="#E8D9FF"/>
<circle cx="215" cy="96" r="1" fill="#E8D9FF"/>
<circle cx="241" cy="96" r="1" fill="#E8D9FF"/>
<circle cx="267" cy="96" r="1" fill="#E8D9FF"/>
<circle cx="293" cy="96" r="1" fill="#E8D9FF"/>
<circle cx="319" cy="96" r="1" fill="#E8D9FF"/>
<circle cx="345" cy="96" r="1" fill="#E8D9FF"/>
<circle cx="371" cy="96" r="1" fill="#E8D9FF"/>
<circle cx="397" cy="96" r="1" fill="#E8D9FF"/>
<circle cx="423" cy="96" r="1" fill="#E8D9FF"/>
<circle cx="449" cy="96" r="1" fill="#E8D9FF"/>
<circle cx="475" cy="96" r="1" fill="#E8D9FF"/>
<circle cx="497" cy="122" r="1" fill="#E8D9FF"/>
<circle cx="523" cy="122" r="1" fill="#E8D9FF"/>
<circle cx="549" cy="122" r="1" fill="#E8D9FF"/>
<circle cx="575" cy="122" r="1" fill="#E8D9FF"/>
<circle cx="601" cy="122" r="1" fill="#E8D9FF"/>
<circle cx="627" cy="122" r="1" fill="#E8D9FF"/>
<circle cx="653" cy="122" r="1" fill="#E8D9FF"/>
<circle cx="679" cy="122" r="1" fill="#E8D9FF"/>
<circle cx="705" cy="122" r="1" fill="#E8D9FF"/>
<circle cx="731" cy="122" r="1" fill="#E8D9FF"/>
<circle cx="757" cy="122" r="1" fill="#E8D9FF"/>
<circle cx="783" cy="122" r="1" fill="#E8D9FF"/>
<circle cx="809" cy="122" r="1" fill="#E8D9FF"/>
<circle cx="835" cy="122" r="1" fill="#E8D9FF"/>
<circle cx="861" cy="122" r="1" fill="#E8D9FF"/>
<circle cx="887" cy="122" r="1" fill="#E8D9FF"/>
<circle cx="913" cy="122" r="1" fill="#E8D9FF"/>
<circle cx="7" cy="122" r="1" fill="#E8D9FF"/>
<circle cx="33" cy="122" r="1" fill="#E8D9FF"/>
<circle cx="59" cy="122" r="1" fill="#E8D9FF"/>
<circle cx="85" cy="122" r="1" fill="#E8D9FF"/>
<circle cx="111" cy="122" r="1" fill="#E8D9FF"/>
<circle cx="137" cy="122" r="1" fill="#E8D9FF"/>
<circle cx="163" cy="122" r="1" fill="#E8D9FF"/>
<circle cx="189" cy="122" r="1" fill="#E8D9FF"/>
<circle cx="215" cy="122" r="1" fill="#E8D9FF"/>
<circle cx="241" cy="122" r="1" fill="#E8D9FF"/>
<circle cx="267" cy="122" r="1" fill="#E8D9FF"/>
<circle cx="293" cy="122" r="1" fill="#E8D9FF"/>
<circle cx="319" cy="122" r="1" fill="#E8D9FF"/>
<circle cx="345" cy="122" r="1" fill="#E8D9FF"/>
<circle cx="371" cy="122" r="1" fill="#E8D9FF"/>
<circle cx="397" cy="122" r="1" fill="#E8D9FF"/>
<circle cx="423" cy="122" r="1" fill="#E8D9FF"/>
<circle cx="449" cy="122" r="1" fill="#E8D9FF"/>
<circle cx="475" cy="122" r="1" fill="#E8D9FF"/>
<circle cx="497" cy="148" r="1" fill="#E8D9FF"/>
<circle cx="523" cy="148" r="1" fill="#E8D9FF"/>
<circle cx="549" cy="148" r="1" fill="#E8D9FF"/>
<circle cx="575" cy="148" r="1" fill="#E8D9FF"/>
<circle cx="601" cy="148" r="1" fill="#E8D9FF"/>
<circle cx="627" cy="148" r="1" fill="#E8D9FF"/>
<circle cx="653" cy="148" r="1" fill="#E8D9FF"/>
<circle cx="679" cy="148" r="1" fill="#E8D9FF"/>
<circle cx="705" cy="148" r="1" fill="#E8D9FF"/>
<circle cx="731" cy="148" r="1" fill="#E8D9FF"/>
<circle cx="757" cy="148" r="1" fill="#E8D9FF"/>
<circle cx="783" cy="148" r="1" fill="#E8D9FF"/>
<circle cx="809" cy="148" r="1" fill="#E8D9FF"/>
<circle cx="835" cy="148" r="1" fill="#E8D9FF"/>
<circle cx="861" cy="148" r="1" fill="#E8D9FF"/>
<circle cx="887" cy="148" r="1" fill="#E8D9FF"/>
<circle cx="913" cy="148" r="1" fill="#E8D9FF"/>
<circle cx="7" cy="148" r="1" fill="#E8D9FF"/>
<circle cx="33" cy="148" r="1" fill="#E8D9FF"/>
<circle cx="59" cy="148" r="1" fill="#E8D9FF"/>
<circle cx="85" cy="148" r="1" fill="#E8D9FF"/>
<circle cx="111" cy="148" r="1" fill="#E8D9FF"/>
<circle cx="137" cy="148" r="1" fill="#E8D9FF"/>
<circle cx="163" cy="148" r="1" fill="#E8D9FF"/>
<circle cx="189" cy="148" r="1" fill="#E8D9FF"/>
<circle cx="215" cy="148" r="1" fill="#E8D9FF"/>
<circle cx="241" cy="148" r="1" fill="#E8D9FF"/>
<circle cx="267" cy="148" r="1" fill="#E8D9FF"/>
<circle cx="293" cy="148" r="1" fill="#E8D9FF"/>
<circle cx="319" cy="148" r="1" fill="#E8D9FF"/>
<circle cx="345" cy="148" r="1" fill="#E8D9FF"/>
<circle cx="371" cy="148" r="1" fill="#E8D9FF"/>
<circle cx="397" cy="148" r="1" fill="#E8D9FF"/>
<circle cx="423" cy="148" r="1" fill="#E8D9FF"/>
<circle cx="449" cy="148" r="1" fill="#E8D9FF"/>
<circle cx="475" cy="148" r="1" fill="#E8D9FF"/>
<circle cx="497" cy="174" r="1" fill="#E8D9FF"/>
<circle cx="523" cy="174" r="1" fill="#E8D9FF"/>
<circle cx="549" cy="174" r="1" fill="#E8D9FF"/>
<circle cx="575" cy="174" r="1" fill="#E8D9FF"/>
<circle cx="601" cy="174" r="1" fill="#E8D9FF"/>
<circle cx="627" cy="174" r="1" fill="#E8D9FF"/>
<circle cx="653" cy="174" r="1" fill="#E8D9FF"/>
<circle cx="679" cy="174" r="1" fill="#E8D9FF"/>
<circle cx="705" cy="174" r="1" fill="#E8D9FF"/>
<circle cx="731" cy="174" r="1" fill="#E8D9FF"/>
<circle cx="757" cy="174" r="1" fill="#E8D9FF"/>
<circle cx="783" cy="174" r="1" fill="#E8D9FF"/>
<circle cx="809" cy="174" r="1" fill="#E8D9FF"/>
<circle cx="835" cy="174" r="1" fill="#E8D9FF"/>
<circle cx="861" cy="174" r="1" fill="#E8D9FF"/>
<circle cx="887" cy="174" r="1" fill="#E8D9FF"/>
<circle cx="913" cy="174" r="1" fill="#E8D9FF"/>
<circle cx="7" cy="174" r="1" fill="#E8D9FF"/>
<circle cx="33" cy="174" r="1" fill="#E8D9FF"/>
<circle cx="59" cy="174" r="1" fill="#E8D9FF"/>
<circle cx="85" cy="174" r="1" fill="#E8D9FF"/>
<circle cx="111" cy="174" r="1" fill="#E8D9FF"/>
<circle cx="137" cy="174" r="1" fill="#E8D9FF"/>
<circle cx="163" cy="174" r="1" fill="#E8D9FF"/>
<circle cx="189" cy="174" r="1" fill="#E8D9FF"/>
<circle cx="215" cy="174" r="1" fill="#E8D9FF"/>
<circle cx="241" cy="174" r="1" fill="#E8D9FF"/>
<circle cx="267" cy="174" r="1" fill="#E8D9FF"/>
<circle cx="293" cy="174" r="1" fill="#E8D9FF"/>
<circle cx="319" cy="174" r="1" fill="#E8D9FF"/>
<circle cx="345" cy="174" r="1" fill="#E8D9FF"/>
<circle cx="371" cy="174" r="1" fill="#E8D9FF"/>
<circle cx="397" cy="174" r="1" fill="#E8D9FF"/>
<circle cx="423" cy="174" r="1" fill="#E8D9FF"/>
<circle cx="449" cy="174" r="1" fill="#E8D9FF"/>
<circle cx="475" cy="174" r="1" fill="#E8D9FF"/>
<circle cx="497" cy="200" r="1" fill="#E8D9FF"/>
<circle cx="523" cy="200" r="1" fill="#E8D9FF"/>
<circle cx="549" cy="200" r="1" fill="#E8D9FF"/>
<circle cx="575" cy="200" r="1" fill="#E8D9FF"/>
<circle cx="601" cy="200" r="1" fill="#E8D9FF"/>
<circle cx="627" cy="200" r="1" fill="#E8D9FF"/>
<circle cx="653" cy="200" r="1" fill="#E8D9FF"/>
<circle cx="679" cy="200" r="1" fill="#E8D9FF"/>
<circle cx="705" cy="200" r="1" fill="#E8D9FF"/>
<circle cx="731" cy="200" r="1" fill="#E8D9FF"/>
<circle cx="757" cy="200" r="1" fill="#E8D9FF"/>
<circle cx="783" cy="200" r="1" fill="#E8D9FF"/>
<circle cx="809" cy="200" r="1" fill="#E8D9FF"/>
<circle cx="835" cy="200" r="1" fill="#E8D9FF"/>
<circle cx="861" cy="200" r="1" fill="#E8D9FF"/>
<circle cx="887" cy="200" r="1" fill="#E8D9FF"/>
<circle cx="913" cy="200" r="1" fill="#E8D9FF"/>
<circle cx="7" cy="200" r="1" fill="#E8D9FF"/>
<circle cx="33" cy="200" r="1" fill="#E8D9FF"/>
<circle cx="59" cy="200" r="1" fill="#E8D9FF"/>
<circle cx="85" cy="200" r="1" fill="#E8D9FF"/>
<circle cx="111" cy="200" r="1" fill="#E8D9FF"/>
<circle cx="137" cy="200" r="1" fill="#E8D9FF"/>
<circle cx="163" cy="200" r="1" fill="#E8D9FF"/>
<circle cx="189" cy="200" r="1" fill="#E8D9FF"/>
<circle cx="215" cy="200" r="1" fill="#E8D9FF"/>
<circle cx="241" cy="200" r="1" fill="#E8D9FF"/>
<circle cx="267" cy="200" r="1" fill="#E8D9FF"/>
<circle cx="293" cy="200" r="1" fill="#E8D9FF"/>
<circle cx="319" cy="200" r="1" fill="#E8D9FF"/>
<circle cx="345" cy="200" r="1" fill="#E8D9FF"/>
<circle cx="371" cy="200" r="1" fill="#E8D9FF"/>
<circle cx="397" cy="200" r="1" fill="#E8D9FF"/>
<circle cx="423" cy="200" r="1" fill="#E8D9FF"/>
<circle cx="449" cy="200" r="1" fill="#E8D9FF"/>
<circle cx="475" cy="200" r="1" fill="#E8D9FF"/>
<circle cx="497" cy="226" r="1" fill="#E8D9FF"/>
<circle cx="523" cy="226" r="1" fill="#E8D9FF"/>
<circle cx="549" cy="226" r="1" fill="#E8D9FF"/>
<circle cx="575" cy="226" r="1" fill="#E8D9FF"/>
<circle cx="601" cy="226" r="1" fill="#E8D9FF"/>
<circle cx="627" cy="226" r="1" fill="#E8D9FF"/>
<circle cx="653" cy="226" r="1" fill="#E8D9FF"/>
<circle cx="679" cy="226" r="1" fill="#E8D9FF"/>
<circle cx="705" cy="226" r="1" fill="#E8D9FF"/>
<circle cx="731" cy="226" r="1" fill="#E8D9FF"/>
<circle cx="757" cy="226" r="1" fill="#E8D9FF"/>
<circle cx="783" cy="226" r="1" fill="#E8D9FF"/>
<circle cx="809" cy="226" r="1" fill="#E8D9FF"/>
<circle cx="835" cy="226" r="1" fill="#E8D9FF"/>
<circle cx="861" cy="226" r="1" fill="#E8D9FF"/>
<circle cx="887" cy="226" r="1" fill="#E8D9FF"/>
<circle cx="913" cy="226" r="1" fill="#E8D9FF"/>
<circle cx="7" cy="226" r="1" fill="#E8D9FF"/>
<circle cx="33" cy="226" r="1" fill="#E8D9FF"/>
<circle cx="59" cy="226" r="1" fill="#E8D9FF"/>
<circle cx="85" cy="226" r="1" fill="#E8D9FF"/>
<circle cx="111" cy="226" r="1" fill="#E8D9FF"/>
<circle cx="137" cy="226" r="1" fill="#E8D9FF"/>
<circle cx="163" cy="226" r="1" fill="#E8D9FF"/>
<circle cx="189" cy="226" r="1" fill="#E8D9FF"/>
<circle cx="215" cy="226" r="1" fill="#E8D9FF"/>
<circle cx="241" cy="226" r="1" fill="#E8D9FF"/>
<circle cx="267" cy="226" r="1" fill="#E8D9FF"/>
<circle cx="293" cy="226" r="1" fill="#E8D9FF"/>
<circle cx="319" cy="226" r="1" fill="#E8D9FF"/>
<circle cx="345" cy="226" r="1" fill="#E8D9FF"/>
<circle cx="371" cy="226" r="1" fill="#E8D9FF"/>
<circle cx="397" cy="226" r="1" fill="#E8D9FF"/>
<circle cx="423" cy="226" r="1" fill="#E8D9FF"/>
<circle cx="449" cy="226" r="1" fill="#E8D9FF"/>
<circle cx="475" cy="226" r="1" fill="#E8D9FF"/>
<circle cx="497" cy="252" r="1" fill="#E8D9FF"/>
<circle cx="523" cy="252" r="1" fill="#E8D9FF"/>
<circle cx="549" cy="252" r="1" fill="#E8D9FF"/>
<circle cx="575" cy="252" r="1" fill="#E8D9FF"/>
<circle cx="601" cy="252" r="1" fill="#E8D9FF"/>
<circle cx="627" cy="252" r="1" fill="#E8D9FF"/>
<circle cx="653" cy="252" r="1" fill="#E8D9FF"/>
<circle cx="679" cy="252" r="1" fill="#E8D9FF"/>
<circle cx="705" cy="252" r="1" fill="#E8D9FF"/>
<circle cx="731" cy="252" r="1" fill="#E8D9FF"/>
<circle cx="757" cy="252" r="1" fill="#E8D9FF"/>
<circle cx="783" cy="252" r="1" fill="#E8D9FF"/>
<circle cx="809" cy="252" r="1" fill="#E8D9FF"/>
<circle cx="835" cy="252" r="1" fill="#E8D9FF"/>
<circle cx="861" cy="252" r="1" fill="#E8D9FF"/>
<circle cx="887" cy="252" r="1" fill="#E8D9FF"/>
<circle cx="913" cy="252" r="1" fill="#E8D9FF"/>
<circle cx="7" cy="252" r="1" fill="#E8D9FF"/>
<circle cx="33" cy="252" r="1" fill="#E8D9FF"/>
<circle cx="59" cy="252" r="1" fill="#E8D9FF"/>
<circle cx="85" cy="252" r="1" fill="#E8D9FF"/>
<circle cx="111" cy="252" r="1" fill="#E8D9FF"/>
<circle cx="137" cy="252" r="1" fill="#E8D9FF"/>
<circle cx="163" cy="252" r="1" fill="#E8D9FF"/>
<circle cx="189" cy="252" r="1" fill="#E8D9FF"/>
<circle cx="215" cy="252" r="1" fill="#E8D9FF"/>
<circle cx="241" cy="252" r="1" fill="#E8D9FF"/>
<circle cx="267" cy="252" r="1" fill="#E8D9FF"/>
<circle cx="293" cy="252" r="1" fill="#E8D9FF"/>
<circle cx="319" cy="252" r="1" fill="#E8D9FF"/>
<circle cx="345" cy="252" r="1" fill="#E8D9FF"/>
<circle cx="371" cy="252" r="1" fill="#E8D9FF"/>
<circle cx="397" cy="252" r="1" fill="#E8D9FF"/>
<circle cx="423" cy="252" r="1" fill="#E8D9FF"/>
<circle cx="449" cy="252" r="1" fill="#E8D9FF"/>
<circle cx="475" cy="252" r="1" fill="#E8D9FF"/>
<circle cx="497" cy="278" r="1" fill="#E8D9FF"/>
<circle cx="523" cy="278" r="1" fill="#E8D9FF"/>
<circle cx="549" cy="278" r="1" fill="#E8D9FF"/>
<circle cx="575" cy="278" r="1" fill="#E8D9FF"/>
<circle cx="601" cy="278" r="1" fill="#E8D9FF"/>
<circle cx="627" cy="278" r="1" fill="#E8D9FF"/>
<circle cx="653" cy="278" r="1" fill="#E8D9FF"/>
<circle cx="679" cy="278" r="1" fill="#E8D9FF"/>
<circle cx="705" cy="278" r="1" fill="#E8D9FF"/>
<circle cx="731" cy="278" r="1" fill="#E8D9FF"/>
<circle cx="757" cy="278" r="1" fill="#E8D9FF"/>
<circle cx="783" cy="278" r="1" fill="#E8D9FF"/>
<circle cx="809" cy="278" r="1" fill="#E8D9FF"/>
<circle cx="835" cy="278" r="1" fill="#E8D9FF"/>
<circle cx="861" cy="278" r="1" fill="#E8D9FF"/>
<circle cx="887" cy="278" r="1" fill="#E8D9FF"/>
<circle cx="913" cy="278" r="1" fill="#E8D9FF"/>
<circle cx="7" cy="278" r="1" fill="#E8D9FF"/>
<circle cx="33" cy="278" r="1" fill="#E8D9FF"/>
<circle cx="59" cy="278" r="1" fill="#E8D9FF"/>
<circle cx="85" cy="278" r="1" fill="#E8D9FF"/>
<circle cx="111" cy="278" r="1" fill="#E8D9FF"/>
<circle cx="137" cy="278" r="1" fill="#E8D9FF"/>
<circle cx="163" cy="278" r="1" fill="#E8D9FF"/>
<circle cx="189" cy="278" r="1" fill="#E8D9FF"/>
<circle cx="215" cy="278" r="1" fill="#E8D9FF"/>
<circle cx="241" cy="278" r="1" fill="#E8D9FF"/>
<circle cx="267" cy="278" r="1" fill="#E8D9FF"/>
<circle cx="293" cy="278" r="1" fill="#E8D9FF"/>
<circle cx="319" cy="278" r="1" fill="#E8D9FF"/>
<circle cx="345" cy="278" r="1" fill="#E8D9FF"/>
<circle cx="371" cy="278" r="1" fill="#E8D9FF"/>
<circle cx="397" cy="278" r="1" fill="#E8D9FF"/>
<circle cx="423" cy="278" r="1" fill="#E8D9FF"/>
<circle cx="449" cy="278" r="1" fill="#E8D9FF"/>
<circle cx="475" cy="278" r="1" fill="#E8D9FF"/>
<circle cx="497" cy="304" r="1" fill="#E8D9FF"/>
<circle cx="523" cy="304" r="1" fill="#E8D9FF"/>
<circle cx="549" cy="304" r="1" fill="#E8D9FF"/>
<circle cx="575" cy="304" r="1" fill="#E8D9FF"/>
<circle cx="601" cy="304" r="1" fill="#E8D9FF"/>
<circle cx="627" cy="304" r="1" fill="#E8D9FF"/>
<circle cx="653" cy="304" r="1" fill="#E8D9FF"/>
<circle cx="679" cy="304" r="1" fill="#E8D9FF"/>
<circle cx="705" cy="304" r="1" fill="#E8D9FF"/>
<circle cx="731" cy="304" r="1" fill="#E8D9FF"/>
<circle cx="757" cy="304" r="1" fill="#E8D9FF"/>
<circle cx="783" cy="304" r="1" fill="#E8D9FF"/>
<circle cx="809" cy="304" r="1" fill="#E8D9FF"/>
<circle cx="835" cy="304" r="1" fill="#E8D9FF"/>
<circle cx="861" cy="304" r="1" fill="#E8D9FF"/>
<circle cx="887" cy="304" r="1" fill="#E8D9FF"/>
<circle cx="913" cy="304" r="1" fill="#E8D9FF"/>
<circle cx="7" cy="304" r="1" fill="#E8D9FF"/>
<circle cx="33" cy="304" r="1" fill="#E8D9FF"/>
<circle cx="59" cy="304" r="1" fill="#E8D9FF"/>
<circle cx="85" cy="304" r="1" fill="#E8D9FF"/>
<circle cx="111" cy="304" r="1" fill="#E8D9FF"/>
<circle cx="137" cy="304" r="1" fill="#E8D9FF"/>
<circle cx="163" cy="304" r="1" fill="#E8D9FF"/>
<circle cx="189" cy="304" r="1" fill="#E8D9FF"/>
<circle cx="215" cy="304" r="1" fill="#E8D9FF"/>
<circle cx="241" cy="304" r="1" fill="#E8D9FF"/>
<circle cx="267" cy="304" r="1" fill="#E8D9FF"/>
<circle cx="293" cy="304" r="1" fill="#E8D9FF"/>
<circle cx="319" cy="304" r="1" fill="#E8D9FF"/>
<circle cx="345" cy="304" r="1" fill="#E8D9FF"/>
<circle cx="371" cy="304" r="1" fill="#E8D9FF"/>
<circle cx="397" cy="304" r="1" fill="#E8D9FF"/>
<circle cx="423" cy="304" r="1" fill="#E8D9FF"/>
<circle cx="449" cy="304" r="1" fill="#E8D9FF"/>
<circle cx="475" cy="304" r="1" fill="#E8D9FF"/>
<circle cx="497" cy="330" r="1" fill="#E8D9FF"/>
<circle cx="523" cy="330" r="1" fill="#E8D9FF"/>
<circle cx="549" cy="330" r="1" fill="#E8D9FF"/>
<circle cx="575" cy="330" r="1" fill="#E8D9FF"/>
<circle cx="601" cy="330" r="1" fill="#E8D9FF"/>
<circle cx="627" cy="330" r="1" fill="#E8D9FF"/>
<circle cx="653" cy="330" r="1" fill="#E8D9FF"/>
<circle cx="679" cy="330" r="1" fill="#E8D9FF"/>
<circle cx="705" cy="330" r="1" fill="#E8D9FF"/>
<circle cx="731" cy="330" r="1" fill="#E8D9FF"/>
<circle cx="757" cy="330" r="1" fill="#E8D9FF"/>
<circle cx="783" cy="330" r="1" fill="#E8D9FF"/>
<circle cx="809" cy="330" r="1" fill="#E8D9FF"/>
<circle cx="835" cy="330" r="1" fill="#E8D9FF"/>
<circle cx="861" cy="330" r="1" fill="#E8D9FF"/>
<circle cx="887" cy="330" r="1" fill="#E8D9FF"/>
<circle cx="913" cy="330" r="1" fill="#E8D9FF"/>
<circle cx="7" cy="330" r="1" fill="#E8D9FF"/>
<circle cx="33" cy="330" r="1" fill="#E8D9FF"/>
<circle cx="59" cy="330" r="1" fill="#E8D9FF"/>
<circle cx="85" cy="330" r="1" fill="#E8D9FF"/>
<circle cx="111" cy="330" r="1" fill="#E8D9FF"/>
<circle cx="137" cy="330" r="1" fill="#E8D9FF"/>
<circle cx="163" cy="330" r="1" fill="#E8D9FF"/>
<circle cx="189" cy="330" r="1" fill="#E8D9FF"/>
<circle cx="215" cy="330" r="1" fill="#E8D9FF"/>
<circle cx="241" cy="330" r="1" fill="#E8D9FF"/>
<circle cx="267" cy="330" r="1" fill="#E8D9FF"/>
<circle cx="293" cy="330" r="1" fill="#E8D9FF"/>
<circle cx="319" cy="330" r="1" fill="#E8D9FF"/>
<circle cx="345" cy="330" r="1" fill="#E8D9FF"/>
<circle cx="371" cy="330" r="1" fill="#E8D9FF"/>
<circle cx="397" cy="330" r="1" fill="#E8D9FF"/>
<circle cx="423" cy="330" r="1" fill="#E8D9FF"/>
<circle cx="449" cy="330" r="1" fill="#E8D9FF"/>
<circle cx="475" cy="330" r="1" fill="#E8D9FF"/>
<circle cx="497" cy="356" r="1" fill="#E8D9FF"/>
<circle cx="523" cy="356" r="1" fill="#E8D9FF"/>
<circle cx="549" cy="356" r="1" fill="#E8D9FF"/>
<circle cx="575" cy="356" r="1" fill="#E8D9FF"/>
<circle cx="601" cy="356" r="1" fill="#E8D9FF"/>
<circle cx="627" cy="356" r="1" fill="#E8D9FF"/>
<circle cx="653" cy="356" r="1" fill="#E8D9FF"/>
<circle cx="679" cy="356" r="1" fill="#E8D9FF"/>
<circle cx="705" cy="356" r="1" fill="#E8D9FF"/>
<circle cx="731" cy="356" r="1" fill="#E8D9FF"/>
<circle cx="757" cy="356" r="1" fill="#E8D9FF"/>
<circle cx="783" cy="356" r="1" fill="#E8D9FF"/>
<circle cx="809" cy="356" r="1" fill="#E8D9FF"/>
<circle cx="835" cy="356" r="1" fill="#E8D9FF"/>
<circle cx="861" cy="356" r="1" fill="#E8D9FF"/>
<circle cx="887" cy="356" r="1" fill="#E8D9FF"/>
<circle cx="913" cy="356" r="1" fill="#E8D9FF"/>
<circle cx="7" cy="356" r="1" fill="#E8D9FF"/>
<circle cx="33" cy="356" r="1" fill="#E8D9FF"/>
<circle cx="59" cy="356" r="1" fill="#E8D9FF"/>
<circle cx="85" cy="356" r="1" fill="#E8D9FF"/>
<circle cx="111" cy="356" r="1" fill="#E8D9FF"/>
<circle cx="137" cy="356" r="1" fill="#E8D9FF"/>
<circle cx="163" cy="356" r="1" fill="#E8D9FF"/>
<circle cx="189" cy="356" r="1" fill="#E8D9FF"/>
<circle cx="215" cy="356" r="1" fill="#E8D9FF"/>
<circle cx="241" cy="356" r="1" fill="#E8D9FF"/>
<circle cx="267" cy="356" r="1" fill="#E8D9FF"/>
<circle cx="293" cy="356" r="1" fill="#E8D9FF"/>
<circle cx="319" cy="356" r="1" fill="#E8D9FF"/>
<circle cx="345" cy="356" r="1" fill="#E8D9FF"/>
<circle cx="371" cy="356" r="1" fill="#E8D9FF"/>
<circle cx="397" cy="356" r="1" fill="#E8D9FF"/>
<circle cx="423" cy="356" r="1" fill="#E8D9FF"/>
<circle cx="449" cy="356" r="1" fill="#E8D9FF"/>
<circle cx="475" cy="356" r="1" fill="#E8D9FF"/>
<circle cx="497" cy="382" r="1" fill="#E8D9FF"/>
<circle cx="523" cy="382" r="1" fill="#E8D9FF"/>
<circle cx="549" cy="382" r="1" fill="#E8D9FF"/>
<circle cx="575" cy="382" r="1" fill="#E8D9FF"/>
<circle cx="601" cy="382" r="1" fill="#E8D9FF"/>
<circle cx="627" cy="382" r="1" fill="#E8D9FF"/>
<circle cx="653" cy="382" r="1" fill="#E8D9FF"/>
<circle cx="679" cy="382" r="1" fill="#E8D9FF"/>
<circle cx="705" cy="382" r="1" fill="#E8D9FF"/>
<circle cx="731" cy="382" r="1" fill="#E8D9FF"/>
<circle cx="757" cy="382" r="1" fill="#E8D9FF"/>
<circle cx="783" cy="382" r="1" fill="#E8D9FF"/>
<circle cx="809" cy="382" r="1" fill="#E8D9FF"/>
<circle cx="835" cy="382" r="1" fill="#E8D9FF"/>
<circle cx="861" cy="382" r="1" fill="#E8D9FF"/>
<circle cx="887" cy="382" r="1" fill="#E8D9FF"/>
<circle cx="913" cy="382" r="1" fill="#E8D9FF"/>
<circle cx="7" cy="382" r="1" fill="#E8D9FF"/>
<circle cx="33" cy="382" r="1" fill="#E8D9FF"/>
<circle cx="59" cy="382" r="1" fill="#E8D9FF"/>
<circle cx="85" cy="382" r="1" fill="#E8D9FF"/>
<circle cx="111" cy="382" r="1" fill="#E8D9FF"/>
<circle cx="137" cy="382" r="1" fill="#E8D9FF"/>
<circle cx="163" cy="382" r="1" fill="#E8D9FF"/>
<circle cx="189" cy="382" r="1" fill="#E8D9FF"/>
<circle cx="215" cy="382" r="1" fill="#E8D9FF"/>
<circle cx="241" cy="382" r="1" fill="#E8D9FF"/>
<circle cx="267" cy="382" r="1" fill="#E8D9FF"/>
<circle cx="293" cy="382" r="1" fill="#E8D9FF"/>
<circle cx="319" cy="382" r="1" fill="#E8D9FF"/>
<circle cx="345" cy="382" r="1" fill="#E8D9FF"/>
<circle cx="371" cy="382" r="1" fill="#E8D9FF"/>
<circle cx="397" cy="382" r="1" fill="#E8D9FF"/>
<circle cx="423" cy="382" r="1" fill="#E8D9FF"/>
<circle cx="449" cy="382" r="1" fill="#E8D9FF"/>
<circle cx="475" cy="382" r="1" fill="#E8D9FF"/>
<circle cx="497" cy="408" r="1" fill="#E8D9FF"/>
<circle cx="523" cy="408" r="1" fill="#E8D9FF"/>
<circle cx="549" cy="408" r="1" fill="#E8D9FF"/>
<circle cx="575" cy="408" r="1" fill="#E8D9FF"/>
<circle cx="601" cy="408" r="1" fill="#E8D9FF"/>
<circle cx="627" cy="408" r="1" fill="#E8D9FF"/>
<circle cx="653" cy="408" r="1" fill="#E8D9FF"/>
<circle cx="679" cy="408" r="1" fill="#E8D9FF"/>
<circle cx="705" cy="408" r="1" fill="#E8D9FF"/>
<circle cx="731" cy="408" r="1" fill="#E8D9FF"/>
<circle cx="757" cy="408" r="1" fill="#E8D9FF"/>
<circle cx="783" cy="408" r="1" fill="#E8D9FF"/>
<circle cx="809" cy="408" r="1" fill="#E8D9FF"/>
<circle cx="835" cy="408" r="1" fill="#E8D9FF"/>
<circle cx="861" cy="408" r="1" fill="#E8D9FF"/>
<circle cx="887" cy="408" r="1" fill="#E8D9FF"/>
<circle cx="913" cy="408" r="1" fill="#E8D9FF"/>
<circle cx="7" cy="408" r="1" fill="#E8D9FF"/>
<circle cx="33" cy="408" r="1" fill="#E8D9FF"/>
<circle cx="59" cy="408" r="1" fill="#E8D9FF"/>
<circle cx="85" cy="408" r="1" fill="#E8D9FF"/>
<circle cx="111" cy="408" r="1" fill="#E8D9FF"/>
<circle cx="137" cy="408" r="1" fill="#E8D9FF"/>
<circle cx="163" cy="408" r="1" fill="#E8D9FF"/>
<circle cx="189" cy="408" r="1" fill="#E8D9FF"/>
<circle cx="215" cy="408" r="1" fill="#E8D9FF"/>
<circle cx="241" cy="408" r="1" fill="#E8D9FF"/>
<circle cx="267" cy="408" r="1" fill="#E8D9FF"/>
<circle cx="293" cy="408" r="1" fill="#E8D9FF"/>
<circle cx="319" cy="408" r="1" fill="#E8D9FF"/>
<circle cx="345" cy="408" r="1" fill="#E8D9FF"/>
<circle cx="371" cy="408" r="1" fill="#E8D9FF"/>
<circle cx="397" cy="408" r="1" fill="#E8D9FF"/>
<circle cx="423" cy="408" r="1" fill="#E8D9FF"/>
<circle cx="449" cy="408" r="1" fill="#E8D9FF"/>
<circle cx="475" cy="408" r="1" fill="#E8D9FF"/>
<circle cx="497" cy="434" r="1" fill="#E8D9FF"/>
<circle cx="523" cy="434" r="1" fill="#E8D9FF"/>
<circle cx="549" cy="434" r="1" fill="#E8D9FF"/>
<circle cx="575" cy="434" r="1" fill="#E8D9FF"/>
<circle cx="601" cy="434" r="1" fill="#E8D9FF"/>
<circle cx="627" cy="434" r="1" fill="#E8D9FF"/>
<circle cx="653" cy="434" r="1" fill="#E8D9FF"/>
<circle cx="679" cy="434" r="1" fill="#E8D9FF"/>
<circle cx="705" cy="434" r="1" fill="#E8D9FF"/>
<circle cx="731" cy="434" r="1" fill="#E8D9FF"/>
<circle cx="757" cy="434" r="1" fill="#E8D9FF"/>
<circle cx="783" cy="434" r="1" fill="#E8D9FF"/>
<circle cx="809" cy="434" r="1" fill="#E8D9FF"/>
<circle cx="835" cy="434" r="1" fill="#E8D9FF"/>
<circle cx="861" cy="434" r="1" fill="#E8D9FF"/>
<circle cx="887" cy="434" r="1" fill="#E8D9FF"/>
<circle cx="913" cy="434" r="1" fill="#E8D9FF"/>
<circle cx="7" cy="434" r="1" fill="#E8D9FF"/>
<circle cx="33" cy="434" r="1" fill="#E8D9FF"/>
<circle cx="59" cy="434" r="1" fill="#E8D9FF"/>
<circle cx="85" cy="434" r="1" fill="#E8D9FF"/>
<circle cx="111" cy="434" r="1" fill="#E8D9FF"/>
<circle cx="137" cy="434" r="1" fill="#E8D9FF"/>
<circle cx="163" cy="434" r="1" fill="#E8D9FF"/>
<circle cx="189" cy="434" r="1" fill="#E8D9FF"/>
<circle cx="215" cy="434" r="1" fill="#E8D9FF"/>
<circle cx="241" cy="434" r="1" fill="#E8D9FF"/>
<circle cx="267" cy="434" r="1" fill="#E8D9FF"/>
<circle cx="293" cy="434" r="1" fill="#E8D9FF"/>
<circle cx="319" cy="434" r="1" fill="#E8D9FF"/>
<circle cx="345" cy="434" r="1" fill="#E8D9FF"/>
<circle cx="371" cy="434" r="1" fill="#E8D9FF"/>
<circle cx="397" cy="434" r="1" fill="#E8D9FF"/>
<circle cx="423" cy="434" r="1" fill="#E8D9FF"/>
<circle cx="449" cy="434" r="1" fill="#E8D9FF"/>
<circle cx="475" cy="434" r="1" fill="#E8D9FF"/>
<circle cx="497" cy="460" r="1" fill="#E8D9FF"/>
<circle cx="523" cy="460" r="1" fill="#E8D9FF"/>
<circle cx="549" cy="460" r="1" fill="#E8D9FF"/>
<circle cx="575" cy="460" r="1" fill="#E8D9FF"/>
<circle cx="601" cy="460" r="1" fill="#E8D9FF"/>
<circle cx="627" cy="460" r="1" fill="#E8D9FF"/>
<circle cx="653" cy="460" r="1" fill="#E8D9FF"/>
<circle cx="679" cy="460" r="1" fill="#E8D9FF"/>
<circle cx="705" cy="460" r="1" fill="#E8D9FF"/>
<circle cx="731" cy="460" r="1" fill="#E8D9FF"/>
<circle cx="757" cy="460" r="1" fill="#E8D9FF"/>
<circle cx="783" cy="460" r="1" fill="#E8D9FF"/>
<circle cx="809" cy="460" r="1" fill="#E8D9FF"/>
<circle cx="835" cy="460" r="1" fill="#E8D9FF"/>
<circle cx="861" cy="460" r="1" fill="#E8D9FF"/>
<circle cx="887" cy="460" r="1" fill="#E8D9FF"/>
<circle cx="913" cy="460" r="1" fill="#E8D9FF"/>
<circle cx="7" cy="460" r="1" fill="#E8D9FF"/>
<circle cx="33" cy="460" r="1" fill="#E8D9FF"/>
<circle cx="59" cy="460" r="1" fill="#E8D9FF"/>
<circle cx="85" cy="460" r="1" fill="#E8D9FF"/>
<circle cx="111" cy="460" r="1" fill="#E8D9FF"/>
<circle cx="137" cy="460" r="1" fill="#E8D9FF"/>
<circle cx="163" cy="460" r="1" fill="#E8D9FF"/>
<circle cx="189" cy="460" r="1" fill="#E8D9FF"/>
<circle cx="215" cy="460" r="1" fill="#E8D9FF"/>
<circle cx="241" cy="460" r="1" fill="#E8D9FF"/>
<circle cx="267" cy="460" r="1" fill="#E8D9FF"/>
<circle cx="293" cy="460" r="1" fill="#E8D9FF"/>
<circle cx="319" cy="460" r="1" fill="#E8D9FF"/>
<circle cx="345" cy="460" r="1" fill="#E8D9FF"/>
<circle cx="371" cy="460" r="1" fill="#E8D9FF"/>
<circle cx="397" cy="460" r="1" fill="#E8D9FF"/>
<circle cx="423" cy="460" r="1" fill="#E8D9FF"/>
<circle cx="449" cy="460" r="1" fill="#E8D9FF"/>
<circle cx="475" cy="460" r="1" fill="#E8D9FF"/>
<circle cx="497" cy="486" r="1" fill="#E8D9FF"/>
<circle cx="523" cy="486" r="1" fill="#E8D9FF"/>
<circle cx="549" cy="486" r="1" fill="#E8D9FF"/>
<circle cx="575" cy="486" r="1" fill="#E8D9FF"/>
<circle cx="601" cy="486" r="1" fill="#E8D9FF"/>
<circle cx="627" cy="486" r="1" fill="#E8D9FF"/>
<circle cx="653" cy="486" r="1" fill="#E8D9FF"/>
<circle cx="679" cy="486" r="1" fill="#E8D9FF"/>
<circle cx="705" cy="486" r="1" fill="#E8D9FF"/>
<circle cx="731" cy="486" r="1" fill="#E8D9FF"/>
<circle cx="757" cy="486" r="1" fill="#E8D9FF"/>
<circle cx="783" cy="486" r="1" fill="#E8D9FF"/>
<circle cx="809" cy="486" r="1" fill="#E8D9FF"/>
<circle cx="835" cy="486" r="1" fill="#E8D9FF"/>
<circle cx="861" cy="486" r="1" fill="#E8D9FF"/>
<circle cx="887" cy="486" r="1" fill="#E8D9FF"/>
<circle cx="913" cy="486" r="1" fill="#E8D9FF"/>
<circle cx="7" cy="486" r="1" fill="#E8D9FF"/>
<circle cx="33" cy="486" r="1" fill="#E8D9FF"/>
<circle cx="59" cy="486" r="1" fill="#E8D9FF"/>
<circle cx="85" cy="486" r="1" fill="#E8D9FF"/>
<circle cx="111" cy="486" r="1" fill="#E8D9FF"/>
<circle cx="137" cy="486" r="1" fill="#E8D9FF"/>
<circle cx="163" cy="486" r="1" fill="#E8D9FF"/>
<circle cx="189" cy="486" r="1" fill="#E8D9FF"/>
<circle cx="215" cy="486" r="1" fill="#E8D9FF"/>
<circle cx="241" cy="486" r="1" fill="#E8D9FF"/>
<circle cx="267" cy="486" r="1" fill="#E8D9FF"/>
<circle cx="293" cy="486" r="1" fill="#E8D9FF"/>
<circle cx="319" cy="486" r="1" fill="#E8D9FF"/>
<circle cx="345" cy="486" r="1" fill="#E8D9FF"/>
<circle cx="371" cy="486" r="1" fill="#E8D9FF"/>
<circle cx="397" cy="486" r="1" fill="#E8D9FF"/>
<circle cx="423" cy="486" r="1" fill="#E8D9FF"/>
<circle cx="449" cy="486" r="1" fill="#E8D9FF"/>
<circle cx="475" cy="486" r="1" fill="#E8D9FF"/>
<circle cx="497" cy="512" r="1" fill="#E8D9FF"/>
<circle cx="523" cy="512" r="1" fill="#E8D9FF"/>
<circle cx="549" cy="512" r="1" fill="#E8D9FF"/>
<circle cx="575" cy="512" r="1" fill="#E8D9FF"/>
<circle cx="601" cy="512" r="1" fill="#E8D9FF"/>
<circle cx="627" cy="512" r="1" fill="#E8D9FF"/>
<circle cx="653" cy="512" r="1" fill="#E8D9FF"/>
<circle cx="679" cy="512" r="1" fill="#E8D9FF"/>
<circle cx="705" cy="512" r="1" fill="#E8D9FF"/>
<circle cx="731" cy="512" r="1" fill="#E8D9FF"/>
<circle cx="757" cy="512" r="1" fill="#E8D9FF"/>
<circle cx="783" cy="512" r="1" fill="#E8D9FF"/>
<circle cx="809" cy="512" r="1" fill="#E8D9FF"/>
<circle cx="835" cy="512" r="1" fill="#E8D9FF"/>
<circle cx="861" cy="512" r="1" fill="#E8D9FF"/>
<circle cx="887" cy="512" r="1" fill="#E8D9FF"/>
<circle cx="913" cy="512" r="1" fill="#E8D9FF"/>
<circle cx="7" cy="512" r="1" fill="#E8D9FF"/>
<circle cx="33" cy="512" r="1" fill="#E8D9FF"/>
<circle cx="59" cy="512" r="1" fill="#E8D9FF"/>
<circle cx="85" cy="512" r="1" fill="#E8D9FF"/>
<circle cx="111" cy="512" r="1" fill="#E8D9FF"/>
<circle cx="137" cy="512" r="1" fill="#E8D9FF"/>
<circle cx="163" cy="512" r="1" fill="#E8D9FF"/>
<circle cx="189" cy="512" r="1" fill="#E8D9FF"/>
<circle cx="215" cy="512" r="1" fill="#E8D9FF"/>
<circle cx="241" cy="512" r="1" fill="#E8D9FF"/>
<circle cx="267" cy="512" r="1" fill="#E8D9FF"/>
<circle cx="293" cy="512" r="1" fill="#E8D9FF"/>
<circle cx="319" cy="512" r="1" fill="#E8D9FF"/>
<circle cx="345" cy="512" r="1" fill="#E8D9FF"/>
<circle cx="371" cy="512" r="1" fill="#E8D9FF"/>
<circle cx="397" cy="512" r="1" fill="#E8D9FF"/>
<circle cx="423" cy="512" r="1" fill="#E8D9FF"/>
<circle cx="449" cy="512" r="1" fill="#E8D9FF"/>
<circle cx="475" cy="512" r="1" fill="#E8D9FF"/>
<rect width="4" height="536" fill="#8C61CB"/>
</g>
<defs>
<clipPath id="clip0_17141_178360">
<rect width="928" height="536" rx="8" fill="white"/>
</clipPath>
</defs>
</svg>
