<svg width="21" height="20" viewBox="0 0 21 20" fill="none" xmlns="http://www.w3.org/2000/svg">
<path d="M10.5 0C5.12391 0 0.75 4.37391 0.75 9.75C0.75 15.1261 5.12391 19.5 10.5 19.5C15.8761 19.5 20.25 15.1261 20.25 9.75C20.25 4.37391 15.8761 0 10.5 0ZM14.25 10.5H11.25V13.5C11.25 13.6989 11.171 13.8897 11.0303 14.0303C10.8897 14.171 10.6989 14.25 10.5 14.25C10.3011 14.25 10.1103 14.171 9.96967 14.0303C9.82902 13.8897 9.75 13.6989 9.75 13.5V10.5H6.75C6.55109 10.5 6.36032 10.421 6.21967 10.2803C6.07902 10.1397 6 9.94891 6 9.75C6 9.55109 6.07902 9.36032 6.21967 9.21967C6.36032 9.07902 6.55109 9 6.75 9H9.75V6C9.75 5.80109 9.82902 5.61032 9.96967 5.46967C10.1103 5.32902 10.3011 5.25 10.5 5.25C10.6989 5.25 10.8897 5.32902 11.0303 5.46967C11.171 5.61032 11.25 5.80109 11.25 6V9H14.25C14.4489 9 14.6397 9.07902 14.7803 9.21967C14.921 9.36032 15 9.55109 15 9.75C15 9.94891 14.921 10.1397 14.7803 10.2803C14.6397 10.421 14.4489 10.5 14.25 10.5Z" fill="#504F4F"/>
</svg>
