<svg width="42" height="41" viewBox="0 0 42 41" fill="none" xmlns="http://www.w3.org/2000/svg">
<path d="M22.3998 15.0918C22.3998 14.3186 21.773 13.6918 20.9998 13.6918C20.2266 13.6918 19.5998 14.3186 19.5998 15.0918L19.5998 19.2919H15.3998C14.6266 19.2919 13.9998 19.9187 13.9998 20.6919C13.9998 21.4651 14.6266 22.0919 15.3998 22.0919H19.5998V26.2918C19.5998 27.065 20.2266 27.6918 20.9998 27.6918C21.773 27.6918 22.3998 27.065 22.3998 26.2918V22.0919H26.5998C27.373 22.0919 27.9998 21.4651 27.9998 20.6919C27.9998 19.9187 27.373 19.2919 26.5998 19.2919H22.3998V15.0918Z" fill="#504F4F"/>
<path fill-rule="evenodd" clip-rule="evenodd" d="M20.9998 0.625159C9.91726 0.625159 0.933105 9.60931 0.933105 20.6918C0.933105 31.7743 9.91726 40.7585 20.9998 40.7585C32.0823 40.7585 41.0664 31.7743 41.0664 20.6918C41.0664 9.60931 32.0823 0.625159 20.9998 0.625159ZM3.73311 20.6918C3.73311 11.1557 11.4637 3.42516 20.9998 3.42516C30.5359 3.42516 38.2664 11.1557 38.2664 20.6918C38.2664 30.2279 30.5359 37.9585 20.9998 37.9585C11.4637 37.9585 3.73311 30.2279 3.73311 20.6918Z" fill="#504F4F"/>
</svg>