<svg width="16" height="16" viewBox="0 0 16 16" fill="none" xmlns="http://www.w3.org/2000/svg">
<path fill-rule="evenodd" clip-rule="evenodd" d="M7.96167 0.833252L8.99992 0.833252C9.27606 0.833252 9.49992 1.05711 9.49992 1.33325C9.49992 1.60939 9.27606 1.83325 8.99992 1.83325H7.99992C6.41444 1.83325 5.27562 1.83431 4.40897 1.95083C3.5567 2.06542 3.04289 2.28335 2.66312 2.66312C2.28335 3.04289 2.06542 3.5567 1.95083 4.40897C1.83431 5.27562 1.83325 6.41443 1.83325 7.99992C1.83325 9.5854 1.83431 10.7242 1.95083 11.5909C2.06542 12.4431 2.28335 12.9569 2.66312 13.3367C3.04289 13.7165 3.5567 13.9344 4.40897 14.049C5.27562 14.1655 6.41444 14.1666 7.99992 14.1666C9.5854 14.1666 10.7242 14.1655 11.5909 14.049C12.4431 13.9344 12.957 13.7165 13.3367 13.3367C13.7165 12.9569 13.9344 12.4431 14.049 11.5909C14.1655 10.7242 14.1666 9.5854 14.1666 7.99992V6.99992C14.1666 6.72378 14.3904 6.49992 14.6666 6.49992C14.9427 6.49992 15.1666 6.72378 15.1666 6.99992V8.03817C15.1666 9.5771 15.1666 10.7831 15.0401 11.7241C14.9106 12.6873 14.6404 13.4473 14.0438 14.0438C13.4473 14.6404 12.6873 14.9106 11.7241 15.0401C10.7831 15.1666 9.5771 15.1666 8.03817 15.1666H7.96167C6.42274 15.1666 5.21671 15.1666 4.27572 15.0401C3.31257 14.9106 2.55255 14.6404 1.95601 14.0438C1.35947 13.4473 1.08924 12.6873 0.95975 11.7241C0.833237 10.7831 0.833244 9.5771 0.833252 8.03817V7.96167C0.833244 6.42274 0.833237 5.21671 0.95975 4.27572C1.08924 3.31257 1.35947 2.55255 1.95601 1.95601C2.55255 1.35947 3.31257 1.08924 4.27572 0.95975C5.21671 0.833237 6.42274 0.833244 7.96167 0.833252ZM11.1803 1.5172C12.0922 0.605271 13.5707 0.605271 14.4826 1.5172C15.3946 2.42912 15.3946 3.90764 14.4826 4.81956L10.0506 9.25163C9.80306 9.49919 9.648 9.65426 9.47497 9.78922C9.27118 9.94818 9.05067 10.0845 8.81735 10.1957C8.61926 10.2901 8.41122 10.3594 8.07911 10.4701L6.14276 11.1155C5.78526 11.2347 5.39112 11.1416 5.12466 10.8752C4.8582 10.6087 4.76515 10.2146 4.88432 9.85708L5.52976 7.92074C5.64044 7.58862 5.70978 7.38058 5.80418 7.18249C5.91538 6.94917 6.05166 6.72866 6.21062 6.52486C6.34558 6.35183 6.50065 6.19678 6.74822 5.94925L11.1803 1.5172ZM13.7755 2.2243C13.2541 1.7029 12.4088 1.7029 11.8874 2.2243L11.6363 2.47538C11.6514 2.53929 11.6726 2.61543 11.7021 2.70036C11.7976 2.97573 11.9784 3.33839 12.3199 3.67991C12.6614 4.02143 13.0241 4.20223 13.2995 4.29777C13.3844 4.32723 13.4605 4.3484 13.5245 4.36354L13.7755 4.11246C14.2969 3.59106 14.2969 2.7457 13.7755 2.2243ZM12.7367 5.15131C12.3927 5.00338 11.992 4.76622 11.6128 4.38702C11.2336 4.00782 10.9965 3.60713 10.8485 3.26316L7.47826 6.63342C7.20058 6.9111 7.09168 7.02122 6.99913 7.13988C6.88484 7.28641 6.78685 7.44495 6.70691 7.61271C6.64216 7.74856 6.59237 7.89521 6.46819 8.26775L6.18026 9.13154L6.8683 9.81958L7.73209 9.53165C8.10463 9.40747 8.25128 9.35767 8.38713 9.29293C8.55488 9.21298 8.71342 9.115 8.85995 9.00071C8.97862 8.90815 9.08874 8.79926 9.36641 8.52158L12.7367 5.15131Z" fill="#504F4F"/>
</svg>
