<svg width="20" height="20" viewBox="0 0 20 20" fill="none" xmlns="http://www.w3.org/2000/svg">
<path fill-rule="evenodd" clip-rule="evenodd" d="M8.83794 4.00518L4.83794 7.56074C4.41096 7.94027 4.16667 8.48428 4.16667 9.05556V15.6574H3.5C3.22386 15.6574 3 15.8813 3 16.1574C3 16.4336 3.22386 16.6574 3.5 16.6574H16.8333C17.1095 16.6574 17.3333 16.4336 17.3333 16.1574C17.3333 15.8813 17.1095 15.6574 16.8333 15.6574H16.1667V9.05556C16.1667 8.48428 15.9224 7.94027 15.4954 7.56074L11.4954 4.00518C10.7376 3.33161 9.59571 3.33161 8.83794 4.00518ZM11.5347 8.99076C12.1337 8.99074 12.6331 8.99072 13.0297 9.04403C13.4482 9.1003 13.826 9.22408 14.1297 9.52773C14.4333 9.83137 14.5571 10.2092 14.6134 10.6278C14.6667 11.0243 14.6667 11.5238 14.6667 12.1228L14.6667 15.6574H13.6667H6.66667H5.66667L5.66667 12.1228C5.66665 11.5238 5.66663 11.0243 5.71994 10.6278C5.77621 10.2092 5.89999 9.83137 6.20364 9.52773C6.50728 9.22408 6.88515 9.1003 7.30368 9.04403C7.7002 8.99072 8.19968 8.99074 8.79867 8.99076H11.5347Z" fill="white"/>
<path opacity="0.5" d="M11.535 8.99121H8.79899H8.79897C8.2 8.99119 7.70052 8.99118 7.30401 9.04449C6.88548 9.10076 6.50761 9.22454 6.20397 9.52818C5.90032 9.83183 5.77654 10.2097 5.72027 10.6282C5.66696 11.0247 5.66697 11.5242 5.66699 12.1232V12.1232L5.66699 15.6578H14.667L14.667 12.1232C14.667 11.5242 14.667 11.0247 14.6137 10.6282C14.5575 10.2097 14.4337 9.83183 14.13 9.52818C13.8264 9.22454 13.4485 9.10076 13.03 9.04449C12.6335 8.99118 12.134 8.99119 11.535 8.99121H11.535Z" fill="white"/>
<path d="M8.16699 11.3242C7.89085 11.3242 7.66699 11.5481 7.66699 11.8242C7.66699 12.1004 7.89085 12.3242 8.16699 12.3242H12.167C12.4431 12.3242 12.667 12.1004 12.667 11.8242C12.667 11.5481 12.4431 11.3242 12.167 11.3242H8.16699Z" fill="white"/>
<path d="M8.16699 13.3242C7.89085 13.3242 7.66699 13.5481 7.66699 13.8242C7.66699 14.1004 7.89085 14.3242 8.16699 14.3242H12.167C12.4431 14.3242 12.667 14.1004 12.667 13.8242C12.667 13.5481 12.4431 13.3242 12.167 13.3242H8.16699Z" fill="white"/>
</svg>
