<svg width="21" height="23" viewBox="0 0 21 23" fill="none" xmlns="http://www.w3.org/2000/svg">
<g clip-path="url(#clip0_8333_112880)">
<path d="M20.1847 0.673874L18.4001 20.666L10.3782 22.8899L2.37845 20.669L0.595703 0.673874H20.1847Z" fill="#C2C2C2"/>
<path d="M10.3906 21.19L16.8727 19.3929L18.3977 2.30872H10.3906V21.19Z" fill="#9A9A9A"/>
<path d="M6.9208 7.21346H10.39V4.76113H4.24072L4.29939 5.41904L4.90216 12.177H10.39V9.72468H7.14494L6.9208 7.21346ZM7.47351 13.4032H5.01174L5.35528 17.2537L10.3787 18.6482L10.39 18.6451V16.0936L10.3793 16.0965L7.64812 15.359L7.47351 13.4032Z" fill="#EBEBEB"/>
<path d="M10.3814 12.177H13.4012L13.1165 15.3575L10.3813 16.0957V18.647L15.4088 17.2537L15.4456 16.8394L16.022 10.3832L16.0818 9.72468H10.3814V12.177ZM10.3814 7.20747V7.21346H16.305L16.3541 6.66228L16.4659 5.41904L16.5245 4.76113H10.3814V7.20754V7.20747Z" fill="white"/>
</g>
<defs>
<clipPath id="clip0_8333_112880">
<rect width="19.6573" height="22.268" fill="white" transform="translate(0.54248 0.691833)"/>
</clipPath>
</defs>
</svg>
