<svg width="65" height="64" viewBox="0 0 65 64" fill="none" xmlns="http://www.w3.org/2000/svg">
<path fill-rule="evenodd" clip-rule="evenodd" d="M31.4331 12.2669C21.1238 12.2669 12.7664 20.6242 12.7664 30.9336C12.7664 41.2429 21.1238 49.6002 31.4331 49.6002C41.7424 49.6002 50.0997 41.2429 50.0997 30.9336C50.0997 20.6242 41.7424 12.2669 31.4331 12.2669ZM9.56641 30.9336C9.56641 18.8569 19.3564 9.06689 31.4331 9.06689C43.5097 9.06689 53.2997 18.8569 53.2997 30.9336C53.2997 43.0102 43.5097 52.8002 31.4331 52.8002C19.3564 52.8002 9.56641 43.0102 9.56641 30.9336Z" fill="#858585"/>
<path fill-rule="evenodd" clip-rule="evenodd" d="M45.2362 44.7352C45.861 44.1104 46.8741 44.1104 47.4989 44.7352L54.9656 52.2019C55.5905 52.8267 55.5905 53.8398 54.9656 54.4646C54.3408 55.0895 53.3277 55.0895 52.7029 54.4646L45.2362 46.998C44.6114 46.3731 44.6114 45.3601 45.2362 44.7352Z" fill="#858585"/>
<path fill-rule="evenodd" clip-rule="evenodd" d="M36.3362 26.0305C36.961 26.6554 36.961 27.6684 36.3362 28.2933L33.6963 30.9331L36.3362 33.573C36.961 34.1978 36.961 35.2109 36.3362 35.8358C35.7114 36.4606 34.6983 36.4606 34.0735 35.8358L31.4336 33.1959L28.7937 35.8358C28.1689 36.4606 27.1558 36.4606 26.531 35.8358C25.9061 35.2109 25.9061 34.1978 26.531 33.573L29.1709 30.9331L26.531 28.2933C25.9061 27.6684 25.9061 26.6554 26.531 26.0305C27.1558 25.4057 28.1689 25.4057 28.7937 26.0305L31.4336 28.6704L34.0735 26.0305C34.6983 25.4057 35.7114 25.4057 36.3362 26.0305Z" fill="#858585"/>
</svg>
