<svg width="16" height="16" viewBox="0 0 16 16" fill="none" xmlns="http://www.w3.org/2000/svg">
      <path d="M4.99989 12.1561C4.84096 12.1563 4.68742 12.0985 4.56801 11.9936L0.568015 8.49364C0.497664 8.43205 0.441287 8.35613 0.402662 8.27098C0.364037 8.18583 0.344055 8.0934 0.344055 7.9999C0.344055 7.90639 0.364037 7.81397 0.402662 7.72881C0.441287 7.64366 0.497664 7.56774 0.568015 7.50615L4.56801 4.00614C4.69901 3.89152 4.87017 3.83363 5.04384 3.8452C5.21752 3.85678 5.37949 3.93687 5.49411 4.06786C5.60873 4.19886 5.66662 4.37002 5.65505 4.54369C5.64347 4.71737 5.56338 4.87933 5.43239 4.99396L1.99645 7.9999L5.43208 11.0058C5.53263 11.0937 5.60397 11.2102 5.63656 11.3398C5.66915 11.4693 5.66144 11.6057 5.61447 11.7307C5.56749 11.8557 5.48348 11.9635 5.37367 12.0395C5.26385 12.1155 5.13345 12.1562 4.99989 12.1561Z" fill="#8C61CB"/>
      <path d="M10.9999 12.1561C10.8663 12.1563 10.7359 12.1156 10.626 12.0396C10.5161 11.9636 10.4321 11.8559 10.3851 11.7308C10.338 11.6058 10.3303 11.4694 10.3629 11.3398C10.3955 11.2103 10.4668 11.0938 10.5674 11.0058L14.0033 7.99989L10.5677 4.99396C10.4367 4.87933 10.3566 4.71737 10.345 4.54369C10.3335 4.37002 10.3914 4.19886 10.506 4.06786C10.6206 3.93687 10.7826 3.85678 10.9563 3.8452C11.1299 3.83363 11.3011 3.89152 11.4321 4.00614L15.4321 7.50614C15.5024 7.56774 15.5588 7.64366 15.5974 7.72881C15.6361 7.81396 15.6561 7.90639 15.6561 7.99989C15.6561 8.0934 15.6361 8.18582 15.5974 8.27098C15.5588 8.35613 15.5024 8.43205 15.4321 8.49364L11.4321 11.9936C11.3126 12.0987 11.1589 12.1564 10.9999 12.1561Z" fill="#8C61CB"/>
      <path d="M6.49986 13.6567C6.39766 13.6567 6.29688 13.6328 6.20555 13.5869C6.11421 13.5411 6.03485 13.4745 5.97379 13.3926C5.91272 13.3106 5.87164 13.2155 5.85381 13.1149C5.83598 13.0143 5.84191 12.9109 5.87111 12.8129L8.87111 2.81294C8.8937 2.72808 8.9331 2.64862 8.98697 2.57926C9.04084 2.50991 9.10807 2.45207 9.1847 2.40918C9.26133 2.36628 9.34579 2.3392 9.43307 2.32954C9.52035 2.31988 9.60869 2.32784 9.69284 2.35294C9.77699 2.37804 9.85525 2.41978 9.92298 2.47568C9.9907 2.53157 10.0465 2.60049 10.0871 2.67836C10.1277 2.75622 10.1523 2.84144 10.1594 2.92897C10.1664 3.0165 10.1559 3.10456 10.1283 3.18794L7.12829 13.1879C7.08794 13.3233 7.00499 13.442 6.89177 13.5265C6.77855 13.6109 6.6411 13.6566 6.49986 13.6567Z" fill="#8C61CB"/>
  </svg>