<svg width="20" height="20" viewBox="0 0 20 20" fill="none" xmlns="http://www.w3.org/2000/svg">
<path fill-rule="evenodd" clip-rule="evenodd" d="M9.96142 2.83331H10.0379C11.5769 2.8333 12.7829 2.8333 13.7239 2.95981C14.687 3.0893 15.447 3.35953 16.0436 3.95607C16.6401 4.55261 16.9103 5.31263 17.0398 6.27578C17.1664 7.21678 17.1663 8.4228 17.1663 9.96173V9.99998H17.1591C17.1663 10.3859 17.1663 10.8199 17.1663 11.3109V11.3557C17.1663 12.2702 17.1663 12.9871 17.1193 13.5634C17.0713 14.1501 16.9721 14.6349 16.7485 15.0736C16.381 15.7949 15.7946 16.3813 15.0733 16.7488C14.6346 16.9724 14.1498 17.0716 13.5631 17.1196C12.9868 17.1667 12.2699 17.1666 11.3554 17.1666H8.64395C7.72948 17.1666 7.01253 17.1667 6.4363 17.1196C5.84954 17.0716 5.3648 16.9724 4.92604 16.7488C4.20476 16.3813 3.61833 15.7949 3.25082 15.0736C3.02726 14.6349 2.92802 14.1501 2.88008 13.5634C2.833 12.9871 2.833 12.2702 2.83301 11.3557V11.3109C2.83301 10.8199 2.833 10.3859 2.84029 9.99998H2.83301L2.83301 9.96173C2.833 8.4228 2.83299 7.21677 2.95951 6.27578C3.089 5.31263 3.35923 4.55261 3.95577 3.95607C4.55231 3.35953 5.31232 3.0893 6.27548 2.95981C7.21647 2.8333 8.42249 2.8333 9.96142 2.83331ZM3.92099 6.65796C4.21154 6.35981 4.55052 6.10913 4.92604 5.91779C5.3648 5.69423 5.84954 5.59499 6.4363 5.54705C7.01253 5.49997 7.72949 5.49998 8.64397 5.49998H11.3554C12.2699 5.49998 12.9868 5.49997 13.5631 5.54705C14.1498 5.59499 14.6346 5.69423 15.0733 5.91779C15.4488 6.10913 15.7878 6.35981 16.0784 6.65797C16.0694 6.57254 16.0596 6.48961 16.0488 6.40903C15.9342 5.55676 15.7162 5.04295 15.3365 4.66318C14.9567 4.28341 14.4429 4.06548 13.5906 3.95089C12.724 3.83438 11.5852 3.83331 9.99967 3.83331C8.41419 3.83331 7.27538 3.83438 6.40873 3.95089C5.55646 4.06548 5.04264 4.28341 4.66287 4.66318C4.2831 5.04295 4.06517 5.55676 3.95059 6.40903C3.93975 6.48961 3.92992 6.57254 3.92099 6.65796ZM6.51773 6.54373C5.99281 6.58662 5.65432 6.66904 5.38003 6.80879C4.84691 7.08044 4.41346 7.51388 4.14182 8.04701C4.00207 8.32129 3.91965 8.65978 3.87676 9.1847C3.8334 9.71546 3.83301 10.3916 3.83301 11.3333C3.83301 12.275 3.8334 12.9512 3.87676 13.4819C3.91965 14.0068 4.00207 14.3453 4.14182 14.6196C4.41346 15.1527 4.84691 15.5862 5.38003 15.8578C5.65432 15.9976 5.99281 16.08 6.51773 16.1229C7.04849 16.1663 7.72467 16.1666 8.66634 16.1666H11.333C12.2747 16.1666 12.9509 16.1663 13.4816 16.1229C14.0065 16.08 14.345 15.9976 14.6193 15.8578C15.1524 15.5862 15.5859 15.1527 15.8575 14.6196C15.9973 14.3453 16.0797 14.0068 16.1226 13.4819C16.166 12.9512 16.1663 12.275 16.1663 11.3333C16.1663 10.3916 16.166 9.71546 16.1226 9.1847C16.0797 8.65978 15.9973 8.32129 15.8575 8.04701C15.5859 7.51388 15.1524 7.08044 14.6193 6.80879C14.345 6.66904 14.0065 6.58662 13.4816 6.54373C12.9509 6.50037 12.2747 6.49998 11.333 6.49998H8.66634C7.72467 6.49998 7.04849 6.50037 6.51773 6.54373Z" fill="white"/>
<path fill-rule="evenodd" clip-rule="evenodd" d="M3.5 9.5V12L4 15L6 16.5H15L16 15L16.5 13V10.5L16 7.5L14.5 6.5H12H8.5H6L4 7.5L3.5 9.5ZM10.3918 9.02066C10.2969 8.90205 10.1532 8.83301 10.0013 8.83301C9.84943 8.83301 9.70577 8.90205 9.61089 9.02066L8.27755 10.6873C8.10505 10.903 8.14001 11.2176 8.35564 11.3901C8.57127 11.5626 8.88592 11.5277 9.05842 11.312L9.50132 10.7584V13.333C9.50132 13.6091 9.72518 13.833 10.0013 13.833C10.2775 13.833 10.5013 13.6091 10.5013 13.333V10.7584L10.9442 11.312C11.1167 11.5277 11.4314 11.5626 11.647 11.3901C11.8626 11.2176 11.8976 10.903 11.7251 10.6873L10.3918 9.02066Z" fill="white"/>
</svg>
