<svg width="20" height="20" viewBox="0 0 20 20" fill="none" xmlns="http://www.w3.org/2000/svg">
<path fill-rule="evenodd" clip-rule="evenodd" d="M3.69681 7.82003C3.3335 8.53307 3.3335 9.46649 3.3335 11.3333C3.3335 13.2002 3.3335 14.1336 3.69681 14.8466C4.01639 15.4738 4.52632 15.9838 5.15353 16.3034C5.86657 16.6667 6.79999 16.6667 8.66683 16.6667H11.3335C13.2003 16.6667 14.1338 16.6667 14.8468 16.3034C15.474 15.9838 15.9839 15.4738 16.3035 14.8466C16.6668 14.1336 16.6668 13.2002 16.6668 11.3333C16.6668 9.46649 16.6668 8.53307 16.3035 7.82003C15.9839 7.19282 15.474 6.68289 14.8468 6.36331C14.1338 6 13.2003 6 11.3335 6H8.66683C6.79999 6 5.86657 6 5.15353 6.36331C4.52632 6.68289 4.01639 7.19282 3.69681 7.82003ZM12.0398 10.333C12.2237 10.127 12.2058 9.81095 11.9998 9.62704C11.7939 9.44312 11.4778 9.46101 11.2939 9.667L9.28588 11.9159L8.70647 11.267C8.52255 11.061 8.20648 11.0431 8.00049 11.227C7.79451 11.411 7.77662 11.727 7.96053 11.933L8.91291 12.9997C9.00778 13.1059 9.14345 13.1667 9.28588 13.1667C9.42832 13.1667 9.56399 13.1059 9.65885 12.9997L12.0398 10.333Z" fill="white"/>
<path d="M15.6901 4.30956C14.7137 3.33325 13.1424 3.33325 9.9997 3.33325C6.857 3.33325 5.28565 3.33325 4.30934 4.30956C3.80435 4.81455 3.56056 5.47874 3.44287 6.43724C3.79665 6.04347 4.22173 5.71544 4.69907 5.47222C5.22006 5.20677 5.77792 5.09912 6.3956 5.04865C6.99236 4.9999 7.72663 4.99991 8.62447 4.99992H11.3749C12.2728 4.99991 13.007 4.9999 13.6038 5.04865C14.2215 5.09912 14.7793 5.20677 15.3003 5.47222C15.7777 5.71544 16.2027 6.04347 16.5565 6.43724C16.4388 5.47874 16.195 4.81455 15.6901 4.30956Z" fill="white"/>
</svg>
