<svg width="25" height="25" viewBox="0 0 25 25" fill="none" xmlns="http://www.w3.org/2000/svg">
<path fill-rule="evenodd" clip-rule="evenodd" d="M10.3048 2.19183C8.65698 2.19183 7.32117 3.48523 7.32117 5.08072V7.08072H12.4851V7.63628H5.02609C3.37829 7.63628 2.04248 8.92968 2.04248 10.5252L2.04248 14.8585C2.04248 16.454 3.37829 17.7474 5.02609 17.7474H6.7474V15.3029C6.7474 13.7075 8.08321 12.4141 9.731 12.4141H15.2392C16.6335 12.4141 17.7638 11.3196 17.7638 9.96961V5.08072C17.7638 3.48523 16.428 2.19183 14.7802 2.19183H10.3048ZM9.61625 5.74739C10.1866 5.74739 10.649 5.29967 10.649 4.74739C10.649 4.1951 10.1866 3.74739 9.61625 3.74739C9.04586 3.74739 8.58346 4.1951 8.58346 4.74739C8.58346 5.29967 9.04586 5.74739 9.61625 5.74739Z" fill="#C2C2C2"/>
<path fill-rule="evenodd" clip-rule="evenodd" d="M14.7803 23.1919C16.4281 23.1919 17.7639 21.8985 17.7639 20.303V18.303L12.6 18.303L12.6 17.7474L20.059 17.7474C21.7068 17.7474 23.0426 16.454 23.0426 14.8585V10.5252C23.0426 8.92972 21.7068 7.63632 20.059 7.63632L18.3377 7.63632V10.0808C18.3377 11.6763 17.0019 12.9697 15.3541 12.9697L9.84588 12.9697C8.45159 12.9697 7.32129 14.0641 7.32129 15.4141L7.32129 20.303C7.32129 21.8985 8.65709 23.1919 10.3049 23.1919H14.7803ZM15.4688 19.6363C14.8984 19.6363 14.436 20.084 14.436 20.6363C14.436 21.1886 14.8984 21.6363 15.4688 21.6363C16.0392 21.6363 16.5016 21.1886 16.5016 20.6363C16.5016 20.084 16.0392 19.6363 15.4688 19.6363Z" fill="#9A9A9A"/>
</svg>
