<svg width="20" height="21" viewBox="0 0 20 21" fill="none" xmlns="http://www.w3.org/2000/svg">
<path fill-rule="evenodd" clip-rule="evenodd" d="M8.13524 1.75C6.76208 1.75 5.64891 2.82783 5.64891 4.15741V5.82407H9.95218V6.28703H3.73634C2.36317 6.28703 1.25 7.36487 1.25 8.69444L1.25 12.3056C1.25 13.6351 2.36317 14.713 3.73634 14.713H5.17076V12.6759C5.17076 11.3463 6.28393 10.2685 7.6571 10.2685H12.2473C13.4092 10.2685 14.3511 9.3565 14.3511 8.23148V4.15741C14.3511 2.82783 13.2379 1.75 11.8647 1.75H8.13524ZM7.56147 4.71296C8.0368 4.71296 8.42213 4.33987 8.42213 3.87963C8.42213 3.41939 8.0368 3.0463 7.56147 3.0463C7.08615 3.0463 6.70082 3.41939 6.70082 3.87963C6.70082 4.33987 7.08615 4.71296 7.56147 4.71296Z" fill="url(#paint0_linear_8246_111169)"/>
<path fill-rule="evenodd" clip-rule="evenodd" d="M11.8648 19.25C13.2379 19.25 14.3511 18.1722 14.3511 16.8426V15.1759L10.0478 15.1759L10.0478 14.713L16.2637 14.713C17.6368 14.713 18.75 13.6351 18.75 12.3056V8.69445C18.75 7.36488 17.6368 6.28705 16.2637 6.28705L14.8292 6.28705V8.32408C14.8292 9.65366 13.7161 10.7315 12.3429 10.7315L7.75275 10.7315C6.59084 10.7315 5.64893 11.6435 5.64893 12.7685L5.64893 16.8426C5.64893 18.1722 6.7621 19.25 8.13526 19.25H11.8648ZM12.4385 16.287C11.9632 16.287 11.5779 16.6601 11.5779 17.1204C11.5779 17.5806 11.9632 17.9537 12.4385 17.9537C12.9139 17.9537 13.2992 17.5806 13.2992 17.1204C13.2992 16.6601 12.9139 16.287 12.4385 16.287Z" fill="url(#paint1_linear_8246_111169)"/>
<defs>
<linearGradient id="paint0_linear_8246_111169" x1="7.80054" y1="1.75" x2="7.80054" y2="14.713" gradientUnits="userSpaceOnUse">
<stop stop-color="#327EBD"/>
<stop offset="1" stop-color="#1565A7"/>
</linearGradient>
<linearGradient id="paint1_linear_8246_111169" x1="12.1995" y1="6.28705" x2="12.1995" y2="19.25" gradientUnits="userSpaceOnUse">
<stop stop-color="#FFDA4B"/>
<stop offset="1" stop-color="#F9C600"/>
</linearGradient>
</defs>
</svg>
