<svg width="19" height="19" viewBox="0 0 19 19" fill="none" xmlns="http://www.w3.org/2000/svg">
<path fill-rule="evenodd" clip-rule="evenodd" d="M9.0999 2.09999C5.23391 2.09999 2.0999 5.234 2.0999 9.09999C2.0999 12.966 5.23391 16.1 9.0999 16.1C12.9659 16.1 16.0999 12.966 16.0999 9.09999C16.0999 5.234 12.9659 2.09999 9.0999 2.09999ZM0.899902 9.09999C0.899902 4.57126 4.57117 0.899994 9.0999 0.899994C13.6286 0.899994 17.2999 4.57126 17.2999 9.09999C17.2999 11.1484 16.5488 13.0214 15.307 14.4586L17.9242 17.0757C18.1585 17.31 18.1585 17.6899 17.9242 17.9243C17.6898 18.1586 17.31 18.1586 17.0756 17.9243L14.4585 15.3071C13.0213 16.5489 11.1483 17.3 9.0999 17.3C4.57117 17.3 0.899902 13.6287 0.899902 9.09999Z" fill="white" fill-opacity="0.8"/>
</svg>
