<svg width="16" height="12" viewBox="0 0 16 12" fill="none" xmlns="http://www.w3.org/2000/svg">
<path fill-rule="evenodd" clip-rule="evenodd" d="M7.99992 3.50008C6.61921 3.50008 5.49992 4.61937 5.49992 6.00008C5.49992 7.38079 6.61921 8.50008 7.99992 8.50008C9.38063 8.50008 10.4999 7.38079 10.4999 6.00008C10.4999 4.61937 9.38063 3.50008 7.99992 3.50008ZM6.49992 6.00008C6.49992 5.17165 7.17149 4.50008 7.99992 4.50008C8.82835 4.50008 9.49992 5.17165 9.49992 6.00008C9.49992 6.82851 8.82835 7.50008 7.99992 7.50008C7.17149 7.50008 6.49992 6.82851 6.49992 6.00008Z" fill="#504F4F"/>
<path fill-rule="evenodd" clip-rule="evenodd" d="M7.99992 0.166748C4.9905 0.166748 2.96345 1.96955 1.78696 3.49799L1.76575 3.52555C1.49968 3.8711 1.25463 4.18936 1.08838 4.56568C0.910348 4.96866 0.833252 5.40787 0.833252 6.00008C0.833252 6.59229 0.910348 7.0315 1.08838 7.43448C1.25463 7.8108 1.49968 8.12906 1.76575 8.47462L1.78696 8.50217C2.96345 10.0306 4.9905 11.8334 7.99992 11.8334C11.0093 11.8334 13.0364 10.0306 14.2129 8.50217L14.2341 8.47463C14.5002 8.12907 14.7452 7.81081 14.9115 7.43448C15.0895 7.0315 15.1666 6.59229 15.1666 6.00008C15.1666 5.40787 15.0895 4.96866 14.9115 4.56568C14.7452 4.18936 14.5002 3.87109 14.2341 3.52553L14.2129 3.49799C13.0364 1.96955 11.0093 0.166748 7.99992 0.166748ZM2.5794 4.10795C3.66568 2.69669 5.43349 1.16675 7.99992 1.16675C10.5663 1.16675 12.3342 2.69669 13.4204 4.10795C13.7128 4.48781 13.8841 4.71479 13.9967 4.96978C14.102 5.20809 14.1666 5.49937 14.1666 6.00008C14.1666 6.50079 14.102 6.79207 13.9967 7.03038C13.8841 7.28538 13.7128 7.51236 13.4204 7.89222C12.3342 9.30347 10.5663 10.8334 7.99992 10.8334C5.43349 10.8334 3.66568 9.30347 2.5794 7.89222C2.28701 7.51236 2.11574 7.28538 2.00309 7.03038C1.89781 6.79207 1.83325 6.50079 1.83325 6.00008C1.83325 5.49937 1.89781 5.20809 2.00309 4.96978C2.11574 4.71479 2.28701 4.48781 2.5794 4.10795Z" fill="#504F4F"/>
</svg>
